<?xml version="1.0" encoding="utf-8"?>
<!-- Generator: Adobe Illustrator 23.0.0, SVG Export Plug-In . SVG Version: 6.00 Build 0)  -->
<svg version="1.1" id="Слой_1" xmlns="http://www.w3.org/2000/svg" xmlns:xlink="http://www.w3.org/1999/xlink" x="0px" y="0px"
	 viewBox="0 0 512 512" enable-background="new 0 0 512 512" xml:space="preserve">
<g>
	<path fill="#FEFEFE" d="M278,1c77,0,154,0,231-0.1c3.4,0,4.1,0.7,4.1,4.1C513,82,513,159,513,236c-2.8-0.5-2.2-2.9-2.5-4.7
		c-2.1-15.1-4.3-30.2-8.8-44.8c-2.7-8.7-6.2-17.1-9.4-25.7c-1.9-6.5-5.8-12.2-8.2-18.5c-4.2-10.7-10.6-20.2-17.2-29.6
		c-0.7-1-1.5-1.8-2-2.8c-6.6-9.8-14-18.9-22.5-27.2c-5.7-6.4-12.5-11.7-18.4-17.9c-6.2-6-13-11.3-20.5-15.7
		c-2.1-1.4-4.2-2.7-6.1-4.4c-1.8-1.8-4.1-2.7-6.2-4c-5.1-3.3-10.1-6.5-15.7-8.9c-5.3-2.8-10.7-5.3-16.1-7.9c-3.8-2.2-7.9-3.4-11.9-5
		c-3.6-1.6-7.6-2-11.2-3.7c-3.4-1.5-7-2.6-10.6-3.4c-3.6-1.3-7.3-2.1-11.1-2.9C308.9,7.6,303,6.4,297,5.4c-1.3,0-2.6-0.2-3.9-0.5
		c-2.5-0.9-5.1-0.4-7.6-1c-1.7-0.5-3.4-0.7-5.1-0.8c-0.5-0.1-1-0.2-1.5-0.4C278.3,2.4,277.7,1.9,278,1z"/>
	<path fill="#FEFEFE" d="M1,235C1,158.4,1,81.8,0.9,5.2c0-3.6,0.7-4.3,4.3-4.3C81.8,1,158.4,1,235,1c-0.8,3.4-4.1,1.7-6,2.9
		c-1.3,0.3-2.7,0.4-4,0.4c-4.3,0.2-8.4,1.5-12.7,2c-5.7,0.8-11.4,2.1-17,3.5c-5.2,1.2-10.3,2.8-15.4,4.4c-3.6,1-7,2.3-10.5,3.8
		c-4.4,1.3-8.7,3-12.9,5c-5,1.7-9.4,4.5-14.2,6.8c-5.8,2.5-11.3,5.8-16.8,8.9c-3.2,1.7-6.1,3.9-9.2,6c-5.1,3-9.8,6.8-14.5,10.3
		c-6.6,5.2-13.3,10.4-19.1,16.6c-3.4,3.3-6.8,6.7-10.1,10.1c-6.3,5.7-11.5,12.5-16.8,19.1c-8.5,11.4-16.6,23-23,35.7
		c-5,10-10.4,19.8-14,30.4c-7.1,19.6-12.4,39.7-14.7,60.5C3.8,230,4.6,233.5,1,235z"/>
	<path fill="#FEFEFE" d="M513,279c0,76.7,0,153.3,0.1,230c0,3.4-0.7,4.1-4.1,4.1c-77-0.1-154-0.1-231-0.1c1.2-3.8,4.8-1.6,7-3
		c2.7-0.5,5.4-0.3,8.1-1c4.5-0.6,9-1.4,13.5-2.3c5.4-0.9,10.6-2.1,15.9-3.5c1.2-0.4,2.4-0.7,3.6-1.1c2.1-0.6,4.2-1.4,6.2-2
		c4.3-0.9,8.4-2.5,12.6-3.9c4.3-1.4,8.5-3.3,12.7-4.9c1.5-0.6,3-1.3,4.4-2.1c2.9-1.3,5.9-2.3,8.7-3.8c1.4-0.7,2.8-1.3,4.2-2
		c1.7-0.9,3.3-2.1,5-3.1c2.2-1.4,4.9-2,6.9-3.9c2.6-1.8,5.3-3.6,7.9-5.4c9.5-4.9,17.7-11.7,25.9-18.5c7.4-6.5,15.4-12.5,21.7-20.2
		c7-7.6,13.8-15.3,19.8-23.7c1.2-1.6,2.4-3.2,3.2-5.1c5.7-9.3,13.1-17.6,17.3-27.9c4.6-8.2,8.6-16.7,11.5-25.6
		c8-19.9,13.2-40.6,15.8-61.9C510.2,285,509,281,513,279z"/>
	<path fill="#FEFEFE" d="M235,513c-76.7,0-153.3,0-230,0.1c-3.4,0-4.1-0.7-4.1-4.1C1,432.3,1,355.7,1,279c2.7,0.3,2.2,2.6,2.5,4.2
		c1.2,7.2,2.1,14.5,3.4,21.7c2.6,14.5,7,28.4,11.8,42.3c3.4,9.3,7.5,18.3,11.9,27.2c1.7,3,3.5,6,5,9.1c0.6,1.2,1.4,2.3,2.1,3.5
		c2.6,4.8,5.9,9.2,8.9,13.7c2.7,4.5,6.1,8.5,9.2,12.7c5.8,7.7,12.5,14.6,18.8,21.9c3.2,3.9,7.4,6.7,11.1,10.1
		c4.2,4.5,9,8.2,13.9,11.9c4.9,3.7,9.7,7.6,14.9,10.8c3.6,2.4,7,4.9,10.7,7c1.8,1,3.4,2.2,5.2,3.1c3.7,1.9,7.4,3.7,11,5.9
		c3.2,2,6.9,2.9,10.3,4.7c5.3,2.8,11,4.8,16.6,7c2.1,0.7,4.1,1.4,6.2,2.1c4.9,1.7,9.9,3.3,14.9,4.7c1.9,0.6,3.8,1.1,5.7,1.5
		c3.6,1.1,7.3,1.7,11,2.4c1,0.1,2,0.3,3,0.5c2.8,0.5,5.4,1.4,8.3,1.5c2.7,0.1,5.3,1.1,8,1C228.6,510.6,232.8,509,235,513z"/>
	<path fill="#B30B60" d="M262,513c-2.7,0-5.3,0-8,0c3.7-4.2,2.2-9.3,2.6-14.1c0.4-5.1,1.1-10.2,0.8-15.4c-0.5-7.3-1.1-14.6,2.5-21.4
		c0.6-1.2,0.5-2.3-0.2-3.3c-2.3-3.2-2.3-6.9-2.2-10.6c0.2-11.1,0.8-22.3,0.4-33.4c-0.7-24-0.7-47.9-0.3-71.9
		c0.3-19-0.8-37.9-0.2-56.8c0.2-5.8-0.5-11.5-0.6-17.2c-0.1-3.5,2.4-6,3.5-9.1c3.8-11.3,7.6-22.6,13.1-33.2c3.6-0.6,4.1-0.9,7.1-4.3
		c0.7-0.7,1.3-1.7,2.4-1.3c1.3,0.5,1.7,1.5,1.2,2.8c-0.3,0.8-0.7,1.5-0.8,2.4c-0.3,2-2,3.3-2.8,5c-0.8,1.1-1.5,2.1-2.1,3.2
		c-1.6,2.2-2.8,4.5-3.5,7.1c-0.1,0.4-0.3,0.8-0.4,1.3c-1.3,2.3-0.7,5.3-2.6,7.4c-1.7,1.9-0.1,3.7,0.1,5.6c0.4,3.6,0.9,7.3,1.8,10.8
		c1.7,6.9,4.9,13.1,10,18.1c1.2,1.1,2.5,2.3,2.4,4.2c-0.3,0.4-0.6,0.7-1.1,0.9c-2.2,0.4-3.4-0.9-4.4-2.5c-0.7-1.2-1.1-0.7-1.7,0.1
		c-3.5,0-1,2.9-2,4.1c-0.4,0.6-1,1.1-1.3,1.8c-0.8,2.7-0.1,5.3,1.1,7.7c1.6,3.4,1.7,6.7,0,10.1c-1.6,3.1-1.5,6,0.2,9
		c1.6,2.9,1.8,6.2,0.2,9.1c-1.6,2.9-2,5.9-1.9,9.1c0.4,9.9-0.9,19.9,0.9,29.8c0.6,3.5-1.1,6.9-0.8,10.4c2,15.2-0.1,30.5,0.5,45.8
		c0.3,7.2-0.2,14.6-0.5,21.9c-0.4,10.8,2.3,21.6,0.2,32.4c-0.3,1.6,0.6,3.3,0.7,4.9c0.6,9.2-0.1,18.4-1.1,27.5
		c-0.1,0.8-0.7,1.5-1.3,2.1c-2.3,0-4.7,0-7,0C265.3,512.2,263.7,512.2,262,513z"/>
	<path fill="#AF0C62" d="M275,226c-3.5,8.6-7,17.1-10.4,25.8c-1.4,3.6-2.5,7.2-3.5,10.9c-0.3,1.1-0.4,2.3-1.5,3
		c-2.3,1.5-2.3,2.8,0,4.5c1.2,0.9,2.7,2.6-0.7,2.4c-1,0-1.4,0.7-1.1,1.7c2.9,9.8,0.6,19.8,1.3,29.7c0.4,6.4-0.5,12.9,0.9,19.4
		c1.1,4.9-1,9.8-0.9,14.8c0.1,22.5-0.3,44.9,0.2,67.4c0.3,14.7-0.5,29.4-0.3,44.2c0.1,4.3,2.8,7.3,3.5,10.7c0.6,3-3.7,6-3.6,10.6
		c0.3,12.2-0.7,24.4-0.7,36.6c0,3.4-3.8,2.8-4.1,5.4c-3.3,0-6.7,0-10,0c-1-1-3,0.1-3.7-1.6c-1.2-7.1,0.1-14.2-0.1-21.4
		c-0.3-9.3-0.3-18.6-0.2-27.9c0.1-20.4-1.4-40.8,0.1-61.2c0.3-4-0.6-7.9-0.6-11.9c-0.1-14.6-0.1-29.2,0.5-43.8
		c0.3-8.6,0.2-17.1-0.3-25.6c-0.4-6.9,1-13.9-0.3-20.8c0.3-0.8,0.8-1.3,1.7-1.4c1.2-0.1,1.9,0.9,2.7,1.6c0.2,0.2,0.4,0.2,0.4,0.2
		c0.5-0.6-0.6-0.4-0.4-0.9c-0.1-0.4-0.1-0.8-0.1-1.2c0.1-0.6,0.3-1.3,0.5-1.9c0.2-0.7,0.4-1.3,0.6-1.9c2.6-6.1,4.9-12.3,7.4-18.4
		c0.1-0.4,0.3-0.8,0.5-1.2c0.7-1.3,1.3-2.7,1.7-4.2c0.1-0.4,0.3-0.8,0.5-1.2c0.9-1.6,1.3-3.3,1.9-5c2.5-6.2,5.1-12.3,7.6-18.5
		c1.3-3.3,3-6.5,3.6-10c0.2-1.2,0.5-2.3,1.3-3.3c2.1-1.9,2.1-5.2,4.5-6.9c0.5-0.1,0.9,0,1.4,0.1c0.1,0.2,0.3,0.4,0.4,0.6
		C275.2,225.6,275.1,225.8,275,226z"/>
	<path fill="#AB0D64" d="M240,298c1.4,5.1,1.7,10.2,1.2,15.6c-0.6,6.1-0.7,12.3,1.6,18.2c0.2,0.6,0.4,1.4,0.2,2
		c-3.6,7.5-1.8,15.6-1.6,23.3c0.3,13.5-1.7,27.1,0.5,40.6c0.4,2.5-0.8,4.6-0.8,6.9c0.1,9.6,1.2,19.2,0.2,28.7
		c-0.9,8.5,2.1,16.8-0.2,25.2c-0.8,2.9,0.7,5.9,0.7,8.8c0.2,7.6-0.1,15.1-0.3,22.7c-0.2,7.3-0.4,14.6-0.6,22c0,0.7-0.7,0.8-1,1.2
		c-1.7,0-3.3,0-5,0c-3-2.2-6.8-1.1-10-2.2c-2.9-2.3-3.6-5.8-3.2-9c1.2-10.1-0.9-20.3,1.3-30.3c0.4-1.8,0.2-3.7-0.3-5.4
		c-0.7-2.7-0.6-5.2,0.5-7.8c1.6-4.1,1.6-8.1-1.1-11.9c-1.3-1.9-1.7-4.1-0.9-6.2c3.8-9.7,1.5-19.8,2.1-29.6
		c0.7-11.9-1.6-23.8,0.8-35.8c1.2-5.8,1.1-11.9-0.7-17.8c-0.4-1.3-0.7-2.6-0.6-3.9c0.9-11.7,0.5-23.5,1.6-35.2
		c0.4-4.3-1.3-8.6,0-12.9c0.9-3.1,1.9-6.1,4.9-7.8C233,296.6,236.6,295.7,240,298z"/>
	<path fill="#AF0C62" d="M275,225c-0.3,0-0.7,0-1,0c-0.6-0.6-0.9-1.3-1-2.1c-0.1-1.3,0.3-2.5,0.9-3.6c0.4-0.9,0.4-1.8-0.7-1.8
		c-6.6-0.3-13.2-0.4-19.8,0.1c-1.9,0.2-2.8,2.1-3.8,3.7c-2.1,1.5-0.9,6.1-5.1,5.7c-3.4-2.8-5.7-5.8-1.9-10c1.1-1.2,0.7-2.9,0.1-4.3
		c-3.3-7-1.2-14.1-0.3-21.1c0.2-1.6,0.9-3.2,0.6-4.9c-3.4-16.4-1.1-32.7,0.1-49.1c0.9-11.8,0.3-23.6-0.8-35.3
		c-1-10-1.2-19.9,0.3-29.9c0.9-6,1-11.9-0.5-17.8c-0.6-2.3-0.9-4.8,0.3-6.9c3.7-6.6,3.5-13.2,0.4-19.9c-1-2.3-0.5-4.6,0-6.9
		c0.7-3.8,0.9-7.5-0.4-11.3c-0.9-2.8-1.3-5.9,0.8-8.6c1.3,0,2.7,0,4,0c1.7,0.8,3.3,0.8,5,0c3,0,6,0,9,0c2.7,4.9,1.5,10.1,1.1,15.2
		c-0.7,10.3,0,20.6-0.6,30.8c-0.9,15.4,2.3,30.9,0,46.3c-0.5,3.1-0.2,6.3,0.4,9.5c0.7,4,1.6,8.4,0.1,11.9
		c-3.9,8.7-0.2,16.9,0.1,25.3c0.2,5.8,1,11.7-2,17.1c-1.3,2.2-0.7,4.5,0.2,6.7c1.3,3.2,1.4,6.5,0.2,9.8c-2.5,6.9-2.5,13.6,0.8,20.3
		c1.1,2.2,0.9,4.6-0.1,6.8c-1.3,2.9-2.5,5.8-2.5,9.1c0,2.6-1.5,3.4-3,3c5,0.2,10.8-0.6,16.6,0c0.5,0.1,1.1,0.2,1.6,0.3
		c1.7,0.7,3.6,1.1,4.6,2.9c1.1,2.7-0.9,4.9-1.4,7.4C276.7,224.2,276.4,225.3,275,225z"/>
	<path fill="#B20B60" d="M274,214c-7.8,0-15.6,0-23.4,0c1.8-2.8,4.7-1,6.3-2.4c1.8-1.6-0.8-4.3,0.6-6.5c1.1-1.7,1.7-3.6,2.7-5.3
		c1.1-2,1.1-3.9-0.2-5.6c-4.2-5.8-3.5-12.3-1.7-18.2c1.5-4.9,2.2-9-0.2-13.7c-1-2-0.9-4.1,0.9-6.4c3.6-4.4,2.7-10.1,1.7-14.9
		c-1.1-5.4,1.2-11.5-3.2-16.3c-0.9-1,0.3-2.3,0.8-3.2c3.7-6,3-12.4,2-18.8c-0.2-1.6-0.5-3.3-0.3-5c1.7-13.1,0.1-26.2,0.2-39.2
		c0-8.8,0.4-17.9,0.3-26.6c-0.2-10.3,1.6-20.5,0.5-30.7c3,0,6,0,9,0c0.8,0.5,1.5,0.9,1.9,1.8c1.6,8.1,4.9,15.8,5.9,24.1
		c0.8,6.6,0.3,12.9-1.3,19.2c-0.9,3.5-1,6.8,0.1,10.3c1.7,5.5,1.5,11.3,0.2,16.8c-1.5,6.7-1.6,13,0,19.6c1.4,5.5,1.2,11.2-0.3,16.8
		c-0.5,1.8-1.4,3.6-0.9,5.4c3.1,10.4-1.4,20.7-0.2,31.1c0.4,3.8-0.1,7.7,1.5,11.3c0.3,0.8,0.5,1.6,0.4,2.4
		c-2.4,16.8,2,33.5-0.1,50.3C276.8,212,276,213.5,274,214z"/>
	<path fill="#DF0046" d="M513,279c-2.5,5.5-1.9,11.5-2.9,17.2c-3.3,18.8-7.6,37.2-15.2,54.8c-3.3,1.1-3.8-1.3-3.9-3.5
		c-0.3-7.1-1.8-14.2-2.1-21.3c-0.2-5.6,2.4-10.6,4.1-15.7c1.2-3.6,0.6-6.4-0.1-10c-1.8-8.6-4.3-17.5,0-26.2c1.6-3.3,1.8-6.3,0.1-9.5
		c-2.3-4.3-2.9-8.8-2-13.5c0.9-5.1-0.2-10.3-0.3-15.4c-0.4-15.3,1.5-30.5,0.8-45.8c0.2-2-0.1-4,0.5-6c2.7-3.5,2.7-6.8,0.4-10.9
		c-2.4-4.2-2.8-9.2,0.7-13.6c10.7,23.1,16.1,47.7,18.8,72.8c0.1,1.2-0.7,2.7,1,3.5c0,3.3,0,6.7,0,10c-0.8,2-0.8,4,0,6c0,6,0,12,0,18
		c-0.8,1.3-0.8,2.7,0,4C513,275.7,513,277.3,513,279z"/>
	<path fill="#82187C" d="M18,348c-7.1-16.6-10.9-34-14.1-51.7c-1-5.8-0.4-11.8-2.9-17.3c0-3.7,0-7.3,0-11c0.8-2,0.8-4,0-6
		c0-6,0-12,0-18c0.8-1.3,0.8-2.7,0-4c0-1.7,0-3.3,0-5c2.4-5.4,1.9-11.2,2.9-16.8c3.1-17.9,7-35.5,14.1-52.2c2.5,2.1,2.4,5,2.4,7.8
		c0.1,12.8,0,25.6,0.1,38.4c0,3.3-0.7,6.2-2.9,8.7c-2,2.2-1.8,4.3,0.1,6.7c4,5.1,4.1,14.3,0.3,19.5c-2.1,2.9-2.3,5.1,0.1,7.9
		c3.5,4.1,3.3,7.3-0.4,11.4c-1.8,2-2,3.9-0.3,5.7c3,3.3,3.3,7.1,3.2,11.2c-0.1,3.5,0,7,0,10.5c0,3.2-0.3,6.2-3,8.6
		c-2.2,2-2.2,4.5-0.1,6.6c2.7,2.8,3.2,6,3.2,9.6c-0.1,7.2,0.1,14.3-0.1,21.5C20.4,343,20.4,345.9,18,348z"/>
	<path fill="#AB0E64" d="M245,227c2.6-1.2,0.7-5.3,4-6c0.9,0.8,1,1.8,0.8,2.8c-1.6,4.4-3.2,8.8-4.9,13.1c-1.6,3.2-2.4,6.7-3.9,10
		c-0.9,1.8-1.4,3.8-2.1,5.7c-0.7,1.6-1.5,3.1-1.9,4.8c-0.1,0.4-0.3,0.8-0.5,1.2c-1.1,1.5-1,3.9-3.1,4.7c-1.8,0.1-3.2-0.2-2.9-2.5
		c0.6-1.7,0.8-3.6,1.8-5c2-2.7,0.2-3.3-1.7-4.2c-1.5-4.3-5.8-7.5-4.5-12.8c0.2-0.8-0.1-1.8,0.3-2.5c3.4-5.8,1.3-12,1.3-18
		c0-4.7-0.1-9.3,1.8-13.7c1.1-2.7,1.7-5.7,0.6-8.3c-3.1-7.4-1.3-14.9-1.4-22.5c-0.1-8.3,1.4-16.5-0.3-25.1
		c-1.5-7.4-1.9-15.9,2.1-23.4c1.1-2,1.6-4.3,0.6-6.3c-2.4-4.6-1.7-9.7-2.6-14.6c-0.5-2.7,1.4-4.8,1.3-7.3c-0.1-3,0.1-6-0.9-8.9
		c-0.4-1.1-1-2.3-0.6-3.4c2.3-6.1-0.4-12.1-0.4-18.2c0-7.4-0.2-14.8,1.1-22.2c0.1-0.5,0.4-1,0.2-1.5c-3.5-8.6,1.6-16.6,1.9-24.9
		c0.1-4.7-1.9-9.6,0.4-14.3c0.1-0.1-2.2,0-2.8-1.2c1.8-1.4,4.6,0.3,6.3-1.9c0.7,0,1.3,0,2,0c2.2,3,2.4,6.5,2,10
		c-0.7,6.7-1,13.2,1.6,19.7c1.7,4.2,1.8,9.1,0,13.3c-2.8,6.5-2.6,13.1-1.9,19.7c0.9,7.7,0.1,15.3,0,22.9c-0.2,24-0.7,47.9,0.6,71.9
		c0.3,5.3-1.1,10.6-1,15.9c0.4,13.1,0.8,26.2,0.2,39.4c-0.1,2-0.2,4-1.2,5.8c-2.1,3.9-1.5,7.3,2,10.2c1.3,1.1,2.3,2.3,1.5,5.1
		C242.9,231.7,242.7,228.7,245,227z"/>
	<path fill="#B50A5E" d="M274,513c0.5-5.2,1.4-10.4,0.1-15.7c-0.5-1.9,0.1-3.9,1.1-5.7c1.2-2.2,1.3-4.5,0.2-6.7
		c-1.8-3.6-1.7-7.3-0.8-11.1c0.8-3.4,0.8-7,0.3-10.4c-1.8-11.1-0.8-22.2-0.7-33.3c0.1-10.7,0.1-21.3,0.7-32
		c0.4-6.6-0.5-13.4-0.9-20.1c2.9-4.8,4-9.5,1.3-14.9c-1-2-0.8-4.9,0.8-7.2c2-2.9,2-6.1,0.5-9c-1.8-3.7-2.6-6.8,0.1-10.6
		c1.8-2.6,1.4-6.2,1.2-9.2c-0.7-8.8,0.5-17.5-0.1-26.3c-0.2-3.7-2.1-6.5-2.8-9.8c0.7,0,1.3,0,2,0c0.8-1.2,1.3-2.7,2-4
		c0.1-1.4-0.3-3.8,2.1-1.3c1.2,1.3,1.6,3.4,3.9,3.3c1.7,0.9,1.2,2.1,0.3,3.2c-3.2,3.8,2.5-0.4,1.4,1.6c4.9,3.7,5,4.1,0.4,7.9
		c-2,1.7-2.7,3.7-2.6,6.1c0,11-0.5,21.9,0,32.9c0,0.3-0.1,0.7,0.1,1c4.1,8-0.1,15.8-0.5,23.7c-0.5,10.8-0.9,21.8,1.2,32.2
		c1.3,6.4,3.6,11.4-0.4,17.7c-1.8,2.8-1.1,7.6,0.2,11.2c2.6,7.5-0.4,14.4-2.3,21.3c-0.7,2.6-1.5,4.7,0.1,7c1,1.6,1.8,3.4,1.5,5.2
		c-1.8,8.4,1.2,16.9-0.7,25.3c-0.1,0.5-0.3,1.1-0.1,1.5c3.2,7.9,1.1,16.1,1.7,24.2c-2.2,1.6-5.3-0.4-7.3,1.9
		C276.7,513,275.3,513,274,513z"/>
	<path fill="#AB0D64" d="M245,227c-0.2,4.1-2.2,7.6-4.2,11.1c-0.3-0.2-0.8-0.4-0.7-0.4c2.2-6.1-5.8-7.9-5.5-13.3
		c0.1-1.1-0.7-2.2-0.1-3.3c4.7-8,2.1-16.7,2.7-25.2c0.7-10.5-1.5-21.1,0.6-31.6c1.1-5.6-0.2-11.2-0.3-16.7
		c-0.5-20.4-0.6-40.8,0.2-61.2c0.4-11-0.4-22-0.6-33.1c-0.1-3,0.4-5.7,1.9-8.5c2.2-4.2,2.2-9.5,0.4-13.5c-2.3-5-2.5-10-2.2-15
		c0.4-5.1,0.6-10.1-0.1-15.2c2,0,4,0,6,0c0.1,4-0.2,7.8,1.6,11.7c1.6,3.5-0.9,7.1-1,10.7c0,1.1-1,2.4-0.2,3.3
		c4.6,4.5,1.3,10.6,3.2,15.6c0.5,1.3,0.1,2.2-1.1,2.9c-3.7,2.2-3.3,6.1-2.3,9c2.5,6.9,1.3,13.7,0.3,20.5c-1.2,8.4-1.1,17-0.3,25.3
		c1.2,12.6,2,25.1,1,37.8c-0.8,10.6-2.1,21.2-1.4,31.9c0.3,5.3-0.8,10.5,1.3,15.8c1.8,4.7-1.3,9.5-1.6,14.4c-0.3,4.3-0.3,8.2,1.5,12
		c1.3,2.8,1.9,5.3-1.5,7.3c-2.7,1.6-0.6,3,0.6,4.3C244.1,224.6,245,225.5,245,227z"/>
	<path fill="#B50A5E" d="M276,211c0-10.3,0-20.5,0-30.8c0-2.3-0.5-4.4-1.4-6.7c-1.2-2.8-1.4-6.2,0.5-9.1c1.3-2,1.4-4.4,0.7-6.2
		c-3.7-9.2-1.8-18.8-1.3-28c0.2-4.3,1.3-8.2-0.2-12.6c-0.9-2.7,0.4-6,1.1-9.1c1.2-5.5,1.5-11.2-0.5-17c-1.8-5.3-1.7-11.3-0.1-16.7
		c1.8-6.4,2.1-12.5,0-18.7c-1-3-1.2-6-0.2-8.8c3.5-9.6,2.4-18.9,0.2-28.7c-1.2-5.5-5.2-10.4-3.7-16.5c0.7-1.1,2.2-0.1,3-1.1
		c1.3,0,2.7,0,4,0c0.3,0.4,0.7,0.8,1,1.2c1.7,1.7,1.5,4,1.5,6.1c-0.2,19.8,0.4,39.6-0.3,59.4c-0.3,8.4,0.7,17,0.3,25.4
		c-0.9,22.1-0.7,44.3-1,66.4c-0.2,14.8,0.6,29.6,0,44.4C279.4,206.7,280.5,210.3,276,211z"/>
	<path fill="#8F328B" d="M1,262c1.5,2,1.5,4,0,6C1,266,1,264,1,262z"/>
	<path fill="#E41D5B" d="M513,252c-1.5-2-1.5-4,0-6C513,248,513,250,513,252z"/>
	<path fill="#B72874" d="M252,1c-1.7,1.5-3.3,1.5-5,0C248.7,1,250.3,1,252,1z"/>
	<path fill="#BB2772" d="M262,513c1.7-1.5,3.3-1.5,5,0C265.3,513,263.7,513,262,513z"/>
	<path fill="#ED6F96" d="M513,274c-1.7-1.3-1.3-2.7,0-4C513,271.3,513,272.7,513,274z"/>
	<path fill="#D475A4" d="M274,1c-0.6,1.5-2,0.8-3,1.1c-0.3-0.4-0.7-0.7-1-1.1C271.3,1,272.7,1,274,1z"/>
	<path fill="#D076A7" d="M240,513c0.3-0.4,0.7-0.8,1-1.2c1,0.3,2.3-0.1,3,1.2C242.7,513,241.3,513,240,513z"/>
	<path fill="#B67CB4" d="M1,240c1.7,1.3,1.3,2.7,0,4C1,242.7,1,241.3,1,240z"/>
	<path fill="#D8014A" d="M465.9,404c-4.7,8.9-11.7,16-18.1,23.6c-1.6,1.9-3.4,3.6-5.2,5.4c-5.7-2.9-7.7-8-4.7-13.4
		c1.8-3.3,2.1-5.8-0.6-8.9c-2.8-3.2-2.9-15.4,0-18.1c5-4.7,3.4-9.8,1.3-14.6c-2.2-5.1-3.1-9.7,0-14.6c1.2-1.8,1.1-3.9-0.1-5.7
		c-3-4.5-2.5-9.1-0.3-13.7c1.3-2.7,1.8-5.7,2.1-8.7c0.3-2.1-0.1-3.9-1.6-5.5c-2.9-3.1-2.9-6.7-1-10.1c1.8-3.1,1.9-5.7,0-8.8
		c-2.1-3.6-1.5-7.7-0.9-11.6c0.2-0.4,0.4-0.9,0.8-1.2c1.3-0.9,2.5,1.7,3.7,0c0.3-0.5,0.7-1,1.1-1.4c0.6-0.6,1-1.2,1-2.1
		c0-2-1.5-2.9-2.8-3.9c-1.2-1-1.9-2.2-2.3-3.6c2.2-5.2,1.1-10.1-1.5-14.9c-0.9-1.5-0.8-3.8,0-5.4c2.1-4.6,2.2-9.6,3.6-14.4
		c1.6-5.9,1.6-11.5-0.8-17c-2.1-4.8-3.8-9.4,2.3-12.7c0.5-0.3,0.5-1.2,0.7-1.8c0.3-2,2.3-3.2,2.2-5.3c-0.8-3.4-2.9-1.7-4.6-1.1
		c-0.5,0.1-1,0.2-1.5,0.1c-0.9-0.2-1.3-0.9-1.4-1.7c1.9-4.4,2.5-8.9,1.4-13.6c-0.6-2.5,0.1-5,1.5-7.2c1.8-2.7,2.3-5.5,0.5-8.4
		c-1.3-2.2-1.3-4.8-1.3-7.3c0-10,0-20,0-30c0-2.9,0.3-5.6,1.7-8.2c1.4-2.6,2.1-5.7,0.9-8.2c-2.1-4.6-1.8-8.9-0.7-13.5
		c0.4-1.8,0.3-3.7-0.2-5.5c-1-3.3-1-6.4,0.6-9.6c1.3-2.7,0.8-5.6-0.7-8.2c-1.4-2.4-1.8-5-1.3-7.7c0.3-2,0.8-4.1,3.6-3.7
		c8.3,8.4,15.8,17.4,22.3,27.2c1.2,7.3,0.6,14.6,0.7,21.8c0,3-0.1,6,1.1,8.9c0.3,0.6,0.5,1.3,0.4,1.9c-3.1,11.7,0.3,23.8-2.7,35.6
		c-1.8,7.5-2.2,15.6,2.1,23.3c2.7,4.9,0.2,10.8-0.2,16.2c-0.2,3-0.8,6-0.5,8.9c0.5,5.3,0.7,10.3-2.2,15.4c-2.2,3.8,0.1,8.4,0.9,12.7
		c1.8,10.7,2.7,21.4-0.7,32c-0.6,1.9-0.4,3.6,0.4,5.3c2,4,1.9,7.9-0.3,11.9c-1.7,3.1-0.8,6.9-2.3,10.2c-0.6,1.4,0.4,2.1,1.6,2.5
		c4.8,1.7,4.8,5.6,4,9.5c-2.3,10.9-1.4,22.2-4.2,33.1c-0.4,1.6,0,3.4,0.7,4.9c2.9,5.7,2.7,11.9,1.5,17.6c-0.9,4.5-4.1,8.3,1.6,11.9
		c1.6,1,0.7,4.1-0.2,6.1C466.6,400.5,465.7,402.1,465.9,404z"/>
	<path fill="#DB0048" d="M465.9,404c-1.5-1.6-1-3.3-0.3-5.1c2.5-5.6,2-6.8-3.4-9c-1.2-0.5-2.8-0.7-3-2.2c-0.2-2.1,1.8-1.5,2.9-1.9
		c1.2-0.5,1.9-1.4,2.2-2.6c1.2-5.6,2.4-12-0.1-16.6c-3.4-6.2-1.6-11.7-0.6-17.3c0.7-3.9,1.4-7.8,1.4-11.8c0-4.1-0.2-8.1,1.6-12.2
		c2-4.8,0.1-7.3-5.3-8.3c-2.6-0.5-2.8-1.8-1.3-3.3c2.1-2,2.1-4.4,2-6.9c0-1.5-0.1-3.1,0.9-4.3c3.2-3.7,2.9-7.5,0.2-11.3
		c-1.2-1.8-1.7-3.9-0.3-5.6c2.5-3,2.1-6.5,2.2-9.9c0.2-9.6,0.1-19.2-2.7-28.5c-1-3.3-0.9-6.9,2.2-9.7c1.4-1.3,1.8-3.2,1.3-5.1
		c-2.4-8.6,0.3-17,0.8-25.5c0.2-3.1,0.8-6-2.2-8.1c-1-0.7-1.5-1.8-1.5-3c0-6-1.1-12.3,0.3-17.9c2.2-8.9,2.1-17.6,1.7-26.4
		c-0.1-2.6-0.6-5.3,1.4-7.6c0.7-0.8,0.5-1.9,0.2-2.9c-3.3-10.5-1.6-21.2-1-31.8c6.6,8.4,11.9,17.7,17,27.1c1,1.8,2.6,3.5,2.1,5.9
		c-4.7,7.6-3.7,15.3-1,23.3c1.2,3.6,0.7,7.7-0.9,11.2c-1.4,2.9-1,5.4,0.9,7.9c0.8,2.2,0.4,4.4,0.6,6.6c0,4.5,0.3,8.9-2.7,12.9
		c-1.4,1.8-0.1,3.8,0.9,5.5c2.4,4.1,2.7,8.2-0.3,12.1c-1.4,1.8-1.9,3.8-1.9,6.1c0,8,0.7,15.9,0.7,23.9c0,0.5,0,1.1,0.3,1.5
		c7,8.5,2.9,18.4,2.6,27.4c-0.4,11.3,0.7,22.6,0.4,33.8c-0.1,3.3,0,6.7-1.7,9.7c-0.8,1.4-0.9,2.9,0.2,4.2c2.4,2.8,2.3,6,1.7,9.4
		c-0.5,3-0.3,6-0.3,9c0,4.3-0.8,8.2-2.7,12.4c-2.2,4.7-4.4,10.7,1.1,15.5c0.5,0.4,0.5,1.2,0.3,1.9
		C478.9,386.5,472.3,395.2,465.9,404z"/>
	<path fill="#D1044E" d="M438,214c0.7,0,1.3,0,2,0c-0.1,2.5-2.2,2.2-3.7,2.2c-6,0.1-12,0.6-18-0.3c-2.5-0.4-4.2,0-5.4,2.3
		c-0.5,0.9-1,1.8-1.8,2.4c-1.9,1.4-2.2,4.5-4.5,5.2c-3.4,1.1-2.1-3.5-4.5-4.2c-1.1-0.3-2.1-1.1-3.1-1.7c-3.7-2.3-4.9-6.9-1.9-10.2
		c2.3-2.5,2.3-4.6,0.7-7.1c-2.7-4-2.6-7.7,0-12c2.3-3.8,2.2-8.7,2.4-13c0.2-4.7,0.3-9.7-2.4-14.1c-1.1-1.8-1.6-4-0.5-5.8
		c4.5-7,2.7-14.9,3-22.4c0.1-2.7,0-5.3,1-7.9c0.4-1.1,0.8-2.3,0.4-3.4c-3.4-9.7-1.2-19.7-1.5-29.6c-0.4-11,0.6-21.9-0.3-32.8
		c-0.4-4.9,2.9-9,4.1-13.6c7.8,4.2,14.4,9.9,20.7,16c-4.5,6.2-4.2,12.1-0.6,18.9c2.9,5.4,2.9,12.1,1.2,18c-2,6.6-3.6,13.1-4.4,19.9
		c-0.2,2-0.3,3.8,1.3,5.5c4.2,4.3,5.9,15.8,2.2,20.3c-3.3,4-3.9,8.6-2.6,12.6c2.6,8,0.5,15.4-0.7,23c-0.5,3.5,0.2,6.6,1.2,10.1
		c2.1,6.6,2.1,13.7,0.3,20.4C427.3,213.2,432.8,211.1,438,214z"/>
	<path fill="#C50755" d="M348,18c4.2,1.1,8.3,2.7,12,4.9c2.7,5.2,1.5,10.8,1.1,16.2c-1,14.8-1,29.6,0,44.4c0.7,11.3,0.9,22.7,0,33.9
		c-0.8,10.2-0.6,20.3-0.4,30.4c0.2,10-0.4,20-0.3,30c0,1,0,2.1-0.5,2.9c-4.1,6-1.1,11.9,0.4,17.7c0.2,0.5,0.4,1.1,0.5,1.7
		c0.9,15.3-2.4,30.8,1.9,46c-0.3,1.1-1,1.8-2.1,2.1c-2.2-0.6-1.9-3-3.3-4.3c-0.4-0.5-0.7-1.1-0.9-1.8c0-1.5-0.5-2.9-1.2-4.2
		c-0.2-0.4-0.3-0.8-0.4-1.3c-0.2-1.7-1.3-2.8-2.6-3.8c-8.4-6.9-9.5-16.1-9.7-26.4c-0.2-12.5,0.7-24.9,0.2-37.3
		c-0.2-6.2,1.4-12.3,0-18.4c-1.8-8.2,0.6-16.6-0.9-24.8c-0.5-2.6,0.1-5,1.7-7.1c2.4-3.1,2.5-6.1,0-9.1c-0.7-0.9-1.6-2-1.4-3.1
		c1.1-6.3-1.2-12.5,0-18.9c1.1-5.8,0.8-12,0.2-17.9c-0.4-4.5-0.7-9,0.1-13.4c1.2-6.3-1.3-12.5-0.2-18.8c0.6-3.6,0.5-7.3,2.3-10.6
		c1.2-2.1,0.7-4.6,0.8-6.9C345.6,18.7,345.6,16.8,348,18z"/>
	<path fill="#BB095B" d="M297,4.2c6.1,0.9,12.2,1.7,18.1,3.7c-1.4,9.8-0.4,19.6-0.7,29.4c-0.1,2.5,0.2,5.1-0.7,7.4
		c-1.8,4.6-2.8,8.9,1.3,12.9c1.2,1.2,1,3.1,0.6,4.8c-2.4,10.5-4.4,20.9-3.9,31.9c0.2,6.5-0.6,13.1,0.2,19.7c0.1,1-0.1,2.1,0.4,2.9
		c2.6,4.9,2.5,9.5-0.7,14.1c-1.2,1.8-0.6,3.9,0.7,5.6c2.6,3.5,2.6,7.1,0.7,10.8c-0.6,1.2-0.7,2.5-0.9,3.9
		c-0.9,5.7-2.3,11.4,1.8,16.6c0.7,0.8,0.7,2.3,0.4,3.4c-2.2,6.8-0.2,13.9-2.1,20.7c-0.8,2.9-0.6,5.6,0.9,8.2
		c0.7,1.2,0.9,2.5,1.2,3.8c0.5,2.1-1.4,4.6,0.6,6.1c1.7,1.3,4.2,0.2,6.3,0.8c1.2,0.3,2.4,0.7,3.6,0.8c0.7,0.1,1.4,0.3,2.1,0.5
		c1.5,0.6,2.9,1.4,4.5,1.8c1.1,0.4,2.2,0.9,3.4,1.3c1.9,1.3,5.4,1.2,3.8,5.1c-1.2,0.3-2.3,0-3.3-0.5c-6.8-3.3-13.9-4.9-21.4-4.7
		c-1.1,0-2.3-0.2-3.4-0.6c-2.7-1.8-5.3-0.2-8,0.2c-2.3,0.4-4.8,1.9-6.4-1.3c-0.5-1.3-0.7-2.6-0.6-3.9c1.4-23.4-0.4-46.7,0.2-70.1
		c0.3-11.8,0-23.6,0.3-35.3c0.4-16.4-0.3-32.7,0.2-49.1c0.2-6.8,1.2-13.7,0.2-20.8c-0.8-5.6-0.5-11.9,2.4-17.5
		c1.1-2.1,0.1-3.8-1.1-5.5C295.8,9.2,294.9,6.8,297,4.2z"/>
	<path fill="#D5024C" d="M438,214c-6,0-11.9,0-19.3,0c4.1-2.1,3.8-4.6,3.4-7.5c-0.5-3.1-0.1-6.3-0.1-9.5c0-2.1,0.6-4.3-2.2-5.5
		c-1.1-0.5-1-2.1-0.8-3.2c0.8-5.1,0-10.4,2.6-15.4c1.1-2.1,1.1-5.2,0-7.3c-2.4-4.8-1.3-9.8-1.6-14.7c-0.1-1.6,0.1-3,1.8-3.7
		c3.3-1.4,3.1-4.7,2.9-7.2c-0.2-2.6-0.4-5.2-0.6-7.8c-0.1-2.1-0.1-4.4-3.3-4.5c-1.3-0.1-2-1.4-1.9-2.6c0.4-4.6,0.1-9.5,1.6-13.7
		c2.8-8.4,4.8-16.7,3.4-25.6c-0.1-0.6,0-1.7-0.4-1.9c-5.1-3.1-3.2-8.2-3.7-12.6c-0.4-3.9,0.7-6.4,4.7-7.3
		c6.3,5.9,13.4,10.8,18.7,17.8c-4,2.9-3.2,6.8-1.3,10c2.4,4.1,2.7,7.8,0.4,11.7c-1,1.8-1.1,3-0.5,5c1.3,4.4,1.9,9-0.5,13.4
		c-0.6,1.2-0.7,2.2,0.1,3.2c3.9,5.1,2.9,10.1-0.1,15.1c-1,1.6-0.7,3.2-0.7,4.8c0,10,0,19.9,0,29.9c0,3.4-0.3,6.7,2.2,9.8
		c2,2.5,0.3,5.6-1.5,7.7c-1.7,2.1-2.2,4.3-1.6,6.5C441.8,204.5,441.1,209.4,438,214z"/>
	<path fill="#C80653" d="M360,200c-2.1-4.2-5.4-9.1-3.7-13.2c4.4-10.4,2.1-21.1,2.7-31.6c0.5-7.9-0.1-15.8,0-23.8
		c0.2-13.1,1.8-26.2,0.9-39.3c-0.8-11.5-1-22.9-0.9-34.4c0.2-11.6,0.6-23.2,1-34.9c5.6,2.2,11.1,4.4,16.1,7.8
		c0.8,1.7,0.2,3.3-0.3,4.9c-1.1,3.6-1.4,7.2-0.3,10.8c0.2,0.8,0.5,1.7,0.4,2.5c-2.1,9.2,0,18.6-1,27.8c-0.7,6.6,1.2,13.2,0.6,19.9
		c-0.4,3.7-0.4,7.3-1.6,10.8c-2.6,8-1.3,16.2-1.5,24.3c-0.1,5.8-0.8,11.6,2.3,17.1c1,1.7,0.8,4-0.1,5.9c-3.1,6.6-2.5,13.2,0,19.8
		c0.9,2.4,1.3,5.2,0,7.3c-1.7,2.7-1.1,4,1.5,5.3c1.1,0.6,2.3,1.5,1.8,3.2c-2,1.6-4.3,1-6.6,1.2c-1.9,0.2-4-0.5-5.4,1.3
		c-0.9,1.9-0.6,3.9-0.6,5.9c0,14.1,0,28.1,0,42.2c0,2.1,0.3,4.3-0.6,6.4c-1,1.6-1.9,1.2-2.8-0.1c-4.4-10.4-3.1-21.1-2.1-31.8
		C360.4,210.1,357.7,205,360,200c0.5-0.6,0.8-1.3,1-2C360.7,198.7,360.5,199.4,360,200z"/>
	<path fill="#DD0147" d="M483.1,376.3c-3-2.6-6.8-4.5-4.6-9.8c1.5-3.6-1-8.5,3.8-11.1c0.6-0.3,0.6-1.8,0.6-2.8
		c0.3-6.3-0.7-12.6,1-18.9c0.4-1.5-0.2-3.3-1.5-4c-3.6-2-3.1-4.3-0.8-6.8c1.3-1.4,1.4-3,1.3-4.6c-0.3-6.8-0.4-13.6-0.7-20.4
		c-0.4-10.8,0.1-21.7,1.4-32.5c0.3-2,0.9-4.3-0.2-5.9c-7.5-10.6-2.9-22.7-4.6-34c-0.3-1.7,0.3-3.2,1.6-4.5c3.4-3.6,3.3-6.9,0.2-11.2
		c-1.4-1.9-2.9-4.5-0.9-6.3c3.9-3.6,3-8.1,3-12.4c1.1-2.3,1.6-4.7,0-7c-3-1.1-3.4-2.9-2.2-5.8c2.3-5.4,2.2-10.3,0.4-16.5
		c-1.8-5.9-4.1-14.4,3.7-19.7c3.1,5.7,6.6,11.3,8.3,17.7c-0.6,4.1-1.6,8.1-0.1,12.2c0.8,2.3,3.6,3.4,3.2,6.7c-0.3,2.6-1,4.3-3.2,5.4
		c-1.6,2-1,4,0,6c-0.4,10.4,0.3,20.9-0.8,31.3c-0.8,8.1,0.3,16.3,0.6,24.5c0.1,2.3,0.1,4.6-0.5,6.9c-1,4.2,0,8.3,2.3,11.9
		c2.1,3.3,2.1,6.5,0.1,9.6c-2.5,3.8-3.3,7.8-2.1,12.3c0.6,2.4,0.3,4.9,0.4,7.4c0.1,2.7-0.4,5.4,2.3,7.7c1.7,1.5,1.5,4.9,0.4,6.6
		c-2,3.2-1.6,7.4-3.3,10c-4.3,6.4-0.7,12.6-1.1,18.8c-0.2,3.4,2,6.8,0.8,10.6c-0.6,1.8,0.7,3.1,2.8,3.3
		C491.9,359.8,488.1,368.3,483.1,376.3z"/>
	<path fill="#CB0551" d="M378,190c-2.1-2.9-6.5-2.7-8.2-6.1c4.3-1.8,5.5-5.8,3.3-10.3c-2.8-6-3.1-12.1,0-18.2c1.3-2.6,1.8-5.4,0-7.5
		c-2.1-2.5-2.2-5.1-2.1-7.9c0.5-10.3-1.4-20.7,1-30.8c2.2-9.3,3-18.5,1-27.8c-0.8-3.5,1.6-6.9,0.9-10.3c-2.2-9.7,2-19.5-0.7-29.4
		c-0.9-3.4,1.3-7.4,2.9-10.9c5.7,2.3,11,5.4,15.9,9.1c1.1,1.8,0.8,3.6-0.3,5.2c-2.1,3.1-2.5,6.4-2.4,10c0.2,3.7-0.2,7.3-2,10.6
		c-1.3,2.5-1.1,5,0.4,7.6c2.2,3.9,3.1,8.4,4.3,12.7c1.2,4.7-1.8,8.9-3.5,12.7c-2.9,6.5-1.6,12.4-0.3,18.5c1,4.5,1.1,8.4-0.8,13
		c-2.1,5.1-1.8,11.1,0.3,16.6c0.9,2.2,1.9,4.4,0.8,6.7c-3.3,6.9-2.2,14-1.5,21.1c0.3,2.6,0.7,5.3,1,7.9c-1.1,3.7,2.7,3.1,4.1,4.6
		c-0.5,2.7-3,2.6-4.3,1.9c-2.8-1.6-2.7,1.1-3.8,2C382,191.4,379.8,191.7,378,190z"/>
	<path fill="#C00758" d="M327,213c-0.7,0-1.3,0-2,0c-2.5-1.4-2.5-3.8-2.5-6.1c-0.1-27.5-0.1-55,0-82.5c0-5.2,2.2-10.1,2.1-15.3
		c-0.1-2.7-0.2-5.3-1.4-7.8c-0.3-1-0.5-1.9-0.5-2.9c-0.5-9.9-0.1-19.8-1.8-29.8c-1.6-9.4,0-19.2,0.1-28.8c0.1-8.2-2-16.7,1.6-24.7
		c0.8-1.9,0.8-4.4,3.9-4.2c3.7,0.5,7.3,1.6,10.7,3.2c2.2,4.9-1,9.3-1.4,14c-0.7,7.9-2.7,16.2-0.6,23.6c1.8,6.2,1.9,10.8,0.2,17.1
		c-1.6,5.6-0.7,12.4-0.7,18.7c0,0.7,0,1.5,0.5,1.9c4.2,4.3,2.5,8.7,0.5,13.3c-1.9,4.4-0.2,9.2-0.5,13.8c0,0.9,0.7,1.5,1.5,1.8
		c4.2,1.6,4,4.3,1.8,7.5c-1.5,2.3-2.4,4.7-1.8,7.6c0.3,1.4,0.1,2.7-0.6,3.9c-1.9,3.4-1.8,6.6,0.4,9.9c1.9,2.8,0.6,5.3-0.7,8
		c-3.1,6.6-3.6,13.2,0.9,19.5c1.7,2.3,0.9,4.5-0.1,6.6c-2.3,4.5-3.5,8.6,2.1,11.9c2.3,1.4,2.1,4.6,0,6.1c-5.5,3.9-4.4,9.5-4.4,14.9
		c0,0.7,0.2,1.3-0.1,2c-1-0.3-2-0.7-3-1C330,213.6,328.3,213.8,327,213z"/>
	<path fill="#C20756" d="M334,216c-2.8-2.9-0.9-6.2-1-9.4c-0.1-3.3,0-5.9,4-7.4c3.1-1.2,2.7-4.6-0.2-6.1c-3.7-1.9-5.2-6.1-3-9.7
		c2.3-3.9,4.9-7.4-1-10.4c-0.1-0.1-0.3-0.3-0.3-0.4c1.2-5.5-2.4-11.4,1.2-16.7c2.3-3.4,4-6.4,0.4-10c-0.7-0.7-1.3-2.5-0.9-3.2
		c2.9-5.9-0.1-13.3,4.8-18.8c1.8-2,1.6-3.7-1.5-3.9c-1.9-0.1-3.8-1-3.2-2.9c1.8-5.8-2.3-12.1,2.2-17.8c1.4-1.8,2.9-5.6-1.6-8.3
		c-2.3-1.4-1.1-6.6-0.5-10c0.5-3,0.9-5.8,0-8.8c-0.8-2.9-0.7-5.9,2-8.2c2.3-1.9,2.5-4.8,0.6-6.7c-5.2-5.1-2.6-11.2-2.5-16.9
		c0-2.3,0.5-4.5,0-6.8c-0.9-4.8,2.1-9.1,2.5-13.8c0.2-1.9,1.3-3.8,1-5.8c3.6,1.6,7.7,1.7,11,3.9c-0.2,0-0.5,0.1-0.5,0.1
		c0.4,6.4-3.1,11.9-3.7,18.2c-0.9,8.9,0.5,17.8-0.3,26.8c-0.7,6.9,1.3,14.6,0.2,21.7c-1,7,1.3,13.8-0.4,20.5c-0.5,2,0.5,3,1.8,4.3
		c2.8,2.8,2.6,6.6-0.1,9.7c-1.7,2-2.4,4.4-1.8,6.9c1.2,4.6,1.1,9.2,0,13.8c-1.1,4.6,1.9,8.7,1.3,13.5c-0.9,7.4-0.3,14.9-0.3,22.4
		c0,1.5-0.2,3-0.2,4.5c0,10.2,0.1,20.3-0.1,30.5c-0.2,9.1,3.5,16.3,10,22.2c1,1.2,0.9,2.9,2,4c0,0.3,0,0.7,0,1
		c0.8,1.1,0.5,1.8-0.7,2.3c-1.3-0.2-2-1.2-2.5-2.2c-3.1-6-7.4-11-12.6-15.2c-0.8-0.6-1.4-1.4-1.3-2.5
		C338.5,217.5,335.6,217.5,334,216z"/>
	<path fill="#BD095A" d="M326.3,10.9c-3.3,5-4.8,10.6-4.1,16.4c0.5,3.7-0.1,7.2,0,10.7c0.5,10.9-1.9,22,0.2,32.5
		c2,10.3,0.8,20.4,1.6,30.5c1.4,3.4,1.1,6.5-0.8,9.9c-2.7,4.9-3.4,10.3-2.7,15.9c0.5,3.8,0.6,7.6-0.5,11.3c-0.5,1.8-0.8,3.7-0.4,5.4
		c2.1,8.9,0.2,17.8,0.4,26.7c0.2,9.8,0.6,19.6,0.3,29.4c-0.1,4.3-0.5,8.5,1.7,12.4c-3.4,0-6.8,0-10.7,0c2.3-4.8,2.1-9.1-0.9-13.7
		c-1.9-2.9,0.4-6.5,0.9-9.7c0.4-2.3-0.1-4.7,0.2-6.8c1.1-7.6,1.6-15-2.6-21.9c2.7-4.4,0-9.9,3.4-14.3c1.5-2,1.5-5.4-0.7-7.4
		c-3.9-3.4-2.7-6.8-0.2-10c1.2-1.6,2.2-3.3,1.5-5c-1.7-4.2-2.1-8.6-2.7-13.1c-0.5-3.6-1.2-6.9-0.4-10.6c1.5-7.2,0-14.6,0.5-22
		c0.1-1-0.3-2.1,0.4-2.8c3.6-3.9,1.3-9.4,4-13.6c0.9-1.3-0.2-3.4-1.3-4c-5.7-3.1-2.6-7.5-1.5-11.2c0.6-1.9,1.1-3.7,1.1-5.7
		c0-9.3,0-18.6,0-28c0-1.7-0.7-3.9,2-4.3C319,8.3,322.7,9.3,326.3,10.9z"/>
	<path fill="#B60A5C" d="M297,214c3.4,1.4,6.2-1.1,9.4-1.3c1.4-0.1,2.9-1.4,3.6,0.9c-0.9,2.1-3,2-4.6,2.3
		c-6.1,1.2-11.7,3.7-16.6,7.5c-2,0.7-3.2,3.2-5.7,2.6c-0.6-0.1-1.4,0-1.3-0.9c0.2-1.2,3.5-1.7,1.1-3.1c-1.2-0.7-2.4,1.8-2.7,3.3
		c-1.1,5.5-3.1,3.2-5.2,0.7c0,0,0,0,0,0c0.7-0.9,3.3-1.1,1-3c0.1-2.5,2.4-4.4,2-7c0.4-1.2,1-2.3,1.9-3.3c1.9-2,0.1-4.7,0.9-6.7
		c2.4-6.1,1.4-11.8,0.1-18.1c-1.1-5.3-2.1-11.6,3.5-16.2c1.7-1.4,1.1-3.8-0.8-5.2c-1.8-1.3-2.8-2.8-2.5-5.1c1-8.6,0.3-17.3,0.5-26
		c0.1-3.2,0.3-6.3,2.5-8.9c1.5-1.7,1.6-3.7,0.5-5.6c-5.3-8.4-3.9-17.7-3.6-26.7c0.1-3.8,0.7-7.6,0.6-11.5c-0.1-3.9,0.4-7.6,3-10.8
		c1.9-2.3,2.1-4.5-1.2-6c-3.1-1.4-2.9-4.3-2.6-6.9c1.1-11.1,0.3-22.2,0-33.3c-0.2-6.6,1.1-13.2-0.1-19.9c-0.2-1.1,0.2-2.3,1.1-3.2
		c1.1-0.4,2.3-0.4,3.4,0.1c2.7-0.1,5.4-0.2,8,1c-0.6,3.6-0.7,7.3-0.7,10.9c0,43.6,0,87.2,0,130.8c0,3.8,0,7.6-1.3,11.3
		c-0.7,1.9-0.6,3.9-0.1,5.9c2,7.4,1.9,14.7,0,22.2c-1.2,4.5-1,9.3-0.1,13.9c0.6,3.1,1.6,6.1,1.7,9.3
		C292.9,211.2,294.9,212.6,297,214z"/>
	<path fill="#CD0450" d="M387,184c-1.2-7.2-2.4-14.3-2-21.7c0.1-3,0-5.9,2-8.5c1.4-1.7,1.2-3.6,0.1-5.6c-3.2-5.6-2.8-15.4,0.4-21.1
		c1.1-1.9,1-4.4,0.2-6.3c-1.7-3.9-1.6-8.1-2.4-12.1c-0.6-2.9,0.5-5.9,1.3-8.9c1.6-6.1,7.6-12,2.3-19.1c-1.7-2.3-0.7-5.8-3.5-8.2
		c-1.3-1.1-1.4-5.3,0.2-7c2.7-3,2.4-6.4,2.4-9.8c0.1-4.1-0.8-8.3,2.9-11.6c1.1-1,1.2-2.7,1.2-4.2c2,1.4,4.5,1.9,6.1,3.9
		c1.4,3.7,1.7,7.5,0.7,11.3c-0.5,2-0.6,3.9,0,5.9c0.7,2.4,1,5,0.5,7.4c-2.4,11.5,0.5,23.2-0.9,34.7c-0.7,6.2-0.2,12.2,0.6,18.4
		c0.6,4.9-1,9.9-0.6,14.9c0.3,4,0,8,0.8,11.9c0.5,2.6-0.2,5.2-0.8,7.8c-1.2,5.2-2.6,10.2-0.6,15.8c2,5.6,0.2,11.6-0.8,17.3
		c-0.6,3.6-3.8,2.4-6.1,2.4c-0.5,0.1-1.1,0.1-1.6,0.1c-1.5-0.3-3.1-0.4-4.3-1.7c0.1-1.2-0.9-1.9-2.1-3.3c3.6,0.3,6.4,2.9,9.1,0.4
		C390.8,185.2,388.2,185.8,387,184z"/>
	<path fill="#B8095C" d="M297,214c-3.6,1.3-5.6,0-5.7-3.8c-0.3-7.7-4-15.3-2.1-22.9c1.4-5.5,1.9-10.9,1.8-16.5
		c0-2.5,0.2-4.9-1.4-7.2c-1.2-1.7-1.2-4.2-0.4-5.8c3.2-6.7,1.7-13.7,1.8-20.6c0.2-42.6,0.1-85.2,0.1-127.7c0-2-1.3-4.9,2.2-5.7
		c1.2,0.1,2.5,0.2,3.7,0.4c0.1,2.8-0.5,5.5,2.7,7.4c2.1,1.2,1.7,3.9,0.8,5.9c-3.2,6.9-4.2,14-1.7,21.4c0.2,0.5,0.3,1.1,0.1,1.5
		c-2.8,6.1-1.3,12.7-1.4,18.9c-0.1,6.4-1.6,13,0.2,19.5c0.3,1.2,0.1,2.6-0.1,3.9c-0.6,3.4-1.6,6.8,0.9,9.9c0.7,0.8,0.6,2,0.1,2.8
		c-2.8,4.7-1.6,9.6-1.1,14.5c0.4,3.9,0,7.8-0.4,11.7c-0.6,5.7,0.1,11.5,0,17.2c-0.3,15.8-1.1,31.7,0.3,47.4
		C298.2,195.7,295.9,204.8,297,214z"/>
	<path fill="#CE0450" d="M389.9,191.1c6.2,0.4,6.5-3.9,6.7-8.4c0.3-4.7,1.6-9.6-1.6-13.9c-0.5-0.7-1.1-2.1-0.7-2.8
		c6.5-11.7,1.2-24.2,2.7-36.2c1.4-11.3-1.5-22.4,0.4-33.8c0.7-4.4,1.3-10-0.9-15c-0.8-1.8,0.3-4.5,0.8-6.8
		c1.1-5.1,1.8-10.1-0.5-15.1c-0.2-0.4-0.5-1.1-0.3-1.4c2.8-4.4,1-9.4,1.8-14c2,1.5,3.9,2.9,5.9,4.4c0,3.5,0.4,6.9-2.5,9.8
		c-1,1-0.6,2.9-0.2,4.3c1.4,4.9,0.6,9.8-0.1,14.6c-0.5,3.3,0.3,6.7,0.6,9.7c0.6,6.4-2,12.8,0,19.1c0.6,1.8,0.4,3.6-0.1,5.4
		c-0.4,1.4-1,3.2-0.5,4.4c4.3,10.1-0.8,20.5,0.8,30.7c0.6,3.7-0.2,7.2-2.5,10.4c-1.3,1.8-2.4,4.2-0.6,6c3.8,3.8,2,8.7,3.1,13
		c1.2,4.8-2.9,9.5-1.1,14.6c0.1,0.4-0.8,1.4-1.4,1.9c-3.8,2.7-2.8,5.9-0.9,9.1c2.1,3.5,5.4,6.7-0.7,9.9c-2.3,1.2-0.5,6.8,2.3,8.1
		c5.3,2.5,5.6,2.8,5.2,7.3c2.5-3.3,4.7-5.8,6.4-8.6c1.7-2.8,3.3-3.6,6.8-3.2c7.1,0.9,14.4,1.5,21.6-0.4c0,0,0,0,0,0
		c1.5-0.9,2.5-0.2,3.3,1.1c0.1,0.6-0.2,1.1-0.6,1.4c-6.5,1.7-13.2,0.8-19.8,0.7c-4.9-0.1-8.1,1.7-10.9,5.5c-4,5.5-8.5,10.6-12.7,16
		c-1.2,1.6-2.7,3-4.5,3.9c-2.1,1.2-3.5,0.6-4-1.7c-0.3-1.6-0.2-3.3-0.2-4.9c-0.1-14.1,0.3-28.1-0.2-42.2c-0.2-0.6-0.4-1.1-0.5-1.7
		C389.9,191.7,389.9,191.4,389.9,191.1z"/>
	<path fill="#B50A5E" d="M282,3.1c1.9,9.3,0.6,18.8,0.6,28.1c0,9.3,1.8,18.8-0.5,28.1c-0.6,2.5-1.1,5.4,3.5,6.1
		c3.7,0.5,3.2,4.3,1.2,6.2c-4,3.9-4,8.5-3.8,13.3c0.3,6.3-1.6,12.4-0.8,18.8c0.7,5.7-0.7,11.8,4.1,16.7c1.6,1.6,1.8,5.3-0.8,7.2
		c-2.1,1.5-2.5,3.2-2.5,5.5c-0.4,9.8,1.1,19.6-0.8,29.3c-0.2,1.3,0.3,2,1.6,2.6c4.5,2.3,4.6,6.4,0.4,9.1c-0.7,0.4-1.8,1-1.8,1.5
		c-0.1,5.8-2.1,11.9,1.2,17.4c1.5,2.6,3.1,4.6,0,7.7c-2.4,2.3-2.2,6.2-1.1,9.5c0.8,2.5-0.7,3.1-2.5,3.7c-2,1.1-4,0.6-6,0
		c0,0,0,0,0,0c0.7-1,1.3-2,2-3c2.4-1.1,2.1-3.2,2-5.2c-0.5-11.3-0.9-22.7-0.5-33.8c0.6-19.8-0.5-39.6,0.8-59.3
		c0.5-8.3,0.7-16.6,0.7-24.9c0.1-28.6,0-57.1,0-85.7c0.3,0,0.7,0,1,0C280.6,2.7,281.6,2.3,282,3.1z"/>
	<path fill="#B50A5E" d="M282,3.1c-0.7-0.3-1.3-0.6-2-0.9c1.8-0.1,3.6-0.2,5.2,0.7C284.2,3,283.1,3,282,3.1z"/>
	<path fill="#A0106B" d="M189,503.7c-5.1-1.3-10.2-2.6-15-4.8c-2.3-5.3-2.2-10.5,0.6-15.7c3.1-5.8,3.2-11.8-0.1-17.5
		c-1.6-2.7-1.9-5.2-1.2-8.1c0.9-3.8,1-7.4-0.2-11.3c-1-3.4-1.1-6.9,1.7-9.8c2.2-2.2,1.9-4.9,0.9-7.5c-3.6-9.9-3.2-19.5,0-29.7
		c2.2-7.2,2.8-15.8-0.3-22.5c-2.5-5.4-2.5-10.4-2.8-15.7c-0.1-1.3,0-2.8,0.9-3.8c4.5-5.4,3.2-11.7,2.7-17.7
		c-0.6-7.5-1.3-14.9,0.5-22.3c0.5-2,0.4-4.1-1.1-5.6c-3.6-3.6-3.4-7.3-0.8-11.3c0.4-0.5,0.4-1.3,0.6-1.9c0.6-1.8,2.6-1.6,3.8-2.6
		c0.5-0.6,1-1.3,1.2-2.1c0.3-32.7,0.1-65.3,0.1-97.9c0-1-0.1-2-0.5-2.9c-1-1.6-2.8-1.5-4.3-2c-1.7-0.6-2.6-1.5-0.6-3
		c2.5-1.1,2.4-3.3,2.4-5.5c0.1-15.6,0-31.2,0.1-46.9c0-3.2,0-6.3,1.4-9.3c0.5-1.1,0.9-2.2,0.5-3.4c-3.7-13.1-1.2-26.4-1.8-39.6
		c-0.2-4.1-0.3-8.3,1.8-12.2c0.7-1.3,0.8-3,0-4.4c-2-3.7-1.8-7.7-1.9-11.7c1-6.9,0.7-13.9,0.2-20.8c-0.4-5.8,1.1-11.5,0-17.4
		c-0.3-1.3,0.4-2.6,1.3-3.7c5.2-1.8,10.4-3.7,16-4.3c1.3,1.1,1.6,2.7,1.4,4.1c-1.6,8.4,0.3,16.9-0.4,25.3
		c-1.1,12.2-2.4,24.5-2.4,36.8c0,2.7,0.3,5.2,1.7,7.6c1.7,2.7,1.5,5.8,0.7,8.7c-2,7.3-1.8,14.7-2,22.2c-0.3,11-0.3,21.9-0.1,32.8
		c0.2,12.3-0.7,24.5-0.5,36.8c0.1,6.8,0.4,13.6-0.5,20.4c-0.9,6.9,0.3,8.1,7.4,9.2c3.1,0.5,6.3,0.8,9.4,0.7c1.2,0,2.3,0.3,3.4,0.9
		c1.6,1.9,2.4,3.9,1.3,6.3c-0.1,0.1-0.4,0.2-0.4,0.2c-6.6-5.9-14.7-3.1-22.2-3.7c-3.5-0.3-3.9,1.6-2.7,4.4c1.7,4.2,3.4,8.3,4.9,12.5
		c0.7,1.9,1.9,4.1-0.5,5.8c-1.4-0.2-2.2-1.3-3.3-2.1c1,8.1,0.4,16,0.3,24c-0.2,19.1-0.1,38.3,0.3,57.4c0.4,18.6-0.7,37.2,0,55.8
		c0.4,12.2-0.3,24.6-0.2,36.9c0.2,16.4,0.8,32.9,0.1,49.3c-0.5,11-0.1,21.8,0.4,32.7C191.1,497.4,191.2,500.9,189,503.7z"/>
	<path fill="#86177A" d="M36.9,387.2c-1.1-0.8-2.2-1.6-1.9-3.2c1.1-3.6,1.9-7.3,1.7-11.2c-0.2-2.9-0.4-5.4-2.9-7.5
		c-2.7-2.3-2.6-6.4-0.6-9c5-6.3,4.7-7.1-3-8.2c-4-1.7-4.7-5.4-2.9-8.3c4.9-7.6,2.9-16.1,4-24.1c0.7-4.7,0-9.6,0.2-14.4
		c0.8-11.9,0.1-23.8,0-35.7c-0.1-7.5,0.5-15-0.9-22.4c-0.2-0.8,0-1.8-0.4-2.4c-3.2-5.1-3.8-9.9,0.7-14.9c1.4-1.5,0.8-4.3-1.1-5.9
		c-2.5-2.1-2.6-4.4-1-7.1c2.5-4.2,2.2-8,0.7-13c-1.6-5.6-2.2-12.4,1-18.3c0.8-1.5,1-3.2,1-4.8c0-4.7-0.1-9.3,0-14
		c0-2.9-0.5-5.5-2.5-7.8c-2.4-2.9-2.8-6,0.4-8.8c3.2-2.9,1.9-6.7,2.1-10.3c6.5-12.8,14.2-24.7,23.4-35.7c3,2.3,2.1,5.4,1.5,8.2
		c-2,10.2-1.4,20.3,0.2,30.6c0.9,5.5,0.8,11.3-0.5,16.7c-0.8,3.4-1.2,6.4-0.1,9.7c1.2,3.6,1.4,7.5,2.5,11.2c0.8,2.8-0.4,5.2-2.1,7.4
		c-1.7,2.2-2.1,4.4-0.6,6.9c1.4,2.3,1.8,4.9,0.6,7.2c-3.3,6.2-2.8,13.2-4.9,19.5c-4.6,0.4-5.4,3.1-4.5,7.1c0.3,1.2-0.1,2.6-0.6,3.8
		c-0.2,0.5-0.5,0.9-0.8,1.3L45.4,246c2.9,7.1,2.9,14.4,0.1,21.3c-2.6,6.3-0.8,11.8,2.1,17.1c1.2,2.3,3.3,4.2,0,6.2
		c-3.1,1.8-4.5-0.2-5.6-2.8c-0.2-0.4-0.6-0.8-1.5-0.8c-1.1,2.2-2.3,4.5,1.5,5.5c2.4,0.7,2.8,2.4,3.4,4.4c2.1,7.1-0.3,14.2,0.4,21.3
		c0.2,2.1-1.5,3.2-3.6,3.4c-1.5,0.2-2.6,0.8-2.6,2.4c-0.1,1.5,0.7,2.3,2.1,3c4.3,2,4.9,7,1.4,10.4c-5,5-5,5,0.7,9.4
		c3.7,2.8,4.1,5.1,1.7,9.1c-0.6,0.9-0.8,1.7-0.7,2.8c0.7,3.8,0.6,7.5-1,11.2c-1.1,2.5,0.9,5,1,7.7c0.2,3.9,0.7,7-4.5,7.4
		C39,385.3,38.3,386.9,36.9,387.2z"/>
	<path fill="#A40F69" d="M210,215c-5.5,0.7-10.9-1.4-16.4-1c-1.4,0.1-1.5-0.2-1.5-1.9c-0.6-16.9-0.7-33.8,0.8-50.7
		c0.3-3.2-1.1-6.6-0.7-9.8c1.2-12-0.9-24,0.6-36.1c0.7-5.7-1-11.7,0.2-17.7c0.4-2.1,0.8-4.1,1.4-6.1c1-2.9,2.2-6.4-1.4-8.9
		c-1.5-1.1-1-2.7-1-4.2c-0.1-11.3,1-22.4,2-33.6c0.5-6,2-12.3,0.3-18.7c-1.5-5.5,1.5-11.5,0.7-17.3c5.5-2,11.2-3,17-3.7
		c0.8,5.1,1,10.2,3.5,14.9c1.4,2.7,0.6,5.4-0.5,8.1c-3.5,9-4.9,18.2-2.5,27.8c1.4,5.4,1.6,11,0.3,16.3c-1,4.1-1.4,8.2-1.4,12.3
		c0,2.7,0.1,5.3,1.1,7.8c0.1,0.3,0.3,0.6,0.3,0.9c-1.3,8.4,0.2,16.9-0.4,25.4c-0.1,1-0.9,2-0.7,2.9c1.5,7.1-0.5,14.4,0.5,21
		c1.1,7.9-0.6,15.1-1.2,22.6c-0.5,6.2-0.9,12.3,0.1,18.4c1.2,7.8,0.8,15.6,0.2,23.4C211.1,209.8,208.2,212,210,215z"/>
	<path fill="#83177C" d="M33,301c0.7,11-1.1,21.9-1,32.8c0,2-0.9,3.2-2.4,4.5c-3,2.5-2.1,6.7,1.4,8.6c2.3,3.6,1.4,6.8-0.8,10
		c-2.1,3.1-2.9,5.5,1.5,7.8c4.1,2.2,2.9,7.8-1.8,10.2c-4.9-8.6-9.1-17.5-11.9-27c2-11.1,0.6-22.2,1-33.3c0.1-1.9-1-2.9-2.4-4
		c-3.8-3-3.8-7.2,0.2-9.7c2-1.2,2.2-2.7,2.2-4.5c0-5.5,0-11,0-16.5c0-2.5-0.3-4.6-2.9-6.3c-3.4-2.4-2.6-6.5,1-8.7
		c2.6-1.6,2.6-6.5,0-8.8c-4.2-3.7-4.3-6.4-0.2-10.1c3.1-2.9,3-14.4-0.2-17.2c-3.7-3.1-3.9-5.9-0.2-9c2-1.7,2.5-3.6,2.5-6.1
		c-0.1-13.5,0-27-0.1-40.4c0-2.5-0.6-4.9-1-7.4c3.4-10.6,8.3-20.5,13.7-30.1c2.5,4.9,1.8,8.5-1.8,11.6c-3,2.5-1.5,5.4,0.8,7.2
		c2.1,1.6,2.4,3.3,2.4,5.6c-0.1,6.2,0,12.3,0,18.5c0,1.8,0.5,3.8-1.9,4.6c-0.1,0-0.3,0.2-0.4,0.3c-1,1.4,0,16.2,1.1,17.6
		c2.2,2.8,1.7,5.8,0.3,8.7c-0.8,1.8-1.7,3.6-2.8,5.2c-1.1,1.6-0.3,2.4,0.8,3.3c4.2,3.4,4.3,7.6,0.2,11.1c-2.2,1.9-2.3,4.5-1,6.1
		c4,4.8,3.2,10.6,3.7,16c0.4,4.5,0.1,9,0.1,13.5c-2.7,9.7-4.5,19.5-3.6,29.7C29.7,297.5,31.1,299.3,33,301z"/>
	<path fill="#941371" d="M125,37.9c5.3-3.7,10.9-6.9,16.9-9.4c1.6,1.3,1.5,3.2,1.6,5.1c0.1,11.8,0.1,23.6,0,35.4
		c0,2.2-0.2,4.4-2.1,5.9c-2.7,2-2.3,4.2-0.4,6.4c1.5,1.7,2.6,3.5,2.5,5.8c-0.5,11.9,1.2,24.1-1.3,35.7c-1.6,7.5-2.4,13.9,0.4,21.2
		c2.7,7-0.6,14.5,0,21.8c0.4,5.6-0.7,11.2,1.2,16.8c1.1,3-2,2.3-3.5,2.5c5.3,5.5,12.6,2.9,19.2,3.5c2.1-0.1,4.3-0.3,6.4,0.1
		c1.4,0.3,3.5,0,3.2,2.6c-1.7,1.4-3.7,1.3-5.7,1.3c-3.2,0.1-6.3-0.2-9.5,0.1c-3.5,0.3-8.4-1.9-10.2,1.6c-2.2,4.4-1.1,9.8-0.5,14.7
		c0.3,2.4,2.6,2.2,4.4,2.4c8.6,0.9,9,1.3,9,10.1c0,22.1,0,44.3,0,66.4c0,2.3,0.4,4.7-1,6.8c-0.5,0.5-1.1,0.6-1.7,0.2
		c-1.6-2.2-1.1-4.8-1.1-7.2c0-21.3,0-42.5,0-63.8c0-2,0.3-4-0.5-5.9c-1.3-1.8-3.4-2-5-1.4c-5.1,2-8.2-0.8-11.2-4.1
		c-1.6-5.7-5.1-10.2-8.4-15.1c-2.4-3.6-4-8-4-12.6c0-4.2,0-8.3,0-12.5c0-2.7,0.5-5.3,2.1-7.6c2.2-3.1,2.2-6.2-0.2-9.2
		c-1.5-1.9-1.9-4.2-1.9-6.6c0.1-19.6-0.1-39.3,0-58.9c0-2.5,0.4-5,2-7.1c2.2-3.1,2.1-6.2,0.1-9.3c-0.3-0.6-0.8-1.1-0.9-1.8
		C123.1,60.6,122.4,49.3,125,37.9z"/>
	<path fill="#981270" d="M159,190c-3.3,0-6.7-0.3-10,0.1c-4.7,0.5-8-1.4-10.3-5.4c1.1-1.5,2.9-0.1,4.2-1.1c-0.6-0.9-2.1-1.3-2-2.8
		c0.4-8.5-0.4-16.9,0.6-25.4c0.7-6.3,1.4-13-3.8-18.5c-1.7-1.8-0.8-5.3,0.4-6.9c3.8-4.8,4.1-10.5,3.5-15.5
		c-1.1-8.6,0.9-16.9,0.3-25.3c-0.2-2.7,0.5-5.2-2.9-7.1c-3-1.7-2.2-6.8,1-8.1c2.3-0.9,1.9-2.5,1.9-4c0-13.8-0.1-27.7-0.1-41.5
		c4.5-2.6,9.1-5,14.1-6.5c1,0.8,1.4,2,1.3,3.1c-0.5,7.1,1.7,13.8,2.8,20.7c0.8,4.9,0,9.7-0.7,14.4c-2.7,19.2-1.9,38.6-2,57.9
		c0,9.7,0.2,19.3-1.6,28.9c-2.2,11.2,3,22,2.8,33.2C158.7,183.5,160.4,186.7,159,190z"/>
	<path fill="#9B126E" d="M159,190c1.3-5.7-4.3-1.3-5.4-4.1c8-1.7,3.6-8.1,3.1-11.6c-2-12.6-2.6-24.9-1-37.7
		c1.8-14.1,0.5-28.6,0.4-42.9c-0.2-13.1,1-26.1,2.9-39.1c0.7-4.9,0.4-9.9-1.2-14.3c-2.3-6.1-1.2-12.2-1.6-18.2c4.1-2.3,8.3-4.2,13-5
		c2.6,1.8,2.5,4.6,2.5,7.2c-0.2,11.5-0.2,23-0.4,34.4c-0.2,9.1-0.1,18.2,0.2,27.3c0.5,20.8,0.7,41.6-0.2,62.4
		c-0.4,8.7-0.1,17.6-0.4,26.4c-0.1,2,0.5,4.2-0.4,5.9c-2.3,4.4,0.4,5,3.6,5.4c1.2,0.6,2.1,1.4,1.2,3c1.5,2.2,4.4,0.2,6,2
		c0.8,1.2,0.5,2.6,0.5,3.9c0,32.4,0,64.8,0,97.2c0,1.3,0.3,2.7-0.5,3.9c-0.3,0.3-0.7,0.7-1,1c-0.2-0.2-0.4-0.5-0.6-0.7
		c-0.3-0.6-0.5-1.2-0.6-1.8c-0.6-16.5-0.2-33-0.3-49.5c-0.1-14.5,0-29,0-43.5c0-7.6,0-7.6-7.2-9.3c-0.8-0.2-1.6-0.5-2.2-1.2
		C165.9,188.9,162.3,190.5,159,190z"/>
	<path fill="#891779" d="M51,218c-1-4.9,2.4-9.4,1.1-14.3c-0.3-1,0.9-1.7,1.4-2.5c2-3.4,4.1-6.8,0.7-10.7c-2-2.2-1.7-4.7,0.5-6.6
		c3.1-2.8,3.5-5.8,2-9.8c-1.5-4-1.3-8.4-3.1-12.4c-0.5-1.1-0.1-3.1,0.6-4.3c3-5.5,2.3-11.8,1.4-17.2c-1.3-7.7-1.2-15.2-1.6-22.8
		c-0.2-3.5,0.3-6.8,1.3-10.1c0.8-2.5,0.6-4.8-0.3-7.2c4.8-7,10.5-13.3,16.5-19.3c2.9-1,3.7,1.1,3.7,3.1c-0.1,9.2,1.6,18.6-1.8,27.6
		c-0.8,2-0.6,3.9,0.4,5.7c1.6,2.7,1.9,5.7,1.4,8.7c-1.2,8.1-0.7,16.2,0,24.3c0.7,8.1,0.4,16.3,0.1,24.4c-0.2,4.5,1.2,8.8,0.8,13.3
		c-0.1,1.1,0.5,1.5,1.5,1.4c1.3-0.1,0.9-1.1,0.9-1.9c4.5-4.2,5-4.2,8.6,1.3c0.3,1.6-0.9,2.1-2,2.4c-8.4,2.5-14.3,8.2-19.2,15.1
		c-0.3,0.4-0.7,0.7-1.2,0.9c-1.8,0.6-3.5,1.4-3.6,3.6c-0.1,2.5-2,3.6-3.4,5.2c-0.3,0.4-0.5,0.8-0.8,1.1
		C55.2,218.9,53.5,222.1,51,218z"/>
	<path fill="#A60E67" d="M210,215c-1.9-1-4.6-1.9-1.3-4.4c1-0.8,1.3-1.9,1.3-3.1c0.1-8.7,0.5-17.3-0.7-26.1
		c-1.2-9.1-0.7-18.4,2.4-27.4c0.9-2.5,0.2-5.3-0.8-7.8c-1.3-3.2-1.4-6.4,0.2-9.6c1.6-3.1,0.9-6.1-0.2-9.2c-1.1-3.2-1.7-6.3,0.3-9.5
		c1.3-2.2,1.1-4.8-0.1-7.1c-1.8-3.5-1.9-7,0-10.4c1.1-2.1,1.3-4.3,0.6-6.3c-2.7-7.4-2.3-14.6-0.1-22.2c1.3-4.6,1.1-10-0.2-14.8
		c-2-7.3-2.4-14.5,0.1-21.8c1.1-3.1,0.3-6.7,3.1-9.5c0.8-0.8,0.8-4,0-4.7c-4.1-3.3-1.6-8.6-4.2-12.3c-1.2-1.7,0.5-2.6,1.5-3.7
		c4.3-1,8.6-1.9,13-2c0.3,0.6,0.2,1.1-0.2,1.6c-2.7,5-1.3,10.4-0.9,15.5c0.2,3.2,0.4,6.2,0,9.4c-0.8,6.1,0.5,12.2,0.1,18.3
		c-0.2,3.2-0.2,6.6-0.5,9.8c-0.8,7.1,0.5,14.3,0.1,21.2c-0.5,9,1,17.9-0.4,26.7c-1.3,8.7,0.8,17.2,0.3,25.8
		c-0.3,5.7-0.9,11.2-2.1,16.8c-0.1,0.7-0.2-0.1-0.1,0.5c1.9,8.4-0.8,16.9,0.4,25.4c1.3,8.7,1.4,17.6-0.2,26.3
		c-0.8,4.7-2.4,9.4-0.1,14.1c0.5,1.1,0.6,2.4-0.5,3.2c-1.5,1.1-2.8,0.1-4.1-0.6c-1.3-0.8-3.1-0.7-3.8-2.3C212,215,211,215,210,215z"
		/>
	<path fill="#901474" d="M101,54.3c4.6-4,9.6-7.6,14.9-10.7c1.3,8,7.7,15.4,2.3,24.1c-1,1.7-0.7,3.9-0.7,5.9
		c0,33.7-0.1,67.5,0.1,101.2c0,4.1,0,8.2,0.9,12.2c0.4,1.5-0.3,2.6-1.6,3.3c-4.9,0.1-9.3-2.4-14.2-2.4c-2.1,0-2.9-2-3.5-3.8
		c-0.9-3.1-1-6.2-0.5-9.4c0.6-3.5,0.9-7,0.6-10.4c-1.9-20.7,0.1-41.5-0.2-62.2c-0.2-13.4-0.5-26.8,0.2-40.3
		C99.6,59.3,99.3,56.6,101,54.3z"/>
	<path fill="#931472" d="M117,190c0.7-1.7,2.6-4-1.7-3.3c-0.9,0.1-1.7-0.3-1.9-1.3c-0.2-1.1,0.7-1.4,1.6-1.4
		c2.2,0.1,2.6-0.5,1.5-2.6c-0.6-1.2-0.5-2.9-0.5-4.4c0-35.3,0-70.6,0-105.9c0-2.5,0.1-4.6,2.2-6.7c1.8-1.9,1.7-5.8,0.3-7.5
		c-3.4-4.2-2.2-8.8-2.7-13.3c2.8-2.2,5.8-4.2,9.1-5.7c0,8.2,0,16.3,0,24.5c0,4.3-0.3,8.3,2.9,12.2c1.9,2.3,2,6.3-1,8.9
		c-1.7,1.5-2,3.3-2,5.4c0,20.5,0,40.9,0,61.4c0,1.9,0.4,3.3,1.9,4.8c3.1,3.1,3.3,6.8,0.3,10.2c-1.6,1.8-2.2,3.5-2.2,5.8
		c0.1,4.5-0.1,9,0.1,13.5c0.3,7.8,3.4,14.3,9.7,19c0.6,0.4,1.1,0.5,0.8,1.3c-1.2,3,1.4,5.3,1.5,8.1c0.3,0.3,0.6,0.6,0.8,1
		c0.4,1.2,0.5,2.5,1.3,3.6c0.5,0.8,0.7,1.7,0.5,2.6c-0.7,1.9-1.4,3.9-1.3,6c0,1.2-0.1,2.4-0.4,3.6c-0.7,2.1-1.4,4.1-1.6,6.2
		c-0.1,0.7-0.2,1.4-0.5,2.1c-1.1,1.9-3.1,3.3-2.7,6.1c0.3,2.1-1.7,3-3.4,3.6c-2.3,0.8-2.6,2.2-1.2,4.2c3.3,4.8,1.5,10.3,2,15.5
		c0.4,3.6-3.3,0.8-5.2,1.4c3.7,1.4,7.2,1.3,10.6-0.2c0.8-0.3,1.5-0.2,2.2,0.3c0.8,7.3,0.1,14.6,0.3,22c-0.6,2.1,1.8,5.2-2.3,6
		c-0.4-0.3-0.8-0.8-1-1.3c-1-5.6-0.4-11.3-0.4-16.9c0-3.9-1.5-5.4-5.3-5.4c-7.8,0-15.6,0-23.5,0c-1.7,0-3.3,0.1-5-0.3
		c-2.3-0.6-2.6-1.8-1.3-3.6c0.9-1.2,2.1-2.1,3.3-3c9.2-7.7,18.3-15.6,25.3-25.4c7-9.7,8.3-20.4,4.5-31.8c-2.1-6.3-7-10.4-12.1-14.2
		c-1.4-1.1-3.3-1.6-4.1-3.5C116.5,190.9,116.6,190.4,117,190z"/>
	<path fill="#8D1576" d="M117,190c0,0.4,0,0.8,0,1.2c-0.1,0.1-0.3,0.3-0.4,0.3c-9.6-1.1-19.3-1.9-28.9-2c-0.1,0-0.3-0.2-0.4-0.3
		c-2-0.3-5.3,0.6-2.5-3.7c-2.3,0-3.6,2.2-5.7,1.6c-0.8,0.6-1.7,0.5-2.1-0.3c-0.7-1.2-0.1-2.6,1-2.9c6.2-1.8,5.5-6.4,4.8-11.2
		c-0.5-3.4,0-6.6,2.8-9.1c3-2.7,3.8-6.6,2.6-10.1c-3.8-11-2.3-22.4-2.5-33.6c-0.1-3.9-0.4-7.3-3.1-10.6c-3.2-3.9-2.9-12.8,0.4-16.9
		c2.6-3.2,2.6-5.9,0.9-9.5c-1.8-3.7-2.7-7.8-2-12.1c5.9-6,12.3-11.5,19.2-16.3c0.7,11.1-1.8,22.2-0.8,33.3
		c0.8,9.5,1.5,18.9,0.6,28.3c-1.1,11.5-0.9,22.9-0.6,34.3c0.2,6.9,1,13.9,0.7,20.8c-0.2,4.2-1.6,8.4-0.3,12.8
		c0.7,2.2,1.3,3.6,3.9,3.3C109,186.5,113,188.5,117,190z"/>
	<path fill="#A90D65" d="M225,4c0-0.3,0-0.5,0-0.8c1.2-0.1,2.5-0.2,3.7-0.3c2.6-0.2,3.4,0.4,3.4,3.5c0,7.7,0.9,15.6-1.3,23.1
		c-1.4,4.7-2.7,8.8,0.4,13.1c0.7,1-0.3,1.8-0.8,2.7c-0.8,1.3-1.7,2.6-1.4,4.2c1.6,10.1-1.7,20.6,2.3,30.5c0.1,0.2,0.2,0.4,0.1,0.5
		c-4.2,5.8,1.4,11.8-0.3,17.3c-1.2,3.8-0.6,7.4-0.8,11.1c-0.2,2.8,0,5.2,1.3,7.6c1.8,3.3,2,6.7,0.1,10c-2.2,3.7-3,7.4-2,11.8
		c0.5,2.6-0.7,5.6-0.6,8.3c0.2,4.4,3.1,8.6,1.9,13.1c-1.7,6.6-0.3,13.4-1.3,20.1c-0.6,4.6-1.9,10.2,1.7,15.1
		c1.8,2.5,1.3,6.5-0.2,9.6c-2.4,5-1.7,10.3-2,15.5c-0.3,5.2,2.8,10.4-0.9,15.8c-1.8,2.6-2.6,7.7,1.7,10.7c1.8,1.3,0.1,4,2,5.4
		c1.8,3.2-1.1,6-1,9c-0.5,1.8,1.9,1.1,2.1,2.3c0.3,1.5,0.2,3.4-1.4,3.5c-2.3,0.2-2.5-2.4-3.6-3.9c-2.1-5.2-4-10.5-6.1-15.7
		c-0.7-1.7-1.2-3.4-0.8-5.3c0.5-1.6,1.6-2.9,2.1-4.5c-1.9-31.1-0.5-62.2-0.7-93.3c0-6.4,1.8-13,0.8-19.4
		c-1.9-12.3-0.1-24.5-0.3-36.7c-0.2-10.9-1-22.1,0.4-33.1c0.8-6.2,0.2-12.6,0.2-18.8c0.1-9.3-0.5-18.6-0.2-27.9
		C223.6,6.6,223.9,5.2,225,4z"/>
	<path fill="#8C1676" d="M81.8,70.6c2.5,4.6,1.5,10.3,4.9,14.9c1.1,1.5,0.8,4.6-1.7,6.6c-4.5,3.7-4.5,14,0,17.8c1.7,1.4,2,2.8,2,4.7
		c0,5.7,0.1,11.3,0,17c-0.1,6.8,0.1,13.5,2.3,20.1c1.7,5,1.4,9.9-3.7,13.8c-3.2,2.4-1.7,6.6-1.1,9.8c0.8,4.7,1.1,8.3-5.1,8.9
		c-1.8,0.2-3.5,1.5-0.3,2.8c-0.6,1.5,2.5,2.2,1.4,2.8c-1.5,0.9-3.2,3.4-5.7,1.3c-1.5-1.4-1.9-2.6,0-4c2.7-2.1-1.2-2.8-1.1-4.9
		c0.6-9.1,0.2-18.3,0.5-27.4c0.2-6-1.6-11.8-1.1-17.8c0.3-3.1,0.3-6.2,0.8-9.4c0.5-3.4,1.4-7.3-1.7-10.3c-1.5-1.4-1.3-3.5-0.5-5.1
		c4.6-9.3,1.7-19.2,2.5-28.8c0.1-1.7-0.9-2.3-2.4-2.5C74.7,77.2,78,73.7,81.8,70.6z"/>
	<path fill="#9D116D" d="M174,187c-1.5,0-3,0.1-4.5,0c-1.4-0.1-3.3,0.8-4.1-1c-0.9-2.1,1.4-2.2,2.5-3.1c1.6-1.3,1.1-3.1,1-4.6
		c-0.5-9.6,0.1-19.2,0.5-28.7c0.7-19.1,0.6-38.2,0.3-57.3c-0.2-10.7-0.5-21.4-0.4-32.1c0.1-11.8,0.2-23.6,0.6-35.3
		c0.1-2.7-0.2-5.3-1-7.8c3-2.1,6.6-2.8,10-3.8c1.2,11.1-0.3,22.3,0.9,33.4c0.3,2.7-0.6,5.6-0.9,8.3c-0.5,5.2-4.4,10.2-0.5,15.5
		c-2.6,4.4,0.8,9.9-2.2,14.2c-0.3,0.4-0.7,1-0.5,1.4c2.5,6.7-2,13.8,1.3,20.5c0.6,1.2,1,2.5,0.7,3.9c-2.1,8.8-2.5,17.7-1.4,26.7
		c0.4,3.5-2,7.4-0.7,10.3c1.9,4.2,0.4,8,0.7,12c0.1,1.2,0.3,2.5-0.2,3.5c-2.9,6.1-0.1,12.1,0.2,18.1
		C176.4,183.7,176.2,185.6,174,187z"/>
	<path fill="#D1044E" d="M421.2,453.1c-8,7.3-16.5,13.8-26.2,18.9c-1.4-1.4-1.1-3.1-0.6-4.7c1.4-4.1,1.4-8.1-0.2-12.2
		c-1-2.6-0.7-5.2,0.3-7.8c1.4-3.7,1.2-7.1-1.1-10.4c-1.7-2.4-1.9-5,0-7.4c1.8-2.2,2.2-4.8,2.1-7.5c-0.3-8,1-16-1.5-23.8
		c-0.3-0.8-0.3-1.7-0.1-2.5c3-11.3,1.3-22.9,1.5-34.3c0.3-14.3,0.1-28.7,0.1-43c0-3.3-0.1-6.7,1.1-9.9c0.7-2,0.1-3.9-0.3-5.9
		c-1.4-6.9-1-13.9-0.1-20.9c0.4-2.9,1.7-4.1,4.2-1.8c2.8,2.7,6.5,4.6,7.6,9c0.8,3.2,5.7,3.7,6,7.6c0.2,2.2,0.5,4,3.6,2.9
		c3.9-1.4,5.5,1.3,5.6,4.3c0.3,5.9,1.5,12-1.7,17.6c-1.3,2.3-0.6,4.5,0.5,6.7c1.9,3.5,1.8,7,0,10.5c-1.1,2.2-1.6,4.3-0.5,6.7
		c3.1,7.1,2.9,14.1,0.1,21.3c-2.1,5.1-0.3,10.2,0.7,15.2c1.9,10.1,1.7,20.1,0.1,30.2c-1.5,9.1-4,18.3,0.6,27.4
		c1.3,2.5,0.9,5.6-0.7,8.2C421,449.2,420.6,451,421.2,453.1z"/>
	<path fill="#BA0A5B" d="M307,507.9c-4.6,1.3-9.2,2.1-14,2.3c-0.9-5.7-0.5-11.5,0.1-17.2c0.3-3.2,0.7-6.3-0.9-9.3
		c-0.8-1.5-1.1-3.2-0.3-4.8c2-3.6,1.6-7.4,0.7-11.2c-0.9-3.9-0.6-7.9-0.6-11.9c0.1-5.6-1.2-11.2-2.4-16.6c-0.9-3.9-1.3-7.5,0-11.3
		c1.2-3.5,1.1-7.2,1.1-10.9c0-7.3,0.8-14.8,0.2-21.9c-0.7-8.5,3.6-15.8,3-23.9c-0.5-7.1-0.7-14.1,0.9-21.4c-1.8,0.7-1.4,1.7-1.7,2.3
		c-0.5,1.1-0.8,2.3-2.4,2.1c-1.4-0.2-1.9-1.4-2.1-2.5c-0.4-2.7-0.2-5.4,1-7.8c3.6-7.3,4.3-14.9,3.9-22.9c-0.3-6.5,0.3-13-0.4-19.5
		c-0.2-2.1,0.1-4,2.3-5c0.8-0.3,1.6-0.3,2.3,0c3.1,3.9,7.3,1.5,11,2c3.4,0.4,7.1-1,10.2,1.4c-0.2,2.1-1.9,2.3-3.3,2.4
		c-3.9,0.3-5,2.7-5.2,6.1c-0.2,2.7-0.2,5.3-0.1,8c0.8,19.4,0,38.9,0.1,58.3c0,6.2-3.3,12.1-2,18.3c1.9,9.2,0.4,18.2,0.1,27.3
		c-0.7,26.6-0.2,53.3-0.3,80C308.5,502.9,309,505.6,307,507.9z"/>
	<path fill="#C60655" d="M358,492c-4,2.3-8.3,4-12.8,5.1c-3.3,1-3.5-1.6-3.9-3.6c-0.9-4,0-8,0.9-11.9c1.3-5.7,1.4-11.2-0.5-16.7
		c-0.7-2-0.7-4-0.1-5.9c2.7-8.1,1.9-16.5,2.1-24.8c0.3-10.3-0.6-20.5-1.9-30.8c-0.9-6.8,0.6-13.6,1.3-20.4c0.6-6,1.1-11.9-0.9-17.8
		c-0.7-2.2-0.8-4.7-0.3-6.9c2.4-11,2.5-22,2-33.2c-0.3-6.8,0.6-13.6,1.1-20.4c0.4-4.4,0-8.2-3.1-11.5c-0.5-2.7,1.2-3.9,3.2-4.9
		c1.2-0.6,3.7-0.1,2.5-2.8c1.3-3.2,4.1-5.5,5.5-8.7c0.8-1.8,2.3-3.6,1.2-5.5c-1.3-2.1-3.6-0.7-5.5-0.7c-0.5,0-1,0-1.5-0.1
		c-2.5-0.4-4.9-0.1-7.4-0.3c-1.3-0.1-2.9-0.1-3.5-1.4c-0.8-1.7,0.5-2.7,1.8-3.6c5.4-1.2,10.8-0.9,16.2-0.7c1.5,0.1,3,0.2,4.2,1.3
		c0.8,9.7,3,19.3,0.9,29.1c-0.4,1.8-0.8,3.5-0.1,5.3c2.3,6.3,1.9,12.8,0.4,19.1c-0.7,3.2-0.9,6.1,0.1,9.3c1.7,5.5,0.7,11.2,0.8,16.9
		c0.1,7.3,1,14.6-1.5,21.8c-0.7,2.1,0,4.2,0.5,6.4c1.6,6.4,1.6,12.6-0.2,19.1c-1.5,5.6-1.1,11.5,0.2,17.3c0.4,1.6,1.4,3.3,0.9,4.9
		c-3.2,11.5,1.7,23,0.4,34.5c-0.4,3.8-1.2,7.5-2.1,11.2c-1.7,7.1-0.1,14.2-0.1,21.3C358.4,485.4,359,488.7,358,492z"/>
	<path fill="#BE0859" d="M307,507.9c0-30.5,0-60.9,0-91.4c0-2.3-0.2-4.5,1.8-6.4c1.8-1.7,1.3-3.9,0.4-6.1
		c-3.1-7.3-2.7-14.4-0.6-22.1c1.4-5.1,0.9-10.8,0.7-16.3c-0.3-6.9-0.4-13.8,0.6-20.6c0.4-2.9-1.3-5.5-0.9-8.4
		c1.1-9.1-0.1-18.1,0-27.2c0.1-7.3,0.6-7.8,7.8-8.5c0.8-0.1,1.5-0.6,2.2-0.9c1.3-2.1,2.8-2.5,4.5-0.5c1.2,13.3,1.6,26.5,0,39.8
		c-0.2,1.3-0.3,2.7,0,4c1.8,9-0.3,18.1,0.7,27.2c1.1,10.2-1.1,20.5-0.8,30.9c0.2,5.3,1.3,10.6,1,15.9c-1.7,28.1-0.6,56.2-0.9,84.3
		c0,0.8-0.1,1.7-0.3,2.5C317.9,506.1,312.5,507.2,307,507.9z"/>
	<path fill="#D5024C" d="M421.2,453.1c-3.6-1.4-2.8-4.2-1-5.7c3.2-2.5,2.6-6.5,1.4-8c-4.6-6-3.1-12.6-2-18.5
		c2.1-11.3,2.6-22.5,2.6-33.9c0-3.1-1.6-5.7-2.4-8.4c-2.8-9.3,4.2-17.5,2.3-26.5c-0.4-2.1-0.1-4-1.9-5.8c-2.1-2.2-1.8-5.3,0-7.8
		c2.6-3.5,2.5-6.7,0.1-10.4c-1.8-2.7-2.5-5.8,0.5-8.5c2.4-2.3,1-5.4,1.2-8.1c0.2-2.6,0.4-5.4-0.1-8c-0.3-2-0.7-5.3-4.3-2.6
		c-1.1,0.9-2.6,1.7-3.6,0.8c-1.2-1.1-2.5-2.7-1-4.6c0.8-0.6,1.6-0.8,2.6-0.7c5.4,0.7,10.9,0.1,16.3,0.4c2.1,0.1,4.4-0.4,6.1,1.4
		c0.5,4.9-1.5,10.1,2.7,14.6c1.2,1.3,1,4.7-0.9,7c-2.8,3.3-3.3,6.8,0.9,9.5c1.2,0.8,1.3,1.8,1.4,2.9c0.1,4.5-0.6,8.9-2.5,13
		c-1.8,3.9-3,7.6,0.7,11.6c1.9,2,1.9,5.8,0,7.9c-3.7,4-2.7,7.7-0.6,11.5c2.4,4.4,2.6,9.1,2.4,13.9c0,0.5-0.2,1.2-0.5,1.3
		c-8.2,3.6-3.1,10.7-4.3,16.1c-0.3,1.2,0.5,2.8,1.8,3.3c4.4,1.7,3.1,5.8,1.6,7.4c-5.6,6.2-1.4,10.3,2.2,14.8
		C436.1,440.2,429.1,447.2,421.2,453.1z"/>
	<path fill="#C30756" d="M342,292c4.8,3.4,4.7,7.7,4.3,13.2c-0.9,10.5-1,21-1,31.6c0,6.7,0.9,13.8-2.1,20.5c-0.9,2.1-0.9,5.2,0,7.4
		c3.8,9.4,0.5,18.6,0.1,27.9c-0.3,6.6-1.6,13.2,1.1,19.7c0.7,1.6,0.5,3.6,0.5,5.4c0,7.6-0.2,15.3,0.1,22.9
		c0.3,6.9-0.8,13.5-2.5,20.1c-0.3,1-0.8,1.9-0.2,2.9c4.7,8,1,16.1,0.2,24.2c-0.3,3.4-1.8,7.2,2.5,9.3c-4.1,2.2-8.5,3.5-13,4.3
		c-1.8-1.1-2.3-2.9-2-4.8c0.7-4.3-0.2-8.2-1.4-12.2c-1.3-4.2-1.2-8.4-0.1-12.8c1.7-6.6,1.5-13.5,1.4-20.3c-0.1-4-0.9-8-0.4-11.9
		c1.2-11.1-0.6-22.2-0.6-33.3c-0.1-8.6,0.8-17.2,1.2-25.8c0.3-5.5,0.2-10.9,0-16.4c-0.5-11.7-1.4-23.5,1.5-35.1
		c0.9-3.5-0.1-6.6-1.7-9.6c-2-3.7-2.7-6.9,1.1-10.2c3.1-2.7,0.4-5-1.5-7.2c-0.8-0.7-1.8-1.3-2.1-2.4c1.2-3.8,5-3.8,7.7-5.4
		C337.6,293.5,339.2,290.5,342,292z"/>
	<path fill="#B70A5C" d="M296,297c-0.6,1.1-2.1,1.5-1.8,3.3c1.7,10.6,0.4,21.2,0.8,31.9c0.1,4.1-2.2,7.5-3.7,11.2
		c-1.4,3.4-2.2,6.7-0.9,10.5c2.4-1.3,1.3-3.2,1.5-4.7c0.2-1.1-0.2-2.6,1.3-2.8c1.7-0.2,2.1,1.4,2.4,2.6c0.9,3.5-0.2,6.9-0.9,10.3
		c-0.5,2.4,0.1,4.4,0.3,6.6c0.5,5.8,1.1,11.8-1.9,17.2c-1,1.7-1.8,3.6-1.2,5.1c2.6,5.9-0.8,11.7-0.2,17.5c0.6,5.9-0.2,11.9,0.2,17.9
		c0.3,3.4-2.6,5.7-2.2,9c0.7,5.7,2.1,11.2,2.7,16.9c0.3,2.8,1.6,5.1,0.6,8.3c-1.2,3.8,0.5,7.8,1.2,11.8c0.1,0.8,0.8,1.7,0.5,2.4
		c-2.3,6.2,0.3,12.6-0.3,18.6c-0.6,6.5,1,13.2-1.6,19.5c-2.5,1.2-5.2,0.9-7.8,1c-4.3-2.3-2.5-6.2-1.4-9c1.3-3.3,1.6-5.7-0.7-8.7
		c-2.3-2.8-1.4-6.5-0.8-9.6c0.7-3.7,0.8-7.1-0.1-10.8c-0.6-2.7-0.3-5.5,0.3-8.4c0.6-3.3,1.6-6.6-1.6-9.7c-1.8-1.7-1.5-4.7-0.1-7
		c2.8-4.5,3.6-15.5,2.6-20.8c-0.9-4.7-0.3-9.6-0.3-14.4c0-0.9,0.8-1.3,1.5-1.7c2.9-1.9,3.6-6.5,0.9-8.5c-2.3-1.7-2.5-3.6-2.6-6
		c-0.3-8.4,0.2-16.9-0.7-25.4c-0.6-5.5-0.3-11.5,2.7-16.7c1.1-2,1.2-4.5,0-6.2c-2.3-3.2-2-6.6-2-10c0-10.6,0-21.1,0-31.7
		c0-2.3,0.3-4.1,2.4-5.5c4.6-3.1,4.5-3.3-0.4-7c-0.3-2.1,1.3-3.1,2.6-2.4C290.4,293.3,294.5,293.2,296,297z"/>
	<path fill="#CD044F" d="M415,297.1c-0.7,0-1.4,0-2-0.1c-0.3-0.8-0.3-1.9-0.9-2.2c-5.9-3.9-7.4-11.9-14.1-15
		c-1.4,5.5-1.6,11.5-0.9,17.2c1.8,15-0.9,29.8-0.3,44.8c0.6,15,1.2,30.1-0.2,44.9c-1.2,12.6,1.7,24.9,0.4,37.3
		c-0.2,2.3-0.1,4.4-2.4,6c-2.4,1.7-2.1,4,0,6c3.6,3.4,3.2,7.5,1.4,11.4c-1,2.1-1.5,4.5-0.7,6.2c2.6,5.2,2.3,10.2,0,15.3
		c-0.4,0.8-0.2,2-0.2,3c-2.6,1.8-5.3,3.5-7.9,5.3c-2.1-0.8-2.2-2.7-2.4-4.5c-1-7.8-0.4-15.6-0.9-23.4c-0.2-2.8,0-6.1,3.3-7.8
		c1.8-0.9,0.4-2-0.1-2.8c-3.2-4.7-3.5-9.8-2.8-15.3c1.1-7.9-0.1-15.9-0.2-23.9c-0.2-9.3,0.7-18.5,0.5-27.8c-0.1-3,0.5-6.1,0-9
		c-1.6-8.8,0.2-17.6,0.1-26.3c-0.1-4.3,1.6-8.1,2.2-12.2c0.9-6.1-1.7-11.7-1-17.7c-0.6-3.1,3.1-4.9,2.6-8c-0.1-0.4-0.1-0.9-0.1-1.3
		c0.1-0.5,0.3-0.9,0.5-1.3c0.3-0.4,0.6-0.7,0.9-1c0.3-0.4,0.6-0.7,0.8-1.2c0.3-7.9,0.3-15.8,0-23.6c-0.1-0.5-0.1-1.1,0-1.6
		c0.4-1.1,1.1-1.7,2.2-2c1.7-0.1,2.7,0.9,3.7,2.1c1.5,2.2,2.8,4.5,4.6,6.5c0.3,0.3,0.5,0.7,0.8,1c0.7,1.3,1.8,2.4,2.8,3.5
		c0.9,1,1.5,2.2,2.2,3.3c0.9,1.6,2.2,2.9,3.3,4.3c3.1,6,7.9,8.4,14.7,7.5c4.1-0.5,8.3-0.1,12.4-0.1c2.5,0,3.5-0.8,1.9-3.2
		c-0.9-1.4-1.9-2.8-1.2-4.6c0.7-0.5,1.4-0.4,2.1,0.1c0,1.4,0.7,2.4,2,3c1.2,1.6,2.4,3.1,3,5c0,1.3-0.8,2-2,2.1
		c-3.2,1.6-6.5,0.3-9.7,0.3C427.2,297.5,421.1,298,415,297.1z"/>
	<path fill="#C00757" d="M330,300c1.7,1.9,4.1,3,4.2,6.3c0.1,2.3,0.4,3.4-2.4,4c-2.6,0.6-3.3,2.8-1.9,5.6c1.1,2.2,2.5,4.1,3.3,6.6
		c1.7,5.5-1.8,10.2-1.8,15.4c0,2.1-0.5,4.3-0.3,6.4c0.8,8.7,0.4,17.4,0.7,26.1c0.4,11.1,0,22.3-1.6,33.5c-0.4,3,0.6,6.2,0.8,9.3
		c0.8,10.4-0.1,20.8,0.2,31.2c0.3,7.7,0.1,15.4-0.3,23c-0.3,5.3-3.6,10.7-0.9,16c3,5.8,0.6,12,2,17.9c-1.9,0.8-3.6,1.8-5.7,1.8
		c-2.9,1-3.7-1-3.7-3.1c-0.2-13.8,0-27.6-0.1-41.4c-0.1-14.5,0.6-28.9,1.1-43.3c0.2-6-1.1-12.2-1.2-18.3c-0.2-8.2,1.2-16.2,1.3-24.4
		c0-2.2,0.2-4.3-0.3-6.4c-1-3.6-1.1-7.2-0.1-10.8c0.4-1.5,0.4-3,0.3-4.5c-1.3-14.1,0.7-28.2,0.1-42.3
		C323.3,302.4,324.3,301.4,330,300z"/>
	<path fill="#CA0552" d="M375,483.9c-1.2,1.1-2.5,1.8-4.1,2c-2.2,1.2-2.9-0.6-2.9-2c-0.2-4.5-1.6-8.4-3.9-12.1
		c-0.7-1.1-0.4-2.6-0.4-3.9c-0.2-11,0.1-22,0-32.9c0-2.8,0.5-5.3,2.6-7.3c2.2-2.1,1.8-4.6,1.6-7.4c-0.6-7.2-5.4-13.6-4.3-21.2
		c0.4-3,0.5-5.9,2.4-8.5c1.3-1.6,1.4-3.7,1.8-5.6c0.9-4.5,0.5-9.3,3.2-13.4c0.9-1.4,0.8-3.3,0-4.8c-3.8-8-5-16.9-2.8-24.8
		c2.1-7.5,0.4-14.3,0.5-21.4c0.1-4.8-0.1-9.6,0.1-14.5c0.1-3,0.7-5.7,4.1-6.6c3.2,0,4.7,2.6,6.7,4.4c0.3,0.8,0.3,1.6,0,2.4
		c-1.8,2.6-1.9,5.5-2,8.5c-0.1,5.3,0.7,10.6-1.1,15.8c-0.9,2.8,1.8,3.5,3,5.1c0.4,0.8,0.4,1.6,0.1,2.4c-1.5,1.9-2,4-2,6.4
		c0.1,4.6,0.1,9.2,0,13.8c0,2.4,0.6,4.5,2.1,6.4c0.3,0.8,0.3,1.7,0,2.5c-1.7,2-2,4.4-2,7c0,16.9,0,33.8-0.1,50.8
		c0,6.7,0.9,13.6-1.9,20.1c-0.6,1.5,0,2.9,0.6,4.3c1.8,4.2,1.9,8.4-0.4,12.4c-1.2,2-0.7,3.7,0.3,5.6c2.2,4.4,1.6,9.1,1.1,13.7
		C376.9,482.5,376.1,483.4,375,483.9z"/>
	<path fill="#C80654" d="M358,492c-0.3-0.6-0.9-1.2-0.9-1.7c0.6-10.2-2.7-20.7,0.1-30.7c2-7.1,1.6-14,1.7-21.1
		c0.1-3.7,0.5-7.4-1.6-11.1c-1.2-2-1.1-5.3,0.5-7.7c1.4-2,1.6-4.3,1-6.2c-2.6-8.1-2.3-15.9-0.2-24.3c1.2-4.8,1.8-10.5-1.1-15.6
		c-1.1-2-1.1-4.5-0.4-6.4c3.5-9.1,1.3-18.4,1.8-27.6c0.2-4.4,0.9-8.9-1.7-13.1c-0.8-1.3-0.8-4,0-5.3c3.1-5.4,1.2-11.1,1.7-16.6
		c0-0.2,0.1-0.4,0-0.5c-4.7-6.2,0.9-12.4-0.1-18.6c-1-6.6-1.3-13.1-0.9-19.7c-1.4-3,0.1-5.8,0.8-8.6c0.6-1.2,1.7-2.5-0.3-3.6
		c-0.5-0.9-0.5-1.8-0.3-2.7c0.3-1.2,0.7-2.3,1.7-3.1c0.7-0.3,1.3-0.7,2-1c0.7,0.3,1.3,0.7,2,1c2.1,2.3,1.3,5.1,1.1,7.7
		c-2,7.8-0.6,15.6,0,23.3c0.5,3.8,0.5,7.6,0.1,11.4c-0.2,1.3-1,2.3-1.4,3.5c-0.8,2.4,0.7,2.7,2.5,2.6c2.3,0.2,4.6-0.4,6.7,1
		c0.3,3-2.2,2.3-3.7,2.6c-6,1-5.9,0.9-4,6.9c0.9,3,3.1,5.6,3,8.9c0,2.4,0.5,5-3.4,5.4c-3.2,0.3-2.5,3.3-1.6,5.1
		c2.4,5,3.1,9.8,0.3,14.8c-0.6,1.1-0.6,2.3,0,3.4c2.3,4.3,2.3,9.3,4.2,13.8c1.9,4.5,0.7,6.4-3.8,8.8c-0.9,0.5-1.2,1.1-1.2,2
		c0,1,0.1,2.3,1.4,2.3c6.3,0.3,4.7,5.2,3.7,8c-1.5,4.4-2.6,8.9-4.8,13.1c-3.1,5.9-1.1,12,1.1,17.7c0.9,2.3,1.8,4.1,0,6.3
		c-2.4,3-1.9,6.5-1.1,10c2.5,10,2.4,20,0.1,30c-0.5,2.2-1.1,4.3-0.3,6.4c1.2,3,0.9,5.8-0.5,8.6c-2,3.8-2.3,7.8-0.7,12
		c0.8,2,1.1,4.2,0.6,6.4C361,491.2,359.6,491.9,358,492z"/>
	<path fill="#C80653" d="M362.2,490.1c-2.4-3.8-1.9-8.5-3.8-12.6c-1-2,2-4.4,2.7-6.8c0.9-2.9,0.8-4.6,0.2-7.3
		c-0.7-2.9-1.2-6.3,1.7-8.9c1.3-1.1,1.1-2.7,1.1-4.2c0-4.7,0-9.3,0-14c0-3-0.7-5.5-2-8.4c-1.8-3.8-2.7-8.8,1.3-12.4
		c1.6-1.4,1.4-2.1,0.3-3.6c-4-5.1-3.1-15.8-0.9-21.6c2.1-5.4,5.8-10.9,4.1-17.5c-1.7,0.1-3.8,2.4-5.2-0.2c-1.1-2-1-4.3-0.1-6.3
		c1.3-2.7,3.4-0.3,5.3-0.2c0.4-3.9,0.2-7.4-1.8-11.1c-1.9-3.6-0.9-8.4-3.9-11.9c-0.2-0.3-0.1-1.1,0.2-1.4c4.6-5.2,3-10.2,0.1-15.5
		c-1-1.9-0.6-4.3,0.7-6.2c1.5-2.2,2.9,0,4.5,0.1c2.1-5.7-2.1-10-3.5-14.8c-1.1-3.7-0.8-5.8,3.3-6.4c2.2-0.3,4.7,0.9,6.7-1
		c0.4-0.2,0.9-0.2,1.3,0.1c0.3,0.7,0.3,1.3-0.3,1.9c-3.2,1-4.2,3.1-4.1,6.5c0.2,5.8,0.1,11.6,0.1,17.5c0,2-0.1,3.8,1.3,5.6
		c1.4,1.9,1.5,5.1,0.2,6.6c-4.9,5.8-2.4,12.5-2.1,18.6c0.2,3.7-0.7,8.1,3.1,11.6c1.2,1.1,1.6,5.3-1.3,8c-2.7,2.6-1.3,6.9-2.1,10.3
		c-0.6,3.1-0.4,6-3.3,8.4c-1.9,1.6-1.5,15.2,0.6,16.7c4,2.9,0.6,7.2,2.6,10.5c2.3,3.8,1,7.2-3.1,9.6c-1.4,0.8-1,2.7-1,4.2
		c0,11.6,0,23.3,0,34.9c0,2,0.1,3.9,2.1,5.2c2.4,1.7,1.8,4.4,2,6.9c0.1,1.8-1.2,4.2,1.9,4.9C368.2,487.8,365.4,489.4,362.2,490.1z"
		/>
	<path fill="#CC0451" d="M387,305c0.7,3.7,0.5,7.5,1.4,11.4c0.8,3.8,0.9,9.4-1.3,13.8c-1,1.9-1.1,3.8-1.1,5.7
		c-0.2,10.1-0.5,20.1-0.3,30.2c0.2,7.8,0.3,15.7-0.5,23.6c-0.8,7.9,0.5,16,0.6,24c0.1,4,0.2,7.9-0.4,11.9c-0.8,4.4-0.6,8.9,3,12.4
		c1.9,1.9,1.8,4.1,1.1,6.4c-1.9,0.7-1.2-1.8-3.4-1.6c-1.5,11.4-1.1,23,1,34.5c-1.8,2.1-4.7,2.5-6.9,3.9c-2.7-0.1-2.5-2.4-2.5-4
		c0-6.7-0.7-13.5,0.2-20.2c2.8-7.5,2.3-15,0.5-22.6c-0.1-0.6,0-1.2,0.1-1.7c1.9-10.4,1.9-20.8,0-31.3c-0.1-0.6-0.1-1.2,0-1.8
		c1.2-2.8,1.2-5.8,1.2-8.8c0.1-8-0.4-16,0.3-23.9c0.2-2.3-1-4.2-1.5-6.2c-0.1-0.6-0.1-1.1-0.1-1.7c1.4-3.3,1.2-6.8,1.2-10.3
		c0-13.2,0.1-26.4,0-39.6c0-0.5,0-1,0.1-1.5c0.6-1.7-0.4-4.8,2.5-4.5c2.4,0.2,2,3.1,2.1,5c0.2,2.7,0.1,5.3,0,8.1
		c0.4-2.3,0-4.6,0.3-6.8C384.9,307.6,384.3,305.3,387,305z"/>
	<path fill="#CA0552" d="M379,456c0,6.8,0,13.7,0,20.5c0,1.6-0.5,3.4,1.2,4.6c-1.5,1.4-3.2,2.4-5.2,2.9c1-6.1,3.3-12.3-2-17.7
		c-1.5-1.5-0.3-2.8,0.6-3.9c3.5-4.1,3.2-8.4,0.8-12.8c-0.6-1.1-1.7-2.3-1.1-3.7c4.6-12.2,2.7-25,2.6-37.5
		c-0.2-11.7,0.9-23.5,0.2-35.2c-0.2-2.7,0.3-5,3-6.2c0.8,0.7,0.9,1.7,1,2.7c0.1,8.8,0.1,17.6,0,26.4c0,1.3-0.3,2.6-0.9,3.8
		c0,0.3,0,0.7,0,1c2,5.7,0.9,11.5,0.9,17.2c0.1,4.9,0.9,9.9-0.9,14.8c0,0.3,0,0.7,0,1C380.4,441.3,380.7,448.7,379,456z"/>
	<path fill="#C00758" d="M330,300c-6.5,2.3-6,7.7-6.1,13.1c-0.2,9.4-0.9,19.1-0.3,28.3c0.6,9.1-1.8,18.3,0.8,27.5
		c1.2,4.2,0.3,9.6-0.4,14.2c-1.4,9.6-1.4,19,0.2,28.6c0.9,5.4,0.5,11.2-0.4,16.7c-1.2,7.1-0.7,14.3-0.8,21.4
		c-0.1,13.6,0.1,27.2-0.1,40.8c0,3.3,1.4,6.4,0.5,9.8c-0.3,1.3,1.1,2.7,2.9,2.8c-0.9,1-2.1,0.9-3.3,0.9c-1.7-1.4-1-3.4-1.1-5.1
		c0-22.2-0.9-44.4,0.3-66.5c0.9-15.3-1.5-30.5-0.3-45.8c0.5-6.3,1.9-12.6,0.8-18.8c-1.7-9.4-0.6-18.8-0.4-28.1
		c0.3-10.6,0.1-21.3,0.6-31.9c0.1-2.9-1.6-5.8,0-8.7c0.5-0.7,1.2-1,2.1-1.1c1.1-0.1,2.1,0.2,2.9,1C328.4,299.8,329.2,300,330,300z"
		/>
	<path fill="#981370" d="M137,214c0-0.3,0-0.7,0-1c4.7,4.4,10.3,2,15.5,2c0.2,0,0.3,0,0.5,0c0.9,1.7,0.4,3.6,0.5,5.4
		c0.1,24.9-0.1,49.9,0.1,74.8c-0.1,1.6-2.2,3.6,1.1,4.6c1,0.3,0.7,1.7,0.6,2.7c-1.7,15.8-0.4,31.6-0.6,47.4
		c-0.2,14.1,0.7,28.3-1.7,42.4c-0.5,3-0.3,5.9,0.5,8.9c1.7,6.2,1.6,12.5,0,18.8c-0.5,2.1-1.1,4.2-0.5,6.4c2.3,7.2,1.6,14.5,0.9,21.8
		c-0.1,0.7-0.3,1.3-0.2,2c2.1,11.2-2.3,22.1-1.2,33.2c0.2,2.2,0.5,4.7-1.4,6.6c-3.5-1.4-6.9-2.7-10-4.9c-1.9-2.1-1.4-4.7-1.4-7.1
		c-0.1-4.8-0.2-9.3-2.2-14c-2-4.6-1.1-10.1-1.5-15.3c-0.9-11.8,0.5-23.6,0.1-35.3c-0.2-4.4,0.2-9,2.4-13.1c1.4-2.6,1.1-5-0.2-7.6
		c-3.4-6.7-3-13.4,0.3-20c1.1-2.2,1.3-4.2-0.2-6.1c-3.1-3.7-2.5-7.4-0.1-11c2-3.1,1.8-5.9-0.5-8.7c-1.3-1.6-1.8-3.6-1.7-5.6
		c0.9-10.8-0.4-21.5,0.2-32.3c0.2-3.3,1.2-6.4,2.3-9.6c1.8-5.2,2.7-10.9-0.7-16.2c-0.2-3.9,0-7.6,1.1-11.6
		c1.4-4.8,2.1-10.4-1.5-15.2c-2.4-3.1-2.2-6.6-0.7-9.9c1.7-3.9,2.4-8,1.9-12.1c-0.7-4.8,0.9-9.5,0.5-14.2c0-0.8-0.2-1.6-1-2
		C137.5,216.7,138.3,215.1,137,214z"/>
	<path fill="#9B126E" d="M151,489.9c0-5.2,0.2-10.3-0.1-15.5c-0.2-4.2,2.1-8.3,1.8-12c-1-10.3,1-20.5,0.2-30.7
		c-0.3-3.5-3.5-7-1.6-10.4c2.4-4.5,2.3-9.2,1.6-13.6c-3-18.6,1.7-37.1,0.7-55.6c-0.8-14-0.1-27.9-0.5-41.8c0-1.3,0.1-2.7,0-4
		c-0.2-2.8,3.9-8.3-4-6.6c-0.2,0-0.7-0.7-0.8-1.1c-0.2-0.8,0.3-1,1.1-1.1c1.3-0.2,3.2,0.5,3.7-1.6c0.4-0.4,0.8-0.4,1.3-0.2
		c0.4,0.2,0.9,0.4,1.3,0.6c3.2,0.8,6.6-0.5,9.7,1.2c2.3,4.5,1.6,9.1-0.3,13.4c-1.3,3-1.5,5.6-0.1,8.5c1.7,3.5,2.3,7.5,4.6,10.9
		c2.1,3.1,0.5,6.3-2.9,8.1c-4,2.2-4.4,4.9-0.4,7.3c3.6,2.2,4.6,5.1,3.8,8.9c-0.9,3.9-0.8,7.9-2.8,11.6c-1.4,2.7-0.9,5.4,1,7.9
		c3.6,4.9,2.2,10.5,1.6,15.9c-0.2,1.8-1.9,2.6-3.6,3.1c-2,0.6-3,2-3,4.1c0.1,2,1.4,3,3.1,3.3c3,0.6,4.2,2.7,3.9,5.5
		c-0.4,4.4-0.4,9-2.6,13.1c-1.7,3.2-1.6,6.3,0.6,9.3c2.4,3.2,2.6,6.4-0.3,9.5c-1.7,1.9-0.8,4.9-2,6.5c-3.7,5-1.9,9.3-0.2,14.5
		c1.6,4.9,1,10.5-1.3,15.6c-1.4,3-1.1,5.6,0.3,8.9c1.7,4.1,4.2,8.4,3.2,13.3C162.1,495.1,156.4,492.7,151,489.9z"/>
	<path fill="#8E1576" d="M99,458.1c-5-3.6-9.9-7.4-14-12c-1.6-4.5-1.2-9.2-1.3-13.8c-0.2-16.3,0.4-32.6-0.1-48.8
		c-0.2-7.1,1.3-14.2,0.1-21.4c-0.5-2.9,0.5-5.6,3.2-7.4c2.8-1.8,2.7-4,0.3-6.1c-2.4-2.1-3.6-4.7-3.5-7.9c0.5-11.3,0-22.6-0.1-33.8
		c-0.1-8.3,0-8.3,8.2-9.9c0.6-0.2,1.2-0.3,1.8-0.3c4.8,0.2,9.6-1.1,14.3,0.9c-1.1,2.5-1.1,2.5-6.4,3.1c2.8,10.3,3.7,20.8,3,31.5
		c-0.1,1.3-0.3,2.7-1.2,3.8c-0.5,0.6-1.3,1.3-2.1,0.8c-0.9-0.7-0.7-1.7-0.6-1.9c-0.5,3.3-0.2,7.1,1.9,10.6c2.3,3.9,2.7,7.8-0.2,11.6
		c-1.4,1.9-1.6,4-0.9,6.2c1.4,4.1,1.2,8.5,2.5,12.7c1,3,0.4,3.8-2.9,5.7c-1,0.6-0.3,1.1-0.3,1.6c0,10.8-0.4,21.6,0.6,32.4
		c1.2,12.9-1.1,25.9-0.8,38.9C100.4,455.9,100.1,457.2,99,458.1z"/>
	<path fill="#901474" d="M99,458.1c2-26.6-1.2-53.3,0.6-80.3c2.2,0.8,0.7,2.7,2.1,3.4c1.7-0.6,1.7-2.3,1.3-3.2
		c-2.2-4.6-1.2-9.8-3.1-14.3c-1.2-2.9-1.2-5.6,1.4-7.6c2.8-2.2,2.8-5.7,1.2-7.6c-4.3-5.3-3.7-10.6-1.9-16.4c1.3,1.1-0.1,2.9,1,4
		c1.5,0.4,3.2-20,1.1-23.3c-2.8-4.3,0.1-9.3-2.8-13.2c2.8-1.4,5.9,0.7,8.3-1.5c3.2-2.2,6.7-1.4,10.1-0.8c0.6,0.3,0.9,0.7,1.1,1.2
		c-0.1,0.6-0.4,1-0.9,1.3c-1,0.6-2.3,0.4-3.4,0.9c1.5,3.9,1.9,8.2,4.6,11.8c1.5,1.9,0.8,4.5-0.8,6.5c-1.3,1.6-2.5,3.3-2.2,5.4
		c0.9,8.4-0.7,16.9,0.5,25.3c0.5,3.3,0.6,6.6,0.2,9.9c-1.4,10.9-1.4,21.8-0.8,32.7c0.7,10-0.6,19.8-3.2,29.5c-0.7,2.4,0,4.6,0.7,6.8
		c1.2,3.9,2,7.6-1.3,11.2c-1.6,1.7-1.5,4.2,0.4,5.8c3.1,2.7,3.5,6.2,3.5,9.9c0,3.1,0.2,6.3-0.1,9.4c-0.2,1.6,0.4,3.9-2.3,4.2
		C108.6,466,103.6,462.2,99,458.1z"/>
	<path fill="#A70E66" d="M229,298c-3.2,5.1-3.8,10.3-3.3,16.5c0.7,8.1-0.3,16.4-1,24.5c-0.2,2.1-0.3,3.9,0.4,5.7
		c0.3,0.8,0.9,1.7,0.7,2.3c-3.4,8.8,1.8,17.5,0.4,26.3c-0.6,3.7-1.8,7.3-1.5,11.5c0.9,14.9,0.4,30,0.4,45c0,0.8,0.2,1.7,0,2.5
		c-1.8,6.2-4.5,12.4,0.9,18.3c0.3,0.3,0.2,1,0.1,1.5c-3.2,8.4-0.2,17.5-2.5,26c-0.3,1.1-0.8,2.6-0.4,3.4c2.5,4.3,0.7,8.9,0.4,13
		c-0.3,5.7-0.1,11,1.4,16.3c-2.7-0.4-5.4-0.7-8-1.1c-2.8-0.4-3.3-2.5-3.4-4.8c-0.2-3.5-0.1-7-0.1-10.5c0-4.1-0.7-7.8-2.7-11.8
		c-2.6-5.5-2.6-12.1,0.6-17.7c1.5-2.6,2.1-5.1,2.1-8c0-14-0.4-28,0.1-41.9c0.6-16.8-0.4-33.6-0.1-50.3c0.1-3.2-0.2-6.2-2.4-8.9
		c-2.1-2.6-2.1-5.8-0.2-8.4c3.1-4.2,3.8-9.2,3.3-13.8c-1.4-11.2,0.3-22.2,0.7-33.3c-0.2-0.6-0.3-1.2-0.2-1.8c0.4-0.9,1.2-1.3,2-1.6
		C220.9,296.8,225.1,295.5,229,298z"/>
	<path fill="#9D116C" d="M168,496.8c-1.7-4.6-3.4-9.2-5.2-13.8c-1.1-2.9-1.4-5.9-0.1-8.6c3.2-6.5,3.7-12.6-0.1-19.2
		c-1.4-2.5-4-6.6,1.5-8.6c1.3-0.5,0.9-2,0.9-3.1c0-2.8,0-5.3,2.9-7.3c2.3-1.6,1.4-4.8-0.5-6.6c-3.6-3.6-2.9-7.1-0.9-11.1
		c2.2-4.5,2.5-9.5,2.4-14.5c-0.1-2.2-1.9-1.9-3.4-1.9c-3-0.1-4.5-2.1-4-4.5c0.4-2.1-0.7-6,3.9-5.5c1.2,0.1,2.3-0.2,3.1-1.3
		c1.4-2,0.5-14.1-1.4-15.6c-3.5-2.8-3-6.9-1.3-9.4c2.8-4.4,1.9-9.2,3.1-13.7c0.8-2.8-1.3-4.5-4.2-5c-3.7-0.7-2.4-3.8-2.6-6.1
		c-0.2-2.3,1.1-3.2,3.2-3.6c3.4-0.6,5.1-4.2,3.2-7c-4.4-6.8-8.7-13.3-3.7-22c1.5-2.6,0.3-6.8,0.3-10.2c3.7-2.1,7.3-2.1,11,0
		c1,1.5,2.3,2.8-0.1,4.5c-3.2,2.3-2.6,4.8,0.2,7.3c2.3,2,3.5,4.3,2.3,7.5c-2.5,6.3-1.8,12.9-1.1,19.2c0.6,5.2,0.4,10.3,0.6,15.4
		c0,1,0,2.4-0.6,2.8c-6,4.6-2.4,11.1-3.3,16.7c-0.1,0.5,0,1.3,0.2,1.4c6.1,3,2.9,8.7,3.7,13.2c1.7,8.9-2.2,17.2-3.4,25.7
		c-0.8,5.7,1,10.5,2.2,15.6c0.9,4.1,3.4,8-2,11.2c-2,1.2-1.5,5.1-0.5,7c2.4,4.9,1.1,9.3,0,14c-0.5,2-0.6,4.1,1.6,5.2
		c2,1,2.2,2.7,2.1,4.6c0,3.3,0,6.7,0,10c0,0.8,0.2,2.1-0.2,2.4c-6.1,4.6-3,11.2-3.7,17C171.8,498.8,169.9,497.9,168,496.8z"/>
	<path fill="#A30F69" d="M206,507.8c-3.7-0.7-7.5-1.1-11-2.7c-0.9-1.1-1.4-2.3-1.4-3.7c0.1-9.6-1-19.3,0.8-28.9
		c1.1-6,0.8-11.7-0.2-17.8c-1.7-10.7-0.8-21.6-0.4-32.4c0.5-13.3,2.2-26.5,0-39.8c-0.4-2.3-0.6-4.7-0.1-7
		c2.7-11.6,0.8-23.2,0.8-34.8c0-23.3-0.1-46.6,0-69.9c0-4.3,0.6-8.6,3.9-12c2.2-0.1,3.6,1.2,4.6,3c0.2,0.4,0.4,0.9,0.6,1.3
		c0.4,1.5,0.3,3.1,1.1,4.6c0.9,1.7,0.4,3.7,1.5,5.4c-1.6,2-2.4,4.3-2,6.9c-1.1,1.7,0.4,3,0.8,4.5c1,4.2,1.4,8.5,1.4,12.9
		c-0.1,43,0,85.9,0,128.9c0,4.6-0.7,8.7-2.7,13c-2.4,5.2-2.1,10.9,0.4,16.4c2.8,6.1,3.2,12.5,0,18.6c-1.6,3-1.9,5.6,0.1,8.4
		c2.4,3.2,2.4,6.5,0.3,9.8c-2.1,3.3-2.4,6.4,0.2,9.6C206,503.7,206.8,505.6,206,507.8z"/>
	<path fill="#A31069" d="M200,260c-0.7-0.1-1.6-0.8-2,0.5c-1.2,5-2.2,9.9-2.1,15.1c0.2,19.9-0.2,39.8,0.2,59.7
		c0.1,7.4-1,14.8,0.8,22.2c1.1,4.6-0.2,9.4-1.1,13.8c-1.6,7.3,1.2,14.2,0.8,21.1c-0.5,9.6-0.3,19.2-0.9,28.8
		c-0.8,12.2-2.1,24.4,0.9,36.6c1,4.3,0.5,8.8-0.4,13.3c-2.5,11.2-0.7,22.6-1.2,33.8c-2.1,0.2-4-0.8-6-1.4c-0.2-90,0.8-179.9,0-270.1
		c1.4,2.4,2.6,4.9,5.2,6.1c0.3,0.3,0.6,0.7,0.7,1.1c1.1,2.9,1.7,5.9,3.4,8.5c0.2,0.4,0.4,0.8,0.5,1.2C197.7,253.9,202,256.6,200,260
		z"/>
	<path fill="#891778" d="M74.1,435.7c-7.1-6.6-13.2-14-19.1-21.7c-0.9-12.6-1.1-25.1-1-37.7c0.1-6.8,1.4-13.5,0.2-20.3
		c1.1-3.4,1.2-6.3-2.3-8.8c-2.8-2.1-3.2-6.7-0.8-9.5c2.4-2.7,2.6-5.6,2.6-8.8c-0.1-7.5,1.1-14.9,0.3-22.4c-0.5-4.8,0.9-9.8,5.4-13.1
		c1.3,0.2,1.6,1.2,2,2.1c0.4,1,1.2,1.5,2,2.2c8.4,2.2,7.6,10.2,9.9,16.1c1,2.6-0.8,5-3.1,6.8c-3.9,3.2-3.9,3.9-0.6,7.4
		c2.5,2.7,2.8,6,2.5,9.3c-0.6,6.6-1.2,13.2,1,19.7c0.9,2.6,0.8,5.6-1,8.1c-3.4,5-3.3,5.1,1.4,8.5c0.5,0.4,1,0.9,1.4,1.4
		c0.9,2.6,1.1,5.2-0.3,7.7c-4.3,1.6-5.1,4.7-4.5,9.1c1.3,9.7,0.4,19.6,0.5,29.4c0.1,3.1,0.4,6,3.8,7.3
		C75.6,431.2,75.8,433.5,74.1,435.7z"/>
	<path fill="#931472" d="M114,469c2.1-6.3,0.7-12.7,0.7-19.1c0-1.1-0.8-2-1.9-2.7c-3.8-2.4-4-6.5-0.4-9.4c1.8-1.5,1.5-2.9,1.1-4.8
		c-1.1-4.9-2.9-9.3-0.9-15.1c2.8-8.1,3.1-17.1,2.4-25.8c3-1.7,3.5-4.4,3.6-7.6c0.3-10.4-0.6-21,1.5-31.3c0.3-1.3,0.3-2.7-0.2-4
		c-2.7-7.4-0.8-15.2-2-22.8c-0.2-1.5,0.3-3,0.7-4.4c2.1-6.9,1.5-13.7,0.1-20.6c-0.2-0.8-0.3-1.6,0.3-2.4h0c1.7-1.4,3.5-1.4,5.3-0.3
		c1.3,1.2,1.9,2.8,2,4.4c0.4,7.2,1.8,14.3,1.5,21.7c-0.8,19.9-0.3,39.9-0.3,59.9c0,1.7,0.1,3.4,0.8,4.9c3.2,7.3,2.2,14.7,0.3,22
		c-1.2,4.8-1.5,9.5-0.2,14.3c1.2,4.6,1.1,9.1-0.1,13.8c-1.8,7.1-2.4,14.4-1.3,21.8c0.5,3.1,0.6,6.3,0.4,9.5c-0.1,2-0.2,4.1-2.4,5.1
		C121,474.2,117.4,471.8,114,469z"/>
	<path fill="#861779" d="M59.8,294c-3.7,5-5.6,10.4-4.4,16.8c1.5,8.2-1.2,16.4-0.5,24.7c0.1,1.5-1.5,1.9-2.5,2.7
		c-2.3,1.7-2,7.6,0.6,8.5c5.8,2.1,4.2,5.6,2.1,9.3c-8.4,1-8.4,7.5-8.1,13.4c0.1,3.9,0.1,8.1,1.2,11.7c2.1,6.7-1.2,12.7-1.3,19
		c0,0.5-0.5,0.8-0.9,1.1c-3.6-4.3-6.6-9-9-14.1c1.2-2.1,1.7-5.1,5.3-3.7c1.4,0.5,1.9-0.6,1.7-1.6c-0.3-2.7-0.4-5.5-1.2-8
		c-0.6-1.7-1.1-3.3-0.1-4.7c1.9-2.4,1.6-5.1,1.3-7.7c-0.3-3-0.7-5.1,1.9-7.9c1.8-1.9-1.2-5.4-4-6.4c-2.1-0.7-3.7-1.1-3.8-3.7
		c-0.1-2.6,0-5,3.1-6.1c4-1.4,2.9-4.7,2.9-7.6c0-0.9-0.5-1.7-1.6-1.4c-4.2,1.3-4.4-1.4-4.4-4.4c0-3.3,1.1-4.5,4.6-3.6
		c1.9,0.5,2.6-1.3,2-3c-1.2-3.2-0.5-6.2,0.2-9.3c0.9-4.3-1.1-8.5-1-12.8c0-1-0.8-2.3-1.8-1.7c-2.4,1.6-3.3,0.3-3.8-1.7
		c-0.7-2.7-0.5-5.8,1.5-7.5c2.1-1.7,2.8,0.9,3.5,2.6c0.6,1.5,0.6,3.9,3.4,2.7c1.9-0.8,2.6-1.6,1-3.6c-4.4-5.6-6.5-11.7-3.5-19
		c2.9-7,2.9-14.3-0.5-21.3c-0.6-1.3-0.1-2.3,0.3-3.3c1.2-3.4,1.8-6.8-0.1-10.1c-1.5-2.6,0.5-3.6,2.2-4.7c2.1,4.3,3,9.1,2.7,13.7
		c-0.2,3.2,0.4,4.2,3.4,4c1.5-0.1,3,0.1,4.2,1.2c1.6,2.8,0.9,5.8,0.4,8.8c-0.6,4.5-0.9,8.8,2.7,12.5c2.4,2.5,0.9,5.8-2.8,7.3
		c-5.3,2.3-5.6,3.3-1.3,7.1c2.9,2.6,2.1,5.6,1.9,7.9c0.5-1.8,0.5-4.4,0.1-7c-0.3-1.5-0.6-2.9-0.4-4.4c0.2-1.7,0.6-3.9,2.3-3.9
		c2.1-0.1,2.1,2.3,2,3.8C60.8,284,62.9,289.3,59.8,294z"/>
	<path fill="#951371" d="M138,283c1.1,0.1,2.9,0,2.8,1.4c-0.6,5.7,2.4,11.8-2,17.2c-1.3,1.6-1.4,4.4-1.3,6.7
		c0.4,7.3-1,14.6,0.4,21.8c0.8,4.2-1.1,8.1-0.7,12.3c0.2,1.7,0.5,2.8,1.6,3.9c3.3,3.3,3.1,6.3,0.2,10.2c-1.8,2.4-3.9,5.9,0.4,9
		c2.8,2,2.3,5.4,0.4,8c-3.2,4.3-3.8,13.9-0.5,18.3c2.4,3.3,2.4,6.2,0.1,9.5c-2.5,3.6-1.7,8-2.1,12c-0.2,2.5,0,5.1-0.1,7.7
		c-0.3,13.6-1.6,27.6,1.4,40.7c1.8,7.9,1.8,15.6,2.4,23.3c-3.9-1.6-7.7-3.4-11-6c-0.6-1.1-0.6-2.2-0.6-3.4
		c0.3-14.1-1.2-28.3-0.7-42.3c0.5-11.8,1.3-23.6,1.1-35.3c-0.4-24.8-0.1-49.6-0.3-74.5c-0.1-6.2,0-12.3-1.1-18.4
		c-0.4-2.3-0.7-4.7,1.9-6.2c0.5-0.2,1-0.4,1.5-0.5c0.7-0.1,1.5,0,2.1,0.4c0.4,0.3,0.6,0.9,1.2,0.5c0.3-0.4,0.4-0.9,0.5-1.4
		c0-0.2,0.1-0.3,0.1-0.5c0.1-0.1,0.2-0.3,0.4-0.4c2.9-1.2,0.4-3.4,1.1-5C138.3,289.1,136.7,285.9,138,283z"/>
	<path fill="#8C1676" d="M74.1,435.7c0-2.2,0-4.5-0.1-6.7c-1.7-1.4-2.6-3.3-2.1-5.3c0.9-4,1.1-8.4,2.9-12.1
		c1.8-3.7,1.3-6.8,0.3-10.5c-1.6-5.9-0.8-12.1-1.1-18.1c0-2.7,0-5.3,0-8c-0.1-4.4-0.9-8.9,1.9-12.8c0.6-0.8,0.2-1-0.3-1.5
		c-4.6-4-3.6-8.9-1.5-13.5c1.7-3.6,2.1-6.9-0.1-10.4c-1.9-3-1.5-6-0.5-9.1c0.9-2.9,0.2-5.9,0.4-8.8c0.6-7.8,1.3-15.8,7.6-21.8
		c3.5-0.7,7.1-1.5,10.4,0.8c-7.1,2.6-7.7,2.6-6.8,11.1c0.8,8.1-1.7,16.1,0.7,24.1c0.4,1.3-0.4,2.9-0.6,4.4
		c-0.5,4.2-1.2,8.2,3.9,10.6c2.5,1.2,2.6,6.5,0.2,7.1c-5.3,1.3-5,5.1-4.2,8.5c1.6,6.4-0.7,12.5-0.2,18.8c1.1,14.5-0.1,29,0.3,43.5
		c0.2,6.6,1.6,13.5-0.3,20.1C80.8,443.2,77.3,439.6,74.1,435.7z"/>
	<path fill="#A50E68" d="M216,298c-0.3,0.3-0.7,0.7-1,1c0.9,0.7,2.9,0.7,2.3,2.6c-2.2,7.9-2.8,15.9-2.2,23.9
		c0.4,5.3,0.9,10.5,0,15.8c-0.4,2.5-0.6,4.4-2.8,6.4c-2.3,2.1-2.6,5.8,0.4,7.8c2.2,1.4,2.3,2.9,2.3,4.9c0,8.8,0,17.7,0,26.5
		c0,24.1,0,48.2,0,72.2c0,2.5,0.8,5.4-2.8,6.6c-1.2,0.4-1.2,1.9-1.2,3.1c0,3.7,0,7.3,0,11c0,0.5-0.2,1.2,0.1,1.5
		c7.3,7.2,2.6,16.2,3.8,24.3c0.3,1.8,0.5,3.2,2,4.2c-2.7-0.3-5.4-0.5-8-1.6c-3.4-5.6-4.5-11.4-2.2-17.7c0.4-1.1,0.9-2.4,0.5-3.4
		c-2.4-6.2-1.1-12.3,0.1-18.6c0.8-4.2,0-8.5-1.1-12.8c-1.5-5.8-1.3-11.9,0-17.8c0.8-3.6,1.3-7.2,1.2-10.9
		c-0.3-16.2,0.2-32.3,1.9-48.4c0.3-3,0.5-6.1-0.1-9c-3-13.9-1.5-27.9-1.3-41.8c0.1-4.7-0.6-9.3-0.5-14c0.1-4.5,0.1-8.9,2-13.2
		c1.7-3.9-1.3-8.2,0.6-12.3c1.2-2.8,2.4-1.3,3.3,0.1c1.2,1.9,1.8,4.1,2.8,6.1c0.1,0.2,0.2,0.5,0.3,0.7c0.2,0.5,0.2,0.9,0.2,1.4
		C216.6,297.2,216.3,297.6,216,298z"/>
	<path fill="#A50F68" d="M211,287c-1.4,5.8,3,12.1-1.6,17.7c-0.8,0.9-0.4,2.9-0.4,4.4c-0.1,11,0.6,22,0.1,33
		c-0.4,8.9-0.2,17.8,1.6,26.8c1.8,8.6-0.3,17.6-1,26.3c-0.8,10.3-0.8,20.6-0.5,30.9c0.2,6.1-1.7,11.7-2.3,17.6
		c-0.7,6.8,2.1,13,2.1,19.5c0,4.1,1,8.3-1.8,12.1c-0.3,0.5-0.3,1.4-0.2,2c2.2,7.4,0.9,14.7,0.1,22.1c-0.4,3.1,2.9,5.6,1.9,9
		c-1-0.1-2-0.3-3-0.4c-1.2-2.3-2-4.7-3.9-6.8c-2.1-2.2-1.7-5.5,0.6-8.2c2.9-3.3,3.4-6.5-0.1-10c-2.6-2.7-2.5-6.2,0.2-8.9
		c2.3-2.3,2.8-4.8,1.8-7.7c-0.5-1.5-0.6-2.9,0-4.4c0.6-1.3,0.8-2.8-0.2-3.8c-5.7-4.8-2.5-11.2-3.3-16.9c0-0.2,0-0.4,0-0.5
		c7.7-11.6,3.3-24.5,3.7-36.8c0.8-25.3,0.2-50.6,0.2-75.9c0-8.7-0.9-17.5,0-26.2c0.6-6.3-0.7-12.6-1-18.9c-0.8-1-0.8-2,0-3
		c-1.7-3-1.3-5.4,2-7c0.8,3.6,3.5,6.2,4.8,9.5C211.4,284,212.5,285.4,211,287z"/>
	<path fill="#951371" d="M132,299c-1.7,1.2-3.2,1.9-2.4,4.9c1.3,4.7,1.5,9.8,1.4,14.8c-0.1,28.4-0.1,56.9-0.1,85.4
		c0,6.2,0,12.5,0,18.7c0,2.3,0,4.7-1.2,6.8c-0.9,1.5-0.9,3.2-0.7,4.9c2.1,13.5,1.9,27.2,1.9,40.8c0,1.3-0.6,2.5-0.9,3.8
		c-1.9-0.5-3.6-1.5-5-3c1.9-4.1,1.3-8.6,0.8-12.8c-1.3-9-1-17.6,1.9-26.3c0.8-2.2,1-5.3,0.1-7.4c-3.5-8.3-1.1-16.2,0.6-24.3
		c1-4.9,1.2-9.8-1.4-14.4c-1.1-1.8-1-3.8-1-5.8c0-20.1-0.5-40.2,0.2-60.3c0.3-8.9-1.4-17.3-2.2-25.9
		C126.7,297.1,129.3,297.1,132,299z"/>
	<path fill="#861779" d="M45.9,401.3c0.4-4.4-0.6-8.9,1.8-13.1c0.7-1.2,0.5-2.9-0.4-4.3c-0.5-0.8-1.2-1.8-1.2-2.6
		c0.2-7.4-1.3-14.7-0.1-22.1c0.3-2.2,1.4-3.2,3.6-3.2c1.8,0,3.6,0,5.5,0c1.9,9.2-0.6,18.4,0.1,27.5c0.7,9.1-0.1,18.3,0.8,27.4
		c0.1,1.2,0.1,2.3-1,3.1C51.6,410,48.3,405.9,45.9,401.3z"/>
	<path fill="#85187C" d="M29.9,375.1c1.7-1.3,2.3-3.2,2.9-5c0.7-2.1,0.1-3.8-2.3-4.7c-4.3-1.8-5.4-4.2-2.2-7.8
		c2.9-3.4,2.6-6.8,2.7-10.4c6.7,0,7.6,0.9,7,6.2c-0.2,1.5-0.4,2.6-2.1,2.8c-2.3,0.3-2.9,1.8-2.9,3.9c0,2.1-0.3,4.4,2.6,5.2
		c1.5,0.4,2.3,1.3,2.3,2.8c0,4.1,0,8.3,0,12.4c0,2-2,2.4-3,3.7C32.8,381.3,31.4,378.1,29.9,375.1z"/>
	<path fill="#FEFEFE" d="M287.9,222.8c6.2-5.8,14.2-7.5,22.1-9.2c10.2-0.3,19.9,1.6,28.9,6.7c7.1,5.2,12.5,11.8,16.3,19.7
		c1,0.7,1.2,1.9,1.4,2.9c3.3,6.3,2.3,13,1.6,19.6c-0.2,2-2.3,2.6-4.1,2.9c-4.1-1.1-8.4-0.9-12.3-0.3c-12.6,2.1-25.2,0.7-37.8,1.3
		c-1.5,0.1-3.8-0.9-4.3,1.1c-0.4,1.7,1.5,2.8,2.7,3.9c6.5,5.9,15.7,6.6,23,1.3c3.5-2.5,6.9-3.4,11.1-3c5.6,0.5,11.2,0.4,16.9,0.3
		c2.7,0.6,2.2,2.1,1.4,4.1c-1.7,4.4-4.6,7.9-7.3,11.7c-3.3,3.6-7.4,6.2-11.6,8.6c-3.8,1.2-7.2,3.6-11.3,4c-3.8-0.4-7.4,1.2-11.2,1.1
		c-10.3-0.4-19.7-3-27.2-10.6c-6-6.2-11.6-12.8-13.2-21.7c-0.5-8.5-1.5-17,1-25.4l0,0.1c1.3-2.8,2.8-5.5,4-8.3
		c-0.1-1.4,0.8-2.1,1.8-2.7C282.4,228.2,285,225.3,287.9,222.8z"/>
	<path fill="#B50A5E" d="M275,291c3.1,1.9,4.2,4.5,4.1,8.3c-0.3,11.2-0.1,22.5-0.1,33.7c0,1.5,0.2,3.8-0.5,4.3c-4.9,3-2.1,5.7-0.5,9
		c1.6,3.4,2.4,7.2-0.9,10.5c-1.8,1.8-1.7,4.8-0.6,6.6c3.7,5.8,2.5,10.5-2.5,14.7c1.9-11.4,0.3-22.9-0.4-34.2
		c-0.6-9.5,7.2-18.7,0.4-28.1c3.8-6.8,2.3-13.7,0.1-20.6C273.7,293.9,273.6,292.1,275,291z"/>
	<path fill="#B50A5E" d="M286.1,289c11.7,8.7,24.8,11.2,38.9,9c0.3,0.2,0.5,0.4,0.3,0.7c-0.1,0.2-0.2,0.3-0.3,0.3
		c-0.7,0-1.3,0.1-2,0.1c-1.5-0.3-2.8,0.3-4,0.9c-3.7,0-7.3,0-11,0c-3.2-1.5-7.4,0.7-10-3c-0.7,0-1.3,0-2,0c-2.4-2.2-6.1-2.1-8.5-4.5
		c-0.9-0.9-2,0.5-2.5,1.5c-0.4,0.3-0.7,0.7-1.1,0.9c-1.1,0.5-0.8-0.4-0.8-0.9c-0.1-1.9,3-2.7,1.9-5C285.4,289,285.7,289,286.1,289z"
		/>
	<path fill="#FAF0F5" d="M273.9,241.9c-1.1,8.4,0.8,17-1,25.4c-1.9-3.9-1.4-8.2-2-12.3c-0.4-1.6-0.9-3.2,0.3-4.7
		C272.5,247.6,271.9,244.3,273.9,241.9z"/>
	<path fill="#B50A5E" d="M279,287c2,2.7-1,2.8-2,4c-0.1-0.3-0.2-0.6-0.2-0.9c-0.1-1.4-3.3-1.3-1.8-3.2
		C276.1,285.3,277.6,287.3,279,287z"/>
	<path fill="#FAF0F5" d="M287.9,222.8c-2.1,3.4-4.7,6.2-8.3,8.1c1.1-1.6,2.3-3.2,3.4-4.9C284.7,224.9,286.3,223.8,287.9,222.8z"/>
	<path fill="#FAF0F5" d="M277.9,233.6c-0.3,3.3-1.8,6-4,8.3C274.4,238.8,275.8,236,277.9,233.6z"/>
	<path fill="#A31259" d="M271.2,250.3c-0.1,1.6-0.2,3.1-0.3,4.7c-1.3-1.6-1.1-3.3-0.5-5c0,0,0.3-0.1,0.4,0
		C270.9,250,271,250.2,271.2,250.3z"/>
	<path fill="#FEFEFE" d="M221.9,242.3c2.4,6.9,4.7,13.8,7.1,20.8c0.8,1.4,0.8,3.2,2.5,4.4c2.5-2.7,3.2-6.3,4.4-9.5l0,0.1
		c1.1-1.6,1.5-3.5,1.9-5.3c-0.2-2.2,0.9-3.9,1.9-5.7c2.7-2.9,2.7-6.8,4.2-10.2c1.1-4.5,2.8-8.7,4.9-12.8c1.2-0.7,1-2,1.3-3.1
		c0.5-2.5,2-3.7,4.5-3.8c6-0.1,12-0.1,18,0c1.7,0,3.6,0.3,2.5,2.9c-1,0.8-0.6,2-1,3c-2.4,2.5-2.5,6.1-4,9c-1,0.8-0.6,2-1,3
		c-1.9,3.1-3.4,6.4-4,10c-2,6.6-4.8,12.8-7.7,19c-1.5,1.4-1.5,3.4-2.2,5.1l0.1-0.1c-1.2,1.5-1.4,3.4-2.1,5.1l0.1-0.1
		c-3.3,6.2-5.3,12.9-8.1,19.3c-0.8,2.1-2.4,2.9-4.6,2.9c-6.1,0-12.3,0-18.4,0c-2.7,0-4.4-1-5.7-3.8c-4.6-9.9-9.4-19.7-11.9-30.3
		c-0.2-1-1.1-1.1-1.8-1.5c-2.8-3.1-3.5-7-4.4-10.8l0.1,0.1c-2.2-3-2.9-6.7-4.1-10.1c0,0,0.1-0.1,0.1-0.1c-2.4-6.5-4.7-13.1-7.3-19.6
		c-1.3-3.3-0.4-4.1,2.8-4c5,0.2,10,0.4,15-0.1c4.5-0.4,7.8,0.5,9.1,5.2C217.9,227.8,220.6,234.8,221.9,242.3z"/>
	<path fill="#FBF6F9" d="M202.9,260c1.1-0.3,3-1.7,2.9,0.7c-0.3,8.3,5.1,14.5,7.3,21.9c1.1,3.7,3,7.1,4.5,10.6
		c0.5,1.2,1.3,1.8,2.7,1.8c7.1,0,14.2,0,21.3,0c1.6,0,2.2-1.2,3.2-2c0.4,0.2,0.5,0.4,0.4,0.7c-0.1,0.3-0.2,0.4-0.3,0.4
		c0,0.5-0.1,1.1-0.1,1.6c-0.4,0.3-0.6,0.9-1.1,0.9c-9,0.6-17.9,0.8-26.8-0.1c-0.3,0-0.5-0.4-0.7-0.7l0.1,0.1
		c-4.2-9-7.7-18.3-11.4-27.6c-1.1-1.7-1-3.7-1.7-5.5l0.1,0.1C202.1,262.1,202.4,261.1,202.9,260z"/>
	<path fill="#A50F68" d="M216.2,295.8c9.6,0.5,19.1,0.6,28.7-0.1c-0.3,0.5-0.6,0.9-0.9,1.4c-9.3,0.6-18.6,0.7-27.9-0.1
		C216.1,296.6,216.1,296.2,216.2,295.8z"/>
	<path fill="#A2095E" d="M216,297c9.3,0,18.6,0,27.9,0.1c0,0.3,0,0.6,0,0.9c-0.7,0.6-1.3,0.6-2,0c-0.7,0-1.3,0-2,0
		c-3.7,0-7.3,0-11,0c-4.3,0-8.7,0-13,0C216,297.7,216,297.3,216,297z"/>
	<path fill="#FAF1F5" d="M245,294c0-0.4-0.1-0.7-0.1-1.1c2.2-6.5,4.2-13.2,8.3-18.9C250.9,280.9,248.4,287.6,245,294z"/>
	<path fill="#FAF3F7" d="M265,245.1c-0.6-4.1,0.7-7.5,4-10C268.4,238.6,266.8,241.9,265,245.1z"/>
	<path fill="#FAF3F7" d="M270,232c0.5-3.3-0.1-7.2,4-9c0,0.7,0,1.3,0,2C272,227,272.5,230.3,270,232z"/>
	<path fill="#B30B60" d="M276,223c0.8-0.5,1.6-0.9,2.4-1.4c-0.8,1.8,0,4.8-3.4,4.4c0-0.3,0-0.7,0-1C275.8,224.6,276,223.8,276,223z"
		/>
	<path fill="#AB0D64" d="M242,298c0.7,0,1.3,0,2,0c1,1.4,1.6-0.7,2.5-0.2C244.4,300.7,244.4,300.7,242,298z"/>
	<path fill="#FAF1F5" d="M255.1,269.2c-0.2-2.1,0.1-4,2.2-5.1C256.9,265.9,256.5,267.7,255.1,269.2z"/>
	<path fill="#FAF1F5" d="M253.1,274.1c-0.2-2.1,0.1-3.9,2.1-5.1C255,271,254.4,272.7,253.1,274.1z"/>
	<path fill="#FAF3F7" d="M275,220c-0.4-2.4-2.3-2-3.8-2c-4,0-7.9,0.1-11.9,0c-4.4-0.1-8.8-0.7-9.2,5.6c0,0.1-0.9,0.2-1.3,0.3
		c0.1-1,0.1-1.9,0.2-2.9c0.5-3.5,2.4-5,6-4.9c6.1,0.2,12.2,0.1,18.4,0C277,216.2,277.6,217.4,275,220z"/>
	<path fill="#B20B60" d="M274,214c2,0.5,4-1.1,6,0c0,1.3-0.7,2-2,2C276.7,215.3,275.3,214.7,274,214z"/>
	<path fill="#AB0D64" d="M248.9,213.5c-0.4,0.5-0.8,1.1-1,1c-0.5-0.2-1.2-0.5-1.4-1c-0.3-0.6-0.1-1.4,0.8-1.2
		C247.8,212.5,248.3,213.1,248.9,213.5z"/>
	<path fill="#DD0147" d="M493,190c-1.8-2-3.3-4,0-6C493,186,493,188,493,190z"/>
	<path fill="#AB0D64" d="M231,261c-2.6-3.3,1.2-5.9,1-9c1.1-1.3,2.4,0.7,3.8-0.3C233.4,254.6,233.4,258.4,231,261z"/>
	<path fill="#F9EEF4" d="M235.9,257.9c0.3,2.2-0.6,4.3-1.6,6.1c-0.8,1.6-0.6,4.7-2.9,4.4c-2.1-0.3-2.5-3.1-2.5-5.3
		c0.8,1.2,1.5,2.3,2.5,3.8c0.6-1.3,1.1-2.4,1.6-3.5C234.1,261.5,235,259.7,235.9,257.9z"/>
	<path fill="#F9EEF4" d="M243.9,236.7c-0.5,3.7-0.5,7.7-4.2,10.2C241.1,243.5,241.8,239.9,243.9,236.7z"/>
	<path fill="#AB0D64" d="M237.6,237.6c1.8,2.3,3.1,3.7,1,6.2C237.9,241.8,236.8,240.5,237.6,237.6z"/>
	<path fill="#F9EEF4" d="M237.9,252.6c0.3,2.1-0.1,4-1.9,5.3C236,256,236.7,254.2,237.9,252.6z"/>
	<path fill="#D5034C" d="M440,287c-0.7,0-1.4,0-2.2,0c-2.3,0.2-3-1.7-4.1-3.1c-6.3-8.1-12-16.7-18.3-24.7c-2.6-3.3-2.3-6.1,0.4-9.3
		c2.6-3,5.2-6,7.5-9.2c4.8-5.7,9.5-11.3,14.2-17.1c1.4-1.8,2.8-3.7,5.2-4.3c0.5,0,0.9,0.2,1.3,0.6c-0.1,1.5,0.5,3.6-1,4.1
		c-6.6,2.4-3.8,6.7-2.1,10.5c2.6,6.2,2.7,12.2,0.7,18.8c-1.3,4.4-1.4,9.2-3.4,13.7c-0.9,2.1-0.4,5,1.4,7.8c1.5,2.4,5.2,6.7-0.1,9.9
		C439.3,284.9,439.8,286.2,440,287z"/>
	<path fill="#CD0248" d="M415,297.1c9.3,0,18.6,0,27.9,0c-0.3,0.3-0.6,0.6-1,0.9c-1,0.9-2,0.8-3,0c-0.3,0-0.7,0-1,0
		c-6.1,0-12.2,0-18.3,0C418.1,298,416.4,298.5,415,297.1z"/>
	<path fill="#D5024C" d="M443,215c-1-0.3-2-0.7-3-1c4.6-3.5,4.9-3.4,6,2C444.7,216.7,443.9,215.8,443,215z"/>
	<path fill="#D1044E" d="M443,215c1,0.3,2,0.6,3,1c1,2.2-1.9,2.4-2,4c-0.5,0-0.9-0.1-1.4-0.1c-0.7-1.4,0.1-2.6,0.4-3.9
		C443,215.6,443,215.3,443,215z"/>
	<path fill="#D5024C" d="M439,298c1,0,2,0,3,0c0.2,0.8,1.4,2.1,0.2,2.4C440.5,301,439.3,299.9,439,298z"/>
	<path fill="#D5034C" d="M445,295c-1.3-1.5-2.8-2.9-3-5C444,291,445.2,292.6,445,295z"/>
	<path fill="#DD0147" d="M483,184c3.4,2.3,2,4.7,0,7C483,188.7,483,186.3,483,184z"/>
	<path fill="#C20B59" d="M354,264.9c2.8-0.3,3.7-1.9,3.9-4.7c0.6-6.3-0.7-12.2-2-18.2c0.3-0.2,0.7-0.3,1,0c0.3,0.3,0.7,0.7,1,1
		c0.7,2.6,2,5.2,1,8c0,1,0,2,0.1,3c1.1,0.8,0.2,2.1,0.9,3c-0.7,3-1.3,6-2,9c-1.3,0-2.7,0-4,0C353.5,265.6,353.5,265.3,354,264.9z"/>
	<path fill="#C70754" d="M359,251c-0.1-2.7-1.5-5.2-1-8c1.6,1.3,2.1,3,2,5C360,249.1,360.2,250.3,359,251z"/>
	<path fill="#C70754" d="M357,242c-0.3,0-0.7,0-1,0c-0.2-0.7-0.5-1.4-0.7-2.1c0.3-0.6,0.5-1.3,0.8-1.9
		C357,239.2,358.7,240.2,357,242z"/>
	<path fill="#C70754" d="M356,237c-1.8-0.8-2.1-2.3-2-4C355.8,233.8,356.1,235.3,356,237z"/>
	<path fill="#BF0858" d="M322,212c-4-1.9-3.5-4.9-3.3-8.8c0.4-10.1,0.5-20.2-0.2-30.4c-0.4-5.9,0-12.3,0.8-18.3
		c0.4-2.6,0.2-4.9-0.4-7.3c-1-3.5-1.1-6.8-0.1-10.3c0.8-2.8,0.8-5.7,0.5-8.7c-0.7-6.9-1.1-14,3.9-20c1.7-2,0.6-4.8,0.8-7.3
		c3.6,5.3,2.2,11.1,1.1,16.7c-0.5,2.8-1.2,5.5-1.2,8.3c0,26.9,0,53.8,0,80.7c0,2.2-0.2,4.3,1,6.3C323.9,213,322.7,213.2,322,212z"/>
	<path fill="#BF0858" d="M327,213c1.6,0.2,3.7-0.7,4,2C329.4,214.8,328,214.3,327,213z"/>
	<path fill="#C70754" d="M364,292c0-4.3,0-8.7,0-13c-0.5-7.7-1.2-15.3,0-23c0-2.7,0-5.3,0-8c0-17.3,0-34.6,0-51.8
		c0-1.8-0.6-3.7,0.9-5.2c0.2,0.2,0.4,0.5,0.7,0.7c0.8,1.5,0.7,3.2,0.8,4.9c0,31.8,0,63.6,0,95.4c0,1.2,0,2.3-0.3,3.5
		c-0.2,0.6-0.5,1.2-0.9,1.6C362.4,295.9,363.1,294,364,292z"/>
	<path fill="#C70754" d="M385,190c1.4,0.1,2.9-0.4,4,0.8c-0.7,1-1.8,1.4-3,1.5c-5.9,0.2-11.9,0.2-17.8,0c-1.2,0-2.2-0.5-3.1-1.3
		c0,0,0-0.1,0-0.1c4.2-2.1,8.7-0.4,13-1C380.3,190,382.7,190,385,190z"/>
	<path fill="#C50755" d="M359.9,200.1c0.3-1.9-0.5-3.9,1.4-6.6C362.1,196.7,362.5,198.6,359.9,200.1z"/>
	<path fill="#C50755" d="M361.8,203.3c0,1.9,0,3.8,0,5.6C360.7,207,361,205,361.8,203.3z"/>
	<path fill="#CE0450" d="M387,184c1.8,0.7,5.1-0.9,5,3C390.2,186.3,386.3,188.9,387,184z"/>
	<path fill="#B8095C" d="M282.3,218.1c-0.4,0.2-0.8,0.5-1.2,0.5c-0.6,0-0.8-0.6-0.4-1c0.3-0.3,0.9-0.3,1.3-0.4
		C282,217.2,282.1,217.7,282.3,218.1z"/>
	<path fill="#D75D89" d="M365,191c8-0.1,16-0.1,24-0.2c0.3,0.2,0.6,0.3,0.9,0.3c0,0,0-0.1,0-0.1c1.4,1.9,1.1,4.1,1.1,6.2
		c0,12.9,0,25.9,0,38.8c0,3.3,0.1,6.6,0.5,9.9c0.1,1.5-0.5,2.5-2.2,2.2c-0.5-0.3-0.9-0.8-1.2-1.4c-1-9.5-0.3-19.1-0.4-28.7
		c-0.1-6.3,0-12.6,0-18.8c0-1.8,0.4-3.7-0.9-5.2c-5.6-1.6-11.4-0.5-17.1-0.6c-0.8,0-1.4,0.8-1.8,1.5c-0.6,1.6-0.4,3.3-0.4,5
		c0,29.3,0,58.6,0,87.9c0,6.6,0,6.5,6.8,6.6c4.5,0.1,9-0.4,13.5,0.4c0.6,0.2,1.1,0.6,1.5,1.1c-0.1,0.2-0.2,0.5-0.2,0.7
		c-2.5,2.3-5.6,1.5-8.4,1.5c-5.2-0.1-10.3-0.7-15.4-1.5c-0.1-4-0.3-8-0.3-12C364.8,253.6,364.9,222.3,365,191z"/>
	<path fill="#FEF7FE" d="M389,248c1,0.2,1.8,0.2,2-1.1c-0.2-0.2-0.3-0.5-0.3-0.8c0-0.3,0.1-0.4,0.1-0.4c1.1-2,3.2-2.9,4.5-4.7
		c6-7.3,12.1-14.5,18-22c1.7-2.2,3.6-3,6.3-3c7.8,0.1,15.6-0.1,23.4-0.2c2,1.5-0.3,2.6-0.4,3.9c-6.2,7.2-12.3,14.3-18.5,21.5
		c-1.9-3.1,0.5-5,2.2-6.8c3.3-3.5,6.3-7.3,9.3-11.1c0.7-0.9,1.9-1.7,1.4-3c-0.5-1.3-2-1.1-3.1-1.1c-4.5-0.1-9,0-13.5,0
		c-2.6,0-4.4,1.2-5.9,3.1c-5.6,7-11.6,13.7-16.6,21.2c-1.6,2.4-3.6,4.4-5.9,6C390.2,251.1,389.7,250.8,389,248z"/>
	<path fill="#D10C53" d="M395.3,241.1c-0.9,2.1-2.3,3.8-4.1,5.2c-0.8-0.8-0.6-1.8-0.6-2.8c0-16.4,0-32.7,0-49.1c0-0.8,0-1.7,0.5-2.4
		c1.6,1.5,1,3.4,1,5.2c0.1,14.1,0.1,28.2,0,42.3C391.9,243.2,393.4,242,395.3,241.1z"/>
	<path fill="#C0084B" d="M391,192c0,18.1,0.1,36.2,0.1,54.3c0.1,0.3,0,0.5-0.2,0.7c-1.6-1.5-0.9-3.4-0.9-5.2
		c-0.1-16.9-0.1-33.8-0.1-50.8C390.3,191.4,390.6,191.7,391,192z"/>
	<path fill="#9E116C" d="M174,187c1.1-5.2,1.2-10.4-0.6-15.5c-0.4-1-0.8-2.7-0.3-3.4c3.3-4.4,0.3-10.1,3-14.6
		c0.4-0.6,0.5-1.4-0.1-1.8c-3.9-2.4-2-5.8-1.4-8.9c0.5-2.5,0.9-5.1,0.3-7.4c-1.8-6.5-0.2-12.9,0.4-19.2c0.4-4.8,1.1-9.1-1.1-13.6
		c-0.6-1.2-0.2-3,0.3-4.4c1.1-3.1,2-6-0.2-8.9c-0.1-0.1-0.2-0.3-0.1-0.5c2-5.1,0.8-10.7,2.8-15.8c0.7-1.8,0.6-2.9-0.6-4.4
		c-2.1-2.8-2.7-6.2,0.3-8.4c2.2-1.6-0.7-4.6,2.3-5.4c0.1,4.1-0.6,8.3,2.4,11.9c1.3,1.5,0.4,3.4-0.5,4.7c-2.3,3.3-1.9,6.9-1.9,10.5
		c0,9.6,0,19.3,0,28.9c0,3.6-0.4,7.2,1.9,10.5c0.8,1.1,1.4,2.8,0.2,4.2c-2.7,3.1-2.1,6.8-2.1,10.4c-0.1,15.6-0.4,31.2,0.1,46.8
		c0.1,3.8,0.6,6.3-4.1,6.1C175,188.2,174.8,187.4,174,187z"/>
	<path fill="#990E65" d="M181,296c0-35,0-70,0-105c1.5,1.3,1,3.1,1,4.7c0,31.9,0,63.8,0,95.6C182,292.9,182.5,294.7,181,296z"/>
	<path fill="#A40F69" d="M221.9,242.3c-3.1-6.8-6-13.7-8-20.9c-0.3-2.1-0.6-4.2-0.9-6.3c1,0.6,2,0.6,3,0c1.4,2.1,2,4.6,2.5,7
		c1,5,1.6,10.1,5.2,14.2c0.6,0.7,0.7,1.8,0.4,2.9C224.1,240.6,222.4,241,221.9,242.3z"/>
	<path fill="#960D66" d="M176,298c-3.7,0-7.3,0-11,0c-3.6-0.5-7.5,1.1-11-1c4.6-2.7,9.6-1.2,14.5-1.3c3.8-0.1,7.9-1.2,11.5,1.3
		c0,0,0,0,0,0C178.9,298.5,177.4,297.9,176,298z"/>
	<path fill="#861778" d="M56,247c-1.5,0-3,0-4.4,0c-3.1-0.1-7.5,1.2-3.9-4.9c1.8-3.1-2.3-6.2-1.5-9.7c0.3-1.4-0.1-2.9-0.2-4.4
		c0-2.1,0-4.3-0.1-6.4c-0.1-1.7-1.9-3.5,0.2-4.9c1.9-1.3,3.2,0.9,4.9,1.3c3.2,3.1,4-1.3,6-2c0.5,0.5-0.2-0.1,0.3,0.3
		c0.1,0.1,0,0-0.3-0.3c1.2-2.5,3.8-4.2,3.7-7.4c0-0.2,1.2-3.6,3.4-1.3c0.3,3.4-2.2,6.1-2.3,9.4c-1.2,3.3,0.7,7.2-1.7,10.3
		c-0.5,0.2-0.9,0.1-1.3-0.3c0,0.4,0.4,0.6,0.5,0.9c-2.4,3.7-3,7.3-1.1,11.6C59.3,241.8,59.7,245.2,56,247z"/>
	<path fill="#84187B" d="M33,301c-3.6,0.1-5-1.9-5-5.3c0-5.8-0.8-11.8,0.3-17.4c0.9-4.5,2-9.3,4.7-13.3C32.9,277,34.1,289,33,301z"
		/>
	<path fill="#FEFDFD" d="M169,191.1c0.3,0.1,0.6,0.2,1,0.2c10,0.5,10,0.5,10,10.8c0,31.2,0,62.5-0.1,93.7c-8,1.4-16.1,0.3-24.1,0.5
		c-0.7,0-1.1-0.7-1.2-1.4c0.1-26.1,0.1-52.2,0.3-78.3c0-2.7-1.2-3.3-3.7-3.4c-10.4-0.5-10.4-0.6-10.4-10.9c0-11.1,0-11.1,11.2-11.1
		C157.7,191.3,163.4,191.2,169,191.1z"/>
	<path fill="#920D69" d="M154,296c-0.3,0-0.6,0-1,0c0-27,0-54,0-81c1.7,1.7,0.9,3.8,0.9,5.7c0.1,24.8,0.1,49.5,0.1,74.3
		c0.3,0.2,0.4,0.5,0.2,0.7C154.2,295.9,154.1,296,154,296z"/>
	<path fill="#981370" d="M154,296c0-0.3,0.1-0.6,0.1-1c0.2,0,0.4,0,0.6,0c3.8,2.2,8,0.8,12,1c4.4,0.2,8.9-0.1,13.3-0.1
		c0,0.4,0,0.8,0,1.1c-8.7,0-17.3,0-26,0C154,296.7,154,296.3,154,296z"/>
	<path fill="#FEFEFE" d="M61,216c-0.2-3.4,2.1-5.8,3.1-8.8c5.3-9.2,13.3-14.8,23.1-18.1c10.1-1.5,20-1.1,29.7,2.1
		c8.5,4.4,15.4,10.4,18,20.1c3.2,11.9,0.5,22.7-6.9,32.4c-7.2,9.5-16.3,17-25.4,24.6c-1.2,1-2.9,1.6-3.4,4.2c8.4,0,16.6,0,24.8,0
		c11.9,0,11.9,0,11.9,11.9c0,3.8-0.1,7.6-0.2,11.5c-2,2.2-4.6,1.7-7,1.6c-20.3-0.6-40.5-0.4-60.8,0c-0.5,0-1,0-1.5,0
		c-5.7-0.2-6.1-0.5-6.1-6.4c0-4.7,0.1-9.3,0-14c0-2.1,0.2-4,2.2-5.2c3.9-1.4,6.8-4.1,9.2-7.4c2-2.7,4.3-5,6.9-7.1
		c4.8-2.9,7.4-8.4,12.9-10.4c6-4.4,11.6-9.1,15.2-15.8c0.4-1.5,1.1-2.8,1.6-4.2c2.6-6.4,0.5-12.3-5.2-14.6c-6.9-2.8-13.3,0-15.8,6.7
		c-0.2,0.6-0.3,1.3-0.4,2c-0.1,0.5-0.2,1-0.4,1.5c-0.6,1.6-0.7,3.5-2.7,4.2c-6.6,0.9-13.2,0.4-19.8,0.4c-2.5,0-4.1-1.1-3.8-3.9
		C60.8,220.9,60,218.4,61,216z"/>
	<path fill="#A90D65" d="M224,239c-6.1-6.9-6.9-15.5-8-24c0.7,0.5,1.3,1,2,1.5c0.7,0.6,1.5,1.7,2.5,0.8c0.9-0.8,0.4-2-0.3-2.7
		c-4.1-4.1-1-8.7-0.4-12.8c1.5-9.9,2.4-19.6-0.4-29.3c-0.6-2.1-1-4.5,0.3-6.3c1.9-2.6,2.2-5.9,1.1-8.1c-3.4-7,0.8-13.2,0.9-19.7
		c0-0.2,0.1-0.3,0.1-0.5c-0.2-16.2,0.4-32.3-0.6-48.5c0-0.2-0.1-0.3-0.1-0.5c2.6-11.5-1-23.2,1-34.8c1-5.6,1.2-11.7,0.2-17.5
		c-0.2-1-0.5-2-0.3-2.9c2-8.6-0.7-17.2-0.1-25.7c0.2-2.1,0-4.1,3-3.9c0,18.3,0.6,36.7-0.2,54.9c-0.5,9.9-0.2,19.8-0.4,29.6
		c-0.3,14.8,0.8,29.8,0.3,44.5c-1.1,30.6-0.1,61.2-0.7,91.8c-0.1,3-1,6,0.8,9.1C225.5,235.1,225.7,237.5,224,239z"/>
	<path fill="#A40F69" d="M213.8,210.9c-0.5,0.4-0.8,0.8-1.1,0.9c-0.4,0-1.1-0.2-1.2-0.4c-0.3-0.7,0.3-1.2,0.9-1.1
		C212.9,210.2,213.2,210.6,213.8,210.9z"/>
	<path fill="#891779" d="M64.6,271.8c-3.1,1.7-4.4,4.2-4,7.8c0.5,5.2-2.3,11.9,1.2,15.3c3.2,3.1,9.8,0.9,14.9,0.9
		c19.7,0.1,39.5,0,59.2,0c0,0.4,0.1,0.8,0.1,1.2c0,0,0,0,0,0c-4.4,2-9.1,1.1-13.6,0.8c-9.8-0.6-19.5-0.2-29.3-0.4
		c-8.1-0.7-16.2,1.3-24.3,1c-3-0.1-5.9-0.3-8.8-1.4c-0.1-1-0.1-2-0.2-3c0-6,0-12,0-17.9c-1.7,6.4-0.5,13.3-3.5,19.5
		c-2.2-1.8-0.5-3.1,0.1-4.6c1.3-3.3,0.8-6.5-2.9-7.7c-4.1-1.3-2.3-4.3-2.3-6.6c0-2.4,1.8-2.8,4-2.1c2.3,0.7,3.3-1.3,4.3-2.7
		c1.3-1.7-0.3-2.6-1.5-3.5c-4.5-3.1-3.1-7.9-2.6-11.9c0.4-3.1,0.6-6.2,0.7-9.4c1.3-2.8,2.4-5.7,0.6-8.8c-2.5-4.5-1.3-8.1,2.4-11.2h0
		c2.6-3.3-0.6-7.7,2-11c0,10,0,10,10.1,10c4.7,0,9.3,0,14,0c0.3,0.6,0.1,1-0.3,1.4c-3.2,1.4-6.5,1.2-9.7,0.4
		c-3.1-0.8-6.2-0.1-8.6-0.4c1.7,0.1,4.1,0,6.6,0c2.6,0.7,1.4,2.6,1.1,4c-0.6,3.1-0.7,6.2-0.3,9.4c0.2,1.7,0.4,3.4-0.4,4.9
		c-2.2,4-2.6,7.8,0.5,11.5c0.9,1.2,1.1,2.7-0.5,3.3c-2.5,0.9-3.5,3.9-5.2,4.1c2-1.1,4.3-3.3,6.8-5.3c1.4-1.2,2.5-2.8,4.5-1.2
		c-2.2,2.1-4.3,4.3-6.5,6.4C70.2,267.1,68.1,270.3,64.6,271.8z"/>
	<path fill="#951371" d="M138,283c-0.4,3,1,6.1-0.9,9c0-7.7,0-15.3-0.1-23c-1.2-0.5-1.6-0.2-1,1c-4.5,2.2-8.8,0.8-13.7-0.5
		c2.4-2.4,4.5-3.2,7.4-0.8c-2.4-5.9,1.5-12.5-3.2-18c-1.5-1.8,0.4-3.8,2.9-4c2.4-0.3,3.8-1.2,2.6-3.8c-1.4-3.1,2.2-3.1,3.1-4.8
		c0.9-0.7,0.7-1.3,0-2c0.1-2.2,0.5-4.3,2-6c1-1.3,0.7-2.7,0-4c-0.1-2.3,0-4.4,2-6c1.2,1.2,2.9,2.6,1.9,4.2
		c-2.7,4.1-0.6,8.3-0.8,12.4c-0.2,3.7-0.6,7-2.3,10.5c-1.4,3-2.3,6.7,1.6,9.2c1.3,0.8,1.8,2,1.5,3.4c-0.8,5.1,2,10.7-2.5,15.6
		C137.1,276.7,138.1,280.4,138,283z"/>
	<path fill="#981370" d="M137,226c1.5,1.5,1.2,3.2,0.7,5c-0.2,0.6-0.9,0.4-0.4-0.1c0.1-0.1-0.2-0.6-0.2-0.9
		C137,228.7,137,227.3,137,226z"/>
	<path fill="#981370" d="M136,270c-0.9-0.1-1.6-0.3-1.2-1.4c0.2-0.6,0.6-1.4,1.3-1.1c0.4,0.2,0.6,1,0.9,1.5
		C136.7,269.3,136.3,269.7,136,270z"/>
	<path fill="#941371" d="M137,214c2.1,0.9,2,2.3,1,4C136.5,216.9,137.1,215.4,137,214z"/>
	<path fill="#981370" d="M135,236c1,0.1,2.1,0.4,1.9,1.7c-0.2,1.3-1.2,0.5-1.9,0.3C135,237.3,135,236.7,135,236z"/>
	<path fill="#AB0D64" d="M227.6,250.6c2.4,0.5,2.8,1.8,1.4,3.8C227.5,253.4,227.8,251.9,227.6,250.6z"/>
	<path fill="#B70A5C" d="M298,297c3.3,1,6.7,2,10,3c-2.5,0-5-0.3-7.4,0.1C297.4,300.8,298.1,298.7,298,297z"/>
	<path fill="#BD0B5B" d="M354,264.9c0,0.4,0,0.7,0,1.1c-5.3,0-10.7,0-16,0c-2,1.5-4.4,1.3-6.7,1.3c-2.9,0-5.6,0.5-8.4,3
		c8.7-2.6,16.9-0.6,25.1-0.4c0.3,0,0.7,0,1,0c1.8-0.3,3.7-1.6,5,1c-6.8,0.1-13.6,0.3-20.4,0.2c-2.6,0-4.6,0.7-6.7,2.4
		c-8.8,7.4-24.2,4.4-29.5-5.5c-0.9-1.6-2.2-3.5,1.3-3.5C317.1,264.9,335.6,264,354,264.9z"/>
	<path fill="#C20B59" d="M348,270c-7.2,0.7-14.4-0.6-21.6,0.9c-2.3,0.5-3,1.6-4.2,2.9c-1.3-3.9,1.3-7.3,5.9-7.7
		c3.3-0.3,6.6-0.1,10-0.1c-0.7,1.4-2.8,3,1.1,3.1C342,269.1,345.2,268,348,270z"/>
	<path fill="#C20B59" d="M354,270.9c-1.4-1.5-3.3-0.7-5-1c1.9-1.5,4.2-1.5,5.9-0.1c2.2,1.7,0.7,4.1-0.1,5.9
		c-1.6,3.8-4.2,7.1-6.9,10.2c-0.3,0.3-0.6,0.4-1,0.3c-0.1-0.2-0.1-0.4-0.2-0.5c2.2-3.3,4.5-6.5,6.5-9.9
		C354.1,274.4,355.6,272.8,354,270.9z"/>
	<path fill="#BE0859" d="M335.9,293.8c3.6-2.7,7.2-5.4,10.8-8.1c0,0,0.3,0.4,0.3,0.4c1,1.5-0.1,2.2-1.1,2.9c-1.7,0.5-2.8,1.8-4,3
		c-2.4,0.2-3.8,2.4-6,3C335.4,294.6,335.4,294.2,335.9,293.8z"/>
	<path fill="#C30756" d="M346,289c0.4-1,0.7-1.9,1.1-2.9c0.3,0,0.6-0.1,0.9-0.1c0.1,0.8,1.9,1,1.1,2.2
		C348.3,289.2,347.1,289,346,289z"/>
	<path fill="#BA0A5B" d="M335.9,293.8c0,0.4,0,0.8,0.1,1.2c-2.7,1.3-5.3,2.7-8,4c-1,0-2,0-3,0c0-0.3,0-0.7,0-1
		C328.6,296.6,332.3,295.2,335.9,293.8z"/>
	<path fill="#FEFEFE" d="M389,248c0.2,1.5,0.9,2.3,2.3,1.1c1.8-1.7,3.9-3.2,5.2-5.3c5-8.4,12.1-15.3,17.8-23.2
		c1.3-1.8,2.8-2.6,5-2.6c5.5,0.1,11,0,16.5,0c1.3,0,2.7-0.1,3.4,1.4c0.8,1.7-0.6,2.4-1.4,3.3c-3.7,4.5-7,9.3-11.2,13.3
		c-1.5,1.4-2.5,3.1-2.4,5.3c-2.8,3.6-5.6,7.3-8.6,10.9c-1.3,1.6-1.8,2.9-0.4,4.8c7.6,10,15.1,20,22.6,30.1c1.3,1.9,2.6,3.8,3.8,5.8
		c0.5,0.8,1.6,1.5,1,2.6c-0.6,1-1.8,0.6-2.7,0.6c-7.3,0-14.7,0.2-22,0c-5.5-0.1-6.5-5.4-9-8.8c-0.8-1.6-1.9-2.9-3.2-4.1
		c-0.6-0.9-1.2-1.8-1.9-2.7c-0.5-1.8-1.8-3-3-4.3l0.1,0.1c-1.5-2.5-2.9-5.1-5.2-7.1c-0.8-0.7-1.6-1.5-2.4-2.2
		c-1.6-0.5-1.9-2-2.6-3.1c-0.1-0.2-0.2-0.3-0.3-0.5c-0.2-0.3-0.4-0.6-0.6-0.9c-0.9-0.6-1.2-0.1-1.5,0.7c0,8.2,0,16.3,0,24.5
		c0,2.7-0.4,5.3-1.6,7.7c-5.6,0.5-11.3,0.4-16.9,0.1c-2.7-0.2-3.5-1.2-3.4-3.9c0.2-11,0-21.9,0.1-32.9c0.1-21.8-0.3-43.5,0.2-65.3
		c5.6-1.1,11.2-0.5,16.8-0.4c3.6,0.1,4.6,2.3,4.5,5.7c-0.1,14.1-0.1,28.2,0,42.2c0,2-0.1,4,0.1,6C388.3,247.1,388.6,247.6,389,248
		L389,248z"/>
	<path fill="#CC0451" d="M387,305c-2.1,3.9-0.5,8.1-1,12.1c-0.2,1.2,0.2,3.1-1.5,3.1c-1.9,0-1.8-1.7-1.7-3.3
		c0.2-4.4,0.1-8.8-0.4-13.2c-2.2,3.1-1.9,6.8-1.8,10c0.3,9.7,0.9,19.4-0.4,29.2c-0.4,3.3,1.1,6.8,0.9,10.3c-0.2,2.2-0.2,4.3-2,5.9
		c-2.5-7-2.3-14,0-21c0-0.7,0-1.3,0-2c-0.3-0.4-0.8-0.8-0.8-1.2c-0.9-9.6-1.9-19.2,0.8-28.8c0-0.7,0-1.3,0-2
		c-0.5-0.5-0.9-0.9-1.4-1.4c-0.8-1-2.2-1.8-1.7-3.3c0.5-1.5,2.1-1.2,3.4-1.3c1.6-0.1,3.3,0.1,4.9-0.4c1.6,0.1,3.2-0.5,4.8,0.4
		c0.9,1.1,2.7,2.1,0.2,3.5C387.9,302.2,387,303.4,387,305z"/>
	<path fill="#D75C88" d="M391,262c0,0.3,0,0.6,0,1c-0.1,9.4,0.1,18.8,0,28.3c0,1.6,0.3,3.4-1.1,4.7c-0.3,0-0.5,0.1-0.7,0.2
		c-0.1-0.1-0.3-0.3-0.4-0.4c-1.5-4-0.6-8.2-0.7-12.3c-0.2-6-0.1-11.9,0-17.9C388.1,263.9,387.4,261,391,262z"/>
	<path fill="#BF094B" d="M389.8,295.9c0.1-9.3,0.1-18.5,0.2-27.8c0-1.7-0.6-3.7,1-5.2l0,0.2c0.9,1.6,1.1,3.2,0,4.8c0,0.3,0,0.7,0,1
		c0.8,9,0.8,18,0,27C390.6,296,390.2,296,389.8,295.9z"/>
	<path fill="#D10D54" d="M391,296c0-9,0-18,0-27c2.2,6.4,0.6,12.9,0.9,19.4C392,290.9,392.9,293.7,391,296z"/>
	<path fill="#C4034B" d="M389,298c-1.7,0-3.3,0-5,0c-3.3,0.7-6.7,0.9-10,0c-0.3,0-0.7,0-1,0c-2.7,0-5.3,0-8,0
		c-0.3-0.2-0.5-0.4-0.3-0.6c0.1-0.2,0.2-0.3,0.3-0.3c0,0,0.1-0.2,0.1-0.2c7.9,0,15.9,0,23.8,0C389,297.2,389,297.6,389,298z"/>
	<path fill="#FBEEF3" d="M395.7,269.1c3.1,1.3,4.5,4,5.2,7.1C398.6,274.2,397,271.7,395.7,269.1z"/>
	<path fill="#D10D54" d="M391,268c0-1.6,0-3.2,0-4.8c0.8,1.2,1.6,2.4,2.3,3.7C392.5,267.2,391.8,267.6,391,268z"/>
	<path fill="#FBEEF3" d="M405.7,283.1c2,0.6,3.2,1.9,3.2,4.1C407.3,286.2,406.5,284.7,405.7,283.1z"/>
	<path fill="#FBEEF3" d="M400.8,276.1c2,0.7,3.3,2,3,4.3C402.5,279.2,401.3,277.9,400.8,276.1z"/>
	<path fill="#CA0552" d="M379,306c0,10,0,20,0,30c-4.4-0.6-5.8-2.1-3.8-6.8c2.1-5,0.5-10.7,0.8-16.1
		C376.2,310.3,375.7,307.4,379,306z"/>
	<path fill="#CA0552" d="M379,338c0,7,0,14,0,21c0,0.3,0,0.7,0,1c0.7,1.7,1.4,3.3,0,5c-2.6-0.5-2.9-2.5-3-4.5c-0.1-6-0.1-12,0-18
		C376.1,340.5,376.4,338.5,379,338z"/>
	<path fill="#CC0451" d="M379,365c0-1.7,0-3.3,0-5c1.9,1.5,2,3.6,2,5.8c0,9.4,0,18.9,0,28.3c0,2.2-0.1,4.3-2,5.8c0-11,0-22,0-33
		C379,366.3,379,365.7,379,365z"/>
	<path fill="#CA0552" d="M374,298c3.3,0,6.7,0,10,0c-2.1,2.1-4.8,0.3-7.1,1.3c-0.1,1.9,2.5,2.7,2.1,4.7c-2.5-0.2-3.8-2.1-5-4
		C374,299.3,374,298.7,374,298z"/>
	<path fill="#C60655" d="M364,256c0,7.7,0,15.3,0,23C363,271.3,361.3,263.7,364,256z"/>
	<path fill="#C60655" d="M361.3,269c1.4,4.1,0.4,7.6,0.8,11.6C359.6,277.5,359.4,274,361.3,269z"/>
	<path fill="#C60655" d="M365,297c0,0.3,0,0.7,0,1c-3.7-1.4-4-3.4-1-6C364.2,293.7,363.3,295.6,365,297z"/>
	<path fill="#C70754" d="M360,257c-1.2-0.7-1-1.9-0.9-3c0.9-0.2,1.9-1.4,2.6-0.1C362.6,255.5,360.5,255.9,360,257z"/>
	<path fill="#CC0451" d="M379,433c0-10.7,0-21.3,0-32C381.9,405.5,381.9,428.5,379,433z"/>
	<path fill="#CC0451" d="M379,456c0-7.3,0-14.7,0-22C382,441.3,382.4,448.7,379,456z"/>
	<path fill="#8C116F" d="M93,297.1c14.3,0,28.6,0,43-0.1c0,0.3,0,0.7,0,1c-1,1-2.3,0.5-3.5,0.5c-4.5-0.3-9.1,0.6-13.5-0.5
		c-3.7,0-7.3,0-11,0c-5,0-10,0-15,0c-0.3-0.2-0.4-0.4-0.3-0.6C92.8,297.2,92.9,297.1,93,297.1z"/>
	<path fill="#861272" d="M93,297.1c0,0.3,0,0.6,0,0.9c-0.3,0-0.7,0-1,0c-3.7,0-7.3,0-11,0c-0.7,0.6-1.5,1.1-2.4,1.2
		c-4.4,0.2-8.9,0.3-13.3-0.1c-1.2-0.2-2.3-0.4-3.3-1.1c-0.8,0-1.6-0.2-2-1C71,297,82,297,93,297.1z"/>
	<path fill="#931373" d="M119,299c4.2,6.7,2.3,14.2,1.5,21.1c-0.9,8.9-1.4,17.5,0.5,26.2c0.8,3.5,0.6,6.7,0.1,10.2
		c-1.5,10.1-1.2,20.3-1,30.5c0.1,4-1.3,5.5-5.1,4.9c-0.6-11-0.7-22,1-32.9c0.7-5-1-9.9-0.9-14.9c0.2-5.9,0.5-11.8,0-17.7
		c-0.3-3.3-0.3-6.4,3-8.9c2-1.5,1.7-4.7-0.9-6.4c-1.9-1.2-2.4-2.7-2.2-4.6c0.5-3.5-0.9-5.7-6.1-6.2C113.2,298.4,116.2,299.3,119,299
		z"/>
	<path fill="#8E1576" d="M101.3,436.1c0-7.7,0-15.4,0-23.2c0.5,0,0.9,0,1.4,0c0.6,7.7,0.5,15.4,0,23.1
		C102.2,436,101.7,436.1,101.3,436.1z"/>
	<path fill="#931373" d="M119,298c4.7,0,9.3,0,14,0c0.3,0.2,0.5,0.4,0.3,0.7c-0.1,0.2-0.2,0.3-0.3,0.3c-0.3,0-0.7,0-1,0
		c-2.7,0-5.3,0-8,0c-1.7,0-3.3,0-5,0C119,298.7,119,298.3,119,298z"/>
	<path fill="#9B126E" d="M167.1,475.5c0.2,3.1,1.7,4.9,0.2,7c-0.4,0.6-1.4,0.5-1.7-0.1C164.7,480.4,164.5,478.4,167.1,475.5z"/>
	<path fill="#A31069" d="M205.2,267.9c4.2,9.1,7.7,18.5,11,28c-3.3-2-2.5-6.5-5.2-8.9c-0.9-3.3-1.2-6.8-4.8-8.7
		c-2.4-1.3,0.5-3.5-0.2-5.3c-1.9-1.2-0.9-3.5-2-5C204.4,267.6,204.8,267.6,205.2,267.9z"/>
	<path fill="#A0106B" d="M202.9,260c0.1,1,0.2,1.9,0.3,2.9c-1.1-1-2.2-1.9-3.2-2.9c-0.1-3.5-3.9-6.3-1.8-10.2
		C199.7,253.2,201.3,256.6,202.9,260z"/>
	<path fill="#A0106B" d="M205.2,267.9c-0.4,0-0.8,0.1-1.2,0.1c-1.7-1.5-0.8-3.4-0.8-5.2C204.4,264.3,205,266,205.2,267.9z"/>
	<path fill="#A31069" d="M204,280c0,1,0,2,0,3c-1-0.1-2-0.4-1.8-1.7C202.3,280.2,203.2,280.1,204,280z"/>
	<path fill="#A0106B" d="M194.2,239.8c1.9,3.1,3.2,6.5,4.1,10.1C194.7,247.4,194.6,243.5,194.2,239.8z"/>
	<path fill="#A0106B" d="M194.9,252.6c-0.1,0.9-0.5,1.6-1.3,1.9c-0.7,0.2-1.3-0.1-1.4-0.9c-0.1-1,0.6-1.5,1.4-1.8
		C194.3,251.6,194.9,251.7,194.9,252.6z"/>
	<path fill="#A0106B" d="M193.7,245.9c-0.3,0.3-0.7,0.7-0.7,0.6c-0.3-0.3-0.8-0.6-0.9-0.9c-0.1-0.5,0.1-1.1,0.8-0.8
		C193.3,245,193.5,245.5,193.7,245.9z"/>
	<path fill="#8B1677" d="M62,298c1,0,2,0,3,0c4.7,0.9,9.3,0.9,14,0c0.7,0,1.3,0,2,0c0,1.2,0.1,2.4-0.9,3.3c-2.7,2.5-2.1,6.2-3.4,8.9
		c-3.3,6.7,1.1,13.9-2.5,20.3c-0.8,1.4-0.6,3.7,0.9,5.6c3,3.9,3,8.1-0.1,12.1c-1.9,2.4-0.7,5.1-1,7.7c-0.4,3.4,1.7,4.3,4.6,4.3
		c0.8,0,1.7,0.5,1.6,1.5c-0.1,0.5-0.9,1.3-1.3,1.2c-3.3-0.2-3.2,1.3-3.2,4.2c0,2.6,0,5.6-1.7,8c-7.6-2.2-8.1-4.4-2.9-10.5
		c1.8-2.1,1.5-5.4,0.5-7.6c-2.9-6.3-1.4-12.6-1.1-19c0.1-3.6,1.2-7.3-3.6-9.5c-3-1.4-2.1-6.4,1-8.3c4.8-2.9,5.5-5.7,2.5-10.3
		c-0.2-0.3-0.6-0.5-0.6-0.8C70.4,303.2,66.2,300.5,62,298z"/>
	<path fill="#8B1677" d="M74,383c0.7,4.3,3.9,8.2,1.2,12.9c-0.7,1.2,0,2.5,0.6,3.8c1.8,4.3,2.2,7.8,0.1,12.9
		c-1.9,4.6-4.9,10.6-2,16.4c-4,0.5-5.2-1.5-5.1-5.2c0.2-7.8,0.1-15.5,0.1-23.3c0-3.6-0.3-7.2-0.9-10.8C67.2,384,68.2,383.1,74,383z"
		/>
	<path fill="#981370" d="M133,299c0-0.3,0-0.7,0-1c1,0,2,0,3,0c1.1,0.7,0.1,1.3,0,2c-0.7,0.5-1.3,0.6-2,0
		C133.7,299.7,133.3,299.3,133,299z"/>
	<path fill="#951371" d="M134,300c0.7,0,1.3,0,2,0c-0.6,0.9-1,2.2-2.4,1.4C132.9,301.1,133.4,300.4,134,300z"/>
	<path fill="#A70E66" d="M214.9,299.7c-0.1,0.2-0.4,0.7-0.7,0.8c-0.9,0.2-1.1-0.5-1-1.2c0-0.3,0.6-0.6,0.9-0.6
		C214.4,298.7,215.2,298.7,214.9,299.7z"/>
	<path fill="#BD0C5B" d="M314.7,247.9c-5.3,0-10.6-0.1-16,0c-2.4,0-3-0.8-1.8-2.9c3.8-6.7,9.6-10,17.1-10.2
		c7.6-0.2,14.1,2.2,18.2,9.1c1.8,3,0.9,4.1-2.5,4C324.7,247.8,319.7,247.9,314.7,247.9z"/>
	<path fill="#FEF7FE" d="M391,262c-3.2,0.1-1.9,2.6-1.9,4c-0.2,9.9-0.2,19.8-0.3,29.7c-5.8,0-11.7-0.2-17.5,0.1
		c-4.3,0.3-5.7-1-5.6-5.5c0.2-24.3,0.1-48.6,0.1-72.9c0-8.2,0.1-16.3,0.2-24.5c0.4-0.3,0.7-0.3,1.1,0c0,32.1,0,64.1-0.1,96.2
		c0,2.9,0.3,4.8,3.6,5.2c5.5,0.7,11,1.3,16.5-0.4c1.2-7.5,0.2-15.1,0.5-22.7c0.2-3.4-0.6-6.9,0.5-10.3
		C389.3,260.5,390.8,259.4,391,262z"/>
	<path fill="#F9F8F6" d="M367,193c-0.4,0-0.7,0-1.1,0c2.3-2.3,5.2-1,7.8-1.1c4.7-0.2,9.5,0.1,14.2,0.1c1,2.2,0.5,4.6,0.5,6.9
		c0.1,14.7,0,29.5,0,44.2c0,1.6,0.4,3.3-0.5,4.9c-2-0.9-0.9-2.7-0.9-4c-0.1-14.9-0.2-29.9,0.1-44.8c0.1-4.8-2.1-6.1-6.2-6.1
		C376.3,193,371.7,193,367,193z"/>
	<path fill="#FEF7FE" d="M388,248c0-18.7,0-37.3,0-56c1.8,1.2,1,3,1,4.6c0.1,17.1,0,34.3,0,51.4C388.7,248,388.3,248,388,248z"/>
	<path fill="#891779" d="M59,227c-3-0.7-1.9-2.6-1.5-4.8C59.7,223.6,58.7,225.5,59,227L59,227z"/>
	<path fill="#891779" d="M57,216c1.6,0.2,2.2,1.1,1.8,2.6c-0.1,0.3-0.8,0.8-0.9,0.7C56.4,218.6,57.2,217.1,57,216L57,216z"/>
	<path fill="#FAFAFA" d="M157.1,290.7c0-24.8,0-49.6,0-74.3c0.2,0,0.3,0,0.5,0c0,24.8,0,49.7,0,74.5
		C157.5,290.8,157.3,290.7,157.1,290.7z"/>
	<path fill="#8D1576" d="M86,221c0.5-5.4,3.3-8.9,8.5-10.2c5.3-1.3,10.3-0.6,14,3.9c3.5,4.3,3.3,9.1,0.9,14c-0.5,1-1,2.1-1.5,3.1
		c-2.2,3.8-5.5,6.5-8.8,9.3c-4.1,3.5-8.9,6.2-12.7,10.1c-0.8,0.8-1.6,1.8-3,1.2c-1.2-0.5-1.7-1.6-1.6-2.8c1.2-8.3,3.5-16.4,5.9-24.4
		c0.5-1.5,0.5-1.2-0.7-0.8C85.8,223.4,86.9,221.9,86,221z"/>
	<path fill="#8C1677" d="M87,224c0.3-0.6,0.8-1.1,0.9-1.7c0.3-0.9,0.1-2.3,1.6-1.8c1.3,0.4,1.7,1.6,1,2.8c-5.2,8-4.8,17.6-7.7,26.3
		c-0.3,0.8,0.3,1.8,1.2,1.9c1.4,0.2,1.9-1.1,2.7-1.9c3.7-3.8,7.7-7.3,12.5-9.6c-1.4,3.6-4.3,5.8-7.4,7.8c-4.1,3.4-8.3,6.8-12.4,10.3
		c-4.3,0.3-5.8,4.7-9.2,6.3c-1.6,0.7-2.8,2.1-4.5,2.9c1-1.2-4.2-5.4,2.2-3.9c1.8,0.4,2-2.8,4.2-3.7c3.5-1.4-0.7-2.7-0.8-4.2
		c-0.2-1.4-1.8-3-1.1-4.2c3.8-6.2,1.3-13.1,2.8-19.6c0.3-1.3,0.7-2.5,1.1-3.8c3.5-1.3,7.4,0.4,10.9-1c0-0.3,0.1-0.6,0.1-0.9
		c0.3-1.4,0.6-2.9,0.9-4.3C86.9,222.2,85.9,223.7,87,224z"/>
	<path fill="#F7EEF5" d="M91.7,247.9c2.5-2.6,4.9-5.2,7.4-7.8c3.5-2.1,5.5-5.9,8.7-8.4c0.4,2.2-1.2,3.4-2.6,4.5
		C100.7,239.9,97.8,245.8,91.7,247.9z"/>
	<path fill="#F8EEF5" d="M64.6,271.8c2.5-2.7,5.1-5.3,8.2-7.3C71,268,68.8,271.1,64.6,271.8z"/>
	<path fill="#80166B" d="M87,224c-0.2,0.4-0.1,1.6-0.8,0.6c-0.5-0.6-0.2-1.9-0.3-2.8c-0.2-0.3-0.2-0.6,0.1-0.8
		C87.2,221.7,87,222.9,87,224z"/>
	<path fill="#841773" d="M84.9,227c-3.5,2.2-7.3,0.5-10.9,1c-3.9,0-7.9,0-11.8,0c0-0.3,0-0.7,0-1C69.8,227,77.3,227,84.9,227z"/>
	<path fill="#FAF7F6" d="M388,261c0,9.3,0,18.6,0,27.8c0,1.7,0.7,3.7-1,5.2c0-10.8,0-21.7,0-32.5c0-0.1,0.1-0.4,0.2-0.4
		C387.4,261,387.7,261,388,261z"/>
	<path fill="#891778" d="M79,298c-4.7,1.6-9.3,1.6-14,0C69.7,298,74.3,298,79,298z"/>
</g>
</svg>
