<?xml version="1.0" encoding="utf-8"?>
<!-- Generator: Adobe Illustrator 23.0.0, SVG Export Plug-In . SVG Version: 6.00 Build 0)  -->
<svg version="1.1" id="Слой_1" xmlns="http://www.w3.org/2000/svg" xmlns:xlink="http://www.w3.org/1999/xlink" x="0px" y="0px"
	 viewBox="0 0 543 544" enable-background="new 0 0 543 544" xml:space="preserve">
<g>
	<path fill="#FE98BD" d="M16,268c0-2.3,0-4.7,0-7c1.2-11.2,2.3-22.4,6.7-33c6.4-15.4,14.7-29.6,26.5-41.4
		C94.6,141,140.1,95.4,185.7,50.2c16.2-16.1,36-26.2,58.4-31c7.1-1.5,14.5-1.6,21.8-1.6c4,0,8,0,12,0c32-0.8,58.9,11.7,81.2,33.6
		c45.7,45,90.9,90.4,136,135.9c15.4,15.6,25.6,34.4,30.7,55.8c1.6,6.6,1,13.5,2.1,20.2c0,1.7,0,3.3,0,5c-0.8,4-0.8,8,0,12
		c0,2,0,4,0,6c-1.2,11-2.2,22.1-6.6,32.5c-6.7,15.8-15.1,30.4-27.3,42.6c-44.3,44.3-88.6,88.6-133,132.9
		c-24.5,24.5-54.2,36.8-88.9,36.9c-30.4,0.1-57.1-9.8-80.7-28.7c-2.3-1.9-4.5-4-6.6-6.1c-45-45-90.1-90-135-135.1
		c-15.6-15.7-26-34.5-31.6-55.9c-1.7-6.6-1.1-13.5-2.3-20.2c0-1,0-2,0-3C16.8,277.3,16.8,272.7,16,268z"/>
	<path fill="#FEFEFE" d="M16,285c2.6,8.4,3.1,17.2,5.8,25.6c5.7,17.7,14.4,33.8,27.5,47c45.9,46.2,91.9,92.4,138.2,138.2
		c18.7,18.5,41.8,28.8,67.8,32.2c35.7,4.6,67.6-4.5,95.7-27.1c2.6-2.1,5-4.4,7.4-6.7c44.8-44.7,89.6-89.5,134.3-134.3
		c19.5-19.6,30.3-43.5,34.2-70.7c0.2-1.1-0.1-2.4,1.1-3.2c0,85,0,170,0.1,255c0,3.4-0.7,4.1-4.1,4.1c-168-0.1-336-0.1-504,0
		c-3.4,0-4.1-0.7-4.1-4.1C16,455.7,16,370.3,16,285z"/>
	<path fill="#FEFEFE" d="M265,17.9C233.5,20.2,206.4,32,184,54.4c-43.4,43.5-86.8,86.9-130.3,130.3c-20.4,20.3-32.5,44.7-36.6,73.2
		c-0.2,1.1,0.1,2.4-1.1,3.2c0-80,0-160-0.1-240c0-3.4,0.7-4.1,4.1-4.1C101.7,17,183.3,17,265,17C265.7,17.3,265.7,17.6,265,17.9z"/>
	<path fill="#FEFEFE" d="M528,263c-2.4-8.8-3.1-17.9-5.8-26.6c-5.7-17.7-14.3-33.8-27.4-47c-46.2-46.6-92.4-93.1-139.2-139.1
		c-18.3-18-41.1-27.9-66.6-31.4c-3.3-0.4-6.6-0.7-9.9-1.1c-0.7-0.3-0.7-0.5,0-0.9c81.7,0,163.3,0,245-0.1c3.4,0,4.1,0.7,4.1,4.1
		C528,101.7,528,182.3,528,263z"/>
	<path fill="#FEE8F0" d="M279,17c0,0.3,0,0.6,0,0.9c-4.7,0-9.4,0-14.1,0c0-0.3,0-0.6,0-0.9C269.7,17,274.3,17,279,17z"/>
	<path fill="#FEB5CF" d="M16,268c1.6,4.7,1.6,9.3,0,14C16,277.3,16,272.7,16,268z"/>
	<path fill="#FEB2CE" d="M528,280c-1.6-4-1.6-8,0-12C528,272,528,276,528,280z"/>
	<path fill="#FC72A3" d="M175.1,396c-6.4-6-12.4-12.3-18.7-18.4c-19.3-18.6-38.1-37.7-56.9-56.8c-9.6-9.7-17.1-20.7-19.8-34.5
		c-3.9-19.9,0.7-37.5,13.7-53c10.6-12.7,22.9-23.7,34.5-35.4c31.8-32,63.8-63.9,95.7-95.7c3.5-3.5,7.3-6.9,11.2-9.9
		c4.9-3.8,10.2-6.9,16.3-8.3c3.2,1.7,3.5,3,2.5,7c-1.9,7.7-5.6,15.1-5.1,23.2c0.3,6-3.3,11.3-2.5,17.4c0.4,3.3-1.7,6.6-4.2,9.3
		c-2.2,2.3-3.5,4.8-0.7,7.8c1.2,1.3,1,3.2,0.3,4.7c-1.8,3.9-1.1,8.6-5,12.2c-1.5,1.4-1.3,5.4-4,7.3c-0.2,0.2-0.4,0.7-0.2,0.9
		c3.8,5.5-0.9,11.2,0.4,16.8c0.8,3.4-1.6,6.1-1.8,9.1c-0.2,4.4-4.4,8.4-0.6,13.3c1.2,1.6-0.6,4.8-3.4,5.8c-2.1,0.8-2.3,2.2-2,4.4
		c0.6,4.1-0.4,8.3,1.1,12.4c0.6,1.7-0.3,4.4-1.7,5.5c-2.9,2.5-3.2,5.8-4,9.1c-1,3.7-1.2,7.6-5.1,10.3c-1.8,1.3-0.5,5,0.7,7.4
		c3.7,7.5,3.4,10-2.4,15.9c-2.2,2.2-3.6,3.9-0.9,7c1.8,2.2-0.8,7.1-4.5,9.5c-1.2,0.8-2.8,1.2-3.9,2.2c-1,0.9-1.5,2.1-1.4,3.6
		c0.2,1.8,1.5,1.9,2.9,2.1c1.2,0.1,2.3,0.3,3.3,1c1.5,1.1,2.1,2.6,0.2,3.5c-8.3,4.1-7.5,11.8-7.5,19c0,4.5-1.5,8.4-3.2,12
		c-1.3-0.1-0.5,0.9-0.8,0.3c-0.1-0.2,0-0.2,0.4-0.3c3.1-0.3,4.5,1.8,5.5,4.1c1.1,2.5,0.6,4.9-1.3,6.9c-1.4,1.5-3.2,2.4-5.1,3.1
		c-4.3,1.7-5.7,0.8-6.6-4c1,6.9,1.1,13.9,1.5,20.8c0.4,6.2,0.3,6.3-6,6c2.1,2.8,4.9,4.7,6.3,7.7c1.6,3.2,0.8,4.8-2.6,4
		c-4.7-1-4,1.4-3.6,4.3c0.7,5-0.1,6-4.1,5.9c-1.7-1-3-2.3-4-4C177.7,397.3,176.2,396.8,175.1,396z"/>
	<path fill="#ED5187" d="M270.1,80.1c7.6-0.6,14.8,0.8,21.9,3.1c2.1,6,5,11.6,6.8,17.8c1.9,6.4,2.5,13.1,5.4,19.3
		c3.4,7,6.7,14.1,5.5,22.3c-0.1,0.5-0.2,1.1,0,1.5c3.6,4.3,2.8,9.8,3.9,14.8c1.5,6.3,3.7,12.2,6.7,18c0.6,1.2,0.8,2.5,0.6,3.9
		c-0.2,1.2-0.4,2.6,0.2,3.4c3.7,5.1,2.5,11.7,5.7,17.2c3.3,5.6,3.8,12.2,3.5,18.8c-0.2,3.6,1.1,6.8,2.1,10.1
		c1.8,6.5,4,12.8,4.9,19.6c0.6,4.5,1.4,9.2,2.2,13.8c1,5.6,3.8,10.9,3.3,16.8c-0.1,1.8,1,3,2.1,4.3c3.3,3.8,3.2,10,0,13.4
		c4.2-1,8.5,1.9,8.9,6.5c0.2,2.1,0.7,3.8,1.9,5.4c1.3,1.7,0.4,3.3-0.2,5.2c-1.2,3.6-0.3,4.6,3.6,4.3c0.5,0,0.9,0.1,1.4,0.3
		c2.6,2.3,1.3,4.9,0.3,7.3c-0.9,2-1.2,3.5,1.2,5c2.6,1.6,1.9,3.9,0.7,6.2c-3.6,6.8-3.3,8.3,2.6,13c1.4,1.1,1.3,2.4,1.1,4
		c-0.4,3.2,0.2,6.2,3.5,7.9c1.9,1,5.4,1,4.8,4c-0.5,2.9-3.8,2-6.2,2.6c2.8,1.2,5.4,2.5,5.4,6c-0.1,3.1-0.8,6-3.6,7.9
		c2.3,1.3,6.8,0.4,5.5,5.3c-1.7,1.8-3.3,3.8-5,5.5c-17.5,17.6-35,35.2-52.6,52.6c-13.3,13.2-29,21-48.2,20c-1.5-1.3-2.1-2.9-2.1-4.8
		c0-2-0.1-4-0.1-6c0-121.7,0-243.5,0.1-365.2C267.9,87.2,266.7,83.1,270.1,80.1z"/>
	<path fill="#FD73A5" d="M270.1,80.1c0,129,0,257.9,0,386.9c-14.8,0.1-27.5-5.4-38.5-14.9c-16.3-14.2-30.8-30.3-46.2-45.3
		c-1.2-1.1-2.2-2.5-3.3-3.7c2.6-0.4,3.1-2,2.7-4.4c-1.5-9.5-1.4-9.5,7.3-7.3c-2.8-1.9-2.9-6.2-7-7.4c-1.8-0.6-2.4-3.2-0.8-5.1
		c2.6-3,3.9,0.5,6.2,1.5c-0.5-8.4-0.7-16.6-1.7-24.6c-0.6-4.8,1.3-5.1,4.8-4.6c1.1,1.3-0.3,1.9-0.7,2.6c-0.6,1.1-1.1,2.2-0.3,3.3
		c1.2,1.5,2.3,0.2,3.5-0.3c6.9-3.1,7.9-4.7,5.3-9.1c-1.2-2-2.5-3.2-4.8-1.6c-1.8,1.2-3.4,1.1-4.9-0.7c8.2-2.9,8.8-8.7,7.3-16.2
		c-0.4-2.2,1.4-4.5-1.9-6c-0.9-0.4,0.3-1.6,1.4-1.8c1.3-0.2,2,1.3,3.4,1.9c-2-6.8-0.8-8.7,7-11.6c-0.7-1.2-1.8-1.2-3-1.4
		c-1.8-0.3-4.4,2.9-5.2-0.9c-0.8-3.6-0.7-7.4,3.7-9.2c1.9-0.8,3.8-1.2,5-3.6c1.3-2.7,4.1-4.5-0.9-6.4c-1.7-0.6-1.3-2.8,0.1-4.2
		c1.7-1.6,3.2-3.3,4.9-4.8c3-2.6,4.2-8,1.3-10.4c-3.5-2.9-1.2-7-3.2-10c-0.1-0.1,0-0.4,0.1-0.5c4.9-1.8,5-6.4,6.6-10.3
		c0.7-1.5,1.4-2.3,0-3.7c-2.2-2.2-1.8-3.2,1.5-3.5c3.2-0.3,5.6-7.3,3.3-9.8c-1.9-2.1-2.4-3.8-0.5-6c0.6-0.7,1.1-0.9,0.3-2.3
		c-2.2-4.2-0.9-6.3,3.6-7.4c2.1-0.5,1.5-2.8,2-4.2c0.6-1.7-0.3-2.8-2.2-3c-1.1-0.1-2.6,0.2-3-1.2c-0.4-1.7,1.3-2,2.4-2.7
		c2-1.4,2.2-3.4,3-5.6c1.9-5.4,0.1-10.9,1.8-15.7c1.1-3.1,1.6-5.1,0.2-8c-2.2-4.4-1.3-6.1,3.9-7.9c-1.9-2.6-4.5-5.6,1.5-6.2
		c1.7-0.2,1.6-1.8,1.7-3.2c0.1-1.5-0.1-3.1,0.5-4.4c1.4-3,2.6-5.5-1.1-7.9c-1.4-0.9-1.7-2.7,0.2-4.6c2.8-2.9,5.7-5.9,6.4-10.2
		c0-0.3,0.5-0.7,0.5-0.8c-4.2-5.3,2.6-9.5,1.5-15.1c-0.6-3.3-0.3-8.3,1.4-11.9c2.4-4.9,2-10.5,4.9-15.2c0.9-1.5-0.1-3.9-1.3-5.5
		C257,80.9,263.4,79.7,270.1,80.1z"/>
	<path fill="#EE5289" d="M360,320c-1.4,1.3-3.1,2.7-4.8,1.5c-2.2-1.6-1.6-4.5-0.8-6.4c1-2.4,1.1-3.9-1.1-5.4c-1-0.7-1.4-1.9-0.9-3.1
		c1.5-4.2-2.5-5.3-4.3-7.6c-0.9-1.1-2.1-0.4-2.7,0.9c-0.6,1.1,0,2.6-1.2,3.5c-1.4-0.8-1.3-2.1-0.8-2.7c3.3-3.9,1.8-8.5,2-12.8
		c0.1-1.1-0.3-1.6-1.2-1.8c-2.7-0.7-3-2.8-3.1-5c-0.1-3.3,1.2-6.9-2.4-9.4c-1-0.7-0.3-2.2,0.2-3.3c0.4-0.9,1.1-2.2,0.3-2.8
		c-3.7-3-1.3-6.8-1.7-10.2c0-0.1,0.2-0.2,0.3-0.4c-6.3-2.6-0.2-8.3-2.9-11.8c-3.6-4.9-2.1-11.5-5.9-16.6c-1.3-1.7-0.7-5.1-0.3-7.6
		c0.5-2.8,0.4-4.8-3.7-5.7c4.4-2.1,7.2-3.9,1.1-5.8c-0.4-0.1-0.8-0.6-1.1-0.9c3.8-4-1.9-5.8-2.1-8.9c-0.1-1.8-1-3.5-0.2-5.4
		c0.4-0.9,0.4-2.2-0.5-2.7c-4.4-2.4-3.2-6.2-2.7-9.8c0.1-0.5,0.3-1.4,0.2-1.4c-4.9-1.6-3.2-6.8-5.2-10.1c-2.6-4.4-2.7-10.3-3.9-15.6
		c-0.1-0.6,0.4-1.4,0.3-1.9c-1-4.1-4.4-7-2.7-12.5c1.1-3.6-1.6-8.7-3.3-12.9c-2.1-5.2-6.4-9.5-4.3-16c0.7-2.2-4.5-3.2-3.9-6.7
		c1.3-7.2-6.2-12.3-4.7-19.5c11.1,3.4,19.9,10.4,27.7,18.8c1.7,1.8,3.6,3.5,5.3,5.2c2,4.3,3.3,9.7,6,12.9c4.1,4.8,4.7,10.7,7.4,15.8
		c2.7,5.1,5.1,10.6,7.6,15.9c3.4,7.3,7.1,14.8,9.2,22.8c0.3,1.3,1,2.5,1,3.8c0,2.7,1,4.4,3.8,4.9c1.7,0.3,3.4,1.4,3.3,3.3
		c-0.2,3.8,1.3,6.7,3.8,9.3c0.9,1,1.4,2.5,1.1,3.7c-1.5,5.1,1.1,7.2,5.4,8.7c2.2,0.8,4,2.8,2.4,5.1c-2.3,3.5,1,6,0.9,9
		c0,0.3,0.2,0.7,0.5,0.8c9.2,2.8,9.5,11.1,11.2,18.4c0.5,2.2,1.5,3.6,2.8,5.4c3.3,4.6,7.2,9.1,8,15c0.2,1.9,1,3,2.4,4.1
		c3.1,2.6,3.7,6.5,3.1,10c-0.4,2.5-0.2,3.5,1.6,5.1c3.7,3.3,8.4,6.3,5.9,12.9c-0.8,2.2,1.9,3.1,3.8,3.8c5.1,1.9,5.4,2.4,2.3,6.8
		c-2.4,3.4,0.9,4.5,2.3,5.9c2.4,2.5,3.5,4.5,0,6.6c3.5,0.8,8.6-1.7,10,3.9c0.9,3.4-1.6,5-4.9,5.5c2.1,2.1,6.4,1.7,5.8,6
		c-17.2,17.4-34.3,34.8-51.5,52.1c-1.4,1.4-3,2.6-4.5,3.9c-0.3-2.4-2-2.7-4-2.9c-1.9-0.2-3.3-1.4-4.9-2.5c2.2-0.8,4.1-1.9,4.8-4.1
		c1.6-5,0.2-7.1-5.6-8.3c-1.1-0.2-2.7,0.1-2.7-1.5c-0.1-1.6,1.5-1.4,2.6-1.6c2.6-0.4,5.1-1,7.9-1.3c-1.5-0.6-3-1.2-4.5-1.9
		c-2.1-1.1-7,0-3.9-5c0.1-0.2-0.1-0.8-0.2-0.9c-3.8-1.4-5.4-2.6-0.2-4.7c1.3-0.5-0.4-1.6-1.4-2.2c-5.9-3.1-7.2-9.2-3-14.3
		c1.8-2.2,3.7-4-1.1-4.8c-3.1-0.5-2.8-2.4-1.5-4.8C359.6,325.6,362.3,323.3,360,320c-0.5-0.6-0.8-1.4-1.2-2.1
		C359.2,318.6,359.5,319.4,360,320z"/>
	<path fill="#EE5389" d="M431.9,332.8c-0.7-1.2-1.6-2.4-3-2.5c-4.2-0.5-5.2-3.4-5.7-6.9c1.1-0.9,1.6,0.1,2.1,0.5
		c1,0.8,1.9,2.2,3.3,0.8c1.1-1,1.5-2.2,1-3.6c-0.6-1.8-2-2.3-3.6-1.8c-3.2,1-5.8-0.1-8.9-1.9c2-0.9,4.1-1.1,5-3.4
		c-3.4-0.5-4.4-3.9-7-5.7c-2.4-1.7-0.8-3.4,1.4-4.3c1.3-0.5,2.8-1.2,2.6-2.6c-0.2-1.8-2.1-1.1-3.3-1.3c-5.7-0.9-7.2-3.6-4.7-8.5
		c0.5-1,1.1-1.8,0.1-2.5c-3.2-2.4-3.8-7.7-9.6-7.4c-2.9,0.2-1.6-2.6-0.3-3.3c2.9-1.7,2.3-2.9,1.1-5.7c-0.9-2,0.4-4.8-3-5.6
		c-0.7-0.2-2-1.2-1.9-1.3c2.4-5.4-3.1-8.2-4.3-12.4c-0.6-2.2-1-4.9-4.3-5.5c-1.8-0.3-3-2.1-2.3-3.8c1.1-2.6-1.1-4.6-0.9-6.6
		c0.3-4.9-5-7.1-5.1-11.6c0-1.3-1.3-1.6-2.1-0.6c-3.4,4.1-3.3,0.3-3.6-1.6c-0.4-2.4,0.3-4.8-3-6.1c-1.9-0.7-0.4-2.2,0.8-2.9
		c4.7-2.7,2.9-3.9-1-4.9c-1.1-0.3-2-1.3-3.1-1.5c-3.1-0.4-3.9-2-2.9-4.9c1.2-3.3,1.5-6.2-2.2-8.6c-1.6-1.1-3.5-3.3-2-6.1
		c1.4-2.8,0-3.5-2.6-3.7c-3.7-0.2-5.7-1.7-4.4-5.8c0.1-0.3,0.2-0.7,0-1c-4-6.1-4.6-13.6-8.4-20.1c-2.3-4-4.4-8.5-7-12.5
		c-1.5-2.3-2.4-4.5-0.8-7.3c0.5-1-0.6-1.7-1.5-2.3c-3-2.1-4-5.1-3.7-8.6c0.1-1.2,0.4-2.3-0.9-3.1c-1.2-0.8-4.2-0.2-3.8-1.5
		c1.5-6-5.5-9.9-3.7-15.8c10.7,9.7,20.8,20.1,30.8,30.6c7.7,8.1,15.6,15.9,23.7,23.5c6.1,5.7,11.6,11.9,17.4,17.8
		c16.5,16.7,33.2,33.2,49.7,49.8c24.3,24.4,25.8,59.2,3.6,85.5C444.6,321.1,438.6,327.2,431.9,332.8z"/>
	<path fill="#FD73A5" d="M175.1,396c1.8,0.2,4.5-0.5,2.9,3C176.7,398.3,175.7,397.3,175.1,396z"/>
	<path fill="#FD73A5" d="M205.7,273c0.7,1.8,3.7,1.4,3.9,3.7c0.1,1.1-1.1,1.8-2.1,1.5c-1.8-0.5-3.1-1.8-3.3-3.8
		C204.1,273.6,204.5,272.9,205.7,273z"/>
	<path fill="#FD73A5" d="M199.8,296.6c-0.8-0.3-1.4-0.8-1.3-1.7c0.1-0.9,0.7-1.4,1.6-1.1c0.7,0.3,1.3,0.9,1.2,1.8
		C201.1,296.4,200.5,296.7,199.8,296.6z"/>
	<path fill="#FD73A5" d="M197,309.5c0.9,0.1,1.4,0.5,1.5,1.2c0.1,0.6-0.4,0.9-0.9,0.8c-0.4-0.1-0.8-0.5-1-0.9
		C196.5,310.3,196.9,309.8,197,309.5z"/>
	<path fill="#FD73A5" d="M179.4,384.6c0.1,0.8-0.3,1.1-0.8,0.9c-0.4-0.1-0.9-0.5-1-0.9c-0.2-0.6,0.2-0.9,0.8-0.7
		C178.8,384,179.1,384.4,179.4,384.6z"/>
	<path fill="#ED5187" d="M364.3,348.8c-1.1-0.4-2.8-0.5-2.6-2.3c0.1-1.1,1.3-1.5,2.3-1.4c1.5,0,2.7,0.7,2.7,2.3
		C366.6,348.7,365.5,348.9,364.3,348.8z"/>
	<path fill="#ED5187" d="M358.3,304c0,1.1-0.2,2.2-1.4,2.3c-1.5,0.1-1.8-1.2-1.9-2.4c0-1.1,0.3-2.2,1.4-2.3
		C358.2,301.4,358,303.1,358.3,304z"/>
	<path fill="#ED5187" d="M360,320c-2.3-1-3.4-2.2-2.9-4.4c0.2-0.7,0.8-1.2,1.4-0.9C360.7,316,359.7,318.2,360,320z"/>
	<path fill="#ED5187" d="M352.1,276c-2.5,0.4-3.4-0.8-5.1-2.7C349.8,273.2,351,273.8,352.1,276z"/>
	<path fill="#ED5187" d="M355.6,293.8c-0.7,0.2-1.2,0.6-1.4,0.4c-0.3-0.2-0.4-0.7-0.4-1.2c0-0.1,0.6-0.5,0.8-0.4
		C354.9,292.9,355.2,293.3,355.6,293.8z"/>
</g>
</svg>
