<?xml version="1.0" encoding="utf-8"?>
<!-- Generator: Adobe Illustrator 23.0.0, SVG Export Plug-In . SVG Version: 6.00 Build 0)  -->
<svg version="1.1" id="Слой_1" xmlns="http://www.w3.org/2000/svg" xmlns:xlink="http://www.w3.org/1999/xlink" x="0px" y="0px"
	 viewBox="0 0 512 512" enable-background="new 0 0 512 512" xml:space="preserve">
<g>
	<path fill="#FEFEFE" d="M256.5,513c-83.8,0-167.6,0-251.4,0.1c-3.4,0-4.1-0.6-4.1-4.1C1,341.1,1,173.1,0.9,5.2
		c0-3.9,1.1-4.2,4.5-4.2C173.1,1,340.9,1,508.7,0.9c3.5,0,4.4,0.6,4.4,4.3c-0.1,167.8-0.1,335.6,0,503.4c0,4-1.1,4.5-4.7,4.5
		C424.4,513,340.4,513,256.5,513z"/>
	<path fill="#FEA460" d="M436,333.1c-0.4,0.5-0.7,1.1-1.2,1.6c-34.7,34.8-69.5,69.5-104.2,104.2c-0.5,0.5-1,0.8-1.6,1.2
		c-0.4-0.2-0.7-0.5-0.9-0.9c-0.4,0.6,0,1.3-0.1,1.9c-0.7,0.7-1.4,1.4-2,2c-3.4-1.2-3.7-4-3.3-6.9c0.9-7.1-1.4-13.8-2.3-20.6
		c-0.4-2.9,0.6-6-1.4-8.7c-0.2-0.3,0-0.6,0-1c1.5-5.3,1.3-6.1-2.2-10.1c-3.5-4-3.7-5.8-0.1-9.9c2-2.2,0.8-3-0.7-4.3
		c-5-4.2-5.1-4.5-0.7-9.2c1.6-1.7,1.4-4,3.1-6.3c-2.4,0-4.6,2.9-6.3-0.1c-1.7-2.8-0.2-4.6,1.6-6.6c1.3-1.5,1.9-3.5,2.4-5.5
		c-1.6,0.3-1.4,3-3.4,2.5c-1.9-0.5-2.4-2.1-2.8-3.8c-0.5-2.3-1.5-4.4-2.3-6.6c-0.4-1.2-1-2.3-2.5-1.4c-1.6,0.9-2.5,0.3-3.1-1.2
		c-0.7-1.7-0.9-3.5,0.8-4.5c2.5-1.6,3.8-4,5.7-6.2c-1-1.1-2.5-1.1-3.7-1.6c-4.3-2.1-5-3.4-3.1-7.7c1.4-3.1,1.5-6.1-0.2-9.1
		c-1.1-2-2.7-4,0.5-5.8c1.6-0.9,0.4-2.4-0.1-3.6c-0.8-1.8-1.8-3.5-1.6-5.7c0.7-6.9-1.8-10-8.5-10.8c-1.7-0.2-3.1-0.7-3.2-2.5
		c-0.1-2.2,1.3-3.3,3.4-3.7c1.3-0.2,2.5,1,3.8,0.2c0.2-0.4,0.3-0.9,0-1c-5.2-2.8-5.1-7.2-3.7-12.1c0.3-1.2-0.4-2.6-1-3.8
		c-1.1-2.2-0.8-4.2,0.9-5.9c1.8-1.9,2.4-3.9,0.3-6.1c-2-2.2-1.9-5.3-2.8-7.9c-0.6-1.9,0.5-3.3,2.3-4.5c2.8-1.8,2.7-4.1-0.3-5.4
		c-3.1-1.3-3.6-3.2-2.8-5.9c0.7-2.4,0.3-4.6-0.6-6.8c-3.5-9-5.9-18.5-6.5-27.9c-0.4-7.4-2.5-14.1-3.7-21.2c-0.8-4.7,1.1-9.8-2-14
		c-4.6-6.5-0.9-14.6-4.1-21.3c-2.4-4.9-3.3-9.9-2.2-15.2c0.2-1.2-1.1-2.4-2-3.3c-1.4-1.5-1.9-3.1-1-5c2.8-6,0.9-11.6-1-17.3
		c-0.4-1.1-1.5-2.1-1.3-3.2c1.4-7.8-2.8-14.8-3.6-22.3c-0.9-8.5-1.5-17.6-5.9-25.5c-0.3-4.3-0.6-8.6,0.2-12.9c2.2-2.9,3.7-0.4,4.5,1
		c2.6,4.6,6.4,8.6,8.5,13.5c3.8,8.5,10,15.7,13.4,24.4c1.3,3.4,4.1,6.4,6.9,8.4c6.8,5.1,8.4,12.5,10.3,19.8c0.9,3.4,2,6.3,4.9,8.3
		c2.8,2,3.5,5.1,4.1,8.3c0.3,1.8,0.4,3.9,2.8,4.2c4,0.4,5.4,3.4,6.9,6.5c2.2,4.4,3.7,9.2,8.1,12.2c2,1.3,2,4.2,2.7,6.3
		c1.7,5.4,3.4,10.7,7.8,14.7c1,0.9,1.4,2.3,1.9,3.5c1.1,2.7,1.7,6,6,4.6c1-0.3,2.1,0.5,2.4,1.5c1.3,5.7,7.4,9.4,6.3,16.4
		c-0.5,2.8,2.9,4.7,5.7,5.3c3.1,0.7,3.8,2.1,2.6,5c-1.5,3.5-0.1,6.3,3,7.9c2.1,1,2.4,3.1,3.6,4.4c5.8,6.1,4.4,15.1,9,21.5
		c1.2,1.7,2.1,2.5,4.3,2.3c4.7-0.3,6.6,3.9,8.9,6.9c1.9,2.4,0.3,4.6-1.8,6.4c-2.1,1.7-0.3,3.4,0.7,4.8c1.1,1.6,0.9,4.9,4.2,3.8
		c3.1-1,4.1,0.4,3.7,3.2c-0.2,1.8,0.3,2.8,1.7,3.8c1.4,1,1.6,2.8,2.2,4.3c1.3,3.2,2.8,6.1,6.1,8.1c3.2,1.9,5.6,5.1,6.9,8.8
		c1,2.8-1.5,3.9-3.7,5.5c2.5-0.3,3.9-1.6,5.5-2.3c1.1-0.5,2.2-1.2,3.3-0.4c1.2,0.8,1,2.1,0.6,3.2c-1.3,3.3-1.2,5.9,2,8.3
		c2.5,1.9-1.4,3.6-1,5.9c2.3-0.3,4.4-2.8,6.9-0.7c1.2,1,2.5,1.9,2.2,3.6c-0.3,1.6-1.8,1.7-3.1,2c-1.3,0.3-3.5-0.5-3.7,1.5
		c-0.2,1.6,1.8,2.4,3,3c3,1.5,4.7,3.3,4.4,6.9c-0.2,2.3,1.5,3.1,3.7,2.9c2-0.2,4.9-1.5,5.5,1.4c0.6,2.8-2.6,2.9-4.5,3.7
		c-0.5,0.2-0.9,0.4-1.6,1C434,330.8,436.9,330.7,436,333.1z"/>
	<path fill="#FEB984" d="M185.9,442c-1.8-1.7-3.7-3.3-5.4-5.1c-26.3-26.3-52.6-52.6-78.9-78.9c-1.3-1.3-2.5-2.7-3.7-4
		c0.2-2.3,1.8-3,3.8-3.1c1.7,0,3.3-0.3,4.6-1.5c1.4-1.2,3.4-2.3,0.3-3.9c-1.1-0.6-1.5-1.7-1.7-2.9c-0.2-2-0.2-4.1,1.6-5.4
		c0.8-0.6,1.8-1,2.8-0.6c2.4,1.1-0.2,3.4,1,4.9c1.6-0.5,1.2-1.8,1.1-2.8c-0.4-3.2-1.5-6.7,3.9-6.4c0.7-3.4,6.1-3.9,4.9-8.7
		c-1.2-4.7,0.1-5.8,5.7-7.2c-3.3-4.5-2.6-8.6,0.7-12.7c1.8-2.2,2.8-4.9,4.3-7.3c1.1-1.8,1.5-3.6,0.6-5.7c-1-2.3-2.1-5,1-6.5
		c3-1.4,2.5,2.7,5.6,4.1c-2.5-6.1-0.8-10.1,3.9-13c0.7-0.4,1.3-1.5,0.5-2.1c-3.9-2.8-1.1-6.1-0.8-9.1c0.5-4.9,0.8-5.1,5.3-2.9
		c2.1,1,2.4-0.2,2.6-1.5c0.4-3.3,1.6-6.1,4.6-7.8c0.6-0.3,1.1-1,1.2-1.6c1-9.3,9.6-16,8.7-26.4c-0.4-4.5,1.9-10.1,7.7-12.2
		c1.3-0.5,2.6-1.2,1.9-3.4c-1.9-5.5-1-6.5,5.5-5.5c-1.6-4.9-1.5-9.6,1.4-13.8c0.2-0.3,0.2-0.7,0.4-0.9c4.5-3.6,5.4-8.2,4.3-13.6
		c-1.4-6.8,3.6-10.1,8-13.5c1.2-0.9,2.8-1.6,2.9-3.2c0.7-8,6.1-13.8,9.5-20.5c0.4-0.9,1.4-1.7,1.2-2.7c-0.7-4.4,1.7-7.6,4.1-10.8
		c3.8-5,4.3-11.4,6.7-17c1.3-3.1,3.5-5.7,5.2-8.4c5.2-7.8,7.1-16.8,10.6-25.2c1.6-3.8,3.4-7.6,5.2-11.3c4.7-9.4,8.5-19.1,13.4-28.4
		c0.5-1,0.9-2.2,2.1-2.6c0.6,0,1,0.3,1.2,0.9c0,3.2-0.1,6.4-0.1,9.6c-2.8,12.1-4.5,24.5-6,36.9c-0.6,5.2-2.2,10-3.2,15.1
		c-0.5,2.5-1.2,4.9-0.9,7.4c0.9,10.6-1.1,20.8-4.2,30.8c-0.2,0.6-0.2-0.1-0.1,0.5c1.4,8.3-2.7,16.3-1.5,24.7
		c0.2,1.3,0.6,2.8-0.1,3.9c-3,5-4,10.4-4.5,16c-0.1,1.3-0.9,2.6-0.6,3.9c1,4.8-0.5,8.8-3.6,12.4c-1.4,1.6-1.5,3.6-0.8,5.7
		c2.2,6.8,0.7,13.4-1.4,19.9c-0.7,2.1-1.5,4.1-1.2,6.3c0.7,7.1-1.2,14.2-0.2,21.3c0.1,0.8,0.1,1.8-0.4,2.4c-3.8,4.6-3,10.8-5.7,15.7
		c-0.7,1.2-1,2.5-0.4,3.8c0.2,0.5,0.6,1.1,0.5,1.4c-2.7,5.6,0.5,10.8,0.9,16.2c0.3,4.4-1.7,7.7-7.4,7.8c2.7,3.5,4.2,6.7,4.5,10.5
		c0.1,0.8,0.8,2.1,0.3,2.4c-4.8,3.2-3.6,10.5-9,13.3c4.2,1.4,2.4,5.7,3.3,8.7c0.3,1-1.5,1.6-2.7,1.5c-3.2,0-3.5,1.3-2.6,4.2
		c1.9,5.9,2.3,11.9-1.6,17.3c-0.3,0.4-0.9,1-0.7,1.3c2.7,4-1,8.4,0.8,12.5c0.4,0.9,0.3,2.1,1.2,2.6c4.7,2.4,3.4,4.8,0.1,7.3
		c-0.9,0.7-1.1,2.1-1.7,3c-1.5,2.1-2,2-5-0.5c0.2,4,1.8,7.4,1.4,11c-0.1,0.9,0.5,1.5,1.6,1.4c4.2-0.3,3.3,2.7,2.6,4.7
		c-1.5,4.3-1.7,8.3,0,12.6c1,2.7-0.9,4.9-3.7,4.4c-2.8-0.5-2.4,0.8-2.7,2.5c-0.7,5.2-1.6,5.7-7,4.1c-3-0.9-6.4,1.9-6.1,5.3
		c0.3,3.4,0.9,6.8,3.3,9.7C194.1,436.8,191.2,441.6,185.9,442z"/>
	<path fill="#FEA663" d="M436,333.1c-1-2.8-3.4-1.8-5.5-1.3c0.9-3.2,2.4-4.9,5.4-4.8c1.2,0,2.7-0.4,2.5-1.8c-0.3-1.9-2-1-3.2-0.8
		c-6,1.1-7.4,0.4-6.5-5.4c0.7-4.8-4.7-2.2-5.2-5.4c-0.2-1.2-3.8-1-3.2-3.6c0.6-2.7,3.1-1.9,5-2.1c1.1-0.1,2.5,0.5,3.2-0.8
		c0.6-1.1-0.5-1.9-1.3-2.4c-1.2-0.9-2.3-1.9-4-0.5c-1.3,1.1-2.5,4.2-4.6,1.4c-1.9-2.6,1-3.7,2.4-5.1c0.2-0.2,0.3-0.6,0.6-1.3
		c-8-1.9-4-7-2.3-12.7c-3.4,2-5.7,3.2-8,4.7c-1.7,1.1-3.1,0.4-3.8-1c-0.6-1.3,0.8-1.9,2-2.2c5-1.2,3.6-4.8,1.4-6.5
		c-3-2.3-3.9-8.9-10-5c-0.2-2.8,2.3-2,2.5-4c-3.1-0.5-5.5-1.8-4.1-5.8c0.2-0.7-0.5-2.4-1.1-2.6c-3.9-0.9-3.9-2.8-2.5-6.1
		c0.8-1.8-1.2-2-2.4-0.8c-2.4,2.4-3.5,0.7-4.2-1.4c-0.6-1.7-1.4-3.3-2.5-4.8c-1.5-2-1.8-4,1.2-5.1c2.7-1,2.7-3.5,1.1-4.7
		c-3-2.1-3.9-8.1-9.7-5.4c-1.2,0.6-2.3-0.5-3.1-1.9c-2.2-3.9-2.8-8.5-5.6-12.2c-0.7-0.9-0.6-1.9,0.1-2.8c1.6-2.2,1.8-3.7-1.6-3.7
		c-0.4,0-1.3-0.3-1.3-0.4c0-6.6-7.2-8.4-9.1-13.8c-0.7-2,0.7-2.7,1.4-3.8c1-1.4,1.6-2.8-0.9-3.2c-5.8-0.9-7.8-3.4-7.6-9.6
		c0.1-2.5-1.4-4.4-2.8-6.2c-0.7-0.9-2.1-1.7-2.2-2.6c-0.5-4.3-1.9-6.4-6.5-4c-1,0.5-1.9-0.3-2-1.5c-0.4-4.2-2.7-7-5.5-10.2
		c-2.3-2.7-4.2-6.8-5.1-11c-0.5-2.6-0.5-6.5-4.5-8.5c-3.2-1.6-4.2-6.3-6-9.7c-1.8-3.4-1.7-8.6-8-7.2c-1.5,0.4-1.8-1.5-2-2.9
		c-0.5-5.1-1.7-9.7-6.9-12.4c-1-0.5-1.8-2.2-1.9-3.4c-0.4-6.3-3.7-11.7-5.3-17.5c-0.3-1-0.9-1.7-1.8-2.3c-5.7-4.2-9.1-9.9-12.8-16
		c-5.3-8.9-9.5-18.6-15.9-26.8c-2.3-3-2.7-7.3-6.5-9.2c-0.9-1.4-0.4-2.3,1.2-2.2c1.7,0.1,3,1.3,4.3,2.3
		c10.5,7.3,20.7,14.8,30.9,22.5c1.7,1.3,3.7,2.3,5.8,2.9c3.1,1,5,3.4,7.4,5.3c4.1,3.3,7.2,8.8,13.8,8.4c2.4-0.1,3.8,1.8,5.4,3.3
		c2.6,2.5,4.9,5.4,7.4,8c2.7,2.9,5.4,3.8,9,3.4c1.3,1.2,2.7,2.4,4,3.7c41.1,41.1,82.2,82.1,123.2,123.2
		c25.2,25.2,25.2,62.1-0.1,87.3C457.6,311.8,446.8,322.4,436,333.1z"/>
	<path fill="#FEA35E" d="M256,48c3,4.7,2.9,10.3,4.5,15.2c2.3,7.3-0.1,15.6,5,22.1c0.3,0.4,0.5,1,0.4,1.4
		c-2.1,8.3,4.9,15.5,3.5,23.1c-1.1,5.7-0.8,10,1.9,14.8c0.7,1.2-0.2,3.6-0.9,5.2c-1,2.2-1.4,3.6,1.7,4c0.6,0.1,1.6,1.4,1.4,1.8
		c-2.1,5.9,4.5,11.7,0.3,17.6c3.1,2.5,3,6.6,4.7,9.7c0.5,0.9,1.5,2,1.2,2.6c-2.8,6.1,0.3,11.9,1.6,17.4c2.3,10.1,1.9,20.5,4.7,30.4
		c0.3,1,0.7,1.9,1,2.8c1.6,5.2,5,10.1,2.5,16c-0.7,1.6,0.2,2.3,1.9,2.7c2.4,0.5,5,5.1,4.2,7.2c-0.4,1-1.2,0.9-2,0.8
		c-4-0.6-3.7,1.5-2.4,4.1c1.3,2.6,0.3,6.2,4,8c0.9,0.4,0.2,4.3-2.1,5.8c-1.5,1-2.2,2.1-1.3,4.2c2.8,6.6,2.7,6.7-0.8,12.8
		c3.1-1.4,4,0.7,5.4,2.3c1.2,1.3,2.4,2.8,1.1,4.4c-1.1,1.5-2.7,0.8-4-0.2c-1.4-1.1-2.4-0.6-3.4,0.5c-0.6,0.6-1.1,1.3-0.6,2.2
		c1,1.7,2.3,1,3.4,0.3c1.5-0.9,2.5-0.2,3.4,0.9c2.9,3.4,8.8,5.5,4.9,12c-1.1,1.9,1.3,3.6,2,5.4c1.6,4.3,1.9,4.2-2.9,5.2
		c3.7,4.9,5.2,9.9,1.2,15.4c-1.3,1.7,0.4,2.6,1.7,3.4c1.9,1,3.8,1.9,6.1,1.9c1,0,2.2,1.6,1.6,1.7c-3.7,0.7-3.3,5.4-6.2,6.1
		c-3.9,1-2.4,3.1-1.6,5.3c3.8-3.2,4-3.3,5.5,1.6c0.8,2.5,2.5,4.7,2.3,7.6c-0.1,1,0.5,2.1,1.6,2.2c1.4,0,1.1-1.3,1.3-2.2
		c0.2-1.2,0-3.1,2.1-2.4c1.4,0.5,2.6,2.2,1.5,3.6c-1.8,2.1-1,5.6-4.2,7c-2,0.9-1.4,2.8-0.3,4.3c1.4,1.8,2.2,0.1,3-0.8
		c1.2-1.4,2.9-1.5,4-0.6c1.6,1.4-0.5,2.2-1.2,3.1c-1.6,2.5-0.8,6.2-4.8,7.6c-1.4,0.5-1.6,3.1,0.8,4.3c1.2,0.6,2.4,1.3,3.2,2.3
		c1.3,1.5,5.2,3.1-0.3,4.7c-3.2,0.9-3.3,5.8-0.6,8.1c0.5,0.4,1.5,0.6,1.6,1.1c1.1,4.5,3.5,4.2,6.9,1.7c-2.6,2.8-0.9,8-7.2,8.5
		c3.4,2.1,2.6,4.5,3,6.7c0.9,4.5,0.4,9.3,1.7,13.6c1,3.1,1.4,6.1,0.6,9.2c-0.7,3.1,0.2,5.5,2.1,7.7c-12.9,12.6-24,27.3-39.6,36.9
		c-9.2,5.7-19.5,8.4-30.4,7.8c-2.2-2.6-1.4-5.7-1.4-8.6c0-78.8,0-157.5,0-236.3c0-62.3,0-124.5,0-186.8
		C254.6,53.4,253.8,50.4,256,48z"/>
	<path fill="#FEBA86" d="M185.9,442c2.7-0.6,4-3.1,5.2-5c1.8-2.8-1.8-3.7-3-5.4c-3.8-5.5-1.9-12.9,4.1-15.4c1-0.4,1.8-0.9,2.5,0.3
		c0.7,1.1,1.2,2.9,2.9,2c1.7-0.9,2.6-2.7,2.2-4.7c-0.4-1.7,0.3-3.2,0.5-4.9c1.5-0.5,1.9,1.2,2.9,1.5c2.4,0.6,4.3-1.6,3.4-2.7
		c-4.6-5.8-0.8-11.3,0.2-16.9c-5,1.7-5.6,1.3-5-3.4c0.4-2.8-0.8-5.2-1.5-7.7c-0.6-2.2-0.2-4.6,2.1-4.8c2.3-0.2,1.3,2.4,1.2,4.8
		c3-3,2.8-7.2,6.7-8.4c1-0.3-0.9-1.9-2.2-2.1c-2.3-0.3-3.3-1.3-2.4-3.7c1.2-3-3.5-6.5,0.9-9.2c0.1,0,0.1-0.4,0-0.5
		c-6-3.5,0.9-5,0.9-7.3c0.2-4.7,3.3-9.8-0.7-14.3c-1.5-1.7-0.7-3.5,0.3-5.1c0.9-1.3,2.2-2,3.8-0.7c0.7,0.6,1.5,0.7,2.3-0.3
		c0.2-1.5-3.1-1.3-2-3.1c2.8-4.4-0.9-4.4-3.7-5.4c2-1.2,5.5-2.5,5.4-3.3c-0.8-4.9,1.4-7.7,5.6-9.4c-1.7-3-0.1-7-2.9-9.8
		c-1.4-1.3-3.3-3.1-2.6-4.9c0.8-2.1,2.9-0.2,4.4-0.2c1.4,0,2.1-0.8,2.5-2c1.1-3,1.9-6.1-0.1-9.1c-2-3.1-3.3-6,0-9.1
		c0.3-0.3,0.7-1.1,0.6-1.3c-5.5-5.6,4.5-10.2,1-15.7c-0.3-0.4,1.5-2,2.2-3.1c2-2.8,3.4-5.5,1.4-9.2c-1.5-2.8,1.5-5.3,1.2-8.5
		c-0.4-6.1-0.5-12.1,1.8-18.5c1.8-4.9,3.8-11.4,0.2-17.3c-1.2-1.9-0.7-4.5,1.3-6.4c2.9-2.8,3.5-6,3.7-10.1
		c0.3-6.1-0.5-12.7,3.5-18.2c2.2-2.9,1.7-5.9,1-9.2c-1-5.1,2.8-9.8,2-14.6c-1-6.4,1.8-11.7,2.6-17.5c0.8-5.6,2.7-11.1,1.8-17
		c-1.1-7.3,1.4-14.2,3.1-21.3c1.5-6.2,1.8-12.7,2.7-19.1c1-6.9,2-13.7,3.1-20.6c0.2-1.1,0.9-1.7,1.9-2.2c1,1.7,0.5,3.6,0.5,5.4
		c0,145,0,290,0,435.1c0,1.8,0.4,3.7-0.4,5.4c-14.7,0-27.6-5.3-38.4-15c-8-7.1-15.2-15.2-22.7-22.9c0.4-3.7-1.5-5.1-5-5
		C187.7,444.4,186.6,443.3,185.9,442z"/>
	<path fill="#FEB882" d="M254,31c0.1,3.2-1.9,5.6-3.2,8.2c-5,9.6-9.2,19.6-14,29.3c-3.1,6.3-5.9,13.3-7.7,20.3
		c-1.5,5.9-5,10.5-8.5,15.1c-1,1.3-1.6,2.5-1.5,4c0.1,1.9,0.2,3.7-2.3,4.3c-0.5,0.1-1.2,0.8-1.3,1.4c-1,6.5-2.2,9.6-6,14.4
		c-1,1.3-1.7,2.4-0.9,4c0.7,1.4,0.5,2.8-0.3,4.2c-4.1,7.2-10.3,13.3-10.3,22.4c0,1.5-1.4,2.3-2.7,2.7c-2.2,0.6-3.2,2-3.9,4
		c-0.4,1-0.8,3.7-2.7,0.7c-0.5-0.8-1.5,0.6-1.4,1.3c0.3,4.1-1.6,8.2,0.2,12.2c0.9,2,0.5,3.7-1.2,4.8c-3.2,2.1-4,5.9-6.2,8.6
		c-2.7,3.5,2,6.5,0.2,9.8c-0.4,0.7,0.8,2-0.4,2.7c-1.3,0.7-1.5-0.6-2-1.4c-1.2-1.6-2.7-1.3-3.8-0.1c-1.5,1.5-0.6,2.3,1,3.3
		c3.1,1.9,1,3.8-0.9,4.7c-7.7,3.5-9.1,9.7-9.1,17.5c0,3.9-0.8,8.9-5,11.7c-0.9,0.6-1.8,1.2-1.8,2.3c0.1,5.1-1.3,8.9-5.9,12.1
		c-1.9,1.3-1.1,6-2.8,8.9c-0.3,0-0.7,0.2-0.9,0c-1.6-1.2-2.4-4.4-4.8-3.6c-1.8,0.6-0.5,3.3-0.8,5c-0.6,2.6-3.7,5.9,2.1,6.7
		c1.2,0.2,0.2,1.7-0.5,2.3c-1.2,1.1-2.6,2-3.9,3.1c-2.5,2-3.8,4.3-1.9,7.3c0.8,1.3,1.2,2.3-0.1,3.5c-0.9,0.9-1.9,1.5-3.1,1.2
		c-2.4-0.5-0.7-2-0.8-3.1c0-1-0.2-2.2-1.5-2c-1.2,0.2-2.4,1.4-1.6,2.5c4.6,6.3-0.6,10.7-2.9,15.6c-0.6,1.3-1.9,2.3-2.6,3.6
		c-1.7,2.9-2.5,5.9,0.6,8.4c0.8,0.7,2.5,0.6,1.5,2.3c-0.6,1-1.5,1.6-2.9,1.2c-1.3-0.3-3.6-1-3.8,0.8c-0.2,1.8-1.6,4,0.3,5.6
		c3.7,3.3,0.4,3.5-1.8,4.1c-0.7,0.2-1.9-0.5-1.9,0.8c0.2,3.8-0.7,5.5-4.9,3.7c-1.1-0.4-1.2,1.6-1,2.8c0.2,1.5,0.6,2.9,0.8,4.4
		c0.1,1.4-0.2,2.7-1.7,3.3c-1.3,0.5-2.2-0.2-3.1-1.1c-1.5-1.6,0.3-2.3,0.9-3.3c0.2-0.4,0.4-0.9,0.8-1.8c-2.3-0.3-3.8,0.4-3.8,2.6
		c0,1.7-1.2,4.3,2,4.8c4.4,0.6,3.3,2.2,0.8,4.1c-2.3,1.8-4.2,4.2-7.7,3c-1.5-0.5-2.1,1.4-3.2,2c-17.7-17.7-35.3-35.3-53-53
		c0-2.4,0.8-3.9,3.5-3.7c1,0.1,2.7-0.1,2.4-1c-2-4.8,2.2-7.8,3.8-11c3.2-6.3,5.4-13.5,12.1-17.6c2.4-1.5,3-4.7,4.2-7.2
		c2.4-5.2,2.3-5.2,7-2.1c0.4,0.3,0.9,0.5,1.9,0c-2.5-4.4,0.4-5.9,4.1-7c5.7-1.7,7.2-6.8,8.7-11.7c0.7-2.2,1.5-4.4,2.7-6.4
		c0.3-0.4,0.6-0.7,1-1c1.7-0.7,2.7-1.8,2.2-3.9c-0.4-1.8-0.8-3.8,1.2-4.9c2.2-1.2,3.7,0.2,5.2,2c0.7-1.4,0.7-3.2,2-3.8
		c3.3-1.4,4-3.7,3.6-7.1c-0.2-1.9,1.4-3.5,3.3-3.9c6-1.2,7.5-7.2,7.6-10.8c0.3-7.9,6.6-10.3,10.3-14.9c0.7-0.8,1.9-1.5,2.9-1.8
		c4.7-1.6,7-4.8,8.4-9.4c0.8-2.6,2.9-5.3,4.8-7.2c3.9-4,5.8-8.9,8.1-13.6c1.8-3.6,3.9-6.6,7.7-8.1c1.6-0.6,3.3-1.5,3.9-3
		c1.9-5.1,6.7-8.4,8.5-13.4c1.5-4.2,6.7-4.8,8.1-9.1c0.5-1.6,2.2-2.9,2.3-4.8c0-1.1,0.6-1.9,1.8-2.1c5.7-1.3,8.7-5.6,10.5-10.5
		c3.7-9.9,11.6-16.3,18.7-23.5c0.6-0.6,1.6-0.9,1.8-1.6c2.2-8.1,9.7-12.7,13.2-19.9c2.9-5.9,8.1-10.1,12.1-15.2
		c1.8-2.2,3.1-4.7,4.6-7.1C250.3,32.9,251.2,30.6,254,31z"/>
	<path fill="#FEB881" d="M250,35c-3,7.2-9.2,11.9-13.6,18.1c-2.6,3.8-5.3,7.5-7.6,11.5c-1.4,2.3-2.4,4.7-5.2,5.7
		c-0.8,0.3-2.1,1.4-2,2c0.6,4.7-3.6,5.9-5.4,8.8c-2.6,4-6.5,6.3-9.4,9.8c-2.7,3.3-4.9,6.7-6.2,10.4c-1.7,4.5-5.1,7.3-7.7,10.8
		c-0.8,1.1-2,1.9-3.4,1.5c-1.4-0.4-2.5-0.4-1.8,1.5c0.7,2-0.7,2.7-1.7,4.1c-5.4,7.5-12.9,13.4-16.4,22.4c-0.8,2-2.7,3.8-5.1,4.5
		c-4.1,1.1-5.6,4.5-7.5,7.9c-2.4,4.4-3.2,9.8-7.9,12.8c-1.1,0.7-2.1,1.7-1.4,3.3c0.7,1.8,0.5,2.3-1.9,2.6c-2.9,0.3-2.3,3.9-3.1,6
		c-0.9,2.3-0.9,4-4.3,4.2c-2.6,0.2-5.5,2.4-7.5,4.4c-2,2.2-4.1,4.3-6.2,6.4c-1.3,1.4-3.6,3.4-1.1,6c0.3,0.3,0.4,1.3,0.3,1.3
		c-4.4,2.3-2.3,9.7-8.2,10.7c-4.1,0.7-5.3,2.9-3.6,6.7c0.5,1.2,0.9,2.1-1.2,2.9c-4.6,1.6-4.7,2.2-4.3,7.3c-2.1,0.4-2.2-1.6-2.9-2.7
		c-0.8-1.3-1.7-2.2-3.2-1.5c-1.7,0.7-1.3,2.2-0.7,3.4c1.5,3.6,1.4,5.9-3.6,5.1c-0.4-0.3-0.5-0.6-0.7-0.8c-0.2-0.1-0.1,0.1,0.2,0.4
		c0.2,0.2,0.6,0.6,0.6,0.6c0.5-0.4,0,0.3-0.1-0.1c-0.7,3.6-1.5,7.1-3.4,10.2c-0.2,0.3-0.5,0.5-0.6,0.8c-2.2,6-3.1,6.8-9.8,9.4
		c-1.3,0.5-3.2,1.2-1.9,3.1c1,1.3,3,2.7,1.2,4c-1.9,1.4-4-0.1-5.7-1.5c-0.6-0.5-0.8-1.4-1.2-2.3c-2.3,1.9-2.7,4.9-3.3,7.1
		c-1.3,5.4-7.9,6-9.2,11c-1.4,5.4-7.7,8.5-7,14.9c0.1,0.6-0.8,2-1.2,2c-3.3,0-2.2,2-1.5,3.5c1.6,3.6,0,5-3.2,3.8
		c-3-1.1-2.7,1.6-4,2.4c-10.3-9.4-16.7-20.9-17.9-35c-1-1.6,0-3.4-0.8-5c0-2.4,0-4.8,0-7.1c0.9-1.6-0.2-3.5,0.8-5
		c0.8-12.3,5.9-22.9,14.3-31.5c30.8-31.2,61.9-62,92.9-93c0.2-0.2,0.5-0.4,0.8-0.6c3,1.4,5.2,1.1,7-2.1c1.5-2.8,4.5-4.4,6.9-6.3
		c4.6-3.7,10.5-5.7,14-10.9c0.7-1.1,2-1.8,3.3-2.1c4.1-0.8,6.6-2.9,7-7.3c0.1-0.6-0.3-0.2,0.2-0.4c4.4-2.4,6.7-7.6,11.1-9.4
		c3.9-1.6,7.3-3.5,9.5-6.8c4-5.9,10-9.1,15.4-13.2c4.3-3.3,9-6.3,13.2-9.7c4.6-3.7,8.7-8.2,13.4-11.8c3.3-2.5,6.5-5.2,9.8-7.7
		C246.9,35.2,248.1,33.6,250,35z"/>
	<path fill="#FEB780" d="M250,35c-6.9,3.7-12.7,8.9-18.4,14.1c-9.9,9.1-21,16.7-31.8,24.6c-3.4,2.5-5.1,6.8-8.5,9.5
		c-1.2,0.9-2,2.7-3.5,2.6c-4.4-0.3-6.5,1.7-6.8,6c-0.1,0.9-0.7,1.8-1.6,1.6c-4.7-1.3-5.2,1.4-5.5,5.1c-0.2,2.4-2.1,4.3-4.7,4.4
		c-2.2,0.1-4.4,0.9-5.3,2.3c-4.4,6.8-12.5,8.6-17.9,14.1c-1.4,1.4-2.8,2.6-3.9,4.4c-2.5,4.3-3.8,4.3-7.2,0.2c3.3-4,7-7.6,10.9-10.9
		c2-0.7,3.6-1.8,4.1-4.1c14.9-15,29.6-30.1,44.7-44.9c8.7-8.6,16.7-18.1,26.6-25.6c9.4-7,20-11,31.9-11.3c1.1,0.6,2.4,1.2,2.5,2.8
		c0,0.5-0.2,0.8-0.6,1.1c-0.3,0-0.7,0-1,0C252.3,32,251,33.3,250,35z"/>
	<path fill="#FEA765" d="M255,31c0-0.3,0-0.7,0-1c3.5-1.8,7.2-2.3,11.1-2c11.4,1,21.4,5.7,29.5,13.4c15.6,14.8,30.4,30.3,45.6,45.6
		c-3.6,2.4-5.8,2-9-1.7c-3.1-3.4-6-7.3-9.6-10.3c-0.6-0.5-1.5-1.7-1.9-1.5c-7,2.9-8.9-5.5-14.1-6.3c-0.6-0.1-1.5-0.6-1.6-1.1
		c-1-5.6-6.5-5.3-9.9-7.7c-6.6-4.7-13.4-8.8-19.6-14.1C270,39.7,263.8,36,257.9,32c-1-0.7-1.9-0.5-1.9,1c0,5,0,10,0,15
		c0,146.6,0,293.2,0,439.8c0,0-0.5,0.1-0.5,0.1s-0.5-0.1-0.5-0.1c0-141,0-281.9,0-422.9c0-7.7,0-15.3,0-23C255,38.3,255,34.7,255,31
		z"/>
	<path fill="#FEAB6C" d="M266.1,28c-3.7,0.8-7.1,2.8-11.1,2c-0.7-1-1.3-1.9-2-2.9C257.4,27.1,261.8,26.2,266.1,28z"/>
	<path fill="#FEB984" d="M189,445.1c2.3-3,3.8-0.7,5.4,0.8c1.7,1.6,1.9,3-0.5,4.1C192,448.7,190.3,447,189,445.1z"/>
	<path fill="#FEB881" d="M150,108.9c1.9,4.6-1.2,4.2-4.1,4.1C147.2,111.6,148.6,110.2,150,108.9z"/>
	<path fill="#FEA35E" d="M328.1,441c-1.3-1.1-1.4-2.6-1.8-4.5c1.9,0.8,2.7,1.9,2.8,3.6C328.7,440.4,328.4,440.7,328.1,441z"/>
	<path fill="#FEB882" d="M26.2,261.1c1.4,1.5,0.6,3.3,0.8,5C25.7,264.6,26.1,262.8,26.2,261.1z"/>
	<path fill="#FEB882" d="M27,248.9c-0.2,1.7,0.6,3.5-0.8,5C26.1,252.2,25.7,250.4,27,248.9z"/>
	<path fill="#FEA460" d="M431.3,320.1c3-1.3,5-2.1,7-2.9C437.3,320.5,435.7,322.3,431.3,320.1z"/>
	<path fill="#FEA460" d="M396,252.2c-0.7,0.2-1.1,0.5-1.4,0.4c-0.4-0.1-0.6-0.6-0.8-1c0.4-0.2,0.8-0.5,1.1-0.4
		C395.2,251.3,395.4,251.7,396,252.2z"/>
	<path fill="#FEA460" d="M434.9,313.4c-0.5,0.4-0.8,0.6-1.1,0.9c-0.2-0.3-0.6-0.7-0.5-1c0.1-0.3,0.5-0.6,0.8-0.9
		C434.3,312.7,434.5,313,434.9,313.4z"/>
	<path fill="#FEA460" d="M315,406.6c-0.1,0.9,0.3,2.7-1.6,2.7c-1.4,0-2.6-1.6-2.1-2.8c0.8-2.2-0.1-3.7-1-5.5
		c-0.6-1.3-0.2-2.7,1.4-3.2c2-0.6,2.1,0.9,2.3,2.2C314.3,402.1,314.6,404.2,315,406.6z"/>
	<path fill="#FEA460" d="M306.9,375.9c0.4-1.6-0.6-2.9-0.8-4.3c-0.1-1.2-0.1-2.7,1.3-2.8c1.5-0.1,1.7,1.4,1.5,2.6
		c-0.3,1.8-1.1,3.5,0.8,4.9c1.3,1,1.2,2.2,0.4,3.5c-0.4,0.6-0.9,1.1-1.6,0.8c-1.4-0.6-1.8-1.9-2-3.2
		C306.5,376.9,306.8,376.4,306.9,375.9z"/>
	<path fill="#FEA460" d="M310.6,395.4c-1.2-0.3-2.1-1-2-2c0.1-1.3,0.6-2.8,2.1-2.9c1.4-0.1,1.2,1.3,1.2,2.2
		C312,393.8,311.8,394.9,310.6,395.4z"/>
	<path fill="#FEA460" d="M302.9,363.6c-0.8,0.5-1.3,1-1.9,1.1c-0.7,0.1-1.4-0.3-1.4-1c-0.1-1,0.6-1.5,1.6-1.3
		C301.7,362.4,302.1,363,302.9,363.6z"/>
	<path fill="#FEA460" d="M302.9,376.1c-0.1,0.9-0.3,1.5-0.9,1.1c-0.5-0.3-0.8-1-0.9-1.6c-0.1-0.5,0.2-1.1,0.8-0.8
		C302.4,375.1,302.7,375.8,302.9,376.1z"/>
	<path fill="#FEA460" d="M292.8,297c-0.4,0.5-0.6,1-0.9,1.2c-0.6,0.2-0.9-0.4-0.8-0.8c0.1-0.4,0.6-0.7,0.9-0.9
		C292.2,296.4,292.5,296.8,292.8,297z"/>
	<path fill="#FEB984" d="M198.7,431.4c-1.4-0.3-1.8-1.2-1.6-2.2c0.5-2,2-3.4,3.9-4c1.1-0.4,2,0.5,1.7,1.6
		C202.2,429,200.4,430.2,198.7,431.4z"/>
	<path fill="#FEB984" d="M190.4,420.4c0.6,1.4,1.1,2.4,1.5,3.4c0.6,1.3,1.6,2.6,0.4,4.1c-0.7,0.9-1.4,0.4-2.1-0.2
		c-1.3-1.2-2.8-2.4-1.4-4.5C189.4,422.4,189.8,421.5,190.4,420.4z"/>
	<path fill="#FEB984" d="M213.3,342.5c-1.6-0.5-3.2-1.2-3.3-3.2c0-0.9,0.1-2,1.1-1.8c1.7,0.4,2.8,1.7,3.4,3.3
		C215,341.7,214.2,342.2,213.3,342.5z"/>
	<path fill="#FEB984" d="M204.7,418.2c1.4,0.3,2.1,0.9,1.9,2.1c-0.1,0.7-0.6,1.2-1.3,1.1c-1-0.2-1.8-1-1.7-2
		C203.7,418.9,204.4,418.5,204.7,418.2z"/>
	<path fill="#FEB984" d="M215.2,319.9c-0.2-0.3-0.5-0.6-0.8-0.9c0.4-0.2,0.7-0.5,1.1-0.5c0.2,0,0.6,0.3,0.7,0.6
		C216.4,319.8,215.9,319.9,215.2,319.9z"/>
	<path fill="#FEB984" d="M200.9,435.3c0,0.7-0.2,1.2-0.8,0.9c-0.3-0.1-0.7-0.6-0.8-1c-0.1-0.5,0.3-0.9,0.8-0.7
		C200.5,434.6,200.7,435,200.9,435.3z"/>
	<path fill="#FEB881" d="M165.4,151.5c-0.4,0.1-1,0.4-1.6,0.4c-0.7,0-1.4-0.3-0.8-1.1c0.3-0.4,1.1-0.6,1.7-0.6
		C165.2,150.2,165.7,150.5,165.4,151.5z"/>
	<path fill="#FEB882" d="M92.5,231.5c0.5-1.1,1.1-2.1,2.2-1.8c1.1,0.2,1.1,1.4,1.3,2.4c0.3,1.6-0.9,0.9-1.5,0.9
		C93.5,232.9,92.8,232.4,92.5,231.5z"/>
	<path fill="#FEB882" d="M67,263.7c-0.8,0.5-1.2,0.8-1.6,0.9c-0.3,0-0.7-0.3-1.1-0.5c0.3-0.3,0.5-0.8,0.8-0.9
		C65.5,263.1,66,263.4,67,263.7z"/>
</g>
</svg>
