<?xml version="1.0" encoding="utf-8"?>
<!-- Generator: Adobe Illustrator 23.0.0, SVG Export Plug-In . SVG Version: 6.00 Build 0)  -->
<svg version="1.1" id="Слой_1" xmlns="http://www.w3.org/2000/svg" xmlns:xlink="http://www.w3.org/1999/xlink" x="0px" y="0px"
	 viewBox="0 0 512 335" enable-background="new 0 0 512 335" xml:space="preserve">
<g>
	<path fill="#FEFEFE" d="M257,336c-84,0-168,0-252,0.1c-3.4,0-4.1-0.7-4.1-4.1C1,223,1,114,0.9,5c0-3.4,0.7-4.1,4.1-4.1
		C173,1,341,1,509,0.9c3.4,0,4.1,0.7,4.1,4.1c-0.1,109-0.1,218,0,327c0,3.4-0.7,4.1-4.1,4.1C425,336,341,336,257,336z"/>
	<path fill="#50BEF2" d="M256.9,246.9c-14.2,14-28.3,28.1-42.5,42.1c-1.4,1.4-2.9,2.7-4.4,4c-2.9-3-3.6-7.1-3.2-10.6
		c0.5-4.3-1.3-7-3.9-9.3c-2.2-1.9-2.6-3.2-0.5-5.2c1.2-1.1,1.6-2.7,1.1-4.1c-2.2-5.4-0.8-9,5.3-10.8c-3.4-0.7-7.6-0.1-4.9-5.4
		c0.4-0.8-0.7-1.4-1.3-2c-3.4-4.1-4.7-8.6-2.7-13.7c0.4-1.2,0.2-2.3,0.2-3.4c-0.2-3.7,2.1-5.7,5.4-7.7c-6.1,2.5-7.1-2.4-9.2-5.5
		c-2.3-3.4-1.5-5.7,2.6-6.5c3.7-0.7,3.3-2,1.2-4c-1.3-1.3-2.2-3-3.6-4.1c-4.4-3.8-3.6-8.8-3.3-13.6c0.1-1.8,0.4-3.4-1.1-4.5
		c-5.7-4.3-5.7-10.7-6-16.8c-0.2-4.5-1.2-8.9-1.7-13.3c-0.3-2.8-0.8-5.6-0.2-8.4c0.1-0.7,0.6-1.5,0.3-1.9c-3.7-4.3-0.9-7.9,0.9-11.7
		c0.6-1.3,0.8-2.9-1.1-3.8c-3.9-1.8-5.4-4.5-3.4-8.4c1.9-3.7,0.7-5.7-1.8-8.1c-2.4-2.3-4-5-0.4-8c2.2-1.9,1.5-3.9-0.8-5.2
		c-2.7-1.5-3-3.5-1.2-5.7c1.3-1.6,1-3.3,0.2-4.7c-3.7-7-2.5-14.9-4-22.2c-2.1-10-1.9-20.5-5.5-30.2c-0.7-3-0.6-6-0.2-8.9
		c0.1-1,0.5-2,1.7-2.3c1.1-0.3,1.9,0.5,2.5,1.3c0.5,0.7,1,1.4,1.3,2.1c3.6,8,9,15.1,12.5,23.3c2.2,5.2,7.1,9.1,9.2,14.7
		c3.2,8.7,9.5,15.7,13.4,24.1c0.3,0.8,0.8,1.5,0.8,2.3c0.5,4.8,2.1,8.6,7.1,10.3c1.6,0.5,2.7,2.2,3,3.9c0.7,4.5,4.8,7.6,4.5,12.5
		c-0.1,1.3,1.1,2.5,2.3,3.1c3.3,1.7,5.1,4.7,6.9,7.7c8.3,14.6,17.3,28.7,23.3,44.5c1.2,3.1,4.1,4.9,6.2,7
		c6.6,6.4,9.6,14.8,13.8,22.4c3,5.5,6.8,10.6,9.1,16.5c0,1.8-1.1,3.1-2.3,4.3c-7.4,7.4-14.8,14.8-22.2,22.2
		C259.3,245.8,258.3,246.6,256.9,246.9z"/>
	<path fill="#53BFF3" d="M284,219c-5.9-9.4-11.2-19.2-16.1-29.2c-2.7-5.5-7.2-9.6-11.6-13.7c-0.9-0.8-1.7-1.6-2-2.7
		c-2.2-8.9-7.6-16.4-11.5-24.5c-3.7-7.6-8.6-14.7-12.8-22.1c-1.4-2.4-2.6-4.4-5.5-5.4c-2.1-0.7-3.8-3.1-3.2-5.1
		c0.7-2.6-1.2-3.8-1.7-5.6c-1.7-5.7-4.4-10-10.2-12.1c-1.5-0.5-1.1-2.6-1.4-4c-0.7-2.8,0.2-6.6-3.8-7.9c-0.9-0.3-1.1-1.2-0.8-2.1
		c1-3-0.9-5.3-2.7-6.8c-2.3-1.9-3.7-4.3-4.7-6.9c-3-7.1-7.2-13.3-11.2-19.8c-3.4-5.5-6.7-11.6-9.6-17.6c-1.7-3.5-3.7-7-5.9-11.1
		c-2,4.3-0.7,8-1.1,11.5c1.5,5,1.6,10.2,1.6,15.3c0,87,0,173.9,0,260.9c0,2.6,0.4,5.4-1.4,7.7c-2.6,0.2-2.3-1.9-2.6-3.4
		c-0.4-2.3-0.2-4.7-0.2-7c0-89.5,0-179,0-268.5c0-3.3,0.3-6.7,0.2-10c-0.1-2.3-0.1-4.7,0.4-7c1.5-3.4,3.9-2.8,6-1
		c4.6,4,10.1,6.9,14.5,11.3c1,1.1,2.2,2.1,3.7,2.5c5.1,1.3,8.6,4.7,11.7,8.7c0.6,0.8,1.3,1.9,2.2,1.9c7.1-0.2,7.9,7.6,13,10
		c0.8,0.4,1.1,1.6,1.6,2.2c0.1-1.6,0.1-3.3,2.7-2.9c10.3,10.2,20.7,20.5,31,30.7c1.4,1.4,3,2.6,4.4,3.9c8,6.3,14.4,14.2,21.9,21.1
		c10.5,11.1,22.1,21.2,32.5,32.5c11.2,14.6,11.9,30,3.2,46c-7.6,11.1-18.1,19.4-27.4,29C286.3,218.8,285.3,219.6,284,219z"/>
	<path fill="#76C8FA" d="M167,28c0,94.6,0,189.2,0.1,283.8c0,2.1-0.8,4.4,1,6.2c2.1-1.5,4.2-1.8,6.2,0.2
		c-12.4,2.6-23.3-1.1-32.2-9.2c-12.5-11.4-24-23.9-35.9-35.9c2.8-1,6.1-1.5,5-6c-0.4-1.7,1.5-2.7,2.8-3.6c-1.3-1.4-2.7-1.1-3.9-1.6
		c-3.6-1.4-4.1-3.5-1.1-6c1.6-1.3,2.1-4.4,2.8-4.3c7.4,1.1,3.8-3.7,3.9-6.7c0.1-2.4,2.8-3.3,3.2-5.3c0.8-0.4-0.5-0.9,0-0.5
		c0.2,0.1,0,0.2-0.3,0.4c-0.9,1-2,1.3-3,0.3c-1.2-1.1-1.8-2.8-0.9-4.1c2.3-3.1,2.2-6.8,2.7-10.3c0.4-3.3,1.5-6.6,4.6-8.6
		c3.9-2.5,4-6.6,2.8-9.7c-2.2-5.8,2-10.4,1.9-15.8c0-1.5,2.4-2,4.5-2.2c-2.6-2.8-3.2-5.7-0.5-8.6c0.4-0.5,1.2-1.1,1.1-1.6
		c-1.9-6.5,3.6-12.5,1.3-19.1c-0.9-2.7,0.7-5.2,1.8-7.9c1.9-4.8,3.2-9.6,7.4-13.1c0.8-0.6,0.5-2.3,0.1-3.4c-2.6-8.7,1.7-17,2-25.6
		c0.1-3.1,2.9-6.9,4.2-10.6c0.9-2.7,1.6-5.3,1.3-8.2c-0.4-5.1,1.7-10.1,2.9-14.9c1.9-7.4,2.7-15,4.8-22.2c2-7.2,2.4-14.8,5.4-21.7
		C163.8,30.5,164,27.8,167,28z"/>
	<path fill="#74C8FA" d="M167,28c-4.9,5.2-4,12.3-6.1,18.5c-1.9,5.7-3.4,11.7-3.5,17.5c-0.1,6.5-6,11.5-3.6,18.2
		c0.4,1-0.3,2-1.1,2.6c-2.1,1.8-2.2,4.4-1.5,6.4c1.1,3.1,0.1,5.5-1.2,8c-0.9,1.6-2,3.1-0.8,5.1c0.8,1.3,0.2,2.6-1,2.9
		c-4,1.1-3.1,4.1-3.1,6.8c-0.1,2.3-0.4,4.6-0.7,6.9c-0.6,4.9-3,9.8-0.5,15c1.1,2.2,0.2,4.8-2.5,6.4c-1.5,0.9-4.1,3.2-3.9,3.4
		c3.4,5.1-3.4,7-3.3,10.7c0.1,4,0,8.1,1.2,12c0.2,0.6-0.6,1.4-1,2.1c-1.1,2.2-4.3,3.9-0.6,6.8c1,0.8-0.3,2.6-1.5,3.7
		c-3.3,3-3.1,4.8,0.6,7.1c0.7,0.4,1.8,0.6,1.5,1.6c-0.3,1.3-1.3,1.1-2.4,0.8c-3.8-0.8-5.2,0.6-4.6,4.6c0.3,1.7-0.4,3.6-1,5.3
		c-0.8,2.2-2.8,4.2,0.6,6.3c1.4,0.8-1.4,9.4-3,10.5c-4.2,2.8-6.4,7.7-4.9,12.7c0.7,2.2-1.1,2.5-1.6,3.7c-0.7,2-3.6,3.6-0.7,6
		c1.6,0.2,1.2-1.2,1.5-2c0.6-1.5,1.6-1.6,2.7-0.8c1,0.7,1.1,1.6,0.3,2.5c-0.6,0.7-1.2,1.9-1.6,2.2c-3.2,2.4-3.4,4.7-1.3,8
		c0.7,1.2-0.6,3.3-2,4.2c-1.7,1-2.6-0.6-3.8-2c0.5,2.5,0.3,4.5-2.6,5.1c-1,0.2-2.6,0.6-2,2.3c0.4,1.1,1.5,1.8,2.7,1.9
		c1.2,0.1,2.4,0,3.5,0.3c1.2,0.3,2.3,1.1,2.5,2.3c0.3,1.9-1.4,1.5-2.4,1.6c-2.2,0.2-2.5,1.9-2,3.3c2.2,5.9-1.1,5.6-5,4.7
		c-0.3-0.1-0.7,0-1,0c-3.8-2.5-6.6-6-9.7-9.2c-13.6-13.6-27.1-27.2-40.6-40.8c-0.9-0.9-1.7-2-2.5-3c0.7-0.9,1.7-1.1,2.7-1.1
		c2.8,0,3.1-1.5,3-3.9c-0.3-6.5-0.1-6.5,5.9-8c2.5-0.6,4-2,4.6-4.6c0.6-2.5,1-5.1,0.7-7.4c-0.8-6,1.9-9.9,6.6-12.9
		c0.4-0.3,1-0.5,1.1-1c0.2-4.5,3.9-4.8,6.9-6.1c1-0.4,2.1-0.9,2.6-2.4c-2.5,1.2-5.2,2-5.8-1.4c-0.5-2.7,0.8-5.6,4.1-5.8
		c2.6-0.1,2.6-1.4,3.3-3.2c1.7-4.3,2.8-8.8,5.4-13c3.5-5.8,8.2-10.5,11.4-16.1c1.6-2.8,4.5-6,3.8-10c-0.4-2.1,0.9-3.5,2.3-4.7
		c5.5-4.8,7.2-11.7,9.8-18c1.9-4.5,4.1-8.8,6.8-12.7c2.8-4.1,5.8-8,7-13c1.6-6.7,6.1-11.7,9.7-17.3c3.2-5,4.6-10.9,8.4-15.7
		c4.7-5.9,6.7-13.3,10.4-19.8c0.6-0.9,1.2-1.5,2.4-1.4c0.2,0.1,0.4,0.3,0.6,0.4C167,23.3,167,25.7,167,28z"/>
	<path fill="#FD72A4" d="M313.1,189c8.6-16,7.8-31.3-3.2-46c1.9-3.6,4.6-6.5,5.8-10.7c1.7-5.4,3-10.7,3-16.3c0-1.2-0.2-2.5,0.6-3.4
		c5.8-6.6,4.1-15.1,5.6-22.7c0.4-1.8,0.4-3.7,1.1-5.3c2.3-5.3,2.7-11.3,4.3-16.6c3.5-11.2,5.7-22.7,9.1-34c1.1-3.8,3.1-4.4,5.6-2.6
		c0.6,2.8,0.3,5.6,0.3,8.5c0,89.4,0,178.7,0,268.1c0,2.4-0.6,5,0.9,7.3c1.2,1.6,3.7,1.2,4.9,2.9c-11.5,2.3-22.1-0.6-30.5-8.2
		c-11.1-10-21.3-21-31.8-31.6c-0.4-1-0.5-1.9,0.2-2.8c4.2-6,8-12.2,9.8-19.4c0.4-1.6,1.3-2.6,2.9-3c1.5-0.3,2.7-1.2,3.7-2.8
		c-3.3-2.1-4.8-4.4-0.8-7.5c3.1-2.5,0.2-4.6-1.1-6.2c-3.4-4.3-3.6-4.4,0.8-7.7c1.7-1.3,2.7-3.1,1.6-5.2c-0.9-1.6-2.6-3.1-0.8-4.8
		c1.7-1.6,3.9-2.6,6.4-1.8c0.7,0.2,1.4,0.8,2.6,0.4c-2-2.9-6.4-1.2-7.5-4.5c-1.6-4.4,3-4.4,4.8-6.1c0.2-1.3-0.8-1.4-1.5-1.7
		c-1.7-0.5-3.3-1.1-3.3-3.2c0-1.8,1.6-2.1,3.1-2.7C312.7,198.1,314.1,193.5,313.1,189z"/>
	<path fill="#EF558A" d="M474,206.1c-15.4,15.9-30.8,31.8-47,46.8c-1.1-0.6-2.2-1.4-2.2-2.5c-0.3-5.9-3.8-11.2-2.9-17.2
		c0.3-1.9-0.1-3.6-1.7-4.9c-1.8-1.6-2.5-3.5-1.4-5.8c0.3-0.8,0.8-2.1-0.1-2.2c-4.5-0.7-2.5-3.8-2.9-6.4c-0.7-4-2.3-8-5.6-10.8
		c-0.9-0.8-2-1.3-1.9-2.7c0.6-7.8-3.8-14.4-5.4-21.6c-1.5-6.9-5.2-12-9.5-17.1c-1.7-2-1.5-4.4-0.7-6.6c1.7-4.9-1.2-8.8-2.7-12.9
		c-1.3-3.7-3.5-6.9-4.8-10.7c-2.3-6.5-4.3-13.4-8.4-19.4c-2.5-3.8-4.6-8.4-5.1-13.4c-0.9-9.3-6.9-16.7-9.7-25.4
		c-2.2-6.9-4.6-13.8-6.8-20.8c-2.9-9.4-7-18.3-11-27.2c-0.4-1.2-0.4-2.4,0.3-3.6c2.2-1.4,3.1,0.5,3.9,1.7
		c6.6,9.7,14.3,18.7,20.5,28.8c1.5,2.4,3.1,4.8,5,6.9c7.1,7.7,11.9,17,18.2,25.2c2.3,3,3,6.9,5.9,9.3c5.1,4.2,9.3,8.8,11.9,15.2
		c1.6,4,6,6.5,9.1,9.7c0.9,1,2.7,2.2,2,3.1c-2.9,4.2,0.7,4,2.8,5.7c2.6,2.1,3.5,5.9,4.1,9.3c0.3,1.9,0.9,2.8,3,3.1
		c4.6,0.6,7.4,3.3,8.4,8c0.8,4,2.3,7.4,5.9,10.4c2.6,2.2,3.5,7,5.7,11.6c-0.9-3.2-0.7-5.3,1.9-6c2.4-0.7,3.6,1.1,4.5,3
		c1,2.1,1.3,4.4,1.9,6.7c1.5,5.8,2.4,11.7,9.6,14.2c4.2,1.5,3.9,7,5,10.8C474.4,200.6,474.5,203.4,474,206.1z"/>
	<path fill="#EF5489" d="M345,25c2.6,1.3,2.6,4.1,3.7,6.3c5.1,10.3,8.4,21.3,11.6,32.1c1.8,6.1,4,12.2,6.4,17.9
		c2.2,5.3,4.8,10.5,6.4,16.2c0.3,1.1,1.2,2.1,0.6,3.2c-1.2,2.4,0.2,3.3,2,4.2c0.6,0.3,1.6,0.8,1.5,1.1c-0.5,7.6,6.9,12.4,7,19.8
		c0,1.6,1.6,2.4,2.6,3.5c0.9,1.1,1.8,2.2,0.5,3.5c-2.1,2.1-1.3,2.5,1.2,2.7c1,0.1,1.6,1.2,1.2,2.3c-0.9,2.1,0.5,3.4,2,3.9
		c2.3,0.8,2.5,1.7,1,3.5c-0.3,0.4-0.2,1.7,0,1.8c4.2,1.7,2.4,4.5,1.4,7.2c-1.4,3.7-0.1,6.2,2.4,9.2c3.1,3.7,5.4,8,7.2,12.9
		c2.4,6.2,1.5,14,7.2,18.9c0.2,0.2,0.6,0.7,0.5,0.8c-4.9,5.8,3.6,7.1,3.5,10.5c-0.1,3.6,5.4,6,1.6,10.1c-1.1,1.2-0.3,2.4,1.8,1.9
		c3.8-0.8,3.8,1,2.2,3.5c-0.8,1.3-2.3,2.9-0.8,3.9c5.8,4,3,9.8,3.6,14.9c0.1,0.8,0,1.6,0.8,2.2c2,1.4,3.7,2.7,1.6,5.5
		c-1.2,1.5,1.8,2.6,1.5,4.4c-12.7,11.5-23.5,24.8-35.9,36.6c-1.3,1.3-2.7,2.4-4,3.7c-3.8-0.1-4.1-1.8-2.6-4.9c3-6.1,2.5-7.5-3-11.6
		c-2.3-1.7-4-3.2-3.2-6.9c0.7-3.4,1.6-8-3.9-9.9c-2.7-0.9-2.3-3.5,0.6-5.1c4.4-2.5,4.4-2.5,0.9-6.5c-1.9-2.2-0.7-3.4,1.5-3.7
		c2.1-0.3,3.5-0.7,3.7-3.1c0.1-2.4-1.7-2.9-3.4-3.7c-5.5-2.8-6.2-4-5-10.2c0.4-1.8,0-3.2-1.1-4.6c-2-2.8-1.2-4.2,2.2-4.4
		c-3.7-4.2-3.7-4.6,0.5-8.8c-2.1-1.3-4.9-2-5.4-5c-0.3-1.5-0.9-3,0.5-4.2c1.6-1.3,1.2-3.3,1.9-4.8c3.2-7-1.7-12.2-3.5-18.1
		c-0.5-1.8-1.7-3.7-1.1-5.3c1.9-4.5-0.5-8-2.2-11.7c-0.6-1.3-2.1-2.8-1.5-4.1c3.4-7.4-2.9-14.2-1-21.5c0.3-1.3-0.9-2.5-1.3-3.7
		c-1-3.1-2.3-6-1.2-9.6c0.8-2.5-0.5-5.2-2.1-7.5c-1-1.4-1.6-2.9-1.6-4.6c0-3.9-1-7.7-1.6-11.5c-0.8-4.9-2.1-9.9-2.3-15
		c-0.5-13.5-3.2-26.6-5.7-39.8c-0.7-3.4-1-6.9-1.7-10.3C345.1,30.3,342.5,27.5,345,25z"/>
	<path fill="#F0578C" d="M474,206.1c-2.5-4.7-0.7-10.4-3.8-15c-0.6-0.9,0-2.6-1.5-2.9c-9.4-1.7-9.6-9.3-10.8-16.4
		c-0.4-2.1-1.3-4.1-2.2-6.1c-0.6-1.4-1.7-2.1-3.2-1.3c-1.4,0.7-1.8,2-1,3.4c0.7,1.2,2.4,2.8,0.1,3.6c-2.2,0.8-2.4-2.1-2.4-2.9
		c-0.2-3.6-5.7-5-3.6-9.4c0.1-0.2-0.5-0.9-0.9-1c-6.1-0.9-5.4-6.4-6.5-10.3c-1.5-5.3-3.1-7-9.1-6.6c-2.7,0.2-2.6-2.5-2.4-3.4
		c1.2-3.9-3.2-5.9-2.8-9.5c0.2-1.6-1.9-1.1-3.3-0.7c-1.7,0.5-2.2-0.9-2.9-2.1c-0.8-1.3-0.4-2.2,0.9-2.8c2.8-1.2,1.3-2.1-0.1-3.4
		c-5-4.6-10.8-8.7-12.6-15.8c-1.4-5.5-8.1-5.7-10.1-10.7c-0.5-1.4-2.3-2.2-1.7-4.2c0.2-0.5,0.1-1.6-0.2-1.8
		c-6.4-3.6-8.4-10.3-11.4-16.3c-0.8-1.7-2.6-3-4-4.3c-6.1-5.8-9.3-13.6-14.6-19.9c-6.8-8.1-11.5-17.8-19-25.4
		c0.7-2.6,2.5-1.5,3.8-0.8c6.2,3.2,12.6,6.1,18.6,9.7c4.4,2.7,9.5,4,13.7,7.1c1.2,1.1,2.5,2.1,3.7,3.3
		c32.8,32.7,65.5,65.5,98.2,98.2c17.7,17.7,17.7,41.3,0.1,58.9C480.1,200.4,477,203.2,474,206.1z"/>
	<path fill="#4EBEF2" d="M174.2,318.2c-2.1-0.1-4.1-0.1-6.2-0.2c0-94.7,0-189.3,0-284c3.2,5.4,3.7,11.7,4.4,17.5
		c0.9,7.9,2.5,15.7,3.1,23.7c0.3,3.6,0.5,7,2.3,10.3c1,1.8,3,4.9-0.9,7c-1.4,0.8-0.9,3.2,1.2,3.1c4.2-0.2,2.3,3.2,3.2,4.9
		c1.1,2.3-0.7,2.3-2.2,2.7c-2.4,0.7-2,2.3-1,3.9c0.9,1.6,2.3,2.8,3.8,3.9c1.7,1.3,3.2,3.9,1.7,5.1c-3.7,2.8-0.3,6.5-2.7,9
		c2.4,1.3,3.9-2.4,5.5,0.1c1.3,2.1,1.1,4.5,0.1,6.7c-0.6,1.3-1.6,2.5-2.5,3.7c-0.7,1-1.4,2.8-0.4,3.1c5.4,1.3,1.9,4.3,1.4,6.6
		c-0.8,4,0.7,7.8,1.3,11.6c1,5.8,1,11.7,1.7,17.5c0.5,3.5,3.1,5.4,5.3,7.6c1.7,1.7,3.7,3.2,0.8,5.6c-1.3,1.1-1,2.3,0.3,3.3
		c0.5,0.4,1.2,1.2,1.1,1.4c-3.8,6.5,3.6,7.6,5.4,11.3c0.5,1.2,1.7,2,2.3,3.2c1.3,2.3,0.6,3.6-2.1,3.2c-1.9-0.3-3.9-0.6-4.8,1.3
		c-1,2,0.8,3.3,2,4.7c0.6,0.7,1.4,1.6,1.5,2.5c0.3,2.5,1.4,2.4,2.8,1c1.1-1.1,2.2-1.8,3.4-0.5c0.8,0.8,1.5,2,1.5,3
		c-0.1,1.6-1.7,1.1-2.8,1.2c-1.3,0.2-2.2,0.8-2.7,2c-1.3,3.6-1.1,7.5-1.6,11.1c-0.4,3.2,0.1,7.9,5.1,10.3c3.3,1.6-2.4,2.3-1.8,4.7
		c1.9,0.6,4.8-1,6.5,1.4c-0.1,0.3-0.2,0.7-0.4,0.9c-4.7,4-5.5,5.1-4.8,11.4c0.3,3.2-1.7,4.2-4.8,6.3c6-0.1,5.2,5.6,8.7,7.1
		c0.3,0.1,0.7,1.1,0.6,1.2c-4.2,4.7,0.6,9.1,0.4,13.7c-7.7,7.9-14.6,16.9-24.9,21.9C181.7,316.6,178.1,318,174.2,318.2z"/>
	<path fill="#EE5388" d="M345,34c3,7.2,4.1,14.8,4.9,22.4c0.6,6.1,2.1,12,3.2,18c0.9,4.5-0.4,9,0.6,13.6c0.6,2.8,4.2,5.9,0.6,9.1
		c5.3,4,1.8,9.8,2.9,14.6c0.4,1.8,2,3.2,3,4.8c2.4,4-1.5,7.9,0.7,11.7c3.9,6.7,1,14.8,4.2,21.7c0.9,2,0.2,3.5-0.6,5.4
		c-1.2,3.2,1.6,6.1,3.2,8.9c0.7,1.2,2.4,2.1,1.3,3.8c-3.5,5.4,0.6,9.8,2,14.4c0.5,1.8,0.6,4.4,3,5.4c0.1,0.1,0.3,0.2,0.3,0.4
		c0.1,0.6,0.5,1.7,0.3,1.8c-4.4,2.4-0.2,7.6-3.4,10.3c-1,0.8-2.9,1.2-1.6,2.9c1.1,1.4,0.2,4.9,3.8,3.9c1.6-0.4,2.5,0.6,3,2
		c0.7,2-1.1,2.2-2.2,2.6c-3,1.2-3.1,2.7-0.6,4.6c1.2,0.9,3.8,1.2,2.7,3.4c-1.4,2.7-3-0.7-4.7-0.3c-0.9,2,1,2.6,1.8,3.6
		c1,1.2,1.6,2.2,0.9,4c-2.3,5.8-1.6,7.8,4.2,9.6c3.8,1.2,4.4,2.7,3.5,6.4c-0.7,2.7-1.5,3.4-4,2.5c-1-0.4-2.2-0.5-2.4,0.7
		c-0.3,1.3,1,1.4,1.9,1.7c1.1,0.3,4.2-0.3,2.4,1.9c-1.4,1.8,2.9,7-3.2,5.5c-1.9-0.4-3.1,0.7-3.3,2.2c-0.3,1.8,1.6,1.2,2.5,1.5
		c2.8,1,4.6,2.3,3.6,5.9c-0.6,2.4,1.6,5.3-1.1,7.6c1.5,1.3,2.9,2.7,4.5,3.8c5,3.3,6.4,7.5,2.6,12.1c-2.5,3-0.2,3.4,1.3,4.6
		c-6.2,6.7-12.3,13.6-19.7,19c-4.8,3.5-10.1,5.7-16.1,6.1c-2.1-0.1-4.2-0.1-6.2-0.2c-0.9-1.7-0.5-3.6-0.5-5.4
		c0-91.1,0-182.1,0-273.2C344.5,37.6,344.1,35.7,345,34z"/>
	<path fill="#73C7F9" d="M165,22c-3.3,5.7-5.1,12-8.6,17.7c-2.9,4.7-7.2,8.7-8,14.9c-0.4,3.8-4,6.9-6.3,9.8
		c-3.8,4.7-5.2,9.9-6.4,15.4c-0.2,0.8-0.6,1.6-1.2,2.1c-4.9,4.5-8.2,10.4-10.3,16.1c-1.6,4.4-4.8,8.2-5.4,13.3
		c-0.4,3.6-3.9,5.9-6.5,8.5c-0.8,0.8-2.6,1.5-1.8,2.5c2.4,3.4,0.7,5.1-2.1,6.6c-0.1,0.1-0.4,0.2-0.4,0.3c2.1,7.5-7.5,8.4-8.1,14.4
		c-0.2,2.1-2.9,1.8-4.2,3c-0.5,1.3,7.1,4.3-0.8,4c-1,0-1.6,0.8-1.6,1.6c0.4,4.6-3.9,8.1-3.2,12.8c0.3,2.1-0.4,3.4-2.8,1.7
		c-1-0.8-2.2-1.1-3,0.2c-0.8,1.4-2.4,2.9-1.6,4.5c1.3,2.5,2.8,1.4,4.1-0.3c0.7-1,1.9-1.6,2.9-0.4c0.8,0.9,0.1,1.9-0.5,2.7
		c-1.3,1.6-2.9,2.9-4.9,3.3c-3.1,0.7-6.3,0.9-4.4,5.5c0.2,0.5-0.2,1.6-1,1.3c-6.9-1.9-4.2,6.5-8.3,7.6c1.8,2,0.6,4.3,0.6,6.6
		c0.3,8.6,0.2,8.7-8.8,10.4c-3.1,0.6-2.4,3.2-2.3,5.3c0,6.6,0.1,6.6-6.8,6.6c-9-9.5-19.1-17.8-27.6-27.8c-3.3-3.8-5.5-8.2-6.5-13.2
		c2.7-0.8,5.3-1.3,5-5.2c-0.2-1.9,1.7-2.6,3.4-3.1c2.3-0.6,4.5-1.2,6.1-3.4c-0.2-1.8-4-0.5-3.2-3.3c0.6-2,2.5-1.9,4-2.6
		c5.5-2.8,10.2-6.1,12.9-12.3c1.8-4,5.2-7.8,10.2-8.8c2.1-0.4,2.2-0.9,1.7-2.8c-0.7-2.6,0.6-4.4,2.9-5.8c6.6-4,11.4-10,17.3-14.7
		c1.6-1.3,1.5-3.3,1.9-5c0.6-2.3,1.4-4.7,4.3-4.8c5-0.1,6.6-3.5,7.3-7.4c0.7-4.2,2.8-6.7,7-7.2c3.1-0.4,4.2-2.7,4.4-5.3
		c0.4-6,3.9-9.3,9.2-11.2c1.6-0.6,3.4-1.2,4-2.8c3.5-8,10.6-13.1,16.3-19.2c10.1-10.8,18.6-22.9,29.9-32.5
		C164.2,21.6,164.6,21.7,165,22z"/>
	<path fill="#71C7F9" d="M164,22c-2.9,6.2-9.4,9.3-13.3,14.6c-2.8,3.8-6.5,6.9-8.7,11.3c-1.9,3.9-6.3,5.4-9,9
		c-4.2,5.8-11.1,9.5-13.9,16.6c-1.4,3.5-4.9,3.7-7.5,5c-3.4,1.7-5.4,3.8-5.7,7.8c-0.4,4.1-1.2,8.3-7.3,8c-2.2-0.1-4.1,1.7-4.1,5.1
		c-0.1,6.3-2.8,8.4-8.9,9.1c-3.6,0.4-3.3,3.8-3.3,6.2c0,2-0.6,2.5-2,3.7c-3.5,3.1-7.4,5.8-10.1,9.9c-1.1,1.7-4.2,2.8-6.3,4.3
		c-4.5,3.1-4.8,4.1-0.7,9.7c-7.4-3.4-9.5,3.2-13.8,5.4c-0.4,0.2-0.8,0.7-0.9,1.1c-1.7,9.3-9.1,12.2-16.7,14.8
		c-0.3,0.1-0.3,0.8-0.6,1.5c1.6,0.5,3.7-2.2,4.6,0.5c0.9,2.5-1.2,3.5-2.9,4.5c-0.9,0.5-1.8,1.2-2.7,1.3c-4.1,0.3-5.1,2.3-5.2,6.4
		c-0.1,5.9-4-0.6-5.7,1.2c-1.6-2.1-1.1-4.5-1.2-6.8c-0.7-2.8-0.7-5.5,0-8.3c-0.1-10.6,5.5-18.6,12.4-25.6
		c17.8-18.2,35.6-36.3,54-53.9C97.4,71.8,110,58.8,123,46.3c0.8,0.3,1.8,0.5,2.4-0.1c4.2-4.3,10-6.5,14.2-10.6
		c2.3-2.3,4.7-4.1,7.8-5.1c3.2-1,5.8-3.1,8.4-5.2C158.1,23.2,160.4,20.6,164,22z"/>
	<path fill="#FC71A3" d="M313.1,189c1.9,0.2,2.3,1,2.1,3c-0.2,3.2-3.1,5.4-2.8,8.8c0.1,0.8-1.2,0.8-2,0.2c-1.4-1.1-2.7-0.8-3,0.9
		c-0.2,1.4,1,1.8,2.3,2.1c1.4,0.3,3.9-0.9,4,1.7c0.1,2.3-1.5,3.5-3.9,3.4c-1.5,0-2.7,0.8-2.6,2.4c0.1,2.1,1.8,2.9,3.4,2.9
		c1.5,0,2.9-0.5,4.1,0.9c1.1,1.2,1.9,2.6,0.7,4c-1,1.2-2.4,0.9-3.4-0.3c-2.3-3-4.1,0.1-6.1,0.5c-1.1,0.2-0.9,1.5-0.2,2.4
		c3.1,3.9,2.3,7-2.4,8.6c-1,0.3-1.3,0.9-1.3,1.8c0,1-0.1,2.5,1,2.5c4.2,0,1.9,5.4,5.4,6.2c0.6,0.1-0.5,1.6-1.3,2.2
		c-1.5,1.1-4.4,1.2-3.8,3.9c0.5,2.3,3.3,1.7,5.6,3c-3.4,1-3.7,5.9-8.1,4.7c-0.1,0-0.6,0.4-0.6,0.7c-0.2,5.6-4.3,9.6-5.8,14.5
		c-1.1,3.6-4.5,5.2-5.4,8.6c-10.7-10.5-21.3-21-32-31.4c9-9.3,18.1-18.6,27.1-27.9C294.1,209.4,304.3,199.9,313.1,189z"/>
	<path fill="#FB6EA1" d="M278.2,110.9c-7.5-6.8-14.7-13.9-21.4-21.5c12.9-12.9,25.8-25.7,38.8-38.6c1.4-1.4,2.9-2.7,4.4-4
		c0.8,0.2,1.6,0.4,2.4-0.2c7.5-5.7,15.7-10.5,23.1-16.2c3.8-2.9,8.2-5,12.1-7.8c1.3-0.9,2.9-1.8,4.6-0.7c1.1,2.1-0.5,3.5-1.5,4.9
		c-6.9,8.9-12.9,18.5-20.8,26.5c-3.6,3.6-5.8,8.1-8.6,12.2c-1.3,1.9-1.9,4.2-4.4,5.1c-0.6,0.2-1.3,0.7-1.4,1.4
		c-0.9,8.1-9.9,11.8-10.9,20c-0.2,1.3-1.5,2.9-2.7,3.5c-5.6,2.6-7.3,8.2-10.4,12.8C280.6,109.3,280.2,111,278.2,110.9z"/>
	<path fill="#F15A8F" d="M345,34c0,94.7,0,189.3,0,284c-1.8-1.8-1-4.1-1-6.2C344,217.9,344,123.9,344,30c-2.8-3.1-0.4-6.8-1.1-10.1
		c1.5-4,4.6-2.1,7.2-2c8.4,0.3,15.3,4.2,21.4,9.5c3.4,2.9,6.3,6.4,9.4,9.6c-4.8-0.1-8.8-2.8-12.5-5c-6.7-4-13.9-6.8-20.5-10.9
		c-0.9-0.6-2-1.5-3-0.1c0,1.3,0,2.7,0,4C345,28,345,31,345,34z"/>
	<path fill="#55C0F3" d="M221.4,54.8c-1.9,2.4-3.4,5.2-6.3,0.3c-1.5-2.5-6.5-2.5-5.9-7.2c0-0.2-1.3-1-1.6-0.8
		c-4.6,2.1-6.2-1.8-8.1-4.3c-2.5-3.3-6-4.6-9.4-6.6c-6.3-3.7-11.8-8.7-17.5-13.2c-1.7-1.3-3-3.3-5.6-2c0,0,0,0,0,0
		c-1.1-2.1-0.6-3.4,1.9-3.5c1.4,0,2.9-0.3,4.2,0.4c7.8,0.4,14.7,3.4,20.1,8.7C202.7,35.9,212.6,44.8,221.4,54.8z"/>
	<path fill="#FA6D9F" d="M350.1,17.9c-2,0.9-5.1-1.5-6.1,2.1c-0.7,0.7-0.8,1.8-2,2c-6.9,2.8-12.7,7.6-18.9,11.5
		c-5.4,3.4-9.7,8.6-16.1,10.5c-1.7,0.5-2.4,2.2-3.4,3.5c-1.5,1.9-3,2.3-3.7-0.7c6.7-6.8,13.1-14.1,20.3-20.4
		C328.7,19.2,338.8,15.8,350.1,17.9z"/>
	<path fill="#6FC6F9" d="M173.1,17.9c-2.1,0.8-6-1.8-6.1,3.1c-0.8,0-1.6,0.2-2,1c-0.3,0-0.7,0-1,0c-3.2,0.7-5.8,2.2-8.1,4.6
		c-0.8,0.8-1.6,1.9-2.6,2.2c-8.1,2.4-13.4,9.3-20.7,12.9c-1.7,0.9-2.7,2.4-3.9,3.7c-1.4,1.4-3.1,4.7-5.6,0.9
		c6.2-6.9,12.5-13.7,19.7-19.6C151.6,19.3,161.6,16,173.1,17.9z"/>
	<path fill="#73C7F9" d="M17.9,163.9c0,2.8,0,5.5,0,8.3C16.7,169.4,16.7,166.6,17.9,163.9z"/>
	<path fill="#4EBEF2" d="M210.6,243.4c0.4,0.5,0.9,0.8,0.9,1.2c0,0.3-0.4,0.6-0.6,1c-0.3-0.3-0.7-0.5-0.8-0.9
		C210.1,244.4,210.4,244,210.6,243.4z"/>
	<path fill="#FC70A2" d="M342,22c0.4-1,1-1.6,2-2c0,3.3,0,6.7,0,10c-5,3.4-4.2,9.4-5.8,14.2c-2.2,6.4-1.3,13.8-5.8,19.7
		c-1.2,1.5-1.7,4.3-1.2,6.2c1.2,4.6-0.7,8.4-2.8,12c-2.7,4.8-1.8,10.1-3,15.2c-1.2,5.1,0.8,11.1-4.7,14.9c-1,0.7-1.1,2.4-0.6,3.3
		c2.5,4.5-0.1,9.6-1.2,12.8c-1.9,5-1.8,12.5-8.9,14.8c-10.6-10.7-21.2-21.4-31.8-32.1c2.4-4.4,5.9-8.2,7.1-13.1
		c0.3-1.1,1.2-1.6,2.2-1.7c4-0.3,5.3-3.4,6.5-6.3c2.1-4.9,3.4-10.4,9.1-12.7c0.1-0.1,0.3-0.3,0.3-0.4c-0.5-8.3,7.8-11.5,10.8-17.9
		c2.5-5.3,7.1-9.4,11.3-13.8c4-4.2,7.3-9.2,10.3-14.1C337.8,27.8,341.2,25.8,342,22z"/>
	<path fill="#EE5388" d="M385.9,254c-0.1,0.6-0.1,1.5-1,1.4c-1.2-0.2-1.4-1.3-1.6-2.2c-0.1-0.8,0.6-1.1,1.3-1
		C385.7,252.4,385.9,253.2,385.9,254z"/>
	<path fill="#FD72A4" d="M295.8,263.2c-0.6,0.3-1,0.6-1.4,0.6c-0.7,0-1.2-0.5-0.9-1.2c0.1-0.3,0.8-0.5,1.2-0.4
		C295.1,262.3,295.4,262.8,295.8,263.2z"/>
</g>
</svg>
