<?xml version="1.0" encoding="utf-8"?>
<!-- Generator: Adobe Illustrator 23.0.0, SVG Export Plug-In . SVG Version: 6.00 Build 0)  -->
<svg version="1.1" id="Слой_1" xmlns="http://www.w3.org/2000/svg" xmlns:xlink="http://www.w3.org/1999/xlink" x="0px" y="0px"
	 viewBox="0 0 538 271" enable-background="new 0 0 538 271" xml:space="preserve">
<g>
	<path fill="#FEFEFE" d="M271,12c84,0,168,0,252-0.1c3.4,0,4.1,0.7,4.1,4.1c-0.1,80.3-0.1,160.7,0,241c0,3.4-0.7,4.1-4.1,4.1
		c-168-0.1-336-0.1-504,0c-3.4,0-4.1-0.7-4.1-4.1c0.1-80.3,0.1-160.7,0-241c0-3.4,0.7-4.1,4.1-4.1C103,12,187,12,271,12z"/>
	<path fill="#ACA7FD" d="M116.9,238c-11-10.9-22-21.7-33-32.7c-7.1-7.1-14-14.2-21-21.4c0.7-4.5,1.7-9.1,0.2-13.7
		c-0.4-1.3-0.3-2.4,0.8-3.1c1-0.8,2,0.1,2.6,0.7c2.2,2.2,5.5,0.9,7.9,2.5c1,0.7,0.5-0.5,0.5-0.6c0-0.5,0.6-1.1-0.3-1.4
		c-5.5-1.8-6.1-2.4-6.7-7.5c-0.1-1.2-0.5-2.3-0.5-3.5c0-3.7,2.2-5,5.5-3.3c1,0.5,2,2.4,3.2,0.7c0.9-1.3,1.4-3.2-0.1-4.6
		c-2.6-2.5-2-3.8,1.1-5.4c2.4-1.2,3.5-4.1,3.2-6.9c-0.3-2.5,0.6-4,2.9-4.4c2.6-0.5,3.1-2,2.9-4.3c-0.2-1.6-0.5-4.4,1.1-4.5
		c5.8-0.2,5.5-5.5,7.9-8.5c0.4-0.5,1.2-1.2,1-1.7c-3-7.4,5.1-10.4,6.3-16.1c0.1-0.6,0.1,0.2,0.2-0.4c1.6-6.2,3.7-12.1,8.8-16.5
		c2-1.7,0.7-4.7,1.4-7.2c1.4-5.1,4.5-9.1,7.3-13.4c5.3-8.3,7.2-18.2,12.5-26.6c1.2-1.8,1.9-3.9,3.3-5.6c1-1.2,2-1.9,3,0.1
		c0.8,4.9,0.6,9.9,0.2,14.8c-2.7,5.6-4.9,11.2-4.1,17.7c0.2,1.7-0.6,3.2-1.1,4.8c-0.6,1.9-1.2,4.1-0.4,5.9c3,6.7-0.6,12.6-1.9,18.8
		c-0.4,1.9-1.5,3.8-0.9,5.8c2.2,8.1-0.4,15.4-3.7,22.5c-1.3,2.7-0.8,5.2-0.6,8.1c0.4,7.3,3.6,15-2.6,21.8c-2.6,2.9,0,6.7,0.8,9.9
		c1.4,5.4,1.8,5.3-3,8.2c0.9,1.6,4.1,0.4,3.8,3c-0.2,2.4-2,3.3-4.1,3.7c-1.2,0.3-1.5,0.9-1.3,2.2c0.9,4,3.7,8,0.2,12.1
		c-0.2,0.2,0,0.7,0.2,0.9c4.1,4.6,0.8,10.4,2.3,15.4c0.3,1.2,0.1,2.5-0.9,3.2c-2.4,1.6-3.9,3.5-3.3,6.6c0.1,0.4-0.3,1.2-0.7,1.2
		c-5.8,1.1-2.3,6-3.5,8.9c-0.8,2,0.5,3,2.8,1.8c4-2.2,6.9-1,8.2,3.1c0.3,0.8,0.6,2.2,0,2.3C121.4,232.6,120.6,237.2,116.9,238z"/>
	<path fill="#4FBEF2" d="M452.9,209.8c-10.6,10.9-21,22.1-32.5,32.2c-5.2,4.5-11.4,6.6-18.4,6c-1.5-1.6-1.4-3.7-1.4-5.7
		c0-69,0-137.9,0-206.9c0-0.8,0-1.7,0.2-2.5c0.6-2,1.6-3.3,3.2-1c1.5,2.2,3.1,4.6,3.4,7.2c0.8,8.3,6.2,15,7.2,23.2
		c0.9,8.2,2.8,16.3,5.6,24.1c2.8,7.8,3.2,16.2,6.1,24c2.4,6.5,3.9,13.2,7.8,19.1c0.3,0.4,0.6,0.9,0.6,1.4c-1,9.6,6.4,17.2,6.2,26.4
		c-0.2,8,6.7,14.1,5.4,22.2c-0.1,0.6-0.4,0.3,0,0.4c5.4,1.6,3.8,5.7,3.8,9.4c0,1.7,2.6,2.4,4.2,3.1c2.1,0.9,2.8,2.4,1.3,4.3
		C452.7,200.9,452.8,205.3,452.9,209.8z"/>
	<path fill="#938DF7" d="M194,205.1c-12.1,12.2-23.9,24.5-36.2,36.4c-5,4.9-11.6,7.1-18.8,6.5c-1.6-1.8-1.4-4-1.4-6.2
		c0-63.6,0-127.2,0-190.8c0-5,1.4-9.9,0.9-14.9c-0.1-1.9,0.3-3.1,2.5-1.8c1.5,1,2.2,2.6,2.4,4.2c1.4,9.7,4.8,18.9,7.2,28.4
		c1.9,7.3,3.1,14.8,5.3,22c0.2,0.6-0.3,0.1,0.2,0.4c7.1,5.4,4.1,14.8,8.6,21.2c1.8,2.5-0.5,7.4,0.6,7.7c3.9,1.1,3.5,4.2,4.2,6.7
		c1.6,5,0.7,6.7-4.9,9.4c6,0.5,6.8,4.1,6.5,8.5c-0.1,1-0.4,3.2,1.1,2.7c6.2-2.2,5.4,4.1,7.5,6.3c3,3.3,3.1,8.5,4.6,12.9
		c0.7,2.1-0.8,4.2-2.5,5.6c-1.5,1.3-2.9,2.5-1.6,4.6c1.4,2.3,2.8,0.6,4.2-0.3c1.4-0.9,2.8-1.3,3.9,0.4c0.9,1.6,0.3,2.9-1.1,3.9
		c-0.7,0.5-1.4,0.9-2.1,1.3c-2.2,1.2-4.2,2.5-2,5.4c1,1.3-0.2,2.4-0.3,3.6c1.2,0.2,1.9-0.7,2.7-1.2c0.8-0.4,1.6-0.8,2.3-0.2
		c1,0.7,0.9,1.9,0.4,2.7c-2,3.4-0.8,5.3,2.5,7.1C193.3,199.2,195.4,201.5,194,205.1z"/>
	<path fill="#76C8FA" d="M401,248c-7.7,0.4-14-3-19.1-8.1c-15.1-14.9-30-30-45-45.1c-0.3-2.6,1.9-3.7,3.3-5.2
		c9.4-9.5,18.9-18.9,28.3-28.4c6.4-5.5,10.9-12.4,13.4-20.5c0.5-0.2,1-0.2,1.5-0.1c2.5,1,4.6,2,3.7-2.5c-1.2-6.6,0-13.2,2.7-19.3
		c0.9-2.1,1.7-3.9,0.8-6.1c-0.6-1.6-0.4-3.3,0.4-4.8c0.6-1.2,1.2-2.5,0.6-3.8c-2.8-6.5-0.1-12.8,1-19c0.6-3.7,1.6-7.4,1.7-11.2
		c0.4-9.3,3.8-18.2,4-27.5c0-1.6,0.3-3.2,2.1-3.5c1.1-0.2,1,1,1,1.8c0,65.8,0,131.6,0,197.4C401.5,244.1,401.9,246.1,401,248z"/>
	<path fill="#948EF7" d="M194,205.1c-0.8-3.4-2.1-5.9-5.9-7.3c-5.9-2.2-1.7-5.8,0-9.6c-3.2,1.6-5.5,4.5-9,1.8
		c3.2-1.5,3.8-3.3,1.1-5.9c-0.8-0.8-0.6-2.9,1.4-3.5c0.8-0.2,1.9-0.4,2.1-1c0.8-1.9,5.7-1.1,3.5-4.1c-1.9-2.6-3,1.2-4.3,2.1
		c-1.9,1.4-2.8,0.5-3.6-0.8c-1.1-2.1-3-4.5-0.1-6.5c2.9-2,6.1-3.5,2.2-7.6c-1.6-1.6-0.9-4.8-1.1-6.4c-0.3-4.6-6.7-5.7-4.8-10.7
		c-2.1,0.7-2.9,3.2-5.1,2.1c-2.5-1.2-0.6-3.2-0.6-4.9c0.1-3.7,0.4-7.3-5-7c-0.9,0-2.6-0.5-2.3-2c0.1-0.7,1.5-1.5,2.3-1.6
		c5.7-0.2,4.6-4.1,3.4-6.9c-0.7-1.6,1-6.9-4.5-4.7c-1,0.4-2.3-1.7-0.9-2.9c2.7-2.3,1.9-5.4,0.6-7.1c-3-3.9-2.7-8.3-3.4-12.7
		c-0.2-1.1,0.1-2.5-1-3.2c-5.9-4.2-5.8-11.2-7.1-17.1c-2.3-10.7-5.8-21-8.4-31.6c-0.6-2.6-1.1-5.2-1.5-7.8c-0.3-2.1-1.4-3.3-3.1-4.2
		c-0.9-1.4-0.5-2.9-0.4-4.3c0.1-2.8,1.6-1.7,2.9-0.8c3.1,3.3,5,7.4,7.3,11.3c4.4,7.2,9.2,14.1,14,21c1.5,2.3,1.7,5.1,3.2,7.2
		c2.8,3.9,4,8.6,8.2,11.7c2.8,2.1,4,5.8,4.2,9.7c0.3,3.9,6.4,3,7.3,7.3c0.8,3.9,3.5,7.1,6.1,10.2c1.3,1.6,2.4,3.2,3.4,4.9
		c7.1,12.9,16,24.7,24.2,36.8c4.1,6.1,8.8,12.3,11.5,19.5c0,0.3,0,0.7-0.2,1c-7.7,9.2-16,18-25.6,25.3
		C201.4,198.3,197.7,201.7,194,205.1z"/>
	<path fill="#AAA5FC" d="M138,28c-5.4,8.5-9.7,17.5-13.3,26.9c-1.7,4.5-4,9.1-7.8,12.6c-2.7,2.5-3.4,7.3-3.2,9.2
		c0.5,5.1-2.4,7.3-5.1,10c-1.8,1.8-2.9,3.3-3.1,6.4c-0.3,4.6-2.4,9.3-6.1,12.8c-0.8,0.8-2.6,1.8-2.4,2.3c1.3,4.7-1.6,8.4-2.3,12.5
		c-0.6,3.3-1.1,4.4-4.1,4.3c-3.2-0.1-4,1-3.2,4.2c0.6,2.7,1,6-3.8,5.6c-1.2-0.1-3,0.4-2.1,2.8c1.4,4.1-2,9-6.8,9.7
		c2.6,2.1,5.9,3.8,3,7.7c-0.5,0.6,0.8,2.4-0.9,2.8c-1.4,0.4-2.6-0.5-3.5-1.5c-1-1.1-1.8-2.9-3.5-1.8c-1.5,0.9-1.8,2.4-0.8,4.3
		c1,1.9-0.4,4.3,1.4,6.5c2.2,2.7,3.5,5.3,6.2-1.8c-0.3,3.9-0.4,5.6-0.5,7.3c-0.1,1,1.5,2.4-0.3,2.9c-1.7,0.5-1.6-1.1-1.9-2.2
		c-0.2-0.9-0.8-0.9-1.5-0.7c-3.3,0.7-6-0.5-8.6-3.1c4,3.9,0.4,8.1,1.2,12c0.3,1.5,0.8,3.9-2,4.3c-9.5-9.4-19.4-18.5-28.5-28.4
		c-6.2-6.8-9.2-15.2-6.5-24.7c1.1,0.3,0.3,3.3,3.3,1.4c5-3.2,8.8-7.8,14.6-10.2c3-1.2,5.8-6.1,7.2-10.2c1.4-4.1,3.5-7.1,7.7-8.3
		c2.8-0.8,4.6-2.6,4.9-5.7c0.3-2.5,1.4-4.1,4.2-3.5c3.1,0.6,5-1.1,6.7-3.3c1.1-1.5,2.4-3,2.8-4.7c2.1-8.5,9.2-12.7,15.2-17.7
		c3.5-2.9,7.2-5.6,9.8-9.1c5.5-7.3,12.6-13.1,18.2-20.3c3.6-4.6,8.8-8,12.7-12.5c0.6-0.6,1.5-0.6,2.4-0.2c0.3,0.3,0.4,0.5,0.3,0.8
		C138.1,27.9,138.1,28,138,28z"/>
	<path fill="#52BFF3" d="M487.8,98.1c6.6,6.5,13.7,12.7,19.8,19.7c9.2,10.6,9.2,26,0.3,36.7c-6,7.3-12.8,13.9-19.9,20.1
		c-3.5-3.5-3.5-9.4-8.3-12c-0.8-0.4-0.3-1.9-0.2-2.8c0.1-3.1,0.7-6-4.1-6.9c-2.5-0.4-3.5-4.6-6.4-6c-1-0.5-0.3-2.2,0.6-3
		c2.3-1.9,2-3-0.5-4.8c-4.4-3.3-7-8-8.2-13.3c-0.5-2.2-0.6-4.6-1.9-6.8c-1.8,0.3-0.5,3.6-2.8,3.1c-2.1-0.5-2.4-2.4-2.9-4.3
		c-1.1-4.3-1.4-9.2-6.9-10.8c-1.3-0.4-1.9-1.8-2.3-3.1c-0.8-2.5-1.6-5.1-2.4-7.6c-1.4-4-1.3-8.3-6.3-11c-3-1.6-4.4-6.8-6.2-10.5
		c-0.2-0.4-0.1-1.1-0.5-1.4c-7.2-7-9.4-17-15.2-24.8c-4.5-6.2-8.3-13-10.5-20.5c1.2-0.8,2.4-0.5,3.2,0.4c4.7,5.3,11.6,8.3,15.3,14.7
		c0.9,1.5,2.2,2.5,3.7,3.3c3,1.5,5.6,3.7,7.5,6.4c2.2,3,4.1,5.9,8.2,6.2c0.9,0.1,2,0.9,2.2,1.8c0.9,3.4,4,3.9,6.2,5.7
		c4.7,3.8,10.1,7,13.9,11.6c2.8,3.5,5.3,7,9.2,9.3c1.9,1.1,2.8,2.8,3.2,4.8c0.3,1.4,0.5,2.9,1.4,4.2c3.5,5.4,3.4,5.4,8.6,1.8
		C486.4,97.5,487.1,97.3,487.8,98.1z"/>
	<path fill="#51BFF3" d="M403,28c5.3,7.6,7.4,17.1,14.8,23.3c1.1,1,0.9,2.4,1.3,3.6c1.1,4.2,2.7,8.4,5.9,11.3
		c4.8,4.4,6.2,10.6,9.5,15.7c0.6,0.9,1,3,1.4,3c8.4-0.3,4.4,7.3,6.8,10.9c1.3,1.9,2.4,5,2.5,7.9c0,0.7,0.9,2,1.3,2
		c4.7-0.4,5.2,2.9,6.4,6.2c0.6,1.7,2.2,2.9,1.5,5.2c-0.5,1.5,0.5,3.2,2.5,4.2c0-0.8,0.1-1.5,0-2c-0.3-1.2-1.4-2.7,0.7-3.2
		c1.5-0.4,2.7,0.9,3.1,2c0.7,2.2,0.9,4.5,1.6,6.7c1.7,5.9,3.8,11.4,10,14.1c2.7,1.2,1.7,2.7,0.1,4.1c-1,0.9-3.2,1.1-2.7,3.1
		c0.5,2,2.2,0.6,3.4,0.7c2.2,0.1,1.8,1.3,1.4,2.7c-0.3,1.3-0.1,2.9,1.9,2.4c1.2-0.3,2.6-2,3.4-0.3c1,2.1,2.6,5.3,1.7,6.8
		c-2,3.6,1.1,3.4,2.1,5.1c1.9,3.3,4.7,6.7,4.7,10.9c-9.2,9.5-18.2,19.2-28.1,28.1c-0.7-0.6-1.5-1.2-2.5-1.3c0.8,0.6,1.7,0.7,2.3,1.5
		c-1.9,2.7-4.2,5-6.9,6.9c-3.9-5.8-0.1-10.3,2.7-15.2c-1.4-0.5-3-0.7-4-1.7c-1.9-1.8-6.4-2.7-2.4-6.9c1.8-1.9,0.4-4.2-2.2-3.7
		c-4.8,0.9-3.2-0.2-1.9-3.2c1.1-2.7,0.2-6.4-1.8-8.7c-1.2-1.5-2.1-2.7-2.3-4.6c-0.7-7-2.3-13.7-4.1-20.5c-0.5-2.1-0.3-4.7-3.1-5.8
		c-0.8-0.3-1.7-2.5-1.4-3c3.5-5.1-2.1-8-2.8-12c-0.2-1.3-1.7-2.4-0.8-4.1c0.4-0.7,0.3-2.1-0.7-2c-6.3,0.2-1.5-3.6-2.2-5
		c-1.4-2.8,0-5.9-2.3-8.5c-2.3-2.7-4-6.1-2-10c0.3-0.5,0.5-1.7,0.2-1.9c-4.2-3.1-2.5-8.3-4.4-12.3c-1.8-3.8-2.1-8.3-2.9-12.6
		c-1.1-6-1.4-12.6-5.1-17.9c-1.6-2.3-2.3-4.6-2.5-7.4c-0.3-4.4-2.6-8.1-4.9-11.7c-1.1-1.1-1.1-2.4-0.4-3.7
		C402.6,26.6,403,26.9,403,28z"/>
	<path fill="#FECF43" d="M332,199c-9,9.6-18.1,19.1-28,27.8c-3.6-4.3-5.6-9.2-6.4-14.8c-0.5-3.7-2.5-7.2,0.1-10.9
		c0.5-0.7-0.2-1.6-0.6-2.3c-3.3-5.8-4.1-12.2-4.4-18.7c-0.2-5.4-2.5-10.2-3.1-15.5c-1.3-10.4-2.2-20.8-4.7-31
		c-2.8-10.9-1.8-22.4-4.9-33.2c-2.4-8.5-2.1-17.4-5-25.9c-1.4-4.3-0.6-8.9-0.9-13.4c-0.4-6.2-2.7-11.9-4.2-17.9
		c-0.3-3.6-0.8-7.2,0.4-10.8c2.1-2.1,3.4-0.5,4,1.3c3.7,10.1,8.8,19.7,11.1,30.4c0.4,1.8,1.1,3.5,2.2,5c1.3,1.8,2.3,3.7,2.8,5.8
		c2.8,13.5,10.3,25.1,14.9,37.8c3.2,9.1,7.4,17.8,9.7,27.1c1.1,4.4,2.8,8.6,5.2,12.4c1.4,2.3,1.3,3.9-1.5,6.3
		c7.4-0.5,6.4,4.7,7.7,8.5c3.1,9,3.8,18.4,6,27.5C332.8,196.1,333,197.7,332,199z"/>
	<path fill="#FED045" d="M332,199c-1-6.2-4-12.5-3.9-18.2c0.1-6.9-4.9-12.1-3.5-18.8c0.3-1.5-1.4-2.2-2.9-1.7
		c-2,0.7-3.8,0.5-4.5-1.6c-1-2.8,2.1-2.3,3.2-3.4c-3.1-3.3-4.4-7.6-5.9-11.6c-2.6-7.1-5.2-14.2-7.6-21.3c-1.9-5.7-4-11.5-6.4-16.8
		c-2.5-5.4-3.3-11.7-7.5-16.4c-3.4-3.8-1.7-9.3-4-13.6c-0.4-0.7-0.2-1.7-0.6-2.4c-6.5-12.3-9.2-26-15.1-38.4
		c-0.6-1.2-0.6-2.7-2.4-2.7c-1.1-1.3-1.3-2.7,0-3.8c1.3-1,2.3,0.3,3.3,1.1c6.2,9,11.8,18.4,18,27.5c4.7,7,9.5,14,15.3,20.2
		c1.5,1.6,2.8,3.4,3.7,5.3c4.2,9.6,11.5,16.8,18.2,24.5c6.7,7.7,14.3,14.9,18.4,24.6c2.6,6.1,7.2,11.2,9.2,17.6c0.6,2,2.6,2.8,4.3,4
		c3.4,2.2,6,5.3,7.6,9.1c-9.4,9.5-18.8,19-28.1,28.5c-1.4,1.4-2.7,2.9-4,4.4C335.3,196.3,333.6,197.6,332,199z"/>
	<path fill="#FECE41" d="M271,44c4.6,8.6,3.5,18.3,5.2,27.5c1.5,7.8,2.8,15.7,4.3,23.5c1.6,8.6,4.8,17.4,4,26.1
		c-0.6,6.6,2.7,11.9,2.9,18.1c0.2,5.5,1.8,10.9,2.6,16.4c1,6.5,1.4,13,3.6,19.5c1.7,4.8,0.6,10.4,2.2,15.6c0.8,2.8,0.8,5.7,3.3,7.9
		c1.4,1.2,1.5,3-0.2,4.3c-1.1,0.9-2.4,2.2-1.7,3.3c3.6,5.2,1.1,12.5,6.2,17.1c1,0.9,0.5,2.2,0.6,3.3c-5.3,6.2-10.7,12.2-17.5,16.9
		c-4.6,3.2-9.8,4.8-15.5,4.3c-1.6-1.8-1.4-4-1.4-6.2c0-63.9,0-127.8,0-191.7C269.6,48,269.2,45.7,271,44z"/>
	<path fill="#FEE874" d="M270,248c-6.8,0.4-12.7-2-17.7-6.3c-4.5-3.9-8.4-8.4-12.5-12.6c6.7-5.7,7.6-12.6,4.7-20.5
		c-1.5-4.1,2-7.2,3.2-10.7c0.8-2.3,2-3.9,0.1-6.2c-1.1-1.3-0.7-3.1-0.3-4.8c1.2-5.6,3.2-11.2,2.7-16.9c-0.5-6.9,1.3-13.5,1.5-20.3
		c0.1-3.8,3.5-6.2,3.5-10.5c-0.2-10,3.2-19.6,2.8-29.8c-0.2-5.2,2.2-11,2.1-16.4c-0.1-7.5,2.8-14.1,3.5-21.2
		c1.1-10.4,1.6-20.9,3.2-31.2c0.3-1.6,0.5-3.4,2-4.4c1.4-1,1.6,0.2,1.6,1.3c0,68.2,0,136.4,0,204.6C270.5,244.1,271,246.1,270,248z"
		/>
	<path fill="#ADA8FD" d="M116.9,238c2.7-1.9,2.2-7.2,7.3-6.8c0.6,0-1.3-2.9-2.1-4.4c-0.5-0.9-2-2.8-2.9-0.8
		c-1.3,2.9-4.4,1.1-5.7,3.3c-0.3-2.9-2.2-5.6,0.2-8.2c0.7-0.8,0-1.9-0.7-2.7c-0.9-1.1-1.5-2.5-0.6-3.6c1.1-1.4,1.9,0.5,2.9,0.7
		c1.8,0.3,3-0.7,2.1-2.1c-2.4-3.7-0.1-4.6,2.6-5.6c0.7-0.3,1.7-1.4,1.6-1.6c-2.6-4.5,1-9.3-0.8-13.8c-0.2-0.6-0.5-1.4-0.9-1.7
		c-3.2-1.7-2.9-3.2,0.1-4.7c1.7-0.8,1.6-1.8,0.5-3.1c-1.8-2.2,0.2-5.9-3-7.9c-0.6-0.4,0.9-2.7,2.8-2.3c2.3,0.5,4.2-0.7,4.1-2.4
		c-0.2-2.4-2.2-0.6-3.5-0.5c-1,0.1-1.8-0.3-1.7-1.3c0-1.6,0.6-3.2,2.3-3.4c4.9-0.7,4.2-2.6,1.4-5.3c-2-2,1-4.8-1.4-7.3
		c-2.3-2.5,0.8-3.9,2.5-5.7c1.4-1.4,2.8-3.9,2-6.3c-1.5-5.1,0.4-10.5-1.9-15.7c-1.8-4,2.1-7.9,3.6-11.4c2.2-5.3,2.5-10.2,1.6-15.4
		c-0.4-2.6,0.3-4.7,0.8-7.1c1.1-5.8,5.6-11.4,1.9-17.8c-0.3-0.5-0.2-1.3-0.1-2c1.5-7.5,1.2-15.3,3.3-22.6c0.4-1.4,1.1-2.8,2.6-3.5
		c0.9,1.6,0.5,3.3,0.5,4.9c0,64.4,0,128.8,0,193.2c0,1.6,0.4,3.3-0.5,4.9C129.4,248.1,122.5,244.5,116.9,238z"/>
	<path fill="#72C7F9" d="M402,27c0,1.3,0,2.7,0,4c0,72.3,0,144.7,0,217c-0.3,0-0.7,0-1,0c0-68.3,0-136.7,0-205
		c-2.3-3.1-0.7-6.8-1.4-10.6c-1.4,1.3-2,2.9-2.7,4.4c-5,11-11.2,21.5-16.8,32.2c-2.6,4.9-4.6,10.2-7.4,14.8
		c-3.7,6-6.7,12.8-12.1,17.7c-1.7,0.2-2.8-0.8-3.9-1.8c-6.2-6-12.3-12.1-18.3-18.3c-0.9-0.9-1.9-1.9-1.5-3.5
		c15.3-15.4,30.5-30.9,46-46.1c4.3-4.2,9.6-7,16-7c1-0.6,2.1-0.5,3.2-0.2C402.6,25.5,402.6,26.3,402,27z"/>
	<path fill="#FEE773" d="M270,36c-3.4,6.7-3.1,14.2-3.7,21.3c-0.5,5.9-1.7,11.8-1.2,17.8c0.2,1.8-1.1,3-1.7,4.5
		c-1.2,2.8-3.5,5.5-0.7,8.7c0.9,1-0.1,2.2-0.2,3.3c-0.4,3.2-3.8,6.2-0.5,9.6c0.2,0.2,0,1-0.3,1.4c-4.9,6.3-2.1,13.4-2,20.1
		c0,1.6,0.2,2.8-0.8,4.1c-1.9,2.5-2.7,4.8-1.6,8.5c0.9,2.8-1.9,6.7-0.3,10.3c-6,1.5-2.6,6.7-4,9.9c-1.8,4.2-0.9,8.4-1.2,12.6
		c-0.3,3.8-0.5,7.6-1.4,11.5c-0.7,3-1.4,6.3-2,9.5c-0.5,2.6,1.8,3.9,5.5,4.4c-6,2.7-4.9,8.6-8.2,11.9c-0.7,0.7-0.7,2.1,0,2.8
		c5,4.9,0.8,10.2,0.6,15.3c-0.1,3.1-2.7,5.2-6.2,5.5c-5-4.4-9.6-9-14-14c2.4-4.3,5.3-8.2,2.1-13.7c-1.2-2.1,1.6-4.3,4.1-5.3
		c1.4-0.5,3.1-0.7,3.1-2.7c0-1.8-1.8-1.7-2.9-2.3c-2.3-1.2-2.5-2.9-1.4-4.9c0.5-0.9,1.1-1.7,1.8-2.3c7-5.8,5.9-13.1,3.9-20.6
		c-0.2-2.3,1.4-3.7,2.9-4.9c5.7-5.1,8.8-11.5,10.5-18.7c0.6-1.7,0.9-3.4,0.2-5.2c-0.2-0.4-0.3-0.9-0.4-1.3c-0.8-3.3-1.8-6.6-3.2-9.7
		c-0.6-1.3-1.7-2.5-0.4-4c4.6-3.5,4.7-9.1,5.3-13.9c1-8.8,3.2-17.1,5.6-25.6c2.4-8.4,3.7-17.1,5-25.8c1.1-7,3.4-13.8,4.4-20.9
		c0.1-2,0.5-3.8,1.7-5.5c0.7-0.7,1.3-1.1,2.1-0.1C270.3,30.4,271,33.3,270,36z"/>
	<path fill="#9690F8" d="M246.4,120c2.2,4.5,4.5,8.9,4.5,14c-3.8,0.9-6.1-1.9-7.7-4.2c-3-4.6-7.1-8.2-11.3-11.1
		c-5.3-3.7-9.5-8.5-14-12.9c-5.8-5.6-12.1-10.9-17.2-17.2c-1.2-1.4-2.4-2.8-4.2-3.4c-1.4-0.5-2.8-0.9-2.4-3c0.4-2-1.4-1.4-2.4-1.5
		c-2.4-0.4-4.4-1.3-5.8-3.4c-4.4-6.5-9.6-12.3-15.1-17.8c-9.3-9.3-19.9-17.3-27.8-28c-0.5-0.7-1.3-1-2-1.5c-0.6-0.8-1.3-2.4-1.9-0.2
		c-0.4,1.3-0.1,2.8-0.1,4.2c0,71.3,0,142.7,0,214c-0.3,0-0.7,0-1,0c0-67.7,0-135.3,0-203c0-5.7,0-11.3,0-17c0-0.3,0-0.7,0-1
		c0.1-4.6,3.2-2,5.1-2.1c7,0.5,12.5,3.9,17.3,8.7c13.5,13.5,26.9,27,40.4,40.4c1.3,1.3,2.7,2.5,4,3.7c2.5,0.8,3.9,3.1,5.8,4.7
		c4.8,4.5,10.3,8.4,14.3,13.8c4.1,5.2,9.2,9.4,13.7,14.2C241.1,113.8,245.4,115.5,246.4,120z"/>
	<path fill="#AAA4FC" d="M143.1,24.9c-1.7,0.6-4.4-1.2-5.1,2.1c-2.1,0.1-3.1,1.6-4.1,3.2c-2,2.9-4.3,5.4-7.4,7.2
		c-1.6,0.9-3.5,1.9-3.6,4.4c0,0.8-0.8,1.9-1.6,2.4c-8.5,6-13.3,15.6-21.3,22.1c-3.1,2.5-5.6,6-9.3,7.6c-6.6,2.7-7.5,9.5-10.7,14.6
		c-2.7,4.2-4.5,9.1-11.1,7.1c-2.2-0.6-1.8,1.4-1.8,2.6c-0.1,3.4-1.6,5.6-5.1,6.4c-4.8,1.1-6.7,4.4-8,9c-1.1,3.9-5.4,6.1-6.4,10.3
		c-0.2,0.9-1.6,1.1-2.6,0.6c-1.3-0.6-2.7,0-3.2,0.8c-3.2,5-9.8,5.9-12.6,11.8c-1.7-2.2-0.8-4.3-1.1-6.1c0.1-5.9,3.2-10.5,7-14.4
		c28-28.3,56.1-56.4,84.4-84.4C125.8,25.9,133.9,23,143.1,24.9z"/>
	<path fill="#FED248" d="M270,36c0-3,0-6,0-9c0.2-0.2,0.4-0.3,0.5-0.5c3.5-0.9,5.6,1.7,7.9,3.4c8.5,6.1,17.3,11.7,25.7,17.9
		c1.2,0.9,2.7,1.3,3.9,2.2c8.2,8.1,16.5,16.2,24.8,24.3c1.3,1.3,2.7,2.4,4,3.7c7.4,8,15.1,15.7,23.1,23.1
		c10.5,8.3,21,16.5,23.8,30.7c0.6,3,1.6,6.2-0.9,9c-0.3,0.1-0.5,0.3-0.8,0.4c-3.3-7.8-10.2-12.4-15.9-17.9
		c-7-6.7-13.4-13.8-20.3-20.5c-7.8-7.5-16-14.6-22.8-23c-7-8.7-16.8-14.3-23.7-23.2c-3.4-4.4-8.1-8.2-12.4-12.1
		c-4.7-4.2-9.1-9.2-12.9-14.3c-3.1-2.6-3.2-0.4-3,2c0,4,0,8,0,12c0,68,0,136,0,204c-0.3,0-0.7,0-1,0C270,177.3,270,106.7,270,36z"/>
	<path fill="#FEE773" d="M236.9,163c1.4,0.2,2.1,0.9,2.1,2.3c-0.1,3.5,0.5,6.9,0.9,10.3c0.6,4.6-4.3,6-6.3,9.1
		c-2.9,4.3-3.4,4.1,1.8,5.5c1.2,0.3,1.6,1,1.6,2.1c0,1.6,0.4,4.1-1.5,4.3c-6.4,0.7-7,3.2-4.7,8.9c1.5,3.7-1,7.5-4.9,9.6
		c-6.9-6.7-13.9-13.4-20.8-20.2c8.3-8.6,16.7-17.2,25-25.8C231.7,166.4,233.1,163.2,236.9,163z"/>
	<path fill="#54C0F3" d="M402,27c0-0.6,0.1-1.3,0.1-1.9c1.3-0.9,2.7-0.7,4.1-0.2c6.5,0.1,11.9,3.1,16.4,7.5
		c21.7,21.5,43.3,43.2,64.8,64.8c0.2,0.2,0.3,0.6,0.5,0.9c-0.2,0-0.3,0-0.5,0.1c-2.7,1.1-3.5,6.4-6.5,4.7c-3.3-1.8-5.7-5.5-6.1-10
		c-0.2-2.3-1.8-3.8-4.2-5.3c-2.9-1.8-6.8-3.8-7.7-8.3c-0.9-4.5-6.2-3.7-8.8-6.6c-2.2-2.4-2.9-7.2-8-5.8c-2,0.6-3.1-0.7-2.9-2.8
		c0.2-3.5-2.1-5.1-4.9-4.9c-3.1,0.3-4.2-0.6-4.4-3.5c-0.1-0.7-0.8-1.4-1.4-2c-9.1-8.4-18.2-16.8-27.4-25.2c-0.4-0.4-1.2-0.4-1.9-0.6
		C402.7,27.7,402.3,27.3,402,27z"/>
	<path fill="#FEE46D" d="M210.1,83c-2.2-1.3-3.9-3-5.2-5.2C219.7,63,234.4,48,249.4,33.5c7-6.8,15.4-11,25.7-8.5
		c-1.2,1.9-3.8,0.3-5.1,2.1c0,0-0.1,0-0.1,0c-0.3,0.3-0.6,0.7-1,1c-1.7,1.9-2.4,4.6-4.8,5.9c-2.2,1-3.7,2.8-5.3,4.4
		c-13.3,13.4-27.4,26.1-40.2,40C216.5,80.7,214,83.4,210.1,83z"/>
	<path fill="#FED34A" d="M270,27c0.6-3.3,3.4-1.4,5.1-2.1c5.6,0.2,10.4,2.6,14.4,6.3c6.5,6,12.4,12.5,18.6,18.8
		c-6.6-0.5-10.5-5.7-15.5-9c-6.8-4.4-13.4-9.1-20.1-13.6C271.8,27,270.9,27.1,270,27z"/>
	<path fill="#76C8FA" d="M406.2,24.9c-1.4,0.1-2.7,0.1-4.1,0.2c-1.1,0-2.2-0.1-3.3-0.1C401.3,23.7,403.7,23.6,406.2,24.9z"/>
	<path fill="#948EF7" d="M167.5,159.1c2.6-1.5,4.1-3.5,6.4-2.4c1.9,0.9,0.8,3.4-1.4,2.9C171.1,159.2,169.7,160,167.5,159.1z"/>
	<path fill="#FED147" d="M274,30c4,3.9,9,6.7,11.6,11.9c1.4,2.7,4.7,3.3,6.8,5.5c7.5,7.5,13.7,16.3,22.8,22.4
		c4,2.7,6.8,7.3,10.4,10.9c6.1,6.1,12,12.3,18.4,18.1c6.3,5.7,11.6,12.7,17.9,18.4c6.3,5.7,11.3,12.8,18.6,17.5
		c2.6,1.7,1.1,4.2,1.6,6.4c-0.8,9.2-6.5,15.3-13,20.9c-4.1-2.2-5.3-7.7-10.3-9c-1.2-0.3-2.3-2-2.8-3.3c-3.6-9.5-8.9-18.1-14.3-26.4
		c-3.7-5.7-8.6-11.1-13.4-16.2c-4.3-4.7-8.5-9.4-12.5-14.5c-4.3-5.4-6.2-11.9-11.1-17.1c-6.9-7.4-12.6-16.1-17.9-25
		C282.6,43.6,278.2,36.8,274,30z"/>
	<path fill="#75C8FA" d="M382.8,140.7c0.7-11-3-20-11.1-27.5c-4.1-3.8-7.9-8.1-11.8-12.1c1.4-0.7,2.8-1.6,2.9-3.2
		c0.2-2.9,1.8-5.4,3.5-7c4.7-4.3,5.3-10.4,8.2-15.4c5.1-8.9,9.9-17.8,14.7-26.8c2.2-4.2,4.7-8.4,6.7-12.7c1.1-2.4,2.2-4.6,5.2-6.9
		c0,5.2,0,9.6,0,14c-3.6,1.6-0.6,4.4-1.2,6.6c-1.4,4.9-2.1,10-2.9,15c-0.7,4.9-1.2,9.7-1.3,14.7c-0.1,3.9-2.8,7.5-2.7,11.7
		c0.1,4.5-1.4,8.6,0.1,13.6c1,3.2,1,10.1-0.9,12.6c-4.1,5.6-2.3,11.9-4.5,17.4c-0.4,1.1,0,1.8,0.5,2.7c1.2,2.1,1.9,4.9-0.3,6.2
		C386,144.6,383.9,142.7,382.8,140.7z"/>
	<path fill="#9590F8" d="M236.9,163c-2.3,2-4.6,4.1-6.9,6.1c-0.8-3.4-4.1-5.3-5.3-8.2c-5.4-12.1-14.4-21.9-21.5-32.9
		c-4.4-6.8-7.2-14.7-13.1-20.7c-2.7-2.8-4.9-6.3-5.9-10.2c-0.2-0.6-0.4-1.8-0.7-1.8c-8.1-0.5-5.4-8.7-8.9-12.3
		c-3.7-3.9-6.5-8.3-9.5-12.7c-1.8-2.7-1.6-6-3.6-8.9c-5.5-8.4-12.2-16-16.2-25.3c-1-2.2-2.8-4-4.3-6c5.5,2.3,8.8,7,12.3,11.2
		c3.7,4.4,7.3,8.2,12.5,10.9c4.5,2.3,7.2,7.2,10.2,11c3.7,4.8,9,8.3,11.3,14.2c0.8,2.1,3.4,2.5,5.6,2.1c1.2-0.2,2.4-0.7,3.2,0.5
		c0.9,1.5-0.6,2.3-1.4,3.9c3.1-0.1,4.7,1.7,6.8,3.7c6.9,6.8,12.8,14.6,21.1,19.9c0.3,0.2,0.7,0.3,0.8,0.6c1.5,6.9,8.6,8.6,12.9,12.7
		c4.8,4.5,7.6,11.2,14.5,13.4c0,0,0.3-0.1,0.3-0.1c0.4,1.7,0.4,3.3,0,5C250,149.1,243.7,156.2,236.9,163z"/>
	<path fill="#4FBEF2" d="M459.8,202.9c-0.2,0-0.3,0-0.5,0c-2,0.2-3.7-0.2-4.6-2.1c-0.3-0.7,0.3-1.4,1-1.3c1.8,0.5,4.2,0.4,4.3,3.2
		C459.9,202.8,459.8,202.9,459.8,202.9z"/>
	<path fill="#FEE671" d="M264,33c1.7-1.6,2.7-4,5-5c-0.3,1.7-0.7,3.3-1,5c-3.6,11.9-8.7,23.3-12.2,35.2c-2.9,9.8-8.2,18.4-11.1,28.1
		c-1.3,4.4-0.7,9.4-4.4,13c-0.7,0.7-0.9,1.8-2.2,1.6c-5.3-4-9.4-9.2-13.8-14c2.2-6.5,5.4-12.4,10.2-17.5c2.2-2.3,3.6-5.2,5.2-7.9
		c7-12,14.9-23.5,21.8-35.5C262.1,34.9,263.1,33.9,264,33z"/>
	<path fill="#FEE773" d="M238.1,111c5.3-8.5,5.5-18.9,10.2-27.6c2.6-5,4.4-10.1,6.1-15.4c3.5-10.8,7.8-21.4,11.9-32
		c0.4-1,1.2-1.9,1.8-2.9c-2.4,11.5-4.8,22.9-7.2,34.4c-0.1,0.6-0.7,1.3-0.7,1.9c1.2,8.7-4,15.9-5.5,23.9c-0.8,4.4-1.1,8.7-1.5,13.1
		c-0.4,4-2.6,7.4-2.8,11.5c0,1.6-2.1,2.4-4,2.3C243.6,117,240.8,114,238.1,111z"/>
	<path fill="#FEE874" d="M251.2,138.9c0-1.7,0-3.3,0-5C252.3,135.6,252.4,137.3,251.2,138.9z"/>
	<path fill="#FEE773" d="M238.8,183.1c-0.4-0.3-0.7-0.6-1-0.8c0.3-0.3,0.6-0.8,0.9-0.9c0.2-0.1,0.6,0.4,1,0.6
		C239.3,182.3,239.1,182.6,238.8,183.1z"/>
	<path fill="#FEE56F" d="M264,33c-3.7,6.8-7,13.8-11.3,20.2c-5.5,8.3-10.3,17.1-16.2,25c-4.5,6.1-7.8,12.8-12.3,18.7
		c-4.7-4.7-9.5-9.3-14.2-14c8.4-4.3,13.5-12.1,20.1-18.4c10.4-9.9,20.6-20,30.8-30.1C261.8,33.7,262.7,33,264,33z"/>
</g>
</svg>
