<?xml version="1.0" encoding="utf-8"?>
<!-- Generator: Adobe Illustrator 23.0.0, SVG Export Plug-In . SVG Version: 6.00 Build 0)  -->
<svg version="1.1" id="Слой_1" xmlns="http://www.w3.org/2000/svg" xmlns:xlink="http://www.w3.org/1999/xlink" x="0px" y="0px"
	 viewBox="0 0 512 531" enable-background="new 0 0 512 531" xml:space="preserve">
<g>
	<path fill="#BFEFFE" d="M1,278c0-1,0-2,0-3c0.8-6,0.8-12,0-18c0-1,0-2,0-3c0.9-11.5,3.1-22.6,7.4-33.4c6.5-16,15.6-30.2,27.7-42.4
		c44.3-44.5,88.7-89,133.3-133.2c37.5-37.2,95.8-46,143.1-22.5c13.1,6.5,24.7,15,35,25.4c42.7,42.6,85.3,85.3,128,127.9
		c15.4,15.3,26.7,33.1,33.2,53.9c2.8,9,3.8,18.2,3.7,27.6c0.3,6.6-0.6,13.2,0.5,19.8c0,0.7,0,1.3,0,2c-1,11.3-2.9,22.2-7,32.9
		c-6.7,17.6-17.2,32.7-30.3,46c-42.2,42.4-84.5,84.7-126.8,126.9c-21,20.9-45.9,34.6-75.7,38.2c-37,4.5-69.8-5.7-98.4-29.5
		c-9.1-7.6-17.2-16.2-25.5-24.6C112.5,432.2,75.7,395.5,39,358.6C23.9,343.4,12.2,326,5.6,305.4C2.8,296.4,2,287.2,1,278z"/>
	<path fill="#FEFEFE" d="M512,256c-1.5-23.2-9.8-44-23.4-62.7c-4.4-6.1-9.4-11.6-14.8-16.9c-42.1-42-84.3-84-126.2-126.2
		c-20-20.1-43.5-33.5-71.6-37.7c-33.9-5.2-65,2.8-92.9,22.9c-6.1,4.4-11.6,9.5-16.9,14.8C124.1,92.4,81.8,134.7,39.5,177
		c-18.5,18.5-30.8,40.3-36,66c-0.7,3.7-0.5,7.6-2.5,11C1,171,1,88.1,0.9,5.1c0-3.2,0.3-4.2,4-4.2C173,1,341,1,509.1,0.9
		c3.7,0,4,1.1,3.9,4.2C513,88.7,513,172.4,513,256C512.7,256.5,512.3,256.5,512,256z"/>
	<path fill="#FEFEFE" d="M1,278c1.3,6.4,2.5,12.9,4.1,19.3c4.7,19.5,13.6,36.9,27.3,51.4c37.6,40.1,77.4,78,116.1,117.1
		c13.2,13.3,25.8,27.4,42,37.4c17.8,11,37.1,17.4,58.1,18.9c22.2,1.7,42.9-2.9,62.8-12c13.6-6.2,25.2-15.5,35.8-26
		c42.6-42.4,85.1-85,127.6-127.6c20.9-20.9,33.7-45.9,37.3-75.4c0.1-0.8,0.6-1.5,1-2.2c0,82,0,164,0.1,246c0,3.4-0.7,4.1-4.1,4.1
		c-168-0.1-336-0.1-504,0c-3.4,0-4.1-0.7-4.1-4.1C1,442.7,1,360.3,1,278z"/>
	<path fill="#D5F4FE" d="M512,256c0.3,0,0.6,0,1,0c0,7,0,14,0,21C510.8,270.1,512.5,263,512,256z"/>
	<path fill="#D4F4FE" d="M1,257c1.6,6,1.6,12,0,18C1,269,1,263,1,257z"/>
	<path fill="#4BBDF1" d="M383.9,358.9c-1.1,1.2-2.1,2.6-3.3,3.7c-26.3,26.4-52.7,52.7-79,79.1c-12.2,12.2-27.1,18.2-44.2,19
		c-0.8,0-1.6-0.4-2.4-0.6c-2.2-2.3-1.9-5.2-2-8c0-13.3,0-26.7,0-40c0-109.6,0-219.3,0-328.9c0-3.4-0.8-7.1,2.1-9.9
		c10.6-0.5,20.6,1.8,29.9,6.8c1.5,2.6,3.3,4.7,6.7,4.1c0.4,0.3,0.8,0.7,1.3,1c-1.1,5.1,1.8,9.4,2.8,14c1.8,8.7,5.1,17.2,5.2,26.3
		c0,5.4,3.9,9.9,4,15.4c0,1.3,1.2,0.2,1.9,0.3c2.9,0.6,3.6,2.8,3.9,5.1c0.3,2.2-0.3,4-3,3.8c4.8,3,6.8,7.9,8,13.2
		c0.3,1.3,0.5,2.7-0.7,3.7c-1.5,1.2-2.8,0.2-4.5-0.8c0.7,3.3,2.1,5.7,4.8,7.4c1.5-1.5,1.3-4.8,4.3-4c2.5,0.6,3,2.9,3.7,4.9
		c1.1,3.1,0.5,6.3,0.4,9.4c-0.1,2.1-1.8,2.8-3.2,2.6c5.1,0,5.2,0,6,5.9c0.3,2.1,1.3,3.7,2.5,5.3c2.3,3.1,2,6.7,0.8,9.9
		c-1.3,3.3,0.1,6.8,3.7,7.4c0.8,0.2,1.7,0.1,2.4,0.5c2.1,1.3,3.9,2.8,0.5,4.6c-2.2,1.1-2.2,2.3-0.6,3.7c1.8,1.6,2.1,3.6,2.1,5.9
		c0.1,3.7,1.3,7.2,3.1,10.4c1.1,2.1,4.4,3.9,1,6.8c-0.5,0.5,0.1,0.9,0.4,1.2c2.3,2.2,1.2,4.2-0.2,6.2c-1.1,1.6-1.9,3.3-0.6,5.1
		c1.5,2,3.5,2.4,5.8,1.6c1.4-0.5,2.8-1,4.4-0.7c3.5,0.6,4.5,2.3,3.1,5.5c-0.2,0.5-0.9,1.1-0.8,1.2c4.4,4.3-1.6,7.1-1.6,10.9
		c0,4.3,0.7,8.2,2.4,12c0.1,0.2,0.2,0.3,0.2,0.4c0.9,4.3,1.9,8,7.9,6.3c1.8-0.5,6.4,5.6,6,7.7c-0.6,3.4-3.7,3.2-6.3,3.7
		c-2.6,0.5-5.3-0.3-8,0.4c2.6-0.7,4,0.5,4.6,2.9c1,3.9,2.3,7.7,2,11.8c-0.4,4.5,1.5,8.4,2.4,12.6c0.1,0.5,0.3,1.3,0.6,1.2
		c4.1-2.6,5.9,3.8,9.6,2.4c0.9-0.3,2.2,0.2,2.5,1.2c0.7,3.1,0.7,6.4,5.6,5.7c1-0.1,1.2,2.7,0.5,4
		C380.8,353.6,381.1,356.4,383.9,358.9z"/>
	<path fill="#77C9FA" d="M110,338.9c-2.7-1.9-5.1-4.2-7-7c-1-2.8-0.2-5.6-0.2-8.4c0-2.2,0.9-3.9,3.2-4.5c2.1-0.5,4.1-0.1,5.5,1.6
		c1.6,1.9-1.1,3.1-1.4,4.8c3,0.9,5.2-0.1,6.6-2.4c1.2-2.1-1-3.2-2.1-4.5c-1.6-1.8-2.3-4-3.7-5.9c-0.5-0.7-0.7-1.5-0.7-2.4
		c0.1-2.3,8.9-12,11.2-12.3c3.1-0.4,5.1,0.9,5.7,4.1c1-2.6,1.2-5.2,0.4-7.8c-0.5-2-0.7-4-0.1-5.9c1.2-3.6,3.2-6.7,0.1-10.9
		c-1.6-2.2,1.3-3.5,3.8-3.4c5.2,0.2,6.1-0.9,4.5-5.6c-1.4-4.1,2.2-10.8,6.8-12.4c2.7-0.9,5.2-2.2,7.9-3.2c-4-2.3-5.6-6.3-4.7-11.9
		c0.3-1.8,0.8-3.5,0.6-5.4c-1.1-8.9,5.8-16,14.6-15.5c-2.1-0.4-4.1-1-5.7-2.4c-1.3-1.2-2.3-2.5-1.4-4.4c0.8-1.7,2.2-1.7,3.8-1.5
		c2.9,0.3,7.9-3.1,8.6-5.7c0.1-0.4,0-0.5-0.1-0.9c-1.9-5.7-1.9-5.7,3.4-8.7c-1.4-1.1-4.6-2.7-2.9-4c4.2-3.2,1.5-8.6,5-12.2
		c1.8-1.9,3.6-5.6,1.9-9.4c-1.2-2.7,1.7-6.1,5.8-6.6c3.5-0.4,4-2.2,4-5c0-2.5-0.1-5-0.3-7.5c-0.3-3.2,1.3-4.9,4.3-5.9
		c5.3-1.7,7-3.9,7.2-9.7c0.1-3.2-0.4-6.4,4.1-7.3c1.7-0.3,1.6-2.2,0.4-3.1c-3.7-2.9-2-5.5-0.3-8.6c1.5-2.6,1.3-6.6,6.1-5.4
		c1.4,0.3,1.7-0.7,1.6-1.8c-0.1-4,1.2-7.9,0.3-11.9c8.8-10.6,19.2-18.9,33-22c3.3-1,3.3,1.4,3.1,3.3c-0.5,7.2-0.9,14.3-2.7,21.5
		c-2.6,10.7-4.5,21.8-5.1,32.9c-0.1,2-0.2,4-1.2,5.8c-1.2,2.1-2.9,3.8-1,6.7c1,1.6-2,3.1-1.8,4.9c0.8,6.8-2.3,13.1-1.4,20.1
		c0.9,6.7,1.8,14.5-4.6,20c-1.5,1.4-0.8,2.6,0.6,3.6c1.9,1.3,2.3,3.3,0.5,4.5c-2.1,1.4-3.6,2.2-3.5,5.2c0.1,2.5-1.7,5-0.7,7.7
		c0.3,0.8,0.4,1.7,0.1,2.5c-1.6,4.8-2.7,9.5,0,14.3c0.5,0.8,0,2-0.6,2.8c-1.6,2.3-1.2,5.1-1.9,7.3c-1.1,3.5-0.9,6.8-1.5,10.2
		c-0.6,3.8-1.4,7.5-0.9,11.4c0.3,2.5-0.3,4.8-3.3,4c-2.9-0.8-3.1,1.1-4.1,2.8c-1.3,2.4-1.7,4.9-1.2,7.2c1.7,7.5,0.9,15.4,4.5,22.6
		c1.3,2.6,0.8,6.9-1.6,8.9c-3.8,3-3.8,6.8-3.9,10.8c-0.1,5.5-1.3,10.3-7.2,13.6c0.3-0.1,1,0.7,0.7,0.1c0-0.1,0.1-0.1,0.3-0.2
		c2.5-1.7,3.8-0.2,4.5,1.9c0.8,2.5,2.7,5.4-0.9,7.5c-2.3,1.3-4.9,1.8-7.8,1c1,3,3.1,2.8,5.1,3c4.1,0.3,4.7,1.7,2.6,5
		c-4.1,6.3-5,13.3-4.7,20.6c0.1,2.6-0.7,4.4-1.7,6.7c-1.6,3.6-3.6,7.9-1.8,12.4c2.5,6.3,1.6,7.8-3.6,12.3c-3.2,2.7-7.9,4.7-7.7,10.2
		c0,1.1-1.2,2-2.6,0.9c-6.7-6.5-13.4-12.9-20-19.5c-16.3-16.2-32.5-32.5-48.7-48.8c-1.2-1.2-2.2-2.5-3.2-3.7
		C111,339.3,110.7,339,110,338.9z"/>
	<path fill="#4FBEF2" d="M383.9,358.9c-0.9-1-2.1-0.7-3.2-1c-2.5-0.7-3.6-1.9-1.3-4.1c2-2,2.2-4.5,2.2-7.1c-2.3-0.3-1.8,2.5-3.7,2.5
		c-1.4-2.1-3.1-4-2.2-7.1c0.4-1.4-0.8-2.5-2-1.6c-4.6,3.6-4.9,0-5.4-3.1c-1.8-0.1-2.3,1.6-3.6,2c-1.7,0.5-3.2,0.1-3.3-1.8
		c-0.7-8.5-1.4-16.9-3.2-25.3c-0.6-2.8-1.3-5.5-3.7-0.8c-0.4,0.8-1.1,1.4-2,0.7c-0.8-0.6-0.6-1.5-0.3-2.3c0.6-1.7,1.9-2.7,3.7-2.9
		c1.8-0.2,3.6-0.5,5.4-0.6c8-0.8,8.1-0.8,4.1-7.1c-1.6-2.5-4-1.7-6.3-0.9c-4.2,1.4-5.4,0.5-4.2-3.8c0.4-1.5-0.4-2-0.8-3
		c-1.7-4.2-3.4-8-3.2-13.1c0.2-4.2,0.5-6.1,5.8-7.7c-5.5-1-8.5-2.2-2.9-5.4c0.9-0.5,1.4-2,0.5-2.5c-1.6-0.9-3.9-2.4-5.4-0.8
		c-1.9,1.9-3.7,1.3-5.5,0.9c-4.4-0.9-5.8-5.3-3-8.8c1.6-2,4.8-4.1-0.7-5.3c-0.8-0.2-1.6-0.9-1.5-1.8c0.1-1.3,1-1.4,2.2-1.2
		c2.9,0.3,2.4-1.1,1-2.5c-4.2-4.1-5.4-9.3-5.1-14.8c0.1-1.7-0.7-2.3-1.6-3.2c-1.2-1.3-3.6-2-3-4.2c0.7-2.3,3.3-1.8,5.1-2.3
		c0-0.4,0.1-0.7,0-0.9c-1.9-4.2-6.2,2.1-7.6-1.4c-2-4.8-1.6-4.9-4.6-6.9c0.8-2.1,6.5-0.6,4.1-5.8c-0.9-2,0-4.9-2.7-6.7
		c-2.1-1.4-0.9-4-1.1-6.1c-0.3-2.5-0.6-4.5-3.8-2.3c-1.4,1-1.5,0.8-3.7-4.2c1.9-1.5,3.4,3.2,4.3,0.9c1-2.9,0.5-6.3,0.6-9.5
		c0-0.1-0.1-0.3-0.2-0.5c-1.3-1.5-0.5-5.2-3.5-4.6c-3.1,0.6,0.3,3.5-1,5.1c-6.4-0.6-8.7-4.5-7.7-13.3c1.5,0,1.4,1,1.4,2
		c0.1,1.7,1.5,2.4,2.8,1.9c1.4-0.6,0.3-2,0-3c-1.1-5.4-3.8-9.8-8-13.3c-1.1-0.9-1.6-2-0.6-2.9c1.7-1.4,1.7,0.2,1.9,1.4
		c0.1,0.3,0.7,0.8,1.1,0.8c0.7-0.1,1-0.7,1.1-1.4c0.4-4.2-2-6.1-6.7-4.7c0.7-2.5,0.4-4.6-0.7-7c-3.3-7.6-4.2-15.8-4.6-24
		c0-1-0.1-2.7-0.4-2.8c-5.2-1.3-2.5-4.9-2.4-7.8c0.1-2.1-0.1-4.4-1.8-5.5c-4.4-2.8-3.5-5.8-0.9-9.1c0.4-0.5,0.4-1.2,0.7-1.9
		c2.5,0.7,4.2,2.6,6,4.3c45,45,90.1,89.9,135,135.1c21.5,21.6,22.5,59.4,2.1,81.9C419.5,324.8,401.8,341.9,383.9,358.9z"/>
	<path fill="#78C9FA" d="M183,412c0.3-0.1,0.9-0.2,0.9-0.3c-0.8-5.2,3.2-7.4,6.1-10.4c0.7-0.7,1-1.6,2-2.1c5.6-2.9,6.4-4.9,3.3-10.3
		c-1.4-2.4-2.1-4.5,0.1-6.5c2.9-2.7-1.2-3.9-1-5.7c0.2-3,4.7-0.3,5.2-3.4c0.1-0.6-0.6-1.2-0.6-1.8c0-3.6-2.9-7.4,0.9-10.8
		c0.5-0.4,0.6-1.6,0.5-2.4c-0.4-5,0.3-9.5,5.8-12.4c-3.8-1.1-7.1,1.2-9.4-1.7c-1.1-1.5-2.5-3.2-1.4-5c1.1-1.8,2.6,0,3.8,0.6
		c2.5,1.3,4.5-0.7,6.4-1.4c2.1-0.8-0.4-2.4-0.5-3.8c-0.1-1.4,0.4-3.1-1.5-3.9c-1.5,0.2-1.3,1.8-2.1,2.6c-1.1,1.1-2.1,0.4-3-0.4
		c-0.9-0.8-1.3-1.9-0.1-2.4c9-3.5,7.7-11.6,8.3-18.7c0.2-2.7,0.6-4.7,3.3-5.9c1.8-0.8,3.1-8.3,1.6-9.4c-2-1.4-2.2-2.7-1.9-5
		c0.4-4.4-3.9-8.5-0.9-13.2c-4.2-1.9,0.1-5.9-2-8.4c-0.9-1.1,0-1.7,1-2.2c0.7-0.3,1.6-0.9,1.8-1.6c1.2-4.1,1.1-4.1,5.5-2.5
		c0.1,0.1,0.3,0,1-0.1c0.2-3.8-1.2-7.6-0.4-11.5c0.1-0.7-0.4-1.6,0.4-2.1c3.3-2.5,0.6-3.5-0.7-5.7c-2.1-3.3,5.3-2.5,3.6-4.5
		c-3.8-4.4,0.6-6.1,1.8-8.9c1-2.2-0.2-3.9-1.2-5.5c-1.7-2.4-2.2-4.4,0.1-6.6c1-1,1.3-2.3,1.3-3.6c0.1-3.8-2.8-7.7,0.8-11.4
		c0.9-0.9-0.4-2.8-1.5-3.9c-0.6-0.6-1.1-1.4-0.2-2.1c0.8-0.6,1.6-0.4,2.2,0.3c1.3,1.8,2.7,2.1,3.8,0.1c1.3-2.5-1.4-1.8-2.4-2.4
		c-2.1-1.4-2.5-3.6-0.5-5c8-5.4,4.8-13.6,5.2-20.7c0.2-3.2-2.7-6.3,1-9.5c1.7-1.5-0.6-4.5,0.1-7.2c0.5-2.1-0.6-4.5,2.2-5.8
		c1.2-0.6,0.8-1.8-0.4-2.2c-4.8-1.4-1.9-2.6,0-4.2c2-1.7,2.8-4.2,2.6-6.7c-0.4-3.7,1.2-7.1,1.1-10.5c-0.2-7.6,4-14.5,3-22
		c-0.3-2.3,1.6-3,2.2-4.6c2.5-6.2-0.1-12.7,1.7-18.9c0.4-1.4-0.6-2.1-2-2.3c4.9-2,9.9-3.1,15.2-2.7c0,46.8-0.1,93.6-0.1,140.4
		c0,82.1,0,164.3,0,246.4c-15.2,0.4-28.4-5.3-39.3-15.3C204.3,434.4,193.8,423,183,412z"/>
	<path fill="#75C8F9" d="M206.9,98c2.5,1.2,2.4,3.6,1.9,5.6c-0.6,2.8-1.3,5.5-0.3,8.3c0.3,0.9,0.2,1.7-0.5,2.3
		c-1,0.8-1.9,0.3-2.6-0.4c-3.4-3.1-4.2-0.9-4.4,2.3c0,0.7,0.1,1.6-0.3,1.9c-3.2,2.8-4.1,4.9,0.8,7.2c1.9,0.9,0,5.8-2.3,5.6
		c-3.6-0.3-3.7,1.6-3.1,3.8c0.8,3.1-0.8,5.5-1.5,8.2c-0.7,3-2.3,4.5-5.6,4.3c-3.4-0.2-5.2,1.3-4.3,5.3c0.6,2.5,0.2,5.3,0.2,8
		c0.1,3.5,0.1,6.5-5.1,5c-2.5-0.7-4.3,2-5.2,4c-1.3,2.9,2.4,2.2,3.8,3.5c-2.1,1.7-5.4,2.4-3.7,6.1c0.6,1.4-1.2,2.1-2.1,3
		c-1.9,1.9-4.6,3.7,0,5.7c1.6,0.7,1.2,2.7-0.4,2.9c-2.1,0.2-5.2-0.4-4.6,2.6c0.5,2.8,3.8,1.6,6,1.6c0.1,0,0.2,0.2,0.6,0.5
		c-1.1,2.7-4.3,1.6-6.1,3.1c-3,2.4-3.2,3.3,0.1,5c0.8,0.4,1.3,1,1.4,1.9c0.1,1-0.6,1.6-1.5,1.7c-2.2,0.2-3,1.6-3.6,3.5
		c-1.2,3.6-3.6,4.6-7,2.7c-1.2-0.7-2.1-1.1-2.8,0.4c-0.6,1.2,0,2.1,0.8,2.6c1.8,1,3.4,3.1,5.8,1.9c1.5-0.7,2.9-0.9,3.1,0.9
		c0.2,1.9-1.6,3.4-3.2,2.9c-7.1-2.2-9.4,4-13.4,7.2c-0.4,0.4-0.9,1.4-0.7,1.7c2.9,4.8-0.7,9.6,0.1,14.4c0.6,4,1.5,7.8,8.3,4.6
		c-3.1,5.8-7.9,6.1-11.6,7.2c-3.3,1-4.6,3.1-5.7,5.5c-1,2.2-3.4,4.6,0.8,7c2.7,1.5-0.9,2.7-1.6,4.1c-1.2,2.3-2,6-5.6,1.8
		c-0.6-0.7-2.4-0.6-3.2,0.5c-0.9,1.2-0.1,2.3,0.9,2.9c3.5,2.1,3.4,3.8,0.4,6.9c-2.4,2.5-1.5,6.5-0.6,9.9c1.1,4.5-0.5,7.7-5,9.6
		c-0.3-2,4-4.7-0.5-5.8c-3-0.7-5.9,0.1-5.7,4.1c0.1,2.1-1.5,1.6-2.6,2.1c-3.9,2-4,4-2,7.7c1.4,2.7,3.2,4.7,5.1,6.9
		c1.9,2.2-0.4,5.8-4.3,7c-2.5,0.7-4.9-0.3-7.4-0.2c0.4-2.8,2.9-3.2,4.7-5.2c-2-1-3.7-2.2-5.9-1.2c-2.4,1.1-0.5,3.3-1,4.8
		c-0.7,2.2,0.2,4.7-1.5,6.7c-9.6-8.9-19.6-17.6-27.5-28.2C57,278.9,59.5,245,81.4,223.1c40.7-40.8,81.5-81.5,122.2-122.2
		C204.6,99.9,205.8,98.9,206.9,98z"/>
	<path fill="#4FBEF2" d="M291.7,84.1c-4.6,2.9-6.2,1.9-6.7-4.1C287.6,80.8,289.9,82.1,291.7,84.1z"/>
	<path fill="#75C8F9" d="M110,338.9c0.6-0.8,1.3-2.4,2.4-1.1c1.1,1.2-0.2,1.9-1.4,2.1C110.7,339.6,110.4,339.3,110,338.9z"/>
	<path fill="#75C8F9" d="M136.4,285.5c0.9,0.3,1.4,1,1.1,1.9c-0.2,0.5-0.9,1.1-1.4,1.1c-1.1,0-1-1.1-1-1.9
		C135.2,285.9,135.6,285.5,136.4,285.5z"/>
	<path fill="#75C8F9" d="M110.8,332.8c-0.7-0.1-1.3-0.2-1.3-1c0.1-0.9,0.7-1.4,1.5-1.5c0.9-0.2,1.7,0.2,1.5,1.2
		C112.4,332.2,111.6,332.7,110.8,332.8z"/>
	<path fill="#75C8F9" d="M154.7,230.7c-0.1,0.8-0.7,1.1-1.4,1c-0.8-0.1-1.1-0.7-1-1.4c0.1-0.8,0.7-1.1,1.4-1
		C154.5,229.3,154.7,229.9,154.7,230.7z"/>
	<path fill="#78C9FA" d="M197.8,317.5c1.8,1.1,1.4,2.5,1.4,3.8C197.9,320.7,196.9,319.9,197.8,317.5z"/>
	<path fill="#78C9FA" d="M199.8,325.4c-0.1,0.8-0.6,1.3-1.3,1c-0.5-0.2-1-0.9-1.2-1.4c-0.2-0.7,0.3-1.4,1.1-1.4
		C199.4,323.8,199.8,324.6,199.8,325.4z"/>
	<path fill="#78C9FA" d="M204.6,302.5c0,1-0.4,1.4-1.2,1.3c-0.4-0.1-0.9-0.5-1-0.9c-0.1-0.7,0.4-1.3,1.1-1.2
		C204,301.7,204.3,302.2,204.6,302.5z"/>
	<path fill="#75C8F9" d="M116.8,330.9c0.9-0.2,1.2,0.2,1.1,0.7c-0.2,0.5-0.5,1.2-0.9,1.5c-0.5,0.3-0.9-0.2-0.8-0.7
		C116.3,331.8,116.6,331.3,116.8,330.9z"/>
	<path fill="#78C9FA" d="M191.5,384.4c-0.7,0.2-1.1,0.5-1.4,0.3c-0.3-0.1-0.4-0.6-0.6-1c0.3-0.1,0.6-0.4,0.8-0.3
		C190.7,383.6,191,383.9,191.5,384.4z"/>
	<path fill="#4BBDF1" d="M379,327.5c-1.9,2.6-5.6,2.5-5.7,5.8c0,0.7-0.8,1.1-1.5,0.6c-1-0.7-1.8-1.5-1.2-2.9c0.5-1,2.2-2.4-0.3-2.9
		c-2-0.4-2,1-1.6,2.5c0.4,1.7-0.6,2.7-2.1,2.6c-1.5-0.1-1.6-1.4-1.3-2.7c0.6-2.5-3.4-5.9,1.6-7.8c1.1-0.4-0.2-1.8-0.9-2.2
		c-2.4-1.2-3.7-3.2-4.6-5.6c-0.4-1.2-1.8-2.2-0.7-3.5c0.8-0.9,1.8-1.4,3.1-1c1.5,0.5,2.9,1.7,2.8,3.1c-0.3,3.5,0.2,5.3,4.4,4.8
		c2.3-0.3,2.6,2.7,2.8,4.1C374.2,325.6,375.1,327.6,379,327.5z"/>
	<path fill="#4BBDF1" d="M363.1,285.4c0.3,0.2,0.6,0.3,0.9,0.5c0.6,0.5,0.8,1.6,0.4,1.7c-3.7,1.2,0,6.3-3.9,7.3
		c-0.4,0.1-1.1-0.1-1.4-0.4c-2.4-2.4,1.3-3.9,1-6.2C360.1,286.8,361.5,285.6,363.1,285.4z"/>
	<path fill="#4BBDF1" d="M347.8,241c-0.5-0.3-0.9-0.6-1.2-0.8c0.3-0.3,0.5-0.8,0.8-0.9c0.3,0,0.7,0.3,1.1,0.5
		C348.3,240.2,348,240.5,347.8,241z"/>
</g>
</svg>
