<?xml version="1.0" encoding="utf-8"?>
<!-- Generator: Adobe Illustrator 23.0.0, SVG Export Plug-In . SVG Version: 6.00 Build 0)  -->
<svg version="1.1" id="Слой_1" xmlns="http://www.w3.org/2000/svg" xmlns:xlink="http://www.w3.org/1999/xlink" x="0px" y="0px"
	 viewBox="0 0 526 330" enable-background="new 0 0 526 330" xml:space="preserve">
<g>
	<path fill="#FEFEFE" d="M262.5,358c-83.8,0-167.7,0-251.5,0.1c-3.4,0-4.1-0.7-4.1-4.1C7,241.3,7,128.7,6.9,16
		c0-3.4,0.7-4.1,4.1-4.1c168,0.1,336,0.1,504,0c3.4,0,4.1,0.7,4.1,4.1c-0.1,112.7-0.1,225.3,0,338c0,3.4-0.7,4.1-4.1,4.1
		C430.8,358,346.7,358,262.5,358z"/>
	<path fill="#CBC8FC" d="M178,101c16-15.8,31.9-31.6,47.9-47.4c4.8-4.7,10.1-8.6,16.1-11.6c22.3-11.1,49.5-6.7,67.3,10.9
		c15.3,15.1,30.4,30.3,45.6,45.5c1.3,1.3,2.7,2.4,4.1,3.7c2.7,1.2,4.6,3.5,6.7,5.5c5.3,5.3,10.6,10.7,16,15.9
		c2.7,2.6,5.2,5.4,7.3,8.6c3.3,5.1,6.1,10.4,7.5,16.3c4.1,16.7,2.8,32.6-6.9,47.3c-4.2,6.8-10.2,12.1-15.7,17.8
		c-5.1,4.9-10.1,10-15.1,15c-2.1,2-4.2,4.2-6.3,6.3c-11.8,11.7-23.6,23.4-35.2,35.3c-7.4,7.5-15.1,14.5-24.6,19.3
		c-18,7.4-35.7,7-53-2.1c-7.8-5.1-14.8-11.2-21.4-17.8c-14.6-14.6-29.1-29.2-43.7-43.7c-5.6-5.4-10.6-11.5-17-16.2
		c-5.4-5.4-10.3-11.3-13.8-18.2c-1.6-3.2-3.1-6.4-4.2-9.8c-3.9-15.1-2.8-29.8,4-44c2.4-3.1,4.6-6.3,6.7-9.6
		c4.8-5.4,10.1-10.2,15.1-15.4C169.6,108.7,172.9,103.9,178,101z"/>
	<path fill="#BFEFFE" d="M144.9,191c3.1,6.9,8.6,12,13,17.9c-4,6.6-10,11.4-15.7,16.3c-1.4,1.2-3,2.1-4.5,3.2
		c-14.6,7.6-28.9,6.4-42.8-1.9c-10.7-9.3-20.1-19.8-30.4-29.5c-1.6-1.3-3.3-2.3-4.4-4.1c-0.8-1.3-2.1-2.1-3-3.3
		c-1.3-2-3.7-2.9-5-4.9c-1-1.6-2.6-2.9-3.7-4.4c-0.6-0.9-1-1.9-1.5-2.9c-0.7-1.6-1.8-3-2.6-4.5c-0.6-1.5-1.1-3-1.5-4.5
		c-0.2-1.2-0.7-2.2-1.2-3.3c-0.6-1.4-0.9-2.9-1-4.4c-0.1-1.8-0.1-3.6,0.1-5.4c0.3-2.2,1-4.4,1-6.7c1.5-7.2,5-13.3,10.1-18.4
		c9.2-9.2,18-18.7,28.1-27c8-8.9,16.3-17.5,28.8-20.1c14.1-2.9,26.6,0.1,37,10.3c2.4,2.3,4.8,4.5,7.2,6.8c4.6,4.1,10,7.3,13,13
		c-4.6,5.4-9.6,10.5-15.1,15.1c-2.4,0.4-3.5-1.6-4.9-2.9c-4.7-4.6-9.4-9.4-14.1-14c-2.1-2.1-4.3-4.1-7.3-5c-1.1-0.3-2.2-0.8-3.2-1.3
		c-2.4-1.1-4.8-0.6-7.1,0.1c-1.3,0.4-2.6,0.8-3.9,1.3c-2.5,0.8-4.2,2.6-5.9,4.4c-10.3,10.3-20.7,20.6-31,31
		c-11.1,11.1-11.1,19.6,0,30.6c5.6,6.4,12.4,11.7,18.1,18c1.4,1.8,3,3.3,4.6,4.8c0.3,0.3,0.7,0.6,1,0.9c3.3,3.8,7.5,6.5,11.2,9.9
		c2.7,2.5,6.1,3.1,9.8,2.8c5.6,0.5,10-2.2,13.5-6c3.1-3.4,7-6.1,9.6-9.9C142,191.6,143.2,190.5,144.9,191z"/>
	<path fill="#FEF2B4" d="M372.9,213c4.8-5.9,11-10.5,15.1-17c3,2.2,5.3,5,7.8,7.6c3.3,3.4,7.2,5.2,11.9,5.1c0.5,0,0.9,0,1.4,0
		c3.9,0.3,7-1.3,9.8-3.9c2.4-2.3,4.5-4.8,7.2-6.7c5.6-3.9,8.4-10.4,14.1-14.1c5.2-4.2,8.5-10.3,14.1-14.1c8.3-8.2,8.5-17.6,0.3-25.9
		c-11-11.2-22.1-22.2-33.2-33.2c-2.6-2.5-5.3-4.8-8.9-5.6c-1.5-0.3-2.9-0.9-4.5-0.9c-1.1,0-2.2,0.2-3.2,0.5
		c-1.9,0.4-3.9,0.9-5.6,1.9c-5.7,3.8-9.8,9.3-14.7,13.9c-1.2,1.1-2,2.6-3.6,3.4c-5.7-5-11.1-10.2-16-15.9c0.9-3,3.5-4.4,5.9-6
		c2.9-2.7,6-5.3,8.6-8.2c14.3-16,42.3-15.8,56.6-0.3c4.4,4.7,9.8,8.4,13.9,13.5c12.1,11.3,26.7,20.5,32.8,37.2
		c0.6,1.9,1.2,3.7,1.4,5.7c0.1,2,0.9,3.8,0.9,5.8c0.1,1,0,2-0.2,2.9c-0.2,1.2-0.6,2.3-0.7,3.4c-0.1,0.7-0.1,1.4-0.2,2.1
		c-0.2,1.4-0.7,2.7-0.9,4c-0.4,1.8-1.2,3.4-2,5c-0.4,0.8-0.8,1.6-1.2,2.4c-0.9,2-2.1,3.8-3.3,5.6c-1.2,1.6-2.6,2.9-4,4.3
		c-0.8,0.8-1.6,1.6-2.3,2.3c-2.2,2.2-4.5,4.5-6.7,6.7c-1.8,1.7-3.6,3.5-5.3,5.3c-9.7,9-18,19.5-28.8,27.4
		c-13.3,7.6-26.8,8.5-40.5,1.3c-5.7-2.8-10.2-7.1-14.4-11.7C373.7,215.8,372.5,214.8,372.9,213z"/>
	<path fill="#FBFBFB" d="M444,269c-6.8,7.2-15.2,10.7-24.9,11c-4.3,0.2-8.4,2.3-13,1.4c-1.9-0.4-4.2-0.8-6-0.7
		c-7.5,0.4-13.7-4.3-20.6-4.6c-5.4-0.2-11.3,1.7-15.7,6.6c-8,8.8-16.8,17-25.3,25.3c-3.3,3.2-5,8.6-10.9,8.6
		c-4.8,8.4-14.7,10.7-20.7,17.7c-2,2.4-5.7,3.1-9,3c-2.7-0.1-4.3,2.1-6.7,2.7c-10.5,2.9-21.2,4.6-31.8,3c-9.3-1.4-18.7-3.7-27.3-8.4
		c-6.4-3.5-12.3-7.6-18.5-11.4c-1.8-1.1-4-2.4-4.6-5c-0.5-2.5-3-3.6-4.7-4.9c-4.3-3.2-7.5-7.3-11.1-11.2
		c-6.1-6.6-12.8-12.7-19.1-19.2c-1.6-1.6-4-2.9-5.6-5c-3.5-4.6-14.6-6.7-19.4-3.4c-5.5,3.8-12,3.6-17.9,5.6
		c-5.7,1.9-11.5,2.2-16.9,1.3c-7-1.1-14.2-1.8-20.9-4.4c-13.9-5.4-23.3-16.3-33.5-26.7c-5.7-5.8-10.3-13.2-18.1-17.2
		c-0.8-0.4-5.9-2.1-1.6-5.2c4.2-0.5,5.2,4,8.1,5.4c0.3,0.3,0.6,0.6,0.9,1c3.2,2.7,5.4,6.5,9.1,8.6c0.6,0.3,1.1,0.7,1.6,1.2
		c0.9,1.2,2.1,2.2,3.4,3.2c0.3,0.3,0.6,0.7,0.8,1.1c7.3,7.8,13.7,16.6,23.5,21.6c1,0.5,1.9,0.4,2.9,0.1c1.5-0.3,3,0,4.3,0.6
		c12,5.7,24.6,6.1,37.5,4.3c3.7-0.5,5.8-3.7,9.2-4.6c2.8,0.2,5.2-0.8,7.1-2.8c0.4-0.3,0.8-0.5,1.2-0.7c3-1,6.3-1.2,9.3-1.4
		c4.2-0.2,7.5,3,10.5,5.9c7.3,6.8,13.4,14.7,21.2,20.9c1.2,0.9,2.3,2,3.6,2.6c8.3,7.4,15.1,16.4,24.2,22.9
		c8,5.6,15.8,11.7,25.1,15.1c10.1,3.7,20.6,4.3,31.3,3.8c9.5-0.5,18.4-2.8,26.4-7.8c8.5-5.3,17.9-9.8,23.5-18.9
		c0.5-0.9,1.1-1.8,2-2.1c4.3-1.8,6.9-5.6,10.1-8.6c9.3-8.8,17.6-18.7,28.1-26.1c5.9-4.2,12.4-5.5,19.7-2.4c6.6,2.8,13.5,4.3,21,4.9
		c10.8,0.8,19.6-3.6,29-7c1.4-0.5,2.7-1.3,3.8-2.3c6.4-5.9,14.4-9.9,20-16.8c2.3-0.9,3-4.7,6.4-3.8c1.8,2.7-0.2,4.5-1.8,6
		C456.9,257.6,451.1,264,444,269z"/>
	<path fill="#FBFBFB" d="M48,234c-3.8-0.5-4.6-5-8-6c-3.6-1.5-8.3-2-7.5-7.7c-5.8-3.9-6.6-10.4-8.4-16.3c-3-10.1-3.5-20.5-0.9-30.9
		c0.8-3,0.8-6.3,1.9-9.2c3.2-8.5,7.1-16.5,14.9-22.2c2.3-1.7,2.9-5.5,5.6-7.7c7.6-6.1,13.8-13.7,21.3-20.1c3.3-2.8,5.5-7.2,9.4-9.8
		c1.2-0.8,2.3-1.2,3.7-1.2c-6.1,6.8-12.5,13.2-19.3,19.3c-7.9,7.1-14.9,15-17.6,25.7c-6.4,9.1-13.5,17.7-14.8,29.3
		c-0.6,5.9,0.1,11.9,0.2,17.8c0.2,6.3,1.4,12.6,5.2,17.6c4.4,5.8,8,12.2,13.4,17.3C48.2,231,49.2,232.4,48,234z"/>
	<path fill="#FBFBFB" d="M482,144c-4.7-10.6-12.4-18.6-21.1-25.9c-3.9-3.3-7.2-7.3-10.7-11.1c4.1-0.3,5.3,3.4,7.9,5.2
		c4.3,3.1,7.5,6.9,11.1,10.4c7.5,7.3,15.7,14,21.6,22.7c6.3,9.2,12.2,19.2,13,30.4c0.9,13.6,0.4,27.3-6.7,40.1
		c-2.5,4.5-6.5,7.9-8.1,12.9c-0.8,2.3-2.6-0.1-3.8,0.3c-0.8-4.4,4-6.1,4.6-9.8c0.4-3,1.6-5.8,3-8.3c3.5-6.3,4.4-13.3,5.4-20.2
		c0.8-7.3,0.7-14.1-2-21.4c-2.2-6.1-5.1-11.8-7.9-17.6C486.6,148.6,483.2,147.2,482,144z"/>
	<path fill="#FBFBFB" d="M444,269c4.9-6.3,11.4-10.9,16.9-16.6c1.8-1.9,4.4-3.2,4.1-6.4c0.3-0.3,0.7-0.5,1.1-0.6
		c1.2-0.1,1.7-1,2.1-2c0.2-0.4,0.5-0.7,0.8-1c2.6-1.6,4.3-3.9,6.1-6.3c0.9-1.2,1.8-2.4,3.3-2.9c1.3-0.4,2.5-0.1,3.6,0.7
		c-8.8,11.5-20.4,20.2-29.7,31.2C450.1,267.7,446.9,268.1,444,269z"/>
	<path fill="#FBFBFC" d="M166,113c-4.6-4.1-9.1-8.2-13-13c3.1,0,4.7,2.7,7,4.1c4.6,2.9,7.5,2.7,11.6-0.9c1.8-1.6,4.1-2.1,6.4-2.1
		C174.4,105.4,170.4,109.4,166,113z"/>
	<path fill="#FBFBFB" d="M482,234c-1.3,0-2.7,0-4,0c-0.8-0.9-0.6-1.9-0.1-2.7c2.5-3.8,6.1-6.7,8.3-10.7c0.8-1.5,3-2,4.7-0.5
		c-2,3-4,6-6,9C483.6,230.4,481.3,231.3,482,234z"/>
	<path fill="#FBFBFA" d="M370.9,102c-1.5,2.4-3.6,4.3-5.9,6c-2.4-1.6-4.4-3.6-6.1-6C363,102,366.9,102,370.9,102z"/>
	<path fill="#AEA9FD" d="M250,71c4.8-4.4,10.6-6.2,17-6c1.7,1.9,1.7,4.3,1.7,6.6c0,61.9,0,123.9,0,185.8c0,2.3,0.3,4.7-1.6,6.6
		c-7.2,0.4-13.5-2.3-18.5-7.1c-13-12.8-25.7-25.9-38.6-38.8c-0.8-1.2-1.1-2.9-3-3c-1.3-0.7-2.3-1.7-3-3c2.5-2.2,6-2.7,8.6-5
		c-0.5-1.7-1.8-2.9-2.8-4.4c-0.6-0.8-1.5-1.7-1.3-2.6c1.2-7.3,0-16,5.5-21.3c4.9-4.9,3.4-9.9,4-15.1c0.6-4.8-1.2-10.6,5.8-13
		c3.5-1.2,3.2-4.8,2.3-7.8c-0.7-2.3-0.7-4.2,1.3-5.8c0.5-0.4,0.3,0.2,0.3-0.3c0.5-6.1,5.8-10.4,6.2-16.5c0-0.7-0.1-1.6,0.3-1.9
		c3.8-3.5,2.7-9,5.2-13.1c1.3-2.1,2.2-4.5,1.8-7.1c-0.1-0.8-0.2-1.8,0.4-2.4c4.3-4.7,4-11.6,8-16.4C251.4,76.7,252.5,73.9,250,71z"
		/>
	<path fill="#928CF7" d="M267,264c0-66.3,0-132.7,0-199c4.2-0.2,8.3-0.1,12,2.1c2.3,3,3.4,6.6,4.3,10c4.3,16.7,11.4,32.4,16.7,48.8
		c1.8,5.5,2.5,11.4,5.6,16.5c0.6,1,0.4,2.3,0.1,3.4c-0.3,1-1,2.1-0.4,2.9c4.6,5.8,2.6,13.6,6.4,19.8c3.2,5.2,2.9,12,6.2,17.1
		c3,4.7,2.4,10.6,5.6,15.1c2.1,3-1,7.5,0.5,8.8c3.1,2.7,3,5,2.2,8.2c-0.2,0.6,0-0.2-0.2,0.5c-13.1,13.2-26,26.7-39.5,39.6
		C281.4,262.7,274.6,265.3,267,264z"/>
	<path fill="#ABA7FC" d="M250,71c4.7,0.2,3.7,4.1,2.4,5.6c-4.9,5.6-5,13.4-9.6,19.1c-1.7,2.1,0.2,6.1-1.7,9.2
		c-1.5,2.5-4.1,5.1-2.1,8.6c0.1,0.2,0.1,0.8-0.1,0.9c-4.2,2.6-4.7,6.2-3.2,10.5c0.1,0.3-0.4,1.2-0.6,1.2c-4.3,0.7-5.5,2.9-4.1,7.1
		c0.2,0.6-0.1,4.4-3.1,5c-1.5,0.3-1.6,1.5-1,3.1c2.6,6.9,1.7,8.6-5.5,11.7c-0.7,0.3-1.3,0.9-1.9,1.4c3,3-0.8,6.2,0.1,9.5
		c0.7,2.8-1.2,6.2-0.9,9.1c0.4,3.2,0.8,4.9-3.4,5.2c-2.2,0.2-1.2,3.7-2.3,5.5c-1.7,2.8-4.8,6-1.2,9.8c0.3,0.3,0,1.9-0.4,2.2
		c-3.2,2.5-2,4.9,0.3,6.9c3.8,3.4,1.7,5.5-1.5,7.3c-1.9,1.1-3.9,1.8-6.1,1.8c-8.3-8.2-16.4-16.6-25-24.4
		c-6.1-5.5-10.1-11.6-11.1-19.8c-1-8.2,0.9-15.8,6.5-21.5c23.8-24,47.9-47.7,71.8-71.5C247.4,73.6,248.2,71.7,250,71z"/>
	<path fill="#938EF7" d="M326,218.1c-0.4-1.1-1.3-2-0.8-3.3c0.5-1.6,2.2-3.7-1.8-2.7c-0.5,0.1-3.1-2.9-1-4.9c2-1.9,1.2-3.8,0.3-5.4
		c-1.7-3.2-4.3-6-2.8-10c0.1-0.3,0-0.7-0.2-0.9c-4.8-4.9-5.2-11.5-7.3-17.5c-1.4-3.9-2.3-8.3-5-11.7c-0.9-1.2-1.4-2.5-0.7-4.2
		c1.1-2.8,1.2-5.5-2.4-7c-1.4-0.6-1.7-2.2-0.7-3.4c2.3-2.7,0.4-4.5-0.7-7c-2.2-4.9-2.9-10.5-5-15.5c-2.3-5.4-4.5-11.1-5.7-16.5
		c-1.3-5.4-3.6-10.6-5.5-15.5c-3-7.4-3.5-15.5-7.1-22.6c-0.4-0.8-0.4-1.9-0.5-2.9c8.4,3.6,14.1,10.4,20,16.9
		c1.7,3.4,2.1,7.4,4.1,10.7c3.7,6,7.5,11.6,9.3,18.8c1,4.1,6.3,6.2,8.2,10.4c1.8,3.8,5.1,6.3,7.2,10c3.1,5.6,4.4,11.5,5,17.6
		c0.9,8.8,5.3,16,8.9,23.6c2.9,6.1,7.3,11.4,9.3,17.9c-7.6,6.3-13.8,14.1-20.6,21.1C329,215.5,327.5,216.7,326,218.1z"/>
	<path fill="#948EF7" d="M351,193c-7.6-10.7-13.6-22.2-18.1-34.4c-1.9-5.3-1.8-11.3-3.3-16.8c-1.3-4.4-2.4-9-6.8-11.9
		c-1.8-1.2-2.2-4.5-4-6.4c-0.9-1-1.2-2.5-2.2-3.2c-5.1-3.8-7.7-8.7-7.6-15.2c0-2.5-3.3-2.2-4.1-3.9c-2.4-5.5-6.6-10.5-5.8-17.1
		c12.1,11.9,24.2,23.8,36.3,35.7c8.4,8.3,16.8,16.7,25.1,25.1c10.9,11,10.9,28.4,0,39.3C357.3,187.1,354.6,190.6,351,193z"/>
	<path fill="#49BCF0" d="M144.9,191c-3.9,4-7.8,8.1-11.8,12.1c-4.2,4.2-8.7,7.7-15.2,7c-1.2-1.3-1.5-2.9-1.5-4.6c0-0.5-0.1-1,0-1.5
		c0.7-30.7-1.6-61.4-1-92.2c0.1-2.9-1.1-6.5,2.8-8.2c2.3-0.3,2.7,1.5,3.1,3.1c2.6,11.3,5.7,22.5,7,34.1c0.5,4.5,3.7,8.1,4.3,12.6
		c0.9,6.3,4.1,11.9,4.8,18.4c0.3,3.3,0.7,7.4,3.5,10.2C142.3,185,143.6,188,144.9,191z"/>
	<path fill="#FEEE9C" d="M405,104c0.8-1.2,2-0.9,3.2-0.8c1.5,1.9,1.2,4.1,1.2,6.2c0,31.5,0,62.9,0,94.4c0,2.1,0.3,4.4-1.3,6.2
		c-10.1,0.3-15.2-6.6-20.1-13.9c9.5-14.9,11.3-31,7.2-48c2.4-4.2,3.5-8.9,4.3-13.6c1.4-8.5,2.2-17.1,3.5-25.6
		C403.3,107.1,403.4,105.3,405,104z"/>
	<path fill="#C3C3C3" d="M430,225.9c9.3-9,18.7-18,28-26.9c3.3,1,1.5,3,0.9,4.8c-0.4,0.6-0.9,1.2-1.5,1.6c-5,2.3-7.3,7.2-10.5,11.2
		c-1.5,2-2.8,4.1-5.1,5.2c-1.5,0.5-2.4,1.5-3,2.9c-0.9,1.7-2.5,2.5-4.1,3.3c-2.4,0.9-4.1,2.6-5.4,4.7c-0.3,0.4-0.5,0.7-0.9,1
		c-0.9,0.9-1.8,1.8-2.9,2.6c-0.3,0.3-0.7,0.5-1.1,0.7c-0.9,0.5-1.9,0.9-2.8,1.4c-0.4,0.2-0.7,0.4-1.1,0.6c-1.8,0.8-3.7,1.3-5.3,2.3
		c-3.8,3.2-8.4,2.2-12.4,1.4c-4.8-0.9-9.5-2.2-14-4.8c-7.7-4.4-15.9-5.1-24.8-2.2c-10.5,3.5-17.6,10.7-24.2,18.9
		c-2.6,3.2-5.9,5.7-8.9,8.4c-8.1,7.2-14.9,15.6-22.9,22.8c-3.3,3-7,5.6-10,8.9c-4.1,4.8-9.8,6.9-15.6,8.7c-1.3,0-2.6-0.2-3.9,0.2
		c-10.8,3.8-21.1,2.2-30.8-3.5c-1.5-0.9-3.4-1.6-2.9-4.1c1.8-1.5,3.4,0.6,5.1,0.3c11.2,2.5,22.4,5.2,33.6,0.1c4-1.9,7.8-4.2,9.6-8.7
		c15.6-8.3,26.1-22.4,38.6-34.2c6.9-6.5,13.6-13.2,20.3-19.8c1.7-0.1,3.1-1.1,4.6-1.8c13-6.2,25.6-4.7,38,1.8c6.3,3.3,12.6,4.3,20,2
		C421,233.9,425.8,230.8,430,225.9z"/>
	<path fill="#C3C3C3" d="M249,297c-1.7,1.2-2.6-0.8-4-1c-5.5,1-8.2-4-12.4-6c-1.5-0.7-2.8-2.2-4-3.6c-2-3.9-5.6-6.5-8.7-9.4
		c-0.3-0.3-0.6-0.7-0.9-1c-7.8-8.8-16.8-16.4-24.6-25.1c-3.2-3.6-7.3-6.2-10.9-9.4c-8-7.8-17.5-12.4-28.8-12.6c-0.8,0-1.7,0-2.4,0.4
		c-7.5,4.2-16,6.3-23.2,11.3c-6.1,4.2-13.4,3.8-20.1,1.2c-5.2-2.1-9.4-5.9-13.7-9.6c-7.5-6.3-13.4-14.1-21.5-19.7
		c-3.3-3.5-6.4-7.1-9.1-11.1c-1.8-2.7-1.7-3.3,0.4-5.4c7.1,5.8,13,12.8,19.6,19.1c3.5,3.3,6.9,6.6,10.3,10
		c5.4,5.9,11.4,10.8,19.7,12.1c6.3,1,12.1-0.7,16.9-4.7c2.3-1.9,5.6-2.1,7-5c10.8-7.6,22.4-6.3,34.1-2.8c0.8,0.2,1.6,0.4,2.4,0.4
		c8.4,8.2,16.8,16.5,25.2,24.7c12.6,12.4,24.5,25.6,38.8,36.2c1.3,3.1,4.3,4.5,6.6,6.6C247,293.8,249.4,294.4,249,297z"/>
	<path fill="#4BBDF1" d="M140.9,182c-1.5-1.2-5.3-1.2-2.8-4.8c0.2-0.2,0.3-0.8,0.2-0.9c-5.6-4-2.6-10.9-5.4-16.3
		c-2.6-4.9-4.4-11.3-5.6-17.2c-1.3-6.6-2.4-13.3-3.4-19.9c-0.9-6.3-4.2-12.2-3.9-18.8c0.7-0.6,1.3-0.6,2-0.1c1,0.4,2,0.7,3,1.1
		c5.2,6.7,9.6,14,13.7,21.4c2,3.6,4.7,6.8,6.5,10.6C138.3,151.5,137,166.5,140.9,182z"/>
	<path fill="#C0C0C0" d="M249,297c-2-2.5-5-3.8-7.2-5.9c-1.3-1.3-4.6-2-2.8-5.2c9,3.8,17.9,7.2,28,7.2c9.1,0,17.6-1.8,26-5.1
		c0.8,0.1,2.1,0.6,1.4,1.4c-2.5,2.9-4.8,6.9-8.1,8c-6.3,2-12.8,4.9-19.6,3.5C260.8,299.5,254.2,301.2,249,297z"/>
	<path fill="#C1C1C1" d="M430,225.9c-2.2,6.6-7.6,9.5-13.8,10.8c-1.5,0.3-2.8,0.1-3.5,1.7c-0.4,0.9-1.5,1.8-2.4,1.3
		c-6-3-12.8-1.9-18.9-6.2c-5.9-4.2-14.1-4.3-21.8-4c-5.8,0.3-10.7,2.2-15.4,5.3c-1.4,0.9-1.7-0.1-2.2-0.9c1.6-2.4,3.6-4.4,6-6
		c8.2-4.4,16.5-4.9,25.1-1.2c1.9,0.8,3.9,0.7,5.9,0.3C402.9,234.5,416.5,233.1,430,225.9z"/>
	<path fill="#FEED98" d="M405,104c-1.3,9.9-2.9,19.8-3.9,29.7c-0.5,4.8-3,9-3.5,13.8c-0.1,1.3-1.4,1-2.4,0.6
		c-1.6-5.7-4.6-10.8-7.4-16c1-4.4,3.7-8,5.2-12.2c1.6-4.8,4.5-9,6-13.9C400.6,104.1,402.7,103.9,405,104z"/>
	<path fill="#BFC0C0" d="M175,225c-2.9,3.1-6.3,0.6-8.5-0.3c-9-3.6-17.1-1.5-25.2,2.5c-1.1,0.5-2.1,0.8-3.3,0.8
		c-0.3-0.2-0.4-0.5-0.3-0.7c0.1-0.2,0.2-0.4,0.3-0.4c7.7-4.9,13.1-12.3,20-18.1C164.8,213,169.6,219.3,175,225z"/>
	<path fill="#4EBEF1" d="M145.2,137.1c-3.4-0.5-4.2-3.9-5.3-6c-4.3-8.4-10.1-15.8-14.4-24.1c-0.3-0.6-0.3-1.3-0.5-1.9
		c3.1,0.7,5.1,2.9,7.3,5c6.2,6,12.4,12.1,18.6,18.1C149.8,131.6,147.5,134.3,145.2,137.1z"/>
	<path fill="#C0C0C0" d="M388.9,227.1c-2.4,2.8-5.3,1.7-7.6,0.4c-6.1-3.5-12.4-1-18.5-1.1c-1.3,0-1.5,1.6-2.3,2.4
		c-1.3,1.5-1.9,0.2-2.5-0.8c4.6-5.4,9.6-10.3,14.9-15C377.6,218.4,382.5,223.7,388.9,227.1z"/>
	<path fill="#FEEB95" d="M399,106c0.3,3.6-0.6,6.6-2.7,9.7c-3.4,5.1-3.6,12-8.5,16.4c-2.3-2.7-4.6-5.4-6.8-8.1
		C385.8,116.8,391.8,110.7,399,106z"/>
	<path fill="#ABA7FC" d="M207,215c2.5-0.9,2.7-0.6,3,3C208.7,217.4,207.7,216.4,207,215z"/>
	<path fill="#7BCAFB" d="M122,103.9c-0.7,0-1.4,0.1-2,0.1c-3.6-0.4-3,2.2-3,4.3c0.4,16.4-0.2,32.8,0.7,49.3
		c1,17.4,0.2,34.9,0.2,52.4c-8.4,1.3-12.5-5.6-18-9.7c-1.5-1.1-2.6-2.9-3.9-4.4c1.2-5.2,0.5-10.5,0.9-15.7
		c0.8-10.8,4.4-20.7,6.5-31.1c0.3-1.3,0.9-2.5,1-3.9c0.8-12.6,6.2-24.3,7.7-36.9c0.2-1.6,0.7-3.3,1.9-4.5
		C116.7,102.8,119.3,102.2,122,103.9z"/>
	<path fill="#79C9FA" d="M114,104c-1.3,6.6-2.5,13.3-3.8,19.9c-2,9.7-3.6,19.6-6.4,29c-1.1,3.8-2,7.9-2.9,11.5
		c-1.2,4.7-2.7,9.8-2.4,15.3c0.3,4.6-1,9.5-0.4,14.3c0.1,1.2-0.7,1.8-1.8,1.9c0,0-0.1-0.1-0.1-0.1c-0.6-2.8-2.3-4.3-5-4.9
		c-6-6.1-12.6-11.4-18.1-18c4.1-8.3,9-16.2,12.9-24.6c1.9-4.1,6.3-7.2,6.3-12.4c0-0.5,0.2-1,0.6-1.4c7.8-8.7,10.8-20.1,17.3-29.5
		C111.3,104.7,112.7,104.3,114,104z"/>
	<path fill="#77C9FA" d="M110,105.1c0.1,1.4-0.2,2.7-0.9,3.8c-5.5,8.2-7.6,18.4-14.9,25.6c-0.2,0.2-0.6,0.5-0.6,0.8
		c1.1,10.4-11.1,14.6-11.3,25.1c-0.1,4.3-6,8.5-9.2,12.7c-11.4-9.3-12-20.4-1.8-30.7c11-11,21.9-21.9,32.9-32.9
		C105.8,107.7,107.5,105.9,110,105.1z"/>
	<path fill="#E4E4E4" d="M44,168c0.4,1.6,0.7,3.3,1.1,4.9c0.6,5.1-1.8,9.9-1.2,15.2c0.7,6.7,2.7,12.6,6,18.2
		c5.1,8.4,11.8,15.5,19.2,22c2.9,3.2,5.9,6.3,9.4,9c2.3,3,4.4,6.2,8,7.9c0.6,0.3,1.1,0.8,1.6,1.3c8.2,7.5,17.8,11.8,28.9,13.1
		c1.6,0.2,3.4-0.4,4.4,1.5c0,0.8-0.5,1.4-1.1,1.9c-5.3,2.6-10.5,1-15.5-0.5c-6.5-2-12.7-4.9-17.9-9.4c-11.9-10.1-23-21.2-33.2-32.9
		c-9.9-11.4-17.7-24.6-14.7-41.1C39.6,175,40.4,170.9,44,168z"/>
	<path fill="#F7F7F7" d="M28,195c-2.9-1.2-0.3-3.1-0.6-4.6c-2.6-12.6,0.8-23.8,8.3-33.9c1.5-2,2.6-4.2,3.7-6.4
		c0.8-1.6,1.9-2.2,3.6-2c0.3,2.4-0.4,4.7-1,7c-2,6.5-5.7,12.2-8,18.7c-2,5.6-2.1,10.8-1.3,16.1c1.1,7.1,2.1,14.3,6.1,20.9
		c2.1,3.5,4.6,6.5,7.1,9.6c1.4,1.7,2.9,3.2,3.9,5.1c1.7,3.2,4.4,5.6,6.8,8.2c1.2,1.3,3.3,2.4,2.2,4.8c-2.4,0.8-3.7-1-5.1-2.3
		c-5.6-5.6-11.4-11-16.2-17.4C32.3,211.5,29.2,203.7,28,195z"/>
	<path fill="#F3F3F3" d="M49,226c-2.1-2.5-4-5.3-6.2-7.6c-8.5-9-10.6-20.3-11.7-31.9c-1.2-12,4.5-22,10.9-31.5c0,2,0,4,0,6
		c-2,6.8-5.3,13.1-6,20.3c-1.2,11.2,1,21.4,8.1,30.3c0.9,1.2,1.7,2.4,2.4,3.7c1.1,2.2,2.4,4.2,4.1,6.1c0.8,0.8,1.5,1.7,2.2,2.6
		c1.1,1.7,2.9,2.6,4.4,3.9c2.1,1.9,3.7,4.1,2.7,7.2c-1.6,1-2.5-0.2-3.3-1.2C54.3,230.9,51.6,228.6,49,226z"/>
	<path fill="#EAEAEA" d="M44,168c-5.8,9.8-5.5,20.4-2.5,30.5c1.4,4.9,5.4,9.3,8,13.9c4.3,7.4,10.6,12.6,16.2,18.6
		c6.8,7.3,14.2,14,21.3,21c0.5,0.6,0.6,1.3,0.2,2c-2.4,1-3.6-0.8-5.1-2.1c-4.3-3.7-7.9-8-12.5-11.3c-5.4-5.7-10.9-11.2-16.7-16.5
		c-8-9.9-14.7-20.4-16.8-33.3c-1.4-8.7,1.4-16.7,4.3-24.7c0.3-0.9,1.3-1.5,2.4-1.2C43.3,166,43.6,167,44,168z"/>
	<path fill="#D9D9D9" d="M47.9,177c0.4,1,0.7,2,1.1,3c0.5,3.9,1.1,7.9,1.4,11.9c0.5,6.3,3.7,11.6,7.7,16.3
		c6.9,8.7,15.2,16.1,22.5,24.5c1.1,1.9,2.7,3.3,4.2,4.7c1.1,1,2.9,1.9,2.1,4c-0.8,0.6-1.8,0.7-2.8,0.6c-1.5-0.3-2.8-1-3.7-2.3
		c-3-5.2-8.4-8.1-12.5-12.3c-7.7-7.9-15.7-15.7-20.7-25.8c-3.1-6.4-2.7-13.2-3.2-19.9C44,179.9,43.8,176.1,47.9,177z"/>
	<path fill="#C0C1C1" d="M138,226.9c0,0.4,0,0.7,0,1.1c0.4,0.9,1,2.2-0.2,2.6c-6.1,2.3-10.8,7.6-18.2,7.7c-9.4,0.2-17.2-2-22.2-10.3
		c-0.7-1.2-4,0-2.5-2.9C108.9,233.3,123.3,234.5,138,226.9z"/>
	<path fill="#EEEEEE" d="M43,165c-3.9,5.7-5.5,12.5-5.7,19c-0.3,10.5,3.1,20.6,9.1,29.2c2.5,3.6,4.8,7.4,7.6,10.8
		c-0.7,0.5-1.3,0.6-2,0c-1-0.4-1.6-1-2-2c-1.2-2.1-2.4-4.2-4-6c-7.7-8.1-11.6-17.8-11.7-28.8c-0.1-9.4,2.2-18.3,7.7-26.2
		C41.8,162.5,42.3,163.8,43,165z"/>
	<path fill="#CCCCCC" d="M53,184c1.1,2.2,4.2,2.5,4.9,5c-1,3.8,1.6,6.5,3,9.5c3.7,7.9,10.2,13.6,15.8,20c0.7,3.3,4.4,5,4.4,8.6
		c-0.4,0.3-0.8,0.5-1.3,0.5c-2.3-0.2-4-1.6-5.4-3.2c-4.7-5.2-9.2-10.4-14.4-15.2c-1.8-1.7-3-4-3.8-6.4c-0.6-1.9-1.8-3.1-3.1-4.4
		c-1.6-3.2-1.8-6.7-2.2-10.2C50.7,186.7,50.3,184.4,53,184z"/>
	<path fill="#DFDFDF" d="M47.9,177c-2.8,0.6-2.9,2.9-2.9,5c-0.1,13.1,4.2,24.4,13.4,33.9c3.6,3.7,7.1,7.4,10.6,11.1
		c0.6,0.7,0.6,1.3,0,2c-5.8-2.3-8.7-7.7-12.7-11.8c-4.8-5-8.8-10.9-11.2-17.4c-3.2-8.8-4.2-17.9,0-26.9
		C46.8,173.8,47.2,175.5,47.9,177z"/>
	<path fill="#D4D4D4" d="M53,184c-2.5,4,0.6,7.8,0.5,11.7c0,1.1,0.4,2.2,0.6,3.3c1.5,2.1,2.5,4.5,4,6.6c0.8,1.2,1.1,2.3,0,3.4
		c-4.5-3.1-6.7-7.9-8-12.8c-1.4-5.3-2.3-10.7-1-16.2C50.7,181,52.1,182.3,53,184z"/>
	<path fill="#C7C8C8" d="M76,219c-8.5-7.2-14.9-16-19.5-26.2c-0.7-1.6-1.2-3.3,1.3-3.8c0.8,1.2,2.7,1.4,3,3
		c1.8,8.5,7.3,14.7,13.3,20.5c1.9,1.1,3.1,2.9,4.3,4.6c0.2,0.8,0.1,1.5-0.4,2.1C77.3,219.6,76.6,219.6,76,219z"/>
	<path fill="#C6C6C6" d="M74,213c-7.1-4-9.9-11.3-13.7-17.8c-0.6-1-0.5-2.3,0.6-3.1c1.4,1.3,2.7,2.7,4.1,4c-2.1,2.3,0.1,3.8,1.1,5.5
		c2.3,3.8,6.1,6.3,7.9,10.5c0.3,0.2,0.3,0.4,0.3,0.7C74.2,212.9,74.1,213,74,213z"/>
	<path fill="#7BCAFB" d="M91,191c4.2-0.9,5.8,0.7,5,4.9C93.9,194.7,92.4,193,91,191z"/>
	<path fill="#FECF42" d="M426.9,198.8c-2.7,2.7-5.3,5.5-8.3,8c-2.7,2.3-5.9,3.7-9.7,3.1c-0.9-1.6-0.5-3.3-0.5-4.9
		c0-31.7,0-63.3,0-95c0-1,0-2,0-3c0-0.8-0.2-1.8,0.9-2c0.9-0.2,1.5,0.4,2.1,1.1c1,1.2,1.4,2.6,1.7,4.1c2,13.5,4.9,26.8,6.6,40.4
		c1.3,10.4,4,20.6,5.8,30.9C426.5,187.3,428,193,426.9,198.8z"/>
	<path fill="#FECF44" d="M426.9,198.8c-1.6-8.9-3.3-17.8-4.9-26.7c-2.5-14.5-5.2-28.9-7.2-43.5c-0.8-5.9-2.8-11.5-3-17.5
		c-0.1-1.9-0.5-3.9-2.9-6.3c0,35.8,0,70.4,0,105.1c0,0-0.5,0-0.5,0s-0.5,0-0.5,0c0-35.6,0.1-71.2,0.1-106.8c1.6,0.3,3.2,0.7,4.8,1
		c2,1,2.5,3,3.1,4.9c3.7,11.7,7.6,23.4,11.4,35.1c4.2,13.1,9.4,25.9,13.8,38.9c0.2,0.7,0.1,1.3-0.3,1.9
		C435.8,189,432.4,194.9,426.9,198.8z"/>
	<path fill="#FED047" d="M441,184.8c-4.6-10.4-8.1-21.2-11.8-31.9c-5.6-16.2-10.8-32.5-16.1-48.8c3.8,0.8,6.6,2.9,8.9,5.9
		c5.2,11.9,12.9,22.3,19.2,33.6c4.3,7.8,9.1,15.3,13,23.4c0.5,1.2,1.3,2.4,0.8,3.8C450.3,175.5,445.6,180.1,441,184.8z"/>
	<path fill="#FED14A" d="M454.9,170.8c-3.6-6.6-7.2-13.2-10.9-19.7c-4.7-8.1-9.7-16.1-14.5-24.2c-2.6-4.4-4.9-9-7.3-13.5
		c-0.6-1.1-0.8-2.2-0.2-3.3c12.5,11.4,24.4,23.5,36,35.8C464.9,153.1,463,164.5,454.9,170.8z"/>
	<path fill="#E9E9E9" d="M482.1,168c0.3-1.3,0.7-2.7,1-4c4.8,3.5,5.2,9.1,6.1,14.3c3.4,20.2-7.2,34.9-19.5,48.8
		c-6.8,7.7-14.4,14.6-21.7,21.7c-9.1,8.7-19.1,16.5-32.6,17.5c-3.7-0.3-7.2,1.5-10.9,0.6c-2.2-1.1-4.8-0.7-7-1.5
		c-1.7-0.6-3.6-1-2.5-3.6c2-1.4,4.1-0.6,6.2-0.3c12.4,1.6,23.9-0.1,33.6-8.7c8.1-6.8,15.2-14.7,23.1-21.7c10.5-9.7,20-20.1,25-33.9
		c2.4-6.8,2.2-14,0.6-21C482.7,173.5,482.4,170.8,482.1,168z"/>
	<path fill="#EFEFEF" d="M416,265c7-0.3,12.4-4,18.4-7.3c9.7-5.4,16-14.1,23.9-21.2c5.1-4.6,10-9.5,14.4-14.7
		c7.5-9,14-18.6,15.5-30.9c1.2-9.7-0.7-18.4-5.1-26.8c0-0.7,0-1.3,0-2c3.6,0.1,3.3,4.1,5.4,5.6c1.1,3.4,2.6,6.7,3.1,10.3
		c-0.4,1.8,0,3.6,0.5,5.3c0.1,0.7,0.2,1.4,0.2,2.2c-0.3,7.6-3.2,14.6-5.5,21.7c-0.2,5-4.6,7.8-6,12.2c-6.5,7-12.3,14.7-20,20.5
		c-1.9,1.4-3,3.5-4.6,5.3c-10.7,11.8-22.7,21.5-39.1,24c-1.6,0.2-3.3,1.3-4.4-0.8C412.3,265.7,414.7,265.9,416,265z"/>
	<path fill="#D1D1D1" d="M472,185c1-1.7,2.3-3,3.9-4c3.2,0.5,2.6,3,2.5,5c-0.8,8.6-3.3,16.8-8.8,23.4c-6.8,8.3-13.8,16.4-22,23.5
		c-6.4,4.1-11.4,10-17.7,14.4c-7.9,5.6-16.5,7-25.8,6.6c-1.4-0.5-3-0.8-3.4-2.5c2.8-3.4,6.8-2.3,10.2-2.4c3.3-0.1,6.3-0.8,9-2.4
		c5.6-3.5,11.4-6.2,16.3-11.1c4.4-4.4,9.4-8.3,13.8-12.7c5.7-5.7,10.7-12.2,16-18.3C470.6,199,471.5,191.9,472,185z"/>
	<path fill="#CDCDCD" d="M472,185c1.7,1.7,1.1,3.7,0.6,5.6c-1.7,7.2-4.2,13.6-9.8,19.3c-6.8,6.9-12.6,14.9-19.8,21.4
		c-6.7,6.1-13.7,11.8-21.8,16.1c-4.1,2.2-8.6,3-12.9,2.8c-2.6-0.1-4.8,1-7.3,0.7c-3.9-0.1-7.4-1-9.9-4.5c-0.4-0.9-0.8-1.9,0-2.8
		c1.8-1.1,3.6-0.3,5.2,0.4c13.6,5.9,25,1,35.4-7.7c2.5-2.1,5.4-3.8,7.3-6.7c6.1-6,11.9-12.4,17.6-18.8c4.7-5.2,9.1-10.6,10.2-17.8
		c0.4-2.5,2.7-3.8,3.1-6.1C470.6,186.3,471.3,185.7,472,185z"/>
	<path fill="#F6F6F6" d="M484,156c-0.3-2-0.6-4-0.9-6c1.6-1.2,2.8-0.6,3.7,0.9c2.6,4.3,5.6,8.3,7.2,13.4c2.8,8.6,5.8,17.1,4.6,26.4
		c-2,3.5-1.4,7.5-2.7,11.3c-2.8,8.2-7.1,15.2-12.6,21.7c-1.5,0.9-2.8,2.1-3.5,3.7c-1.1,2.2-2.8,3.9-4.9,5.2c-1,0.8-1.9,1.7-2.8,2.6
		c-0.3,0.3-0.6,0.6-0.9,1c-2.4,1.4-3.5,5-7.2,3.8c1.1-5,5.1-7.7,8.4-10.9c3.7-3.5,7.1-7.2,9.5-11.7c4.1-5.8,8-11.7,9.9-18.7
		c3.1-11.3,2.9-22.3-3.1-32.7C486.6,162.8,486.2,159,484,156z"/>
	<path fill="#D9D9D9" d="M447,232c7-7.5,14.3-14.8,21-22.7c6-7,8.4-15.8,9.4-24.9c0.1-1.2-0.2-2.7-1.4-3.5c1-2,2.1-3.9,3.1-5.9
		c3.8,2.8,2.9,7,2.7,10.7c-0.7,15.6-8.7,27.5-20,37.6c-4.5,4-7.4,9.5-12.9,12.4c-0.9,0.4-1.9,0.8-2.9,0.2
		C444.8,234.2,446.4,233.3,447,232z"/>
	<path fill="#DFDFDF" d="M448,235c12.5-11.2,25.4-22.4,31-38.9c2.2-6.6,2.9-14,0.1-21.1c0.3-0.7,0.7-1.3,1-2
		c1.9-0.4,2.2,1.1,2.5,2.3c1.3,5.6,2.3,10.9,1,17c-2.9,13.1-9.8,23.3-19.6,31.9c-1.6,1.3-3,2.7-4.1,4.5c-0.3,0.4-0.6,0.7-0.9,1.1
		c-2.9,2.2-5.4,4.9-8.2,7.2c-1.2,1-2,2.9-4.1,1.7C445.9,237.1,447.4,236.2,448,235z"/>
	<path fill="#F2F2F2" d="M484,156c4.8,4.8,7.2,11,8.9,17.2c1.6,5.8,2.6,11.8,1.5,18.3c-1.7,10.2-5.4,19-12.4,26.6
		c-0.5,0.7-0.9,1.5-2,1c0.5-4.8,5.5-7.3,6-12c2.7-5.5,4.8-11.1,5.4-17.3c0.1-1.6,0.9-3.2-0.4-4.7c0-0.7,0-1.3,0-2c1-1.7-1.4-3.3,0-5
		c-1.4-3.2-2.7-6.5-3-10c-1.9-2.8-3.1-5.8-4-9C484,158,484,157,484,156z"/>
	<path fill="#E3E3E3" d="M463,224c7.9-7.2,14.4-15.4,17.9-25.5c2.9-8.5,4-17.1-0.8-25.5c0.7-1.7,1.3-3.3,2-5
		c5.2,12.8,4.5,25-1.8,37.6c-4.9,9.9-13.4,16.5-19.6,25.1c-0.6,0.8-1.6,1.2-2.6,1.2c-0.6-1.3,0.5-2,1-3v0
		C460.4,227.4,461.8,225.8,463,224z"/>
	<path fill="#C8C8C7" d="M470,187c-1.6,4.7-1.9,9.8-4.7,14.2c-6.4,9.9-14.2,18.5-23,26.2c-0.9,0.8-1.5,1.7-2.3,2.6
		c-0.8,0.6-1.8,0.9-2.8,0.5c-2-1.4-1.2-2.3,0.2-3.8c6-6.5,12.5-12.6,19-18.5c1.5-1.3,2.4-3.1,2.8-5.1c0.5-3.4,2.2-6.2,3.8-9.1
		C465,191.3,467.3,188.9,470,187z"/>
	<path fill="#F9F9F9" d="M498,191c0.1-11.3-3.3-21.9-7.5-32.1c-1.3-3.2-3.7-7-7.5-8.9c-0.4-2-0.7-4-1.1-6c8.1,4.3,10.8,12.8,14,20.1
		c3.5,7.7,4.9,16.5,3.9,25.2c-0.1,0.6-0.6,1.1-0.9,1.7C498.7,191.4,498.3,191.4,498,191z"/>
	<path fill="#C3C3C3" d="M463,194c0.7,0.5,1.4,1.6,0.7,2c-2.8,1.6-2.2,4.8-3.7,7c-0.5,0.6-0.9,1.5-2,1c-0.2-1.7,2.2-3.4,0-5
		C459.3,197,460.9,195.3,463,194z"/>
	<path fill="#F0F0F0" d="M484,159c2.6,2.4,3.2,5.8,4,9c-3.1-0.8-2.3-4.8-4.9-6C483.4,161,483.7,160,484,159z"/>
	<path fill="#F8F8F8" d="M464,240c2.9-0.9,4.4-3.7,7-5c1,4.5-2.7,6.7-5.2,8.7c-2.4,2-4.5,4.2-6.8,6.3c-3.7,4.2-6.3,9.7-12.4,11.3
		c-1.4,0.4-2.7,1.1-3.6,2.5c-1.8,3.2-5.1,4.8-8.2,6.1c-5.8,2.4-12,4.1-17.8,6.6c-4,1.7-7.7-0.6-11.7,0c-8.4,1.1-15.8-2.5-23.4-5.7
		c-5.3-2.2-11.4-0.7-15.8,2.9c-7.4,6.2-14.6,12.7-21.3,19.8c-4.1,4.4-7.8,9.9-13,12.8c-5.7,3.2-7.8,9.8-13.1,12.5
		c-4.2,2.2-7.9,5.2-11.4,7.8c-5.4,4-11.4,5.9-17.1,8.6c-6,2.8-12.6,1.7-18.9,2.7c-6.2,0.9-12-0.8-17.9-1.2
		c-7.3-0.5-13.6-3.7-19.7-7.1c-15.3-8.6-28-20.6-39.7-33.7c-3.2-2.6-6-5.6-8.7-8.8c-1-1.2-2.5-2.3-1.6-4.3c1.6-1.1,3-0.3,3.9,0.8
		c2.7,3.2,6.6,5.2,8.9,8.4c3,4.2,7,6.8,10.8,9.9c2.3,1.7,4.3,3.8,6,6c3.4,4.3,8.8,5.8,12.4,9.7c2.9,3.3,6.4,5.8,10.4,7.5
		c7.5,3.3,14.9,6.4,23.2,7.4c17.5,2,33.2-2.1,47.8-11.8c6.3-4.2,11.8-9.1,17.1-14.5c3.4-2,6.2-4.6,8.1-8.1c0.4-0.6,1-1,1.6-1.4
		c6.6-6.2,13.3-12.3,19.6-18.8c3.8-3.9,7.7-7.7,12.1-10.9c4.8-3.6,9.7-3.6,15.5-2c9.3,2.7,18.6,6.2,28.5,6.2c1.5,0,3,0.1,4.5-0.3
		c12.9-3.1,24.7-8.1,34.3-17.9C453,248.6,458,243.6,464,240z"/>
	<path fill="#F9F9F9" d="M28,195c2.8,5.7,3.7,12.1,7,17.6c6.2,10.1,14.3,18.5,24,25.4c2.8,0.7,4,3.3,5.9,5
		c5.7,5.2,11.3,10.5,17.2,15.5c5.5,7.7,13.9,10.3,22.3,12.9c3.1,0.9,6.5,1.3,9.7,2c7.9,1.5,15-1.5,22.4-3c2-0.4,3-2.6,4.7-3.6
		c3-0.3,5.6-1.5,8.3-2.6c2.3-1,4.9-2.4,6.8,0.7c-1.8,2.5-5.1,1.6-7.2,3.3c-2,1.8-4.1,3.2-7,3c-5.9,6.9-14.3,5.8-22,6.4
		c-8.8,0.7-17.2-1.5-25.2-5.3c-1.5-0.7-3.2-0.8-4.8-1.1c-11.4-4.9-19.1-14.1-27-23c-1.2-1.2-2.6-2-4-3c-0.3-0.3-0.7-0.7-1-1
		c-3.7-2.6-5.2-7.6-10-9c0-0.3,0-0.7,0-1c-1.9-5-6.3-8.4-9.4-12.4c-5.5-7-9.2-14.5-12-22.7C25.8,197,27.7,196.4,28,195z"/>
	<path fill="#F9F9F9" d="M459,250c1.3-5.4,7.6-6.5,9.9-11.3c0.6-1.3,2.2-2,2.1-3.7c1.3-0.7,2.3-1.7,3-3c1.7-1.7,3.3-3.3,5-5
		c1.3-1.1,2.2-2.5,3-4c4.1-2.2,4.8-6.9,7.5-10.1c3.7-4.4,4-10.5,7.1-15.2c1.4-2.2-1.8-5,1.4-6.7c0.3,0,0.7,0,1,0
		c0.5,10.5-6,19.2-8,29c-2.8,0.1-5.1,0.7-5.5,4.2c-0.3,2.6-3.2,3.1-4.4,5c-1,1.6-3.1,2.6-3,4.9c-0.7,1-1.3,2-2,3
		c-2.8,1.5-4.8,3.8-7,6c0,0.3,0,0.7,0,1c-0.9,0.8-1.7,1.9-3,2c-0.3,0-0.7,0-1,0C462.3,246.2,462.1,250.3,459,250z"/>
	<path fill="#F9F9F9" d="M149,268c1.6-2.7,4.4-2.6,7-3c2.6-2.9,5.4-3.7,8.5-0.7c1,1,2.2,1.4,3.5,1.7c3.4,1.6,5.8,4.3,7.8,7.4
		c1.4,3.5,4.7,5.3,7.2,7.8c0.5,0.5,0.9,1,1,1.7c2.3,5.1,7.3,8.1,10,13c-4.7-2.9-8.7-6.5-12.6-10.6c-6.3-6.7-12.1-14.1-20.5-18.4
		c-2.7-1.4-5.4,1.6-8.4,0.8C151.4,267.5,150.2,267.9,149,268z"/>
	<path fill="#FBFBFB" d="M63,248c2.4,0.3,3.9,2.4,4.9,3.8c5.2,7.3,12.1,12.4,19.8,16.6c0.9,0.5,1.5,1.7,2.3,2.5
		c-0.5,0.9-1,2-2.2,1.2c-6.6-4.4-13.1-9.1-18.2-15.3c-1.4-1.8-2.4-3.7-4.7-4.7C63.3,251.5,62.8,249.8,63,248z"/>
	<path fill="#FBFBFB" d="M48,235c6.1-0.1,7.1,5.5,10,9C53.3,242.5,51.7,237.6,48,235z"/>
	<path fill="#F9F9F9" d="M142,271c2.3-1,4.7-2,7-3C147.5,270.9,145.5,272.7,142,271z"/>
	<path fill="#FBFBFB" d="M59,245c1.8,0.3,3.7,0.6,4,3C61,247.9,59.9,246.6,59,245z"/>
	<path fill="#FBFBFB" d="M469,243c0.8-3.8,3.4-5.5,7-6C473.8,239.2,472.9,242.8,469,243z"/>
	<path fill="#FBFBFB" d="M466,246c0.6-1.3,1.6-2,3-2C468.5,245.5,468.6,247.8,466,246z"/>
	<path fill="#C6C6C6" d="M458,204c0.7-0.3,1.3-0.7,2-1c0,6.2-5.2,8.9-9,11.7c-5.6,4.1-8.5,10.7-14.3,14.4c-0.1,0,0.2,0.6,0.3,0.9
		c0.3,0.7,0.3,1.4-0.2,1.9c-5.7,4.9-11.3,9.9-18.7,12.8c-10.2,3.9-19.1,0.8-28.1-3.2c-4.9-2.2-10.2-3.3-15.4-4
		c-4-0.6-8.3,1.2-11.9,2.8c-9,4-16.9,9.7-22.4,18.1c-0.2,0.4-0.5,0.8-0.8,1.2c-4.5,4.4-9.3,8.4-13.4,13.2
		c-5.9,4.2-10.7,9.7-15.8,14.8c-3,2.9-5.8,5.9-9.8,7.4c-1.3,0.3-2.6,0.2-3.6-0.8c8-6.9,16-13.8,22.7-21.9c4.1-5,9-9.4,13.5-13.6
		c6.6-6.2,11.9-14.2,19.7-18.8c8-4.7,16.6-8.6,27-6.2c6.7,1.6,11.9,6.2,18.6,7.3c5.6,0.9,11.1,3.2,16.5-0.8c2.4,0.4,4.3-0.6,6-2v0
		c1.3-0.3,2.4-0.7,3-2c0.3,0,0.7,0,1,0c1.3-0.7,2.3-1.7,3-3c2.5-1.5,4.1-3.9,6-6c1.5-0.8,3.3-1.2,4-3c0.8-1.2,1.8-2.2,3-3
		c2.3-1,3.3-3.4,5-5c4.1-3.2,6.3-8.4,11-11C457.3,204.7,457.7,204.3,458,204z"/>
	<path fill="#C6C6C6" d="M229,286c5.3,3.3,9.8,8.1,16,10c5.5,6.4,12.8,8.6,20.8,8.3c4.6-0.2,9.5,1.2,13.6-2.2
		c0.6-0.5,1.9-0.1,2.6,0.9c0.6,1.9-0.8,2.7-2,3.6c-0.5,0.2-0.9,0.4-1.4,0.5c-2.4,0.2-4.8,0.4-7.1,1.1c-9.4,1.3-18.1-0.4-25.9-6
		c-2.2-1.6-5-1.9-7.1-3.6c-7-5.9-13.7-12.2-20.3-18.5c-1.4-1.4-3.8-2.7-1.5-5.2c1.4-0.5,2.3,0.4,3.2,1.2
		C222.4,279.9,226.7,282.1,229,286z"/>
	<path fill="#C7C7C7" d="M280,306c0.7-1,1.3-2,2-3c5.1-2.9,11.3-3.8,15-9c1.3,0,2.7,0,4,0c0.6,0.7,0.6,1.4,0.2,2.2
		c-4.8,2.5-8.1,7.2-13.3,9C285.3,306.1,282.8,307.9,280,306z"/>
	<path fill="#C3C3C3" d="M457,205c-3.1,4.2-6.3,8.3-11,11c1.7-3.6,4.7-6.2,7-9.4C453.9,205.4,454.9,203.7,457,205z"/>
	<path fill="#C3C3C3" d="M434,227c-1.2,2.8-1.9,6.1-6,6C429.1,230.1,431.1,228.1,434,227z"/>
	<path fill="#C3C3C3" d="M421,238c-1.3,2.7-3.3,3.6-6,2C417,239.3,419,238.7,421,238z"/>
	<path fill="#C3C3C3" d="M441,221c-0.7,1.3-1.7,2.3-3,3C438.1,222.1,439.1,221.1,441,221z"/>
	<path fill="#C3C3C3" d="M424,236c-0.1,2-0.8,3.1-3,2C422,237.3,423,236.7,424,236z"/>
	<path fill="#C3C3C3" d="M428,233c-0.1,1.9-1.1,2.9-3,3C425.7,234.7,426.7,233.7,428,233z"/>
	<path fill="#C6C6C6" d="M74,213c0-0.3,0-0.7,0-1c5,1.4,7.3,6,11.1,8.9c0.6,0.5,0.8,1.5,1.4,2c7.7,5.8,13.5,14.5,22.8,17.8
		c6.8,2.4,14.2,3.4,20.6-2.3c2.3-2,5.6-2.9,8.4-4.3c3.3-1.5,6.8-2.5,9.9-4.5c6.1-3.9,12.9-2,18.7-0.1c6.4,2.1,13.1,5.1,17.1,11.5
		c-1.2,1-2.5,0.5-3.7,0c-3.7-1.2-6.5-3.9-9.9-5.6c-10.8-5.5-20.6-2.1-30.2,3c-4.8,2.6-9.6,5-14.8,6.8c-5.2,1.8-10,1.7-15-0.3
		c-2.9-1.5-5.3-4-8.6-4.9c-1.9-0.8-3.9-1.6-5.4-3.2c-1.3-2.1-3-3.7-5.1-5c-0.4-0.3-0.7-0.6-1-0.9c-1-1.5-2.4-2.4-3.9-3.2
		c-1-0.6-1.7-1.4-2.3-2.3c-0.8-1.5-1.6-3-3.4-3.6c-0.4-0.2-0.7-0.5-1.1-0.8c-1-1.2-0.5-3-1.7-4.2C75.6,216.7,75.2,214.4,74,213z"/>
	<path fill="#C6C6C6" d="M181,240c1,0.3,2,0.7,3,1c4.4,2.3,8,5.7,11.4,9.2c5.4,5.6,10.7,11.2,16.4,16.4c3.1,2.8,5.5,6.3,8.2,9.4
		c-1-0.3-2-0.7-3-1c-4.3,1.1-6-2.8-8.3-4.8c-4.3-3.6-8.2-7.6-12.3-11.5c-3.8-4.8-8.3-8.9-12.8-13C182.1,244.3,179.5,243,181,240z"/>
	<path fill="#C6C6C6" d="M229,286c-3.1-3.2-7.8-5.1-9-10C223.5,278.9,227.9,280.9,229,286z"/>
	<path fill="#DFDFDF" d="M121,261c-11.7,0.3-21.6-4.6-31-10.7c-1.2-0.8-2-2.2-3-3.3c0.8-1.7,2.1-1.4,3.5-0.9
		c0.4,0.2,0.8,0.4,1.2,0.7c2.6,2.7,5.8,4.4,9.4,5.6c0.7,0.3,1.3,0.6,1.9,1c13.4,6.3,26,3.2,37.8-3.9c4.5-2.7,9.3-4.4,14.1-6
		c3.8-1.3,10.9,1.7,12.3,4.5c-1.2,1.3-2.8,1.2-4.2,0.8c-7.8-2.3-14.2,1.2-20.6,4.6c-2.9,1.6-5.8,3.1-8.8,4.6
		C130,261.1,125.9,262.6,121,261z"/>
	<path fill="#E5E5E5" d="M121,261c4.1-1,8.8-0.2,12-4c4.9-0.3,8.8-3.3,12.7-5.5c12.6-7.2,22.5-2.5,31.5,5.5c2.7,2.4,6.6,4.3,6,9.1
		c-2.3,1.3-3.7-0.6-5.4-1.4c-3-2.1-5-5.2-7.8-7.5c-8.7-7.1-17.6-4.3-26.3-0.2c-2.5,1.2-4.8,2.8-7.3,4.1c-3.5,1.2-6.9,3.2-10.7,3.2
		c-2,0-4.7,1.1-5.6-2.2C120.3,261.7,120.7,261.3,121,261z"/>
	<path fill="#EAEAEA" d="M120,262c4.3,2.4,8.4,0.6,12.3-1c1.6-0.6,3.1-1,4.7-1c0.1,0.2,0.2,0.4,0.2,0.6c-0.2,2.8-3.5,2-4.5,3.8
		c-8.8,3-17.8,2.3-26.7,1.3c-0.5-0.1-0.9-0.2-1.4-0.3c-4.6-2.2-9.3-4.3-13.7-7.1c-1-1.8-3.9-1.8-3.9-4.4c0-0.7,0-1.3,0-2
		c7,5.2,14.6,9,23.3,10.6C113.5,263.2,116.8,263.6,120,262z"/>
	<path fill="#DDDDDD" d="M69,229c0-0.7,0-1.3,0-2c3.7,4.3,9.8,6.2,12,12c-1.3,0.6-2-0.5-3-1C74.3,235.7,70.8,233.2,69,229z"/>
	<path fill="#DFDFDF" d="M78,238c1,0.3,2,0.7,3,1c1,0.7,2,1.3,3,2c0.3,0.3,0.6,0.6,1,0.9c1,1.2,2.4,2.3,1,4.1
		C82,244.7,79.8,241.5,78,238z"/>
	<path fill="#DDDDDD" d="M86,246c0.1-1.7-1.4-2.6-2-4c3.1-1.1,4.2,1.8,6.3,2.9c0.3,0.8,0.3,1.5-0.3,2.1c-1-0.6-2-0.6-3,0
		C86.7,246.7,86.3,246.3,86,246z"/>
	<path fill="#F5F5F5" d="M81,259c-5.7-4.7-11.1-9.6-16.4-14.8c-2-2-4-3.9-5.6-6.2c-2.9-4.4-7.9-7-10-12c3.5,1.9,6.7,4,8.5,7.7
		c0.5,1,1.5,1.2,2.5,1.3c0.2,0.1,0.4,0.2,0.6,0.3c4.5,3.8,7.6,9.2,13.2,11.8c5.8,4.4,10.4,10.1,16.9,13.8c4.1,2.3,8.3,4.1,12.7,5.5
		c6.3,2.9,13.2,2.5,19.9,3.5c0.2,0.4,0.3,0.9,0.2,1.4c-1.7,2.7-4.3,2.6-7,2.4C103.2,272.3,91,268.3,81,259z"/>
	<path fill="#EFEFEF" d="M52,224c0.7,0,1.3,0,2,0c5.7,5,11.7,9.6,16,16c1.2,1.1,3.1,1.7,2.3,3.9c-0.4,0.3-0.8,0.5-1.3,0.5
		c-4.8-1.8-7.1-6.5-11-9.4c0,0,0,0,0,0c-1-3.6-2.7-6.6-6.3-8.2C52.5,226.3,52,225.2,52,224z"/>
	<path fill="#EFEFEF" d="M46,216c2.4,1.3,3.6,3.4,4,6C47.9,220.5,46.6,218.5,46,216z"/>
	<path fill="#EDEDED" d="M72,244c0.1-1.7-1.4-2.6-2-4c5.4,2.1,8.2,7.5,12.7,10.8c1.4,1,2.7,2.4,4.3,3.2c1.2,1.5,4.2,1.1,4,4
		c-0.2,0.1-0.4,0.3-0.6,0.4c-2.1,0.4-4.1-0.2-5.6-1.6C80.4,252.8,75.3,249.3,72,244z"/>
	<path fill="#D5D5D5" d="M87,241c-2-3-6.3-3.9-7-8c3.5-0.4,5.2,2.4,7.5,4.2c6.4,5.3,12.8,10.3,21,12.8c10.3,3.2,19.8,1.9,28.8-3.9
		c5.5-3.8,11.4-6.6,18.1-7.2c10-0.9,17.9,3.8,25.1,10c6.1,5.3,11.4,11.4,17.3,17c1.3,1.3,2.4,2.7,2.9,4.6c0,0.5,0,1-0.2,1.4
		c-3,1.2-3.9-2-5.9-2.7c-0.4-0.2-0.7-0.5-1.1-0.9c-1.5-1.9-2.9-3.9-5.2-5c-5.1-4.5-9.6-9.7-15.1-13.7c-11.8-8.5-19.3-7.5-31-0.7
		c-5.6,3.3-11.7,5.1-17.7,7.3c-4.9,0.4-9.8-0.1-14.8-0.2c-1,0-2-0.2-2.8-0.8c-1.6-1.3-3.7-1.7-5.6-2.6c-1.3-0.3-2.6-0.7-3.6-1.6
		c-0.9-1.2-2.1-1.9-3.5-2.4c-0.6-0.3-1.1-0.7-1.5-1.1c-1.1-1-1.6-2.5-3-3.2C88.2,243.5,86.5,243.1,87,241z"/>
	<path fill="#D2D2D2" d="M138,247c-11.7,8.8-28.8,7.1-40.4-0.6c-6.2-4.1-11.3-9.5-17.6-13.4c-7-6.3-13.3-13.3-19.7-20.2
		c-1-1.1-1.6-2.5-2.3-3.8c0.4-4-4.4-6-4-10c1,0.2,1.9-0.3,2.6,1.4c4.4,10.6,14.1,17,21.2,25.4c0.5,0.6,1.4,0.8,2.2,1.2
		c5.2,4.3,10.5,8.6,15.3,13.4c6.9,7.2,16,8.5,25.2,9.2c5.5,0.5,10-3.2,15.2-4.4C136.8,245.3,137.6,245.9,138,247z"/>
	<path fill="#DADADA" d="M87,241c1,1,2,2,3,3c0.3,0.2,0.4,0.4,0.3,0.7c-0.1,0.2-0.2,0.3-0.3,0.3c-2.9,0.8-3.4-3.3-6-3
		c0-0.3,0-0.7,0-1C85,241,86,241,87,241z"/>
	<path fill="#C9C9C9" d="M181,240c1,3.8,4.2,5.7,6.9,7.9c3.5,2.9,6.5,6.3,9.1,10.1c-0.3,0.4-0.7,0.6-1.2,0.7
		c-5.9-1.6-9.3-6.7-13.2-10.7c-3.9-4.1-7.9-7.4-13-9.4c-7.6-5-14.9-4.1-22.9-0.2c-11.1,5.4-21.9,12.8-35.4,10.2
		c-4.5-2.1-9-4.2-13.4-6.6c-0.6-0.3-1.2-0.8-1.7-1.3c-3.8-4-8.5-7.1-12.6-10.9c-1-0.9-2.3-1.4-2.6-2.8c-1.6-2.7-4.8-4.4-5-8
		c0.7,0,1.3,0,2,0c2-0.6,1.1,1.6,2,2c0.3,0,0.7,0,1,0c1.4,1.2,2.3,3.1,4,4c0.4,1,1,1.6,2,2c0.8,1.8,3.1,2.2,4,4c2.2,1.4,3.8,3.5,6,5
		c1.3,1.6,3.3,2,5,3c2.5,2,5.4,3.3,8,5c11.6,3.8,21.1-1.8,30.4-7.3c10.5-6.2,21.3-7.2,32.3-2C175.6,236.1,177.9,238.8,181,240z"/>
	<path fill="#CCCCCC" d="M81,227c5.8,3.8,11.1,8.2,16,13c-0.8,0.9-1.7,1.5-3,1c-3.5-3.2-6.9-6.4-10.5-9.5c-1.5-1.3-3.5-2.1-3.5-4.5
		C80.3,227,80.7,227,81,227z"/>
	<path fill="#C6C6C6" d="M80,221c-0.7-0.7-1.3-1.3-2-2c0-0.7,0-1.3,0-2C79.8,217.8,80.1,219.3,80,221z"/>
	<path fill="#E6E6E6" d="M436,253c-6,6.6-14,8.7-22.4,10.1c-6.4,1.1-12.4-1-18.6-1.1c-1.1,1.1-2.4,1.1-3.7,0.4
		c-6.8-3.9-14.4-3-21.7-3.9c-2.1-0.2-3.2,2.3-5.2,2.2c-2.9,1.5-5.4,3.5-8.1,5.3c-1.3,0.9-2.6,2.2-4.4,0.7c-0.9-2.5,1.3-3.6,2.5-4.9
		c9.5-9.9,20.4-12.2,33.1-7c2,0.8,4,1.6,6,2.5c8.4,3.9,17.1,3.2,25.7,1.2c4.7-1.1,9.2-2.7,13.2-5.6C433.5,252.2,434.8,251.9,436,253
		z"/>
	<path fill="#EDEDED" d="M364,260c8.2-3.9,16.4-2.6,24.6,0.1c2.1,0.7,3.9,2.5,6.4,1.9c1.2,3,4,2.6,6.4,2.6c1.3,0,2.1,0.2,2.6,1.3
		c-0.1,0.2-0.2,0.4-0.4,0.7c-4.3,1.5-8.3,0.5-12.1-1.6c-3.9-2.1-8.2-3-12.6-3.2c-10.4-0.7-17.8,4.5-24.1,12
		c-1.8,1.5-3.6,2.9-5.3,4.4c-1.4,0.8-2.4,2-3.3,3.3c-5.6,4.4-9.5,10.5-15.1,14.8c-1.3,0.9-2,2.8-4.1,1.8c-1.3-2.4,0.5-3.7,1.8-5.1
		c2.6-2.7,5.1-5.6,7.8-8.2c2.3-1.8,4.4-3.9,6.2-6.2c2.6-2.1,5-4.5,7.1-7.1C353.8,266.8,359.6,264.3,364,260z"/>
	<path fill="#E2E2E2" d="M436,253c-1.4-0.1-2.3,0.7-3.5,1.4c-10.9,6.9-22.9,8.2-35.4,6c-1.6-0.3-3.4-0.6-4.1-2.5
		c0.7-0.9,1.7-1.1,2.7-1.2c3.2,0,6.3,0.6,9.4,1c9.2,1.2,17.3-1.4,24.9-6.4c5.3-3.5,10.3-7.2,14.8-11.7c0.6-0.6,1.3-1,2.2-0.6
		c4.3-3,7.2-7.6,12-10c-0.3,1-0.7,2-1,3C451,239.3,443.8,246.5,436,253z"/>
	<path fill="#EDEDED" d="M416,265c-1,1-2,2-3,3c-1.7,1.6-3.7,1.3-5.7,1.2c-1.7-0.4-3.5-0.8-3.3-3.2c0,0,0,0,0,0
		C408,266.2,411.9,264.4,416,265z"/>
	<path fill="#F4F4F4" d="M407,268c2,0,4,0,6,0c9.3-0.4,18.4-2.8,25.4-8.6c5.9-4.8,12.5-9,17.3-15.3c4.9-6.5,11.4-11.5,17.2-17.2
		c2.5-2.4,4.1-5.7,7.1-7.8c0.7-0.3,1.3-0.7,2-1c-1.6,5-5.3,8.5-9,11.9c-3.3,3.1-6.8,6-9,10.1c-3.9,4.4-8.2,8.3-12.9,11.9
		c-4.1,3.2-7.4,7.6-11.9,10.5c-12.6,8-25.8,12.8-41.2,8.9c-6.6-1.7-13.1-3.5-19.5-5.6c-4.3-1.4-8.7-0.2-12.6,2.3
		c-0.9,0.7-1.8,0.9-2.9,0.3c-0.9-2.6,1.3-3,2.8-3.8c6-3.4,12.4-3,18.8-1.4c0.5,0,0.9,0.2,1.4,0.3c2,1.6,4.3,2.5,6.9,2.5
		c3.3,0.8,6.7,0.7,9.8,2.5C404,269,405.7,269.2,407,268z"/>
	<path fill="#F0F0F0" d="M491,185c3,1.8,1,4.7,0.8,6.7c-0.5,5.5-1.4,11.1-5.8,15.3c0.3-5.7,3.8-10.5,4.3-16.2
		C490.5,188.9,491,187,491,185z"/>
	<path fill="#F0F0F0" d="M491,178c-0.2,1.7,2.2,3.3,0,5C490.3,181.3,489.1,179.7,491,178z"/>
	<path fill="#D3D3D3" d="M392,246c1.9,3.6,6.4,2.6,9,5c1,0.7,2,1.3,3,2c0.3,0.9-0.2,1.3-1,1.6c-0.5,0.1-1,0.1-1.4,0
		c-6.3-1.6-11.9-4.9-18.1-6.7c-5.8-1.7-11.3-2.2-16.9-0.1c-6.8,2.5-12.7,6.4-17.3,12.2c-1,1.3-2.2,2.5-3.8,3.1
		c-1.2,0.5-2.3,0.9-3.5,0.1c-0.7-1.7,0.5-2.9,1.5-3.9c7-7.1,14.3-13.9,24.1-17c5.6-1.8,11.2-0.2,16.6,0.9
		C386.8,243.8,389.6,244.4,392,246z"/>
	<path fill="#D5D5D5" d="M403,254c0.3-0.3,0.7-0.7,1-1c6.7,0,13.5-0.4,19.5-3.3c5.4-2.6,10.4-6.2,14.6-10.7c2.7-2.8,5.7-5,8.8-7.1
		c-0.3,1.3-0.7,2.7-1,4c-0.1,0.2-0.2,0.4-0.3,0.6c-1,1-2.2,1.9-2.9,3.2c-0.5,0.7-1.1,1.4-1.8,1.9c-1.7,1.1-3.2,2.6-5.1,3.5
		c-6.5,4.7-13.2,8.9-21.3,10.4c-3,0.6-5.9,0.8-8.9,0.5C404.5,256,402.8,256.1,403,254z"/>
	<path fill="#CACACA" d="M339,258c5.5-6.6,11.1-12.7,19.3-16.9c4.6-2.3,9.7-2.5,14.1-5.2c2.1-1.3,6.2,0.9,9.4,1.5
		c5.8,1.1,11.1,3.6,16.4,5.9c10.2,4.4,19.2,1.8,27.7-4.2c3.9-2.8,8.3-4.9,11.1-9.1c1,0,2,0,3,0c-6,7.3-13.1,12.9-22.1,16.1
		c-8,2.8-15.5,2.4-23.1-1.2c-1.1-0.5-2.5-0.6-3.8-0.9c-0.3,0.3-0.7,0.4-1.2,0.3c-1.4-0.7-2.7-2.1-4.6-1.5
		c-12.8-5.3-23.5-0.5-33.7,6.9c-3,0.8-4.7,3.1-6,5.7c-0.6,1-1.3,2-2.4,2.6C341.8,258.8,340.4,259.2,339,258z"/>
	<path fill="#CECECE" d="M390,244c0.3,0,0.7,0,1,0c0.3,0.7,0.7,1.3,1,2c-4.7,0.9-9-1.6-13.3-2.6c-7.7-1.7-14.4,0.3-20.1,4.3
		c-6.1,4.3-12.4,8.8-16.7,15.3c0.1,0.9-0.2,1.7-0.7,2.5c-0.7,0.9-1.5,1.7-2.4,2.4c-5.5,4.3-10.6,9.1-15.6,14c-1.2,1.2-2,3.4-4.4,2.1
		c-1-4.3,2.7-6.3,4.8-8.6c3.5-3.9,7.1-7.9,11.3-11.2c2.9-2.2,5.5-4.6,7.9-7.2c0.7-0.7,1.3-1.3,2-2c1.7-2.3,3.6-4.4,6-6
		c7.7-4.9,14.7-11,25.2-9.3c3.4,0.5,6.5,1.8,9.8,2.3C387.5,242.3,388.7,243.3,390,244z"/>
	<path fill="#F8F8F8" d="M482,223c0.1,2.2-0.4,3.9-3,4C479.1,225,480.4,223.9,482,223z"/>
	<path fill="#F8F8F8" d="M474,232c-0.1,1.9-1.1,2.9-3,3C471.7,233.7,472.7,232.7,474,232z"/>
	<path fill="#DDDDDD" d="M441,241c0.3-0.7,0.7-1.3,1-2c1.4-0.9,2.6-2.1,4-3c0,0,0,0,0,0c0.7-0.3,1.3-0.7,2-1c-0.3,1.3-0.7,2.7-1,4
		c-5.3,6.4-12.1,11.1-19.1,15.3c-8.8,5.3-18.5,6.1-28.4,4c-1.1-0.2-2.3-0.2-3.4-0.3c-7.4-2.5-14.4-5.9-22.4-6.3
		c-4.1-0.2-7.3,1.6-10.7,3.5c-7.1,3.9-12.2,10.1-18.3,15.3c-1.1,1-2,2.2-3.4,2.9c-0.7,0.2-1.4,0.2-2.1-0.3c-0.7-3.1,1.8-4.7,3.3-6.8
		c5-4.4,9.5-9.2,14.7-13.4c9.3-7.5,19.5-8.1,30.2-3.6c3.1,1.3,6.1,2.6,9,4.1c12.3,5.4,23.5,2.4,34.1-4.8c1-0.7,1.9-1.4,2.8-2.1
		C436.3,245.3,438.5,242.9,441,241z"/>
	<path fill="#E2E2E2" d="M463,224c-0.6,2.3-1.5,4.3-4,5C459.2,226.5,461.1,225.2,463,224z"/>
	<path fill="#F4F4F4" d="M325,307c-7.5,9-16.7,16.2-27.2,20.8c-10.8,4.8-22.3,7.8-34.4,6.7c-13.3-1.3-25.5-5.4-36.3-13.4
		c-1.1-0.8-2.1-1.6-2.1-3.1c2.9-0.3,5,1.6,7.4,2.8c0.4,0.2,0.7,0.5,1.1,0.7c1,0.8,2.2,1.3,3.5,1.4c3.2,0.4,5.1,3.1,7.8,4.3
		c3.4,1.7,7.2,2,10.9,2.6c0.5,0,0.9,0.1,1.4,0.2c1.6,0.4,3.1,0.8,4.8,0.6c12.8-0.4,25.1-2.1,37-8.2c10.2-5.2,17.4-13.6,26.4-20
		c0.8-0.2,1.5-0.1,2.1,0.4C328.4,305.3,325.5,305.5,325,307z"/>
	<path fill="#F5F5F5" d="M184,283c-0.3-0.3-0.7-0.7-1-1c-2.3-3-5.6-5-8-8c-1.9-2.7-4.3-5.1-7-7c-1.9-1.5-4.9-2.1-4.9-5.3
		c5-2.1,7.6,2.2,9.9,4.7c8.7,9.5,19,17.3,27.6,26.8c1.7,1.7,3.4,3.4,5,5.2c1.1,1.3,2.8,2.5,1.4,4.5c-7.6-4.2-12.3-11.5-18.6-17
		C187,284.8,186.1,283,184,283z"/>
	<path fill="#F3F3F3" d="M207,303c-0.8-4.2-5.3-5.5-7-9c0.3-0.4,0.7-0.6,1.2-0.8c1.9-0.4,3.1,0.6,4.3,1.9c4.1,4.4,9,7.9,12.9,12.4
		c2.8,5.1,7.8,7.3,12.6,9.8c0.6,0.3,1.2,0.8,1.7,1.3c0.7,1,1.4,2.1,0.4,3.3c-2.9-0.9-5.5-2.4-8-4C217.7,314.6,212.2,308.9,207,303z"
		/>
	<path fill="#F4F4F4" d="M363,268c1,0,2,0,3,0c-7.1,6.7-14.2,13.5-21.4,20.1c-3.6,3.3-6,7.8-10.6,9.9c-0.6-0.5-0.8-1.2-0.8-1.9
		c2.5-5.8,8-9,12-13.4c1.7-1.5,3.1-3.2,4.6-4.9c1.6-0.7,2.3-2.8,4.1-3.3C356.9,272.3,358.6,268.3,363,268z"/>
	<path fill="#F4F4F4" d="M325,307c0.7-1.3,1.3-2.7,2-4c0.1-0.7,0.4-1.2,0.8-1.7c0.7-0.8,1.5-1.6,2.3-2.3c0.4-0.3,0.7-0.5,1.2-0.6
		c0.7-0.1,1.3,0,1.8,0.6C331.4,302.7,328.7,305.4,325,307z"/>
	<path fill="#F4F4F4" d="M333,299c-0.7,0-1.3,0-2,0c-0.2-2.2,0.8-3.2,3-3c0,0.7,0,1.3,0,2C333.7,298.3,333.3,298.7,333,299z"/>
	<path fill="#F7F7F7" d="M81,259c5.9,2.4,10.4,7.2,16.6,9.4c1.7,0.6,3.7,1.8,5.4,1.9c6.7,0.4,13.2,5,20.1,0.7
		c5.4-2.9,11.7-2.6,17.4-4.3c0.2,0.1,0.4,0.2,0.6,0.3c-1.8,6.3-8,4.8-12.2,6.6c-5.3,2.3-11.2,1.9-16.7,0.7
		C100.5,271.8,88.7,269.5,81,259z"/>
	<path fill="#F7F7F7" d="M163,262c1.6,1.7,4,2.7,5,5c-0.9-0.2-2.4,0-2.8-0.6c-2.7-3.7-5.9-2.9-9.2-1.4c-2.6-2.3-4.9-0.5-7.2,0.6
		c-2.5,1.2-4.8,2.9-7.8,1.4c0,0,0,0,0,0c-0.3-0.9,0.2-1.7,0.9-2.1c4.5-2.9,9.3-5,14.7-5.6C158.9,259.1,161.6,259.3,163,262z"/>
	<path fill="#F8F8F8" d="M175,274c3.5,1.8,6.6,4.1,8,8C179.5,280.2,176.4,277.9,175,274z"/>
	<path fill="#CACACA" d="M336,265c-6.2,5.9-13,11.2-17,19c-0.1,0.2-0.2,0.4-0.3,0.6c-2.7,1.9-4.6,5.5-8.9,4.4
		c-0.3-1.1,0.4-2,1.1-2.6c5.5-4.3,9.2-10.5,15.1-14.4c3-5.7,8.1-9.2,13-13C340.4,262.2,336.6,262.8,336,265z"/>
	<path fill="#CACACA" d="M326,272c-5.3,5.7-10.7,11.3-16,17c0.5,5.1-4.1,5.4-6.9,7.5c-0.8,0.2-1.5,0.1-2.1-0.5c0-0.7,0-1.3,0-2
		c7.1-6.2,14.4-12.3,20.2-19.9C322.4,272.5,324.3,272.5,326,272z"/>
	<path fill="#CBCBCB" d="M336,265c-0.2-2.6,3.2-3.4,3-6c0-0.3,0-0.7,0-1c1.5,0.2,2.8-0.3,4-1C341.9,260.8,338.7,262.7,336,265z"/>
	<path fill="#CACACA" d="M301,296c0.7,0,1.3,0,2,0c-1.3,4.4-5.2,6.5-8.7,8.2c-4.5,2.3-9,4.8-14,6.2c-10.3,3-20.1,2.9-29.8-2
		c-3.4-1.7-7.2-2.5-10.1-5.2c-1.5-1.4-3-2.7-2.7-5c0.3-0.6,0.8-0.6,1.3-0.2c3.9,1.1,6.9,3.7,10.4,5.4c6.7,3.2,13.9,5.3,21.6,3.6
		c2.8,0.5,5.5,0.3,8-1c0.3,0,0.7,0,1,0c5.5-0.9,10.7-2.4,14.6-6.8C296.2,297.4,298.2,295.7,301,296z"/>
	<path fill="#C9C9C9" d="M239,298c-0.3,0-0.7,0-1,0c-1.4,1.3-2.8,0.8-3.9-0.2c-2.1-1.8-4.6-3.1-6.6-5.1c-4.3-4.8-8.7-9.4-13.5-13.7
		c-6.1-5.4-11.9-11.4-17.4-17.5c-0.9-1-1.7-2.2-0.5-3.5c0.3,0,0.7,0,1,0c5.6,5,11.1,10,16.7,15.1c1,0.9,1.9,1.9,3.3,1.9
		c-1.2,2.1,0.5,2.9,1.8,4c6.4,5.5,12,12,19,16.9C238.4,296.3,238.6,297.3,239,298z"/>
	<path fill="#C7C7C7" d="M279,306c-2.3,3-5.1,2.4-8,1C273.6,306.2,276.3,305.8,279,306z"/>
	<path fill="#C6C6C6" d="M110,244c-3.2-0.9-6.2-1.9-8-5C105.3,239.7,107.8,241.5,110,244z"/>
	<path fill="#C6C6C6" d="M97,236c-3-0.5-4.4-2.9-6-5C93.9,231.6,95.8,233.3,97,236z"/>
	<path fill="#C6C6C6" d="M85,225c-2.4-0.3-3.7-1.6-4-4C83.6,221,84,223.3,85,225z"/>
	<path fill="#C6C6C6" d="M91,231c-1.7-1-4-1.4-4-4C88.7,228,91,228.4,91,231z"/>
	<path fill="#DADADA" d="M107,254c0.4,0.8,1.2,1,2,1c5.3,0.7,10.7,1.5,16,0c6.9-2.5,13.7-5.1,20-8.8c10.3-6,19.7-4.4,28.7,2.3
		c5.7,4.2,10.9,9,15.3,14.5c1.8,1.5,3,3.7,5,5h0c2.9,2.7,5.5,5.8,8.8,8c0.3,0.3,0.6,0.6,0.9,1c0.9,1.5,2.4,2.4,3.7,3.5
		c0.8,0.7,1.6,1.5,2.3,2.3c2.2,2.8,4.6,5.2,7.4,7.4c1.2,0.6,2.4,1,3.4,2c1.5,1.9,3.2,3.5,4.9,5.2c1.4,1.6,3.3,2.8,5,4.1
		c1.7,1.7,3.4,3.4,5.4,4.8c0.3,0.3,0.6,0.7,0.7,1.2c0.1,0.7-0.1,1.4-0.8,1.8c-4.5,0-6.8-3.8-10.2-5.8
		c-20.6-17.3-37.8-38.3-58.6-55.5c-3.8-2.8-8.2-4.3-12.7-3.2c-7.5,1.9-13.6,6.7-20.6,9.7c-10.6,4.5-21.2,5.1-31.7-0.5
		C103.7,252.9,105.3,253.4,107,254z"/>
	<path fill="#E1E1E1" d="M167,248c6.4,2,10,7.4,14.5,11.7c11.6,11.1,23,22.4,34.4,33.8c3.3,3.3,7.7,5.3,10.1,9.5
		c1.2,1.1,3.2,1.8,2.2,4.1c-3,1.5-4.6-0.9-6.3-2.5c-8.3-7.9-16.7-15.7-24.9-23.7c-0.6-0.4-1.1-0.9-1.5-1.5c-0.9-1.6-2.2-2.9-3.8-3.8
		c-0.6-0.4-1-0.9-1.4-1.5c-1.4-2.4-2.9-4.5-5.8-5.3c-1-0.7-2.1-1.3-1.6-2.8c-5.6-9.6-14.1-15.2-24.8-17.3c-3.2-0.6-6,1.3-8.8,2.5
		c-3.8,1.6-7.4,3.5-11.2,5.2c-1.6,0.7-3.3,1.7-5.2,0.6c5.1-2.7,10.1-5.5,15.2-8.1C154.3,245.8,160.7,246.9,167,248z"/>
	<path fill="#DADADA" d="M93,247c0.3,0.3,0.7,0.7,1,1c1.3,0.8,2.9,0.9,4,2c1,0.7,2,1.3,3,2c0.3,0.2,0.3,0.4,0.3,0.7
		c-0.1,0.2-0.2,0.3-0.3,0.3c-4.3-0.4-7.7-2.3-10-6C91.7,246.4,92.3,246.4,93,247z"/>
	<path fill="#D9D9D9" d="M101,253c0-0.3,0-0.7,0-1c2.2,0.1,4.3,0.5,6,2c-1.7,0-3.3,0-5,0C101.7,253.7,101.3,253.3,101,253z"/>
	<path fill="#D9D9D9" d="M93,247c-0.7,0-1.3,0-2,0c-0.3,0-0.7,0-1,0c0-0.7,0-1.3,0-2c0-0.3,0-0.7,0-1C91.3,244.7,92.3,245.7,93,247z
		"/>
	<path fill="#EAEAEA" d="M137,260c13.6-10.4,28.8-13.3,41,4c0.7,0.6,2,1.1,0.7,2.3c-3.3,0.2-5.2-2.3-6.7-4.5c-5.5-7.6-16.6-9-25-3.9
		C144.1,259.8,141,262.8,137,260L137,260z"/>
	<path fill="#E8E8E8" d="M179,266c-0.3-0.7-0.7-1.3-1-2c1.7,0.7,3.3,1.3,5,2c0.4,1,1,1.6,2,2c2.4,1.6,4.3,3.7,6,6
		c0.3,0.3,0.7,0.7,1,1c1.7,0.9,2.7,2.6,4,4c0.3,0.3,0.7,0.7,1,1c3,3.5,7.6,5.6,8.2,10.9c-0.5,0.6-1.2,0.7-1.9,0.6
		c-1.1-0.5-1.7-1.6-2.5-2.3c-0.4-0.3-0.7-0.6-1-0.9c-6-5.3-10.8-11.8-17.4-16.6C180.5,270.3,178.8,268.6,179,266z"/>
	<path fill="#EDEDED" d="M179,266c7.3,7.3,14.7,14.7,22,22c-1.4,1.3-2.8,0.7-4.3,0.2c-3.3-1.6-6.2-4.1-8.4-6.7
		c-6.1-7.3-12.8-13.8-20.2-19.7c-4.5-4.4-9.8-6.1-15.8-3.8c-3.1,1.2-6.2,2.3-8.8,4.5c-0.9,0.8-1.9,1.3-3.1,1.3
		c-2.4-1-4.5,1.6-6.9,0.6c-0.2-0.2-0.3-0.3-0.5-0.5c0.4-2.3,3.7-1.6,4-4c2.4,0.1,4.4-0.5,6.6-1.6c4.3-2.2,8.3-4.5,13.7-4.8
		c7-0.3,11.1,2.7,15.2,7.2C174.4,262.9,176.4,264.9,179,266z"/>
	<path fill="#F1F1F1" d="M123,270c-7,1.1-13.7,0.4-20-3c-0.4-0.4-0.5-0.9-0.4-1.4c0.6-1.1,1.3-1.5,2.4-0.6c0.3,0,0.7,0,1,0
		c6.3,1.4,12.6,2.5,19,1c1.7-0.4,3.3-0.5,4.3,1.3C127.9,270,125.9,271.1,123,270z"/>
	<path fill="#EDEDED" d="M129,267c-5.8-0.2-11.6,1.3-17.4,0c-1.9-0.4-4.4,0.5-5.6-2c5.5-1.2,10.9,1.5,16.5,0.3
		c3.4-0.7,6.9-2,10.5-1.3c0,0,0,0,0,0c1.2,2.1-0.4,2.8-1.8,3.5C130.4,267.7,129.6,267.6,129,267z"/>
	<path fill="#EDEDED" d="M105,265c-0.8,0-1.6,0.2-2,1c-5.3,0.4-8.3-3.8-12.2-6.2c-0.6-0.3-0.2-1.2,0.2-1.8c0,0,0,0,0,0
		C96.1,259.5,100.7,262,105,265z"/>
	<path fill="#F3F3F3" d="M129,267c0.7,0,1.3,0,2,0c3.3-0.7,5.8-3,9-4c1-0.3,2-0.7,3-1c2.1-0.8,4.1-2.1,6.1-3.1
		c6.9-3.1,13.6-2,19.9,2.1c2.7,3.7,7,5.3,10.2,8.5c4.8,4.8,8.2,10.8,13.8,14.8c1.3,1,2.6,2,4,2.8c1,2.5,5.8,2.9,4,7
		c-0.3,0-0.7,0-1,0c-8.9-8.9-18.9-16.7-27.3-26.2c-2.4-2.7-5-6.3-9.7-5.8c-8.6-3.7-15.2,1-22,5c-5.8,2.4-11.8,3.7-18,4
		c0-0.3,0-0.7,0-1C125.5,270,127.7,269.3,129,267z"/>
	<path fill="#F1F1F1" d="M91,258c3.8,3,7,6.9,12,8c0,0.3,0,0.7,0,1c-9.1-1.3-16-6.7-22.7-12.4c-2.5-2.1-4.9-4.4-7.3-6.6
		c-0.5-1.4-2.5-2.1-2-4c0.3,0,0.7,0,1,0c3.9,2,6.6,5.5,9.4,8.6C84.2,255.6,87.3,257,91,258z"/>
	<path fill="#F3F3F3" d="M71,244c0.6,1.4,2.1,2.3,2,4c-5.5-3.2-9.8-7.5-13-13C64.7,236.8,67.1,241.2,71,244z"/>
	<path fill="#D1D1D1" d="M138,247c-0.7-0.3-1.3-0.7-2-1c-0.4-2.6,1.8-2.7,3.3-3.6c3.7-2.3,7.8-3.6,11.8-5.2
		c6.3-2.6,12.6-1.2,18.7,1.4c0.8,0.4,1.8,0.5,2.6,0.9c3,2.4,5.5,5.2,8.6,7.5c6.7,6.6,14.1,12.5,20.2,19.8
		c5.5,6.6,12.9,11.4,18.3,18.2c0.1,0.5-0.1,1-0.4,1.4c-3.3,1.4-5.6-0.8-7.2-2.8c-3.7-4.4-8.4-7.8-11.7-12.5
		c-5.3-6.5-11.4-12.2-17.4-18.1c-4.8-4.7-10-8.1-16-11c-7.8-3.7-14.8-1.4-21.7,1.3C142.7,244,139.8,244.9,138,247z"/>
	<path fill="#D4D4D4" d="M200,271c4.4,2.6,7.8,6.1,11,10c2.1,2.6,4.5,4.7,8,5c3.9,1.6,5.8,5.3,8.7,8c5.3,5.1,10.9,9.7,17.6,12.9
		c1.7,0.8,3.2,1.9,4.4,3.3c0.7,1,1.6,1.9,1.6,3.2c-0.4,1.1-1.3,1.4-2.4,1.5c-5.6-0.6-8.6-5.3-12.9-7.9c-2.1-1.6-3.8-3.6-6-5
		c-2-1-4-1.8-5-4c-1.3-2-3-3.7-5-5c-1-0.7-2-1.3-3-2c-2.5-2.9-5-5.6-8-8c-1-0.4-1.6-1-2-2c-1-1.7-3.2-2.1-4-4v0
		c-0.6-1.9-3.8-2.3-3-5C200,271.7,200,271.3,200,271z"/>
	<path fill="#D8D8D8" d="M200,272c0.7,1.8,3.1,2.7,3,5c-4.1-1.9-7.1-4.9-9-9C196.9,268.1,197.7,271.1,200,272z"/>
	<path fill="#D9D9D9" d="M125,255c-5.3,2.8-10.7,1.5-16,0C114.3,255,119.7,255,125,255z"/>
	<path fill="#D8D8D8" d="M194,268c-2.8-0.6-4.4-2.2-5-5C192.1,263.2,192.8,265.8,194,268z"/>
	<path fill="#D9D9D9" d="M98,250c-1.6-0.2-3-0.7-4-2C95.7,247.9,97.2,248.2,98,250z"/>
	<path fill="#CDCDCD" d="M170,239c-2.4,1.4-4.5-0.7-6.4-1.2c-8.7-2.4-15.6,2-22.8,5.1c-1.6,0.7-4,0.8-4.8,3.1
		c-4.3,2.1-8.7,4.8-13.3,4.8c-9.2,0-18.5-1-26-7.6c-0.9-0.8-1.8-1.5-2.7-2.2c1-0.3,2-0.7,3-1c0.3,0.3,0.7,0.7,1,1
		c3.6,3.7,8.8,4.5,13,7c13.4,1,24.6-5.1,35.7-11.2c7.8-4.3,17.6-4.3,23.3,1.2c0.3,0.2,0.3,0.4,0.3,0.7
		C170.2,238.9,170.1,239,170,239z"/>
	<path fill="#CDCDCD" d="M170,239c0-0.3,0-0.7,0-1c4,0,7,2.4,9.3,5c4.2,4.6,9,8.6,13.3,13.1c0.9,1,1.9,1.9,3.3,1.9
		c1.7,5.1,6.4,7.9,9.8,11.4c6.2,6.4,13.1,12.2,19.4,18.6c1.2,1.2,2,2.6,2.8,4c-2.9,1.4-3.6-1.5-5-2.7c-1.5-1.2-2.9-2.7-4-4.3
		c-7.4-6.6-15-13-21.4-20.6c-5.2-6.1-11.3-11.4-17.6-16.5c-1.4-3.9-5.1-5.5-8-8C171.2,240,170.4,239.8,170,239z"/>
	<path fill="#CCCCCC" d="M111,248c-4.7-1.7-10.2-1.8-13-7C102.5,243.1,107.3,244.5,111,248z"/>
	<path fill="#E0E0E0" d="M341,273c7.1-8,14.8-15.3,24.2-20.6c6.1-3.4,12.2-1.6,18.2-0.2c2.9,0.7,5.6,2.6,8.9,2.9
		c1.9,0.1,2.9,1.4,3.7,3c-1,0-2,0-3,0c-6-1.4-11.6-4.2-17.8-4.5c-4.5-0.2-8.4,0.5-12,3.5c-3.8,3.2-8.9,4.9-11.1,9.9
		c-0.1,0.2-0.3,0.4-0.4,0.6c-4.6,3.6-7.5,8.8-11.9,12.5c-2.4,2-4.6,4.2-7.6,5.5c-0.7,0.2-1.4,0.1-2.1-0.3c-0.6-0.9-0.3-1.8,0.1-2.7
		c1.3-2.2,3.6-3.4,5.2-5.3C337.4,276.1,339.3,274.7,341,273z"/>
	<path fill="#EAEAEA" d="M364,260c-3.8,5-9.3,8.1-14,12c-0.1-0.2-0.2-0.4-0.3-0.6c0.3-1.7,1-3.2,2.3-4.4c3.3-1.2,6.2-3.1,8.7-5.5
		C361.7,260.4,362.6,259.9,364,260z"/>
	<path fill="#EAEAEA" d="M337,285c-1.4,3.5-4.5,5.5-6.7,8.2c-1.2,1.5-3.2,2.5-3.3,4.8c0.5,1.2-0.2,1.9-0.9,2.6
		c-3,1.8-5.4,4.5-7.8,6.9c-9.4,9.3-20.5,15.8-33,19.6c-5.8,1.7-12,3.5-18.3,2.4c-3.4-1-6.8-1.4-10.3-1.8c-2.4-0.2-5.1-0.3-5.9-3.5
		c0.2-0.5,0.5-0.9,0.9-1.2c1.9-1.2,3.9-0.5,5.8-0.2c19.7,3.1,37.1-1.9,52.1-15c3.9-3.4,8-6.6,11.6-10.2c3.6-3.4,7.1-6.9,10.6-10.4
		c1.3-1.3,2.8-2.4,4.7-2.7C336.6,284.8,336.8,284.9,337,285z"/>
	<path fill="#F1F1F1" d="M363,268c-3.6,1.6-5.2,5.7-9,7c-0.3-0.2-0.5-0.4-0.3-0.7c0.1-0.2,0.2-0.3,0.3-0.3
		c4.7-7.1,10.5-12.4,19.5-13c1.8-0.1,3.7,0,5.5,0c2.4,0.3,4.8,0.3,6,3c-1.1,0.6-2.1,0.4-3.2-0.1C374.7,261.3,368.6,263.5,363,268z"
		/>
	<path fill="#F1F1F1" d="M326,300c0.3-0.7,0.7-1.3,1-2c5-3.6,9.4-7.8,13.3-12.6c1.6-1.9,3.4-3.5,5.7-4.4c0.1,0.1,0.3,0.3,0.4,0.4
		c0.2,0.6,0,1.1-0.4,1.6c-3.3,5-9.2,7.6-12,13c-1.3,0.7-2.3,1.7-3,3c-1.3,0.7-2.3,1.7-3,3c-0.3,0.3-0.7,0.7-1,1c-0.7,0-1.3,0-2,0
		C324.3,301.7,325.2,300.8,326,300z"/>
	<path fill="#EFEFEF" d="M385,264c-2-1-4-2-6-3c4.3-1,8.3,0.6,11.8,2.4c4.3,2.2,8.5,3.1,13.2,2.6c0.6,1.3,1.6,2,3,2
		c-1.5,2.6-4.1,2.8-5.8,1.3c-2.5-2.3-5.4-1.8-8.2-2.3c-2.3-1.1-4.9-1.5-7-3C385.7,264,385.3,264,385,264z"/>
	<path fill="#EAEAEA" d="M350,272c-1.2,3.5-3.5,5.8-7,7c-0.1-0.2-0.2-0.5-0.2-0.7C344.7,275.6,344.9,271.1,350,272L350,272z"/>
	<path fill="#EAEAEA" d="M343,279c-0.8,3.2-2.8,5.2-6,6l0,0C337.5,281.5,339.5,279.5,343,279L343,279z"/>
	<path fill="#F1F1F1" d="M354,274c0,0.3,0,0.7,0,1c-1.3,1-1.8,3.2-4,3c-0.2,0.1-0.3,0.3-0.5,0.4c-0.2-0.1-0.3-0.3-0.5-0.4
		C350.2,276.1,351.5,274.2,354,274z"/>
	<path fill="#F1F1F1" d="M346,281c0.1-1.9,1.1-2.9,3-3C349,280,348.1,281.1,346,281z"/>
	<path fill="#F1F1F1" d="M386,264c2.9-0.4,5.1,1.1,7,3C390.2,267.2,387.4,267.2,386,264z"/>
	<path fill="#D5D5D5" d="M396,254c-4.8-0.7-8.7-3.6-13.2-5.1c-12.5-4-21.7,1.4-30.1,9.6c-3,3-6.4,5.6-9.6,8.4
		c-1.7,0.6-2.5,3.2-4.9,2.3c-0.9-1.2,0.2-1.7,0.9-2.3c0.4-1,1-1.6,2-2c1.2-1.2,3.3-1.1,4-3c4.4-2.6,6.7-7.4,11-10.2
		c7.6-5,15.5-8.3,24.6-6.2c5.6,1.3,10.9,3.6,16.1,6c1.7,0.8,3.9,0.8,5.3,2.4C400,256.8,398,254.8,396,254z"/>
	<path fill="#D9D9D9" d="M396,254c2-0.3,4,1.6,6,0c0.3,0,0.7,0,1,0c5.9,2.4,11.3,0,17-1.3c6.3-1.4,10.3-6.5,16-8.7
		c0.7,1.9-1.2,2.1-2,3c-6.2,5.6-13.7,9.5-21.7,10.3C407.1,257.8,400.7,258.4,396,254z"/>
	<path fill="#D5D5D5" d="M345,262c-0.1,2.6-1.8,3.1-4,3c0-0.8,0.2-1.6,1-2C343,262.7,344,262.3,345,262z"/>
	<path fill="#D9D9D9" d="M434,247c0.7-1,1.3-2,2-3c1.8-0.7,2.7-3.1,5-3C439,243.4,437.4,246.3,434,247z"/>
	<path fill="#D9D9D9" d="M446,236c-0.9,1.6-2,2.9-4,3C442.9,237.4,444,236.1,446,236z"/>
	<path fill="#CBCBCB" d="M351,249c-1.6,2.4-3.6,4.4-6,6C345.9,251.9,347.5,249.5,351,249z"/>
	<path fill="#CDCDCD" d="M390,244c-1.7,0.1-3.2-0.2-4-2C388.7,240,388.8,243,390,244z"/>
	<path fill="#D3D3D3" d="M339,267c-0.3,0.7-0.7,1.3-1,2c0.6,1.8-0.7,2.6-1.7,3.6c-3.9,3-7.5,6.1-10.4,10.1c-0.3,0.4-0.6,0.7-1,0.9
		c-1.9,0.8-3,2.4-4,4c-0.3,0.4-0.6,0.7-0.9,1c-2.9,2.7-6.6,4.6-8.1,8.5c-11.9,12.2-26.2,19.7-43.3,20.7c-4.8,0.3-9.6-1-14.3-2.1
		c-1.5-0.4-2.7-1.2-3.3-2.8c-1-0.4-1.6-1-2-2c1.4-1.4,3.1-1,4.7-0.5c18.3,5.5,33.8-0.4,48.3-11.3c6.1-4.6,10.7-10.9,17-15.2
		c5.3-4.8,10.6-9.6,15.9-14.4C336.1,268.5,337.1,267,339,267z"/>
	<path fill="#D8D8D8" d="M320,288c0-0.3,0-0.7,0-1c1.9-1,3.1-3,5-4c3-4.3,7.3-7.3,11-11c0.7-1,1.3-2,2-3c1.7-0.7,3.3-1.3,5-2
		c-1.3,2-2.7,4-4,6c0,0.2-0.1,0.4-0.1,0.6c-0.5,1-1.2,1.8-2,2.5c-0.3,0.3-0.7,0.6-1,0.8c-2.1,2.3-4.8,3.9-6.4,6.5
		c-4.7,5.1-9.9,9.8-14.5,15c-3.7,2.5-6.7,5.9-10.3,8.5c-6.4,4.6-13.2,8.3-20.5,11c-4.4,1.6-9.2,1.2-13.6,3c-2.7,0.2-5.3,0.5-7.9-0.8
		c-2.9-1.6-6.1-2.2-9.3-3.2c-1.7-0.5-4.1-0.4-4.3-3.1c0.8,0,1.6-0.2,2-1c9.5,4.2,19.3,4.3,29.3,1.8c11.6-2.9,20.9-9.7,29.9-17
		c0.4-0.4,0.5-1.2,0.8-1.7C314.4,293.7,316.8,290.4,320,288z"/>
	<path fill="#DDDDDD" d="M341,273c-0.2,3.1-2.8,3.8-5,5c-0.6-0.7-0.6-1.3,0-2c1.3-0.7,2.3-1.7,3-3C339.7,273,340.3,273,341,273z"/>
	<path fill="#F0F0F0" d="M326,300c-0.3,1-0.7,2-1,3c-2.9,5-8.2,7.5-12.1,11.5c-6.6,6.7-15.3,9.9-23.7,13.5c-5,2.1-10.3,2.6-15.5,3.3
		c-3.8,0.5-7.7,0.5-11.6,0.7c-1.5-1-3.2-1.5-5-1c-0.3,0-0.7,0-1,0c-1.1-0.9-3.1-0.6-3.3-2.6c0.2-0.5,0.5-0.8,1-1
		c4.4,0.2,8.9,0.7,13.2,1.6c4.7,0.3,9.2-1.3,13.8-1.8c5.2-0.6,10.4-3.1,15.3-5.4c5.3-2.6,10.4-5.6,15.1-9.1c3.8-2.8,7-6.4,10.3-9.9
		C322.8,301.3,324.1,300.2,326,300z"/>
	<path fill="#F0F0F0" d="M233,322c-0.3-1-0.7-2-1-3c0.8-0.8,1.9-0.8,2.8-0.3c6.1,2.8,12.1,5.6,18.2,8.4c0.2,0.1,0.1,0.6,0,0.9l0,0
		c-3,3.4-6-0.2-9,0c-3-0.7-4.5-4.4-8-4C235.2,323,233.9,322.7,233,322z"/>
	<path fill="#F3F3F3" d="M244,328c3-1.3,6,2.2,9,0c1,1,2,2,3,3C251.9,330.5,247.7,330.4,244,328z"/>
	<path fill="#F3F3F3" d="M257,331c2.1-1.8,3.7-1.1,5,1C260.2,332.1,258.5,332,257,331z"/>
	<path fill="#F3F3F3" d="M233,322c1.5,0,2.9,0,3,2C234.6,324,233.6,323.3,233,322z"/>
	<path fill="#EDEDED" d="M201,294c0-3.1-4-3.9-4-7c1.2,0.7,2.5,1.2,4,1h0c0.7,0.9,1,2.2,2,3c0.7,0,1.3,0,2,0
		c0.2,0.1,0.4,0.1,0.7,0.2c3.7,4.8,9.1,7.8,13,12.4c1.2,2.4,5.3,2.9,4.2,6.7c-2.6,1.2-3.6-0.8-4.8-2.4c-4.2-3.7-8.5-7.5-12.7-11.3
		C204,295.5,203.3,293.5,201,294z"/>
	<path fill="#EDEDED" d="M253,328c-7.4-2.1-13.8-6.5-21-9c-0.3-0.3-0.7-0.7-1-1c-2.6-2.1-7.3-2.1-7.2-7c2.9-0.7,5.2,0.7,7.2,2.3
		c5.9,5,12.7,8.2,20,10.7c1.3,2.3,3.6,2.4,5.8,2.7c3.5,0.4,7.2-0.1,10.2,2.3C262.2,330.2,257.7,327.7,253,328z"/>
	<path fill="#F0F0F0" d="M224,311c0.8,3.8,5,4.3,7,7c-5.4-1.9-10.8-3.9-13-10c1.6,0.9,2.9,2.4,5,2C223.6,310.1,223.9,310.4,224,311z
		"/>
	<path fill="#F1F1F1" d="M346,281c1.3-0.7,2.3-1.7,3-3c0.3,0,0.7,0,1,0c-0.2,2.5-2.1,3.8-4,5C346,282.3,346,281.7,346,281z"/>
	<path fill="#F4F4F4" d="M328,302c0.1-1.9,1.1-2.9,3-3C330.3,300.3,329.3,301.3,328,302z"/>
	<path fill="#CECECE" d="M319,284c0,3.7-4,3.5-5.6,5.7c-5,6.9-11.5,12.5-18.9,16.1c-10.7,5.2-21.5,10.9-34.4,7.1
		c-3.4-1-7.2-2-11-1.8c-3.8-4-9.2-5.6-13.6-8.8c-6.3-4.7-11.2-10.6-16.4-16.2c0-0.3,0-0.7,0-1c3.5,1.7,4.8,6.2,9,7
		c3.7,1.3,5.7,5.6,10,6c2.1,4.3,5.9,6.2,10.1,8.1c7.5,3.3,14.9,5.6,23.2,5c5.3-0.4,9.9-2.5,14.7-4.4c6.4-2.5,11.9-6.1,17-10.7
		c1.8-2.9,6.3-3,7-7C313.7,288.6,315.4,284.6,319,284z"/>
	<path fill="#E0E0E0" d="M263,319c2.5,2,5.3,0.6,8,1c1.9,0.5,3.8-0.1,5.6-0.7c1.7-0.6,3.4-0.9,4.7,0.9c0.1,0.6-0.1,1-0.5,1.4
		c-5.2,2.6-10.9,2.8-16.4,2.2c-5.4-0.6-10.9-1.3-16-3.2c-1.3-0.9-2.3-2.3-4-2.8c-0.4-0.2-0.8-0.4-1.2-0.6c-2.2-1.5-4.4-2.9-6.9-3.6
		c-0.6-0.2-1.1-0.6-1.6-1c-0.9-0.8-1.9-1.5-3.1-1.8c-1-0.4-2-0.8-2.9-1.4c-0.6-0.7-1.2-1.3-0.7-2.3c0.1-1.7-1.4-2.6-2-4
		c3.8,1.2,6.1,5,10,6c3.8,0.1,6,3.4,9.1,4.8C250.8,316.5,256.8,317.9,263,319z"/>
	<path fill="#D9D9D9" d="M263,319c-10.4,0.4-19-3.9-27-10c0-0.7,0-1.3,0-2c3.3,0.6,5.8,2.6,8.2,4.9c1.2,1.2,3,2,4.8,2.1
		C253.3,316.8,258.7,316.4,263,319z"/>
	<path fill="#D9D9D9" d="M209,283c3.9,1.5,6.5,4.1,8,8C213.6,289.1,210.7,286.6,209,283z"/>
	<path fill="#D9D9D9" d="M230,302c2.9,0.6,4.8,2.3,6,5C233,306.5,231.6,304.1,230,302z"/>
	<path fill="#D9D9D9" d="M220,293c2.8,0.6,4.4,2.2,5,5C222.9,296.7,221.3,295.1,220,293z"/>
	<path fill="#D9D9D9" d="M203,277c1.4,1.2,3.7,1.6,4,4C205.3,280,203,279.6,203,277z"/>
	<path fill="#E6E6E6" d="M228,307c0.3,0.7,0.7,1.3,1,2c0.6,0.6,0.6,1.3,0.2,2c-2.9,0.7-4.3-1.8-6.2-3.1c-1.5-1-2.6-2.5-4.2-3.4
		c-4-5.1-9.5-8.6-13.9-13.4c0,0,0,0,0,0c-1.2-4.7-6.4-6.6-8-11c5.1,1.8,7.5,6.8,11.3,10.1c5.6,4.8,10.7,10.2,16.1,15.3
		C225.4,306.4,226.6,306.9,228,307z"/>
	<path fill="#E5E5E5" d="M191,274c-2.6-1.4-4.6-3.4-6-6C188.5,268.5,190.1,270.9,191,274z"/>
	<path fill="#E5E5E5" d="M196,279c-2.4-0.3-2.8-2.6-4-4C194.4,275.3,195.7,276.6,196,279z"/>
	<path fill="#EDEDED" d="M203,291c-2-0.1-2-1.5-2-3C202.3,288.6,203,289.6,203,291z"/>
	<path fill="#F1F1F1" d="M169,261c-8-2.6-16.1-4.9-23.7,1.2c-0.8,0.6-1.5,0.1-2.3-0.2C148.6,254.6,163,254,169,261z"/>
	<path fill="#F1F1F1" d="M140,263c-2.4,2.7-5,4.8-9,4c0.6-1,2.2-1.4,2-3C135.5,264.9,137.3,260.8,140,263z"/>
	<path fill="#CDCDCD" d="M172,240c3.6,1.8,7.8,2.9,8,8C177.4,245.3,174.1,243.2,172,240z"/>
	<path fill="#E6E6E6" d="M343,279c-2.4,1.6-4.4,3.6-6,6c-6,3.2-9.4,9.4-15,13c-1-1.2-0.4-2.3,0.3-3.3c2.9-3.5,5.8-7.1,9.7-9.7
		c5.9-4.7,11.5-9.7,15.9-15.9c1.1-1.6,2.3-2.2,4.1-2.1c0.4,2.1-1.1,3.4-2,5C346,272.7,345.1,276.4,343,279z"/>
	<path fill="#DDDDDD" d="M315,298c2.9-6.6,9.2-10.1,14-15c0.7-0.6,1.3-0.6,2,0c-0.3,0.7-0.7,1.3-1,2c-1.5,3.4-4.6,5.5-6.7,8.5
		c-2.9,1.2-4.1,5-7.8,4.9C315.4,298.3,315.2,298.1,315,298z"/>
	<path fill="#E2E2E2" d="M323,293c2-3,3.8-6.1,7-8c0.7,0,1.3,0,2,0c-2.4,3.9-5.7,7-9,10c-0.1-0.1-0.3-0.3-0.4-0.4
		C322.4,294,322.5,293.4,323,293z"/>
	<path fill="#DDDDDD" d="M331,283c-0.7,0-1.3,0-2,0c1.5-3.1,4.5-4.8,7-7c0,0.7,0,1.3,0,2C334.3,279.7,332.7,281.3,331,283z"/>
	<path fill="#E5E5E5" d="M323,295c-0.3,1-0.7,2-1,3c-3.1,4.8-8.1,7.6-12.1,11.4c-7.5,7.2-16.8,11.7-26.7,14.1
		c-9.1,2.2-18.5,2.7-27.8,0.4c-1.2-0.3-2.2-0.6-3.3,0c-4.3-2.1-9-2.9-13.2-5.1c-2.5-1.3-4.9-2.6-6-5.4c0.3-1.2,1.2-1.4,2.3-1.5
		c0.3,0.3,0.7,0.7,1,1c2.8,1.1,5.3,2.8,8,4c1.1,1.1,2.8,1,4,2c10.8,3.7,21.8,5.1,33,2c9.5-2.9,18.5-6.8,26-13.7
		c0.3-0.3,0.7-0.6,1-0.9c2.6-0.9,4.4-2.8,5.7-5.1c2-2.4,4.7-3.9,6.8-6.2C321.2,294.4,322.1,294.1,323,295L323,295z"/>
	<path fill="#E9E9E9" d="M233,313c3.3,4.2,7.7,6.2,12.9,7.2c2.3,0.5,4.8,1.4,6.1,3.8c-0.3,0-0.7,0-1,0c-3.4,1.6-5.8-1.1-8.6-2.1
		c-6.8-2.5-11.6-8.4-18.4-10.9c-0.3-0.3-0.7-0.7-1-1c-0.9-2.6-4.4-3.1-5-6c0.3-0.4,0.7-0.4,1,0c4,1.3,6.4,5,10,7
		c1.1-1.1,2.1-0.3,3,0.3C232.6,311.7,232.9,312.3,233,313z"/>
	<path fill="#D5D5D5" d="M336,272c-2.6,4.7-7.2,7.5-11,11C327,277.7,331.3,274.7,336,272z"/>
	<path fill="#D5D5D5" d="M320,288c-2.4,3.3-4.7,6.7-9,8C313.2,292.5,316.1,289.6,320,288z"/>
	<path fill="#D5D5D5" d="M325,283c-1.2,1.9-2.5,3.8-5,4C321.4,285.3,322,282.6,325,283z"/>
	<path fill="#DDDDDD" d="M281,320c-1.8-0.7-3.3,0-5,0.7c-1.5,0.6-3.5,0.9-5-0.7c5.6-2.8,12.1-2,17.8-5.1c8.1-4.5,16.5-8.4,22.6-15.7
		c1-1.2,2.2-1.3,3.6-1.3c0,0,0,0,0,0c0.8,1.9-1.2,2.7-1.6,4.1c-1.2,2.3-3.4,3.4-5.4,4.9c-6.2,5.9-13.9,9.2-21.7,12.5
		C284.7,320.2,282.8,320.5,281,320z"/>
	<path fill="#DDDDDD" d="M339,273c-0.1,1.9-1.1,2.9-3,3C336.7,274.7,337.7,273.7,339,273z"/>
	<path fill="#E8E8E8" d="M219,304c-0.3,0-0.7,0-1,0c-4.4-4.3-10.4-7-13-13C210.6,294.3,215.5,298.5,219,304z"/>
	<path fill="#E2E2E2" d="M281,320c9.8-2.6,18.4-7.9,27-13c-3.3,5.7-9.1,8.1-14.6,10.5c-3.9,1.7-7.6,4.9-12.4,3.5
		C281,320.7,281,320.3,281,320z"/>
	<path fill="#E1E1E1" d="M244,317c-3.4,0.1-5.7-2-8-4C239.6,312.5,241.8,314.8,244,317z"/>
	<path fill="#E1E1E1" d="M233,313c-0.3-0.3-0.7-0.7-1-1c-0.6-0.7-0.6-1.3,0-2c1.4,0,2.4,0.7,3,2C234.6,312.8,233.8,313,233,313z"/>
	<path fill="#E5E5E5" d="M232,310c0,0.7,0,1.3,0,2c-1-0.3-2-0.7-3-1c0-0.7,0-1.3,0-2C230,309.3,231,309.7,232,310z"/>
	<path fill="#E1E1E1" d="M248,319c-1.7,0.1-3.2-0.2-4-2C245.7,316.9,247.2,317.2,248,319z"/>
	<path fill="#E0E0E0" d="M313,302c-0.1-1.7,1.4-2.6,2-4c3.6-0.2,4.4-4.8,8-5c0,0.7,0,1.3,0,2c-4.2,0.8-5.5,5.3-9,7
		C313.7,302.4,313.3,302.3,313,302z"/>
	<path fill="#E2E2E2" d="M313,302c0.3,0,0.7,0,1,0c-0.8,3.1-2.6,5-6,5C308.7,304.4,311.3,303.6,313,302z"/>
</g>
</svg>
