<?xml version="1.0" encoding="utf-8"?>
<!-- Generator: Adobe Illustrator 23.0.0, SVG Export Plug-In . SVG Version: 6.00 Build 0)  -->
<svg version="1.1" id="Слой_1" xmlns="http://www.w3.org/2000/svg" xmlns:xlink="http://www.w3.org/1999/xlink" x="0px" y="0px"
	 viewBox="0 0 512 514" enable-background="new 0 0 512 514" xml:space="preserve">
<g>
	<path fill="#7CF4D1" d="M513,262c0,2,0,4,0,6c-1.2,6.7-0.7,13.6-2.5,20.2c-4.8,18.5-13.5,35.1-26,49.6
		c-16.1,18.5-34.2,35-51.4,52.4c-27.8,28-55.7,56-83.8,83.7c-13,12.8-27.4,23.7-44.7,30.5c-18.1,7.1-36.7,9.9-56.2,8.8
		c-26-1.5-48.9-10.7-69.4-26.3c-5.4-4.1-10.5-8.7-15.3-13.6c-41.5-41.5-83-82.9-124.3-124.4c-16.8-16.9-29.8-36.2-35.8-59.7
		C2,282.5,2.4,275.6,1,269c0-1.7,0-3.3,0-5c1-4.1,0.3-8.4,0.5-12.5C1.3,249.3,2,247.1,1,245c0-0.7,0-1.3,0-2
		c1.6-9.1,1.5-18.4,4.7-27.3c6.5-18.8,16.7-35.2,30.6-49.2c43.9-44.2,87.9-88.3,132.2-132.1C189,14,214,2.1,242.9-1
		c40.4-4.4,75.1,8.2,103.7,36.5c43.9,43.2,87.3,87,130.8,130.7c15.7,15.8,26.8,34.3,32.7,55.8c2.1,7.4,2.1,15.1,2.3,22.8
		c0,2.2,0,4.3,0,6.4C512.8,254.8,511.9,258.4,513,262z"/>
	<path fill="#FEFEFE" d="M512.1,243.9c-2.7-29-14.2-54.1-34.6-74.6c-44.4-44.9-89.1-89.5-133.9-134c-47.3-47-125.9-47-173.2,0
		c-44.8,44.5-89.5,89.1-133.9,134c-19.2,19.4-30.3,43.1-34.3,70.1C2,240.6,2.4,242.1,1,243C1,159,1,75,0.9-9c0-3.4,0.7-4.1,4.1-4.1
		c168,0.1,336,0.1,504,0c3.4,0,4.1,0.7,4.1,4.1C513,75.3,513,159.7,513,244C512.6,244.7,512.3,244.6,512.1,243.9z"/>
	<path fill="#FEFEFE" d="M1,269c2.3,4.7,2.2,9.9,3.4,14.9c5.5,23.3,16.8,43.4,33.6,60.3c43.5,43.6,87.1,87.2,130.7,130.7
		c24.1,24,53.5,36.5,87.5,36.8c34.3,0.2,64.2-12.1,88.6-36.4c44.2-43.9,88.2-87.9,132.1-132.1c19.6-19.8,31-43.8,34.9-71.4
		c0.2-1.3-0.2-2.7,1.1-3.7c0,81,0,162,0.1,243c0,3.4-0.7,4.1-4.1,4.1c-168-0.1-336-0.1-504,0c-3.4,0-4.1-0.7-4.1-4.1
		C1,430.3,1,349.7,1,269z"/>
	<path fill="#A0F7DD" d="M1.9,250.9C1.6,255.3,3,259.8,1,264c0-4.3,0-8.7,0-13C1.3,250.3,1.6,250.3,1.9,250.9z"/>
	<path fill="#9EF7DC" d="M513,262c-2-3.5-0.6-7.4-0.9-11.1c0.3-0.6,0.7-0.6,0.9,0.1C513,254.7,513,258.3,513,262z"/>
	<path fill="#BAF8E6" d="M513,251c-0.3,0-0.6,0-0.9-0.1c0-2.3,0-4.7,0-7c0.3,0,0.6,0.1,0.9,0.1C513,246.3,513,248.7,513,251z"/>
	<path fill="#B5F8E4" d="M1.9,250.9c-0.3,0-0.6,0-0.9,0.1c0-2,0-4,0-6C2.7,246.8,1.8,248.9,1.9,250.9z"/>
	<path fill="#40C49D" d="M272,64.1c10.8,2.5,20.2,7.6,28,15.4c43.9,43.9,87.9,87.9,131.8,131.8c24.7,24.7,25.7,62.3,1.3,87.6
		c-25.1,26-51,51.2-76.6,76.8c-0.5,0.5-1.1,0.8-1.6,1.1c-5.4-0.8-5.4-0.8-5.1,5.1c-0.9,1.7-2.2,3-3.9,3.9c-4.1-1.9-3.8-5.6-3.5-9
		c0.3-2.7,0.2-5-1.2-7.5c-2.1-3.9-0.6-6,4.1-7c-4.5,0.3-6.2-0.9-7.2-5.4c-0.9-4,0.8-6.5,6.1-8.6c-6.5-1.9-8.9-7.3-5.9-13.8
		c-7.8-2.4-9-7.2-4.3-16.8c-1.8-1.5-2.6,0.5-3.7,1.1c-3.2,1.7-5.3,0.5-5.1-3.1c0.2-3,1-5.9,2.4-9.1c-3.4,0.5-4.5-0.8-4-4.2
		c0.5-3.2-0.4-6.3,0.7-9.7c0.6-2,0.3-5.3-2-7.8c-2.8-3-2.5-10.1-0.1-13.7c1.7-2.6,1.9-5.1-0.6-7.1c-4-3-5.6-7.8-8.6-11.4
		c-2.5-3-1.7-6,1.9-9.4c-0.8,0.2-1.6,0.3-2.3-0.1c-1.1-0.7-5.1-12.3-4.4-13.5c1.3-2.2,0.8-4.1-0.7-5.9c-0.4-0.5-0.2,0.2-0.3-0.4
		c-0.6-6.8-2.9-13.5-1.9-20.4c0.4-2.4-0.3-4.1-1.5-5.4c-2.3-2.4-2.8-5-2.8-8.2c0-2.7,0.5-5.7-2.2-7.8c-0.6-0.5-1-1.6-0.6-2.3
		c2.6-3.6,0.8-6.5-1.3-9.5c-0.8-1.1-0.8-2.5-0.5-3.9c0.2-0.8,0.7-1.9,0.1-2.4c-4.6-4.4-4.6-10.5-5.2-16c-0.8-6.5-2.2-12.7-3.8-19
		c-1-4,0-8.5-3.5-11.8c-0.5-0.4-0.8-1.2-0.7-1.8c1.4-6.5-3.5-11.8-3.2-18.2c0.4-6.5-3.7-12-4.8-18.2c-0.6-3.6-1-7.2-3.5-10.2
		C271.2,67.2,271.1,65.5,272,64.1z"/>
	<path fill="#3DC29B" d="M272,64.1c0.9,2.3,1.8,4.6,3.8,6.3c1.3,1.1,1.4,2.4,1.3,4.3c-0.1,3.3,0.6,6.9,2.1,9.8
		c2.6,5.2,3.3,10.6,3.3,16.3c0,1-0.7,2.4,0.1,2.8c4.7,2.3,2.8,6,2.4,9.4c-0.1,1.3-0.4,3,1,3.7c5.4,2.7,3.7,7.2,3.2,11.5
		c-0.4,3.2,2,5.3,3.3,7.7c0.9,1.7,1.6,3.1,0.8,5.1c-2.1,5.3-1.2,7.3,3.8,9.3c0,1.8-2,1.5-2.7,2.5c-0.9,1.2-2.1,3.3-0.3,3.7
		c3.5,0.8,2.2,5.8,5.8,6c0.1,0,0.4,1.1,0.3,1.2c-5.5,4.4,0.6,7.1,1.7,10.3c0.6,1.9,1.2,2.4-0.8,3.6c-2.6,1.5-2,3.3,0.7,4
		c2.2,0.6,2.3,0.9,1.9,3.5c-0.5,3.1-3.2,7.4,1.7,10.3c2.2,1.3,1.6,4.7,3.9,6.5c0.8,0.6-1,1.6-2.1,2.2c-2.5,1.3-2.7,2.6-0.3,4.3
		c3.2,2.3,4.3,5,1.4,8.4c-1.8,2.1-1.1,3.9,0.7,5.7c2.6,2.6,4.3,5.2,0.7,8.4c-1.7,1.5-0.4,2.4,1.1,2.7c3.7,0.7,3.8,2.6,2,5.3
		c-0.7,1.1-0.9,2.4,0.3,3.1c1.7,1,1.7-0.8,2.1-1.8c0.5-1.4,1.4-2.6,2.9-1.3c1.3,1.1,0.8,2.4-0.3,3.5c-1.3,1.3-2.5,2.7-3.7,4
		c-1.7,1.9-0.5,3.8,0.2,5.6c0.9,2.4,2.6,0.1,4.3,0.6c-2.2,3.4-0.5,5.4,2.2,7.7c6.8,5.8,6.7,6.3,1.2,13.9c-0.3,0.4-0.7,1.1-0.6,1.3
		c1.6,2.4,3.8,4.7,1.2,7.8c0,0,0.2,0.4,0.2,0.4c8.4-1.3-0.2,7.8,5.1,8.4c0.1,0,0.2,0.3,0.3,0.4c-6.4,3,0.7,9.1-3.5,12.7
		c1.9,0.5,2.4-0.9,3.3-1.5c0.9-0.5,1.9-0.8,2.8-0.1c1.2,1,0.6,2.4-0.2,3.1c-3,2.4-2,6.2-3.4,9.2c-0.4,0.9-0.9,2,0.4,2.6
		c1.2,0.5,2-0.4,2.3-1.3c1.5-4.7,3.9-2.7,6.6-1.2c2.4,1.3,2,2,0.2,3.4c-2.7,2.1-4.5,4.3-3.1,8.4c1.1,3.4,1.5,5.7,5.7,3.8
		c1.3-0.6,2.8,0,3.4,1.4c0.6,1.4-0.7,1.9-1.7,2.7c-3,2.3-4.1,4.4-0.3,7.5c2.1,1.8,2.6,5.8,6.6,2.3c0.8-0.7,2.3,0.3,2.5,1.6
		c0.2,1.2-0.6,1.9-1.8,1.9c-2.1,0.1-3.8,0.7-5.4,2.1c-3.1,2.7-3.5,6.9-0.7,9.8c0.7,0.7,1.3,0.7,2.2,0.6c5.3-0.9,5.3-0.8,4.6,4.7
		c-0.3,0-0.7,0.2-0.9,0.1c-1.6-0.6-2.4-4.2-4.7-1.9c-1.9,2-1,4.3,1.3,5.9c1.2,0.8,2.2,2,1.3,3.3c-2.8,4.3-0.8,8.3,0.5,12.4
		c-6.8,7-13.6,14.2-20.6,21c-9.7,9.6-18.8,19.8-29.3,28.6c-11.9,9.9-25.6,14.6-41.1,13.5c-1.5-1.3-2.1-2.9-2.1-4.9c0-2-0.1-4-0.1-6
		c0-121.7,0-243.5,0.1-365.2c0-3.7-1.3-7.8,2.3-10.8C260.9,61.7,266.5,62.6,272,64.1z"/>
	<path fill="#64DDBA" d="M215,79c7-7.1,15.2-12,25-14c2.4,1.4,2.7,3.8,2.7,6.1c0,8.3-0.6,16.5-4,24.2c-0.4,0.9-1.3,1.8-1.1,2.7
		c1.6,6.2-2.1,11.1-3.5,16.7c-1.4,5.3-3,11.1-1.5,16.8c0.4,1.5,0.7,3.2-0.5,4.3c-5.4,4.9-2.8,11-2,16.4c0.8,5.5,0.6,10.1-1.7,15.4
		c-1.6,3.8-3,8.6-1.1,13.3c1.4,3.4-0.9,5.6-4.8,5.2c-2.4-0.3-6.2,4.5-5.3,6.8c0.6,1.5,1.8,1.2,3,0.9c1.8-0.5,3.7-0.8,4.9,1.1
		c1.1,1.7-0.2,3-0.8,4.6c-1.4,4-2.9,7.8-6.4,10.8c-2.1,1.8-1.3,5.4-0.4,8.1c1,2.9-0.1,5.4-0.4,8.2c-0.7,5.9-2.9,11.8-2.7,17.6
		c0.2,6.8,0.8,6.9-5.7,5.5c-0.6,1.1,0.3,2.3-0.1,3.4c-0.5,0.7-0.4,1.1,0.6,1.1c2.1,1.5,2.1,3.5,0.7,5.2c-1.7,2-1.4,4.1-1.8,6.4
		c-0.5,3.4,0.5,6,1.5,9c1.5,4.5,0.5,9.7,2.9,14.2c0.7,1.3-0.4,2.8-1.3,4.1c-3.2,4.3-5.8,8.6-5.1,14.5c0.5,4.3-2.1,6.4-6.6,6.7
		c0.2,1.1,1.1,1,1.9,1.2c4,0.9,5.1,2.7,3.5,6.3c-1.5,3.4-4.4,6.3-1.9,10.6c0.9,1.6-1.5,2.7-2.5,3.9c-1.2,1.4-2.5,2.6-3.8,3.9
		c3.9-2.5,7.7,1.6,6.2,7.1c-0.9,3.2-3.5,4.2-6.5,4.5c-0.9,0.1-2-0.6-2.9,0.4c0.2,2,1.4,2.5,3.1,2c2.6-0.8,4.2,0,5,2.6
		c0.7,2.3,0.3,4.6-2,5.5c-2.2,0.9-2.8,2-1.8,4.1c0.2,0.4,0.3,1.2,0,1.5c-3.6,3.5-1.1,7.5-0.8,11.3c0.3,3.3-0.5,6-3.7,7.4
		c-2,0.9-2.6,3-4.2,4.2c-0.9,0.7-0.8,1.1,0.1,1.8c3,2.4,2.3,4.7-0.9,6.1c-2,0.9-0.5,5.5-4.4,3.8c-2.9-2.7-5.9-5.4-8.7-8.2
		c-17.8-17.8-35.6-35.5-53.3-53.3c-1.4-1.4-2.6-3-4-4.5c0.2-0.2,0.4-0.4,0.5-0.7c-0.2,0.2-0.3,0.5-0.6,0.6c-2-1.3-3.7-2.9-5-5
		c-0.1-3.2-0.8-5.9-5-5c-0.7-0.7-1.3-1.3-2-2c-0.3-2.9,1.4-5.1,3.8-4.8c5.5,0.7,8.6-2.7,12-5.7c0.4-0.3,0.9-0.5,1.3-0.7
		c-0.6-0.4,0.5-0.1,0.1-0.3c-5.7-4.3-6.6-10.2-5.6-16.7c0.2-1.6,1-3.1,1.1-4.8c0-1.5,0.3-3.2,2.2-3.4c2.2-0.2,3.3,1.6,3.8,3.4
		c0.6,2.6,0,5.3,0.3,7.6c0.3-2.7-1.8-6.9,4.5-6.6c-2.4-2.9-1.5-5.7-0.2-8.4c1.1-2.3,2.8-4.1,4.1-6.2c2-3.1,3.7-6,2.7-10.1
		c-0.6-2.5,0.1-5.2,2.4-7.2c3-2.7,3.3-6.4,2.5-10c-1.2-5.7-0.3-6.9,5.1-5.8c1.9,0.4,3.2,0.3,4.2-1.4c0.9-1.5,2.3-2.4,4.3-2.4
		c-0.3-2-1.2-3.2-3.2-3.6c-2.1-0.4-2.8-2.1-2.1-3.8c1.9-5.1,4.9-9.4,9.6-12.3c1.1-0.7,2.4-0.5,3.4,0.2c-1.4-1.6-3.8-1.8-5.3-3.4
		c-1.2-1.3-2-2.7-1.1-4.5c0.8-1.6,2.3-2,3.8-1.3c2.1,0.9,2.7-0.1,3-1.9c0.2-1.8,1.5-3.6,1-5.3c-1.6-5.4,0.8-8.9,4.8-12
		c1.3-1,4.3-1.9,0.5-4.4c-2.3-1.5-0.4-4.4,1.7-5c5.7-1.7,6.6-6.4,7.6-11.1c0.4-2-0.1-4.4,2.2-5.8c1.2-0.7,0.4-1.2-0.3-1.7
		c-3.6-2.7-2.1-5.2,0.7-7.1c1.7-1.2,2.5-2.5,2.8-4.4c0.7-5.5,4.8-9.4,7.1-14.1c0.7-1.5,4.6-9.8,4.7-11.4c0.2-4.2,0.7-8.3,4.4-11.2
		c1-0.8,1.2-1.9,1.7-3c1.8-4.6,2.8-9.4,5.2-13.9c1.9-3.7,1.5-8.7,1.3-13.2c0.7-1.3,1.7-2.3,3-3C213.8,83.1,213.9,80.5,215,79z"/>
	<path fill="#66DEBB" d="M184,402c1.6-0.3,1.7-1.1,1.2-2.6c-0.8-2.6-1.5-5.3,2.9-3.1c1,0.5,1.6-0.2,1.6-1.2c0.1-1-0.5-1.7-1.4-1.6
		c-1.7,0.2-3.6,0.6-4-1.7c-0.4-2.6,1.8-2.8,3.7-3c3.7-0.4-1.7-4.5,1.8-4.6c2,0,3.9,1,5.2-1.5c1.7-3.3-0.5-9.6-4.3-12
		c0.6-1,1.5-0.4,2.2-0.5c3.8-0.9,4.4-3.3,1.6-6c-0.7-0.7-1.6-1.3-1.2-2.5c0.4-1.2,1.4-1.2,2.5-1c5.8,0.8,5.1-2.3,3.7-6
		c-5.5,3.8-7.4,2.1-8.7-7.9c3.2,2.7,6.4,4.3,9.7,1.2c3.2-3-1.7-5.6,0-8.6c-3.4,0.1-3.3,2.3-3.8,4.2c-0.3,1.2-1.1,2.2-2.5,1.8
		c-1.5-0.5-1.5-1.9-0.8-2.9c2.6-3.7,5.3-7.3,8.2-11.1c-3.9-1.6-2.6-4.4-0.5-7.3c0.9-1.2,1.7-2.5,2.5-3.7c0.6-1,1.1-2.1,0.3-3.3
		c-1.1-1.5-2-0.4-2.8,0.4c-1.5,1.4-2.8,0.7-2.8-0.9c-0.1-2.4-3.5-4.2-1.3-6.8c0.6-0.8,1.5-0.4,2.1,0.4c0.9,1,1.4,3.3,3.3,1.9
		c1.8-1.4,3.2-3.8,2.3-6.2c-2.3-6.6,2.1-10.6,5.8-14.6c1.4-1.6,0.5-2.8,0.4-4.1c-0.1-2.9-2.4-1.9-4.5-1.7c0.8-3.3,3.5-5.5,2.4-8.8
		c-0.9-2.8-0.7-6.3-6.7-6.1c5.1-1.7,5.7-4.1,4-7c-1.5-2.5-1-3.8,1.7-5c2.9-1.3,2.6-3.1,0.2-4.8c-0.5-2.7-3.9-5.7-1.8-7.7
		c2.1-2,4.7,1.9,7.5,2.5c0-0.7,0.3-1.5,0-1.9c-3.8-3.9-0.3-7.2,0.2-11c0.8-5.3,1.9-10.7,2-16c0-2.6-0.8-5.8-0.9-8.7
		c0-1.4,0.3-2.9,1.5-3.5c3.1-1.7,6.6-2.9,4-7.7c-0.7-1.3,1.6-1.7,2.7-2.3c1-0.5,1.6-1.3,1-2.4c-0.6-1-1.7-1.1-2.5-0.3
		c-2.2,2.2-4.5,2.1-6.5,0c-2.1-2.3,0.2-4.3,1-6.3c0.5-1.2,1.2-2.3,1.6-3.6c0.4-1.4-0.4-3.4,1.3-4c2-0.6,1.9,1.8,2.9,2.8
		c1.1,1.1,2.4,1.4,3.5,0.3c1.4-1.3,1.3-2.5-0.6-3.4c-0.7-0.3-1.6-1.7-1.5-1.7c3.8-3.8,0.1-9.5,3.3-13.2c2.9-3.3,3.3-7.2,1.9-10.7
		c-1.6-4.4-0.9-8.8-1.6-13.1c-0.4-2.7-0.1-5.3,3-6.6c1.7-0.7,2.3-2,0.6-3.4c-2.4-1.9-1.5-4-0.6-6.3c1.1-2.7,2.9-5.4,0-8.2
		c-1-1,0.1-1.7,0.8-2.5c2.9-3.2,4.2-7.1,5.1-11.2c0.3-1.4,1-2.8-0.4-4.2c-1.3-1.3-1.2-2.6,0.2-3.9c2.2-2.1,3.7-4.3,2-7.5
		c-0.4-0.8,0.2-1.6,1-2c2.7-1.1,2.3-2.8,1.2-4.8c-0.4-0.7-0.7-1.8-0.4-2.3c2.7-4.7,0.6-9.4,0.4-14.2c4.8-2.2,10-2.7,15.2-2.8
		c0,2.3-0.1,4.7-0.1,7c0,126.6,0,253.2,0,379.9c-15.7,0.4-28.9-5.7-40.1-16C204.2,423.2,194.3,412.4,184,402z"/>
	<path fill="#63DCB9" d="M208,86c1.3,0.2,2.3,1.2,2.2,2.4c-0.3,4.2,0.4,9-1.6,12.2c-1.9,2.9-2.5,6-3.8,8.9
		c-1.6,3.6-1.7,7.8-5.9,10.4c-1.6,1-2.4,5.7-1.5,7.9c1.7,4.3-0.2,5.6-3.5,6.5c-0.2,2.1,2,1.7,2.5,2.9c0.4,0.9,0.9,1.9,0.1,2.8
		c-0.7,0.9-1.5,0.3-2.1-0.2c-1-0.8-2.6-1.5-2.6,0.1c-0.2,5.4-6.2,7.9-6.3,13.2c0,2.8,0.2,5.6-4.1,5.5c-1.1,0-2.1,1.8-1.8,3.2
		c0.3,1.7,1.8,1.6,3.2,1.3c1-0.3,2.3-1.5,2.9,0.3c0.4,1.3-0.6,2.5-1.6,2.8c-5,1.7-4.3,6.9-4.6,10c-0.4,4.5-2.8,6-5.8,7.6
		c-1.6,0.9-5,0.6-3.9,3.1c1.1,2.5,3.3,0.1,4.9-0.9c0.3-0.2,0.9-0.1,1.7,0.2c-3.9,1.8-3.6,6.9-8.1,8.7c-2.6,1.1-5.2,4.3-2.7,8.1
		c0.9,1.3,1.4,2.4,0.2,3.5c-1.7,1.6-1.6,3.9-1.4,5.6c0.6,5.2-2,3-4.2,2.1c-1-0.4-1.7-2.9-3-1c-1.3,1.7,0.3,2.9,1.7,3.3
		c2.8,0.8,3.7,3.2,5,5.2c1,1.6,1.2,3.1-1,4.1c-2-0.9,0.2-4.3-2.2-4.3c-1.9,0-3.7,1.8-4.6,3.5c-1.7,3.2-5.3,5.2-5.6,9.2
		c3.7,0,7.6,4.8,6.8,8.5c-0.1,0.6-0.7,1.4-1.1,1.4c-2.1,0.4-1.4-2.1-2.3-2.8c-1.5,0.4-1.6,1.5-1.9,2.4c-1.1,3.3-2.7,5.1-6,2
		c-1.1-1-2.6-1.4-3.7-0.5c-1.6,1.3,0.1,2.4,0.7,3.4c1.9,2.8-0.2,5-0.5,7.5c-0.2,2.6,1.1,4.6-3.2,5.5c-2.3,0.5-2.2,5.4-0.8,7.9
		c1.3,2.3,0.7,3.3-0.8,5c-2.4,2.8-4.4,6-6.3,9.2c-3.1,5.3-2.9,5.9,3,8c-1.1,1.6-2.8,1.8-4.4,1.9c-4.3,0.3-5.4,2-3.3,5.6
		c0.7,1.3,2.4,2.1,0.8,3.7c-0.6,0.7-1.5,0.8-2.3,0.5c-1.9-0.9-1.9-2.4-1.6-4.2c0.7-3.9,0.9-7.8-2.9-10.7c1.8,4.8-3.6,8.8-1.2,13.8
		c0.6,1.3-0.7,3.3,2.2,3c0.8-0.1,1.3,0.7,1.1,1.3c-2.5,5.7,1.9,3.9,5,4.1c-3.5,3.8-8.1,5.9-10.5,10c-0.7,1.2-2.2,0.6-3.2,0.2
		c-3.5-1.4-6.1-0.3-7.9,2.8c-10.6-9.9-21.5-19.5-30.3-31c-18.9-24.9-16.2-59,5.9-81.1c40.5-40.5,81-81,121.6-121.5
		C204.7,88.8,206.4,87.4,208,86z"/>
	<path fill="#3DC29B" d="M349.9,381.9c-4.1-1.9-2.2-5.2-1.8-8.1c0.2-1.2,1.2-1.8,2.1-0.9c1.4,1.5,4.1,1.5,4.8,3.9
		C353.6,378.9,352,380.6,349.9,381.9z"/>
	<path fill="#63DCB9" d="M108,326c0.8-1,1.6-2,2.6-2.9c0.4-0.4,1.1-0.7,1.7-0.7c1.3,0,1.9,1.6,1.3,2c-3.2,2.1,6.5,5.2-0.6,6.7
		C111,329.7,109.3,328,108,326z"/>
	<path fill="#63DCB9" d="M215,79c0.1,2.8,1.9,7.2-4,4C212,81.3,213.3,80,215,79z"/>
	<path fill="#3DC29B" d="M316.4,230.6c-1.8-0.3-3-1.1-2.6-2.2c0.6-1.5,1.5-0.4,2,0.4C316.1,229.2,316.1,229.7,316.4,230.6z"/>
	<path fill="#3DC29B" d="M316.8,214.7c-0.6,0.3-1,0.7-1.4,0.8c-0.8,0.1-1.2-0.4-1-1.1c0.1-0.3,0.6-0.8,1-0.8
		C315.7,213.6,316,214.1,316.8,214.7z"/>
	<path fill="#63DCB9" d="M140.9,285.7c-0.1,1.8-1.1,2-2.4,1.6c-1.4-0.5-3.8,0.2-3.6-2.4c0.1-1.6,1.2-2.9,3-2.6
		C139.7,282.6,140.6,284,140.9,285.7z"/>
	<path fill="#66DEBB" d="M190.5,376.2c-0.4,1.5-1.7,2-3,2.4c-1.4,0.5-2.7,1.5-4.3,0.7c-0.2-0.1-0.5-0.6-0.5-0.8
		c1.2-2.3,4.3-1.4,5.7-3.4c0.4-0.5,1.2-0.6,1.7,0.1C190.5,375.5,190.5,375.9,190.5,376.2z"/>
	<path fill="#66DEBB" d="M202.8,286.7c1.6,0.3,3,0.6,3,2.3c0,1.2-0.7,1.8-1.8,1.8c-1.5,0-2.5-0.7-2.7-2.3
		C201.2,287.4,202,286.8,202.8,286.7z"/>
	<path fill="#66DEBB" d="M199.2,303.9c-1.8-0.1-2.2-1.2-2.1-2.7c0.1-0.8,0.3-1.8,1.4-1.5c1.3,0.4,2.2,1.6,2.4,2.9
		C201.1,303.5,200.1,303.8,199.2,303.9z"/>
	<path fill="#66DEBB" d="M225.4,160.7c-1.6,1.6-2.9,2.3-4.7,0.7C222.1,159.7,223.5,159.7,225.4,160.7z"/>
	<path fill="#66DEBB" d="M196.6,326.6c-0.7,0-1.2-0.4-1.2-1.1c0-0.7,0.5-1.2,1.3-1.1c0.4,0.1,0.8,0.5,0.9,0.9
		C197.7,326,197.4,326.5,196.6,326.6z"/>
	<path fill="#66DEBB" d="M183.6,372.3c-0.2,0.7-0.7,1.2-1.4,1.1c-0.8-0.1-1-0.8-0.8-1.5c0.2-0.7,0.6-1.2,1.4-1.1
		C183.4,371,183.7,371.6,183.6,372.3z"/>
	<path fill="#66DEBB" d="M208,254c-0.7,0.9-0.7,2.3-2.4,2.3C205.5,254.5,206.8,254.3,208,254z"/>
	<path fill="#63DCB9" d="M146.5,264.7c-0.2-0.2-0.7-0.3-0.7-0.5c-0.2-0.6,0.2-0.9,0.8-0.9c0.3,0,0.7,0.3,0.8,0.5
		C147.5,264.4,147,264.7,146.5,264.7z"/>
	<path fill="#66DEBB" d="M202.1,258.4c-0.3-0.2-0.6-0.3-0.7-0.5c-0.2-0.5-0.1-1,0.6-0.9c0.2,0,0.5,0.4,0.6,0.7
		C202.5,257.9,202.2,258.2,202.1,258.4z"/>
	<path fill="#63DCB9" d="M118,336c0.1-0.7-0.3-1.7,0.8-2c0.2,0,0.6,0.3,0.6,0.5C119.7,335.6,118.8,335.8,118,336
		C118,336,118,336,118,336z"/>
	<path fill="#66DEBB" d="M180.1,349.4c-0.3-0.2-0.6-0.3-0.7-0.5c-0.2-0.5-0.1-1,0.6-0.9c0.2,0,0.5,0.4,0.6,0.7
		C180.5,348.9,180.2,349.2,180.1,349.4z"/>
</g>
</svg>
