<?xml version="1.0" encoding="utf-8"?>
<!-- Generator: Adobe Illustrator 23.0.0, SVG Export Plug-In . SVG Version: 6.00 Build 0)  -->
<svg version="1.1" id="Слой_1" xmlns="http://www.w3.org/2000/svg" xmlns:xlink="http://www.w3.org/1999/xlink" x="0px" y="0px"
	 viewBox="0 0 512 512" enable-background="new 0 0 512 512" xml:space="preserve">
<g>
	<path fill="#101113" d="M513,237c0,14,0,28,0,42c-0.4,1.1-1,2.2-1.2,3.4c-9.8,82.7-49.7,146.8-119.6,192C357.2,497,318,508,277,513
		c-13.7,0-27.3,0-41,0c-1.3-0.4-2.6-1-4-1.1C109.5,499.7,7.1,396.3,2.2,280.1c0.6-1.6,1.4-3.1,1.7-4.7c3.4-24.8,6.7-49.6,10-74.4
		l0,0c35.8-29.6,71.5-59.2,107.3-88.8c1.2-1.7,2.4-3.4,3.6-5.1c1,1.3,1.9,2.5,2.9,3.8c0.5-2.5,0.9-5,1.4-7.5c3.2,0,6.5-0.1,9.7-0.1
		c9.9,6,20.7,1.2,31,2.9c4.8,0.8,9.5,1.6,14.3,2.4c3-0.1,5.9-0.3,8.9-0.4c4.3,0.8,8.7,1.7,13,2.1c0.6,0.1,2.5-2.9,2.1-3.7
		c-3.4-7.1-9.8-2-14.8-3.3c-1.7-0.4-3.6,0.1-5.5,0.2c-13.7-0.7-27.3-1.5-41-2.2c-6-0.6-11.9-1.3-17.9-1.9c-4.8,2.3-4.5,0-5.3-4.1
		c-1.6-7.9-4.8-15.5-7.3-23.3c-0.1-2.3-0.3-4.6-0.4-6.9c0-2.6,0-5.3,0-7.9c3.8-4.5,4.1-9.1,1-14.1c22.9-15.3,47.6-26.6,74.4-33.2
		c1.2,0.4,2.4,0.8,3.6,1.3c0.1,0.3,0.1,0.6,0.1,0.9c1,0.7,1.9,1.4,2.9,2.1c0,0,0,0,0,0c0.7,0.7,1.3,1.3,2,2c32,27.3,64,54.7,96,82
		c1.3,1.8,2.6,3.5,3.8,5.3c1.6,0.9,3.6,2.8,4.8,2.4c2.2-0.8,4.4-2.6,5.5-4.6c0.6-1-1.3-3.4-2.1-5.2c-0.7-0.2-1.5-0.5-2.2-0.7
		c0,0,0.2-0.2,0.2-0.2l-0.1,0.2c-1.1-0.7-2.1-1.3-3.2-2c-0.4,0-0.8,0-1.3,0c-0.4-0.8-0.9-1.5-1.3-2.3c-0.2-2.2,0.2-4.7-0.8-6.4
		c-10.2-17.1-22.6-33.1-30-51.3c-3.3-8.2-42.3-31.7,6.7-30.6c0.4,0,0.8-0.6,1.2-0.8c83.5,7.8,148.4,46.9,195.1,116.4
		C496.2,154.2,507.8,194.5,513,237z M375.2,246.9L375.2,246.9c10.3,3.7,20.5,3.3,30.8,0.1c3.6-5.1,1.6-10-0.4-14.9
		c-0.2-1-0.5-2-0.7-3c-0.3-1.3-0.7-2.6-1-3.8c-4.5-7.4-9.7-14.1-18.6-16.4c-1.1-0.9-2.2-1.8-3.3-2.7c-0.6-0.1-1.2-0.1-1.8-0.2
		c-2.8-0.9-5.5-1.8-8.3-2.6c-1.3,0-2.6-0.1-3.9-0.1c-0.2-0.4-0.4-0.8-0.6-1.1c1-1,1.9-2.1,3.7-4c-8.1,0-15.2-0.1-22.3,0
		c-3,0-5.9,0.4-8.9,0.6c0.5,1.1,1,2.3,1.5,3.4c-0.2,0.4-0.4,0.8-0.5,1.1c-1.3,0.1-2.6,0.1-3.9,0.2c-4.7,1.6-9.4,3.3-14.1,4.9
		c-0.6,0.1-1.2,0.2-1.8,0.3c-1.1,0.8-2.2,1.6-3.2,2.5c-19.3,13.9-18.8,30.6-6.9,49c-0.9,4.7,1.7,4.9,5.1,4l0-0.1
		c4.4,9.5-2.3,8.1-7.9,8.3c-1.7,0-6.8-1.8-3,3.4c-3.5,0.9-8.7,0.6-4.6,6.7c0,0.9,0.1,1.9,0.1,2.8c-3,5-2.7,9.4,2.4,12.9
		c13.2,30.1,39.7,28.6,65.9,27.9c5.4-1.6,10.8-3.2,16.2-4.8c12-4.5,21.7-11.9,23.7-25c5.3-34.5-18.5-41.8-44.8-46.2
		c-1.2-1.7-2-4.4-3.5-4.9c-9.7-2.8-26.5,2.1-18.6-18.4c0.7-0.1,1.5-0.3,2.2-0.4c0,0.3,0,0.7,0,1c6.7,3,13.3,3.1,20-0.1
		c0-0.3,0-0.7,0-1c1,0.1,2,0.3,3,0.4c-1.7,6.6,3.5,8.3,7.7,10.6c0,0,0.3-0.1,0.3-0.1c-0.1,1-0.2,2-0.4,3
		C373.6,242.4,368,245.1,375.2,246.9z M144,366.9c0-0.7,0-1.4,0-2.2c0.8-0.1,1.6-0.1,2.4-0.2c2.4,0.2,5.4,1.9,5.6-2.6
		c15.8-6.6,17.7-20.6,17.8-34.9c0.3-40.3,0.1-80.6,0.1-120.8c-1-0.9-2.1-1.9-3.1-2.8c-9.2,0-18.3,0-27.5,0c-0.8,0.6-1.6,1.1-2.3,1.7
		c-0.1,40.3-0.2,80.5-0.4,120.8c-0.8,3.1-1.6,6.2-2.4,9.4c-0.4,0.3-0.7,0.6-1.1,0.9c-3,1-7.3-2.4-9.1,2.8c-0.6,0-1.3,0-1.9,0
		c-1.3-0.9-2.6-1.7-3.9-2.6c-0.6,1-1.3,2.1-1.9,3.1c0,8.1,0,16.2,0,24.3c0.3,1.1,0.6,2.3,0.8,3.4c6.8,6.5,15.1,1.3,22.5,2.7
		C140.8,370,142.5,368,144,366.9z M137,187.9c11,3.3,22,3.6,32.9-0.1c0-1,0-1.9-0.1-2.9c0-8.2,0-16.5,0-24.7c0-0.9,0-1.9,0.1-2.8
		c-10.9-4.1-21.9-3.7-32.9-0.2c-0.1,0.9-0.1,1.9-0.2,2.8c0,8.3,0,16.7,0,25C136.9,186,137,187,137,187.9z M243.9,201.2
		c1.8-0.7,3.5-1.4,6.5-2.6c-9.1,0-16.8,0-26.1,0c3.3,1.3,5.1,2,6.8,2.6c-11.6,3.7-23.4,6.2-33.4,14.5
		c-21.6,17.8-23.3,41.7-19.2,65.8c3.8,22.4,18.7,37,41.4,42.6c4.7,0.6,9.4,1.2,14,1.8c1.7,0,3.3,0,5,0c5.2-0.8,10.3-1.6,15.5-2.4
		c0.8-0.1,1.7-0.2,2.5-0.4c1.7-0.7,3.4-1.4,5.1-2.1c12.4-4.3,20.8-13.2,25.8-24.8c6.3-14.6,6-19.3,3.3-18.5
		c-10.9,3.3-27-9.9-33,10.3c-1.1,3.9-5.1,8.1-8.8,9.8c-15.6,6.9-29,3.4-36.1-12.6c-9.7-21.7-1.1-51.2,15.7-58
		c9.3,3.3,18.6,6.6,27.9,9.9c0.9,2.4,1.8,4.8,2.8,7.1c1.5,3.6,33.5,4,32.9,0.8c-1.8-10-5.3-18.8-12.9-26.7
		C269.5,207.6,256.7,205,243.9,201.2z M100,277.9c11.4-0.5,17.2-6.4,17.2-15.8c-0.1-9.7-6.1-15.8-16.5-15.6c-9.7,0.3-14.9,6-15,15.3
		C85.6,271.6,91.5,276.9,100,277.9z M197,17.7c-0.7-0.7-1.4-1.6-1.4-1.5c-2.3,1.5-5.1,2.5-6.6,4.6c-17,22.2-33.8,44.6-50.7,66.9
		c-1.9,2.5-3.5,5.2-5.3,7.9c5.6,1.1,7-3.6,9.5-6.9c10.7-13.7,21.6-27.3,32.3-41.1C182.3,37.9,189.5,27.9,197,17.7z M95.2,410.9
		c-4.4-1-7.9,2-8.1,5.9c-0.1,1.9,5.1,6,7.4,5.7c3.1-0.5,7.2-3.9,8-6.8C103.6,411.8,99.3,410.8,95.2,410.9z M172.7,274.2
		c0.6-0.1,1.1-0.1,1.7-0.2c0-6.4,0-12.7,0-19.1c-0.6,0.1-1.6,0.2-1.6,0.3C172.7,261.6,172.7,267.9,172.7,274.2z"/>
	<path fill="#FDFDFD" d="M191.4,9.7c-26.8,6.6-51.5,17.8-74.4,33.2c-1.6,1.1-3.3,2.3-4.9,3.4c-0.7,0.9-1.4,1.8-2.1,2.7
		c-1.3,0.5-2.6,1-3.9,1.5c-1,0.8-2,1.6-3,2.4c-3.8,3-7.5,6-11.3,9C69.1,80.5,50.6,102.6,36,128c-1.1,2-2.2,3.9-3.3,5.9
		c-4,8.3-7.9,16.6-11.9,24.8c-0.7,1.7-1.3,3.4-2,5.1c-3.3,10.4-6.6,20.8-9.9,31.2c1.6,2,3.3,4,4.9,5.9c0,0,0,0,0,0
		C9.9,201.7,5,201.6,6,208c-1.1,7-2.1,14-3.2,21c-0.6,2-1.2,4-1.8,6C1,158.2,1,81.5,0.9,4.7c0-3.2,0.6-3.8,3.8-3.8
		C81.8,1,158.9,1,236,1c0,0.3,0,0.6,0,0.9c-11.3,1.7-22.6,3.5-33.9,5.2c-2.3,0.6-4.7,1.2-7,1.8C193.8,9.2,192.6,9.5,191.4,9.7z"/>
	<path fill="#FDFDFD" d="M513,237c-5.2-42.5-16.8-82.8-40.9-118.7C425.5,48.8,360.6,9.7,277,1.9c0-0.3,0-0.6,0-0.9
		c77.4,0,154.8,0,232.3-0.1c3.2,0,3.8,0.6,3.8,3.8C513,82.2,513,159.6,513,237z"/>
	<path fill="#FDFDFD" d="M2.2,280.1C7.1,396.3,109.5,499.7,232,511.9c1.4,0.1,2.7,0.7,4,1.1c-77,0-154,0-231,0.1
		c-3.4,0-4.1-0.7-4.1-4.1C1,432.3,1,355.7,1,279C1.4,279.4,1.8,279.7,2.2,280.1z"/>
	<path fill="#FDFDFD" d="M277,513c41-5,80.2-16,115.2-38.6c69.9-45.2,109.8-109.3,119.6-192c0.1-1.2,0.8-2.3,1.2-3.4
		c0,76.7,0,153.3,0.1,230c0,3.4-0.7,4.1-4.1,4.1C431.7,513,354.3,513,277,513z"/>
	<path fill="#18191B" d="M277,1c0,0.3,0,0.6,0,0.9c-0.4,0.3-0.8,0.9-1.2,0.8c-49-1.1-10.1,22.4-6.7,30.6c7.4,18.2,19.8,34.2,30,51.3
		c1,1.7,0.6,4.2,0.8,6.4c-6.7-5.3-13.3-10.7-20-16c-1.6-4.5-2.4-9.6-4.9-13.5C262.3,41.5,254.8,18,236,1.9c0-0.3,0-0.6,0-0.9
		C249.7,1,263.3,1,277,1z"/>
	<path fill="#3E403F" d="M2.2,280.1c-0.4-0.4-0.8-0.7-1.2-1.1c0-11,0-22,0-33c1.6-5.7,3.3-11.4,4.9-17.1C5.9,222,6,215,6,208
		c-1-6.4,3.8-6.3,7.9-7.1c-3.3,24.8-6.6,49.6-10,74.4C3.7,276.9,2.8,278.5,2.2,280.1z"/>
	<path fill="#262729" d="M5.9,228.9C4.3,234.6,2.6,240.3,1,246c0-3.7,0-7.3,0-11c0.6-2,1.2-4,1.8-6C3.8,229,4.9,229,5.9,228.9z"/>
	<path fill="#F8F8F8" d="M300.7,285c0-0.9-0.1-1.9-0.1-2.8c1.8-1.5,3.9-4.5,5.4-4.2c9.8,1.7,23.7-7.4,27.8,10c0.1,0.7,0.2,1.3,0.2,2
		c3.6,13.1,26.3,19.2,37.1,10c0.7-0.7,1.4-1.3,2-2c7.8-6.5,6.4-12.3-1.2-17.8c-0.7-0.1-1.3-0.2-2-0.3c-2-0.7-4-1.5-6-2.2
		c-0.6-0.1-1.3-0.1-1.9-0.2c-3.6-0.9-7.2-1.9-10.8-2.8c-3.1-0.8-6.3-1.6-9.4-2.4c-1-0.1-1.9-0.2-2.9-0.3c-2.3-0.7-4.7-1.4-7-2.1
		c-0.9-0.1-1.7-0.2-2.6-0.3c-1.5-0.5-2.9-1-4.4-1.5c-3-1.5-5.9-2.9-8.9-4.4l0,0.1c-1.7-1.3-3.4-2.6-5.1-4
		c-11.9-18.3-12.3-35.1,6.9-49c1.1-0.8,2.2-1.6,3.2-2.5c0.6-0.1,1.2-0.2,1.8-0.3c4.7-1.6,9.4-3.3,14.1-4.9c1.3-0.1,2.6-0.1,3.9-0.2
		c9,0,18,0,27,0c1.3,0,2.6,0.1,3.9,0.1c2.8,0.9,5.5,1.8,8.3,2.6c0.6,0.1,1.2,0.1,1.8,0.2c1.1,0.9,2.2,1.8,3.3,2.7
		c9,2.3,14.2,9,18.6,16.4c0.3,1.3,0.7,2.6,1,3.8c0.2,1,0.5,2,0.7,3c-0.2,4.9-0.5,9.8-0.7,14.6c-8.9,0-17.8,0-26.8,0.1
		c-1-3.3-2.1-6.5-3.1-9.8l-0.3,0.1c-0.4-5.1-3.1-8.6-7.7-10.6c-1-0.1-2-0.3-3-0.4c-6.7-3.3-13.3-3.2-19.9,0.1
		c-0.7,0.1-1.5,0.3-2.2,0.4c-5.3,2.3-7.7,7.5-5.2,11.6c6,10,17.3,9.9,27.3,11.7c26.3,4.4,50.1,11.7,44.8,46.2
		c-2,13.1-11.7,20.5-23.7,25c-5.4,1.6-10.8,3.2-16.2,4.8c-26.2,0.7-52.7,2.1-65.9-27.9C302.3,293.7,301.5,289.3,300.7,285z"/>
	<path fill="#F7F8F8" d="M257,323.2c-0.8,0.1-1.7,0.2-2.5,0.4c-5.2,0.8-10.3,1.6-15.5,2.4c-1.7,0-3.3,0-5,0c-4.7-0.6-9.4-1.2-14-1.8
		c-22.7-5.5-37.6-20.2-41.4-42.6c-4.1-24.1-2.4-48,19.2-65.8c10-8.3,21.8-10.8,33.4-14.5c4.3,0,8.5,0,12.8,0
		c12.8,3.8,25.6,6.3,35.8,17c7.6,8,11.2,16.7,12.9,26.7c0.6,3.2-31.4,2.8-32.9-0.8c-1-2.4-1.9-4.8-2.8-7.1
		c-6.2-12.1-17.3-10.2-27.9-9.9c-16.8,6.8-25.4,36.3-15.7,58c7.1,16,20.5,19.5,36.1,12.6c3.7-1.6,7.6-5.9,8.8-9.8
		c6-20.2,22.1-6.9,33-10.3c2.7-0.8,3,4-3.3,18.5c-5,11.6-13.4,20.5-25.8,24.8C260.4,321.7,258.7,322.5,257,323.2z"/>
	<path fill="#F7F8F8" d="M136.6,325.8c0.1-40.3,0.2-80.5,0.4-120.8c0.8-0.6,1.6-1.1,2.3-1.7c9.2,0,18.3,0,27.5,0
		c1,0.9,2.1,1.9,3.1,2.8c0,40.3,0.3,80.6-0.1,120.8c-0.1,14.3-2,28.3-17.8,34.9c-1.9,0.9-3.7,1.8-5.6,2.6c-0.8,0.1-1.6,0.1-2.4,0.2
		c-9.3-0.4-18.5-0.7-27.8-1.1c0-8.1,0-16.2,0-24.3c1.9-0.2,3.9-0.4,5.8-0.6c0.6,0,1.3,0,1.9,0c3-0.9,6.1-1.8,9.1-2.8
		c0.4-0.3,0.7-0.6,1.1-0.9C134.9,332,135.8,328.9,136.6,325.8z"/>
	<path fill="#262729" d="M280,75c6.7,5.3,13.3,10.7,20,16c0.4,0.8,0.9,1.5,1.3,2.3c-1.8,1.6-3.6,3.2-5.3,4.7c-32-27.3-64-54.7-96-82
		c0-0.7,0-1.3,0-2c1-1,2-2,3-3C228.7,32.3,254.3,53.7,280,75z"/>
	<path fill="#F7F8F8" d="M136.8,185c0-8.3,0-16.7,0-25c11,0.1,22,0.1,33,0.2c0,8.2,0,16.5,0,24.7C158.9,184.9,147.9,185,136.8,185z"
		/>
	<path fill="#EC2631" d="M100,277.9c-8.5-1-14.4-6.2-14.4-16c0-9.3,5.3-15,15-15.3c10.5-0.3,16.5,5.9,16.5,15.6
		C117.3,271.5,111.4,277.4,100,277.9z"/>
	<path fill="#373839" d="M13.9,200.9c-1.6-2-3.3-4-4.9-5.9c9.3,0.4,12.9-8.6,19.9-12c24.7-20.3,49.5-40.6,74.2-60.9
		c2.6-2,5.3-4,7.9-6.1c3.1-2.6,6.1-5.2,9.2-7.8c0.3,1.3,0.6,2.7,1,4C85.4,141.8,49.7,171.4,13.9,200.9z"/>
	<path fill="#18191B" d="M197,17.7c-7.5,10.1-14.7,20.1-22.2,29.9c-10.6,13.8-21.6,27.3-32.3,41.1c-2.6,3.3-3.9,8-9.5,6.9
		c1.8-2.6,3.4-5.3,5.3-7.9c16.8-22.3,33.7-44.7,50.7-66.9c1.6-2,4.4-3.1,6.6-4.6C195.6,16.2,196.3,17,197,17.7z"/>
	<path fill="#262729" d="M121.2,112.2c-0.3-1.3-0.6-2.7-1-4c-3.1,2.6-6.1,5.2-9.2,7.8c-5.6-2.2-10.7-1.4-15.1,2.9
		c-13.6,3.4-27.3,6.8-40.9,10.2c-2.7,0.6-5.3,1.3-8,1.9c-4.8,1-9.5,1.9-14.3,2.9c1.1-2,2.2-3.9,3.3-5.9c7.3-1.4,14.6-2.8,21.9-4.2
		c2.5-0.6,6.4,2.2,7.1-2.8c7.7-1.7,15.6-3,23.2-5.2c10-2.9,19.9-6.5,29.8-9.8c2.4-0.5,4.8-1.1,7.2-1.6c-0.1,0.9-0.3,1.7-0.4,2.6
		C123.6,108.8,122.4,110.5,121.2,112.2z"/>
	<path fill="#4A4B4A" d="M124.8,107.1c0.1-0.9,0.3-1.7,0.4-2.6c-2.4,0.5-4.8,1.1-7.2,1.6c-0.3-0.4-0.7-0.7-1-1.1c-1-3-2-6-3-9
		c2,0.5,4.1,1,6.7,1.6c-1.9-5-3.6-9.5-5.7-15.3c-1,5.3-1.8,9.2-2.5,13.2c-0.5,0.1-1,0.3-1.5,0.4c0.4-8,0.7-16,1.1-23.9
		c1.5,0.3,3.2,5.5,4.5-0.2c2.5,7.7,5.8,15.3,7.3,23.3c0.8,4.1,0.5,6.5,5.3,4.1c0,1.4,0,2.8,0,4.1c-0.5,2.5-0.9,5-1.4,7.5
		C126.7,109.6,125.7,108.3,124.8,107.1z"/>
	<path fill="#4A4B4A" d="M169.8,106.1c-10.3-1.7-21.1,3.1-31-2.9c2.7-0.7,5.4-1.4,8.2-2.1c13.7,0.7,27.3,1.5,41,2.2
		c1.7,1.6,3.4,3.2,5.1,4.8c-3,0.1-5.9,0.3-8.9,0.4C180.1,103,174.5,107.3,169.8,106.1z"/>
	<path fill="#141517" d="M316.1,263.8c3,1.5,5.9,2.9,8.9,4.4c1.5,0.5,2.9,1,4.4,1.5c0.9,0.1,1.7,0.2,2.6,0.3c2.3,1,4.7,2,7,3.1
		c0,3.7,0,7.4,0,12.1c-2-2.9-3.1-4.5-4.2-6.1c-9.1-7.8-19.8-2.1-29.6-3.5c-3.8-5.3,1.4-3.4,3-3.4C313.8,272,320.5,273.3,316.1,263.8
		z"/>
	<path fill="#3E403F" d="M95.2,410.9c4.1-0.1,8.4,0.9,7.3,4.8c-0.8,2.9-4.9,6.3-8,6.8c-2.3,0.4-7.5-3.8-7.4-5.7
		C87.4,412.9,90.8,409.9,95.2,410.9z"/>
	<path fill="#18191B" d="M364,249.9c-10.1-1.7-21.3-1.7-27.3-11.7c-2.5-4.1-0.1-9.3,5.2-11.6c-7.9,20.5,8.9,15.7,18.6,18.4
		C362,245.5,362.8,248.2,364,249.9z"/>
	<path fill="#676768" d="M305.2,275.5c9.8,1.4,20.5-4.3,29.6,3.5c-0.3,3-0.6,6-1,9c-4.1-17.4-18-8.3-27.8-10
		c-1.5-0.3-3.6,2.7-5.4,4.2C296.5,276.1,301.7,276.4,305.2,275.5z"/>
	<path fill="#262729" d="M229,227.1c10.6-0.3,21.7-2.2,27.9,9.9C247.6,233.7,238.3,230.4,229,227.1z"/>
	<path fill="#3E403F" d="M193,108.2c-1.7-1.6-3.4-3.2-5.1-4.8c1.8-0.1,3.8-0.6,5.5-0.2c4.9,1.3,11.4-3.8,14.8,3.3
		c0.4,0.8-1.5,3.8-2.1,3.7C201.7,109.8,197.3,108.9,193,108.2z"/>
	<path fill="#79797A" d="M169.8,160.1c-11-0.1-22-0.1-33-0.2c0.1-0.9,0.1-1.9,0.2-2.8c11,0.1,21.9,0.1,32.9,0.2
		C169.9,158.3,169.9,159.2,169.8,160.1z"/>
	<path fill="#79797A" d="M136.8,185c11,0,22-0.1,33-0.1c0,1,0,1.9,0.1,2.9c-11,0-22,0.1-32.9,0.1C137,187,136.9,186,136.8,185z"/>
	<path fill="#050505" d="M341.6,202c-0.5-1.1-1-2.3-1.5-3.4c3-0.2,5.9-0.5,8.9-0.6c7.1-0.1,14.2,0,22.3,0c-1.8,1.9-2.8,3-3.7,4
		C358.8,202,350.2,202,341.6,202z"/>
	<path fill="#79797A" d="M116.4,71.8c-1.2,5.8-2.9,0.5-4.5,0.2c-0.4-2.3-0.8-4.6-1.2-6.9c-0.8-1.8-1.6-3.6-2.4-5.4
		c-0.1-1.4-0.2-2.9-0.3-4.3c0.9-1.1,1.9-2.3,2.8-3.4c0.3,0.3,0.7,0.7,1,1c0.6,1.4,1.2,2.7,1.8,4.1c0.7,2.6,1.5,5.2,2.2,7.8
		C116.2,67.2,116.3,69.5,116.4,71.8z"/>
	<path fill="#3E403F" d="M116.2,363.7c9.3,0.4,18.5,0.7,27.8,1.1c0,0.7,0,1.4,0,2.2c-9,0.1-18,0.1-27,0.2
		C116.8,366,116.5,364.8,116.2,363.7z"/>
	<path fill="#050505" d="M117,367.1c9-0.1,18-0.1,27-0.2c-1.5,1-3.2,3.1-4.4,2.9C132.1,368.4,123.8,373.6,117,367.1z"/>
	<path fill="#79797A" d="M296,98c1.8-1.6,3.5-3.2,5.3-4.7c0.4,0,0.8,0,1.3,0c1.1,0.7,2.1,1.3,3.2,2l0.1-0.2c0,0-0.2,0.2-0.2,0.2
		c0.4,0.6,0.7,1.2,1.1,1.9c-0.5,4.1-2.3,6.9-7,6.2C298.6,101.5,297.3,99.8,296,98z"/>
	<path fill="#050505" d="M169.9,157.4c-11-0.1-21.9-0.1-32.9-0.2C148,153.7,159,153.3,169.9,157.4z"/>
	<path fill="#050505" d="M137,187.9c11,0,22-0.1,32.9-0.1C159,191.5,148,191.3,137,187.9z"/>
	<path fill="#050505" d="M243.9,201.2c-4.3,0-8.5,0-12.8,0c-1.7-0.7-3.5-1.4-6.8-2.6c9.3,0,17,0,26.1,0
		C247.4,199.8,245.7,200.5,243.9,201.2z"/>
	<path fill="#ABACAC" d="M341.6,202c8.6,0,17.2,0,25.9,0c0.2,0.4,0.4,0.8,0.6,1.1c-9,0-18,0-27,0C341.2,202.7,341.4,202.4,341.6,202
		z"/>
	<path fill="#262729" d="M378.1,246.8c8.9,0,17.8,0,26.8-0.1c0.4,0.1,0.8,0.2,1.1,0.3c-10.3,3.2-20.6,3.6-30.8-0.2
		C376.2,246.8,377.1,246.8,378.1,246.8z"/>
	<path fill="#18191B" d="M344,226.2c6.6-3.4,13.3-3.5,19.9-0.1c0,0.3,0,0.7,0,1c-6.7,0-13.3,0.1-20,0.1
		C344,226.8,344,226.5,344,226.2z"/>
	<path fill="#050505" d="M172.7,274.2c0-6.3,0-12.6,0.1-18.9c0-0.1,1.1-0.2,1.6-0.3c0,6.4,0,12.7,0,19.1
		C173.8,274.1,173.3,274.1,172.7,274.2z"/>
	<path fill="#18191B" d="M113.9,57.1c-0.6-1.4-1.2-2.7-1.8-4.1c8.2-2.3,1.8-4.5,0-6.7c1.6-1.1,3.3-2.3,4.9-3.4
		c3.2,4.9,2.8,9.6-1,14.1C115.3,57,114.6,57,113.9,57.1z"/>
	<path fill="#373839" d="M299.8,103.3c4.8,0.7,6.5-2.1,7-6.2c0.4-0.4,0.8-0.7,1.1-1.1c0.8,1.8,2.7,4.1,2.1,5.2
		c-1.1,2-3.3,3.8-5.5,4.6C303.5,106.2,301.5,104.2,299.8,103.3z"/>
	<path fill="#676768" d="M146.9,101.1c-2.7,0.7-5.4,1.4-8.2,2.1c-3.2,0-6.5,0.1-9.7,0.1c0-1.4,0-2.8,0-4.1
		C135,99.8,141,100.5,146.9,101.1z"/>
	<path fill="#18191B" d="M367,226.5c4.6,2.1,7.3,5.5,7.7,10.6C370.5,234.7,365.3,233.1,367,226.5z"/>
	<path fill="#676768" d="M300.7,285c0.8,4.3,1.6,8.6,2.4,12.9C298,294.4,297.7,290,300.7,285z"/>
	<path fill="#373839" d="M203,11c-1,1-2,2-3,3c-0.7,0-1.3,0-2,0c0,0,0,0,0,0c-1-0.7-1.9-1.4-2.9-2.1c0-0.3,0-0.6-0.1-0.9
		c0-0.7,0-1.4,0-2.1c2.3-0.6,4.7-1.2,7-1.8C202.4,8.4,202.7,9.7,203,11z"/>
	<path fill="#ABACAC" d="M369,325.9c5.4-1.6,10.8-3.2,16.2-4.8C379.8,322.7,374.4,324.3,369,325.9z"/>
	<path fill="#050505" d="M344.1,227.2c6.7,0,13.3-0.1,20-0.1C357.4,230.3,350.7,230.2,344.1,227.2z"/>
	<path fill="#ABACAC" d="M406,247c-0.4-0.1-0.8-0.2-1.1-0.3c0.2-4.9,0.5-9.8,0.7-14.6C407.6,237,409.6,241.9,406,247z"/>
	<path fill="#ABACAC" d="M239,326c5.2-0.8,10.3-1.6,15.5-2.4C249.3,324.3,244.2,325.2,239,326z"/>
	<path fill="#ABACAC" d="M337.1,203.3c-4.7,1.6-9.4,3.3-14.1,4.9C327.7,206.6,332.4,204.9,337.1,203.3z"/>
	<path fill="#ABACAC" d="M220,324.1c4.7,0.6,9.4,1.2,14,1.8C229.3,325.3,224.7,324.7,220,324.1z"/>
	<path fill="#3E403F" d="M169.8,106.1c4.7,1.2,10.3-3.1,14.3,2.4C179.3,107.7,174.6,106.9,169.8,106.1z"/>
	<path fill="#ABACAC" d="M378.1,246.8c-1,0-1.9,0-2.9,0c0,0,0,0.1,0,0.1c-0.2-2.3-0.4-4.6-0.5-6.9c0.1-1,0.2-2,0.4-3
		C376,240.3,377.1,243.5,378.1,246.8z"/>
	<path fill="#3E403F" d="M133,336c-3,0.9-6.1,1.8-9.1,2.8C125.7,333.6,130,337,133,336z"/>
	<path fill="#ABACAC" d="M380.2,205.9c-2.8-0.9-5.5-1.8-8.3-2.6C374.6,204.1,377.4,205,380.2,205.9z"/>
	<path fill="#79797A" d="M136.6,325.8c-0.8,3.1-1.6,6.2-2.4,9.4C134.9,332,135.8,328.9,136.6,325.8z"/>
	<path fill="#18191B" d="M374.6,240c0.2,2.3,0.4,4.6,0.5,6.9C368,245.1,373.6,242.4,374.6,240z"/>
	<path fill="#141517" d="M311,259.9c1.7,1.3,3.4,2.6,5.1,4C312.7,264.9,310.1,264.7,311,259.9z"/>
	<path fill="#3E403F" d="M122.1,338.8c-1.9,0.2-3.9,0.4-5.8,0.6c0.6-1,1.3-2.1,1.9-3.1C119.4,337.1,120.7,337.9,122.1,338.8z"/>
	<path fill="#262729" d="M113.9,57.1c0.7,0,1.4-0.1,2.2-0.1c0,2.6,0,5.3,0,7.9C115.3,62.3,114.6,59.7,113.9,57.1z"/>
	<path fill="#3E403F" d="M146.4,364.5c1.9-0.9,3.7-1.8,5.6-2.6C151.8,366.4,148.8,364.8,146.4,364.5z"/>
	<path fill="#ABACAC" d="M257,323.2c1.7-0.7,3.4-1.4,5.1-2.1C260.4,321.7,258.7,322.5,257,323.2z"/>
	<path fill="#79797A" d="M169.8,206.2c-1-0.9-2.1-1.9-3.1-2.8C167.8,204.3,168.8,205.2,169.8,206.2z"/>
	<path fill="#ABACAC" d="M321.2,208.5c-1.1,0.8-2.2,1.6-3.2,2.5C319,210.1,320.1,209.3,321.2,208.5z"/>
	<path fill="#ABACAC" d="M385.2,208.8c-1.1-0.9-2.2-1.8-3.3-2.7C383,207,384.1,207.9,385.2,208.8z"/>
	<path fill="#ABACAC" d="M404.9,229.1c-0.3-1.3-0.7-2.6-1-3.8C404.2,226.5,404.6,227.8,404.9,229.1z"/>
	<path fill="#79797A" d="M139.3,203.3c-0.8,0.6-1.6,1.1-2.3,1.7C137.7,204.4,138.5,203.9,139.3,203.3z"/>
	<path fill="#262729" d="M305.8,95.2c-1.1-0.7-2.1-1.3-3.2-2C303.7,93.9,304.7,94.6,305.8,95.2z"/>
	<path fill="#18191B" d="M195.1,11.9c1,0.7,1.9,1.4,2.9,2.1C197,13.3,196.1,12.6,195.1,11.9z"/>
	<path fill="#18191B" d="M195,8.9c0,0.7,0,1.4,0,2.1c-1.2-0.4-2.4-0.8-3.6-1.3C192.6,9.5,193.8,9.2,195,8.9z"/>
	<path fill="#262729" d="M308,96c-0.4,0.4-0.8,0.7-1.1,1.1c-0.4-0.6-0.7-1.2-1.1-1.9C306.5,95.5,307.3,95.7,308,96z"/>
	<path fill="#18191B" d="M198,14c0.7,0,1.3,0,2,0c0,0.7,0,1.3,0,2C199.3,15.3,198.7,14.7,198,14z"/>
	<path fill="#101113" d="M203,11c-0.3-1.3-0.7-2.6-1-3.9c11.3-1.7,22.6-3.5,33.9-5.2c18.8,16.1,26.3,39.6,39.1,59.6
		c2.5,3.9,3.3,9,4.9,13.5C254.3,53.7,228.7,32.3,203,11z"/>
	<path fill="#101113" d="M110.8,65.1c0.4,2.3,0.8,4.6,1.2,6.9c-0.4,8-0.7,16-1.1,23.9c0,0,0,0,0,0c-0.7,0.7-1.3,1.3-2,2
		c-2.1,7.8,4.3,6,8.1,7.1c0.3,0.4,0.7,0.7,1,1.1c-9.9,3.3-19.7,6.9-29.8,9.8c-7.6,2.2-15.4,3.5-23.2,5.2c2.3-5.1,4.1-10.4,6.9-15.2
		c10.2-17.7,20.6-35.3,31-53c1-0.8,2-1.6,3-2.4c0.8,1.6,1.5,3.3,2.3,4.9c0.1,1.4,0.2,2.9,0.3,4.3C109.3,61.5,110.1,63.3,110.8,65.1z
		"/>
	<path fill="#101113" d="M57.9,123.9c-7.3,1.4-14.6,2.8-21.9,4.2c14.6-25.4,33.1-47.5,55.7-66.2c-0.5,2.6-0.3,5.5-1.6,7.6
		C79.5,87.7,68.7,105.7,57.9,123.9z"/>
	<path fill="#101113" d="M32.8,133.9c4.8-1,9.5-1.9,14.3-2.9c7,8-4.7,10.3-5,16c-1.7,1.7-3.3,3.3-5,5c-5.4,2.2-10.8,4.5-16.1,6.7
		C24.8,150.5,28.8,142.2,32.8,133.9z"/>
	<path fill="#141517" d="M28.9,183c-7,3.4-10.6,12.4-19.9,12c3.3-10.4,6.6-20.8,9.9-31.2c1.1,0.1,2.5,0.7,3.4,0.2
		c3.8-1.8,7.5-4,11.3-6c-1.8,3.9-3.4,7.9-5.4,11.7c-2.3,4.3-8,9.6-6.9,12.4c2.1,5.5,1.9-3.7,4.8-2.2c0.1,1.1,0.3,2.1,0.4,3.2
		l0.2,0.2l0.1-0.2C27.5,183.1,28.2,183,28.9,183z"/>
	<path fill="#18191B" d="M57.9,123.9c10.8-18.1,21.6-36.2,32.2-54.4c1.2-2.1,1.1-5.1,1.6-7.6c3.8-3,7.5-6,11.3-9
		c-10.4,17.6-20.8,35.2-31,53c-2.8,4.8-4.6,10.1-6.9,15.2C64.3,126.1,60.4,123.3,57.9,123.9z"/>
	<path fill="#18191B" d="M26,180c-2.9-1.5-2.7,7.7-4.8,2.2c-1.1-2.8,4.6-8.1,6.9-12.4c2-3.8,3.6-7.8,5.4-11.7c-3.8,2-7.5,4.2-11.3,6
		c-0.9,0.4-2.2-0.1-3.4-0.2c0.7-1.7,1.3-3.4,2-5.1c5.4-2.2,10.8-4.5,16.1-6.7c0.7,1,1.3,2,2,3C34.7,163.4,30.3,171.7,26,180z"/>
	<path fill="#18191B" d="M5.9,228.9c-1,0-2,0-3.1,0.1c1.1-7,2.1-14,3.2-21C6,215,5.9,222,5.9,228.9z"/>
	<path fill="#262729" d="M112,46.3c1.8,2.2,8.2,4.4,0,6.7c-0.3-0.3-0.7-0.7-1-1c-0.4-1-0.8-2-1.1-3C110.6,48.1,111.3,47.2,112,46.3z
		"/>
	<path fill="#4A4B4A" d="M109.9,49c0.4,1,0.8,2,1.1,3c-0.9,1.1-1.9,2.3-2.8,3.4c-0.8-1.6-1.5-3.3-2.3-4.9
		C107.3,50,108.6,49.5,109.9,49z"/>
	<path fill="#101113" d="M333.8,288c0.3-3,0.6-6,1-9c1.1,1.6,2.2,3.1,4.2,6.1c0-4.7,0-8.4,0-12.1c0.1-0.3,0.1-0.6,0-0.9
		c1,0.1,1.9,0.2,2.9,0.3c0.7,0.8,1.4,1.7,2.1,2.5c4.6,1.8,9.2,3.9,13.9,5.4c1,0.3,2.8-1.7,4.2-2.7c0.6,0.1,1.3,0.1,1.9,0.2
		c0.9,1.7,1.7,3.4,2.6,5.1c1.1-1,2.3-1.9,3.4-2.9c0.7,0.1,1.3,0.2,2,0.3c2.7,5.8,4,11.7,1.2,17.8c-0.7,0.7-1.4,1.3-2,2
		c-13.3,0-26.4-0.6-37.1-10C334,289.3,333.9,288.7,333.8,288z"/>
	<path fill="#141517" d="M334,290c10.7,9.5,23.8,10.1,37.1,10C360.3,309.2,337.6,303.1,334,290z"/>
	<path fill="#141517" d="M362.1,277.6c-1.4,0.9-3.2,3-4.2,2.7c-4.7-1.4-9.3-3.5-13.9-5.3c2.4,0,4.9-0.1,7.3-0.1
		C354.9,275.7,358.5,276.7,362.1,277.6z"/>
	<path fill="#141517" d="M373.1,298.1c2.8-6.1,1.6-12-1.2-17.8C379.5,285.7,380.9,291.6,373.1,298.1z"/>
	<path fill="#141517" d="M370,280c-1.1,1-2.3,1.9-3.4,2.9c-0.9-1.7-1.7-3.4-2.6-5.1C366,278.5,368,279.3,370,280z"/>
	<path fill="#4A4B4A" d="M351.3,274.8c-2.4,0-4.9,0.1-7.3,0.1c-0.7-0.8-1.4-1.7-2.1-2.5C345,273.2,348.2,274,351.3,274.8z"/>
	<path fill="#4A4B4A" d="M339,272.1c0.2,0.3,0.2,0.6,0,0.9c-2.3-1-4.7-2-7-3.1C334.3,270.7,336.7,271.4,339,272.1z"/>
	<path fill="#4A4B4A" d="M329.4,269.7c-1.5-0.5-2.9-1-4.4-1.5C326.5,268.7,328,269.2,329.4,269.7z"/>
	<path fill="#101113" d="M26,180c4.3-8.3,8.7-16.6,13-25c2-1,4-2.1,5.9-3.1c0.7-1,1.4-2,2-3c0,0,0,0,0,0c1.7-0.4,3.6-0.5,5.2-1.2
		c17-8.5,34-17.1,50.9-25.7c-24.7,20.3-49.5,40.6-74.2,60.9c-0.7,0.1-1.4,0.1-2.1,0.2c0,0-0.3,0.1-0.3,0.1
		C26.3,182.1,26.1,181.1,26,180z"/>
	<path fill="#18191B" d="M103.1,122.1c-17,8.6-33.9,17.2-50.9,25.7c-1.5,0.8-3.4,0.8-5.2,1.2c-1.7-0.7-3.3-1.3-5-2
		c0.3-5.8,12-8,5-16c2.7-0.6,5.3-1.3,8-1.9c-1.6,4.2-3.3,8.4-4.9,12.6c2.1-0.1,4.4,0.5,6.2-0.3c8.4-3.9,16.7-8,24.8-12.5
		c5.2-2.9,9.9-6.6,14.9-9.9c4.4-4.3,9.5-5.1,15.1-2.9C108.4,118,105.7,120.1,103.1,122.1z"/>
	<path fill="#101113" d="M95.9,118.9c-4.9,3.3-9.7,7-14.9,9.9c-8.1,4.5-16.4,8.6-24.8,12.5c-1.7,0.8-4.1,0.2-6.2,0.3
		c1.6-4.2,3.3-8.4,4.9-12.6C68.7,125.7,82.3,122.3,95.9,118.9z"/>
	<path fill="#676768" d="M117,105c-3.8-1.1-10.2,0.8-8.1-7.1c0.7-0.7,1.3-1.3,2-2c0,0,0,0,0,0c0.5-0.1,1-0.3,1.5-0.4
		c0.5,0.2,1,0.4,1.5,0.5C115,99,116,102,117,105z"/>
	<path fill="#262729" d="M114,96c-0.5-0.2-1-0.4-1.5-0.5c0.7-3.9,1.5-7.9,2.5-13.2c2.2,5.8,3.9,10.3,5.7,15.3
		C118,97,116,96.5,114,96z"/>
	<path fill="#4A4B4A" d="M110.8,65.1c-0.8-1.8-1.6-3.6-2.4-5.4C109.3,61.5,110.1,63.3,110.8,65.1z"/>
	<path fill="#4A4B4A" d="M110.9,95.9c-0.7,0.7-1.3,1.3-2,2C109.6,97.3,110.3,96.6,110.9,95.9z"/>
	<path fill="#262729" d="M42,147c1.7,0.7,3.3,1.3,5,2c0,0,0,0,0,0c-0.7,1-1.4,2-2,3c-2,1-4,2.1-5.9,3.1c-0.7-1-1.3-2-2-3
		C38.7,150.4,40.4,148.7,42,147z"/>
	<polygon fill="#373839" points="26.4,183.2 26.7,183.2 26.6,183.4 	"/>
	<path fill="#18191B" d="M45,152c0.7-1,1.4-2,2-3C46.3,150,45.6,151,45,152z"/>
</g>
</svg>
