<?xml version="1.0" encoding="utf-8"?>
<!-- Generator: Adobe Illustrator 23.0.0, SVG Export Plug-In . SVG Version: 6.00 Build 0)  -->
<svg version="1.1" id="Слой_1" xmlns="http://www.w3.org/2000/svg" xmlns:xlink="http://www.w3.org/1999/xlink" x="0px" y="0px"
	 viewBox="0 0 511.3 348" enable-background="new 0 0 511.3 348" xml:space="preserve">
<g>
	<path fill="#FEFEFE" d="M256.9,1c84,0,168,0,251.9-0.1c3.8,0,4.3,1,4.3,4.4c-0.1,113.1-0.1,226.3,0,339.4c0,3.5-0.6,4.4-4.3,4.4
		C341,349,173.2,349,5.4,349.1c-3.9,0-4.5-1-4.5-4.7C1,231.3,1,118.2,0.9,5c0-3.3,0.5-4.2,4-4.1C88.9,1,172.9,1,256.9,1z"/>
	<path fill="#50BFF3" d="M405.1,282.3c-1,1-2,2-3,3c-7.5-0.8-8.9-2.1-8.7-7.9c0-0.8-0.1-2.1,0.6-2.3c3.9-1.2,1.9-4.2,2.3-6.6
		c0.4-1.9,0.7-3.6-1.4-4.7c-2.2-1.2-1.2-3.1-0.7-5.6c-2.6,2.5-4.3,2-5.4-0.5c-0.9-2.1-2-4.2-2.6-6.5c-0.3-1.3-0.3-2.8,1.1-3.5
		c1.6-0.9,2.9-0.2,3.9,1.1c1,1.2,1.3,3.1,4.1,3.5c-2.6-3.1-3.1-5.8-0.7-8.7c1.3-1.6,0-2.8-1.7-3.2c-2.9-0.7-5.1-2.2-6.4-5
		c-0.8-1.8-2.6-1.9-4.3-2.1c-3.2-0.5-5.4-2.5-7.5-4.6c-0.8-0.8-1.4-1.9-0.3-3.1c0.9-0.9,1.8-0.6,2.7-0.1c1.5,0.7,2.7,2,4.3,2.4
		c0.9,0.2,1.7,0.1,2.3-0.6c0.7-0.8,0.4-1.5-0.2-2.2c-3-3.7-3-7.6-0.5-11.5c0.8-1.4,1.1-3,0-4.2c-5.9-5.9-5.6-13.2-5-20.7
		c0.2-3.1,1.2-6.8-3.1-8.5c-0.6-0.2-0.7-1.1-0.7-1.8c0.1-9.3-3.1-18-5.3-26.9c-0.6-2.7-2.4-4.9-4.1-6.7c-3-3.1-3.6-5.7-0.9-9.1
		c1-1.3,1.4-2.9,0.4-4.2c-3.7-4.7-2.5-11-5.2-15.8c-2.4-4.3-5.2-8-3-13.2c0.2-0.5-0.4-1.3-1-1.6c-4.3-2.8-3.8-7.9-4.9-11.9
		c-1.5-5.6-1.5-11.6-3.2-17.4c-1.5-5.4-2.9-11.1-3.2-16.8c-0.5-9.6-4.7-18.3-6.8-27.5c-0.2-1-0.2-1.9,0.4-2.8c3.3-1,5.2,1.3,6.4,3.4
		c6,10.2,13.9,19.1,20.1,29.1c3.4,5.6,8.3,10.3,10.7,16.2c3.7,8.9,10.1,15.8,15.8,23.2c3.4,4.5,5.8,8.9,7.3,14.2
		c0.7,2.4,1.7,4.7,4.4,5.6c0.6,0.2,1.4,0.8,1.4,1.4c0.2,5.2,3.8,7.4,7.7,9.8c2.1,1.3,3.3,3.8,3,6.9c-0.5,5.4,0.6,6.8,5.9,7.6
		c6.2,0.9,5.5,6.5,6,10c0.6,3.7,2.1,4.6,5,5.5c5.1,1.5,5.3,1.9,3.3,6.9c-0.9,2.3,0.3,3.1,2.3,3.2c3.7,0.2,5.9,1.5,4.1,5.6
		c-0.4,0.9-0.6,1.4,0.5,1.8c2.4,0.8,3.2,2.7,3.5,5c0,0.3,0.1,0.9,0.3,0.9c5.7,0.3,5.6,7.8,11.1,8.7c5.3,0.9,5.9,2.5,5.5,8.1
		c-0.3,4,1.8,7,4.5,9.6c1.9,1.8,3,3.5,0.8,5.7c2.5,1,5.2-3.9,7,0.8c-22.3,22.3-44.6,44.6-66.9,66.9c-2,0.7-2.9-1.8-5.3-1.5
		C404.1,279.3,406.4,279.6,405.1,282.3z"/>
	<path fill="#FEBA85" d="M173,331.9c-9.6,0.2-18.2-3.3-24.9-9.7c-16-15.4-31.5-31.4-47.2-47.2c0.8-1.9,2.4-3.2,3.7-4.6
		c2.2-2.3,2.7-4.9,1.1-7.7c-0.3-0.4-0.6-0.8-0.8-1.3c-0.4-1,3.8-17.1,4.8-17.5c5.2-2,5.5-6.7,5.9-11.1c0.3-3.7,1.3-6.4,4.2-9
		c3.8-3.6,3.4-9,2.5-13.6c-1.3-6.1,1.1-11.2,2.5-16.7c0.4-1.8,1.7-3.5,1.1-5.3c-1.5-4.6,0.9-7.4,4.2-9.6c1.9-1.3,2.3-2.5,1.2-4.5
		c-0.8-1.5-1.5-3.4-0.6-4.8c2.4-3.6,3.6-7.2,2.6-11.6c-0.4-1.6,1.4-2.5,2.9-2.9c3.4-0.8,5.1-3.7,4.3-6.4c-1.7-6.2,1.3-11.8,1.7-17.7
		c0.5-8.9,4.8-16.8,7.4-25.2c1.8-5.7,1.6-11.9,3.9-17.5c0.4-0.9,0.3-2.1,0.9-2.8c4.6-5.6,5.6-12.4,6.3-19.2c1.2-10.9,6-20.7,8-31.3
		c0.3-1.6,0.7-3.3,1.8-4.6c1.3-1.5,2.7-2.2,3.7,0.3c0.5,2.2,0.3,4.3,0.3,6.5c0,95.6,0,191.2,0,286.8
		C174.4,326.5,175.1,329.5,173,331.9z"/>
	<path fill="#4EBEF2" d="M338,27c3.1,7.6,5.2,15.5,7,23.5c0.9,3.9-1,8.4,2.7,11.9c1.4,1.3-1.2,3.9-0.1,6.2c2.5,5.1,4,10.9,3.4,16.2
		c-0.5,4.6,4.5,7.6,2.2,12.1c-0.2,0.3,0.7,1.6,1.4,1.8c5,1.5,3.6,4.7,2.2,7.9c-1,2.3-1.4,4.2,2,4.6c1.1,0.1,2.3,1.1,2,1.9
		c-1.6,4.1,3.3,7.1,1.5,11.3c-0.7,1.7,1.3,3.3,2.4,4.7c2.2,2.8,2.7,5.2,0,7.9c-2.2,2.2-1.7,3.5,0.4,6.1c2.2,2.7,4,6.5,5.6,9.6
		c3,5.6,0.6,11.8,4,17.1c1.3,1.9,2.9,5,0.6,7.9c-0.5,0.6-0.3,2,0.6,2.1c8,1,3.3,7.2,3,9.8c-0.7,5.5,2.3,10.4,1.5,15.6
		c0,0.2,0.6,0.7,1,0.9c4.9,2.4,4.7,5.5,1.9,9.7c-1.9,2.8-1.4,6.3,1.3,8.2c2,1.4,2,2.4,0.9,3.9c-1.1,1.5-2.4,3-4.5,1.6
		c-2-1.3-3.9-2.6-6.2-3.4c2.1,3,4.3,5.8,8.4,6c2.5,0.1,4.5,0.2,5,3.5c0.4,2.8,3,3.1,5.3,3.6c3.9,0.7,4.7,2.8,2.1,5.8
		c-1.7,1.9-2.7,3.2-0.2,5.1c1,0.8,2.4,1.6,2.1,3.1c-0.1,1.1-1.2,0.9-2,0.9c-1.7,0-3.3-0.4-4.2-2.1c-0.3-0.6-0.2-1.3-0.5-1.9
		c-0.5-1.2-1.3-2.1-2.6-1.6c-1.5,0.5-1.3,1.9-0.9,2.9c1.1,2.7,2.4,5.3,3.7,8c1.2,0.1,1.2-0.9,1.7-1.5c0.7-0.8,0.7-2.7,2.3-1.8
		c1.4,0.7,1.4,2.4,0.6,3.5c-1.4,2.1-2,3.5,1.4,3.8c1.2,0.1,2.4,1.5,1.7,2.5c-1.9,2.7-1.5,5.1,0.1,7.7c0.4,0.6-0.3,2-1.1,1.9
		c-5.9-1.1-2.3,3.1-2.6,4.9c-0.5,3.3,1.4,3.8,4.3,3.3c1-0.2,2.2,0.7,2.7,1.9c-12.5,12.5-24.7,25.3-37.5,37.4
		c-7.3,6.8-16.5,9.8-26.6,9.3c-1.7-1.8-1.4-4-1.4-6.2c0-97.6,0-195.1,0-292.7C336.6,31,336.2,28.7,338,27z"/>
	<path fill="#FEB984" d="M173,29c-1.7,0.7-2.5,2.3-2.8,3.9c-1,6.6-3.1,12.9-5.2,19.1c-2.8,8.2-3.1,16.8-5,25.2
		c-0.2,1-0.2,2.2-0.8,2.8c-5,5.3-5.7,12.2-6.9,18.7c-1.3,7-3.2,13.6-6.2,20c-2,4.2-2.7,9-2.8,13.3c-0.1,4.4-3.5,8.4-2,12.3
		c1.2,3.2,0.5,5.5-0.2,8.4c-0.5,2-1.8,3-3.4,3c-4.3,0.1-4.3,2.3-2.6,5.2c1.4,2.4,0.2,4.3-1.4,5.7c-3.2,2.9-2.8,5.7-0.1,8.4
		c1.6,1.6,1.2,2.8-0.6,3.2c-2.5,0.6-3.7,2.6-5.3,4.1c-1.4,1.2-2,2.3-0.7,3.7c1.1,1.2,1,2.5,0.2,3.7c-3,4.4-1,10.3-4.6,14.6
		c-0.3,0.3-0.5,1.1-0.3,1.4c3.2,4.5,0.9,9.3,1,13.9c0.1,2.8-0.6,4.5-3,5.5c-2.2,1-3.7,2.4-3.2,5c0.8,4.2-1.4,7.8-2.2,11.6
		c-0.2,0.9-0.6,2.4-1.6,2.3c-6.1-0.6-3.9,3.9-4.2,6.7c-0.2,1.4,0.8,2.8-0.6,4.1c-2.3,2.3-5.2,4.5-0.5,7.8c1.4,1,0.8,5.1-0.5,6.4
		c-1.9,2-3.2,5.1-6.5,5.6c-13.4-13.3-26.9-26.6-40.3-40c-5.3-5.3-10.5-10.7-15.7-16c0.4-1.7,1.6-2.6,3.1-2.8
		c4.3-0.5,5.5-3.7,6.4-7.2c1.4-5.2,1.6-10.9,5.6-15.2c1.3-1.4,2.4-2.7,4.1-3.6c1.5-0.8,3-1.8,2.9-3.7c-0.3-4.1,2.2-5.5,5.6-6.3
		c2-0.4,4.8-0.6,2.4-4c-0.8-1.1,0-2.4,1-3c3.3-2.1,3.6-5.8,4.9-9c2.8-7,5.6-13.9,11.2-19.2c0.4-0.3,0.6-0.9,1-1.1
		c8.2-3.1,8.2-11.2,11.2-17.7c2.3-5,3.8-10.5,9.4-13.6c3.3-1.8,4.2-6.3,5.6-9.8c1.2-3,2.6-5.3,5.5-6.7c3.1-1.5,4.9-3.8,5.1-7.4
		c0.1-1.9,1.1-3.5,2.1-5c11.5-17.3,22.9-34.6,33.3-52.6c1.6-2.8,3.3-5.9,6.6-7.3c0.7-0.3,1.3,0,1.7,0.6
		C174.3,26.1,174.4,27.6,173,29z"/>
	<path fill="#FEA35E" d="M256.8,267.6c-11.3,11.2-22.5,22.4-33.8,33.5c-1.3,1.3-2.7,2.4-4.1,3.5c-0.7-0.1-1.3,0.1-2-0.1
		c-1.9-0.5-4.5-1.1-4.2-3.5c0.4-3.2,3.1-1.1,4.9-1.3c-6.2-2-9-6.8-7-13.8c1.1-4,1.7-7-2.7-9.1c-1.4-0.6-1.8-2.1-0.9-3.4
		c2.2-3,0.9-5.6-0.3-8.4c-1.1-2.6-4-6.1,2-6.7c0.4-3.4,3.2-6.4,2.1-9.9c-1.6-4.8-0.7-10.2-4-14.8c-1.6-2.3,0-5.8,0.4-8.8
		c0.6-5.1,0.1-6-4.7-7.4c-3.1-0.9-4.7-4.9-3.3-9.2c0.5-1.7,0.8-3.6,1.5-5.2c2.6-5.9,0.6-10.7-2.8-15.3c-1.6-2.3-2.2-4.3-1.1-6.9
		c1.4-3.4,2.2-6.7-2-9c-1.3-0.7-1.7-2.4-0.8-4c2.7-5.3,1.5-10.6-0.1-15.9c-1.1-3.6-2.8-7-1.2-11.1c0.9-2.3,0.9-5.5-0.6-7.2
		c-2.7-3.2-2.9-6.5-2.3-10.2c0.2-1.1-0.1-2.4-0.8-3.4c-3-4-5.2-8.1-2.6-13.3c0.5-1-0.5-2.2-1.1-3.2c-1.8-2.6-2.8-5.3-1-8.4
		c0.2-0.4,0.5-1.1,0.2-1.4c-5.4-5.7-0.1-13.4-3.7-19.4c-0.3-0.4-0.4-1-0.3-1.5c0.6-12.8-3.6-24.8-6.1-37.1c-0.4-2.1,0-4.3-0.7-6.4
		c0-1.8-0.2-3.5,0.1-5.3c3.1-0.8,3.7,1.8,4.4,3.5c5.8,14.3,13.3,27.9,18.9,42.4c3.8,9.9,8.3,19.6,12.5,29.3c0.7,1.7,1.6,3.3,1.7,5.2
		c0,4.2,1.7,7.3,5.5,9.3c3.1,1.6,3.4,4.9,3.3,7.8c-0.1,2.8-0.2,5.3,2.4,7.1c0.4,0.3,0.8,0.8,0.8,1.2c-0.3,8,3.9,14.6,8.2,20.5
		c4.7,6.3,4.5,14.1,8.1,20.6c1,1.9,1.9,3.9,3.6,5.3c1.3,1.2,1.9,2.7,1.8,4.5c-0.3,2.7,0.5,4.9,2.8,6.5c2.2,1.5,2.6,3.8,3,6.1
		c0.8,5,2.3,9.7,5.4,13.8c1.2,1.6,2.2,3.5,2.1,5.5c-0.2,6,2.7,11.2,4.2,16.8c0.2,0.8,0.4,1.9,1.2,2.1c4.8,1.4,5.2,5,5.5,9.3
		c0.2,2.9,3.7,4.6,5,7.3c0.5,1.2,0.1,2.3-0.7,3.2C268,257,263,262.9,256.8,267.6z"/>
	<path fill="#76C8FA" d="M256.8,267.6c4.6-4.8,9.2-9.6,13.8-14.4c1.2-1.3,2.9-2.3,3.5-4.2c1.1-3.7,4.4-5.6,6.9-8.1
		c4-4.1,7.8-8.4,12.4-11.9c6-5.3,11.7-10.8,16.7-17c2.2-2.7,4.8-5.1,7.4-7.3c14.2-13.4,17.2-35,5.4-52.4c-0.7-1-1.3-1.9-1.3-3.2
		c0.8-3.1,1.3-6.1-0.6-9.1c-1-1.6-1.2-3.7-0.4-5.3c2-4.2,1.9-9,4.1-13.1c0.5-1,1.2-2.2,1-3.3c-2.1-10,3.4-19.6,1.6-29.6
		c-0.4-2.3,1.5-4.4,1.3-6.8c-0.8-12.4,3.8-24.2,4.4-36.4c0.1-1.9,0.6-3.7,2.1-4.9c1.5-1.3,2.4-0.8,2.4,1.2c0,94.8,0,189.5,0,284.3
		c0,2,0.5,4-0.5,5.9c-10.5,0-19.4-4-26.8-11.3c-16.4-16.2-32.7-32.6-49-48.9C259.8,270.3,258.3,269,256.8,267.6z"/>
	<path fill="#53BFF3" d="M474.2,213.3c-1.2-1.8-2.6-1.4-3.7-0.1c-2.1,2.4-4,1.3-6.8-0.1c4.2-2.1,4.8-3.4,0.8-6.4
		c-2.5-1.9-5.6-6.2-3.9-10.2c1.9-4.4-0.8-5.7-3.6-6.3c-4-0.7-6.5-1.4-7.3-6.3c-0.7-4.1-2.5,0.6-4.2,0.6c0.3-2.1-1.7-3.2-1.6-5.4
		c0.2-2.4-1-4.2-3.9-3.5c-0.9,0.2-1.7,0.2-2.1-0.7c-0.5-1.1,0.5-1.4,1.2-1.8c1.4-0.8,2.5-1.8,1.6-3.6c-0.8-1.6-2.4-1.7-3.9-1.2
		c-2.1,0.8-3.1,0.2-3.7-1.9c-0.4-1.6-1.5-3.3,0.8-4.2c3.8-1.4,1.4-2.6-0.2-3.3c-1.3-0.6-3.2-0.3-4.2-1.1c-1.7-1.4-6.7-0.4-3.8-5.7
		c1.3-2.3-3.5-5-2-8.4c-1.7-0.5-3.5-0.8-5.1-1.5c-1.4-0.6-3.3,1.5-4.1-0.3c-0.9-2.3-1.9-5.2-1.3-7.5c1.2-5-1.6-7.2-5.2-8.3
		c-3.3-1-4.9-2.9-4.6-6c0.2-2.6-0.4-3.6-3-3.9c-3.7-0.3-2.1-4.2-3.8-6.2c-1.4-1.6-1.1-4.6-1.6-6.9c-0.1-0.6-0.1-1.6-0.5-1.8
		c-6.7-3.3-8.4-10.6-12.9-15.7c-5.1-5.6-7.2-13.2-11.6-18.8c-2.6-3.3-4.1-7.1-6.8-10.1c-5-5.8-8.5-12.6-13.7-18.2
		c-2.1-2.2-3.1-5.4-4.6-8.1c-1.6-2.8-3.8-4.9-6.7-6.4c-0.8-0.8-0.9-1.7-0.4-2.7c2.4-1.5,4.3,0.3,5.7,1.5c6.8,6,14.3,11.2,21.5,16.6
		c7.6,5.8,14.2,13,22.7,17.6c2.9,1.6,5.4,3.8,7.3,6.7c1.2-1.3-0.3-3.2,1.3-4.2c10.2,10.1,20.4,20.1,30.5,30.2
		c18.8,18.7,37.5,37.4,56.2,56.2c16.6,16.7,16.9,41.2,0.6,58.2C480.5,207.4,477.3,210.3,474.2,213.3z"/>
	<path fill="#FEA25C" d="M174,30c1.4,6,4,11.7,4.2,18.1c0.1,4.3,1.8,8.7,2.9,12.9c0.4,1.4,1,2.8,0.9,4.3c-0.3,4.9-0.3,9.8,1.8,14.3
		c0.1,0.3,0.3,0.7,0.2,1c-2.5,4.9-1,9,2.3,12.8c0.2,0.2,0.4,0.8,0.2,0.9c-4.8,4.4-0.2,7.7,1.4,11.3c0.4,0.9,1.4,2,0.5,2.7
		c-5,4-1,6.9,1.2,9.8c2.1,2.7,2,5.5,1.3,8.3c-0.3,1.3-1.2,2.5,0,3.6c4.4,4.2,4.7,8.7,2.1,14c-0.7,1.4,0.6,4.2,1.4,5.4
		c3.8,5.2,0.9,11.5,3.2,16.8c0.1,0.3-0.1,1-0.3,1.3c-2.1,2.7-2.1,2.7,1.1,4.7c3.1,1.9,1.2,5.6,0.5,6.6c-3.8,5.4,0.8,8.6,2.7,12.3
		c2,3.7,2.3,7.2,0.8,11.1c-1.1,3-1.9,6.2-2.2,9.3c-0.3,2.9-0.1,5.2,4.5,4.8c3.8-0.4,4.2,3.9,4.2,7.1c0,1.5-0.3,3-0.9,4.3
		c-2.1,4.4,2.2,7.5,2.3,11.5c0.2,5.6,4.5,11.1,0,16.8c-1,1.3,1.4,2.4,1.3,4.3c-0.8-0.2-1.6-0.4-2.3-0.5c-0.9-0.1-1.9-1.2-2.7-0.2
		c-1,1.1,0,2.2,0.5,3.2c0.5,1.2,1.2,2.4,1.8,3.6c1.9,4.1,1.8,4.9-1.5,8.6c5,2.3,7.9,5.3,4.4,11.3c-1.1,2-0.4,5.9,0.8,8.2
		c1.2,2.4,3.4,5,7.3,4c-1.1,1.8-2.3,2.3-3.9,1.8c-0.9-0.3-2.1-0.9-2.4,0.6c-0.3,1.2,0.9,1.5,1.9,1.9c1.2,0.5,2.4,1.1,3.6,1.7
		c-6.7,6.5-13.2,13.4-20.3,19.5c-6.9,6-15.4,8.2-24.5,7.7c-1-1.7-0.5-3.6-0.5-5.4c0-97.1,0-194.1,0-291.2
		C173.5,33.6,173.1,31.7,174,30z"/>
	<path fill="#FEB881" d="M173,24c-6.5,4.9-9.2,12.4-13.4,19c-6.3,10.1-12.9,20-19.2,30c-3.6,5.7-10.2,10.8-9.7,19
		c0.1,1.4-1.1,2.9-2.6,3.4c-6.6,2.1-7.5,8.5-10.2,13.5c-1.4,2.7-2.8,4.7-5.7,6.4c-4.5,2.5-5.4,8.1-7.1,12.6
		c-0.8,2.1-0.7,4.5-2.7,6.1c-0.8,0.6-1.6,1.5-1.2,2.6c1.8,4.4-0.9,5.5-4.3,6.5c-4.1,1.1-9.7,8.5-9.9,12.8c0,0.6,0,1.7-0.2,1.8
		c-6,1.4-3.9,7.3-5.9,10.8c-1.1,1.9-1.2,4.3-3.9,5.2c-1.8,0.6-2.5,2.1,0.1,3.4c3.2,1.5,1.2,2.7-0.6,3.5c-1.3,0.6-2.8,0.9-4.3,1.2
		c-3,0.5-5.4,1.1-3.7,5c0.6,1.5-0.3,2.6-1.7,3.2c-7.9,3.6-9.6,10.9-11.1,18.3c-1,4.8-1.9,9.6-8.6,9.2c-0.8,0-1.6,1-2.5,1.6
		c-5.6-5.5-11.5-10.7-16.6-16.5c-12.2-13.9-13.7-32.4-4.5-47.6c5.4-0.2,9.8-1.2,13.3-6.6c2.4-3.8,4.8-8.2,7.9-11
		c3.8-3.5,6.8-8,11.4-10.7c3.3-1.9,7.3-3.3,9.2-7.1c0.4-0.8,1.1-1.6,1.8-1.6c5,0.2,6.3-3.5,7.7-7.1c1.5-3.8,5.4-4.8,8.4-6.7
		c5.7-3.7,8.9-9.7,14-13.9c3.3-2.7,6.4-5.7,8.7-9.5c1.9-3.1,5.8-4.4,8.7-6.5c8.1-5.8,13.3-14.4,20.9-20.6
		c11.7-9.6,22.1-20.7,33.8-30.3C170.4,22.7,172.8,19.3,173,24z"/>
	<path fill="#FEA561" d="M322.3,149c11.2,15.6,12.7,31.7,2.8,48.5c-1.9,3.1-4.1,6.1-7.2,8.2c-2.1,0.2-3.5-0.9-4.5-2.6
		c-2.5-4.5-5.9-8.3-9.4-12.2c-7.5-8.2-13.1-17.9-20.1-26.5c-4.8-5.9-9.5-12-14-18.2c-11.7-15.9-24.9-30.7-36-47.1
		c-3-4.5-6.1-8.2-11.2-10c-1.9-0.7-3.1-2.4-3.8-4.4c-2.8-8.3-6.9-15.6-14.1-20.9c-2.4-1.8-2.3-5-4.1-7.3
		c-4.2-5.6-9.4-10.3-13.7-15.8c-2.1-2.6-3.4-5.7-5.8-8.1c-1.8-3.8-5.9-6.2-6.3-10.8c2-0.9,3.6,0.2,5.1,1.1
		c10.8,6.8,22.4,12.1,33.6,18.2c11.8,11.7,23.6,23.3,35.4,35c2.5,2.4,5,4.8,7.5,7.2c3.7,0.9,5.4,4.2,8,6.5c3.1,2.8,5.9,5.8,8.8,8.7
		c6.9,7,14,14,21,21c5,5.1,10,10.1,15.1,15.1c3.3,3.4,6.7,6.7,10,10.1C320.9,145.8,322.5,146.8,322.3,149z"/>
	<path fill="#FEB780" d="M173,24c-0.1-0.9-0.3-1.9-1.4-1c-2.5,2-4.9,3.9-7.2,6.1c-8.4,8.2-16.9,16.3-26.2,23.6
		c-5.5,4.3-9.9,10.1-14.6,15.4c-4,4.5-8.9,7.7-13.7,11c-0.9,0.6-2.3,1.1-2.8,2c-3,6.2-9.6,9.1-13.3,14.4c-2.9,4-6.9,6.5-9.9,10.2
		c-0.4,0.5-0.9,1.2-1.4,1.2c-5.4,0.1-6.5,4.4-8,8.3c-1,2.6-1.8,4.7-5.2,3.3c-0.6-0.2-2,0.2-2.2,0.7c-2.3,5.8-7.5,7.5-12.6,9.4
		c-0.6,0.2-1.2,1.2-1.3,1.9c-0.7,3-1,6.1-5.5,5c-0.4-0.1-1.4,0.6-1.5,1.1c-1.5,5.2-6.4,8.7-8.2,12.9c-2.4,5.4-6.8,4.4-9.7,7
		c-1.7,1.5-2.8-1-4.3-1.4c0.5-2,1.8-3.5,3.1-4.9c1.4-0.7,3.9-0.2,3-3.1c1.1-1.2,2.1-2.5,3.3-3.7c37.5-37.5,75.1-75.1,112.6-112.6
		c7.7-7.7,16.9-12.2,28.1-11.7c0.8,0.8,1,1.8,0.6,2.9c-0.1,0.8,0,1.6-0.6,2.2c0,2,0,4,0,6c0,100.6,0,201.3,0,301.9c-0.3,0-0.7,0-1,0
		c0-101,0-201.9,0-302.9C173,27.3,173,25.7,173,24z"/>
	<path fill="#71C7F9" d="M272.7,99.1c-5.6-5-10.9-10.3-15.9-15.9c11.6-11.4,23.3-22.9,34.9-34.3c12-8.3,24.5-15.7,36.7-23.7
		c2.1-1.4,4-3.2,6.8-2.3c0.5,0.6,0.6,1.4,0.4,2.1c-7.8,9.3-15.4,18.6-24.1,27.1c-1.3,1.3-2.5,2.6-3.4,4.3
		c-4.3,8.2-12.2,13.9-16.3,22.3c-6.3,1.9-6.3,10.4-12.9,12.2c-1.7,0.5-1.2,2.9-1.7,4.4C276.4,97.4,276.2,100.2,272.7,99.1z"/>
	<path fill="#6FC6F9" d="M335,23c-6.1,2.6-11.1,6.9-16.7,10.3c-8.5,5-16.7,10.4-25.1,15.6c-0.4,0.2-1,0-1.5,0
		c7-7.1,13.7-14.4,21.1-21.1c7-6.3,15.5-9.4,25.1-8.9c0.6,0.7,0.6,1.4,0,2c0,1,0,2,0,3c0,1,0,2,0,3c0,101.6,0,203.3,0,304.9
		c-0.3,0-0.7,0-1,0c0-97.3,0-194.6,0-291.9c-2.5-3.2-1-7-1.4-10.5C335.2,27.4,337,25,335,23z"/>
	<path fill="#55C0F3" d="M338,21c0-0.7,0-1.4,0-2c10.3-0.7,19.5,2.4,26.9,9.4c10.7,10.1,20.9,20.8,31.2,31.2c0.2,1,0.4,1.9,0.6,2.9
		c0.3,1.3,0.7,3-0.7,3.6c-1.8,0.8-2.5-1-3-2.4c-1.1-3.1-4-4.5-6.5-5.8c-8.8-4.6-15.3-12.3-23.4-17.9C354.6,34.1,347,26.6,338,21z"/>
	<path fill="#FEA865" d="M174,22c0-1,0-2,0-3c10.3-0.7,19.2,2.7,26.9,9.2c4.7,3.9,9,8.2,12.9,12.9c-5.6,0-9.6-3.7-14.2-6
		c-8.3-4.2-16.4-8.7-24.6-13C174.7,22.5,174.3,22.5,174,22z"/>
	<path fill="#4EBEF2" d="M405.1,282.3c-0.3-2.2-1.7-2.6-3.5-2c-1.1,0.3-2.4,0.9-2.4-1c0-1.6,1.3-2.1,2.7-2.2
		c2.5-0.1,3.4,2.4,5.4,3.1C406.6,280.9,405.8,281.6,405.1,282.3z"/>
	<path fill="#FEB881" d="M29.9,146.9c0.4,1.4,2.2,2.1,1.9,4.2c-1.8,0.6-3.1-1.3-4.9-1.1C27.9,148.9,28.9,147.9,29.9,146.9z"/>
	<path fill="#4EBEF2" d="M389,215.1c-0.7,0.2-1.2,0.6-1.5,0.4c-0.3-0.2-0.5-0.7-0.8-1.1c0.3-0.1,0.6-0.4,0.9-0.3
		C388,214.3,388.3,214.6,389,215.1z"/>
	<path fill="#FEA460" d="M174,22c0.3,0,0.7,0,1,0c2,3.5,5.8,5.9,7,10c4.4,6.8,9.9,13.1,13.6,20.1c4.1,7.7,11.4,13.5,13.3,22.4
		c0.2,1,0.8,1.9,1.6,2.5c7.1,5.6,10.9,13.6,15.1,21.2c0.5,0.9,1,1.8,1.7,2.5c3.6,3.2,6.4,6.5,3.7,11.8c-0.7,1.4,0.5,3.3,1.3,4.7
		c3.2,5.2,5.5,10.8,9,16c6.5,9.6,11.9,20,16.7,30.6c0.8,1.8,1.8,3.5,3,5.2c3.7,5.1,6.8,10.6,9.4,16.4c4.4,9.7,10.8,18.2,16,27.5
		c2.7,4.9,4.9,10.2,8,14.9c0.4,0.6,0.2,1.3-0.3,1.8c-6.6,6.5-13.2,12.9-19.9,19.4c-3.3-3.6-8.7-5.9-6.4-12.5c0.6-1.6-1.4-2.3-3-2.5
		c-2.8-0.3-2.9-2.5-4-4.7c-3.5-6.8-2-14.9-5.9-21.3c-2.6-4.3-4.6-8.7-5.3-13.7c-0.4-2.8-0.8-5.6-4-6.8c-0.8-0.3-1.8-1.6-1.7-2.3
		c0.5-9.9-9.8-15.8-9.2-26.2c0.2-3.7-4.3-7.2-6.4-11c-1.3-2.5-3.2-4.5-3.4-7.5c-0.1-1.2-0.8-2.9-1.7-3.4c-2.5-1.5-4.4-2.5-0.9-5
		c1.2-0.9,0.2-2.2-1-2.7c-3-1.1-3.2-3-2.6-5.9c0.7-3.8,0.6-7.6-4.2-9.2c-2.4-0.8-4-3.2-4.1-5.3c-0.6-8.4-5.3-15-8.2-22.4
		c-3.4-8.7-6.6-17.6-10.6-26c-5.8-12.1-10.1-25-17.5-36.4C174,23.3,174,22.7,174,22z"/>
	<path fill="#FEA460" d="M294,229.6c-5.4-8.7-9.7-17.9-15.1-26.6c-5.7-9-9.8-19-15.5-28.1c-7.7-12.3-13.1-25.8-20.9-38
		c-4.6-7-8.9-14.1-12.3-21.8c-0.4-0.9-1.2-2.3-0.9-2.7c3.9-5.1-0.4-7.6-2.9-11.2c-3.7-5.3-6.7-11.1-10-16.7
		c-0.9-1.7-2.2-2.8-3.7-3.9c-3-2.1-5.7-4.7-5.7-8.8c0-0.8-0.2-1.9-0.7-2.3c-6-5-8.1-12.7-12.8-18.6C188.9,45.1,185,38.8,182,32
		c4.2,5.1,8,10.4,12.6,15.1c3,3,4.9,6.9,8.3,9.6c1,0.8,1.1,2,1.1,3.2c0,1.3,0.4,2.5,1.4,3c7.3,3.7,10.5,10.6,13.1,17.5
		c2,5.1,4.5,8.1,9.6,10c5.1,1.8,6.7,7.5,9.5,11.5c6.6,9.7,13.6,19.2,21.1,28c10.7,12.5,19.6,26.5,30.3,39c5.7,6.6,9.6,15,15.8,21
		c5.1,4.9,7.3,11.8,13,15.9C310.1,213.9,302.5,222.2,294,229.6z"/>
	<path fill="#75C8FA" d="M337,28c0,4,0,8,0,12c-2.3,0.9-2.8,3.4-2.7,5c0.7,8.1-2.7,15.5-4,23.2c-0.7,4.1,1,8.4-0.2,12.7
		c-2.5,9,0,18.6-3.5,27.6c-0.7,1.7-1.2,5.1,0.6,7.4c1.8,2.2-0.6,3.7-1.2,5.4c-1.5,3.9-1,8.2-3.7,11.9c-1.5,2.1-1.7,5.6,0.6,7.9
		c3,3,0.7,5.4-0.6,7.9c-4.5-4.6-8.9-9.1-13.4-13.7c-0.3-1.6-1.2-3.2-1.3-4.8c-0.2-3.9-1.7-8,3.4-10.8c3.6-2,6-6.5,6.5-10.2
		c0.3-2.6-0.8-5.8-0.2-8.9c0.1-0.6-0.3-1.5,0.1-2c4.6-5.1,3.1-12,5.2-17.8c0.9-2.5,0-5,0.7-7.4c3.4-12.9,4.9-26.4,10-38.9
		C334.3,32.3,332.6,28.4,337,28z"/>
	<path fill="#FEA35E" d="M209.6,243.2c0.2,1.4-0.3,2-1.1,2.4c-1.1,0.5-2.2,0.5-3.3-0.1c-0.9-0.6-1.4-1.6-0.5-2.5
		c1.5-1.6,0.8-2.8-0.2-4.3c-0.6-0.9-2.1-2.5-0.5-3.3c1.8-0.8,3.6,0.5,4.2,2.4C208.8,239.7,207.3,242.1,209.6,243.2z"/>
	<path fill="#FEA35E" d="M189.4,133.2c0.5,0.6,1.1,1.1,1,1.2c-0.3,0.5-0.7,0.9-1.2,1.2c-0.1,0.1-0.9-0.6-0.8-0.8
		C188.5,134.3,188.9,133.9,189.4,133.2z"/>
	<path fill="#73C7F9" d="M272.7,99.1c3.9-0.7,3.5-4.2,3.6-6.7c0.1-2.4,0.8-3.4,3.1-3.4c3.1,0.1,4.1-2.1,4.5-4.4
		c0.4-2.7,1.8-3.9,4.2-4.9c4-1.5,5-5.7,7-9c1.4-2.3,2.5-4.8,5.2-5.7c1.3-0.4,1.9-1.3,2.3-2.4c4.4-9.8,12.9-16.1,19.7-23.9
		c4.1-4.7,7.2-10.3,12.6-13.8c1.4-0.2,1.2,0.7,0.9,1.5c-2.3,6.6-5.5,12.8-7.9,19.3c-2.6,7-6.1,13.6-7.4,21c-0.1,0.3,0,0.8-0.2,0.9
		c-5.1,3-3,9.5-5.9,12.8c-4.2,4.7-3.9,9.6-4.4,14.9c-0.5,5.2-2.8,1.1-4.8,0.1c-0.2,3.4-1.9,5.6-4.2,7.9c-2.9,2.9-1.7,7.3-1.9,11
		c-0.2,3.6-1.4,5.7-5.2,5.8C286.8,113.2,279.7,106.2,272.7,99.1z"/>
	<path fill="#75C8FA" d="M293.8,120.3c5.1-1.7,3.9-6,4.1-9.7c0.2-4.1-0.8-8.6,4.8-10.1c0.8-0.2,1.1-1.2,0.8-2.1
		c-0.7-2-1.3-4.2,1.3-5c2.8-0.8,2.2,2.7,4.1,3.8c0-2.7,0.1-5.1,0-7.6c-0.1-3-2-6.5,3.5-7.4c0.9-0.1,3.1-4.7,2.2-7.8
		c-0.3-1.1-1.1-2.8-0.1-3.2c6.5-2.9,5-9.9,7.9-14.7c3-5.2,4-11.4,6.7-16.9c2.3-4.8,4.6-9.5,5.9-14.6c0-0.7,0-1.3,0-2
		c4.1,0.3,1.1,3.4,2,5c-2.9,6.3-4.3,13.2-6.6,19.6c-2.3,6.5-0.9,13.8-4.9,19.8c-0.9,1.4-0.6,3.5-0.6,5.4c0,6.3-3.1,12.2-2.3,18.6
		c0.1,0.6-0.1,1.5-0.5,1.8c-4.1,2.8-2.2,8-4.8,11.4c-0.2,0.3-0.2,1,0,1.4c0.7,1.4,4.4,1.6,3,3c-3.6,3.7-4.1,10.1-8.6,12.1
		c-5.6,2.5-2.4,6.3-2.7,9.5c-0.1,1.4,0.8,3.1-0.2,4.6C303.8,130.3,298.8,125.3,293.8,120.3z"/>
	<path fill="#FEA460" d="M247.9,134.9c-0.3-0.6-0.6-1-0.5-1.3c0.1-0.4,0.6-0.6,0.9-0.9c0.2,0.3,0.6,0.7,0.5,1
		C248.8,134.1,248.4,134.4,247.9,134.9z"/>
</g>
</svg>
