<?xml version="1.0" encoding="utf-8"?>
<!-- Generator: Adobe Illustrator 23.0.0, SVG Export Plug-In . SVG Version: 6.00 Build 0)  -->
<svg version="1.1" id="Слой_1" xmlns="http://www.w3.org/2000/svg" xmlns:xlink="http://www.w3.org/1999/xlink" x="0px" y="0px"
	 viewBox="0 0 512 512" enable-background="new 0 0 512 512" xml:space="preserve">
<g>
	<path fill="#F67900" d="M278,513c-3.7,0-7.3,0-11,0c-1.7-0.8-3.3-0.8-5,0c-6,0-12,0-18,0c-1.3-0.8-2.7-0.8-4,0c-1.7,0-3.3,0-5,0
		c-7.1-1.2-14.4-1-21.6-1.8c-21.1-2.4-40.9-9.3-60.2-17.5c-23.5-10-44.7-23.7-64.1-40.2c-23.5-20.1-42.7-43.8-57.9-70.7
		C18.5,360.3,9.7,336.3,4.3,311c-2.1-9.8-1.9-19.8-2.8-29.7c-0.1-0.8,0.1-1.7-0.5-2.4c0-3.7,0-7.3,0-11c0.8-2,0.8-4,0-6
		c0-5,0-10,0-15c0.8-2,0.8-4,0-6c0-2,0-4,0-6c1.2-7.1,1-14.4,1.7-21.6c2.3-20.7,8.9-40.3,17.2-59.3c10.7-24.4,24.4-47.1,42.3-66.8
		c18.2-20.1,38.1-38.1,61.7-51.8c24.8-14.4,50.9-25.4,79.1-31.2c9.8-2,19.7-1.9,29.6-2.7c1.1-0.1,2.3,0.4,3.4-0.5c3.3,0,6.7,0,10,0
		c2,0.8,4,0.8,6,0c6,0,12,0,18,0c1.3,0.8,2.7,0.8,4,0c1.3,0,2.7,0,4,0c7.5,1.1,15.1,1,22.6,1.7c18.7,1.9,36.5,7.7,53.7,14.9
		c31.7,13.2,59.9,31.5,84.3,56c20.5,20.5,37.5,43.3,50.3,69.1c9.5,19.2,16.5,39.3,20.8,60.3c2,9.8,1.9,19.7,2.7,29.6
		c0.1,1.1-0.4,2.3,0.5,3.4c0,3.3,0,6.7,0,10c-0.8,2-0.8,4,0,6c0,6,0,12,0,18c-0.8,1.3-0.8,2.7,0,4c0,1.7,0,3.3,0,5
		c-1.2,7.1-0.9,14.4-1.7,21.6c-2.4,21.2-9.4,41.1-17.7,60.6c-10,23.3-23.6,44.3-39.9,63.6c-19.7,23.2-42.9,42.1-69.3,57.2
		c-23,13.2-47.6,22.3-73.4,27.8c-9.8,2.1-19.7,1.9-29.6,2.8C280.2,512.6,279,512.1,278,513z"/>
	<path fill="#FEFEFE" d="M236,1c-5.4,2.3-11.2,1.9-16.9,2.8C109.9,20.3,23.9,104.2,4.9,212.8c-1.1,6.4-1.8,12.8-2.8,19.3
		c-0.2,1,0.4,2.4-1.1,3C1,158.4,1,81.8,0.9,5.2c0-3.6,0.7-4.3,4.3-4.3C82.2,1,159.1,1,236,1z"/>
	<path fill="#FEFEFE" d="M513,236c-2.3-5.4-1.9-11.2-2.8-16.9C493.6,109.9,409.9,23.9,301.2,4.9C294.4,3.7,287.4,3,280.5,2
		c-0.9-0.1-2.1,0.3-2.5-1c77,0,154,0,231-0.1c3.4,0,4.1,0.7,4.1,4.1C513,82,513,159,513,236z"/>
	<path fill="#FEFEFE" d="M278,513c5.4-2.3,11.2-1.9,16.9-2.8c109.2-16.6,195.2-100.4,214.3-209c1.1-6.5,1.9-13.2,2.8-19.8
		c0.1-0.9-0.2-2.1,1.1-2.5c0,76.7,0,153.3,0.1,230c0,3.4-0.7,4.1-4.1,4.1C432,513,355,513,278,513z"/>
	<path fill="#FEFEFE" d="M1,279c2.5,5.2,2,10.9,2.8,16.3C19.6,403,105.1,490.8,212.3,509.1c6.7,1.1,13.5,1.9,20.3,2.9
		c0.9,0.1,2.1-0.2,2.5,1.1c-76.7,0-153.3,0-230,0.1c-3.4,0-4.1-0.7-4.1-4.1C1,432.3,1,355.7,1,279z"/>
	<path fill="#F7881D" d="M1,262c1.3,2,1.4,4,0,6C1,266,1,264,1,262z"/>
	<path fill="#F8A04C" d="M1,241c1.7,2,1.2,4,0,6C1,245,1,243,1,241z"/>
	<path fill="#F7881D" d="M252,1c-2,1.3-4,1.4-6,0C248,1,250,1,252,1z"/>
	<path fill="#F7881D" d="M513,252c-1.3-2-1.4-4,0-6C513,248,513,250,513,252z"/>
	<path fill="#F7871D" d="M262,513c1.7-1.2,3.3-1.3,5,0C265.3,513,263.7,513,262,513z"/>
	<path fill="#FAB36F" d="M274,1c-1.3,1.6-2.7,1.1-4,0C271.3,1,272.7,1,274,1z"/>
	<path fill="#FAB26F" d="M240,513c1.3-1.6,2.7-1.1,4,0C242.7,513,241.3,513,240,513z"/>
	<path fill="#F9B26F" d="M513,274c-1.6-1.3-1.1-2.7,0-4C513,271.3,513,272.7,513,274z"/>
	<path fill="#FA7801" d="M411,347c-38.7,0-77.5,0-116.2,0c-2.3,0-4.7,0.4-6.8-1c-0.6-0.9-0.6-1.7,0.4-2.3c2-1.1,4.2-0.6,6.4-0.6
		c35.4,0,70.9,0,106.3,0c-35.6,0-71.2,0-106.8,0c-2.2,0-4.7-0.7-6.6,1.3c-5.3,2.1-6.8,1.7-8.4-2.3c1.1-3.3,4-2.5,6.4-2.5
		c24.3-0.1,48.6-0.1,72.9,0c18.5,0.1,36.9-0.4,55.4,0.3c3,0.1,5.2-2.1,8.1-1.8c3.1,2.7,2.2,4.8-1.1,6.4c-1.4,0.7-3.3,0.6-3.9,2.6
		C415,348.5,413,348.3,411,347z"/>
	<path fill="#F27A06" d="M422,338c-2.4,3.8-5.7,4.6-9.9,3.6c-2.1-0.5-4.3-0.6-6.4-0.6c-39.8,0-79.6,0-119.3,0c-2.1,0-4.4-0.4-6.3,1
		c-2.1,1.7-3.7,1.2-5-1c-0.3-0.3-0.7-0.7-1-1c-1.9,0.7-2.7-0.3-3-2c-2.3-1.2-5.7-2.1-1.3-5.1c1.2-0.8,1.3-2.3,1.3-3.6
		c0-5.8,0-11.6,0-17.5c0-2.1-0.6-3.6-3-3.8c-1.1-0.3-1.6-1-1.6-2.1c0.5-1.3,1.1-2.5,2-3.6c0.8-0.7,1.3-1.4,0.5-2.5
		c-0.9-1.3-1.4-3.1-0.6-4.3c2.8-4.3,0.7-8.3-0.6-12.3c1.3-4.8,1.8-9.9,4-14.4c1.2-0.5,2,0.2,2.7,1c1.7,3,5.1,4.9,5.1,8.9
		c-1.4,6.1-1.1,12.2-1.5,18.4c-2.8,4-3.6,8.5-3.6,13.3c0.1,6.3,0,12.6,0,19c0,7.1,1.1,8.1,8.1,8.1c33,0,65.9,0,98.9,0
		c10.1,0,20.3-0.3,30.4,0.2c4.8,0.2,7.2-2,7.5-7.2c0.4-6.3,0-12.6,0.2-19c0-1.9-0.5-4.1,1.5-5.5c1.9,3.8,0.8,7.8,0.9,11.7
		C422.1,324.5,422,331.2,422,338z"/>
	<path fill="#E7872A" d="M421,306c0,8.6,0,17.3,0,25.9c0,7-2.3,8.8-9.3,7.8c-2.5-0.4-5-0.6-7.4-0.6c-38.8,0-77.5,0-116.3,0
		c-2.8,0-5.6,0.2-8.4,0.5c-5.2,0.5-7.9-2.2-7.1-7.3c1-6.3,0.5-12.6,0.5-18.9c0-6.5-0.3-13,4.2-18.4c0.3-1.9,1.3-2.8,3.2-2.2
		c0.4,0.4,0.7,0.8,0.9,1.3c0.2,0.8,0.2,1.8-0.4,2.4c-4,3.9-4.9,8.7-4.8,14c-0.9,6.1-0.6,12.3-0.4,18.5c0.2,5.2,2.2,7,7.5,7.4
		c1.7,0.1,3.3,0.1,5,0.1c39.1,0,78.3,0,117.4,0c1.3,0,2.7,0,4,0c6.1-0.3,7.8-1.8,7.9-7.8c0.2-8.7,0.2-17.3,0-26
		c-0.2-6.6-0.8-7.1-7.3-7.1c-19.5-0.1-39,0-58.5,0c-2.2,0-4.3,0.2-6.5-0.3c-1.8-0.7-2.1-2-1.2-3.6c0.9-1.4,1.6-2.9,2.5-4.3
		c0.5-0.7,1-1.3,1.8-1.8c1.4-0.5,2.9-2.4,4.2,0.3c-1.2,3.5,0.5,5,3.7,5.4c2.3,0.3,4.6,0.8,6.9,0.7c18.4-0.1,36.9,0.3,55.3-0.2
		c1.3,0.3,1.7,1.5,2.5,2.4c0,0.3,0,0.6,0,0.9c1.8,2.3,1.1,4.7,0,7C421,303.3,421,304.7,421,306z"/>
	<path fill="#F57905" d="M117,290c-0.3-1-0.7-2-1-3c4-3,8.5-1.4,12.8-1.4c5.5,0.1,11.1,0.8,16.6,1.3c6.1,1,12.2,0.4,18.3,0.6
		c3.9,0.1,7.8-0.1,11.7,0.1c1.8,0.5,3.6,1,4.4,2.9c0.3,1.3-0.2,2.4-0.9,3.5c-0.4,0.5-0.9,0.9-1.4,1.1c-5.1,0.8-10.3,0.2-15.4,0.4
		c-6.6-0.2-13.2,0.1-19.7,1.8c-2,0.5-4.3,0.3-6.4-0.1c-2-2-4.3-3.1-7.4-2.8C124.1,294.9,120.8,291.6,117,290z"/>
	<path fill="#F27A05" d="M145,289c-9.6-1.7-19.3-2.1-29-2c-1.7,0-3.3,0-5,0c-2.3,1.6-4.7-1.7-7,0c-3.5-0.2-5.9-5.1-10.3-2
		c-1.2,0.8-1.6-2.1-2.7-3c-2-2-2-4,0-6c-0.6-1.3-1.2-2.7-1.9-4c-1.2-1.9-1.2-3.7,0.9-4.6c4.5-2,3.4-5.3,1.9-8.3
		c-1.3-2.7-2.5-5,0-7.7c1-1.1,1.2-2.5,0.2-3.7c-3.5-4.1-0.9-7,2-9.8c1.9,1.2,1.5,3.2,1.5,5c0.1,6.3,0,12.7,0,19
		c0,4.1,0.6,8,2.8,11.5c1.7,7.6,7,9.7,14.1,9.1c4.8-0.4,9.6,0.1,14.3,1c5.9,1.7,12.3,0.1,18.1,2.6c0.4,0.4,0.7,0.8,0.8,1.4
		C145.6,288.1,145.4,288.6,145,289z"/>
	<path fill="#F77802" d="M420,221c-1.6,5.6-7.7,4.7-11.3,7.6c-1.7,1.3-4.1,2-5.7,4c-1,1.2-3,2-5,1.4c-0.7-0.4-1-1-1.2-1.8
		c0.1-3.2,2.7-5,4.5-6.9c4.5-4.7,7.8-10.2,12.4-14.8c0.4-0.6,0.9-1,1.4-1.4c1-0.5,2-1,2.8-1.7c2.4-1.5,4.8-2.4,7.2,0.2
		C425.5,212.8,424.9,217.7,420,221z"/>
	<path fill="#F67900" d="M260,207c0.8-0.6,1.7-1,2.8-0.7c5,1.4,6.9,0.1,7.1-5.4c0.2-5,0.1-9.9,0.1-14.9c0.3-1.2,0.6-2.6,2.3-2.7
		c2,0.4,3.6,1.2,4.8,2.9c0.5,6.4,1.2,12.9-0.4,19.3c-3.5,2.2-3.2,5.8-3,9.1c0.1,1.8,0.6,3.5-0.3,5.2c-0.8,1.6-2.4,2-3.9,2.7
		c-2.7,0.4-3.3-1.9-4.4-3.5c-0.2-0.4-0.4-0.8-0.5-1.3c-0.2-0.9-0.9-1.5-1.5-2c-0.7-0.6-1.2-1.3-1.4-2.2c0-1.9-0.4-3.8-1.4-5.4
		C260.1,207.8,260,207.4,260,207z"/>
	<path fill="#EB8021" d="M185,168c11.7-0.3,22.9,2.3,33.8,6.5c1.7,0.6,3.4,1.1,5.2,1.6c0.9,0,1.9-0.1,2.8-0.2
		c3.9,1.6,7.7,3.3,11.4,5.4c2.1,1.9,2.8,4.6,4.2,6.8c0,0.5-0.1,1-0.5,1.3c-2.5,1.3-4-0.9-5.7-1.9c-4.4-2.6-8.5-5.7-13.5-7.1
		c-5.2-4.1-11.7-5-17.8-6.7c-5.5-1.5-11.2-2.5-17.1-2.3c-17.3-1.6-32.9,4.3-48.4,10.7c-0.9,0.1-1.7-0.1-2.4-0.7
		c-1.5-3.5,1.1-4.4,3.5-5.4c1.6-0.6,3-1.3,4.5-2.1C158,169.6,171.2,166.5,185,168z"/>
	<path fill="#F87803" d="M269,284c2.9,2.9,4,6.4,2.1,10.2c-0.9,1.8-1,3.3,0,5.1c1.2,2.1,1.2,4.3-0.1,6.9c-0.8-1.4-1.4-2.3-2-3.2
		c-1.1,0.7-1.8,1.7-2,3c0.3,0.7,0.7,1.3,1,2c-2.6,3.9-5.1,4.3-8.3,1.1c-0.8-0.7-1.6-1-2.6-1.1c-1.4-3.8,2-6.2,2.8-9.3
		c1.8-2.5,2.9-5.4,5.1-7.6c2.4-1.6,2.1-4.7,3.6-6.8C268.6,284.2,268.8,284.1,269,284z"/>
	<path fill="#E17514" d="M413,170c1,0.3,2,0.7,3,1c1.6,0.3,2.4,1.3,2.5,2.9c0.1,1.7,0,3.3,0.6,4.9c0.4,0.8,0.6,1.6,0.6,2.5
		c-0.1,1.4-0.6,2.9-0.1,4.4c-0.3,4.8,0,9.5-0.2,14.3c-0.1,1.8,0,3.6-1.2,5.2c-0.7,0.7-1.4,1.3-2.5,0.6c-1.9-2.5-1-5.5-1.1-8.2
		c-0.2-5.3,0.1-10.6-0.1-16c-0.3-6.1-1.8-7.6-7.8-8.1c-2.3-0.2-4.7-0.1-7-0.1c-37.8,0-75.5,0-113.3-0.1c-2.3,0-5.6,1.4-6.5-2.6
		c1.8-0.7,3.6-0.4,5.4-0.4c40.7,0,81.5,0,122.2,0C409.4,170.5,411.3,170.9,413,170z"/>
	<path fill="#F97702" d="M382,264c-2.5-2.1-4.7-4.2-6.1,1.2c-0.6,2.2-3.5,2.7-5.9,2.8c-0.8-0.1-1.4-0.5-1.7-1.3
		c-0.3-1.9,0.7-3.3,2-4.5c6.2-7.5,12.9-14.6,19.8-21.4c1.5-0.3,2.6,0.4,3.6,1.3c1,1.2,0.8,2.5,0.3,3.8c-5.8,1.9-8.7,7.1-12.7,11
		c-0.7,0.7-0.9,1.5,0,2.1c1.2,0.9,2.2,0.3,2.9-0.8c2.1-3.1,3.8-1.8,5.2,0.5c0.7,1.1,1.7,2.4,0.8,3.6c-1.1,1.4-2-0.2-2.9-0.6
		c-2.1-1-2.5,0.9-3.2,2C383.3,264.5,382.7,264.6,382,264z"/>
	<path fill="#F27A06" d="M419,293c-21,0-42.1,0-63.1-0.1c-7.5,0-7.5,0-4.2-6.8c0.2-0.4,0.1-1,0.2-1.5c0-0.8,0.6-1.3,1.3-1.5
		c0.8-0.1,1.4,0.1,2,0.6c0.3,0.5,0.2,0.9-0.2,1.3c-1.1,0.7-1.8,1.7-2,3c-0.3,2.6,1.7,1.8,2.9,2c1.7,0.3,3.7-0.8,5.1,1
		c16,0,32,0,48,0c2.8,0,5.6,0.4,7.8-2.2c1-1.1,3.1-1.8,3.2,1.2C419.4,290.9,420.3,292.3,419,293z"/>
	<path fill="#FB7D0B" d="M413,170c-2.1,1.4-4.5,1-6.8,1c-39.7,0-79.5,0-119.2,0c-2.5,0-5,0.3-7.4,0.5c0,0-0.4,0.2-0.4,0.2l-0.5,0
		c-0.3-0.1-0.5-0.3-0.7-0.6c2.1-1.5,4.5-1,6.8-1C327.5,170,370.3,170,413,170z"/>
	<path fill="#F17E15" d="M133,220c1.7,0,3.4,0,5,0c0.3,0.5,0.3,1.1,0,1.6c-2.9,2.9-6.9,1.9-10.4,2.8c-2.1,0.5-4.3,0.5-6.4,1
		c-4.7,0-9.2,1.2-13.9,1.3c-3.6,0-5.6,2.3-6.9,5.5c-0.7,1.8-0.4,4.6-3.3,5c-0.5-0.3-0.7-0.8-0.4-1.4c0.5-4.1-0.2-8.1,2.6-12.1
		c1.4-2,2.1-2.1,3.8-2c3.8,0.1,7.6,0.1,11.4,0.2c2.1,0.1,3.9-0.4,5.4-2C124.3,219.2,128.7,219.2,133,220z"/>
	<path fill="#F97803" d="M226,177c-0.7-0.3-1.3-0.6-2-1c0.7-1,1.3-2,2-3c0.6-1.4,1.6-2,3-1c2.5,1.4,5.1,2.2,8,2c3.3-0.6,6.4-0.9,6,4
		c0,3.3,0,6.7,0,10c-0.3,0.5-0.7,0.5-1,0c-2-1.3-3.7-3-5-5C233.9,179.9,230.2,178.1,226,177z"/>
	<path fill="#F67805" d="M420,221c0.8-4.8,5.4-8.6,4-14c-0.4-0.5-0.5-1.1-0.4-1.7c0.9-4.2,0.1-8.5,0.4-12.7c0.2-2.3-0.1-4.7,2.3-6.1
		c1.4-0.1,2.2,0.6,2.2,2c-0.2,5.5,0.6,11-0.5,16.5c0,1.7-0.5,3.2-1.1,4.8c-1.5,3.7-0.8,7.3,2.2,9.9c1.8,1.6,2.2,3,0.8,5.8
		C427.8,220.2,424.2,219.8,420,221z"/>
	<path fill="#F27A07" d="M185,168c-14-0.7-27.2,2.9-40,8c-1.1-0.7-1.7-1.6-1-3c-0.7-1.2-3.4-0.4-2.9-2.5c0.3-1.3,1.8-0.9,2.9-0.5
		c3.3-1.2,6.7-2.9,10,0c8.5-2,17.1-3.1,25.8-3C181.6,167,183.4,166.9,185,168z"/>
	<path fill="#F27A04" d="M243.5,334.7c-0.1,5.6-8.1,11.8-13.1,10.4c-0.9-0.3-2.2-0.3-2.3-1.5c-0.1-1.2,0.8-2,1.8-2.1
		c5.8-0.7,9.1-3.6,9.5-9.6c0.1-1.1,1.1-1.8,2.2-1.3C243.4,331.4,243.1,333.3,243.5,334.7z"/>
	<path fill="#FA7702" d="M195,345c-2.8,3.4-6.4,2.3-9.5,1.1c-5.3-2-10.5-2.4-16.1-1.6c-4.1,0.6-8.7,1.4-11.3-3.5
		c1.6-2.1,3.9-1.4,6-1.3c8.2,2.5,16.7,1.6,25.1,1.8C191.7,341.6,194.6,341.3,195,345z"/>
	<path fill="#FB7700" d="M417,174c-0.3-1-0.7-2-1-3c0.2-1.4-0.4-3.4,1.3-3.9c2.2-0.6,3.2,1.7,4.7,2.8c1.7,0,1.7,0.8,1,2
		c2,3.2,4,0,6,0l0,0c0.9,2,3.7,4,0,6c-1,1-1.9,2-3.5,1.8c-0.8-0.1-1.6-0.2-2.3-0.3c-2.3,0.1-3.7-1.3-4.7-3.1
		C418.1,175.5,417.7,174.7,417,174z"/>
	<path fill="#FA7801" d="M234,330c3.4,1.8,3.8,4.6,1,7.1c-2,1.8-4.6,2.7-7.3,2.2c-1.9-0.3-3.4,0-5.1,1.2c-3.6,2.6-6.1,1.5-7.5-2.6
		c0.2-0.2,0.3-0.3,0.5-0.5c6.2-0.7,11.9-2.2,15.9-7.5C232.3,329.4,233.1,329.1,234,330z"/>
	<path fill="#F27A07" d="M141,177c-1.4,1.3-3.2,2.2-4,4c0.1,1.3-0.5,2.3-1.5,3.2c-0.8,0.6-1.7,1.1-2.7,1c-0.8-0.2-1.4-0.5-1.8-1.3
		c-0.9-1.4-2.2-1.8-3.7-2c-1.9-0.3-1.8-1.5-1.3-2.9c1.6-3.4,3.6-6.2,8-4c1.7,0.4,3.3-3.2,5,0C139.6,175.8,140.8,175.9,141,177z"/>
	<path fill="#F27D0F" d="M96.8,235.9c0.1,0.5,0.2,0.9,0.3,1.4c1.8,1.5,1.5,3.6,1.2,5.5c-1.3,9-1.2,18,0.1,27
		c-0.1,1.8,0.3,3.8-1.3,5.2c-2.9-3-3.1-6.9-3.1-10.6c-0.1-8.8,0-17.5,0-26.3C94.4,236.6,95.5,236.1,96.8,235.9z"/>
	<path fill="#F37B0C" d="M195,345c-2.2-2.3-5.1-1.8-7.9-2c-7.7-0.5-15.6,1.5-23.1-1.9c0.2-0.2,0.4-0.5,0.6-0.7c1.5-1,3.2-1,4.8-0.8
		c10.2,1.5,20.3,1.2,30.5,0c1.5,0.1,3.1-0.1,4.2,1.5c-1.4,2.3-3.9,1.9-6,3.1c2.9,0,5.7,0,8.6,0c0.8,0,1.8,0.3,1.4,1.5
		c-0.1,0.4-1,0.9-1.5,0.8C202.6,346.1,198.5,347.5,195,345z"/>
	<path fill="#F57905" d="M107,303c-0.3,0-0.7,0-1,0c-2.8-2-1.5-4,0-6c-0.4-1.1-2.2-2.3-0.7-3.4c1.7-1.2,3.8-0.9,5.5,0.7
		c2.7,2.7,4.8,2.4,6.2-1.3c4.7-3.5,7,1.4,10.3,2.9c0.1,1.9-1.2,2.3-2.7,2.5C118.8,300.2,112,298.2,107,303z"/>
	<path fill="#FB7700" d="M140,347c-2.4-1.6-5.2-0.8-7.8-1.1c-1.4-0.2-2.8-0.4-2.8-2.1c-0.1-1.6,1.1-2.3,2.5-2.6
		c4.9-1,9.1,1.1,13.4,2.9c1.6,0.7,1.1,2.1-0.3,2.4C143.4,347,141.6,346.9,140,347L140,347z"/>
	<path fill="#EA801D" d="M242,188c0.3,0,0.7,0,1,0c6.1,6,12.4,11.7,17,19c0.3,0,0.7,0,1,0c0.8,2,2,3.8,2,6c0.3,0.7,0.7,1.3,1,2
		c1.1,0.7,1.2,2.1,2,3l0,0c0.7,0.9,0.7,1.9,0.3,2.9c-2.6,1.4-3.4-0.7-4.4-2.3c-1.3-2.2-2.2-4.7-4.2-6.5c-3.6-7.7-8.7-14.3-15.6-19.4
		c-0.7-1.1-1-2.2-0.3-3.5C241.9,188.9,242,188.4,242,188z"/>
	<path fill="#FCE9C6" d="M116.3,198.1c0.3-0.3,0.5-0.6,0.8-0.9c0.4-0.9,0.8-1.7,2-1.7c0.7,0.2,1.3,0.7,1.6,1.4
		c0.1,0.5,0.2,0.9,0.1,1.4c-1.6,2.3-2.8,4.9-4.6,7c-1.2,1.4-1.2,2.6,0.1,3.9c3.6,1.9,7.6,1.5,11.4,2c3.2,0.4,6.5,0.7,9.6,1.7
		c0.5,0.3,0.8,0.8,1,1.3c0,0.6-0.2,1.1-0.7,1.5c-5.2,1.8-10.2-0.4-15.2-1c-3.8-0.4-7.6-0.5-11.3-1.3c-4.5-0.9-5.1-2.6-2.6-6.5
		C110.7,203.7,114.2,201.5,116.3,198.1z"/>
	<path fill="#FC7700" d="M127,296c-3.7,0.1-6.3-3.1-10-3c-0.5-1-0.5-2,0-3c3-0.1,5.7,0,8.3,2.1c2.1,1.7,5.1,0.6,7.7,0.9
		c1.9,0.2,3.9-0.6,5.7,0.7c-0.8,1.7-2.7,1.1-3.7,2.3C132.3,298.2,129.7,298.1,127,296z"/>
	<path fill="#F07C11" d="M164,341.1c-2,0-4,0-6,0c-2-1-4-2-6-3c-2,1.1-3.9,2.2-5-1c-3.5-2.3-8.1-2.6-11-6c-0.3-0.3-0.4-0.6-0.3-0.9
		c0-0.3,0.1-0.5,0.1-0.5c0.3-0.4,0.7-0.7,1.2-0.9c0.7-0.2,1.5-0.3,2.2-0.1c2.2,0.5,3.5,2.6,5.7,3.1c5.9,1.8,11.8,3.5,17.4,6
		c1,0.8,2.1,1.5,1.7,3.1L164,341.1z"/>
	<path fill="#E2892F" d="M116.3,198.1c-0.9,3.9-4.4,6.1-6.3,9.3c-1.5,2.6-2.3,4.4,1.9,4.8c8.7,0.8,17.4,1.9,26.1,2.8
		c0.3,0.6,0.2,1.1-0.4,1.5c-6.3,1.1-12.3-1-18.5-1.6l0,0c-2.7-1.1-5.5-0.1-8.2-0.6c-5-0.9-6-3.2-3.2-7.4c0.4-0.7,1-1.3,1.5-2l0,0
		c0.6-1.4,1.6-2.3,2.9-3C113.7,201.1,114.3,198.7,116.3,198.1z"/>
	<path fill="#E17514" d="M278,171.1c0.5,0.2,1,0.3,1.6,0.5c-2.2,14.4-0.3,29-1.4,43.5c-0.2,0.5-0.6,1-1.1,1.3
		c-2.7,0.3-3.5-1.4-3.4-3.7c0.1-2.6,0-5.3,1.4-7.7c1.5-6.3,1.5-12.7,0-19c-2-3.5-1.6-7.3-1.3-11.1c0.7-1.3,2.1-2,3.2-2.8
		C277.3,171.7,277.7,171.4,278,171.1z"/>
	<path fill="#F97603" d="M113,316c1,0,2,0,3,0c0.5-0.6,1.1-1,1.9-1.1c3.6,1.6,5.8,4.9,8.9,7.1c0.4,0.6,0.6,1.3,0.2,2
		c-3,2.7-5.5,2.5-7.8-1c-0.8-1.2-2.1-2-3.2-3c-0.4,0.4-0.9,0.5-1.4,0.4C112.5,319.5,112,318,113,316z"/>
	<path fill="#FB7700" d="M134,175c-2.7,1.3-5.3,2.7-8,4c-2.4-0.8-1.7-2.4-1-4c0.3-0.3,0.7-0.3,1,0c2.5-0.7,2.9-3.2,4-5
		c1.3-1.2,2.7-1.4,4,0C137.5,171.7,134.6,173.3,134,175z"/>
	<path fill="#F27905" d="M369.1,267c0.3,0.3,0.6,0.7,0.9,1c-1.4,2.6-2.9,5.2-3.7,8.1c-0.4,1.7-1.1,3.1,0.4,4.5c1,1,1.7,2.5,0.4,3.5
		c-1.8,1.3-2.5-0.6-3.3-1.8c-0.6-0.8-1.2-1.6-1.8-2.3c0.7-0.7,0.8-1.3,0-2c0-0.3,0-0.7,0-1c-1.7-4.2,3-5.7,3.8-8.8
		C366.6,266.9,367.7,266.7,369.1,267z"/>
	<path fill="#E78122" d="M234,330c-0.6,0.3-1.3,0.7-1.9,1c-3.1,5.5-8.7,5.6-13.9,6.4c-0.9-0.9-0.7-1.9-0.2-2.9
		c2.7-2.3,6-3.6,8.7-5.8c3.5-0.4,5.7-4.2,9.5-3.7c0.5,0.2,0.8,0.6,1,1.1C236.1,327.4,235,328.7,234,330z"/>
	<path fill="#F77802" d="M423,178c0.7,0,1.3,0,2,0c1.7,1.7,1.9,3.8,2,6c2.6-0.1,4-0.2,2.6,3.5c-1.3,3.2-0.4,7.1-0.6,10.8
		c-0.1,2.3,0.4,4.6-1,6.7c0-4.5,0-8.9,0-13.4c0-1.8,0.2-3.7-2-4.6c-0.5-0.1-1-0.2-1.5-0.4C419.8,184,419.4,181.9,423,178z"/>
	<path fill="#F47A0B" d="M119,215c6.5-0.5,12.8,1.9,19.3,0.8c1.9-2.1,4-0.4,6-0.3c1.5,0.6,3.2,0.9,4,2.6c-0.7,2.5-2.1,3.3-4.4,1.7
		c-1.3-2.5-3.6-1.8-5.7-1.9C131.8,217.7,125.2,217.3,119,215z"/>
	<path fill="#F77904" d="M361,291c-2.3,0-4.7,0.1-7-0.1c-2.4-0.2-3.2-1.1-1-2.9c2.5,0.9,5.8,3.2,4.4-2.7c-0.3-1.2,0.9-1.9,2-1.2
		c1.5,1,4.1,1.2,3.4,4C362.5,289.2,361.6,290.1,361,291z"/>
	<path fill="#E88C2E" d="M107,303c0-3.4,2.2-4.6,5.1-4.9c4-0.4,7.9-0.7,11.9-1.1c1.5,1.3,3.4-0.5,4.9,0.7c0.7,2.2-0.7,2.6-2.3,2.7
		c-1.8,0.2-3.6,0-5.4,0.1c-6.4,0.3-7.2,0.9-9,6.6c-0.5,0.3-0.9,0.2-1.3-0.1C109.7,305.6,108.4,304.3,107,303z"/>
	<path fill="#F67707" d="M266.3,314c0.4,3.7-2.5,5.8-3.1,8.9c-0.1,0.7-1,1.4-2,1c-1.2-0.5-1.6-1.7-1.8-2.8c-0.4-1.4-0.2-2.9,1.2-3.5
		C262.7,316.8,264.6,315.8,266.3,314z"/>
	<path fill="#F47902" d="M275,341c1.6,0.8,3.3,1,5,1c2,3.4,5.3,1.5,8,2c0,0.7,0,1.3,0,2c-4.3,2.3-8.7-0.3-13,0c-0.7-0.7-0.3-1.3,0-2
		C275,343,275,342,275,341z"/>
	<path fill="#FB7700" d="M275,175c-0.2,3.7,1.7,7.3,0,11c-2.2,1.2-2.6-0.5-3-2c-2.3-2-1.8-4,0-6c-0.5-1-0.5-2,0-3
		C273,174.1,274,174.2,275,175z"/>
	<path fill="#FB7600" d="M154,170c-3.3-0.2-6.7,1.5-10,0c2-3,6.5-4.4,11.5-3.7C156.3,168,153.9,168.5,154,170z"/>
	<path fill="#FC7600" d="M91,276c0,2,0,4,0,6c0,0.8,0,1.6-0.1,2.4c-0.1,1.3-0.3,2.9-2,2.8c-2.1-0.2-1.6-1.9-1.4-3.4
		c0.2-1.3,0.3-2.6,0.4-3.8c-1.2-1.7-1.8-3.3,0-5C89,275.3,90,275.7,91,276z"/>
	<path fill="#E78423" d="M111,307c0.4,0,0.8-0.1,1.2-0.1c3.8-0.6,4.8,3,6.8,4.9c1.9,1.8,3.6,3.9,5.8,5.4c0.7,1.3,2.1,2.2,2.2,3.8
		c0,0.8-0.4,1.5-1,2c-3.2-1.7-5.9-4.1-8.1-6.9c-2.3-1.7-4.7-3.3-6-6C111.7,309,111.3,308,111,307z"/>
	<path fill="#F57808" d="M243,178c-1.1-2.6-4-2.7-6-4c2.8-2,9-0.6,9.5,2.4C246.9,179.6,244.7,178.6,243,178z"/>
	<path fill="#F47903" d="M110,318c-1.5-1-3.1-1.9-4.9-2.2c-1.1-0.2-1.8-0.9-1.7-2c0.2-1.4,1.4-1.7,2.6-1.6c2.6,0.2,4.6,1.6,6,3.8
		C111.8,317.2,111.3,317.9,110,318z"/>
	<path fill="#F27906" d="M272,178c0,2,0,4,0,6c-0.7,0.7-1.3,1.3-2,2c-0.6-0.8-1.3-1.5-1.8-2.4C266.2,180,267.2,178.4,272,178z"/>
	<path fill="#F47A0B" d="M109,205c-3.2,7.4-2.5,8.5,5.7,9c1.5,0.1,2.9,0.1,4.2,1c-3-0.1-6,0-8.9-0.3c-1.9-0.2-4.2,0-5-2.4
		c-0.9-2.4,0.8-4.1,2.1-5.8C107.6,205.9,108.4,205.5,109,205z"/>
	<path fill="#FD7600" d="M271,338c1,0.7,2,1.3,3,2c-0.2,1-0.6,2-1.5,2.4c-1.8,0.8-3.9,1-4.7-1C266.6,338.6,269,338.3,271,338z"/>
	<path fill="#FC7700" d="M86.9,234.6c1.4,4,1.3,8,0.1,12.1C85.7,242.6,85.9,238.6,86.9,234.6z"/>
	<path fill="#FC7600" d="M106,297c0,2,0,4,0,6c-0.5,1.1-1.4,2.4-2.4,0.8c-1-1.6-1.9-3.6-0.7-5.6C103.6,297.1,104.8,297.1,106,297z"
		/>
	<path fill="#F07B04" d="M134.9,337.5c-0.3,2-1.8,1.9-3,2.2c-1.6,0.3-2.6-0.5-2.7-2.1c-0.1-1.4,0.2-2.9,2-2.9
		C133,334.7,133.8,336.5,134.9,337.5z"/>
	<path fill="#F27A07" d="M411,347c2,0,4,0,6,0c1-0.2,2-0.4,2.9-0.5c0.8-0.1,1.8,0.2,1.9,1.2c0.1,1.1-0.9,1.3-1.7,1.2
		C417.1,348.5,413.4,350.6,411,347z"/>
	<path fill="#EA8528" d="M219,335.1c-0.3,0.6-0.7,1.3-1,1.9c-0.7,1.3-2.1,0.4-3,1c0,0,0,0,0,0c-0.3,0-0.7,0-1,0c-2.8,2.8-6.7,2-10,3
		c0,0,0,0,0,0c-1.3,0-2.7,0-4,0c-0.3-0.5-0.4-1-0.1-1.5c4.1-3.3,9.7-2.3,14-5C215.6,333.9,217.5,332.9,219,335.1z"/>
	<path fill="#F17A05" d="M430.9,341.9c0,1.4-0.1,2.6-1.7,2.6c-1.7-0.1-2.6-1.2-2.8-2.9c-0.1-1.3,0.7-2.2,2.1-2.2
		C430.1,339.4,430.6,340.7,430.9,341.9z"/>
	<path fill="#E99242" d="M126,322.9c0-0.6,0-1.3,0-1.9c0.6-0.7,1.5-1.1,2.2-0.6c3,1.9,6,4,8.8,6.2c0.9,0.7,1.1,2,0.3,3.2
		c-0.4,0-0.9,0.1-1.3,0.1c-2.7-0.3-3.9-2.8-6-3.9c-1-0.7-2-1.4-3-2.1C126.7,323.6,126.4,323.3,126,322.9z"/>
	<path fill="#EF7B03" d="M423,172c-0.3-0.7-0.7-1.3-1-2c0.1-1.6-0.3-3.6,1.7-4.2c1.4-0.4,2,0.9,2.2,2.1
		C426.2,170.1,425.7,171.8,423,172z"/>
	<path fill="#ED8019" d="M119.3,196.5c-0.7,0.2-1.5,0.5-2.2,0.7c0.8-4.5,2.8-7.8,7.8-8.3c0.4,0.3,0.7,0.7,0.9,1.2
		C125.2,193.9,122.5,195.5,119.3,196.5z"/>
	<path fill="#ED7E15" d="M367,268.9c-0.6,3.3-4.1,4.9-5,8.1c-1.3,0.3-2.7,0.7-4,1c-0.7-0.5-0.9-1.2-0.9-2c0.5-2.1,2.3-3.1,3.8-4.4
		C362.9,270.9,364,267.8,367,268.9z"/>
	<path fill="#F27A06" d="M394,246c-0.3-1-0.7-2-1-3c0-1.3-1.3-1.8-1.6-2.9c-0.1-1.4,0.6-2.2,2-2.3c0.2,0.1,0.4,0.2,0.6,0.3
		c0.2,1.7,1.6,2.7,2.2,4.2C397.1,244.2,397.7,246.5,394,246z"/>
	<path fill="#F07A08" d="M275,344c0,0.7,0,1.3,0,2c-2.1,0.9-4.3,1.6-6.5,0.2c-0.3-0.2-0.5-1.1-0.4-1.2
		C270.1,343.1,272.7,344.4,275,344z"/>
	<path fill="#E5862A" d="M237.2,326.1c-0.5-0.1-0.9-0.2-1.4-0.2c-0.7-2.1,1.2-3.3,1.8-4.9c0.2-0.4,0.5-0.8,0.9-1.1
		c0.4-0.2,0.8-0.4,1.3-0.5c2.8,0.1,4.2-3.9,7.4-2.6c0.2,0.4,0.2,0.9-0.1,1.2C244.5,321.7,240.5,323.4,237.2,326.1z"/>
	<path fill="#F67805" d="M427,184c-1.4-1.7-3.4-3.3-2-6c1.3,0,2.7,0,4,0C429.2,180.3,428.3,182.2,427,184z"/>
	<path fill="#F27906" d="M134,170c-1.3,0-2.7,0-4,0c-1.3-2.3-0.4-3.6,1.9-3.7C134.5,166.2,134.9,167.9,134,170z"/>
	<path fill="#F0790B" d="M110,318c0.3-1.1,0.9-1.7,2-2c0.3,0,0.7,0,1,0c0.7,1.3,1.3,2.7,2,4c-0.7,2.9-2.4,1.7-4,1
		C110.7,320,110.3,319,110,318z"/>
	<path fill="#FB7700" d="M147,337c1.5,1.2,3.3,0.9,5,1c-0.6,1.8-1.9,2.6-3.6,2.8c-1.2,0.1-2.4,0.1-2.9-1.2
		C145,338.2,145.8,337.5,147,337z"/>
	<path fill="#E58323" d="M247.1,318.1c-0.1-0.5-0.1-0.9-0.2-1.4c-0.5-3.3,2.2-4.4,4.1-6.1c1.3-0.5,2.4-1.7,3.9-0.6
		C253.5,313.9,250.7,316.4,247.1,318.1z"/>
	<path fill="#EF7A08" d="M126,175c-0.3,0-0.7,0-1,0c-2.2-0.9-1.9-2.3-0.8-3.9c0.7-0.8,1.8-1.3,2.5-0.5
		C128.3,172.2,126.4,173.5,126,175z"/>
	<path fill="#F37906" d="M112,202c-1,1-2,2-2.9,3c0-2-4.2-3.1-1.9-5.2C108.9,198.2,110,201.8,112,202z"/>
	<path fill="#F57905" d="M104,287c2.3-1.4,4.7-1.4,7,0c-0.4,2.5-1.4,3.7-3.7,1.7C106.3,287.8,105.4,287,104,287z"/>
	<path fill="#EE8829" d="M144,219.9c1.6-0.1,2.9-0.7,4-1.8c1-0.7,2-1,2.9,0c0.9,1.1,0.2,2-0.5,2.9c-4.1,2.1-8.3,2.5-12.4,0.1
		c0-0.3,0-0.7,0-1C140,220,142,219.9,144,219.9z"/>
	<path fill="#EF7B04" d="M382,264c0.7,0,1.3,0,2,0c1.1,0.8,2.2,1.7,0.9,3.1c-0.9,1-2.1,0.8-3.1,0.2C380.1,266.1,381.6,265.1,382,264
		z"/>
	<path fill="#FB7700" d="M141,177c-1.1-0.3-1.8-0.9-2-2c1.7-0.7,3.3-1.3,5-2c0.3,1,0.7,2,1,3C143.7,176.3,142.4,176.7,141,177z"/>
	<path fill="#F37907" d="M229,172c-1,0.3-2,0.7-3,1c-1.5-0.1-3-0.3-4.1-2.3C224.7,169.4,226.9,170.2,229,172z"/>
	<path fill="#F17908" d="M127.5,342.8c-0.1,1.2-0.8,2.2-2.1,2.3c-1,0.1-1.3-0.8-1.3-1.7c0-1.1,0.5-2,1.7-2.1
		C126.8,341.3,127.4,341.8,127.5,342.8z"/>
	<path fill="#F27A06" d="M398.6,237.6c2.3,0.4,3.7,1.3,4,3.4c0.1,0.7-0.5,1.5-1.2,1.2C399.8,241.4,399,239.8,398.6,237.6z"/>
	<path fill="#E5882D" d="M125,190.1c0-0.4-0.1-0.8-0.1-1.2c1.5-2.2,4-3.4,6.1-5c0.7,0.1,1.5,0.1,2.2,0.2
		C132.1,188.3,129.5,190.2,125,190.1z"/>
	<path fill="#F8760A" d="M243.5,165.9c-3,0.9-3,0.9-5.4,0.3C240,164.5,240,164.5,243.5,165.9z"/>
	<path fill="#EF7B07" d="M84.1,240.7c-1.3-1.9-1.1-3.7-0.3-6.6C85.5,237.1,84.9,238.9,84.1,240.7z"/>
	<path fill="#E58323" d="M261.2,299.2c-0.7,3.3-2.7,5.9-4.1,8.8c-0.3,0-0.6,0.1-1,0.1c-0.4-0.2-0.8-0.6-1-1
		c-0.4-1.2,0.2-2.4,0.3-3.6c0.1-0.7,0.2-1.4,0.6-2.1c1.2-1.2,2.2-2.6,4-3C260.5,298.6,260.9,298.8,261.2,299.2z"/>
	<path fill="#F07C0C" d="M258.3,195.1c-2-0.4-2.7-1.7-2.8-3.5c0-0.8,0.8-1.1,1.4-0.7C258.4,191.8,259.3,193.1,258.3,195.1z"/>
	<path fill="#F27A05" d="M88,275c0,1.7,0,3.3,0,5c-1.9-0.7-3-2-2.6-4C85.7,274.6,86.7,274.2,88,275z"/>
	<path fill="#F67900" d="M275,175c-1,0-2,0-3,0c-0.7,0-1.3,0-2,0c-0.3,0.3-0.7,0.4-1,0c1.8-3.3,5.5-1.6,8-3
		C276.3,173,275.7,174,275,175z"/>
	<path fill="#EE7B08" d="M140,347c-1.1,4.2-3.8,0.8-5.7,1.4C135.9,346.4,138,347.3,140,347C140,347,140,347,140,347z"/>
	<path fill="#F27907" d="M264.3,187.1c-0.2,0.9-0.7,1.5-1.6,1.4c-1,0-1.5-0.6-1.4-1.6c0.1-0.9,0.6-1.5,1.5-1.4
		C263.8,185.6,264.3,186.1,264.3,187.1z"/>
	<path fill="#F37B0C" d="M204,341c3.3-1,6.7-2,10-3C211.6,342.2,207.5,340.7,204,341z"/>
	<path fill="#F47A0B" d="M133,220c-4.3,0-8.7,0-13,0C124.3,218.4,128.7,218.4,133,220z"/>
	<path fill="#F47903" d="M111,321c1.4,0,2.8,0,4-1c0.3,0,0.7,0,1,0c-0.1,1.2,0.3,2.9-1.3,3.4C112.8,324,112,322.3,111,321z"/>
	<path fill="#F27A06" d="M421,302c0-2.3,0-4.7,0-7C425.1,297.3,423.2,299.7,421,302z"/>
	<path fill="#FDEFD3" d="M358.2,276.1c-0.1,0.6-0.1,1.3-0.2,1.9c-0.3,0.4-0.7,0.7-1,1.1c-1.1,1.2-1.2,3.5-3.6,3.3
		c-0.5-0.1-0.9-0.5-1.2-0.9c0-3.2,1.1-5.6,4.6-6.2C357.4,275.4,357.9,275.6,358.2,276.1z"/>
	<path fill="#F07A07" d="M426.7,332c-1-0.3-1.2-1.2-0.9-2c0.2-0.5,0.8-1.2,1.3-1.2c1-0.1,1.4,0.7,1.3,1.6
		C428.2,331.2,427.7,331.9,426.7,332z"/>
	<path fill="#F07C11" d="M143.5,339.6c-0.2,1-0.9,1.2-1.8,1.2c-0.7,0-1.4-0.2-1.4-1c0.1-1,1.1-1,1.8-1.2
		C142.8,338.5,143.4,338.7,143.5,339.6z"/>
	<path fill="#F47903" d="M112,310c2,2,4,4,6,6c-0.7,0-1.3,0-2,0C114.6,314,112.1,312.8,112,310z"/>
	<path fill="#F37B0C" d="M217.4,343.5c1.4-0.7,2.6-0.6,3.5,0.6c0.1,0.2-0.2,1.1-0.4,1.1C218.9,345.6,218,344.9,217.4,343.5z"/>
	<path fill="#EF7A0D" d="M429,172c-0.3-1-1-2.1,0.2-3c0.6-0.5,1.3-0.1,1.5,0.6C431,170.9,430.1,171.6,429,172
		C429,172,429,172,429,172z"/>
	<path fill="#F27A06" d="M398,232c0,0.7,0,1.3,0,2c-1,1.7-2.3,3-4,4c0,0,0,0,0,0c-1.8-1.9-0.1-3.3,0.7-4.9
		C395.6,232.1,396.5,231.2,398,232z"/>
	<path fill="#F77B0B" d="M130,326.1c2.5,0.5,4,2.5,6,3.9c0,0.4,0,0.7,0,1.1C133.5,329.9,131.4,328.4,130,326.1z"/>
	<path fill="#F07C0C" d="M245.5,184.7c0.8,0,1.1,0.4,1.1,1.1c0,0.7-0.4,1.2-1.1,1.2c-0.3,0-0.8-0.5-0.9-0.9
		C244.4,185.5,244.8,184.9,245.5,184.7z"/>
	<path fill="#E7872A" d="M353.3,282.2c1.4-0.9,1.9-2.8,3.8-3.1c0,0.6,0,1.2-0.1,1.8c-0.7,0.9-1.1,2.2-2,3c-0.8,0-1.5,0-2.3-0.1
		C352.4,283.2,352.5,282.6,353.3,282.2z"/>
	<path fill="#E5862A" d="M255.9,306.7c0.1,0.5,0.1,0.9,0.2,1.4c-0.4,0.6-0.8,1.2-1.1,1.9c-1.1,0.6-2.2,1.2-3.3,1.9
		c-0.5-0.5-0.7-1.2-0.7-2c0.1-0.5,0.3-0.9,0.6-1.3C252.8,307.5,253.9,306,255.9,306.7z"/>
	<path fill="#F77904" d="M419,293c0.3-1,0.7-2,1-3c0.3,1.4,0.6,2.7,0.9,4.1C420.3,293.8,419.6,293.4,419,293z"/>
	<path fill="#FB7700" d="M269,175c0.3,0,0.7,0,1,0c-0.3,0.8-0.6,1.6-1.6,1.5c-0.2,0-0.5-0.6-0.5-0.6
		C268.2,175.5,268.6,175.3,269,175z"/>
	<path fill="#F27C07" d="M154.5,343.7c0.2,0.3,0.4,0.5,0.5,0.7c-0.3,0.1-0.5,0.4-0.8,0.4c-0.3,0-0.5-0.2-0.8-0.3
		C153.8,344.2,154.2,344,154.5,343.7z"/>
	<path fill="#F77904" d="M355,283.9c0.2-1.3,0.9-2.3,2-3c-0.2,1.6-0.8,2.9-2,4C355,284.6,355,284.3,355,283.9z"/>
	<path fill="#ED7E15" d="M362,278c0.6-0.1,1.4-0.4,1.6,0.5c0.1,1-0.8,1.3-1.5,1.5C362,279.3,362,278.7,362,278z"/>
	<path fill="#F47902" d="M288.5,343.4c2.9-1.7,114-2.4,120.2,0C368.4,343.4,328.2,343.4,288.5,343.4z"/>
	<path fill="#FA7700" d="M280,292.9c-1,0.7-1.9,1.4-2.9,2.1c-0.6,0.1-1.8,0-1.6-0.5c2.4-4.5-2.7-9.8,1.4-14.1
		c0.3-0.3,0.1-0.9,0.1-1.4c1.4-2.8-0.8-6.1,1.5-8.8c2.3-5.5,2-11.3,2-17c0-3.2,0.4-6.2,2-9c1.7-1.8,3.2-4.5,6.1-2.3
		c2.8,2.1,1.7,4.8-0.1,6.9c-2.2,2.6-2,5.5-1.7,8.5c0.2,2.2-0.1,4.3-0.1,6.4c-0.5,2.9,0.4,4.8,3.4,5.5c0.6,0.5,1.1,1.2,1.4,2
		c-0.7,4-0.6,8.5-5.9,9.6c-0.6-0.1-1.1-0.3-1.6-0.5c-0.8,2.6-1.2,5.2-0.7,7.9C282.7,290.2,282.2,292.1,280,292.9z"/>
	<path fill="#E58323" d="M266,292c-1.6,2.4-3.2,4.8-4.8,7.2c-0.1-0.1-0.3-0.2-0.4-0.3c-1.7-2.2,0-4,0.8-5.8c1-2.4,2.6-4.5,2.7-7.2
		c-0.1-1.3,0.4-2.5,0.7-3.7c3.3-4.7,4.4-10.1,4.5-15.7c0-0.5,0-1,0-1.6c0.4-6.2,2.1-12.4,0.1-18.7c-0.8-1.1-1-2.4-1-3.7
		c0-0.5-0.1-1-0.1-1.6c0.2-2.3-0.6-4.7,0.9-6.9c0.4-0.4,0.9-0.5,1.5-0.5c1.6,0.6,2.6,1.8,3.2,3.4c0.5,1.7,1.6,3.3,1.6,5.1
		c0.4,1.6,0.4,3.1,0.2,4.7c0,0.5,0,1.1,0.1,1.6c-1.8,5.7-1.6,11.5-1.4,17.4c0,1.7-1,2.6-2.4,3.3c0,5.2-1.9,10-3.2,14.9c0,0,0,0,0,0
		C268.2,286.7,268.5,289.9,266,292z"/>
	<path fill="#FA7700" d="M272.2,269.1c0.3-1,0.6-2.1,0.8-3.1c1.2-1.6-0.5-4,1.3-5.4c5,0.2,4.1,3.9,4.2,7.1c-0.1,1.6,0.2,3.3-1.3,4.4
		c-1.9,1.4-3.4,1.6-4.2-1.1C272.7,270.4,272.5,269.7,272.2,269.1z"/>
	<path fill="#F47A05" d="M273,271c4.1,2.7,3.4-1,4-3c0.8-1.2,1.9-2.1,3.1-0.9c1.5,1.5,0.8,3.3-0.1,4.9c-2.8,1.6-1.3,5-3,7
		c-0.4-1.8,1.1-4.5-2.9-4.3C272.3,274.8,273.3,272.3,273,271z"/>
	<path fill="#EE7B0A" d="M267,306c-0.3-0.4-0.7-0.7-0.9-1.2c-0.7-1.2-1.6-2.7-0.4-3.6c1.9-1.5,2.2,1.2,3.4,1.8
		C269,304.4,268.5,305.6,267,306z"/>
	<path fill="#FDEED6" d="M344.2,293.7c2.8,0.2,5.6,0.5,8.4,0.5c20.3,0,40.6,0.1,60.9,0c4.2,0,5.6,1.5,5.5,5.5
		c-0.2,11-0.2,22-0.1,32.9c0,3.8-1.2,5.3-5.2,5.3c-44.8-0.1-89.5-0.1-134.3,0c-3.9,0-5.4-1.4-5.2-5.2c0.3-8,0.4-15.9,0.5-23.9
		c0.3,0.1,0.5,0.3,0.8,0.4c1.7,2.9,0.7,6.1,0.9,9.2c0.2,3.1,0,6.3,0.8,9.4c0.2,0.7,0.3,1.5,0.6,2.2c0.9,1.1,0.4,2.6,1.3,3.6
		c0.8,0.4,1.6,0.6,2.5,0.6c1.6-0.2,3.1,0.3,4.7,0.5c3.1,0.7,6.3,0.7,9.4,0.7c34.6,0,69.1,0,103.7,0c3,0,6,0,8.9-0.7
		c0.8-0.2,1.5-0.4,2.3-0.7c1.6-0.5,3.3-0.9,4.4-2.2c0.3-0.4,0.5-0.8,0.6-1.3c1.5-6.5,0.8-13,0.5-19.5c-0.3-1.7-1.2-3.4-0.3-5.1
		c0.6-2.3,0.4-4.4-0.8-6.4c-1-0.8-2.2-1.2-3.4-1.4c-17.3-1.2-34.5-0.6-51.8-0.7c-4.8,0-9.6,0.2-14.4,0.3c-1-0.1-1.7-0.6-2.1-1.6
		C343.2,295.2,343.3,294.4,344.2,293.7z"/>
	<path fill="#EF7C0D" d="M280,292.9c0.7-1.6,1.3-3.3,2-4.9c-0.6-2.8,0.2-5,3-6c2-0.8,3-2.6,4.4-4c1.5-0.7,2.4-2,3.2-3.3
		c1.8-2.7,3.2-5.7,5.5-8c1.3-1.9,2.1-4.5,5.3-2.9c0.9,0.8,1.1,1.8,1.1,2.9c0.6,4.4-4.3,5.5-5.2,9c-5.1,5-9.6,10.5-14.2,15.9
		c-1.2,1.4-2.4,3.3-4.9,2.8C280.1,293.9,280,293.4,280,292.9z"/>
	<path fill="#FDEED6" d="M280.1,294.4c4.7-5.4,9.4-10.7,14.1-16.1c1.1-1.2,1.7-2.9,3.5-3.4c0.2,0.1,0.4,0.3,0.6,0.4
		c0.9,1.8,0.2,3.4-0.9,4.8c-1.9,1.1-3.1,2.8-3.7,4.8c-0.3,0.6-0.8,1.1-1.4,1.5c-1.3,0.9-2.5,1.9-2.8,3.6c-2.1,3.6-5.4,6.3-8.2,9.4
		c-3.7,2.1-3.1,6.4-4.8,9.6c-0.4,0.3-0.9,0.3-1.3,0.1c0,0-0.4-0.3-0.4-0.3C272.2,302.4,277.7,298.9,280.1,294.4z"/>
	<path fill="#FCEFDE" d="M344.2,293.7c-0.1,0.8-0.1,1.5-0.2,2.3c-0.8,0.3-1.5,0-2.1-0.6c-1.7-2-0.5-4-0.2-6.1
		c0.4-0.8,0.9-1.4,1.6-1.8c1.6-0.5,3.2-1,4.6,0.4C347.5,290.4,345.2,291.7,344.2,293.7z"/>
	<path fill="#FDEFD3" d="M353.3,282.2c-0.2,0.5-0.4,1.1-0.6,1.6c-0.3,0.3-0.6,0.5-0.8,0.8c-1,0.7-1.9,1.4-2.9,2.1
		c-1-0.8-1.2-1.8-0.9-3c1.1-1.6,2.3-3.3,4.7-2.1C352.9,281.9,353.1,282.1,353.3,282.2z"/>
	<path fill="#FDF8EE" d="M349,284c0,0.9,0,1.8-0.1,2.8c-0.4,0.4-0.7,0.8-1.1,1.2c-1.3,0.3-2.6,0.7-3.9,1c-1.2-3.4,1.4-4.4,3.7-5.5
		C348.2,283.5,348.6,283.7,349,284z"/>
	<path fill="#EB7C12" d="M177.9,293.9c0-0.3,0.1-0.6,0.1-0.9c0.6-0.5,1.6-0.8,1-2c-1-0.6-2-1.2-3.1-1.9c1.7-2.5,4.3-1.4,6.6-1.6
		c2.6,0.4,5.2,1,7.8,1c5.4,1.5,11.1,0.4,16.6,1.3c0.6,0.3,1,0.7,1.3,1.2c-0.3,2.6-2.4,2.2-4.1,2.4c-5,0.7-10.1,1-15.1,1.9
		c-3.6-0.1-7.2,0.8-10.6-0.7C178.3,294.4,178.1,294.2,177.9,293.9z"/>
	<path fill="#F67A0A" d="M129.2,298.1c-1.7-0.5-3.6,0-5.1-1.1c1-0.3,2-0.7,3-1c2.7,0,5.3,0,8,0c9.1,0,17.9-3.2,27-2
		c0.3,0.5,0.4,1.1,0.1,1.7c-1.1,1.9-3,1.8-4.8,1.7c-6-0.3-11.8,0.8-17.6,2C136.2,299.1,132.4,300.7,129.2,298.1z"/>
	<path fill="#E68328" d="M183.2,289.2c-2.4,0-4.8-0.1-7.3-0.1c-4-0.1-7.9-0.1-11.9-0.2c-0.4-0.6-0.3-1.1,0.2-1.6
		c1.6-1.2,3.4-0.8,5.1-0.9c3.3,0,6.6-0.1,9.9,0c1.8,0,3.7-0.3,4.9,1.6C184.3,288.9,184,289.3,183.2,289.2z"/>
	<path fill="#F67A0A" d="M163.8,288.2c0.1,0.3,0.1,0.5,0.2,0.8c-6.4,0-12.7,0-19.1,0c0-0.3,0-0.7,0-1c3.3-2.7,7.3-1,10.9-1.5
		C158.6,286.9,161.7,285.4,163.8,288.2z"/>
	<path fill="#EB7C12" d="M162,295.1c0-0.3,0-0.7,0-1c5.3,0,10.6-0.1,15.9-0.1c0,0,0.2,0.2,0.2,0.2c0,0.7-0.3,1.5-0.9,1.6
		C172.1,296.6,166.9,297.7,162,295.1z"/>
	<path fill="#F67A0A" d="M179,291c0.6,0.2,1.4,0.5,1,1.2c-0.3,0.5-1.3,0.6-2,0.8C178.3,292.3,178.7,291.7,179,291z"/>
	<path fill="#FEDFB0" d="M97.2,275c-0.1-1.6-0.1-3.3-0.2-4.9c0.4-0.4,0.9-0.5,1.4-0.2c1.9,2.1,1.8,5.2,3.4,7.4
		c0.3,0.4,0.7,0.7,1.1,1.1c7.9,3.2,16.3,3.7,24.7,4.1c2.2,0.1,4.3,0,6.5,0.2c0.9,0.1,1.6,0.5,2.1,1.2c0.2,0.6,0,1.1-0.5,1.5
		c-2.9,0.3-5.9,0.4-8.8-0.3c-6.1-0.4-12.2-0.9-18.4-1.2C99.7,283.3,99.7,283.3,97.2,275z"/>
	<path fill="#F29645" d="M126.9,285.1c3-0.1,6.1-0.1,9.1-0.2c2.1-2,4.7-1.6,7.1-1.3c7.4,1,14.9,0.6,22.3,1.9
		c1.6,0.3,3.4,0.1,3.8,2.3c-1.8,0.1-3.6,0.3-5.4,0.4c-2.6-0.1-5.2-0.1-7.8-0.2c-3.6-1.3-7.5,0.3-11.1-0.9
		C139,286.1,132.8,287,126.9,285.1z"/>
	<path fill="#E8872F" d="M144.9,287c3.7,0.2,7.5-0.7,11.1,0.9c-3.7,0-7.3,0-11,0C145,287.7,145,287.4,144.9,287z"/>
	<path fill="#DE9F67" d="M277.1,215.9c0-12.6,0-25.1,0-37.7c0-2.6,0.5-4.9,2.6-6.7c0,0,0,0,0,0c2.1,0.2,4.3,0.5,6.4,0.5
		c41,0,82,0,123,0.1c7,0,7.2,0.3,7.2,7.4c0,8.8,0.1,17.7,0.1,26.5c1.2,1.4,0.9,2.8-0.2,4.1c-0.4,0.3-0.7,0.7-1.1,1
		c-1.2,0.7-1.8,4-3.8,0.8c3-10.4,2.2-21,1.9-31.5c-0.1-3.5-2.2-5.5-5.7-5.7c-1.7-0.1-3.3-0.1-5-0.1c-36.8,0-73.6,0-110.4,0
		c-10.8,0-10,0.9-11.2,9.9c-1.1,8.2-1.4,16.9,1,25.3c0.9,3.2,2.5,4.4,5.5,4.7c2.8,0.2,5.7,0.1,8.5,0.2c15.8,0.1,31.6-0.2,47.5,0.1
		c0.6,0.1,1.2,0.3,1.7,0.6c1.8,4.5,0,7.7-5.1,9.1c-0.8-0.4-1.3-1.2-1.7-2c-0.7-2.3-2.3-2.9-4.6-2.9c-13.1,0.1-26.2-0.2-39.4,0.1
		c-4.7,0.1-9.2-1.3-13.9-0.8C278.9,218.9,277.2,218,277.1,215.9z"/>
	<path fill="#F67900" d="M423,178c-1.2,3.5-0.4,6.2,3,8c-3.4,5.1-1.6,10.7-1.9,16.2c-0.1,1.3,0.5,2.6-0.1,3.8c0,0.3,0,0.7,0,1
		c-1.7,0.7-3.3,1.3-5,2c-1.7-0.8-1.4-2.6-1.9-4c0-6.7,0-13.3,0-20c1.2-1.3,0.6-2.7,0-4c0-0.7,0-1.3,0-2c1.4-1,1-2.8,1.9-4
		C420.3,176,421.7,177,423,178z"/>
	<path fill="#E88327" d="M411.8,212.8c1.1-0.6,2.1-1.2,3.2-1.7c-2.5,5.1-7.2,8.4-10.3,13.2c-1.8,2.9-4.5,5.2-6.8,7.8
		c-0.7,0.7-1.3,1.3-2,2c-0.4,0.3-0.9,0.4-1.3,0.1c-0.5-0.6-0.8-1.3-0.7-2c1.2-2.6,3.5-4.4,4.8-6.9c1.7-1.5,2.8-3.5,4.4-5.1
		c1.4-1.1,2.5-2.4,3.3-4c0.2-0.4,0.4-0.8,0.7-1.1C408.7,214.1,409.6,212,411.8,212.8z"/>
	<path fill="#EE7C07" d="M417.1,205c1.4,1,1.9,2.4,1.9,4c-0.8,0.7-1.6,1.7-2.9,1.1c0.1-1.4,0.1-2.8,0.2-4.1
		C416.6,205.6,416.8,205.3,417.1,205z"/>
	<path fill="#FA7700" d="M275,205c2.2,3.5-0.8,7.5,1,11c0.3,0.3,0.7,0.7,1,1c1.1,1.1,2.9,2,2.1,3.9c-1,2.1-2.9,2.3-4.9,1.5
		c-1.1-0.5-2-1.2-2.2-2.4c0-3.5,0-7,0-10.5C272,207.3,272.6,205.5,275,205z"/>
	<path fill="#F17C0D" d="M272,238c-0.9-1.2-0.9-2.6-1-4c-1.1-1.2-2.4-2.3-3.7-3.3c-1.2-2.1-2-4.4-2.6-6.7c-0.1-1.1,0.2-2,1.1-2.6
		c0.1-1.1,0.1-2.2,0.2-3.3c1,1.3,2,2.7,3,4c0.2,0.1,0.4,0.1,0.7,0.2c0.8,0.5,1.3,1.3,2.1,1.9C275.4,227.5,275.6,234,272,238z"/>
	<path fill="#F67900" d="M272,220c0.7,0.3,1.3,0.7,2,1c1.1,2.6-0.1,3.8-2.6,4.4c-1.9-0.4-1.2-2.6-2.4-3.4c0,0,0,0,0,0
		C269.7,220.9,270.7,220.2,272,220z"/>
	<path fill="#F17C0D" d="M263,213c-1.7-1.6-2-3.7-2-6C262.5,208.7,265.7,209.9,263,213z"/>
	<path fill="#F67900" d="M268.8,215.3c-0.8-0.1-1.2-0.6-1.1-1.3c0-0.7,0.5-1.3,1.2-1.1c0.3,0.1,0.8,0.6,0.8,1
		C269.9,214.5,269.6,215.1,268.8,215.3z"/>
	<path fill="#F17C0D" d="M266,218c-1.1-0.7-1.8-1.7-2-3c0.4-0.5,1.2-1.4,1.2-1.4C266.7,214.9,265.7,216.5,266,218z"/>
	<path fill="#FEF7EC" d="M139.1,181.1c12-6.5,24.8-10.3,38.4-11c3.5-0.2,7,0,10.5,0.1c0.3,0.5,0.3,1.1-0.1,1.6
		c-0.2,0.2-0.5,0.6-0.7,0.7c-7,0.1-13.4,3.2-20.4,3.5c-2.7-0.6-5.1,0.3-7.3,1.8c-2.9,1.3-6.4,0.8-9.1,2.9c-4.5,0.6-7.3,5.1-12.1,4.9
		c-0.5-0.1-0.9-0.3-1.3-0.7c-0.3-0.4-0.5-0.8-0.6-1.3C136.7,181.9,138.1,181.7,139.1,181.1z"/>
	<path fill="#FDEBC9" d="M188,171c0-0.3-0.1-0.6-0.1-0.9c12.9-0.2,24.9,2.9,36.3,8.7c-0.1,0.5-0.4,0.9-0.9,1.3
		c-4.1,1.3-7.1-1.8-10.7-2.6c-1.7-0.4-3.3-1.6-5.2-1.5c-0.5-0.1-1-0.2-1.4-0.5c-5.1-1.2-10.3-2.1-15.6-2.1c-0.5-0.1-1-0.2-1.4-0.5
		C188.5,172.4,188.1,171.8,188,171z"/>
	<path fill="#FCEAD0" d="M222.8,179.1c0.5-0.1,1-0.2,1.5-0.3c6.6,2.3,11.5,7.3,17.6,10.5c0.5,0.8,1,1.7,1.5,2.5
		c-0.2,0.5-0.5,0.9-0.9,1.2c-0.7,0.4-1.5,0.4-2.3,0.3c-1.6-0.1-2.5-1.5-3.9-2.1c-2.2-1.7-4-3.9-6.3-5.5c-0.4-0.2-0.8-0.5-1.2-0.7
		C226.7,183.2,223.1,182.8,222.8,179.1z"/>
	<path fill="#F07C0C" d="M226,177c4.7,0.1,8.4,2.1,11,6C233.3,181,229.7,179,226,177z"/>
	<path fill="#EFA459" d="M139.1,181.1c-0.7,0.7-1.4,1.4-2.1,2c-0.8,0.5-1.5,0.4-2.2-0.3c0.7-0.6,1.4-1.2,2.1-1.8
		C137.7,181.1,138.4,181.1,139.1,181.1z"/>
	<path fill="#F27A06" d="M266,292c1-2.7,2-5.3,3-8C268.8,287,269.8,290.4,266,292z"/>
	<path fill="#F17A0A" d="M419,175c1,2.1,0.4,3.5-1.9,4c0-1.7,0-3.4,0-5.1C417.7,174.3,418.3,174.7,419,175z"/>
	<path fill="#F77802" d="M417,181c0.9,1.3,2.7,2.7,0,4C417,183.7,417,182.3,417,181z"/>
	<path fill="#EC7F1A" d="M394.6,233.9c0.5,0.1,0.9,0.1,1.4,0.2c-0.7,1.3-1.4,2.6-2,4c-0.7,0.7-1.3,1.3-2,2c0,1.3-1.3,1.3-1.9,2
		c-3.1,5.3-7.8,9.4-11.9,13.8c-2.4,2.6-4.3,5.3-6.3,8.1c-0.7-0.8-1.3-1.6-1.3-2.7c0.1-1.8,1.5-3.1,2.1-4.7c3.9-4.2,7.5-8.6,11.1-13
		c1.7-2.1,3.8-3.8,5.2-6.2C390.7,235.9,391.7,233.3,394.6,233.9z"/>
	<path fill="#E58A35" d="M372,260.9c0,1,0,2,0,3.1c-1.6,0.4-2.3,1.7-2.9,3c-0.7,0.7-1.4,1.3-2.1,2c-1.7,1.3-3.4,2.7-5.1,4
		c-0.7-0.5-1-1.2-1-2c0-0.5,0.1-1,0.4-1.5c2.2-1.9,4.3-3.9,6-6.3C368.3,261.8,369.5,259.8,372,260.9z"/>
	<path fill="#F67900" d="M390.1,242c0.6-0.7,1.3-1.4,1.9-2c1.1,0.8,2.1,1.5,1,3C392,242.7,391,242.3,390.1,242z"/>
	<path fill="#FEF5E4" d="M97.9,270.1c-0.3,0-0.6-0.1-1-0.1c-2.3-10.9-1.1-21.8,0.1-32.8c1-9.9,6.9-13.5,16.3-12.9
		c2.4,0.2,4.9-0.3,7.4-0.4c5.9-0.3,11.8-1.5,17.7-1.5c1.3,4.8-2.5,4.6-5.1,4.7c-7.3,0.2-14.5,1.1-21.7,1.9c-4.6,0.5-7.8,2.1-9.7,6.3
		c-1.5,1.5-1.5,3.4-1.7,5.4c-1.3,8.2-2,16.5-1,24.8c0.1,0.6,0.1,1.1,0.1,1.7C99.4,268.4,99.1,269.5,97.9,270.1z"/>
	<path fill="#FAE6C4" d="M139,223c-6.1,0.1-12,1.9-18.2,0.9c5.7-1,11.4-1.9,17.2-2.9c4.1,0.1,8.1,0.1,12.1-1c1.3-1,2.7-1.4,4.1-0.3
		c0.3,0.6,0.4,1.2,0.3,1.8C151.4,224.8,143.5,225.5,139,223z"/>
	<path fill="#F47A00" d="M424,206c-3.8-6.3-2.8-16.5,2-20c0,0.3,0,0.7,0,1c0,4.8,0,9.6,0,14.4C426,203.2,426.1,205.1,424,206z"/>
	<path fill="#F67900" d="M215,338c1-0.3,2-0.7,3-1c4.8-1.7,10.3-1.7,14-6c1.1,0.4,1.2,1,0.5,1.8C229.8,336.3,219.4,339.3,215,338z"
		/>
	<path fill="#FCE9C3" d="M134.9,182.9c0.7,0.1,1.4,0.2,2.2,0.3c0,0.3,0,0.6,0,0.9c-2.1,4.5-6.5,6.8-10.2,9.6
		c-1.9,1.4-3.5,4.3-6.7,3.4c-0.3-0.2-0.6-0.4-0.9-0.5c1-3,4.7-3.5,5.8-6.4c3.3-1.3,5.5-3.9,8.2-6
		C133.8,183.7,134.3,183.3,134.9,182.9z"/>
	<path fill="#E99745" d="M200,340.1c0,0.3,0,0.6,0,0.9c-12,2.2-23.9,1.2-35.9-0.2c-0.7-0.6-1.4-1.2-2.1-1.8c0.6-1.2,1.9-1.5,3-2
		c0.6-0.2,1.2-0.2,1.8-0.2c2.8-0.1,5.6,0.5,8.3,1.2c6.5,1.6,13.1,0.5,19.6,0.5C196.5,338.6,198.7,338,200,340.1z"/>
	<path fill="#FDECCF" d="M241.8,192.1c0.5-0.1,1-0.2,1.6-0.3c7,4.9,11.9,11.5,15.9,18.9c-0.2,0.2-0.3,0.4-0.5,0.6
		c-3.4,0.8-4.5-2.1-6.2-4c-3.5-3.7-5.7-8.5-9.8-11.7C241.6,194.8,241.2,193.5,241.8,192.1z"/>
	<path fill="#FDECD2" d="M265.8,221.4c0.1,0.9,0.1,1.7,0.2,2.6c0.4,0.5,0.4,1-0.1,1.4c-0.6,0.3-1.3,0.4-1.9,0.1
		c-2.6-1.4-6.2-10.9-5.4-14.2c0.2-0.2,0.4-0.3,0.6-0.5C262.5,213.7,262.8,218.4,265.8,221.4z"/>
	<path fill="#FEFDF9" d="M114,211c-2-0.8-2.5-2.5-1.2-3.9c2.6-2.9,3.6-7.1,7.2-9.2c0.6-0.6,1.2-0.6,2-0.3c1.4,2.7-0.8,5-0.7,6.5
		c-0.1,1.5,0.2,1.4,0.5,1.5c5.3,2.8,10.5,2,15.9,0.1c2.8-1,6-0.8,7.8,2.5c1,1.9,3,0.9,4.5,1.2c3.3,0.6,5.2,2.2,4.1,5.9
		c-4.3,1.6-8.5-0.5-12.8-0.3c-1.1-0.2-2.3-0.3-3.2-1.2l0-0.1C130.1,212.2,122,211.9,114,211z"/>
	<path fill="#FDFBF5" d="M122,198c-0.7,0-1.3,0-2,0c0-0.3,0.1-0.6,0.2-0.9c5.6-4.4,10.7-9.4,16.9-13.1c0.3,0,0.7,0,1,0
		c2.6,4.2-3,4.2-3.5,6.8c-1.4,2.4-3.8,3.4-6.1,4.6c-1.7,0.7-2.6,2.5-4.4,2.9C123.3,198.3,122.6,198.2,122,198z"/>
	<path fill="#FDF4E4" d="M114,211c8.2-0.7,16.2,0.3,24,2.9C130,213.2,121.9,212.8,114,211z"/>
	<path fill="#FCEACB" d="M138,214c1,0,2,0,3,0c2.2,1.6,5.4-1.1,7.3,1.7c-1,1.9-2.9,0.7-4.3,1.1c-2.1,0.7-3.6-1.5-5.6-1
		c-0.1-0.3-0.2-0.5-0.3-0.8C138,214.7,138,214.4,138,214z"/>
	<path fill="#FDFBF7" d="M137.3,329.8c-2.9-4.1-7.3-6.1-11.3-8.8c-0.7-0.9-1.4-1.9-2.1-2.8c-0.3-0.5-0.3-1,0-1.6
		c1.7-1.5,3.5-1.5,5.3-0.4c1.5,1.2,1.8,3.5,3.9,4.2c1.8,1.1,3.5,0.1,5.3,0c3.2-0.3,5.7,0.4,5.6,4.4c-0.3,0.8-1.2,1.9,0.8,1.6
		c2.3-0.1,4.4,0.8,6.5,1.4c1.5,0.9,3.3,1.6,4.5,2.9c1.5,1.6,1.4,3.2-0.3,4.7c-4.5,0.3-8.3-2.5-12.5-3.4c-1.5-0.3-2.8-1.1-4.1-1.8
		C138.4,330,137.9,329.9,137.3,329.8z"/>
	<path fill="#FCEAC8" d="M142.8,331.1c4.1,1.3,8.1,2.6,12.2,3.9c1-0.1,1.9-0.6,3-0.5c2.6,1.1,6.6-0.2,7.1,4.3c-1,0.1-2,0.1-3.1,0.2
		c-6-2-12-3.9-18.1-5.9C143.5,332.5,142.5,332.2,142.8,331.1z"/>
	<path fill="#E39347" d="M142.8,331.1c0.4,0.7,0.7,1.3,1.1,2c-2-0.5-3.8-1.2-4.9-3C140.2,330.5,141.5,330.8,142.8,331.1z"/>
	<path fill="#F67900" d="M271,225c1.6-0.9,2.2-2.5,3-4c6.5,0.7,2.2-3,2-5c0.4,0,0.7-0.1,1.1-0.1c5.4,2.1,11.1,1.7,16.7,1.8
		c14.8,0.3,29.6,0.1,44.5,0.1c1.3,0,2.9-0.5,3.6,1c0.6,1.5-0.8,2.4-1.7,3.3c-1.2,1.3-1.5,3.6-3.7,3.7c-0.6,0-1,0.2-0.6,0.9
		c0.2,0.6,0.3,1.2,0.2,1.8c-0.1,0.5-0.3,0.9-0.5,1.3c-1.8,1.2-2.7,3-3.7,4.9c-0.3,0.3-0.7,0.5-1.2,0.7c-3.7,2.8-6.2-0.2-8.9-1.8
		c-1.8-1-3.1,1.2-4.7,0.9c0,0-0.3,0.1-0.3,0.1s-0.1,0.3-0.1,0.4c0.5,2.2-3.2,2.4-2.2,4.8c1.9,0.3,0.9-1.6,1.7-2.2
		c1.3-1.9,3.1-2.9,5.4-2.9c3.9,0.7,4.2,3.1,3.1,6.2c-3,5.6-7.4,10-12.1,14.2c-1.1,0-2.1-0.3-2.5,1.3c-0.4,1.7-1.5,3.1-2.7,4.4
		c-1.2,1-2.4,2.1-3.6,3.1c-0.2,0.1-0.4,0.1-0.6,0.2c-2.2,0.4-2.6,2.7-4,4c-3.1,1.2-3.3-1-3.6-3.1c0.9-3.7,4.1-5.6,6.4-8.2
		c0.1-0.3,0.2-0.6,0.3-0.9c-0.1,0.4-0.3,0.8-0.5,1.2c-1.8,1.8-4,3.3-5.4,5.6c-1.5,1.2-1.2,2.8-1.3,4.4c-0.2,2.9-1.3,5.1-4.9,3.9
		c-0.3-0.3-0.7-0.7-1-1c-2.3-0.9-2.2-3.7-4-5c0-4.3,0-8.5,0-12.8c0-1.8,0-3.6,1.7-4.9c1.4-1.1,2.8-2.5,1.1-4c-2-1.8-2.5,1-3.8,1.7
		c-0.2-0.1-0.4-0.3-0.6-0.4c-1.4-1.5-0.3-3.1-0.2-4.7c0.1-1.4,0.2-2.9-1.7-3.4c-2.1,0.5-1.2,2.4-1.8,3.6c-1.3,2.4-2.8,4.1-5.7,1.9
		c-0.7-1.3-1.4-2.7-2.1-4c0-2-0.3-4,0.1-5.9c0.7-3.2,0.1-5.7-3.1-7.2C269.7,224.4,270.3,224.4,271,225z"/>
	<path fill="#FDF4E4" d="M239,322c-0.3,2-2.4,2.4-3.3,3.9c-3.1,0.8-5.1,3.9-8.4,4.3c-0.5,0.4-1,0.4-1.5,0
		C225.6,324.2,233.2,319.5,239,322z"/>
	<path fill="#FDECCD" d="M225.9,329.9c0.5,0.1,0.9,0.2,1.4,0.3c-2.3,2.5-5.7,2.9-8.3,4.9c-1.6,0.3-3.2,0.7-4.9,1
		c-0.7,0.5-1.5,0.5-2.2,0.1c-0.6-2.2,0.8-3.1,2.5-3.4c1.9-0.3,3.4-1.2,4.6-2.6C221.2,328.6,223.5,328.5,225.9,329.9z"/>
	<path fill="#DD934E" d="M143.9,216.9c1.1-1.5,2.8-0.5,4.1-1c0.9-0.8,1.8-0.9,2.9-0.5c1.7,1.1,6.4,0.1,3,4.5c-1.3,0-2.6,0.1-3.9,0.1
		c0.4-1.8-0.6-2.1-2.1-2C146.6,217.6,145.3,217.3,143.9,216.9z"/>
	<path fill="#FAE6C9" d="M124.1,317c-0.1,0.4-0.2,0.8-0.2,1.2c-5-2.6-7.6-7.7-11.6-11.3c-3.6-6.9-3.6-6.8,4.1-7.4
		c4.3-0.3,8.5-0.9,12.8-1.4c3.6-0.1,7.2-0.2,10.7-0.3c1.2-0.5,2.5-0.3,3.7-0.3c1.6,2.2-0.3,2.6-1.7,2.8c-7.2,0.9-14.2,2.8-21.5,2.4
		c-1.3-0.1-2.8-0.4-3.6,0.9c-0.8,1.4,0.3,2.5,1,3.6c0.8,1.3,1.9,2.3,2.8,3.5c1,1.8,2.6,3.2,3.6,5C124.4,316.1,124.3,316.6,124.1,317
		z"/>
	<path fill="#F8DDBD" d="M211.9,335.8c0.8,0.1,1.5,0.2,2.3,0.2c-4.4,2.5-9.4,2.8-14.1,4c-10.1,1.1-20.2,1.9-30.3,0
		c-1.3-0.2-2.6-0.6-3.8-1c1.6-3.2,4.5-2.6,7-2.2c4.9,0.8,9.9,0.8,14.8,1.4c6.7,0.8,12.9-2.1,19.3-3.5c0.5-0.3,1-0.5,1.5-0.7
		C210,333.9,211.1,334.5,211.9,335.8z"/>
	<path fill="#FDF3DF" d="M362,271c0,0.7-0.1,1.3-0.1,2c-1.2,1-2.4,2.1-3.6,3.1c-0.4,0-0.8-0.1-1.2-0.1c-1.1-1.6-0.3-2.9,0.5-4.2
		c0.5-1,1.3-1.6,2.4-1.7C360.7,270.1,361.4,270.5,362,271z"/>
	<path fill="#FEFEFE" d="M225.9,329.9c-2,0.7-3.9,1.4-5.9,2.1c-6.1,2-12.2,0.4-19.1,0.3c3.5,0.6,7.2-1.9,8.4,2.9l-0.2-0.1
		c-8.1,3.8-16.5,3.8-25.1,2.5c-3.9-0.6-7.9-0.9-11.8-1.4c-2.4-0.3-4.5-0.9-6-2.8c-0.2,2.1-1.1,3.3-3.8,3.2c-1.8-0.1-3.3-1.7-5.2-0.8
		c-0.7-0.3-1.4-0.5-2.1-0.8c1.3-4.6-3.4-3.2-5-5.1c-1.6-1.9-4.1-1-6-2c-1.5-0.4-3-0.8-5.1-1.4c1.8-0.7,2.9-1.2,4.1-1.6
		c0.7-3.3-2.1-6.4-0.5-9.7c0.1-1,0.7-2-0.3-2.9c-6.6-3.7-7.2-5.7-3.6-12.2c2.8-0.1,5.7-1.1,8.1,1.3c2.4,4.5,11.8,7.2,15.9,4.5
		c0.6-0.4,1.2-0.8,1.2-1.5c0-6.2,4.7-5.6,8.7-6c0.5,0,1,0,1.5,0c4.7-0.4,9.2,1.4,13.9,0.6c2.1-0.3,3.4-1.1,4.2-2.8
		c3.7-1.5,7.4-1,11.1-0.3c2.6,0.5,5.2,0.5,7.9,0.5c1.8,0,1.7-1.1,1.4-2.4c-0.3-2.6-2.1-3.9-4.4-4.1c-3.7-0.3-7.2-1.6-10.9-1.4
		c-7.7,0.5-15.1-2-22.7-1.9c-1.8-1.9-4-3.2-6.6-2.5c-7.8,2.3-15.3,0.2-22.8-1.5c-1.4-2.5,0.4-3.3,2.2-3.8c5.3-1.5,10.6-3.8,16.4-2.2
		c-3-0.5-6.1,0.3-9.1-0.6c-1.4-1.8-2.9-2.8-5.4-2.7c-3.8,0.3-7.5-1-11-1.5c2.4,0.7,5.9,0,7.3,3.5c-0.4,4.8-3.6,5.5-7.5,5.3
		c-2.3-1.2-4.6-1.3-7.1-0.9c-2.6,0.5-5.2,0.7-7.5-1c-0.7-0.8-1.3-1.6-1.5-2.7c-1.4-2.9-4.4-3.7-7.5-2.1c-1.1,0.6-2,1.9-3.5,1.5
		c-2.4-2.6-4.6-3.1-6.5,0.5c-0.7,0.5-1.4,0.6-2.2,0.5c-2.7-0.9-2.2-3.3-2.8-5.3c-1.7-6.4,0.9-12.7,0.4-19.1c-0.2-2.3,0-4.6-0.6-6.9
		c-0.1-0.5-0.2-1-0.2-1.5c0.1-3,2.5-5.7,0.9-8.9c1.2-5.9,4.5-8.1,10.7-8.3c7.2-0.3,14.4-2,21.7-1.7c2.4,0.1,4.6-0.5,6.5-1.9
		c4.8-1.9,10.2,0.1,15-2c2.3-1.8,1.4-3.3-0.3-4.8c-0.1-0.5,0-0.8,0.3-1.2c-1.6-1.4-2.6-3.6-5-4c-0.8-0.9-0.7-1.7,0-2.5
		c-0.3,0-0.4,0.3-0.7,0.4c-2.2,0.9-3.3-0.8-4.7-1.8c-0.8-1.6-1.8-3-3.9-2.3c-2.8-0.4-5.5,0.7-8.3,0.9c-6.6,0.6-9.6-2.5-8.5-8.6
		c1.3-1,2.7-2,4-3c1.9,0.9,4.2,0.8,5.6,2.7c0.4,0.6,1,1.5,2,0.8c0.9-0.6,0.8-1.7,0.6-2.7c-0.4-1.8-2-3-2.1-4.9c0.2-3.2,4.8-2.8,5-6
		c4.3-1,6.9-6,12-5.1c3.3,0,6.7,0,9.6,1.7c2.6,1.5,3.6,0,4.7-1.8c1.3-0.7,2.4-1.8,3.8-2.4c1.7-0.5,3.6-0.5,4.6,0.7
		c2.8,3.2,6.4,3.5,10.1,3.9c2.9,2.9,6.4-0.8,9.4,0.9c3.6,3.7,9.2,3.6,12.5-0.2c0.4-0.3,0.8-0.6,1.3-0.7c4.5,0,9-0.6,13.3,2.3
		c2.2,1.5,5.7,0.4,8.7,0.1c0.7,0.1,1.5,0,2.1,0.6l0,0c1,1.5,0.8,2.9-0.5,4c-1.2,1-1.7,2-0.8,3.4c1,1.6,2.4,0.2,3.6,0.3
		c0.5-0.1,1,0,1.5,0.1c1.7,0.7,2.8,2,3.7,3.6c0.4,0.7,0.8,1.5,1.3,2.1c1.3,1.5,1.9,3.2,1,5.1c-1,2.2-2.9,1.7-4.7,1.3
		c-0.6-0.1-1.3,0.1-1.9,0.3c1.1-0.4,2.2-0.4,3.4,0.1c2,0.8,3.2,0.2,4.2-1.9c1.7-3.5,5.5-3.5,7.9-0.3c3.1,4.2,3.3,6.5,1.2,13
		c4.4-3.9,6.5-4,9.4-0.3c2.7,3.6,2.3,6.5-2.2,9.6c4.3-1.1,6.5,1.6,9.2,2.9c0.3,0.4,0.6,0.8,0.7,1.3c0.8,5.5,2.3,10.8,2,16.6
		c-0.2,3.2,2.2,6.9,1.5,10.5c-1.3,6.9,0.1,14.2-2.6,21c-0.6,1.5-1.2,2.9-2.3,4.2c-4.4,5-8.9,10-6.3,17.5c-0.3,0.7-0.7,1.3-1.1,1.9
		c-0.5,0.6-1.1,0.9-1.6,1.4c-1.3,0.9-2.6,1.8-4,2.6c-0.4,0.2-0.9,0.2-1.4,0.3c-1.4,0-3,0.1-3.2,1.7c-0.4,3.3-3,4.6-5.2,6.2
		c-1.4,1-2.9,1.8-4.7,1.4c-2.9-0.4-3.5-5.3-7.3-3.6c-1.1,4,2.3,3,4.1,3.8c2.1,2,3.5,4.5,4.6,7.1c0,0.3-0.1,0.6-0.3,0.8
		C233.7,323.1,229.6,326.1,225.9,329.9z"/>
	<path fill="#F9FEFD" d="M229,308c4.4-0.8,7.2,1.2,9,5c2.6,1.6,4.5,3.6,2.9,7c-0.3,0.4-0.6,0.7-0.9,1l-0.3,0.2c0,0-0.4,0-0.4,0
		c-3.5-0.6-3.5-4.1-5.3-6.2C231.9,313,227.6,312.6,229,308z"/>
	<path fill="#FBE2B9" d="M240,321c0-0.3,0-0.6,0-1c0.3-0.3,0.6-0.6,0.8-1c0.8-1.5,2-2.8,2.9-4.3c0.7-0.9,1.5-1.7,2.5-2.3
		c2-0.6,3-4,6-2.4c-0.2,0.6-0.3,1.2-0.5,1.7c-2,1.2-3.4,3-4.8,4.9C244.4,317.8,243.5,321.5,240,321z"/>
	<path fill="#FDF6E9" d="M252.1,310.1c-1.7,1.3-3.4,2.5-5.2,3.8c-0.6-0.5-1-1.1-1.2-1.9c-0.2-1.4,0.6-2.4,1.3-3.4
		c0.6-1.8,1.5-3.4,2.8-4.8c0.4-0.3,0.7-0.6,1.1-0.9c0.3,0,0.6,0,1,0c0.6-2.1,3-0.7,4-2c0.3-0.3,0.7-0.7,1-1c0.6,0.7,0.6,1.5,0.1,2.3
		c-0.1,0.5-0.2,1.1-0.3,1.6C255.3,306.1,253.3,307.8,252.1,310.1L252.1,310.1z"/>
	<path fill="#FDF3DE" d="M257.1,302.3c0-0.8-0.1-1.6-0.1-2.3c0.3-0.3,0.7-0.7,1-1c1.4-3,0.8-6.6,2.3-9.6c1.2-2.3,2.1-5.3,5.8-3.3
		c-0.7,4.7-4,8.3-5.3,12.8C259.3,299.7,259.2,302,257.1,302.3z"/>
	<path fill="#FBE2B9" d="M252.1,310.1c0.6-2.8,1.8-5.1,4.7-6.2c-0.3,0.9-0.6,1.9-0.9,2.8C254.6,307.9,253.4,309,252.1,310.1z"/>
	<path fill="#FDFDFA" d="M358.9,272.9c-0.6,1-1.3,2-1.9,3c-1.7,1.7-3.2,3.6-4.2,5.8c-1.2,0.8-2.5,1.5-3.7,2.3c-0.3,0-0.7,0-1,0
		c-2.9-4,1.9-6.8,1.8-10.4c0-0.5,0.6-1.1,0.9-1.7c0.2-0.5,0.5-0.9,0.9-1.2C355.9,267.5,356.7,267.8,358.9,272.9z"/>
	<path fill="#F67900" d="M280,272c-0.5-1.7,1.2-5.1-3-4c-0.6-2.5-0.1-5.5-3-7c-0.9-4.7-0.8-9.3,0-14l0,0c2.9-1.8,3.5-6.4,8-6.4
		c1.8,0.9-0.2,3.7,2,4.4c0,0,0,0,0,0c-3.4,6.5-1.5,13.5-2,20.3C281.8,267.7,282.5,270.3,280,272z"/>
	<path fill="#F47A03" d="M290,271c2-0.9,3.4-2.2,2.6-4.6c-0.8-2.6,0.9-3.9,2.4-5.4c1.1,0.7,2.2,1.4,2,3c0,1.7,0,3.3,2,4
		c-1.4,2.8-2.7,5.7-5,7.9c-2.5-0.6-2.5,2.2-4,3c-2.2,3.5-6.1,5.3-8,9c-0.8-0.6-1.8-1.4-1.3-2.4c1.4-2.8,1.4-5.7,1.4-8.7
		c0-1.2,0.1-2.8,1.4-2.9c2-0.1,1.3,1.8,1.6,3c-1.1,1-1.4,2,0,3C289.1,278.4,289.1,274.4,290,271z"/>
	<path fill="#F47A03" d="M285,265c4.3-0.7,3.4,2.7,4,5C283.2,271.9,285.7,267.2,285,265z"/>
	<path fill="#EF7C0D" d="M285,280c-1.3,0.7-1.8,0-1.9-1.2c-0.1-1.3,0.3-2.2,1.9-1.8C285,278,285,279,285,280z"/>
	<path fill="#FDFCF9" d="M266.1,286.1c-2.7,0.7-3.4,3-3.9,5.2c-0.7,3-2.2,5.5-4.2,7.7c0-0.3-0.1-0.7-0.1-1c0.2-2.8-4.9-3-3.4-5.9
		c2.1-3.9,4-8.2,7.7-10.8c3.8-2.7,5.5-6.8,5.5-10.6c-0.2-8.3,4.1-16.8-0.9-24.8c2.9-6.1-1.8-11.8-0.7-17.8c3.1,2.2,2.9,5.6,3.5,8.8
		c0.3,1.7-0.7,3.6,0.6,5.1l0,0c0.6,2.3,0.8,4.6,1.4,6.9c-0.2,5.8,0.5,11.5-0.4,17.3l0,0c-1.1,5.8-2.4,11.5-4,17.1
		C266.8,284.1,266.4,285.1,266.1,286.1z"/>
	<path fill="#FB7600" d="M282,241c-3.1,1.4-3.1,7-8,6c0-1.7,0-3.3,0.1-5c4.5-0.3,3.8-3.6,3.9-6.5c0.1-1.4-0.3-3.2,1.3-3.9
		c2.2-1,2.6,1.4,3.7,2.4c1.3,1,0.9,2.4,0.9,3.7C283.6,239,283.4,240.4,282,241z"/>
	<path fill="#FBE3BD" d="M267.1,283.2c0.1-6,1.8-11.6,4-17.1C271.1,272,270,277.8,267.1,283.2z"/>
	<path fill="#FCE5C2" d="M270.1,241.9c-1.4-4.7-2.7-9.3-4.1-14c0,0,0,0,0,0c-0.8-0.8-1-1.7-0.3-2.7c0.1-0.4,0.2-0.9,0.3-1.3
		c1,2.1,1.9,4.1,2.9,6.2c1,1.1,1.6,2.3,1.1,3.9C270,236.7,270.1,239.3,270.1,241.9z"/>
	<path fill="#FBE3BD" d="M271.1,266.1c-0.1-5.9-0.1-11.9-0.2-17.8c-0.4-1.3-0.7-2.5,0.3-3.6C272.6,251.8,272.7,258.9,271.1,266.1z"
		/>
	<path fill="#F17C0D" d="M274,247c0,4.7,0,9.3,0,14c-0.1,1.7,0.1,3.5-1,5C273.5,259.7,272,253.3,274,247z"/>
	<path fill="#D97314" d="M270,234c-0.7-1.2-1.2-2.5-1.1-3.9c2.5,0.3,1.7,2.4,2.1,3.9C270.7,234,270.3,234,270,234z"/>
	<path fill="#FCE5C2" d="M271.2,244.6c-0.1,1.2-0.2,2.4-0.3,3.6c-1-2-1-4.2-0.8-6.4C271.4,242.4,271.3,243.5,271.2,244.6z"/>
	<path fill="#FEFEFE" d="M352,272c0.6,1.7-2.9,3.6,0.4,5.4c1,0.5-0.5,1.7-1.3,2.1c-1.9,1-3.2,2.2-3.1,4.5c-0.2,2.5-3,3.1-4,5
		c-0.3,0.3-0.7,0.7-1,1c-0.6,1.7-2.7,3.3,0,5c0.3,0.3,0.7,0.7,1,1c0.3,0.3,0.7,0.6,1,0.9c1.7-0.9,3.6-0.4,5.4-0.4
		c19.7,0,39.5,0,59.2,0c1.3-0.1,2.5,0.1,3.8,0.5c0.2,0,0.5,0,0.7,0c1,0.3,2,0.7,3,1c0.7,1,0.6,2.2,0.2,3.3c-2.3,4-6.3,3.1-9.8,3.2
		c-18.9,0.1-37.9,0.1-56.8,0.1c18.7,0,37.5-0.1,56.2,0.1c3.2,0,6.6-1.4,9.8,0.5c0.5,0.3,0.8,0.7,1.2,1.2c-0.8,1.2-0.8,2.4,0,3.7
		c-0.8,5.5-0.1,11-0.4,16.4c-0.1,0.6-0.4,0.9-1,1c-3.1-3.4-0.5-7.6-1.5-10.5c0.5,3.3-1.4,7.8,1.7,11.5c-0.3,4.4-3.5,4.2-6.5,4.2
		c-22.5,0-45,0-67.5,0c-14.7,0-29.3,0-44,0c35,0,70,0,105,0c2.1,0,5.9-1,5.8,1.8c0,2.8-3.8,1.6-5.8,1.6c-37.7,0.1-75.3,0-113,0.2
		c-3.8,0-7-2.1-10.7-1.6c-2.7-3.6-4.5-7.5-4.1-12.1c0.4-4.4-0.7-8.9,0.6-13.3c0.6-1.7,1.8-3.1,2.9-4.5c0.9-0.7,2.8-1.3,0.2-2.3
		c-0.4-0.3-0.7-0.6-1-1c-0.2-1.3,0.7-2.2,1.3-3.2c2.7-3,5.3-6.1,8-9.1c0.6-0.7,1.1-1.5,2-1.8c2.2-0.8,4.5-1.1,6.7-1.6
		c4.9-1.2,6-4,3.6-8.2c-0.4-0.7-0.9-1.4-0.9-2.3c0-0.8,0.4-1.4,0.9-1.9c0.4-0.3,0.9-0.6,1.3-0.5c4.3,1.2,4.8-1.2,4.3-4.6
		c0.2-0.4,0.5-0.8,0.8-1.2c6.2-3.2,11.6-7,12.9-14.6c0.3-1.5,1.5-2.7,2.8-2.3c3.2,0.9,4.6-0.8,5.7-3.3c0.5-1,1.7-1.5,2.8-1.9
		c3.3-1.2,4.9-3.8,5.2-7.2c0.3-0.7,0.9-1.2,1.6-1.4c3.5-0.5,4.4,2.3,5.5,4.6c0.6,1.2,0.8,2.5,1.5,3.6c0.6,1.1,1.9,1,2.9,1.4
		c-0.9-0.4-2.2-0.3-2.6-1.3c-2.1-4.6-5.2-8.7-6.4-13.7c-0.6-2.3,0.7-4.1,2.3-5.7c0.3-0.4,0.7-0.7,1.1-0.9c0.5-0.2,0.9-0.2,1.4-0.2
		c2.8,1.6,2.8,1.6,2.7,4.2c1.3-2.6,1.8-5.5,0.5-8.5c-0.1-0.9-0.1-1.8-0.4-2.7c-0.2-0.4-0.4-0.8-0.6-1.2c-2.5-1.1-1-6.1-5.3-5.4
		c-4.3,0.6-8.2,2.3-12,4.5c-13.3,0-26.6-0.1-39.9,0.1c-3.5,0-4.8-1.1-6.1-4.7c-3-8.5-1.3-17.1-1.9-25.7c-0.5-7.6,3.5-10.6,10.9-9.6
		c3,0.4,6,0.4,9,0.4c34.1,0,68.2,0,102.3,0c1.5,0,3,0,4.5,0c5.1,0.3,6.8,1.7,6.4,6.7c-0.5,5.8-1.1,11.5-0.9,17.4
		c0.1,1.8-0.3,3.7,0.9,5.3c1.2,2.9-1,4.6-2.5,6.5c-4.1-1.2-8.9,2.1-12.6-2.3c-0.9-1-1.7,0.3-2.2,1.1c-2.1,1.4-0.5,3.7-1.2,5.4
		c-1.5,2.4,1.1,3.3,2,4.4c2.1,2.6,2.5,4.6,0.1,7.4c-3.8,4.5-6.4,10.1-12.9,11.6c-1.2,0.3-1.2,1.7-1.2,3c0,2.5-1.2,4.5-3.7,5.3
		c-1.5,0.4-3,0.2-4.1-1.2c-1.7-2.1-1.1-4.3-0.1-6.6c0.4-0.9,1.3-1.5,1.2-2.9c-3,3.5-3.8,7.6-4.1,11.7c-0.3,3.6-1.6,4.9-5.4,4.4
		c-4.7-0.6-8.8,1-11.3,5.4c2.6-4,7.1-6.3,11.5-5.4c2,0.4,4.7,0.5,4.5,3.6c-0.2,2.6-1.7,4.3-4.7,4c-4.6-1.8-5.9-0.6-6.4,5.5
		c-0.4,1.7,0.4,3.6-0.5,5.2c-0.4,0.6-0.7,1.3-1.1,1.9C356.9,270.7,354.7,269.3,352,272c-0.4-0.4-0.9-0.8-1.4-1.2
		C351.1,271.2,351.6,271.6,352,272z"/>
	<path fill="#FCFDF8" d="M416,327c0.3,0,0.7,0,1,0c0.8,2,0.8,4,0,6l0,0c-1,2.1-2.8,2.8-5,2.9c-0.7,0-1.4,0.1-2,0.1
		c-1.2,0.8-2.6,0.5-3.9,0.5c-39.1,0-78.1,0-117.2,0c-1.3,0-2.7,0.3-3.9-0.5c-1.7,0-3.3-0.1-5-0.1c-0.6-0.6-0.5-1.3,0-1.9
		c0.4-0.9,0.8-1.8,1.1-2.8c0.3-0.8,0.6-1.7,1.6-1.5c0.5,0.1,1.1,0.8,1.2,1.3c0.7,3.3,3,4,6,4c38.6,0,77.3,0,115.9,0
		c0.7,0,1.5-0.2,2.2-1c-1.8,0-3.6,0-5.4,0c-35.3,0-70.6,0-105.9-0.1c-2.3,0-6.5,1.2-6.5-1.3c0-2.9,4.1-1.5,6.3-1.5
		c35.5-0.1,71-0.2,106.4,0.1c4,0,7.5-3,11.7-1.4C415.5,330.2,415.9,328.2,416,327z"/>
	<path fill="#FCEFDE" d="M285,336c41.7,0,83.3,0,125,0c-2,1.3-4.2,0.9-6.3,0.9c-37.5,0-74.9,0-112.4,0C289.2,337,287,337.3,285,336z
		"/>
	<path fill="#FDF8EE" d="M412,297c-22.3,0-44.7,0-67,0c1.5-1,3.1-0.9,4.8-0.9c19.8,0,39.6,0,59.4,0c1.7,0,3.3-0.1,4.8,1
		c0,0,0,0.1,0,0.1C413.3,297.6,412.6,297.6,412,297z"/>
	<path fill="#FCFDF9" d="M280,334c0,0.6,0,1.3,0,1.9c-0.7,0.3-1.3,0.6-2,0.1c-2.3-1-0.8-3.5-1.9-5c0-0.7,0-1.3,0-2
		c-0.8-6.7-0.8-13.3,0-20c-0.2-4.2,0.2-8.2,4-11c-0.3,1-0.7,2-1,3c0.9,2.5,0.2,4.8-1,7c-1,7.5-2.9,15,1.5,22.1
		C280.1,331.1,279.8,332.7,280,334z"/>
	<path fill="#FCEFDE" d="M417,333c0-2,0-4,0-6c0.4-5.7-0.9-11.5,0.9-17.1C417.6,317.6,419,325.3,417,333z"/>
	<path fill="#FCEFDE" d="M276,309c0,6.7,0,13.3,0,20c-1.9-6.5-0.6-13.2-0.8-19.8C275.4,309.1,275.7,309,276,309z"/>
	<path fill="#FCEFDE" d="M417.8,306.2c-0.2-0.1-0.5-0.2-0.8-0.2c-2.3-1.6-1.4-3.3-0.1-5c0-1,0-2,0-3
		C418.6,300.6,417.8,303.5,417.8,306.2z"/>
	<path fill="#FDF8EE" d="M412,335.9c1.7-1,3.3-2,5-2.9C416.3,335.6,414.8,336.9,412,335.9z"/>
	<path fill="#FCEFDE" d="M276,331c0.6,1.7,1.3,3.3,1.9,5C275.6,335,276.1,332.9,276,331z"/>
	<path fill="#FDF8ED" d="M301,274c-0.3,0.3-0.7,0.7-1,1c-0.5,0.5-1.1,0.5-1.6,0.1c-0.2-0.1-0.4-0.2-0.6-0.2c0.7-3.3,4.5-4.4,5.3-7.6
		c2-4.7,5.3-8.4,9.1-11.7c1.8-0.4,2.8-3.2,5.2-1.6c1.1,6.1-3.3,12.1-10.4,14l0,0C306.5,273.3,306.5,273.3,301,274z"/>
	<path fill="#E68824" d="M312.7,256.9c-3.6,3.1-5.7,7.6-9.6,10.4c0-1.1-0.1-2.2-0.1-3.3c0,0,0,0,0,0c0.4-2.2,2.9-2.5,3.7-4.3
		c2-1.6,2.9-4.4,5.3-5.7c3.7-4.4,7.3-8.7,11-13.1c0.6-0.8,1.1-1.7,2.4-1.1c0.4,0.3,0.6,0.8,0.8,1.2c-0.5,5-4.7,7.5-7.6,10.6
		C316.9,253.6,315,255.5,312.7,256.9z"/>
	<path fill="#FA7700" d="M290,279c0.4-2.2,0.4-5,4-3C292.8,277.2,292,278.8,290,279z"/>
	<path fill="#FCFDFB" d="M298.4,275.1c0.5,0,1.1-0.1,1.6-0.1c3.2,1.2,6.1,3.8,5.1,6.8c-1,3-3.9,6-7.9,6.1c-2.4,0.1-4.8,1.2-7.2,0.1
		c-0.7-1.3,0.5-2,1-3c0.3-0.3,0.7-0.7,1-1c2-1.1,2.8-3.2,4-5C296.8,277.7,297.6,276.4,298.4,275.1z"/>
	<path fill="#FEF4E6" d="M296,279c-0.1,2.7-1.2,4.5-4,5C293,282,294,280.1,296,279z"/>
	<path fill="#FEF4E6" d="M291,285c-0.3,1-0.7,2-1,3c-0.7,0.3-1.3,0.6-2,1C288.3,287.1,289.4,285.9,291,285z"/>
	<path fill="#FDF8EE" d="M343,295c-0.7,0.2-1.9,0.8-2.1-0.1c-0.6-2.1,0.5-3.7,2.2-5C343,291.7,343,293.4,343,295z"/>
	<path fill="#EFA456" d="M144,298.2c-1.4-0.1-2.7-0.2-4.1-0.4c7.1-2.7,14.8-1,22.1-2.8c5.4-0.3,10.8,0.4,16.1-0.9
		c3.6-0.1,7.3-0.2,10.9-0.3c1.8-0.3,3.5-0.9,5.2,0.4c-0.6,2.1-2.4,2.1-4,2.2c-10.3,0.3-20.5,1.7-30.8,2.1c-2.5,0.1-5,0.4-7.4,1.1
		C149.1,300.2,146.3,300.9,144,298.2z"/>
	<path fill="#E68328" d="M194.2,294.1c-1.7-0.1-3.4-0.2-5.1-0.3c4.6-0.6,9.1-1.3,13.7-1.8c1.8-0.2,3.7,0.1,5.3-1
		c0.9-0.7,1.9-0.9,2.7-0.1c1.1,1.1,0.3,2.1-0.6,3C204.8,295.5,199.5,296.9,194.2,294.1z"/>
	<path fill="#E68328" d="M207.1,290.9c-5.7-0.2-11.5,0.9-17.1-0.9c-0.3-0.6-0.2-1.1,0.3-1.5c5.5-1.4,10.9-0.2,16.2,1
		C207.2,289.8,207.3,290.3,207.1,290.9z"/>
	<path fill="#DA9556" d="M207.1,290.9c0-0.3,0-0.6,0-0.9c5.2-1.3,6-0.9,6.3,2.9c-1.1,1.1-2.2,1.1-3.3,0.1c0.5-1.8-0.7-2-2-2
		C207.7,291,207.4,290.9,207.1,290.9z"/>
	<path fill="#D37921" d="M190,289.1c0,0.3,0,0.6,0,0.9c-2.3-0.2-4.6,0.4-6.8-0.8c0.4-0.1,0.7-0.2,1.1-0.4
		C186.2,287.7,188.2,287.5,190,289.1z"/>
	<path fill="#FEF5E0" d="M190,289.1c-1.9-0.1-3.8-0.2-5.7-0.2c-5-1.1-10-1.1-15.1-1c-11-2.1-22.1-2-33.2-2.9c0-0.3-0.1-0.6-0.1-0.8
		c1.6-2.1,3.9-1.6,6-1.5c9.4,0.4,18.6,3,28.1,1.7c1.7-0.2,3.7,0.2,5,1.7c11.9,0.5,23.7,0.9,35.5,2.7c2.7,0.4,6.9,0.5,3.5,5.3
		c-0.4,0.3-0.7,0.4-1.2,0.1c-0.3-0.4-0.2-0.8,0.1-1.1c-0.2-4.5-3.6-2.6-5.9-3C201.4,289.6,195.7,288.8,190,289.1z"/>
	<path fill="#FBFDFD" d="M124,275c0,1,0,2,0,3c-0.4,3.5-3.4,3-5.6,3.4c-2.7,0.5-5.5,0.1-8.3,0.2c-3.5-0.4-7.5,1.2-10.1-2.6
		c-0.1-0.3-0.1-0.6-0.1-0.9c-1-3.6-1.2-7.4-2-11.1c0-0.3,0-0.7,0-1c-1.1-5.9-0.3-11.9-0.4-17.8c0-1.7,1-3.1,2.4-4.2
		c3,5.9,2.2,12,1,18.1c-1,4.8-0.9,9.6,2,13.9c4,0.6,7.6,0.2,11.4-1.7C117.4,272.9,121,272.5,124,275z"/>
	<path fill="#FDFBF6" d="M175,286c-13.1,0-26-2.9-39.1-1.9c-0.6,0-1.3,0-1.9-0.1c-0.3-0.5-0.3-1,0-1.5c0.6-0.6,1.4-0.9,2.2-0.9
		c2.9-0.3,5.9-1.4,8.8,0.4c3.2-0.1,6.2,0.2,9.3,1.2c4,1.3,8.1,1.2,12.1-0.3C170,281.6,173.2,281.9,175,286z"/>
	<path fill="#FDF3DF" d="M134,283c0,0.3,0,0.7,0,1c-10.1,0.4-20-1.4-30-2c-2-0.1-3.5-0.8-3.9-3c3.1,1.7,6.4,2.5,9.9,2.1
		c6.6-0.5,13.2-1,19.8-0.2C131.4,281,133,281.4,134,283z"/>
	<path fill="#FDF7E6" d="M98,267c1.6,3.5,2.1,7.2,2,11.1c-1.4-2.5-1.7-5.2-2-7.9C98,269.1,98,268,98,267z"/>
	<path fill="#FEFCF8" d="M340,208c1.9-0.1,3.4,0.8,5.1,1.5c2.1,1,5.9,1.1,1.1,4.1c-1,0.6,0.3,1.7,0.8,2.4c-0.7,0.6-1.4,0.6-2.1,0.1
		c-0.3,0-0.6,0-0.9-0.1c-1.7-0.9-3.6-0.4-5.4-0.4c-18,0-35.9-0.1-53.9,0c-3.9,0-5.3-1.1-5.3-5.1c0.2-10.3,0.2-20.6,0-30.9
		c-0.1-4.2,1.7-5.5,5.6-5.5c41.1,0,82.2,0,123.3,0.1c5.5,0,6.1,0.8,6.1,6.5c0,7.2,0.1,14.3-0.1,21.5c0,1.4,1.2,3.5-1.4,4
		c-1.3-0.9-2-2.2-1.9-3.8c0.1-5.5-0.5-11,0.5-16.4c1.3-7.2,0.1-8.7-7.2-8.7c-34.5,0-69,0-103.4,0c-4.3,0-8.6,0.3-12.9-0.6
		c-2.7-0.6-4.4,0.1-2.9,3.5c0.9,2.1,1.3,4.5-2.2,4.4c-1.9,0-1.1,1.1-1.1,1.9c0.1,4,0.7,8.1,0.1,12c-0.9,5.5,3.8,9.3,3.4,14.7
		c-0.1,1.9,2.7,1.2,4.3,1.2c13.5,0.1,27,0,40.5,0c1-1.9,2.7-1.9,4.5-2.1C337.1,211.7,339.2,210.8,340,208z"/>
	<path fill="#FDF4DF" d="M413,206c2-9.2,0.7-18.5,0.7-27.8c0-1.7-1.6-2.5-3.1-2.7c-2.1-0.3-4.3-0.5-6.4-0.5c-38.5,0-76.9,0-115.4,0
		c-8.5,0-8.8,0.3-8.8,8.6c0,8,0,16,0,24c0,7.1,0.3,7.4,7.2,7.4c16.8,0,33.6,0,50.4,0c2.1,0,4.4-0.4,6.3,0.9c-20.3,0-40.6,0-60.9,0.1
		c-3.2,0-4.4-1.2-4.4-4.4c0.1-11,0.2-22,0-33c-0.1-4.1,1.5-5.5,5.6-5.5c19.3,0.1,38.6,0,57.9,0c21.8,0,43.6,0,65.4,0
		c7.6,0,7.6,0.1,7.6,7.4c0,6.7-0.2,13.3,0,20c0.2,4.5-0.6,8.5-3.3,12.1c-1.2,1.1-2,2.8-3.7,3.4c-0.8-0.4-1.1-1.1-1.2-2
		c0-2.1,1.5-2.8,3.1-3.3C411,209.3,412,207.7,413,206z"/>
	<path fill="#FCECC9" d="M344.9,216.1c0.7,0,1.4-0.1,2.1-0.1c0,0,0,0,0,0c0.8,0.7,0.8,1.6,0.5,2.5c-0.1,0.5-0.2,0.9-0.3,1.4
		c-0.4,3.1-2.8,4.2-5.3,5.1l0,0c-0.6,0.9-1.2,1.9-2.7,1.5c-0.4-0.2-0.6-0.6-0.7-1.1c0.2-0.7,0.6-1.2,1.3-1.4
		C342.4,221.8,345.2,219.9,344.9,216.1z"/>
	<path fill="#E78836" d="M340,224.1c-0.4,0.6-0.8,1.2-1.2,1.8c0,2.4-1.1,3.7-3.6,3.3c-0.1-0.7-0.1-1.4-0.2-2.2
		c-0.1-0.9,0.1-1.5,1-1.9c1.4-1,2.7-2,4.1-3C340.1,222.8,340,223.4,340,224.1z"/>
	<path fill="#FDEDD0" d="M400.1,226c-1,2.5-2.9,4.3-5,6c-0.4,0.3-0.9,0.3-1.3,0c0.2-3.3,1.9-5.5,5-6.6
		C399.3,225.5,399.8,225.7,400.1,226z"/>
	<path fill="#FDF3DB" d="M400.1,226c-0.4,0-0.8-0.1-1.2-0.1c-0.5-2.4-0.5-4.6,2.2-5.8c0.7-0.3,1.5-0.4,2.2-0.1
		c0.5,0.2,0.8,0.6,1,1.1C403.2,223,402.2,225,400.1,226z"/>
	<path fill="#FCE6C8" d="M394,232c0.4,0,0.8,0,1.2,0.1c-0.2,0.6-0.3,1.2-0.5,1.8c-1.5,1.5-2.9,2.9-4.4,4.4c-0.4-0.2-0.8-0.5-0.9-0.9
		C389.5,234.3,392.2,233.6,394,232z"/>
	<path fill="#F8DDB6" d="M407.9,217c-0.5,1.9-1.7,3.3-3.5,4.2c-0.3,0-0.5,0-0.7-0.1c-0.6-1.6,0.4-2.7,1.1-3.9
		c0.3-0.4,0.7-0.6,1.2-0.8C406.7,216.2,407.3,216.4,407.9,217z"/>
	<path fill="#FCF5E6" d="M407.9,217c-0.6,0-1.2,0.1-1.8,0.1c-1.1-2.1-1.4-3.7,1.9-3.1c0,0.8,0.1,1.5,0.1,2.3
		C408.2,216.5,408.1,216.8,407.9,217z"/>
	<path fill="#FA7700" d="M271,225c-0.7,0-1.3,0-2,0c0-1,0-2,0-3C270.5,222.4,271,223.6,271,225z"/>
	<path fill="#FCFEFE" d="M183,183c-4.3-0.1-9.1,1.2-11.8-4.1c-0.5-1.1-2.1-0.8-3.2-0.9c-2.4,1.8-4.9-0.3-7.3,0.2
		c-0.9-0.4-1.6-1.1-1.7-2.2c1.9-2,4.5-2,7-2c5.5-0.9,11.1-0.5,16.7-0.8c2.5-0.2,5-0.2,7.3-1.3l0,0c5.5,1.7,11.4,1,17,2.1l0,0
		c0.6,1.7-0.3,2.6-1.6,3.2c-3.2,0.1-6.3,0.2-8.4,3.2c-0.9,1.2-2.4,1-3.7,1C189.6,180.6,186.5,183.3,183,183z"/>
	<path fill="#F9FDFB" d="M159,176c0.7,0.3,1.3,0.7,2,1c1.1,1.3,3.5,0.9,4,3c-0.2,2.3-1.6,3.2-3.7,2.9c-4-0.7-8.2-0.8-11.4-3.9
		C152.6,176.6,155.6,175.8,159,176z"/>
	<path fill="#FDFBF3" d="M190,171.9c-1.7,3.8-4.9,3.9-8.3,3.5c-5.2-0.6-10.4-1.8-15.7-1.4c7.3-1.2,14.5-3.5,22-3
		C188.7,171.3,189.3,171.6,190,171.9z"/>
	<path fill="#FEFCF8" d="M205,176c0.7-0.7,1.3-1.3,2-2c5.7,0.3,10.4,4,15.9,5.1c2.4,1.6,4.8,3.2,7.2,4.9c-0.7,0-1.3,0-2,0
		c-4.4,1.1-8.5,0.7-11.9-2.5c-3.6-3.3-6.8-0.1-10.1,0.5c0,0.3,0,0.7,0,1c-2.4,1.5-5,2-7.8,1c-2.8-3-0.7-4.7,1.7-6.1
		C201.5,176.9,203.5,177.1,205,176z"/>
	<path fill="#FDFBF3" d="M207,174c-5.7-0.7-11.7,1.7-17-2.1C195.8,171.3,201.4,172.9,207,174z"/>
	<path fill="#FCFDFC" d="M265.7,225.2c0.1,0.9,0.2,1.8,0.3,2.7c-3.8-0.8-7.5-2.9-11.6-1.7c-0.9,0.3-1.9,0-1.9-1
		c-0.1-1.9,0.6-3.6,1.7-5.1c0.7-0.9,1.7-0.9,2.5,0.1c0.5,0.6,0.6,1.6,1.7,1.4c1.9-2.9,1.4-5.6-1.6-7.1c-3.1-1.5-4.6,1.4-6.3,3.3
		c-0.9,1-0.8,3.7-2.7,2.8c-1.6-0.8-1.8-3.1-0.9-4.9c2-4.1,2.9-8,0.1-12.1c-0.8-1.2-1.4-2.2-3-2.1c-1.9,0-1.4,1.4-1.4,2.5
		c-0.1,1.5-1.2,2.1-2.4,2.1c-4.1,0-8.2-0.2-12.3-0.4c-0.9,0-1.5-0.7-1.5-1.7c0-1.3,0.9-1.6,2-1.6c0.3,0,0.7,0.1,1,0.1
		c2.6,0.1,6,0.6,7.7-0.3c3.5-1.9-3.1-3.6-1.2-6.3c0.6-0.7,0.8-1.6,1.3-2.3c0.6-1.1,1.5-1.7,2.7-1.8c0.6,0.1,1.2,0.1,1.8,0.2
		c6.9,5.2,11,13,16.9,19.1C260.9,216,262.7,220.9,265.7,225.2z"/>
	<path fill="#FBFDFD" d="M238,195c-0.7,0.3-1.3,0.7-2,1c-1-1-2-2-3-3c-0.2-0.2-0.4-0.4-0.6-0.6c0.2,0.2,0.4,0.4,0.6,0.6
		c-0.1,0.1-0.2,0.3-0.4,0.3c-2.1,0.4-3.8,4.7-5.4,2.3c-1.5-2.3-2.5-6.5,1.1-9.2c0.7-0.6,1.1-1.6,1.7-2.4c3.6,0.5,5,3.6,7.1,5.9
		C237.6,191.6,238.2,193.2,238,195z"/>
	<path fill="#F1FDFE" d="M238,195c-2.2-1.3-3.2-2.9-0.9-5c1.3,0.2,2.3,0.9,3,2C239.8,193.3,239.2,194.3,238,195z"/>
	<path fill="#FDF1DB" d="M385.1,244.2c-3.2,4.6-6.8,9-10.8,12.9c-0.5,0.3-1,0.4-1.4,0c-0.7-4.7,2.4-7.7,5.5-10
		c2-1.5,3.5-2.8,4.1-5.2c0.7-2.8,2.3-4.3,5.4-3.4C389,241.5,385.3,242,385.1,244.2z"/>
	<path fill="#FDEDCF" d="M372.9,257c0.4,0.1,0.9,0.1,1.3,0.2c-0.8,1.3-1.5,2.5-2.3,3.8c-3.9,2.5-5.2,7.7-9.8,9.3
		c-1-0.7-1-1.6-0.6-2.6c2-2.1,3.8-4.2,5.4-6.6C369.5,260.5,369.8,256.6,372.9,257z"/>
	<path fill="#FCE6C8" d="M385.1,244.2c-0.1-2.3,2-3.5,2.9-5.3c-0.1-1.4,0.7-1.5,1.8-1.2c0.2,0.2,0.3,0.3,0.5,0.5
		C389.2,240.8,387.1,242.5,385.1,244.2z"/>
	<path fill="#FDFDFA" d="M389.7,237.7c-0.6,0.4-1.2,0.8-1.8,1.2c-5,1.6-6.6,6.6-9.3,10.2c-1.9,2.5-3.9,5.1-5.7,7.8
		c-1.6,1.7-3.3,3.4-4.9,5c-2.3,1.5-3.2,4.1-5,6c-0.3,0.8-0.6,1.5-0.8,2.3c0,0.3,0,0.5-0.2,0.8c-0.7,0-1.3,0-2,0c-1.6-1.4-2.2-3-1-5
		c1.5-1,1.3-2.9,2.1-4.2c1.3-2.1,2.9-4,5.9-2.8c1.7-0.5,3.5-1.3,2.8-3.3c-0.6-1.9-2.8-2-4.3-1.4c-4.1,1.5-9,2.3-8.6,8.5
		c0.1,1.1-0.1,2.6-1.7,2.6c-1.7,0-2-1.5-2.2-2.8c-1-6.3,5.7-12.9,12.1-11.7c2.9,0.5,5.1,1.8,4.8-3.4c-0.3-5.5,2.6-10.5,6.1-14.9
		c0.8-1,1.7-1.6,3-1.1c1.3,0.5,1.4,1.6,1.3,2.9c-0.2,2.6-1.9,4.5-3.2,6.6c-0.8,1.2-1.5,2.7-0.4,4.2c0.6,0.7,1.5,0.8,2.3,0.5
		c1.4-0.5,2.2-1.7,2.2-3c-0.2-3.6,1.4-5.2,4.9-6.2c3.6-1,5.9-4.1,7.4-7.6c0.6-1.3,0.5-2.9,2.5-3.3c1.6-0.4,1.3-1.8,0.6-2.8
		c-0.8-1.2-1.2-2.9-3.1-2.7c-1.1,0.1-2,2.6-3.2,0.4c-0.8-1.5,0.5-2.8,1.6-3.8c0.6-0.6,1.3-1,2-1.5c3.6,0.1,5.9,2.6,8.4,4.7
		c0.1,0.5,0,0.9-0.4,1.3c-1.6,1.3-2.2,3.2-3.1,4.9c-2.3,1.5-3.9,3.6-4.9,6.1C392.6,233.9,391.1,235.8,389.7,237.7z"/>
	<path fill="#FDF7E6" d="M100,244c-3.6,7.1-1.4,14.7-2,22c-1.6-8.7-2-17.4,1-26C100.6,241,99.4,242.7,100,244L100,244z"/>
	<path fill="#F7FDFB" d="M100,244c-1-1.2-1-2.6-1-4c0-1.7,0.2-3.4,1-5C104,238,100.5,241,100,244z"/>
	<path fill="#FAF3DE" d="M154.1,215.9c1.8,1.7,5.2,3.4,0,5.1c0-0.3,0-0.7,0-1c1.4-3.3-2-2.6-3.2-3.8
		C151.8,215.2,152.9,215.4,154.1,215.9z"/>
	<path fill="#FCFCF7" d="M157.1,335.9c2.2-1.8,5.8,1.9,7.5-1.8c-0.1-1.5-1.1-0.9-1.8-0.7c-1.1,0.3-2.1-0.1-2.2-1.3
		c-0.1-0.7,0-1.7,0.5-2.3c0.6-1,2-1,2.7-0.4c5.7,5.7,13.2,3.8,19.8,5.5c5.4,1.4,10.6,1.6,16,2.2c3.5,0.4,6.2-2.3,9.6-2
		c-5.8,5-13.1,3.7-19.9,4.7c-7.8,1.2-15.5-1-23.3-0.7c-0.3,0-0.6-0.1-0.8-0.2C162.8,336.8,159.7,336.9,157.1,335.9z"/>
	<path fill="#FBFDFC" d="M123,197c1.7,5.7,3.9,7.1,9.8,6c2.7-0.5,5.4-1.5,8.2,0c1.6,0.4,2.6,1.4,3,3c1.5,1.2,3.2,1.6,5,2
		c0.3-0.4,0.7-0.3,1,0c-0.3,1-0.7,2-1,3c-2.6,0.3-4.7,2.7-7.7,1.5c-0.7-2,3.6-1.9,1.9-4.2c-1.5-2-3.4-0.8-5.1-0.4
		c-2.6,0.6-5,1.6-7.6,2.4c-2.5,0.7-4.8,1.1-6.6-1.6c-1.7-2.7-3.4-0.3-5.1,0.3c-1.3,0.5-3,1.8-3.9-0.1c-0.7-1.5,1.1-2.2,2.3-2.8
		c1.2-0.6,2.6-1.1,2-2.9c-1-2.8,1.5-3.7,2.8-5.2C122.3,197.7,122.7,197.3,123,197z"/>
	<path fill="#FEF9EB" d="M154.1,215.9c-1.1,0.1-2.2,0.1-3.3,0.2c-0.9-0.1-1.9-0.2-2.8-0.2c-2.3-0.6-4.7-1.2-7-1.9
		c4.4-0.2,8.7,0,13,1C154,215.3,154,215.6,154.1,215.9z"/>
	<path fill="#FBFDFC" d="M133,190c4.2,0.2,5.1,3.6,5.5,6.5c0.3,2.7-2.5,4.1-5,4.7c-2.2,0.5-5.2,1.9-3.3-2.9c0.8-2.1-4-1.5-3.1-4.4
		C129,192.7,131,191.3,133,190z"/>
	<path fill="#FDFDFC" d="M138,301c0.3,0.4,0.6,0.8,1,1.1c0.9,1.1,3.3,0.8,3.1,2.7c-0.2,1.9-2.7,0.7-3.8,2.2c1.4,2.7,4.7,2.4,6.7,4
		c-1.4,1.1-1.7,2.4-1,4c1.1,3.5,0.4,6.8-1,10c-0.5-2.1-1.7-3.4-3.9-2.3c-2.6,1.4-4.8,0.1-7.1-0.8c-0.8-1.5-1.7-2.9-3-4
		c-1.5-0.8-3.2-1-4.9-1c-0.1-0.3-0.2-0.6-0.2-0.9c0-0.2,0-0.5-0.1-0.7c-2.9-4.1,1.4-6.8,1.9-10.2c2.8-1.6,6-2.4,8.7-4.2
		C135.4,300.3,136.8,299.6,138,301z"/>
	<path fill="#F9FBF8" d="M129,318c1.4,1,6.5-0.7,3,4C130,321.4,129.4,319.8,129,318z"/>
	<path fill="#FCFCF7" d="M144,328c2.2,0,4.5-0.3,6,2C148,329.3,146,328.7,144,328z"/>
	<path fill="#FA7600" d="M283.4,220.2c3.2-1.7,6.2-0.1,9.3-0.1c9.1-0.2,18.3-0.1,27.5-0.1c1.5,0,3,0,4.5,0.2
		c1.3,0.2,2.9,0.6,2.7,2.3c-0.2,1.4-1.7,1.4-2.9,1.4c-10.8,0-21.6,0-32.4,0C288.6,223.9,286.8,220.3,283.4,220.2z"/>
	<path fill="#FB7700" d="M321,236c-1.3,1-2.7,2-4,3c-0.5,2.1-2.4,2.3-4,3c-3.2-0.9-3.1-2.5-0.8-4.4c1.4-1.1,3-2,3.8-3.6v0
		c2.2-0.2,2.7-5.1,6-2C323.1,233.7,322.1,234.9,321,236z"/>
	<path fill="#F4780A" d="M321,236c0.3-1.3,0.7-2.7,1-4c1.4-0.5,3.3-1.4,3.7,0.7c0.7,3.7,2.9,1.3,4.5,1.4c0.3,0.4,0.4,0.9,0.3,1.4
		c-1.3,2.2-2.6,4.3-5.5,4.4c-0.7,0.4-1.3,0.7-2,1.1C323.5,238.9,324.3,236.6,321,236z"/>
	<path fill="#F57807" d="M291,255c-0.3,0.7-0.7,1.3-1,2c-3.3-1.5-3.3-2,0-5c0.2-0.5,0.4-0.9,0.6-1.4c0.7-1.8,0.6-4.1,3.2-4.4
		c1.1-0.1,2.2,0.2,2.4,1.3c0.4,2.5-1.7,3.3-3.2,4.5C292,252.8,291.8,254.1,291,255z"/>
	<path fill="#F87906" d="M297,264c-1.1-0.7-1.8-1.7-2-3c1.5-2.1,3.3-3.8,6-4c0.7-0.6,1.3-0.6,2,0C300.8,259.2,299.7,262.2,297,264z"
		/>
	<path fill="#F87906" d="M312.1,254.1c-0.8,2.7-3,4.3-5,6c-0.4,0.3-0.7,0.3-1,0c3.7-2.8,1-7.9,4-11.4
		C311.2,250.5,309.6,253.1,312.1,254.1z"/>
	<path fill="#FD7600" d="M336,225.1c-0.3,0.6-0.7,1.3-1,1.9c-1.1,0.3-2.1,0.6-3.8,1c1.3-2.4-0.5-5.7,2.7-6.5
		C336.1,221,335.8,223.6,336,225.1z"/>
	<path fill="#F37808" d="M303,257c-0.7,0-1.3,0-2,0c0-0.2,0-0.3,0-0.5c0.1-2.1-0.2-4.4,2.2-5.7c0.8-0.5,1.7-0.2,2.1,0.6
		C306.6,254.1,303.8,255.1,303,257z"/>
	<path fill="#FCE9CA" d="M330,235c0.1-0.3,0.2-0.6,0.2-0.9c0.3,0,0.5,0,0.7-0.2c1.3-1.7,2.3-3.7,4.3-4.7c0,0,0,0,0,0
		c1.2-1.1,2.4-2.2,3.6-3.3c0.1,0.1,0.3,0.3,0.4,0.4c0.6,5.3-3.3,8-6.5,11c-1,0.3-2,0.6-3-0.1C329.3,236.4,329.4,235.7,330,235z"/>
	<path fill="#F47A03" d="M290,252c-1,1.7-2.7,3.3,0,5c-0.5,1.5-0.6,3.9-2.8,3.2c-2.1-0.7-0.6-2.8-0.4-4.3
		C287.1,254,287.8,252.4,290,252z"/>
	<path fill="#F47A05" d="M282,241c0.3-1,0.7-2,1-3c1.1,0.3,1.2,1.5,2,2c-0.3,1.7-0.7,3.3-1,5c-1.1,0.4-2.4,1.7-3.1,0.9
		C279.4,244.1,282.1,242.8,282,241z"/>
	<path fill="#EC7C05" d="M316,234c-1.5,0-3.3,1.6-4.3-0.8c-0.4-0.8,0-1.8,0.7-2.2C316,229,315.7,231.9,316,234
		C316,234,316,234,316,234z"/>
	<path fill="#F7760A" d="M313,242c0.4-2.2,1.9-3,4-3C318.2,243.4,316.1,243.4,313,242z"/>
	<path fill="#F07A08" d="M285,240c-1.1-0.3-1.7-1-2-2c0-1.3,0-2.7,0-4C286.7,235,284.3,238,285,240z"/>
	<path fill="#E48B35" d="M335.2,229.2c-1.1,1.9-2.1,3.9-4.3,4.7C331.1,231.2,332.3,229.4,335.2,229.2z"/>
	<path fill="#EF7C0D" d="M306,260c0.3,0,0.7,0,1,0c-0.6,2-2.5,2.9-4,4C302,261.2,304.5,261,306,260z"/>
	<path fill="#F87906" d="M291,255c0-1.4,0.5-2.6,2-3C292.8,253.3,292.2,254.3,291,255z"/>
	<path fill="#F9FCF9" d="M209.2,335.2c-3.9-2.2-8.1-0.7-12.2-1.2c-1.2-0.1-3.2,0.3-3.2-1.5c0-1.7,1.9-1.3,3.2-1.5
		c7.7-1.4,15.4-0.6,23,1c-2.2,2.2-5.6,2.2-8.1,3.8C211,335.6,210.1,335.4,209.2,335.2z"/>
	<path fill="#FEFCF8" d="M138,301c-0.9,0.3-2.6,0.4-2.7,0.9c-1.5,5.3-5.7,4-9.3,4.1c-0.3,0.4-0.7,0.8-1.1,1.1
		c-1.5,0.5-3,0.4-4.5,0.4c-0.2,0.3-1.5-0.6-0.7,0.6c0.6,0.9,1.4,1.7,1.1,3c-0.2,0.4-0.4,0.8-0.8,1.1c-2.2-1.5-4.1-3.4-5.6-5.7
		c-0.9-1.3-2.9-2.5-2.1-4.2c0.8-1.8,3-1,4.5-1.2c9.1-1.1,18.3-0.7,27.2-2.9c2.6-0.1,5.2-0.2,7.8-0.3c10.2-0.7,20.5-0.8,30.7-1.9
		c0.6,0,1.2,0.1,1.9,0.3c1.3,0.6,2.4,1.4,1.9,3c-0.4,1.5-1.8,1.2-2.9,1.2c-3.4-0.2-6.9,0.6-10.4-0.5h0c-2.7-1.2-5.5-0.6-7.6,0.6
		c-3.7,2.1-8,1.7-11.7,3.9c-2.3,1.4-5.5,1.1-7.7-1.5C143.5,301.6,140.9,300.6,138,301z"/>
	<path fill="#FDFDFC" d="M120,312.1c0-0.4,0-0.7,0-1.1c4.3-0.7,3.5,2.7,4,5c0,0-0.1,0.1-0.1,0.1C121.8,315.5,120.5,314.2,120,312.1z
		"/>
	<path fill="#FDFDFC" d="M146,303c3.2-0.1,6.2-1.7,9-2.2c5.7-1.1,12-3.2,18-0.8c-2.4-0.1-4.6,0.6-6.8,1.4c-0.1,2.4,3.6,1.2,3,3.1
		c-0.6,2.2-3.3,3-5,3.6c-5.6,1.8-11.4,1.8-16.7-1.6C146.3,305.7,146.1,304.4,146,303z"/>
	<path fill="#FAFEFE" d="M145,282c-2.8,1.7-6,0.7-9,1c-1-0.8-3.5-0.5-3-2.5c0.7-2.8,3.2-1.2,5-1.5c2.9-0.3,5.7-0.9,7-4
		c3.3-2.3,6.7-2.3,10,0c3.8,0,7.6,0.1,11.3-0.7c1.8-0.4,3.4,0.5,3.3,2.6c-0.2,2.1-2,2.3-3.4,1.8C158.5,275.9,152.1,281.2,145,282z"
		/>
	<path fill="#FDFDF9" d="M155,275c-3.3,0-6.7,0-10,0c-4.6,0-9-1.6-14.3-1c3-4.4,6.7-4.3,10.2-3.9c4.1,0.5,8,2.1,12.2,1.9
		C155.1,272,155.8,273.1,155,275z"/>
	<path fill="#FBFDFD" d="M206,182c4.8-6.3,6.5-6.8,12.1-1.7c3,2.7,6.3,3.2,9.9,3.7c-4,2.6-8.2,2.4-12,0.2
		C212.8,182.4,209.1,183.8,206,182z"/>
	<path fill="#FDFDF8" d="M138,279c-0.3,1.5-6.8-0.1-2,4c-0.7,0-1.4,0-2,0c-8-0.7-16-1.3-24-2c4.4-2.1,9.8,0,14-3
		C128.6,279,133.5,275.9,138,279z"/>
	<path fill="#F8FEF6" d="M184,297c-0.3,0-0.7,0-1,0c0-1.9,1.4-1.5,2.5-1.5c9.2-0.1,18.4-0.5,27.6-1.5c0.3,0,0.7,0,1,0
		c1.3,1.7,5.5,0,5,2.7c-0.5,2.5-4,1.3-6.2,1.3c-6.6-0.1-13.2-0.6-19.8-0.9C190,300.6,187,298.1,184,297z"/>
	<path fill="#FDFDFC" d="M179.3,309c-2.2-0.1-4.9,0.5-6.3-2.3c-0.5-0.9-0.7-2.1,0.2-2.7c2.5-1.7,5-1.1,7.4,0.4
		c0.4,0.2,0.9,0.4,1.4,0.5c1.4,0.4,3.4,0.7,3.1,2.5c-0.3,2.4-2.6,1.3-4.1,1.6C180.6,309.1,180.1,309,179.3,309z"/>
	<path fill="#FEFEF9" d="M124,275c-5-0.6-9.7,0.8-14.4,2.3c-2.4,0.8-4.8,1.3-6.6-1.3c0.3-0.3,0.7-0.7,1-1c2.3-2.3,4.7-1.9,7,0
		c2.7-2.8,6.2-3.1,9.9-3.1C123.4,271.8,124.1,272.8,124,275z"/>
	<path fill="#F8FDFD" d="M249,310c-0.7,0.7-1.3,1.3-2,2c-0.8,1.1-1.5,2.7-3.3,2.3c-1.6-0.4-2.4-1.5-1.7-3.3c2-2.1,4.2-3.9,5-6.9
		c0.6-2.4,2.2-2.5,4-1.1c0,0.3,0,0.7,0,1C249.8,305.8,249.8,308,249,310z"/>
	<path fill="#FDFDFC" d="M184,297c3,0,6,0,9,0c-0.1,2-0.8,3.8-3,3.8c-5.7,0-11.4,1.2-17-0.8c3.3,0,6.5,0,9.8,0
		C185.4,299.9,185.7,298.8,184,297z"/>
	<path fill="#FCFEFE" d="M198,183c2.7,0,5.3,0,8,0c-2.6,2.7-10.1,4.1-13.2,2.5c-1.1-0.6-1.1-1.5-0.8-2.5c0.3-0.5,0.7-0.9,1.3-1.1
		C195.1,181.2,196.7,181.5,198,183z"/>
	<path fill="#FDFCF9" d="M242,311c1.2,2.5,2.9,2.7,5,1c0,0.6,0,1.3,0,1.9c-0.7,0.7-1.4,1.3-2,2c-2.1,0.6-2.6,2.6-4,4
		c-0.3,0.1-0.6,0.1-0.9,0.2c1.2-2.9-3.5-4.1-2-7.1C239.3,312.3,240.7,311.7,242,311z"/>
	<path fill="#FEFCF8" d="M193,183c-0.3,0-0.7,0-1,0c-1.7,0.4-3.4,0.7-5.1,1.2c-1.6,0.4-3.1,1-3.9-1.2c2.8-2.8,6.3-3.3,10-3
		C193.8,181,193.8,182,193,183z"/>
	<path fill="#FEFDF8" d="M229,308c0.2,3.4,5.3,3.3,5,7c-4.9,1.7-5.4-3.1-7.4-5.3C225.8,308.7,227.4,307.5,229,308z"/>
	<path fill="#FBFDFD" d="M111,275c-2.3,0-4.7,0-7,0c-0.7-2.5,0.9-2.8,2.7-3C108.9,271.9,110.8,272.2,111,275z"/>
	<path fill="#FDFBF5" d="M165,180c-2.1,0-3.9-0.4-4-3c2.6-1.5,4.7,0.8,7,1C167.6,179.5,166.4,180,165,180z"/>
	<path fill="#FDFBF5" d="M156.6,183.5c-2.1,2.3-3.9,2.6-5.8,1.7c-0.6-0.3-1.1-1.1-0.5-1.5C152,182.5,153.9,183.1,156.6,183.5z"/>
	<path fill="#FDFCF9" d="M247.8,297.2c-0.3-0.7-0.4-0.9-0.4-1c0.9-1.8,0.9-4.2,3.3-5c0.2-0.1,0.9,0.6,0.9,0.9
		C251.7,294.6,249.4,295.4,247.8,297.2z"/>
	<path fill="#FEFDF7" d="M150,208c-0.3,0-0.7,0-1,0c0.4-1.2,1.1-2,2.2-2.5c1.1-0.4,2.3-0.6,3.3,0.2c0.3,0.2,0.6,0.9,0.5,1.2
		c-0.6,1.4-1.9,0.9-3,1C151.3,208.1,150.7,208,150,208z"/>
	<path fill="#FEFDF9" d="M144,206c-1.7-0.3-2.7-1.3-3-3c1.1-0.8,2.3-1.3,3.3,0C145.2,204,144.7,205.1,144,206z"/>
	<path fill="#FDFBF7" d="M144,315c-1.1-0.4-2.3-0.9-2.1-2.3c0.2-1.8,1.8-1.5,3.1-1.7C145,312.4,145,313.8,144,315z"/>
	<path fill="#FDFCF9" d="M256,301c-0.5,2.3-2.7,1.2-4,2C252.1,299.8,254.2,300.6,256,301z"/>
	<path fill="#FDFBF6" d="M162,280c0.5-0.2,0.9-0.4,1.3-0.4c0.2,0,0.4,0.4,0.6,0.7c-0.4,0.2-0.8,0.5-1.2,0.5
		C162.6,280.8,162.3,280.4,162,280z"/>
	<path fill="#FDF6E9" d="M241,319.9c0.9-1.7,0.1-5.1,4-3.9C244,317.6,242.7,319,241,319.9z"/>
	<path fill="#FDFCF9" d="M249,310c0-2.2,0.3-4.3,2-6C250.9,306.2,250.4,308.2,249,310z"/>
	<path fill="#F47A05" d="M280.1,254.6c-0.6,1.9,0.9,4.5-2.4,4.7c-2.1,0.1-2.8-1.1-2.8-3.1c0.1-2.5,0.8-5,3.4-5.3
		C280.9,250.8,279.3,253.6,280.1,254.6z"/>
	<path fill="#FDFDFB" d="M332.1,236c2.3-3.3,6-5.7,7.2-9.8c0.9-0.4,1.8-0.8,2.7-1.3c-2.3,5.9,1.4,16.4,6.9,19.7
		c1,0.6,2.1,1.1,2.9,1.8c1.4,1.3,1.5,3.1,0.1,4.4c-1.5,1.3-2-0.8-3-1.2c-5.9-2.3-6.2-9.4-10.9-12.7c-1.1-0.4-1.4-0.1-1,1
		c1.8,2.8,0.6,6.7-3.4,8.3c-3.5,1.4-6,2.7-4.8,7.1c0.3,1.2-0.6,2.3-1.9,2.4c-1.4,0.2-2.2-0.3-1.8-2c0.4-1.8-1.1-1.8-2.2-1.9
		c-1.7-0.1-1.5,1.3-1.9,2.4c-2.2,7-5.8,12.6-13.9,13.7c7-2.1,6.7-9.3,10-14c-0.3-2.5,2-3.9,3.3-5.1
		C324.4,244.8,326.5,238.8,332.1,236z"/>
	<path fill="#FCFDF8" d="M417,301c-0.3,1.7-0.4,3.3,0.1,5c-21.8,0-43.5,0-65.3,0c-3.4,0-6.9-0.2-6.9-4.9c0-0.9-0.7-2.1,0.5-2.7
		c1.2-0.6,2.5-0.1,3,1c1.8,3.9,5.1,3.6,8.5,3.6c16,0,31.9,0,47.9,0C408.9,303,413,302.4,417,301z"/>
	<path fill="#FEFEF7" d="M328,208c-0.2,2.4-1.7,3-3.8,3c-10.4,0-20.9,0-31.3,0c-1.2,0-3.2,0.3-3-1.6c0.1-1.7,2-1.3,3.3-1.3
		C304.8,208,316.4,208,328,208L328,208z"/>
	<path fill="#FDFCFB" d="M408,214c-1.5,0.5-1.9,1.7-1.9,3.1c0,0,0,0,0,0c-0.4,0.3-0.8,0.5-1.2,0.6c-4.1,0.4-7.5-0.6-9.6-4.5
		c-0.6-1.1-0.9-2.1-0.2-3.2c-0.8-1.2-3.4-1.9-1.9-3.9c1.3-1.8,3.4-0.6,5.1-0.3c2.4,0.4,3.9,1.5,3.6,5.2c2.6-5.7,3.5-5.5,8.2,0
		C409.3,212,408.6,213,408,214z"/>
	<path fill="#F8FEFE" d="M395,210c2.6,1.9,3.2,7.6,8.7,4.4c1.1-0.6,1.1,1.6,1.3,2.6c0.1,2.1-1,3-3,3c-3.6-0.1-6.1-2.1-8-5
		C393,213.1,390.3,210.8,395,210z"/>
	<path fill="#FDFDFB" d="M348,219c0.7,2.6,2.5,5.1,0.2,7.8c-1.4,1.6,0.9,2.5,1.3,3.8c0.6,1.7,0.6,3.7-1.1,4.3
		c-2.2,0.9-1.8-1.5-2.4-2.7c-1.3-2.3,0.2-5.7-2.9-7.3c1.5-1.9,3.7-3.4,4-6l0,0C347.3,218.5,347.7,218.5,348,219z"/>
	<path fill="#F9FEFB" d="M340,208c2.9,2.5,1.8,3.9-1.2,5.1c-2.9,1.2-5.9,0.8-8.8,0.9c-1-2.1-0.4-3.4,2-3.9
		C334.7,209.5,337.3,208.7,340,208z"/>
	<path fill="#F5FDFE" d="M367,259c-3.6,1.3-3.9,6.3-8,7c0-1.3,0-2.6,0-3.9c0.1-2,0-4.2,2.5-4.8C363.5,256.8,365.8,256.4,367,259z"/>
	<path fill="#FDFDFB" d="M325.7,260.1c0.2,4-3.5,8-6.3,6.7c-0.7-0.4-1.2-1.1-1.8-1.6c2.4-2.2,4.7-4.4,7.1-6.4
		C325.1,258.4,325.6,259.4,325.7,260.1z"/>
	<path fill="#FCFDF8" d="M415.6,327c-2.4-5.2-1.6-10.3,0-15.5C415.6,316.7,415.6,321.8,415.6,327z"/>
	<path fill="#FEFDF6" d="M280,301c1.7,0.3,4.1-1.8,4.8,1.4c0.3,1.5,0.9,3.6-0.7,4.5c-1.8,1-2.6-1.4-4.1-1.9
		C278.7,303.7,279.2,302.3,280,301z"/>
	<path fill="#FCFDFB" d="M301,274c3.7-0.3,4.4-3.6,6-6c0.1,2.7,3.2,5.5,0.9,7.7C305.6,278,303.7,273.2,301,274z"/>
	<path fill="#FEFDF7" d="M334.1,303.7c-0.2,1.8-1.4,2.2-2.8,2.2c-1.2,0-2.6,0-2.6-1.6c-0.1-1.7,1.4-2.1,2.8-2.2
		C332.5,302.1,333.7,302.3,334.1,303.7z"/>
	<path fill="#F5FDFE" d="M337,238c-1.3-0.2-2.8-0.3-2.4-2.2c0.1-0.5,0.8-1.2,1.3-1.3c1.9-0.3,2,1.1,2.2,2.4
		C337.7,237.3,337.3,237.7,337,238z"/>
	<path fill="#F6FEFE" d="M280,301c0,1.3,0,2.7,0,4c-0.3,1.3,0.7,3.4-2,3c0-2.4-0.2-4.8,1-7C279.3,301,279.7,301,280,301z"/>
	<path fill="#FEFCF8" d="M347,219c0.5,3.2-0.9,5.2-4,6c-0.3,0-0.7,0-1,0C343.7,223,345.3,221,347,219z"/>
	<path fill="#FDF8EE" d="M335.3,295.4c0.4,0.5,0.9,0.9,0.9,1.2c0,0.3-0.6,0.9-0.8,0.8c-0.4-0.1-0.8-0.5-0.9-0.9
		C334.5,296.3,335,295.9,335.3,295.4z"/>
	<path fill="#FCFDF8" d="M412,297c0.7,0,1.3,0,2,0.1c-0.2,1-0.1,2.7-1.7,2.3C411,299.1,411.7,297.9,412,297z"/>
	<path fill="#FEFEF7" d="M328,208c0.8-0.9,1.2-2.4,2.8-2c0.2,0.1,0.5,0.6,0.4,0.7C330.6,208.4,329.2,207.8,328,208L328,208z"/>
	<path fill="#FDFDFA" d="M352,272c-1-0.2-2.5-0.1-2.4-1.3c0.2-1.9,1.2-0.9,1.9-0.1C351.8,271,351.9,271.5,352,272z"/>
	<path fill="#FDFDFB" d="M348.1,239.9c0.1,0.2,0.4,0.5,0.4,0.7c0,0.2-0.4,0.4-0.6,0.5c-0.1-0.2-0.4-0.5-0.4-0.7
		C347.5,240.2,347.9,240,348.1,239.9z"/>
	<path fill="#FEFCF8" d="M348,219c-0.3,0-0.7,0-1,0c0-1,0-2,0-3C348.8,216.5,348.6,217.7,348,219z"/>
	<path fill="#FDEFD5" d="M332.1,236c-5,6-10.1,12-15.1,17.9c-1.5,0.9-2.2,2.9-4.3,2.9c4.1-5.2,8.3-10.4,12.4-15.5
		c0.9-2.1,2.1-4,4.6-4.4C330.5,236.6,331.3,236.3,332.1,236z"/>
	<path fill="#E78B36" d="M329.8,236.9c-1.5,1.5-3.1,3-4.6,4.4c-0.1-0.5-0.1-0.9-0.2-1.4c1.4-1.9,2.9-3.7,5-4.9
		C329.9,235.6,329.9,236.3,329.8,236.9z"/>
	<path fill="#FDF1DA" d="M213,294c-3.4,2.2-7.2,1.9-11,2.1c-6.4,0.3-12.8-1-19.1,0.9c-10.4,0.4-20.7,1.7-31.1,0.9
		c11.1-1.7,22.3-1.9,33.5-2.8c2.9-0.2,6,0.1,8.8-1c5.3-0.4,10.6-0.7,15.8-1.1c1,0,2,0,3-0.1C213,293.3,213,293.7,213,294z"/>
	<path fill="#FCF5E6" d="M402,220c1-1,2-2,3-3c0.4,0,0.7,0.1,1.1,0.1c-0.3,1.6-1.3,2.8-2.4,3.9c-0.5,0-1.1,0-1.6,0
		C402,220.7,402,220.3,402,220z"/>
	<path fill="#FEFEFE" d="M193,183c0-1,0-2,0-3c4.3-0.5,6.9-5.8,12-4c-1.5,3.1-6.9,2.5-7,7C196.3,183,194.7,183,193,183z"/>
	<path fill="#FDF9EE" d="M233,193c-0.2,0-0.3,0-0.5,0c-1.3-0.2-2.8,0.3-3.4-1.4c-0.2-0.7,0.5-1.2,1.2-1.3
		C232.3,190,232.8,191.4,233,193C233,193,233,193,233,193z"/>
	<path fill="#FDF3DF" d="M363,268c1.2-2.4,1.4-5.6,5-6C366.9,264.5,365.4,266.6,363,268z"/>
	<path fill="#F8FDFD" d="M124,316c-1.5-1.6-1.6-4.1-4-5c-1.3-1.5-2.7-2.9-3.8-4.5c-0.9-1.1-2.2-2.7-0.7-3.9c1.1-0.9,2.5,0.3,3.4,1.2
		c0.5,0.6,0.7,1.4,1.1,2.2c1.7,1.3,3.3,1.4,5,0c0.3,0,0.7,0,1,0c0.2,0.3,0.6,0.6,0.6,0.8C125.8,309.8,124.9,312.9,124,316z"/>
	<path fill="#FDFBF7" d="M138.3,316.4c0.3,0.1,0.5,0.3,0.8,0.4c-0.2,0.2-0.3,0.6-0.5,0.7c-0.2,0.1-0.5-0.2-0.8-0.3
		C138,316.9,138.2,316.7,138.3,316.4z"/>
	<path fill="#FDFDFC" d="M125,306c-1.7,3.6-3.3,2.6-5,0C121.7,306,123.3,306,125,306z"/>
</g>
</svg>
