<?xml version="1.0" encoding="utf-8"?>
<!-- Generator: Adobe Illustrator 23.0.0, SVG Export Plug-In . SVG Version: 6.00 Build 0)  -->
<svg version="1.1" id="Слой_1" xmlns="http://www.w3.org/2000/svg" xmlns:xlink="http://www.w3.org/1999/xlink" x="0px" y="0px"
	 viewBox="0 0 512 517" enable-background="new 0 0 512 517" xml:space="preserve">
<g>
	<path fill="#FED3B3" d="M1,272c0-1,0-2,0-3c1.1-5.1,0.2-10.3,0.5-15.4c0-1.6,0-3.2,0-4.9c-0.2-23.2,8.9-43,21.8-61.5
		c4-5.7,8.6-11,13.5-16c44-43.9,87.8-88,131.9-131.7C192.8,15.6,222,3.6,256,3.3C291.7,3,321.9,15.9,347,41.1
		c43.5,43.5,86.9,86.9,130.4,130.4c16.3,16.3,27.5,35.5,33.1,57.8c1.6,6.3,1.7,12.8,1.9,19.3c0,1.6,0,3.2,0,4.9
		c0.3,4.8-0.6,9.7,0.5,14.5c0,2,0,4,0,6c-1,14.6-4.6,28.5-11.2,41.5c-5.9,11.8-13.1,22.8-22.5,32.2
		c-44.4,44.2-88.6,88.6-132.9,132.9c-24.7,24.7-54.3,37-89.3,37.1c-30.4,0.1-57.1-9.9-80.6-28.9c-2.1-1.7-4-3.6-5.8-5.5
		C125.3,438.2,80,393,34.8,347.7C19,331.8,8.7,312.8,3.3,291.2C1.7,284.9,2.3,278.3,1,272z"/>
	<path fill="#FEFEFE" d="M1,272c1.6,7.4,3,14.9,4.9,22.2c5.3,19.5,14.7,36.8,29,51.1c45.9,46.2,91.9,92.4,138.2,138.1
		c18.4,18.2,41.3,28.3,67,31.6c35.6,4.5,67.6-4.2,95.6-26.9c2.2-1.8,4.3-3.7,6.3-5.7c45.4-45.3,90.8-90.6,136-136.1
		c17.9-18,28.3-40,32.9-64.8c0.5-2.6,0.3-5.3,2-7.6c0,83.7,0,167.3,0.1,251c0,3.4-0.7,4.1-4.1,4.1c-168-0.1-336-0.1-504,0
		c-3.4,0-4.1-0.7-4.1-4.1C1,440.7,1,356.3,1,272z"/>
	<path fill="#FEFEFE" d="M512,248c-2.3-24.2-11.2-45.7-26.2-64.7c-5.1-6.4-11-12-16.8-17.8c-42.3-42.3-84.4-84.8-127-126.8
		C323.1,20,299.8,9.2,273.4,6c-41.4-5-76.7,7.6-106.1,37.1c-44.1,44.3-88.6,88.1-132.4,132.7C15.4,195.7,4.7,220.2,2,248
		c-0.3,0.6-0.6,0.6-1,0C1,167,1,86.1,0.9,5.1c0-3.2,0.3-4.2,4-4.2C173,1,341,1,509.1,0.9c3.7,0,4,1.1,4,4.2
		C513,86.1,513,167,513,248C512.7,248.6,512.3,248.6,512,248z"/>
	<path fill="#FEE0C9" d="M2,253c-0.5,5.3,1.1,10.8-1,16c0-5.3,0-10.7,0-16C1.3,252.4,1.7,252.4,2,253z"/>
	<path fill="#FEDFC8" d="M513,268c-2.2-4.9-0.5-10-1-15c0.3-0.6,0.7-0.6,1,0C513,258,513,263,513,268z"/>
	<path fill="#FEEEE3" d="M2,253c-0.3,0-0.7,0-1,0c0-1.7,0-3.3,0-5c0.3,0,0.7,0,1,0C2,249.7,2,251.3,2,253z"/>
	<path fill="#FEF0E6" d="M513,253c-0.3,0-0.7,0-1,0c0-1.7,0-3.3,0-5c0.3,0,0.6,0,1,0C513,249.7,513,251.3,513,253z"/>
	<path fill="#FEBB87" d="M255.1,453.9c-15.1-0.2-28.4-5.3-39.3-15.8c-14.4-13.9-28.3-28.2-42.5-42.3c-11.8-11.7-23.8-23.2-35.6-34.8
		c-1.3-1.3-2.4-2.7-3.6-4.1c-1.5-4.7,1.8-8.3,3-12.3c0.7-2.5,0.9-4.6,0.5-7.2c-0.9-5.5,0.5-11.2-0.8-16.8c-0.3-1.2,0.4-2.8,1.9-3.1
		c1.9-0.4,2.6,1,3.2,2.5c0.3,0.7,0.1,1.7,1.2,2.4c0.8-2.7,2.1-4.9,5.4-4.8c2,0,2-1.3,1.6-2.7c-1-3.6-0.5-7.3-0.9-10.9
		c-0.4-2.9,0.2-5,3.7-6c3.7-1,4.7-4.3,2.9-7.7c-2.4-4.6-1.2-10.4,3.2-13c2.2-1.3,1.9-2.7,1.6-4.5c-1.2-6.5-0.7-7.3,5.3-10.6
		c0.5-0.4,0.9-0.8,1.4-1.3c-0.4,0.4-0.7,0.7-1.1,1.1c-1.3,0.1-2-1-1.8-1.9c0.9-4.1-1.1-8.7,2.3-12.4c0.6-0.6,0.9-1.5,0.9-2.3
		c-0.2-7.1,4.6-11.7,8.4-16.8c0.8-1.1,2.1-1.8,0.9-3.3c-0.2-0.4-0.2-0.9-0.2-1.4c0.2-2.1,1.3-3.8,2.5-5.4c0.6-0.8,1.7-1.4,1.8-2.3
		c1.4-9,7.2-17.1,5.8-26.6c-0.4-2.7,0.2-4.8,1.5-7c2.5-4.2,3.1-9,3.7-13.8c0.3-2.2,0.8-3.8,3.1-5.1c3.2-1.8,4.6-5.6,5.4-8.9
		c2.9-11.7,5.6-23.5,9.6-34.9c0.3-0.8,0.8-1.5,0.9-2.3c2.7-13.1,10.1-24.7,12.8-37.9c0.4-2.1,2.4-3.1,3.5-4.8
		c8.6-5.5,18-7.8,28.1-7.9c2.1,2.3,1.4,5,1.4,7.6c0,36.6,0,73.3,0,109.9c0,87.1,0,174.1,0,261.2
		C256.5,448.6,257.2,451.5,255.1,453.9z"/>
	<path fill="#FEBA85" d="M166,262c-4.6,4.1-5.9,8.8-3.1,14.5c0.5,1-0.4,2.1-1.8,2.4c-5.1,1.3-6.6,6.7-3.1,10.8
		c1.5,1.8,1.4,3.7,0.2,5.5c-0.7,1.1-2,1.8-1.7,3.4c0.5,2.6-0.8,2.5-2.5,1.6c-4-2.1-3.9,0.3-3.3,3c1.1,4.6-0.3,9.5,2,14.1
		c1.2,2.4-1.6,2.7-3.5,2.1c-2.7-0.9-4.1-0.3-4.2,2.8c0,1.5,0.7,4-1.9,3.7c-1.7-0.2-2.9-2-3-4.1c-0.1-1.1,1.2-3.4-0.8-3.2
		c-2.2,0.2-1.6,3-1,4.1c2.2,3.7,0.8,7.4,0.5,11.1c0,0.3-0.3,0.7-0.2,0.9c4.2,8.5-2.9,14.7-4.6,22.1c-5.2-4.2-9.3-9.4-13.9-14.2
		c-9.3-9.7-19.3-18.7-28.8-28.2c-11.7-11.6-23.1-23.4-26.5-40.5c-4.1-20.6,0.4-38.8,14.3-54.6c12.2-13.9,26-26.2,38.9-39.3
		c12-12.2,24-24.4,36.1-36.4c13.6-13.4,27.5-26.5,40.7-40.2c7.1-7.4,14-15.1,21.9-21.7c3.2-2.7,6.4-5.3,10.3-6.8
		c-3,8.1-4.9,16.6-8.3,24.5c-4.9,11.4-8.3,23.2-11.8,35c-1.7,5.7-3.3,11.4-4.5,17.1c-0.7,3.5-0.8,6.5-3.6,9.1
		c-1.6,1.4,0.3,3.5-0.2,5.7c-4.4-2.3-4.8-0.4-5.5,3.8c-0.8,5.1-0.5,10.8-4.9,15.4c-1.5,1.5,0.1,6,0.3,9.2c0.1,0.8,0.7,2,0.4,2.4
		c-4,4.8-3.9,10.8-5,16.5c-0.9,4.7-5.6,7-6.9,11.3c2.5,0.6,4.2,2.1,1.2,3.7c-5.2,2.7-4.8,9.4-9.4,12.3c-0.9,0.6-0.3,1.8,0.3,2.7
		c1,1.3,0.6,2.9-0.4,3.6c-4.5,3.5-1.2,9-3.6,13C165,260.6,165.7,261.4,166,262z"/>
	<path fill="#FEA35E" d="M293,78.8c4.2,2.1,7.5,5.5,10.8,8.7c13.6,13.7,27,27.5,40.7,41.2c28.8,28.9,57.5,57.8,86.5,86.4
		c11.9,11.8,18.9,25.8,19.8,42.3c0.9,17.7-5.2,33.4-17.5,46.3c-12.1,12.6-24.6,24.8-36.9,37.2c-0.7,0.7-1.6,1.2-2.3,1.8
		c-2.3-2.5-2.9-6.9-7.7-6.4c-0.2,0-0.6-0.4-0.6-0.7c-0.3-6.1-4.3-11.3-4.5-17.5c-1.4,1.4-3.2,2.8-5,1.1c-2.4-2.1-4.5-5.2-3.4-8.4
		c1.4-4-0.1-7.5-0.7-11.2c-0.2-1.2-0.6-2.3-1.6-3c-2.5-1.6-3.4-4.2-3.6-6.8c-0.4-4.5-3.7-7.7-5.1-11.8c-1.2-3.8-1.5-6.9,4-9
		c-9.2-3.1-8.6-9.7-7.7-16.6c0.6-4.4-1.1-8.8-1.5-13.3c-0.2-2.6-2.5-5.2-6.6-4.2c-4.9,1.2-8.1-1.8-7.6-6.4c0.3-2.7,1.5-4.9,4.8-4.2
		c1.6,0.3,3,0.5,4.6-2.1c-3.5,3-6.1,1.9-8.4,0.1c-2.6-1.9-2.8-4.3-1-7c0.6-0.8,0.3-1.7-0.5-2.2c-3.5-2.5-3.7-7.4-7.3-9.9
		c-1.4-0.9-1.2-2.7-0.5-4.1c1.6-3.4,1.6-6.1-2.6-7.4c-1.5-0.5-2.3-1.9-2.7-3.4c-2-6.8-4.8-13.5-5.9-20.5c-0.7-4.4-2.2-8.3-3.5-12.4
		c-1.1-3.5-2.1-6.8-2.5-10.5c-0.3-3-1.2-6.3-5.9-5.5c-2.1,0.3-3.2-1.8-3.1-3.8c0.5-7.6-3.8-13.7-6.7-20.1c-2.1-4.7-4.5-9.1-5.1-14.4
		c-0.7-6.1-1.7-12.2-3.5-18.1C292.2,81.7,291.9,80.2,293,78.8z"/>
	<path fill="#FEA25B" d="M321,415.1c-6.4,6.6-11.9,14-19.1,19.7l-0.3-0.1l0.2,0.3c-2,3-5.1,4.8-7.9,6.9c-4.5-3.4-0.9-7.4-0.9-11.2
		c-1.5,0.8-1.7,2.4-2.5,3.7c-2.2,3.8-4.3,4.5-7.2,2.5c-3.5-2.4-5-7.5-2.6-9.9c1.5-1.6,2.7-3,3.4-5.2c1.5-4,4-2.2,6.4-0.1
		c1.2-4.9-0.6-9.7,1.1-14.3c1.2-3.1,1.3-5.8-1.7-8.5c-2.4-2.1-1.7-5.5-0.2-8.7c-2.6,0.2-2.7,2.3-3.7,3.4c-0.8,0.9-1.8,1.5-3.1,1.2
		c-1.4-0.3-1.9-1.3-2-2.5c-0.6-5.9,1.1-11.3,4.4-16c1.8-2.6,4.4-1.3,6.5,1c-0.2-2.9,1.3-5.1,2.5-7.5c-3.3,0-5.4,1.3-7.1,3.9
		c-1.8,2.6-4.2,4.2-7.6,1.9c-2.8-1.9-6.2,0.6-9-1.1c-0.6,1-0.2,1.6-0.2,2.2c0,1.7,0,3.9-1.8,4.2c-2.1,0.5-2.3-2-2.9-3.4
		c-1-2.5-2.3-4.8-3.3-7.3c-1-2.3-0.2-4.2,1.6-5.8c1.9-1.6,3.4-1,5.2,0.6c2.6,2.3,5.9,2,8.9,1c1.9-0.6,3.6-1.6,5.6-0.2
		c0.6-2.6-1.3-2.8-2.7-3.5c-3.6-1.7-4.1-4-1.2-6.4c2-1.7,3-4,4.7-5.7c1.5-1.5,3.3-2.7,5.4-1.6c2.3,1.2,1,3.2,0.4,4.8
		c-0.4,1.2-1.4,2.5,0.4,3.4c0.7,0.4,1.7,0.9,2.3,0.3c1.3-1.1,0.6-2.5-0.1-3.6c-1.5-2.6-1.3-5.4-1-8.3c0.3-2.5,0.1-3.9-3.5-3.3
		c-4.4,0.7-8.9-0.2-13.5,0.3c-3.8,0.4-6.9-3.8-11-5c-2.2-0.6-0.7-3.4,0.7-5c2-2.3,5-3.3,7.1-5.4c1.7-1.6,2.9-3,0.4-4.7
		c-2-1.4-3.5-5.5-6.8-2.1c-2,2.1-4.3,3-7.1,3.1c-2,0.1-3.2-0.7-3-3c0-82.4,0-164.7,0-247.1c0-2-0.5-4,0.5-5.9c4.4-0.6,8.6,1.3,13,1
		c2.4,1.3,1.6,3,0.6,4.6c-1.4,2.4-1.3,4.3,0.1,6.9c2.1,3.9,2.1,8.6,2.7,13c0.5,3.8,0.7,7.6,2.3,11.2c0.5,1.1,1,2.3,0.8,3.4
		c-1.4,6.4,2.9,11.8,3.2,17.8c0.3,6.1,2,12.1,1.6,18.2c-0.1,1.9-0.5,3.6,0.9,5.2c0.4,0.5,0.3-0.2,0.2,0.4c-1,7.2,4.9,13.7,1.9,21
		c-0.3,0.8-0.6,1.7-0.2,2.4c3,5.5,2.6,12.2,6.2,17.5c1.9,2.7,2.4,5.8,1.5,9.1c-0.9,3-0.6,5.9,0.9,8.7c0.5,0.9,1.2,1.9,1,2.8
		c-1.8,9.9,4.7,18.2,4.9,27.7c0.2,6.2-2.2,12.5,0.9,18.6c0.7,1.4-0.6,3.2-1.7,4.5c-2.6,3-1.5,5.7,1.1,7.7c5.4,4.2,3.8,10.6,5.5,16
		c0.6,2.1-2.2,2.5-3.3,3.8c1.2,1.6,2.6,2.7,4,3.9c1,1,2.1,2.3,1.4,3.5c-2.2,3.8,0.7,7.1,0.8,10.5c0.1,5.5,0.5,11.2-0.8,16.7
		c-1.1,4.2-0.7,5.1,3.7,5.9c4.8,0.9,8.4,5,8.8,9.9c0.1,1.4-0.6,2.3-1.8,2.7c-2.3,0.9-4.6,0.4-5.8-1.5c-2.3-3.5-4.1-2.3-6.7,0.4
		c5.1-0.7,8.6,2.9,13.1,3.4c2.2,0.2,2.2,3,2.4,5c0.2,2.3,0.6,4.7-0.4,6.9c-1.3,3.1-2.4,5.6,2.6,6.5c2.3,0.4,2.8,3,0.7,4.7
		c-3.6,3-3.1,5.5,0.4,7.9c0.7,0.5,1.2,1.2,1.4,2c0.6,3.1-4.4,2.1-3.8,4.9c0.5,2,3.3,3.8-0.2,5.7c-2.2,1.2-2,2.8-0.5,4.5
		c0.9,1,2.3,2.1,2.1,3.3c-0.8,4.4,1.4,5.7,5.2,6.7c2.2,0.5,2.2,3.6,0.2,4.2c-4.1,1-4.5,4-5.3,7.1C321.8,413.9,321.4,414.5,321,415.1
		z"/>
	<path fill="#FEA25C" d="M293,78.8c2.9,9.2,5,18.5,5.4,28.1c0.1,2.1,2.3,2.8,3,4.4c2.9,6.6,6.1,13,8.2,19.9c0.2,0.6,0.3,1.3,0.3,2
		c0,3.9-0.1,3.9,3.5,3.3c1.1-0.2,1.5,0.5,1.9,1.2c2.1,3.5,5,6.7,3.2,11.3c-0.2,0.4-0.3,1.1-0.1,1.4c5.3,6.4,5.1,14.7,7.2,22.1
		c1.5,5.2,4.2,10.1,4.6,15.6c0.1,1.6,0.6,2.9,2.1,2.7c2.9-0.4,4.4-0.4,4.2,3.3c-0.1,2.1,1.8,4.3-1.4,5.8c-0.9,0.4-1.1,2.1,0,2.5
		c3.6,1.2,3.8,4.8,5.5,7.3c1.4,2,2.9,3.6,6.2,3.4c-1.1,1.3-1.6,1.9-2.1,2.6c-1,1.2-3.3,1.6-2.4,3.8c0.9,2.3,3.3,2.7,5.2,3.6
		c1.3,0.7,1.3-1,1.4-1.9c0.2-1.3,0.8-2.4,2.3-1.8c1.7,0.7,2.3,2.4,2.6,4c0.2,1.3-0.4,2.3-1.8,2.4c-1,0.1-2.1,0.2-3-0.1
		c-2-0.6-4.1-1.2-5,1.4c-0.8,2.1-0.6,4.5,1.2,6c1.8,1.5,4.3,1.5,6-0.2c2.2-2.1,2.9-2.8,3.6,1.1c0.3,1.6,4.6,2.8,4,5
		c-1.5,5.6,2.7,10.7,0.6,16.2c-1,2.6-0.6,5.2,0.4,7.8c0.4,1.1,0.9,2.7,2,2.5c4.4-0.8,4,3.1,5.4,5.2c-5.7,0.5-6,1.7-4,6.7
		c1.7,4.4,5.5,7.9,5.4,13c-0.1,2.5,0.9,4.4,3.6,5.2c1.2,0.3,2.9,1.2,1.8,2.8c-1.5,2.1,0,3.4,0.7,5c0.7,1.5,1.6,3.1,0.4,4.7
		c-2.1,2.9-1.3,5.4,0.5,8c0.7,1,0.7,2.8,2.5,2.4c2.4-0.5,1.1-2.2,1.1-3.6c0-0.4,0.3-0.9,0.7-1.9c1.6,2.4,5.1,3.4,2.5,7.1
		c-0.8,1.2,0.4,2.2,1.3,2.9c2.6,2.3,3.1,6.2,3.1,8.7c0,3.7-0.4,4.7,3.4,2.9c1.8-0.8,3.2,0.2,3,2c-0.3,2.1,0.9,3.9,0.7,5.9
		c-15.5,15.7-31,31.4-46.6,47.1c-1,1-2.3,1.9-3.4,2.8c-0.7-6.3-6.7-11.4-4.4-18.5c0.4-1.2-0.8-2.5-1.3-3.7c-0.9-2.4-1-4.7,1.2-6.3
		c2.2-1.7,1.7-3.3,0.1-5c-1-1.1-2.3-2.2-2.5-3.6c-0.6-4.4-2.4-7.1-7.2-8c-3.2-0.6-3.9-4.4-1.3-6c3.8-2.3,1.9-5.1,0-6.3
		c-3.9-2.3-3.6-5-2.4-8.5c0.5-1.4,0.7-2.9,1.2-4.3c0.9-2.4,0.8-4.2-1.4-6.1c-3.1-2.5-3.3-5.8-0.3-8.6c2.8-2.6,2.3-5.2,0.6-8
		c-1-1.6-2.1-3-2.3-4.9c-0.2-1.9-1.4-2.7-3.2-3.2c-5.1-1.5-6.6-4-3.7-8.3c3.4-4.9,3.2-8.6-1.2-12.4c-0.7-0.6-1.5-2-1-2.7
		c2.4-3.5-0.1-5.8-1.5-8.6c-1.3-2.8-1.1-5.9,1.5-8.3c0.7-0.7,1.5-1.5,1.2-2.6c-0.4-1.3-1.6-0.8-2.6-0.8c-3.4,0.1-6.1-0.3-3.3-4.6
		c1.2-1.8,0-3.2-1-4.5c-2.2-2.9-2.9-6.1-3-9.7c-0.1-3.3,0.7-5.5,4.3-6.4c-4.1-0.1-6.1-1.4-4-5.5c1.4-2.8-2.1-5.8,0.2-8.5
		c-0.1,0-0.1,0.1-0.2,0.2c-4.2,0.9-5.7-0.2-5.1-4.2c0.6-3.8,2-7.4-1.5-10.5c2.5-6-3-9.1-4.6-13.6c-3-8.2-4-17.1-4.3-25.9
		c0-0.8,0.4-1.8,0-2.5c-2.9-5.4-3.7-11.2-4.4-17.3c-0.4-3.3-2.1-6.6-1.6-10.2c0.1-0.3,0.1-0.7,0-1c-5.9-13.6-4.1-28.8-9.5-42.5
		c-1.1-2.9-3.2-5.5-3-8.9c0.1-1.2,0.1-2.3,0.8-3.3C280.4,70.9,287.3,73.7,293,78.8z"/>
	<path fill="#FEA25C" d="M307,208c0.1,2.4-0.4,4.9,2,6.8c1.7,1.4,0,2.6-1.1,3.6c-0.7,0.7-1.9,1.2-1.1,2.4c0.8,1.1,1.6,0.7,2.4-0.2
		c1-1.2,2.4-2.4,3.5-0.3c0.8,1.5,0.4,3.3-1.4,4.3c-1.3,0.8-4.8,0.4-3.8,1.9c2.1,3.1-1.8,6.5,1.4,9.1c0.9,0.7,1.1,2.1,1.9,2.9
		c3.3,3.1,3.1,5.6-1.2,7.6c1.6,1.5,2.8,0.4,4,0.2c1.7-0.2,4-1.2,4.9,0.9c0.7,1.7-0.3,3.6-1.6,5c-3.7,4-3.6,6.1,0.2,9.6
		c1.6,1.5,4.6,3.4-0.2,5.3c-2.6,1-0.5,2.9,0.5,3.7c4.3,3.2,5.7,6.6,1.7,11.2c-1,1.2-1.6,2.9-2,4.5c-0.5,1.8,0,3.4,2.3,3.5
		c3.7,0.1,6.8,0.1,6.1,5.7c-0.2,1.8,2.4,4.7,3.8,7c1.4,2.2,0.8,2.9-0.8,4.4c-5.5,5-5.5,5.1,0.7,9.3c1.2,0.8,1.4,1.6,1,2.9
		c-1.2,3.4-2.1,7-3.5,10.3c-0.9,2.1-0.6,2.9,1.6,3.5c2.9,0.9,5.3,2.2,3.1,6c-1.2,2.2,2.4,2.5,2.2,4.5c-0.3,0.1-0.6,0.4-0.8,0.4
		c-1.5-0.4-2.3-2.8-4.3-1.4c-0.8,0.5-0.7,1.6-0.3,2.3c1,1.6,2.4,2,4.3,1.7c3.8-0.6,5.1,1.9,5.3,5c0.1,2.9,0.9,4.9,3.4,6.7
		c3.2,2.4,2.7,4.7-0.8,6.9c-2.3,1.5-1.7,3.5-0.4,5.1c1.8,2.2,2.2,4,0.8,6.7c-1.1,2.1-0.4,5.4,1.4,6.3c4,2,3,4.4,1.8,7.4
		c-0.2,0.6,0,1.3-0.1,2c-7.7,7.5-15.3,14.9-23,22.4c-0.1-2.3,1.4-4.8-1.1-7c-1.3-1.2,0-2,1.4-2.1c1-0.1,2,0,3-0.1
		c1.3-0.1,3.1-0.1,3-1.7c-0.1-1.1-1.8-2-3.1-1.8c-4.2,0.9-4.7-1.3-3.8-4.5c0.6-1.9-0.2-3.1-1.5-4.4c-4.4-4.1-3.9-6.4,1.9-8.2
		c-1.3-1.6-4.2-2.2-3.4-4.9c0.8-2.9,3.7-2,5.7-2.4c0-2.3-1.9-1.9-2.9-2.5c-3.6-2.4-3.8-6.3-0.4-8.9c0.8-0.6,2.7-0.5,2.3-2.1
		c-0.4-1.6-2-1.5-3.3-1.5c-1.6,0-3.3,0-6,0c5.6-4.7,4.8-10.4,4.9-15.8c0-2.2-1.5-2.8-3.4-2.4c-1.9,0.3-3.9,0.6-5.1-1.1
		c-2.2-3.3-3.8-2.3-5.6,1.2c-1.1-2.5-2.8-4.6-1.2-6.4c1.6-1.7,4.1-2.9,6.4-3.7c1.2-0.4,1.7,1,1.7,2.4c-0.1,2,1.4,2.9,3.1,3.5
		c1.1,0.4,2.5,0.5,3.2-0.5c1.1-1.5-0.6-1.8-1.5-2.5c-0.9-0.7-2.3-1.4-1.6-2.7c2.5-5-1.5-3.9-3.8-3.9c-2.5,0-4.5-0.9-6.4-2.3
		c-1.7-1.2-1.9-2.6-0.7-4.2c0.7-0.9,1.9-2.1,1.8-2.9c-1.2-6.6,2.3-13.6-1.6-19.9c-0.5-0.9-1.5-2-0.9-2.7c5.6-5.6-1.4-6.5-3.5-9.1
		c-0.8-1-2.7-1.5-2.2-2.9c0.6-1.8,2.2-0.7,3.4-0.6c2.5,0.3,3.1-0.9,1.9-2.9c-1.4-2.4-1.5-5.1-1.9-7.7c-0.4-2.7,0.1-5.1-4-5.5
		c-2.5-0.3-3.3-7.9-1-9.7c3.6-2.8,2.6-5.9,0.6-8.6c-2.1-2.9-2.5-5.4,0.1-7.9c2.2-2.1,0.6-4.3,0.1-6c-1.3-4.7,1.5-10.8-4.8-13.8
		c-1.2-0.6-0.5-2.1-0.3-3.2c0.8-5.2,1.6-10.4-1.8-15.1c-1.4-1.9-1.1-4.9-0.4-6.2c2.9-5.2-0.2-8.6-2.7-12.2c-1-1.5-3.4-2.6-0.7-4.7
		c0.3-0.2,0.2-1.6,0-1.7c-4-1.7-1.2-6.7-4.4-8.8c-0.8-0.6-0.7-2,0.2-2.7c3.9-3,2-6.2,0.2-9.2c-1.4-2.3-2.2-4.3-0.6-6.8
		c0.5-0.9,0.6-3.1,0.2-3.3c-4.8-2.2-1.9-5.8-1.8-8.9c0.1-1.9,1.4-4.4-2.2-4.9c-1.6-0.2-1.1-1.7-0.6-2.9c1.7-3.7,3.6-7.4-1.1-10.5
		c2.2-4-3.2-7.6-2.5-8.8c4-6.6-2-11.8-1.4-17.7c0.5-4.9-3-9.3-1.7-14.3c0.1-0.5-0.2-1.5-0.6-1.8c-5-3.4-2.6-6.7,0.1-9.9
		c0.9-1,0.3-1.8,0-2.7c1.3,0.3,2.7,0.7,4,1c2.4,7.9,5.4,15.7,7.2,23.8c1.5,6.6,3,13.3,2.7,20.1c-0.1,2.8,0.5,5.2,2.5,7.3
		c0.7,0.7,1.5,2.1,1.2,2.6c-3.4,7,6,13.3,1.1,20.3c-0.2,0.2,0.1,1,0.4,1.3c4.5,3.3,3.8,7.8,4.2,12.8c0.4,5.4,0.9,11.1,2.5,16.5
		c0.5,1.6,1.2,3.1,1.1,4.8c-0.2,2.5,0.9,4,3.1,5.1c4.2,2.1,4.7,4.4,2,8c-1.4,1.8-0.4,2.8,1.1,3.5c3,1.4,3.4,3.2,1.6,5.9
		c-0.7,1-0.6,2.5-0.9,3.8C301.7,209.2,303.6,209.5,307,208z"/>
	<path fill="#FEA25B" d="M256,322c3.2-1,7.6,0.3,8.7-4.7c0.3-1.1,1.9-1.5,3-1.1c4.1,1.4,6.2,5.4,9.4,7.9c1,0.8-0.3,1.4-1.2,2
		c-3.5,2.3-6.8,4.9-10.1,7.4c-0.9,0.7-2.2,1.4-1.3,2.8c0.6,1,1.8,0.9,2.7,0.5c2.1-0.9,3.4-0.3,4.4,1.7c1.9,3.4,4.6,3.6,7.4,1.2
		c1.5-1.3,2.8-2.1,4.2-0.5c2.3,2.7,4.5,2.2,6.9,0.2c2.2-1.8,3.4-0.8,3.7,1.6c0.2,2,0.3,4.1-0.1,6c-0.5,2.1-0.5,3.7,1,5.5
		c1.8,2.2,2.5,5.5,0.1,7c-2.5,1.5-5.1-1.4-7.7-2.3c-1.1-0.4,0.1-1.7,0.7-2.4c1.1-1.6,2.5-3.1,2.3-5.5c-2.5,0.1-4.4,1-5.2,3.2
		c-0.8,2.2-2.3,3.3-4.2,4.6c-2,1.4-1.8,3,0.8,3.9c1.7,0.6,4.8-1,5,1.7c0.2,2.4-1.2,5-3.4,7.6c-0.1-4.4-1.1-5.3-4-2.1
		c-1.9,2.1-4.4-0.6-6.7,0c-2.3,0.6-4.6,1.1-4.7-2.7c-0.1-1.4-1.5-0.9-2.3-0.2c-1.4,1.2-2.9,2.5-1.4,4.6c2.2,3,3.5,6.3,4.3,10
		c2.8-2.9-0.9-5.3-0.4-8.4c3.4,1,6.8,3.9,10.5,0.9c0.3-0.2,1.4,0.2,1.7,0.6c4.6,6.4,5.6-0.1,7.4-2.3c1.3-1.5,1.3-4.6,4.4-2.1
		c0.7,0.6,1.6,0.1,2-0.8c0.5-1,0.8-2.7,2.3-2c1.5,0.7,0.7,2.3,0.3,3.5c-1.1,3.5-4.3,6.5-2.5,10.7c0.3,0.7-0.4,1.7-1.4,1.6
		c-0.5-0.1-1.2-0.8-1.3-1.3c-0.4-2-0.4-4.2-3.2-4.1c-2.5,0.1-2.9,3-2.9,4c-0.3,4-4.1,7.3-2.2,11.7c0.3,0.6-0.4,1.8,0.9,1.9
		c0.9,0.1,1.9-0.5,1.8-1.4c-0.1-6.6,4.5-3.7,7.7-4c-1.7,2.7-4.3,4.7-2.8,8.4c1.3,3.2,3.8,4.3,7.4,5c-7,1.5-2.2,8.6-6.1,11.4
		c2.6,2.5,1,5.6,1.1,8.4c0,1.8-0.5,3.2-2,3.6c-2.2,0.6-1.5-1.5-1.8-2.6c-0.3-1.2-0.8-2.5-2.2-2.2c-1.6,0.4-2.1,1.8-1.2,3.1
		c1.9,2.9,0.3,3.3-2.2,3.4c-2,0-2.5,1.4-2.3,3.1c0.4,2.8,1.9,5,4.4,6.3c1.9,1,2.6-0.7,3.3-2c0.7-1.5,1.2-3.1,1.9-4.6
		c1.1-2.3,3.5-2.5,5.1-1.5c2.3,1.4-0.1,2.4-0.8,3.8c-1.6,3-2.3,6.3-1,9.7c-11.3,8.4-23.8,12.9-37.9,12.1c-0.9-1.7-0.5-3.6-0.5-5.4
		c0-28.8,0-57.6,0-86.4c-0.6-2.7,1.9-3.5,3.4-5.3c-0.8-1.5-4.2-1-3.4-3.8C255.8,342.7,254.9,332.4,256,322z"/>
	<path fill="#FEA25C" d="M256,322c0,11,0,22,0,33c1.7,1.7,1.3,3.3,0,5c0,31.3,0,62.6,0,93.9c0,0-0.5,0-0.5,0s-0.5,0-0.5,0
		c0-129,0-257.9,0-386.9c0.3,0,0.6,0,0.9,0C256,152.1,256,237,256,322z"/>
	<path fill="#FEBA85" d="M165.9,262c0.2-2.9,1.3-4.7,3.7-5.2c0.8-0.2,1.4,1,1.2,1.8C170.3,261.2,168.4,262,165.9,262z"/>
	<path fill="#FEBB87" d="M151.8,295c-0.7,0.3-1.1,0.7-1.4,0.6c-0.3-0.1-0.5-0.6-0.8-1c0.3-0.2,0.6-0.5,0.8-0.4
		C150.8,294.4,151.1,294.7,151.8,295z"/>
	<path fill="#FEBB87" d="M177.9,224.6c-1.5,1.3-2.3,2.1-3.5,3.2C174.5,225.4,175.8,225.3,177.9,224.6z"/>
	<path fill="#FEA25B" d="M306.8,423.2c-0.1,1.3-0.6,2.5-2,2.2c-1.6-0.3-1.8-1.7-1.7-3.1c0-1.1,0-2.7,1.5-2.5
		C306.3,420.1,306.4,421.9,306.8,423.2z"/>
	<path fill="#FEA25B" d="M299.1,391.6c0.5,1.9,3.5,3,1.9,5.5c-0.2,0.3-1,0.5-1.3,0.3C297.6,395.9,298.4,393.7,299.1,391.6z"/>
	<path fill="#FEA25C" d="M309.8,381.3c-1.9-0.7-2.7-1.6-2.4-3.1c0.1-0.3,0.8-0.7,1.1-0.6C310,378.2,310,379.5,309.8,381.3z"/>
	<path fill="#FEA25C" d="M311.7,350.3c-0.8,0-1.2-0.4-1.3-1.1c-0.1-0.7,0.2-1.3,0.9-1.5c0.7-0.2,1.2,0.4,1.3,1.1
		C312.8,349.5,312.4,350,311.7,350.3z"/>
	<path fill="#FEA25B" d="M301.8,434.9c-1.1-0.1-2.4,0.3-2.8-1.2c0-0.1,0.3-0.6,0.5-0.6c1.3-0.3,2.2,0.2,2.4,1.6
		C301.9,434.8,301.8,434.9,301.8,434.9z"/>
	<path fill="#FEA25C" d="M308.1,372.3c-0.3,0.3-0.7,0.9-0.9,0.8c-0.7-0.1-1-0.8-0.7-1.4c0.1-0.3,0.7-0.5,1-0.8
		C307.7,371.3,307.9,371.7,308.1,372.3z"/>
	<path fill="#FEA35E" d="M312.8,146.2c-1.1,0-1.5-0.6-1.6-1.5c-0.2-1.4-0.1-2.8,1.5-3.1c1-0.2,1.2,0.8,1.2,1.7
		C314,144.4,314,145.6,312.8,146.2z"/>
	<path fill="#FEA35E" d="M336.5,207.9c-0.2,0.8-0.8,1-1.4,0.7c-0.4-0.2-0.8-0.7-0.8-1c-0.1-0.7,0.4-1.2,1.2-1.1
		C336.1,206.7,336.5,207.2,336.5,207.9z"/>
	<path fill="#FEA35E" d="M381.7,330.2c0,0.9-0.3,1.5-1,1.5c-0.7,0.1-1.4-0.3-1.2-1c0.1-0.5,0.8-0.9,1.3-1.1
		C381,329.5,381.5,330,381.7,330.2z"/>
	<path fill="#FEA25C" d="M300.9,177.6c-0.7-0.1-1.3-0.5-1.2-1.2c0.1-0.5,0.5-1.4,1-1.5c0.7-0.2,1.1,0.6,1.1,1.3
		C301.9,176.8,301.7,177.5,300.9,177.6z"/>
	<path fill="#FEA25C" d="M324.5,286.6c-0.5-0.2-1-0.3-1-0.5c-0.2-0.8,0.3-1.3,0.9-1.5c0.2-0.1,0.8,0.3,0.8,0.3
		C325,285.4,324.8,286,324.5,286.6z"/>
	<path fill="#FEA25C" d="M308.1,206.1c0.5,0.2,1,0.3,1,0.5c0.1,0.8-0.5,1.1-1.2,1.2c-0.2,0-1,0.8-0.8-0.3
		C307.2,207,307.8,206.6,308.1,206.1z"/>
	<path fill="#FEA25B" d="M324.8,399.5c-0.7,0.1-1.5,0.1-1.2-0.9c0.1-0.5,0.7-1,1.3-1.3c0.6-0.3,1.4-0.2,1.5,0.6
		C326.5,399,325.5,399.1,324.8,399.5z"/>
	<path fill="#FEA25C" d="M333.6,384.9c-0.2-0.2-0.5-0.5-0.7-0.8c0.5-0.3,1-0.7,1.5-0.9c0.2-0.1,0.7,0.3,0.7,0.5
		C335.1,384.5,334.5,384.7,333.6,384.9z"/>
	<path fill="#FEA25B" d="M280.5,354.9c-3.1,0-10.3-8.1-9.8-10.4c0.3-1.3,1.7-2.9,2.6-1.2c0.9,1.7,5.6,0.7,3.3,4.9
		c-0.8,1.4,2,1.6,3.3,2c1.5,0.5,2.1,1.6,1.9,3.1C281.7,354.5,280.8,354.9,280.5,354.9z"/>
	<path fill="#FEA25B" d="M279.6,401.6c-2.9,0.5-2.6-2.5-4.5-2.5c-1.5,0-3.1-0.3-3.4-2.2c-0.1-1,0.7-1.8,1.4-1.6
		c1.8,0.4,4.1-0.2,5.1,2C278.8,398.6,279.1,400,279.6,401.6z"/>
	<path fill="#FEA25B" d="M256,360c0-1.7,0-3.3,0-5c2.1-0.9,5.1-2.2,5.5,1.1C262.1,359.6,258.6,359.7,256,360z"/>
	<path fill="#FEA25B" d="M264.9,352.1c-1.2-0.6-3.9,0.7-3.5-2.4c0.1-0.9,0.8-2.4,1.7-1.7c1.4,1.2,4,1.3,4.3,3.4
		C267.6,352.5,266,352.4,264.9,352.1z"/>
	<path fill="#FEA25B" d="M261.2,384.9c-1.3-0.1-2.6-0.2-2.5-1.8c0.1-1.7,1.5-2.6,3-2.7c1.4-0.2,2.1,0.9,2,2.2
		C263.7,384.1,262.6,384.8,261.2,384.9z"/>
	<path fill="#FEA25B" d="M271.9,389.2c-0.1,1.3-0.6,2.2-2,2.5c-1,0.2-1.7-0.3-1.7-1.3c0-1.5,0.9-2.5,2.3-2.8
		C271.6,387.4,271.9,388.3,271.9,389.2z"/>
	<path fill="#FEA25B" d="M274.7,358.7c-0.1,0.8-0.7,1.1-1.3,1c-0.8-0.1-1.1-0.6-1-1.3c0.1-0.8,0.6-1.1,1.3-1
		C274.4,357.4,274.7,358,274.7,358.7z"/>
	<path fill="#FEA25B" d="M275.4,384.3c-0.3,0.1-0.8,0.4-1.2,0.3c-0.3-0.1-0.4-0.7-0.5-1c0.3-0.1,0.6-0.4,0.8-0.4
		C275.1,383.2,275.5,383.6,275.4,384.3z"/>
</g>
</svg>
