<?xml version="1.0" encoding="utf-8"?>
<!-- Generator: Adobe Illustrator 23.0.0, SVG Export Plug-In . SVG Version: 6.00 Build 0)  -->
<svg version="1.1" id="Слой_1" xmlns="http://www.w3.org/2000/svg" xmlns:xlink="http://www.w3.org/1999/xlink" x="0px" y="0px"
	 viewBox="0 0 465 461" enable-background="new 0 0 465 461" xml:space="preserve">
<g>
	<path fill="#FEFEFE" d="M490,232c0,83.8,0,167.6,0.1,251.4c0,3.6-0.6,4.7-4.5,4.7c-167.8-0.1-335.6-0.1-503.4,0
		c-3.7,0-4.3-0.9-4.3-4.4c0.1-167.8,0.1-335.6,0-503.4c0-3.4,0.4-4.4,4.2-4.4c168,0.1,335.9,0.1,503.9,0c3.5,0,4,0.8,4,4.1
		C490,64,490,148,490,232z"/>
	<path fill="#62DBB8" d="M180.9,435.1c-17-16.8-34-33.6-50.9-50.5c-12.4-12.4-24.7-25-37.1-37.5c0.7-1.5,2.2-2.5,2.7-4.2
		c0.4-1.3,0.5-3.4,2.5-3.1c2.3,0.3,1.3,2.7,2.1,4.1c3.2-3.2,5.2-6.5,3-11.3c-1-2.1,0.2-4.4,2.4-5.4c2.6-1.1,3.4,1.2,4.4,2.9
		c0.4,0.7,0.6,1.6,1.8,1.6c-0.5-3.2-1.5-5.7-5.6-5.2c-3,0.4-3.4-1.6-3-3.8c0.4-2.1,1.3-3.7,4.2-2.9c5.7,1.7,7.1,0.3,6.2-5.3
		c-0.3-2-0.5-4-0.6-6c-0.1-2.5,0.2-4.2-3.5-4.3c-3.4-0.1-1.9-3.4-0.5-4.2c2.3-1.4,2.9-2.9,2.3-5.2c-0.1-0.5,0-1,0.2-1.5
		c1.1-2.5,1.3-6.5,4.5-6.5c3.1,0,2.1,4,2.7,6.2c0.9,3.2,0.8,6.6,1.8,9.8c0.1,0.4,0.2,0.9,1,1.4c-0.1-2.5-1.1-4.6-1.5-6.8
		c-0.7-4.3-1.8-8.3,3.5-10.5c0.8-0.3,1.3-1.4,0.4-2c-2.1-1.5-1.1-3.7-1.5-5.5c-1.3-5.7,0.1-7.2,5.8-6.4c0.8,0.1,1.6,0.5,2.4,0.6
		c-0.1-0.1-0.2-0.3-0.3-0.3c-2.2-1.1-6.5-0.3-6.3-3.5c0.2-3,2.6-6.2,5.6-7.7c2.6-1.3,3.1-4,4.6-5.6c3.9-4.3,3.3-8.1,1.9-12.9
		c-1.1-3.6,2.1-4.6,5.3-4.9c-3.8-4.6-3.8-5.1,0.2-8.8c1.2-1.1,2.4-2,3.9-0.7c2.5,2.2,4.1-1.3,6.4-1c0.7,0.1,0.1-1,0-1.6
		c-0.1-1.5-0.7-2.2-2.6-2.2c-2.1,0-6-6.3-5.3-8.2c0.6-1.6,2-2.2,3.7-1.6c1.3,0.9,1.9,2.6,3.7,3.2c0-2.6-2.8-1.6-3.6-3
		c-0.8-2.7,1.1-3.1,2.9-3.5c2.1-0.5,4.2-0.9,6.5-2.4c-1.5-1.2-3.6,0.4-4.4-1.3c-0.9-2,1.6-2.8,1.8-4.2c0.6-4,4.6-7,3.2-11.4
		c-0.3-1.1,0.3-1.9,1-2.7c0.4-0.5,1.5-1.1,1.4-1.3c-1.4-4.7,2.1-7.2,4.2-10.5c1.1-1.7,1.9-3.2,3.6-4.3c3-1.9,4.2-4.5,2.4-8
		c-2-3.9-0.2-7.4,1-11c0.2-0.5,0.6-0.8,1-1.1c3.3-2.2,4.6-4.7,4.7-9c0-1.4-0.2-3.1,1-3.7c4.7-2.1,3.1-5.9,2.8-9.4
		c-0.2-1.7-0.7-3.7,0.9-4.6c4.8-2.7,4.5-7.9,6-12.1c1.9-5.2,2.4-10.6,6.6-15.1c2.8-3,4.1-8.3,3-13.1c-0.5-1.9-0.1-3.3,1.9-4
		c2.1-0.7,3.2-2.2,3.8-4.3c2.6-8.2,4.6-16.7,9.5-24c1.8-2.6,2-6,2.6-9.1c2.1-9.9,8.5-18,10.8-27.8c0.5-2.1,1.3-4.1,1.9-6.2
		c1-1.7,1.4-4.2,4.2-3.7c0.4,0.4,0.6,0.9,0.8,1.4c0.4,2.9,0.5,5.9-0.1,8.8c-1.8,3.3-1.8,6.8-2.3,10.4c-0.7,5.5-0.2,11.2-2.4,16.5
		c-0.6,1.5-0.6,2.9-0.4,4.4c0.3,1.8,0.7,3.8,0,5.4c-2.5,5.8-1.1,12.5-4.4,18.1c-0.8,1.4-1.4,3.3-1,4.8c1.8,7.7-0.7,15.3,0.3,23
		c0.5,3.6-1.5,6.8-2.1,10.2c-0.1,0.7-0.8,1.3-1.4,1.2c-4.9-0.7-3.1,2.4-2.6,4.6c0.6,2.6,1.1,5.4,0.2,7.9c-2.7,7.1-1.3,14.5-1.6,21.7
		c-0.2,3.9-1.5,8.2,1.2,12.1c1,1.4-0.3,2.9-1.6,3.8c-2.1,1.5-3.2,3.7-4.3,6c-0.9,2-1,3.4,0.9,4.7c2.2,1.6,2.1,3.4,1.4,6.1
		c-1.5,6.3-3.8,12.6-2.1,19.2c0.2,0.6,0.1,1.5,0.6,1.9c6.6,4.6,1.1,9.9,0.7,14.8c-0.2,2.5-2.3,3.1-4.6,1.8c-3.7-2.1-4.5,0.3-3.5,2.9
		c1.7,4.6-0.5,7.7-3,10.8c-3.3,4.1-3.4,12.4,0,16.5c1.5,1.8,2.4,3.6,2,5.9c-0.4,2.4,0,4.6,0.6,6.9c0.5,2,0.9,4.2-0.1,5.9
		c-3.2,5.1-2.1,10.5-1.5,15.9c0.6,5.5-0.9,7.4-6.4,8.4c-0.1,0.3-0.1,0.7,0.2,0.9c5.8,2.8,5.9,2.9,1.1,7.2c-3.2,2.9-2.3,7.1-4.2,10.5
		c-2.2,3.9,0.4,6.7,3.1,9.5c2.9,2.9,2,6.5-1.5,7.5c-1.2,0.3-3,0.4-3.2-0.5c-0.7-4.1-6.4-5.8-5-9.5c1.3,8.7,0.5,18.8,3.3,28.6
		c1.5,5.3,2.5,11.3-1.4,16.5c-0.3,0.4-0.4,0.9-0.4,1.4c-0.2,7.8-0.7,8.4-9,9.9c2.7,0.7,4.6-1.4,7-1.9c3.6-0.8,4.9,0.6,3.8,4
		c-0.3,0.8-0.8,1.6-0.5,2.4c1.4,4.8-2.2,6-5.4,7.4c-1.3,0.6-3,0.4-4.5,1.6c4,1.3,5.3,6.1,10.3,6.4c1.9,0.1,2.8,4,2.8,6.4
		c0,2-2,3-3.6,1.4c-2.6-2.7-5.2-1.1-9.4-0.3c5.3,0.9,5.7,2.6,3.8,6.1c-1.1,2-1.1,5.1-0.4,7.8c0.3,1,0.9,1.9,0.4,2.9
		c-1.1,1.9-3.1,3.5,0,5.7c1.6,1.2,2.4,3.3,4.7,4.2c3.3,1.4,3.4,3.4,0.3,5.3c-1.6,1-3,1.9-3.8,3.7C183.6,435.4,182.3,436,180.9,435.1
		z"/>
	<path fill="#42C69F" d="M448,273.1c-10.5,10.7-21,21.3-31.6,32c-11.9,11.9-23.8,23.8-35.7,35.7c-1.1,1.1-2,2.7-3.8,3.1
		c-3.9-1.5-6-5.4-5.7-10.3c0.3-3.7-5.1-8.7-8.6-7.6c-3.1,1-3.8-0.7-3.5-2.9c0.6-3.4-0.8-5.6-2.9-8c-3.7-4.3-2.8-10.9,1.5-13.4
		c0.7,0-0.3-0.9,0-0.3c0.1,0.2-0.1,0.2-0.4,0.3c-1.6,0.4-3.7,0.3-3.8-1.3c-0.4-4.6-5.3-6.4-6.3-10.5c-0.1-0.3-0.2-0.7-0.5-0.8
		c-5.7-2.5-5.5-5.6-1.9-10.2c1.6-2,1.5-5.3-0.5-8c-1.5-2.1-3-4.4-3-7.3c0-1.6-1.1-2.7-2.4-3.5c-1.7-1.1-5-0.8-3.7-4.6
		c0.4-1-1.2-0.5-1.9-0.6c-4.2-1-5.2-3.9-2.6-7.3c1.5-1.9-0.1-9.7-2.5-11c-5.7-3-7.7-7.4-6.8-13.8c0.4-2.7-0.4-5.2,2.6-6.8
		c1.3-0.7,0.5-1.6-0.4-2.3c-1-0.7-2.1-1.1-3.2-1.2c-6.3-0.8-6.7-1.2-7.3-7.3c-0.1-1.3,0.1-2.7-1-3.8c-4.5-4.4-5.2-11-9.1-15.7
		c-1-1.2-0.3-2.3,0.7-3.5c2.6-3.1,2.1-6.2-1.1-8.6c-2-1.5-2.8-3.1-2.3-5.5c0.4-1.7,0.3-3.4-0.7-4.8c-1.6-2.3-2.1-4.8-1.9-7.6
		c0.1-1.4-0.4-1.9-2-2.1c-5.5-0.7-10.2-5.3-11-11c-0.4-2.8-1.6-5.9,1.2-8.5c0.9-0.9,0.2-1.8-0.6-2.5c-4.7-4.4-6.6-9.9-7.8-16.2
		c-0.9-4.8-3.5-9.3-5.4-13.9c-0.6-1.4-1.7-2.6-1.8-4.1c-0.4-7.3-5.5-12.2-8.8-18c-0.7-1.3-2.1-2.6-1.7-4c1.6-5.6-2.1-9.2-4.8-12.9
		c-3.7-5-5.8-10.3-6.6-16.3c-0.5-3.5-2.2-6.7-3.9-9.6c-5.3-8.6-7.9-18.3-11.8-27.4c-0.2-0.5-0.2-0.9-0.2-1.4c0-1,0.1-2,1.5-2
		c6.5,6.8,12.3,14.2,17.8,21.9c4.7,6.5,8.7,13.9,15.9,18.3c1.4,0.9,2.5,2.3,3.2,3.8c3,6.5,8.3,11,13.3,15.8
		c3.9,3.8,6.8,8.5,10.2,12.7c3.2,4,4.2,9.2,8.1,12.7c1.4,1.2,2.4,2.6,4.2,3.3c2.1,0.8,3.3,2.1,3.3,4.5c-0.1,3.8,1.1,5.4,5.1,3.4
		c2.2-1.1,6.2,2.6,5.5,5.4c-1.9,7.8,4.2,10.5,8.7,13.9c2,1.5,4,2.6,5.1,5.1c0.8,1.8,2.1,3.5,3.6,4.7c2.6,2.2,4,4.8,3.7,8.3
		c-0.2,2.8,0.9,3.8,3.9,3.4c6.7-0.9,7-0.6,8.1,5.9c1,6.1,6,8.8,10.1,12.1c1.4,1.2,4.2,1.2,3.6,4c-0.6,2.6-3.3,0.6-4.9,2.2
		c1,2.5,3.1,2.6,5.2,1.8c4.2-1.6,5.5,0.3,5.5,4.2c0.1,4.4,0.9,8.4,4.9,11.3c2.2,1.6,2.5,6.1,4.6,6.8c5.6,2,7.5,5.8,7.8,11.2
		c0,0.6,0.7,1.4,1.4,1c6.7-3.5,6.8,4.1,10,6.2c1.9,1.3,2.2,5,5.2,6.1c0.4,0.2,0.7,0.7,0.9,1.1c2,4.7,3.7,7.3,6.1,9.1
		c4.5,3.5,4.6,5.4,0.3,8.8c-1,0.8-2.2,1.4-2.7,2.9c2.1,0.5,3.6-0.2,4.5-1.7c2.1-3.6,3.8-2,4.8,0.5c1.6,3.8,7.1,5.5,6,10.7
		c5.2,1.6,6.6,6.3,8.8,10.5c0.3,0.6,1.1,0.7,1.8,0.7c3.3-0.2,5.1,2,5.7,4.6C444.5,266.7,447.3,269.4,448,273.1z"/>
	<path fill="#61DAB7" d="M229,11c-1.8,7.4-3.5,14.9-7.7,21.2c-2.9,4.3-3.7,9.2-4.8,13.8c-2.5,9.7-8.5,17.8-11,27.4
		c-0.6,2.4-0.6,5.2-1.9,7.1c-1.9,2.8-7.5,3.7-3.4,8.8c-3.8,4.4-1.9,11.6-8.3,15.2c-2,1.1-1.2,6.5-2.6,9.5c-2,4.4-0.6,10.2-6.5,13.2
		c-3.1,1.6,0,5.9,0.2,8.9c0.2,2.5,0.6,3.6-2,4c-2.6,0.4-3.4,1.8-2.4,4.2c0.2,0.6,0.6,1.5,0.3,1.9c-2,3.2-3.2,6.4-0.2,10.2
		c-3.1-0.3-2.9-3.9-5.3-2.8c-2,0.9-1.6,3.2-1.9,4.9c-0.5,2.5-2.2,5.3,1.4,7.4c1.5,0.9-1.3,7.3-3.6,8.2c-2.5,1-4.8,1.6-2.8,5.2
		c0.9,1.6-0.2,2.5-2,2.1c-1.3-0.3-2.7-0.5-3.5,1c-1,1.8,0.4,2.2,1.5,3c2.5,1.9,0.5,2.6-0.9,3.5c-1.9,1.2-4.9,2.2-1.1,4.8
		c0.3,0.2,0.3,1.7,0.2,1.7c-5.7,1.9-0.8,10.3-7.6,10.9c1.2,2.2,2.1,1.1,2.9,0.8c1.2-0.4,2.6-1.5,3.5,0.2c1,1.8-0.6,2.9-1.9,3.4
		c-2.3,0.9-4.7,1.7-7.1,2c-1.9,0.2-2.2,1-2.4,2.5c-2.1,0.5-5,0.6-1.9,3.7c1.5,1.5-0.3,7.9,5.3,3.6c0.9-0.6,1.7,1,1.5,2
		c-0.4,1.8,1.3,5-0.5,5c-2.2,0.1-3.2,1.1-4.6,2.2c-0.4,0.3-1.2,0.7-1.2,0.7c-5.1-7.7-4.6,3.6-7.9,2.1c1.4,0.8,2.8,1.5,3.7,2.7
		c0.6,0.8,1.5,1.4,1,2.6c-0.5,1-1.4,1-2.5,0.9c-3.7-0.3-6,3.3-3.3,6.1c4,4.1,3,6-1.6,7.9c-0.9,0.4-2.2,1.4-1.2,2.8
		c1.8,2.4-0.5,3.7-1.7,4.3c-2.8,1.3-4.5,3.7-6.6,5.6c-4.7,4.2-0.4,3.6,1.6,4.4c0.2,0.1,0.3,0.1,0.5,0.2c1.7,0.7,5.5-0.5,4.6,2.7
		c-0.8,3-3.2,0.1-4.9-0.2c-2-0.3-4.1-0.9-5.6,0.8c-1.8,2,1.5,2.9,1.3,3.9c-0.4,2.8-0.7,4.9,2.6,6.2c0.7,0.3-0.7,1.5-1.3,2.2
		c-1.6,2-6.8,2-4.9,5.6c1.5,2.8-0.2,5.5,1.5,8c1.3,1.9,1.9,4.2-0.2,6.6c-4.8-6-2.9-13.5-5.5-20.4c-2.1,3.4-5.2,6-3,10.4
		c0.8,1.7,0.8,3.1-1.7,2.7c-3-0.5-2.4,1.7-3.2,3.5c5.8-1.9,5.3-1.8,5.9,3.9c0.3,3-0.7,6.6,1.9,9.3c1.3,1.4,0,2.5-1.3,3
		c-2.2,0.9-3.8,4.4-6.9,2c-1-0.8-1.6-2.6-3.1-0.8c-0.9,1-1.4,2.4-0.8,3.7c0.9,1.8,2.2,0.6,3.5,0.4c2-0.4,7.2,5.7,6.5,7.6
		c-0.3,0.9-1.2,1.1-2.1,1.1c-1.5,0-2.6-0.5-3-2c-0.5-1.8-0.4-4.8-3.1-3.7c-2.7,1.1-2.8,3.8-1.1,6.3c1.8,2.7,1.3,5-1.2,7
		c-0.6,0.5-1.2,1.1-1.6,1.8c-0.7,1.2,0.5,4.1-2.3,3.2c-2.1-0.7-1.7-2.9-1.1-4.8c0.1-0.3-0.3-0.9-0.7-1.9c-1.7,2.8-1,6.9-5.2,7.1
		c-12.8-12.6-25.5-25.2-38.2-37.9c-8-8-15.9-16.1-23.8-24.1c5-2,8.4-5,9.9-10.7c1.1-4.4,5.8-6,10.2-7.2c-2-1.1-3.8,0-5.6,0.2
		c-1.1,0.1-2-0.3-2.5-1.3c-0.5-1.1,0.1-1.7,1-2.4c5-4.1,10.3-6.1,16.6-3.2c1.6,0.7,2.9,0.6,3.9-1c1.2-2,3.2-3.4,3.7-6.1
		c-1.6-0.1-3,2.3-4.5,0.3c-1.3-1.8-2-3.9-1.1-6.1c0.7-1.8,2.2-2.5,4-2.3c1.7,0.2,3.2,0.9,2.9-2.2c-0.1-1.3,2.7-1.5,4-2.6
		c2.3-1.8,2.1-3.7-0.6-4.9c-1.7-0.7-4.3-0.3-4.4-3.2c0-1.6,1.1-2.4,2.4-2.9c2.4-0.9,4.6-0.8,6.2,1.5c0.4,0.5,0.7,1.1,1.9,1.1
		c-0.2-3.8,1.5-6.9,3.6-9.9c1-1.5,2.7-2.8,4.1-1.2c2.3,2.8,2.7,0.5,3.5-1c0.4-0.9,0.4-2,0.2-3c-1.7-8.3,2.4-15.1,5.6-22.1
		c1.6-3.4,5.1-3.5,7.9-4.7c6.2-2.6,9.3-7.4,10.8-13.6c1.2-5,2.5-9.8,2.8-15c0.1-2.8,2-6.3,6.5-4.8c2,0.7,1.4-1.3,1.7-2.1
		c0.6-2.2,1.1-4.4,3.9-4.4c2.8,0.1,3.3,2.3,3.9,4.6c1.4-3.5,0.5-7.4,2.2-10.8c0.8-1.5,1.2-3.1,2.6-4.1c1.4-1,3.4-1.6,1.4-3.8
		c-0.5-0.6,0.1-1.7,0.7-2.2c3.3-2.3,4.7-5.9,6.1-9.5c0.9-2.2,2.5-3.5,5-3.2c2.7,0.3,3.9-1,4.4-3.6c0.6-3.2,0.5-6.8,3.5-9
		c0.3-0.2,0.6-0.6,0.4-0.7c-5.2-5,1.1-4.2,2.9-5.6c2.4-1.9,5.7-3,5.8-6.8c0-0.5,0.3-1.1,0.7-1.3c4.5-1.4,5.3-5.8,7.8-8.9
		c3.3-3.9,4.8-8.5,6.7-13c1.7-4.2,2.2-8.9,8-9.6c1-0.1,1.4-0.9,1.4-1.8c0.2-5.1,3.1-8.8,6.6-11.9c5.5-4.9,7.7-11.9,11.7-17.8
		c4.5-6.6,9.1-13.2,14.3-19.3C226.6,11.2,227.4,9.8,229,11z"/>
	<path fill="#64DCB9" d="M180.9,435.1c1.4-0.2,3.2-0.6,2.7-2.2c-0.8-3.1,1.1-2.8,2.9-3c1.4-0.2,2.8-1,2.8-2.4c0-1.4-1.6-1.5-2.7-1.5
		c-2.2,0-3.4-1-3.6-3.2c-0.1-1.2-0.9-1.8-1.8-2.1c-3.8-1.2-3.3-2.5-0.3-4.2c0.8-0.4,2.1-1.3,1.4-2.3c-1.6-2.3-0.3-5.9-0.8-6.7
		c-2.3-3.7,0.9-4.5,2.4-5.8c-1.2-2.2-2.3-0.5-3.3-0.7c-2.1-0.4-3-1.5-2.1-3.5c0.8-1.8,9.2-2.1,10.3-0.4c0.6,0.9,0.8,2.5,2.3,1.1
		c1.1-1-0.2-1.5-0.6-2.4c-1.2-2.6-2-5.1-5.8-4c-1,0.3-1.5-1.5-1.9-2.6c-0.7-1.8-1.8-3.3-4.1-2.9c-1.1,0.2-2.1,0.4-2.4-0.9
		c-0.3-1.5,1-1.8,2.1-2.3c2.4-1.3,5.4-0.2,7.4-2.4c1.1-1.2,3.7-1.7,1.5-4.5c-1.5-1.9,0.6-3.6,2.6-5c-2.1-1.3-4.5-1.7-5.3-0.4
		c-1.7,2.7-4.1,1.4-6.1,2c-1.2,0.3-3,1.1-3-1c0-1.2,1.4-2.7,2.8-2.2c2.1,0.7,4.2,0.1,5.8-0.7c2.3-1.2,6.2-2.9,2.2-6.6
		c-0.7-0.7-1.3-1.5-0.5-2.1c6.4-4.5,2.6-10.9,2.8-16.4c0.1-2.7-0.9-6.1-1.7-8.8c-1.7-5.7-0.9-11.2-0.9-16.8c0-1.6-0.9-2.8-1.4-4.2
		c-0.4-1.1-0.8-2.3,0.1-3.3c0.5-0.5,1.3-0.7,1.8-0.1c0.9,0.9,2.5,2.3,1.9,3.2c-2.2,3.4-0.5,4.2,2.4,4.9c1.1,0.3,1.2,1.5,0.8,2.5
		c-0.4,1.2-0.6,2.4,1,2.8c1.2,0.3,2.3-0.2,3.2-1c0.9-0.9,1.5-1.8,0.7-3.1c-0.6-1-1.1-2.2-2-2.8c-4.8-3.1-5.1-6.8-1.9-11.2
		c0.5-0.7,0.5-1.9,0.6-2.9c0.3-3.5,1.1-6.6,4.9-7.9c0.9-0.3,1.9-0.9,1.5-2.2c-0.3-1-1.4-0.8-2.1-0.8c-1.9,0.1-3.2-0.5-3.9-2.4
		c-0.4-1-0.4-2,0.5-2.8c0.7-0.7,1.3-0.4,2.2,0.1c4.3,2.6,5.1-2.1,4.9-3.5c-0.3-2.3,0.7-5.2-0.5-6.9c-2.2-3.2-1-5.6,0.4-8.3
		c1.7-3.3,2.7-6.7,1.2-10.5c-0.7-1.8-1.2-3.7-0.3-5.8c0.6-1.5,0.7-3.8-1.1-4.4c-3.9-1.4-3-5-3.4-7.5c-0.9-5.4,0.6-10.6,4.8-14.3
		c2.4-2,1.6-3.7,0.8-5.6c-0.9-2.3-1.5-4.7,0.6-6.5c2.1-1.8,3.5-0.1,4.9,1.5c1,1.1,2,0.7,2.6-0.8c1.2-3.4,0.5-7.3,2.8-10.4
		c0.2-0.3-0.2-1.3-0.6-1.7c-4.4-4.1-5.7-11.3-2.9-16.1c0.6-1.1,0.9-2.1,0.8-3.3c-0.1-0.7-0.6-1.5-0.4-1.9c2.8-4.5,1-7.5-2.4-10.9
		c-0.7-0.7,1.8-6,4.3-8.3c1.8-1.7,6.7-3.2,0.7-5.9c-0.2-0.1-0.4-0.9-0.2-1.2c2.9-6,0.5-12.5,1.2-18.8c0.5-4.3,0.7-8.7,1.8-13
		c1.2-4.4-2.7-8.5-0.9-13c0.2-0.4,0.4-0.9,0.5-1.3c3.6,2.4,3.4,2.3,4.5-2c0.9-3.3,3.1-6.4,0.1-9.7c4.2-7,0-14.4,1.2-21.6
		c0.5-2.7,2.9-6,2.7-7.6c-1-6.9,4.4-12.6,2.6-19.3c-0.2-0.8-0.9-2-0.5-2.3c3.4-4.1,0.9-9.2,2.6-13.5c1-2.4,1.4-4.6,0.6-7.2
		c-0.8-2.8,0-5.5,2.6-7.5c2.2,2.4,1.4,5.4,1.4,8.1c0,72.9,0,145.9,0,218.8c0,69.9,0,139.9,0,209.8c0,2.8,0.7,5.7-1.3,8.2
		c-15.4,0-28.4-6-39.7-16.1C188.3,443.1,184.7,439,180.9,435.1z"/>
	<path fill="#41C59E" d="M233,9c3,5.1,6,10.3,7.3,16c1.4,6.2,6.2,10.5,7.9,16.4c0.7,2.3,1.3,4.7,2,7c1.3,4.1,2.3,8.1,4.9,12
		c2.6,3.9,8.2,6.7,6.2,13.6c-1.2,4.1,3.4,7.6,5.7,11.1c1.1,1.6,2.7,2.9,3,4.9c1.4,8.2,5.5,15.4,8.3,23.1c1.8,4.9,1.9,10.4,5.4,14.9
		c0.8,1,1.5,2.1,2.6,2.7c2.3,1.3,4.2,2.2,0.4,4.7c-3.2,2-1,6.1-0.3,8.6c0.8,2.7,2.7,5.7,5.4,7.5c0.9,0.6,1.9,1.9,3.1,1.3
		c6.7-4,4.2,1.2,4.1,4c-0.1,1.8-0.2,3.7,1.4,5.1c3.2,2.8-0.3,6.8,1.3,9.2c1.6,2.4,5.5,2.9,4.9,7.4c-0.3,2.3,0.2,4.2-2.4,5
		c-0.9,0.3-1.1,0.9-0.6,1.3c2.3,1.8,3.8,4,3.8,7.1c0,0.7,0.9,0.5,1.6,0.1c2.6-1.4,2.1,0.5,1.5,1.7c-0.7,1.3-2,2.7-0.3,3.9
		c3.6,2.4,4.7,5.6,4.5,9.8c-0.1,3,0.9,4.9,4.9,3.8c3.4-0.9,5.7,1.8,8.1,4.3c-3.2,1.8-7.4,2.7-4.3,7.9c0.5,0.8-1.5,3.1-0.1,6
		c1.7,3.4,3.2,5.5,6.8,6.5c1.4,0.4,2,2.1,1.9,3.8c-0.1,1.7-0.8,3.3,1.2,4.8c1.7,1.3,0.2,3.9-1,4.1c-3.6,0.5-1.4,2.2-1.2,3.6
		c0.4,2.1,1.8,2.1,3.4,1.6c1.1-0.3,2.2-2.2,3.3-0.1c1,2-1.4,2.3-2.2,4.4c9.2-1,6.2,7.6,9.5,11.5c4.1,4.9,2.9,9.3-1.3,13.3
		c-2,1.9-0.9,2.8,1,3.5c2.2,0.8,4.9,0.8,4.1,4.6c-0.2,0.9,1.7,2.4,2.9,3.2c1.7,1.2,2.7,2.1,2.5,4.7c-0.3,3.4,2.3,2.3,4.1,1.3
		c1-0.6,2.3-1.6,3-0.3c0.7,1.3-0.8,1.8-1.9,2.3c-3.3,1.3-7.3,2.4-2.9,7c-2.8,4.1,0.9,6,3.1,8c2.8,2.7-0.6,5.8,1,8.8
		c3.6-3.4,5.5-2.1,8.6,1.3c2.6,2.9,4.3,4.3,3.2,8.6c-0.5,2,1,6.5,4.5,8.1c-17,15.8-32.1,33.5-48.9,49.6c-1.3,1.3-2.7,2.4-4,3.7
		c-2.5-1.3-3.5-3-2-5.7c0.5-0.9,1.2-2,0.5-2.8c-3.2-3.2-1.5-6.4-0.4-9.9c-2.2,4.1-5.6,6.4-9.8,8c-1.2,0.4-2.2,0.8-3.2-0.3
		c-0.9-1.1-0.8-2.3,0.1-3.1c2.5-2.1,2.2-6.9,6.8-7.1c1,0,1.8-1.1,1.5-2.2c-1-3.6,0.1-6.9,1-10.3c0.4-1.6-0.1-3-0.9-4.3
		c-0.7-1.1-0.6-3.4-2.8-2.8c-1.8,0.5-0.9,2.1-0.8,3.4c0.3,2.6-1.8,3.3-3.6,4.1c-1.6,0.7-3,0.4-3.9-1.2c-0.9-1.8-1.8-4-0.1-5.6
		c2.5-2.3,3.8-5.5,6.2-7.8c3-2.7,1.8-5-0.6-7c-3.4-2.9-3.4-3.3,0.9-6.1c-7.3-2.7,0.9-6.5-1.1-10.1c-1.9,2.5-3.6,5.9-7.6,3.8
		c-1.3-0.7-2.9-1.4-2.7-3.2c0.2-2.1,2.1-2.3,4.4-2.8c-2.7-0.3-4.7-1-4.7-3.6c0-1.6-0.4-2.8-1.7-3.8c-1.9-1.5-1-3.2,0.8-3.8
		c2.4-0.9,1.8-2.1,1.6-4.1c-0.6-6-3.8-11.6-2.9-17.9c0.3-2.4-1.2-3.7-3.9-2.9c-1.5,0.5-3.2,1.7-4.5-0.2c-1.1-1.8-0.1-3.6,0.7-5.2
		c0.6-1.3,1.9-2.4,2.2-3.9c0.4-2.2,1.1-4.3-1.8-6c-5.3-3-5.2-5.1-0.1-9c-1.7-2.1-3.7-3.8-6.5-4.3c-1.7-0.3-3.3-1-3.6-3
		c-0.2-2,0.8-3.5,2.5-4.6c2-1.3,4.5-1.9,5.9-4.7c-2.8-0.1-3.3,2-4.6,3.1c-0.7,0.7-1.4,1.5-2.6,0.9c-1.2-0.6-1.8-1.8-1.3-2.9
		c2.1-4.3,0.7-8-1.7-11.6c-1.2-1.7-0.2-3.5,0.7-5.2c1-1.9,2.4-3.5,3.3-5.5c-5.4-1.9-5.5-2.3-2.4-7c2.1-3,1.1-6.9-2.3-8.6
		c-3.3-1.7-4.7-3.8-1.9-7c1.4-1.6,0.8-2.6-0.8-3.6c-3.3-2.1-3.1-5-1.2-7.8c1.4-2,1.7-3.3-0.5-4.9c-2.6-1.9-1.9-4.7-1.7-7.4
		c0.1-1.2,1.2-2.9,0.6-3.3c-5.7-3.6-1.1-8.3-1.6-12.4c0-0.4-0.1-0.6-0.5-0.9c-1.6-0.5-3.4,2.1-4.9,0c-1.2-1.8-0.3-3.5,0.6-5.1
		c1.4-2.7,1.2-4.1-2.5-3.5c-4.2,0.7-5.9-1.4-3.7-5c3-5,1.8-8.8-2-12.4c-1.5-1.4-1.4-2.7-0.3-4.4c2-3.1,1.2-6.9-1.9-9.3
		c-2-1.5-3.1-2.8-0.6-4.6c1.1-0.8,0.8-1.3,0.2-2.3c-2.8-5.5-4.7-11.2-3.5-17.5c0.4-2.4-0.9-4.5-3.1-5.9c-2.1-1.4-2.8-3.2-1.4-5.5
		c0.8-1.3,1.3-2.9,0.6-4.3c-4.1-8.8-4.6-18.7-7.4-27.9c-2-6.7-4.5-13.7-4.7-21.1c-0.1-6.1-2.9-11.9-4.7-17.8
		C232.7,13.7,232,11.3,233,9z"/>
	<path fill="#40C59D" d="M233,17c4,5.3,5.8,11.9,5.5,17.8c-0.3,4.9,2.9,7.7,3.1,12c0.6,10.2,5.9,19.4,6.6,29.7
		c0.2,2.2,2.7,4.4,2.4,6.4c-0.7,4.7-1.9,9,3.2,12.4c0.7,0.5,2.7,4.4-0.3,6.6c-1.5,1.1,0.2,1.1,0.7,1.3c1,0.5,1.5,1.1,1.5,2.3
		c-0.2,4.8,0.8,6.8,4.1,11.1c1.8,2.3-0.9,2.1-2.1,2.4c-1,0.3-2.1,0.4-2,1.7c0.1,0.9,1.1,1.2,1.9,1.2c4,0.2,2,3.8,3.1,5.2
		c2.2,2.7,2.4,3.9-0.8,5.5c-1.1,0.6-2.2,1.5-0.5,3.1c5.3,4.9,5.7,7.6,2.4,13.8c-0.6,1.1-1.2,2.1-0.3,3.2c1,1.3,1.8,0.6,2.9-0.1
		c1.6-1.1,3.6-1.1,4.9,0.6c1.3,1.8,0.5,3.5-1,4.9c-1.1,1.1-2.1,2.7-1,4c1.3,1.5,2.2-0.5,3.2-1.1c0.9-0.6,1.7-1.2,2.7-0.5
		c0.8,0.6,0.6,1.4,0.3,2.3c-0.9,2.5,0.7,5.5-2.1,7.7c-1.3,1-0.2,2.4,1.5,2.6c2.4,0.3,2.9,1.4,2.1,3.8c-1.2,3.5-3.6,7.5,2.2,9.9
		c0.9,0.4,1.8,2.6-0.2,4.5c-3.6,3.4-3.1,5.7,1.4,7.6c2.6,1.1,1.8,2.1,0.7,3.7c-3.4,4.7-3.4,4.8,1.9,6.4c1.3,0.4,2.7,1.6,2.2,2.2
		c-2.2,2.7,4,5.5-0.3,7.9c-1.4,0.8-3.2,1.8-2.7,3.7c0.7,2.4,2.5,0.3,3.8,0.6c0.8,0.2,1.7,0.5,2.2,1.1c1,1.3-0.5,1.6-1.2,2.2
		c-2.1,1.6-2.5,4.3-4.2,6.2c-1.2,1.4-0.8,2.7,0.4,4c3.1,3.4,4.6,7,1.1,11.1c-0.6,0.7-0.3,1.7,0.5,2.2c1.1,0.7,1.3-0.6,1.8-1.1
		c0.1-0.1,0.2-0.3,0.3-0.4c1.4-1.3,1.5-4.4,4.5-3.8c1.1,0.2,2.4,1,2.3,2.3c-0.1,2.8-3.2,3-4.8,4.5c-1,1-3.1,0.6-4,2.4
		c-0.9,1.8-1,3.7,1.3,3.7c4.5,0,6.7,3.1,9.4,6.2c-2.9,0.2-4.4,2.2-4.9,4.5c-0.4,1.6,1.8,2.1,2.9,3c1.2,1,4.3-0.1,3.8,2.2
		c-0.6,2.5,0.8,5.5-1.6,7.5c-0.6,0.5-1.4,1.2-1.5,1.9c-0.3,1.4-1.9,2.9-0.8,4.2c1.3,1.4,2.6-0.4,3.8-1c2.4-1.2,6.3,1.3,5.3,4
		c-1.3,3.4-0.5,5.8,0.8,8.6c1.7,3.7-0.6,8.3,2.9,11.8c1.1,1.1,0.1,3.6-2.8,2.9c-1.2-0.3-2.1,0.3-2.2,1.4c-0.1,1.1,1,1.1,1.8,1.2
		c1.8,0.3,2.6,0.8,1.5,3c-1.5,2.8-0.4,4.1,2.9,3.3c1.1-0.3,2.6-0.8,2.9,0.8c0.2,1.4-1,2.5-2.5,2.6c-1.3,0.1-3.3-1.2-3.5,1.2
		c-0.1,1.7,2.1,1.8,3.3,2.5c1.8,1,2.7-0.4,3.7-1.5c0.2-0.2,0.3-0.6,0.4-0.9c0.5-1.4-0.2-4,2.6-3c2.3,0.9,1.6,3,1.1,4.7
		c-0.3,0.9-0.8,1.9-1.5,2.6c-2.5,2.5-1.8,3.6,1.5,3.8c1.1,0,2.7,0,2.6,1.5c-0.2,1.7-1.6,1-2.8,0.8c-1.6-0.3-2.7,0.8-2.9,2.1
		c-0.4,1.9,1.3,1.4,2.3,1.6c3.6,0.8,1.6,4.6,3.5,6.5c1.1,1.1-1.3,1.3-2.1,1.9c-3.3,2.2-3.6,6.9-7.5,8.9c-0.6,0.3-0.3,3.4,0.9,4.5
		c1.6,1.6,3-0.4,4.4-1c1.8-0.8,1.2-1.6,0.1-2.9c-1.9-2.5,1.1-3.4,2.3-4.4c1.3-1.2,2.8-0.1,3.3,1.6c1,3.5,3.8,6.6,1.3,10.8
		c-1.1,1.8-1.7,4.4,0,7c1.6,2.5-1.8,3.4-3.3,3.7c-2.3,0.5-3.6,0.7-3,3.5c0.4,1.8-1.8,1.6-2.7,2.4c-0.7,0.6-1.1,1.3-0.6,2.2
		c0.6,0.9,1.3,0.6,2.1,0.1c3.9-2.3,8.4-3.8,9.4-9.1c0.1-0.7,0.4-1.4,1.2-1.3c0.9,0.1,1.6,0.8,1.5,1.7c-0.2,1.5-0.5,3-1.1,4.3
		c-1.1,2.2-1.9,4.1,0.8,5.9c1,0.7,1.7,2.6,0.5,3.5c-3.2,2.3-0.6,4.2,0.1,6.3c-14.3,15-29,29.7-44,44c-4.1-2.4-3.9-6.8-5.1-10.7
		c-0.7-0.3-1.4,0.2-2.3,0.3c-1.2,0.1-2.4,0.1-3-1.2c-0.7-1.4,0-2.6,1-3.6c1.9-1.9,4.2-3.3,6.6-4.3c0.2-0.4-0.1-0.5-0.4-0.7
		c-2.5-2.5-4.8-5.3-8.8-2.4c-0.7,0.5-1.8-0.5-2.3-1.5c-0.5-1.1-0.1-1.9,0.7-2.7c1.2-1.1,2.9-2,3-3.8c0.1-2.3,1.4-5.2-3-5.3
		c-3-0.1-2.6-2.2-1.1-3.7c1.5-1.5,2.4-3.1,2.3-5.3c-0.1-2.4-0.4-4.4-3.7-3.7c-1.7,0.4-3.8,0-4-1.9c-0.3-2.2,1.9-2.9,3.7-3.2
		c1.5-0.3,3-0.2,4.3-1.1c1.1-0.9,1.9-1.6,0.7-3.2c-2.9-3.9-2.8-4,2.3-5.7c-5.3-2.7-6-7.6-2-13.3c-2.4-2.2-7.4,1.4-8.3-3.4
		c-0.6-3.1,0.4-6.4,3.1-8.6c2.1-1.7,3.6,0,4.9,1.4c1.6-7.8-2.4-13-8.4-17.1c-2-1.3-2.3-2.6-1-4.5c3.7-5.4,1.4-11.5,1.4-17.2
		c0-3.5-4-4.6-6.5-6.3c-4.7-3-5-5.5-0.1-8.1c2-1.1,0.8-1.4,0.5-2.6c-1-3.8-2.2-7.1-6.1-9.1c-2.2-1.1-1.5-3.2,0.5-4.3
		c2.1-1.3,3.3-2.7,2.5-5.3c-0.4-1.4-0.8-3.1,0.8-4c1.6-1,2.8,0.1,4,1c0.4,0.3,0.8,0.5,1.5,0.1c0.4-2.3-0.1-4.5-1.1-6.6
		c-2-4-4.6-7.8-1.6-12.6c1-1.7-1-2.1-2.1-2.7c-2.9-1.7-4.7-3.8-2.4-7.3c1.4-2.1,0.1-3.9-1-5.5c-2.3-3.3-3.4-6.2,1.6-8.2
		c1-0.4,1.9-1.3,2.2-3c-1.9-1.1-5.8,0.5-5.9-3.4c-0.1-3.3,3.6-1.7,5.1-3.6c-2.8-1.5-3.2-3.4-1.7-6.3c1.2-2.4,0.7-5.5,0.2-8.3
		c0-0.3-0.2-0.6-0.4-0.9c-1.4-2.2,1.3-5.3,0.9-5.4c-3.7-1.3-1.8-3.7-1.6-5.8c0.4-4-2.6-6.7-3.8-10.2c-2.2-6.4-2.5-6.4,2.6-9.6
		c-4.3-1.8-7.4-6.1-6.9-9.7c0.3-2.3,1.2-4.3,5.2-3.4c-3.5-1.5-5.5-3.3-5.7-6.3c-0.2-1.6-0.7-2.8-1.9-3.9c-0.6-0.5-1.4-1.8-1-2.1
		c4.7-3.8-1.2-12,6.3-14.4c-3.5-3.4-4.5-6.9-5-11.7c-0.6-5.6,0.9-10.7,0.9-16c-0.1-15.1-3.1-29.9-5-44.8c-0.5-4,0-8.1-0.4-12.3
		c-0.5-4.7-1.8-9-2.9-13.4C232.8,31.2,231.9,24.1,233,17z"/>
	<path fill="#44C7A0" d="M448,273.1c-3.6-2.7-4.5-7.1-6.2-10.9c-0.8-1.8-1.6-3.7-4.4-2.2c-2.5,1.3-2.7-1.3-3.6-2.7
		c-1.7-2.9-0.9-8.1-6.7-7.5c-0.5,0.1-1.6-1.3-1.5-1.7c1.9-6.7-6.5-7.7-7.2-13.1c-0.3,1-0.4,2.2-1.1,2.9c-1.7,1.7-4.2,1.8-6.4,2
		c-0.4,0-1.5-0.9-1.4-1.2c0.6-2.2,2.2-3.5,4.1-4.5c1.7-0.9,3.5-1.7,3.1-3.9c-0.3-1.8-1.7-2.8-3.5-3.1c-1.3-0.2-2.2-0.7-2.2-2.2
		c-0.1-2.3-2.1-2.8-3.5-3.8c-0.9-0.6-1.1-1.7-0.4-2.5c1.3-1.5-0.2-2.3-1.2-2.3c-3-0.2-4.1-1.7-4-4.6c0-1.7-1.3-2.6-2.4-3.6
		c-1.8-1.5-3.9-3.9-4.7-5.6c-1.1,1.6-1.6,4.3-4.1,3.2c-2.2-0.9-1.4-3.1-1.7-4.8c-0.5-2.9,0.2-6.6-4.8-6.6c-1.4,0-3.8-1.4-4-4.4
		c-0.1-1.9-1.7-4.5-3.3-5.3c-5.6-2.4-4.5-7.3-4.7-11.5c-0.2-2.9-0.4-4.7-3.8-2.7c-1.8,1-3.9,1.2-5.6-0.3c-1-0.9-2.9-1.8-2.1-3.5
		c0.7-1.5,2.2-2.5,4.1-1.4c0.7,0.4,1.6,1.1,2.1,0c0.5-1.2-0.3-1.8-1.4-2c-5.4-1.1-7.4-6.7-12-9c-1.3-0.7-0.7-4.5-1-6.9
		c-0.5-3.5-1.7-4.3-4.9-3.2c-1.2,0.4-2.6,0.6-3.9,0.8c-2.4,0.4-3.6-0.6-3.2-3c0.7-3.9-0.2-6.8-3.3-9.7c-1.9-1.7-5-3.6-4.7-7.2
		c0-0.4-0.9-1.2-1.4-1.2c-4.9,0.4-5.8-5.2-9.8-6.5c-2.1-0.7-2.8-4.7-1.9-7.2c1.4-3.9-0.7-5.4-3.5-7.1c-0.9,2.2-1.4,7.2-4.3,1
		c-0.4-0.8-2.4-0.8-3.7-1.1c1.9-3.7,2.1-5.8-2.8-7.9c-3.2-1.4-7.6-4.4-7.4-9.7c0-0.5,0.1-1.2-0.1-1.4c-7-5.2-9.4-14.2-16.8-19.5
		c-3.3-2.4-7.6-5.8-9.2-11c-0.9-3.1-2.8-6.3-6.7-7.5c-2.5-0.7-3.3-3.6-4.9-5.5c-3.9-4.6-7.5-9.4-10.7-14.6
		c-3.4-5.4-8-10.1-12.1-15.1C235.8,9.1,234,8.1,234,6c4.4-1,7.5,2.1,10.9,3.6c12.4,5.4,23.7,13.3,37.2,16.3c1,0.9,2,1.7,3,2.6
		C338.9,82.3,392.7,136,446.3,189.8c22.3,22.3,23.9,57.4,3.8,81.3C449.6,271.8,448.8,272.4,448,273.1z"/>
	<path fill="#5FD9B6" d="M229,11c-4.6,4-8.2,8.9-11.4,14c-4.3,6.7-9.2,13.1-12.3,20.6c-0.9,2.2-3.9,4.6-6.3,6.4
		c-3.2,2.4-4.4,5.7-4.2,9.4c0.2,2.8-0.5,3.9-3.4,2.9c-1.5-0.5-2.9,0.2-3.4,1.4c-2.3,5.4-3.8,11.3-6.6,16.4
		c-2.2,3.9-4.3,9.4-7.4,11.1c-3.4,1.9-4.5,2.6-4.8,6.5c-0.1,1.9-4.7,3.6-7.5,4.9c-0.9,0.4-2.9-1.1-3,1c-0.1,1.5,1.6,1.2,2.8,0.8
		c0.8-0.2,1.3,0.2,1.3,1c0,0.4-0.3,1.1-0.6,1.2c-5.3,1.4-4.5,6.2-5,9.8c-0.5,3.8-2.3,5.2-5.6,4.2c-3-0.9-3.6,1-4.2,2.8
		c-1.3,3.6-2.3,6.9-6.1,9.3c-3,1.9,1.5,2.2,1.8,3.8c-5.9,2.5-8.1,7.3-7.2,13.5c0.2,1.8-0.4,3.3-1.3,4.7c-0.6,0.9-1.5,1.5-2.5,1
		c-1-0.4-0.6-1.3-0.3-2.1c0.5-1.9,0.6-4-1.9-4.3c-2.6-0.3-2.6,1.8-2.9,3.7c-0.3,1.9-1,3.7-1.5,5.5c-2.2-0.5-1-4.5-3.8-3.1
		c-2,0.9-3.6,3.1-3.4,5.1c0.4,4.4-1.8,8.5-1.8,12.1c0.1,6.7-5,9.8-7,14.8c-1.1,3-4.8,2-7,2.6c-6.8,1.8-7.5,7.6-9.3,12.5
		c-1.4,3.9-2.7,7.9-1.6,12.6c1,4.4,0.1,4.6-5.6,7.6c-1.2-1.2,1.9-2.4,0.1-3.3c-1.5-0.8-2,0.5-2.6,1.6c-1.4,2.7-3.8,5.1-3.2,8.6
		c0.2,1.2,1.4,2.7-0.7,3.2c-1.5,0.4-2.7-0.8-3.1-2c-1.3-3.8-3.8-3.2-6.3-1.7c-1.5,0.9-1.6,2.4,0.3,2.8c2.7,0.5,6.3,0,6.2,4
		c-0.1,4-3.9,4.4-6.8,5.4c-0.4,2,2.1,1.3,2.5,2.5c-2.4,3.5-7.1-2.6-9.1,2.1c-0.8,2,0.4,3.8,1.3,5.6c2,0,1.4-4.6,4.3-2.4
		c2.4,1.9,0.1,3.6-0.6,5.2c-0.9,1.8-3,2.9-3.4,5.2c-0.1,0.8-1.3,1.6-2.5,1.1c-3-1.2-5.5-3.2-9.6-1.6c-1.7,0.7-4.4-0.6-5.6,2.2
		c-0.7,1.6-2.7,1.1-4.5,2.1c3.2,2.2,5.4-1.3,8-0.3c1,0.4,2.6-0.4,3,1.2c0.5,1.8-1.2,2.4-2.4,2.6c-6,1-9.5,3.7-10.8,10.3
		c-0.7,3.9-4.7,6.8-9.7,6c-1.3-0.7-2.2-1.6-2.9-2.9c-0.6-1.5-1.6-2.5-3.1-3.1c-13.4-11.7-21.1-26.1-21.7-44c2.4-2.4,5.4-2.3,8.4-2
		c1.9,0.2,3.8,0.2,4.6-2c1.6-4.2,4.3-6.1,8.8-4.9c0.4,0.1,0.9-0.3,1.8-1c-1.6-0.6-3.6-0.8-3.4-3c0.2-1.9,1.5-3,3.1-3.6
		c3.7-1.5,4.9-3.8,2.7-7.4c-0.7-1.2-1-2.5,0-3.7c1.2-1.4,2.7-1.4,4.1-0.7c3.1,1.4,5.4,1.4,7.7-1.7c1.7-2.3,5-1.8,7.6-2.2
		c-0.4-2.1-2.2-2-3.5-2.7c-1.7-0.9-3.2-2.1-2.6-4.3c0.6-2.1,2.5-2.2,4.1-1.8c2.5,0.6,4.2,0.7,3.8-2.7c-0.2-1.6,1.4-2,2.8-2.2
		c1.8-0.4,3.5-0.9,5-2.8c-2.2-1-6.4,0.1-5.5-4.3c0.7-3.7,4.2-6.5,6.8-6c0,0.3,0.2,0.5,0.6,0.5c-0.3-0.3-0.3-0.5-0.1-0.9
		c1.4-1.7,2.6-0.7,3.8,0.2c2.2,1.7,4.3,1.2,5.6-0.9c1.6-2.6,3.7-4.7,5.3-7.2c1.7-2.7,2.4-5.7,6.6-5.3c1.7,0.1,2.2-2.4,2.3-4
		c0.3-3.5,2.3-4.9,5.5-5.3c3.7-0.4,6.5-1.6,6.3-6.1c-0.1-1.3,0.7-2.2,1.8-2.8c2.1-1.1,3.1-3,3.9-5c1.1-2.6,1.9-5.3,5.5-5.6
		c1.6-0.1,1.9-1.7,2-3.1c0.3-3.1,2.2-5.2,5-5.4c7.7-0.6,9.9-6.6,12-12.2c1.1-2.9,2.1-5.1,5.3-5.8c1.2-0.3,2.1-1.1,2.7-2.1
		c4.4-8.3,13.1-12.8,18.2-20.2c3.1-4.6,5.1-8.7,11.1-8.6c1.5-5.2,7.3-6.8,9.5-10.8c3.5-6.3,9.7-9.7,14-15c0.5-0.6,1.6-0.8,2-1.5
		c4.4-7.3,11.7-12.1,16.9-18.9c4.1-5.3,9.3-10.2,14.6-14.7c2-1.7,4.1-3.4,5.2-5.9c1.9-1.9,3.4-4.5,6.8-3.9c0.5,0.4,0.5,0.8,0.1,1.3
		C231,8.3,230,9.7,229,11z"/>
	<path fill="#3FC49D" d="M233,40c2.8,2.4,4.6,5.1,3.2,9.1c-0.6,1.6-0.1,3.3,0.8,4.8c1.1,1.8,1.2,3.6,0.4,5.7c-1.6,4.1,0.4,8.2,1,12
		c1.1,6.8,1.8,13.4,1.9,20.3c0,2.7,1.7,5.2,2.2,8c0.5,2.6,2.6,4.7-0.8,6.7c3.8,5.3-4.7,11.1,0.6,16.3c0.2,0.2,0.5,0.8,0.4,0.8
		c-3.6,2.8-0.3,5.9-0.3,8.8c0,1.2,0.2,2.1,1.5,1.8c1.1-0.2,2.3-2.2,3,0.3c0.4,1.7-0.7,2.8-1.9,3.8c-0.5,0.4-1.1,0.7-1.7,1
		c-1.2,0.6-2.4,1.3-2.2,3c0.3,2.3,2.5-0.2,3.3,1.5c-1.3,1.8-2.6,3.8-4.2,5.6c-1.4,1.7-1,2.8,0.8,3.4c1.8,0.6,2.7,0.9,1.7,3.4
		c-0.8,2.2,0.6,5,3.6,5c2.2,0,2.9,0.7,2.5,2.5c-0.5,2.4-1.7,1.8-3.1,0.6c-2.1-1.7-2.2,0.6-2.5,1.5c-1.1,3.5,2.1,7.9,6,8.3
		c1.1,0.1,2,0.4,2.4,1.5c0.3,0.9-0.4,1.5-1,2.1c-1.5,1.6-5.4,0.4-5.2,2.8c0.3,3.1,2.1,6.2,3.7,9c1.7,3,3.8,5.6,1.3,9.3
		c-1.1,1.6,0.5,2.2,2.1,1.8c1-0.2,2.4-1.4,2.9,0.4c0.4,1.5-1.2,1.7-2.3,2.1c-2.2,0.9-2,2.1-1.4,4.3c1.2,4.2,2.4,8.7-1.2,12.5
		c0.3,2.3,4.7-0.5,3.9,3c-0.6,2.4-2.2,3.6-4.9,2.5c-0.9-0.4-1.5,0.5-1.3,1.5c0.2,1.1,0.9,1.8,2.1,1.7c1.8-0.2,4.5-2,5.1,0.5
		c0.6,2.6-2.1,4.4-4.3,5.6c-2.5,1.3-2.9,2.1-1.4,4.7c1.6,2.8,6,5.6,0.9,9.6c-1.2,0.9,1.2,3.6,3.7,4.2c2.8,0.7,4.7,1.7,1.7,4.8
		c-3.3,3.4-0.4,6.9,1.2,9.3c2.1,2.9,1.2,6.1,2.6,8.9c0.3,0.7-0.2,1.6-1,2.1c-1.1,0.7-1.8-0.1-2.6-0.7c-1.1-0.8-1.5-3.4-3.3-2.3
		c-2,1.3,0.1,2.9,0.4,4.4c0.6,2.8-1,4.3-3.3,5.2c-0.8,0.3-1.7,0.3-1.8,1.4c-0.1,1.4,1.1,1.3,1.9,1.7c3,1.5,5.4,3.5,4.9,7.5
		c-0.1,1-0.1,2.2,1.4,2.1c1.2-0.1,2.2,0.1,2.2,1.3c0,1.4-1.2,2-2.4,2c-2.6-0.1-4.4,0.9-4.4,3.6c0,2.2,2.4,2.3,3.8,2.9
		c5.9,2.2,7.6,5.4,6,11.6c-0.1,0.5-0.3,1-0.2,1.4c1.1,5.1,0.8,7.4-1.5,12.2c-0.3,0.6-0.7,1.7-0.3,1.7c3.7,0,4.7,3.6,7.1,5.3
		c3.1,2.1,3.4,6.4,3.8,10.2c0.1,0.6-0.3,1.3-0.5,1.9c-0.5,1.6,2.4,3.9-0.2,4.8c-2.6,0.9-1.4-2.4-2.4-3.4c-1.4-1.3-2.6-1.5-3.6,0.3
		c-0.7,1.5-1.4,3-1.8,4.6c-0.7,2.6-0.4,4.6,3.2,4c1.1-0.2,2.3,0,3.5,0c1.4,0,2.7,0.4,3,2c0.3,1.7-1,1.8-2.2,2
		c-1.1,0.2-2.9,1.3-1.6,2.1c3.1,1.7-4.6,7.4,2.8,6.9c1.7-0.1,3.2,0.6,3,2.5c-0.2,1.9-2,1.2-3.2,1.4c-1.1,0.2-2.7-0.5-2.9,1.1
		c-0.2,1.5,1.2,1.7,2.4,1.9c2.7,0.5,2.3,2,0.9,3.5c-1.5,1.7-3.1,3.6-5.9,3c-1.9-0.5-3.1,0.4-4.4,1.6c0.5,1.4,1.6,1.7,2.8,1.5
		c1.9-0.4,4.3-3,5,0.7c0.6,3.2,2.2,6.9-1.6,9.4c-0.8,0.5-1.9,0.7-1.6,2.3c1.8,0.5,5.1-2.3,5.5,1.4c0.3,2.8,1.7,6.4-2,8.6
		c-1,0.6-3.2,0.8-2.2,2.6c1.2,2.1,2.4,0.4,3.6-0.4c3.6-2.4,4.8-1.8,5.1,2.2c0.1,1.1,0.6,1.4,1.6,1.3c0.7-0.1,1.3-0.3,1.9-0.2
		c0.6,0.1,1.1,0.6,2.1,1.1c-3,2.3-6.7,2.8-9,5.5c-0.8,0.9-2.7,1.3-1.5,3c0.9,1.2,2.1,0.2,3.2-0.2c1.2-0.5,2.3-1.4,4-0.6
		c-2.8,4.9,0.7,8.5,2.4,12.5c-12.4,14.4-27.8,22.1-47,21.8c-0.9-1.7-0.5-3.6-0.5-5.4c0-137.3,0-274.7,0-412
		C232.5,43.6,232.1,41.7,233,40z"/>
	<path fill="#5FD9B6" d="M226,10c-1.5,5.2-7.1,6.7-9.7,10.9c-3.2,5.1-8.3,8.4-12.2,12.8c-5.9,6.6-12.1,13.2-18.6,19.4
		c-4.3,4-11,7.2-11.8,14.5c-0.2,2.3-2.4,2.2-4.3,2.5c-1.9,0.3-4.8-0.2-2.6,4.1c1.4,2.8-3.7,2.9-5.5,4.6c-0.5,0.5-2,0.3-2.9,0
		c-2.3-0.8-3.2-0.7-2.9,2.3c0.6,5.3-4.6,6.9-7.5,9.8c-1.3,1.4-3.2,2.2-3.8,4.2c-0.2,0.6-0.5,1.7-0.8,1.7c-6.2,0.5-5.5,7.4-9.3,10
		c-0.1,0.1-0.1,0.4-0.2,0.4c-8.8,2.2-7.3,12.3-12.9,17c-1.2,1-1.2,2.5-3.7,1.5c-3.1-1.2-6.7,1.8-7.2,5.2c-0.3,2.5-0.1,4.8-4.3,4.1
		c-4.2-0.7-1.3,4.7-4.2,6.3c-1.1,0.6-0.9,3.6-3.7,3.7c-1,0-1.8,0.9-1.5,2.2c1.6,5.4-2.3,6.2-6,6.8c-3,0.6-5.6,0.7-5.7,5.1
		c-0.1,2-0.1,7.5-5.6,4.4c-0.7-0.4-1.6,0-1.6,0.6c0.1,5-5.2,6.6-6.5,10.8c-1.1,3.6-5.1,4.4-7.8,1.8c-1.4-1.3-2.1-2.2-3.2,0
		c-1.2-0.4-3.7-1.1-3.4-0.4c1.6,3.7-4.9,4.2-2.7,7.4c1.6,2.3,3.8,0.1,5.8-0.3c1.5,5.5-3.1,6.3-5.9,6.7c-2.8,0.4-3.4,0.5-1.9,2.9
		c0.7,1.1,0.6,1.8-0.3,2.6c-1,1-2,1.1-3.1,0.2c-0.5-0.4-1.1-0.8-1.7-0.9c-1.2-0.1-2.9-0.7-3.5,0.9c-0.6,1.6,0.7,2.9,1.9,2.9
		c4.5-0.2,4.8,3,5.4,6.1c-4-1.2-7.8-1.9-10.3,2.9c-1.2,2.4-3.1,2.3-5.4,0.7c-1.3-0.9-3.3-2.3-5-0.8c-1.9,1.8,0.6,2.9,1.2,4.2
		c1.5,3.2,1,5.4-2.4,6.8c-0.8,0.3-1.6,0.6-2.3,0.9c-1.2,0.6-2.6,1.3-2.2,2.9c0.6,2,2.1,0.9,3.3,0.6c0.7-0.2,1.3,0.1,2,1.1
		c-2.6,0.7-2.9,6.2-7.7,2.5c-1.8-1.4-3.3,1.6-3.9,3.4c-1.2,3.6-3,5.2-7,3.8c-2.6-0.9-5.2,0.8-7.8,0.9c-0.9-17.4,4.9-32.5,17.2-44.8
		c42.6-42.8,85.3-85.4,127.9-128c1.2-1.2,2.4-2.2,3.7-3.4c5.4,0.1,9.8-2.1,12.6-6.7c2.3-3.6,5.8-5.5,9.1-7.6
		c16.3-10.2,31.6-21.8,47-33.2C222.2,10.4,223.7,8.5,226,10z"/>
	<path fill="#5DD8B4" d="M226,10c-5.8,2.3-9.9,7-15.1,10.2c-5.6,3.4-10.4,7.8-15.8,11.4c-4.4,2.9-9.8,5.1-13,9.2
		c-2.3,3-5.5,3.4-8.2,4.8c-6.6,3.6-9.2,11.6-16.7,13.9c-2,0.6-3.7,1.6-5.2-0.6c14.2-14.2,28-28.9,42.7-42.6
		C204,7.4,215.8,2.8,229,2.2c0.3,1.2,1.4,1.3,2.3,1.8c0.4,0.2,0.7,0.5,1,0.9c0.2,0.4,0.1,0.8-0.2,1.2C229.3,6.3,228,8.6,226,10z"/>
	<path fill="#44C7A0" d="M233,40c0,140.9,0,281.9,0,422.8c0,0-0.5,0.1-0.5,0.1s-0.5-0.1-0.5-0.1c0-145.8,0-291.6,0-437.3
		c0-2.5,0-5,0-7.5c0-3.3,0-6.7,0.1-10c0.3-0.5,0.6-0.4,1,0c0,0.3,0,0.7,0,1c0,2.7,0,5.3,0,8C233,24.7,233,32.3,233,40z"/>
	<path fill="#47C9A3" d="M233,8c-0.3,0-0.6,0-1,0c0-0.3,0-0.7-0.1-1c0-0.3,0-0.7,0-1c0-0.3,0-0.7,0-1c3.3-2.6,7.1-2.9,11.1-2
		c11.6,1.1,21.4,6.4,30.1,13.8c3.2,2.8,6,6.1,9,9.2c-6.7,0.6-12.4-2.3-18.1-5.3c-8-4.2-16.1-8-24.3-11.8C237.8,8,236.3,6.1,234,6
		C233.2,6.4,233,7.2,233,8z"/>
	<path fill="#4CCCA6" d="M243.1,3c-3.9-0.6-7.3,1.9-11.1,2c0,0,0,0,0,0c-0.8-1-0.8-1.9,0-2.9C235.7,2,239.5,1.3,243.1,3z"/>
	<path fill="#56D3AF" d="M232,2.1c0,1,0,1.9,0,2.9c-0.7-1.3-4.6,0.9-3-2.8C230,2.2,231,2.1,232,2.1z"/>
	<path fill="#61DAB7" d="M24.9,279c2.4-0.3,3.4,0.7,3.1,3.1C26.9,281.1,25.9,280.1,24.9,279z"/>
	<path fill="#64DCB9" d="M166.3,406.4c1.7-1.4,3.4-3.1,4.6-1.6c1.5,1.9,2.4,4.6,2.7,7.1c0.2,1.1-1.6,0.6-2.1-0.3
		C170.2,409.6,168.7,407.9,166.3,406.4z"/>
	<path fill="#64DCB9" d="M193.4,270.9c-2.1,0-2.5-1.1-2.4-2.6c0.1-1.3,0.1-2.9,2-2.7c1.7,0.2,3.5,0.7,3.4,2.8
		C196.2,270,194.8,270.8,193.4,270.9z"/>
	<path fill="#61DAB7" d="M153.8,217.5c-0.3,1.8-1.2,2.5-2.5,2.3c-2.2-0.3-2.7-2.2-3.1-3.9c-0.5-2,1.6-1.3,2.2-1.4
		C152.8,214.1,152.4,216.9,153.8,217.5z"/>
	<path fill="#64DCB9" d="M201.1,194.7c0.5,1.7,1.2,3.6,1.5,5.5c0.1,0.8-1,1.8-1.6,1.3c-1.8-1.4-0.9-3.9-1.6-5.8
		C199.2,195.2,199.9,194.5,201.1,194.7z"/>
	<path fill="#64DCB9" d="M208.4,209.1c-3-0.9-3.4-2.7-3.2-4.8c0.1-0.8,0.8-1.3,1.4-1.1C209.1,204.5,207.7,206.8,208.4,209.1z"/>
	<path fill="#64DCB9" d="M180.8,363.7c-1.1,2.4-2,3.4-3.7,3c-0.2,0-0.5-0.5-0.5-0.7C177.1,364.3,178.6,364.4,180.8,363.7z"/>
	<path fill="#61DAB7" d="M135.6,267.4c-0.3,0.8-1,1.4-1.9,1.4c-0.8,0.1-1.3-0.3-1-1.2c0.3-0.8,0.7-1.5,1.7-1.5
		C135.2,266.2,135.7,266.6,135.6,267.4z"/>
	<path fill="#64DCB9" d="M174.2,419.9c-0.6,0-1.4,0.2-1.4-0.6c0-1,0.9-1.7,1.9-1.9c0.7-0.2,1.2,0.4,1.1,1.1
		C175.8,419.5,175.2,419.9,174.2,419.9z"/>
	<path fill="#64DCB9" d="M193.4,261.6c-1.5-1.4-1.7-2.6-0.8-3.9C194.3,258.6,194.3,259.8,193.4,261.6z"/>
	<path fill="#64DCB9" d="M178.3,377.6c0.8-0.1,1.3,0.3,1.3,1c0,0.4-0.3,0.9-0.6,1.1c-0.6,0.3-1.3,0.1-1.5-0.6
		C177.2,378.4,177.6,377.9,178.3,377.6z"/>
	<path fill="#61DAB7" d="M167.1,185.8c-0.4-0.5-0.8-0.8-0.9-1.1c0-0.4,0.2-1.1,0.4-1.2c0.7-0.3,1.2,0.3,1.1,0.9
		C167.8,184.9,167.4,185.2,167.1,185.8z"/>
	<path fill="#42C69F" d="M368.8,337.1c-0.8,1.3-1.5,3.3-2.9,4.3c-1,0.7-2-1-1.7-2.2c0.5-1.6,0.2-3.8,2.6-4.1
		C367.9,335,368.8,335.4,368.8,337.1z"/>
	<path fill="#42C69F" d="M335.6,272.3c2.6-1.4,4.2-2.9,7.2-1.1C340.4,272,338.7,273.1,335.6,272.3z"/>
	<path fill="#42C69F" d="M295.9,159.7c-0.2,0.2-0.6,0.5-0.9,0.8c-0.2-0.3-0.5-0.7-0.6-1c0-0.2,0.3-0.6,0.6-0.7
		C295.7,158.5,295.8,159.1,295.9,159.7z"/>
	<path fill="#42C69F" d="M362.3,332c-0.3-0.5-0.7-0.9-0.8-1.3c-0.1-0.7,0.4-1.2,1.1-1c0.3,0.1,0.8,0.6,0.8,1
		C363.4,330.9,362.9,331.2,362.3,332z"/>
	<path fill="#3FC49D" d="M272.5,330.1c-1.1,1.4,0,5.3-1.8,4.4c-2.4-1.2-6.8-0.1-7.2-3.7c-0.3-3.2,3-4.2,5.6-4.5
		C271.7,325.9,272.2,328,272.5,330.1z"/>
	<path fill="#3FC49D" d="M270,316.4c0,1.9-0.5,3.3-2.6,3.5c-1.4,0.1-3.3-0.3-2.8-1.8c0.6-1.6,2-3.4,4-3.8
		C269.8,314,269.9,315.4,270,316.4z"/>
	<path fill="#3FC49D" d="M259.9,285.2c-0.1,2-1.9,2.4-3.2,3.2c-0.6,0.4-2.1-0.3-1.9-0.9c0.5-1.8,1.9-3,3.6-3.7
		C259.2,283.3,259.6,284.3,259.9,285.2z"/>
	<path fill="#3FC49D" d="M278.8,408c-0.6,1.7-1.8,2.3-3.2,2.4c-1.2,0-1.7-1.1-1.4-2.2c0.3-1.3,1.5-1.7,2.7-1.9
		C278.1,406.2,278.5,407.2,278.8,408z"/>
	<path fill="#3FC49D" d="M276.6,394.6c0,1.5-1.3,1.7-2.3,2.1c-0.7,0.3-1.8,0.4-1.9-0.8c0-1.5,1.1-2.3,2.4-2.6
		C275.8,393.1,276.3,393.9,276.6,394.6z"/>
	<path fill="#3FC49D" d="M262.1,292.8c-0.6,0.4-1.1,0.9-1.3,0.8c-0.5-0.3-0.8-0.8-1.2-1.2c0.3-0.3,0.8-0.9,0.9-0.8
		C261,291.8,261.4,292.3,262.1,292.8z"/>
	<path fill="#3FC49D" d="M245.7,155.1c1.2,0.5,1.8,0.8,1.6,1.6c-0.1,0.3-0.6,0.6-1,0.8c-0.3-0.5-0.8-0.9-1-1.4
		C245.3,155.7,245.7,155.2,245.7,155.1z"/>
	<path fill="#42C69F" d="M410.7,210.9c0.2-1.6,1-2.3,2.2-2.5c0.2,0,0.8,0.6,0.7,0.8C413.3,210.6,412.3,210.9,410.7,210.9z"/>
	<path fill="#61DAB7" d="M86,208.4c4,4.6,2.7,7.4-2.6,9.5C84.1,214.6,84.4,211.5,86,208.4z"/>
	<path fill="#5FD9B6" d="M71.4,179.1c0.8,4.5-1.3,4.9-3.1,5.5c-0.2,0.1-1-0.5-1-0.7C67.3,181.2,70.3,182,71.4,179.1z"/>
	<path fill="#5FD9B6" d="M81.6,170.2c-0.3,1.2-1.1,2-2.2,2.3c-0.7,0.2-1.2-0.3-1.2-1.1c0-1.3,0.8-2.1,2.1-2.3
		C80.9,169.1,81.6,169.3,81.6,170.2z"/>
	<path fill="#61DAB7" d="M111.6,176.8c0.8-0.2,1.3,0.1,1.3,0.9c0,0.8,0.1,1.8-1,1.8c-0.5,0-1.2-0.5-1.4-1
		C110.1,177.5,110.9,177.1,111.6,176.8z"/>
	<path fill="#5FD9B6" d="M106.6,139.2c0.7,0.1,1.2,0.5,1.2,1.3c0,0.7-0.4,1.4-1.1,1.2c-0.5-0.1-1.1-0.8-1.3-1.3
		C105.2,139.6,105.9,139.2,106.6,139.2z"/>
	<path fill="#5FD9B6" d="M59.6,193.1c-0.3,0.2-0.6,0.7-0.9,0.7c-0.6-0.1-1.5-0.3-1.7-0.7c-0.5-0.9,0.4-1,1-1
		C58.6,192,59.3,192.1,59.6,193.1z"/>
	<path fill="#61DAB7" d="M57.8,255c-0.3-0.2-1-0.4-1-0.6c-0.1-0.8,0.6-1.2,1.3-1.1c0.4,0,1,0.4,1.1,0.7
		C59.5,255.2,58.5,254.8,57.8,255z"/>
	<path fill="#5FD9B6" d="M86.7,160.6c0.3-0.2,0.7-0.5,1-0.6c0.6-0.1,1.4-0.2,1.5,0.7c0,0.3-0.5,0.8-0.9,0.9
		C87.6,161.9,87,161.5,86.7,160.6z"/>
	<path fill="#61DAB7" d="M150.9,117.9c-0.3,0.6-0.5,1-0.8,1.3c-0.5,0.3-0.9-0.1-0.9-0.6c0-0.4,0.2-0.9,0.5-1.2
		C149.8,117.3,150.4,117.7,150.9,117.9z"/>
	<path fill="#5FD9B6" d="M60,177c0.8,0.5,2.1,1.1,1.5,2.1c-0.6,1.1-1.2,0.2-1.4-0.6C60,178,60,177.5,60,177z"/>
</g>
</svg>
