<?xml version="1.0" encoding="utf-8"?>
<!-- Generator: Adobe Illustrator 23.0.0, SVG Export Plug-In . SVG Version: 6.00 Build 0)  -->
<svg version="1.1" id="Слой_1" xmlns="http://www.w3.org/2000/svg" xmlns:xlink="http://www.w3.org/1999/xlink" x="0px" y="0px"
	 viewBox="0 0 512 512" enable-background="new 0 0 512 512" xml:space="preserve">
<g>
	<path fill="#FEFEFE" d="M257,513c-84,0-168,0-251.9,0.1c-3.3,0-4.2-0.5-4.2-4C1,341.1,1,173.1,0.9,5.2c0-3.8,1-4.3,4.4-4.3
		C173.1,1,340.9,1,508.7,0.9c3.5,0,4.4,0.5,4.4,4.3c-0.1,167.8-0.1,335.6,0,503.4c0,3.9-1.1,4.5-4.7,4.5
		C424.6,513,340.8,513,257,513z"/>
	<path fill="#FEF2B4" d="M257.7,9.9c27.6,0,51.6,9.2,72.3,27.5c14.1,12.5,26.9,26.3,40.3,39.5c33.2,33,66.2,66.3,99.4,99.3
		c16.6,16.5,28.1,35.8,32.7,58.8c6.6,33.1-0.5,63.2-21,90.2c-3.2,4.3-7,8-10.8,11.8c-46.3,46.3-92.5,92.8-139.1,138.8
		c-17,16.8-38.1,25.6-61.8,28.3c-30.5,3.6-57.5-4.7-81.7-23.1c-2.6-2-5-4.4-7.4-6.7C133.8,427.4,86.9,380.5,40,333.5
		c-15.6-15.7-25.2-34.7-28.9-56.4c-6-34.6,2.7-65.4,25.4-92.3c3.9-4.6,8.1-8.8,12.3-13.1C90.8,129.7,133,87.7,175,45.5
		c17.1-17.2,37-29.1,60.9-33.9C243,10.1,250.3,9.7,257.7,9.9z"/>
	<path fill="#FECD3E" d="M366,363.1c-7.4,7.6-14.8,15.2-22.3,22.7c-15.9,16-31.9,32-47.9,47.9c-10.4,10.3-23.2,15-37.5,16.1
		c-1.1,0.1-2.3,0.2-3.2-0.8c-2-2.4-1.6-5.3-1.6-8.1c0-27.8,0-55.6,0-83.4c0-94.3,0-188.5,0-282.8c0-3.2-0.8-6.7,1.7-9.6
		c7.6-0.6,14.9,0.6,21.9,3.8c0.4,3.7,2,6.9,3.9,10.1c3.2,5.4,4.5,11.5,5.5,17.7c0.6,3.4,0.9,7.1,2.7,10c3.4,5.6,4.6,12,7.7,17.7
		c1.3,2.4,0.7,4.9,1.1,7.3c0.9,5.7,3.9,10.9,3.6,16.9c-0.1,1.2,0.9,2.1,1.7,3c0.6,0.6,1.3,1.2,1.3,2.1c0,3-2.7,5.9,2,8.6
		c2.2,1.3,3,6.2,3.6,9.5c1.3,6.8,3.8,13,6.6,19.2c0.6,1.3,0.1,2.6-0.2,3.9c-0.3,1.1-0.7,2.3-0.3,3.4c2.2,6.6,2.2,6.6,1,10.8
		c0.9-0.5,0.9-1.7,1.7-2.3c1-0.8,2.1-1,3.3-0.5c1.4,0.7,1.2,1.9,0.8,3c-0.8,2-2.1,3.8,1.6,4.5c1.4,0.3,0.3,2.3-0.5,3.3
		c-0.9,1.2-2.2,2.1-2.5,3.7c-0.2,1.1-0.8,2.9,0.3,3.2c5.7,1.1,3.1,4.1,1.7,6.8c7.1,3.1,7.9,6.3,3,12.5c-1.5,1.9-0.6,3,0.7,4.2
		c2.4,2,4.5,4.5,6.7,6.7c2.7,2.7,4.9,5.5,1,9.3c-2.1,2.1-1,4.9,1.7,4.9c4.9,0,4.5,3.2,4.8,6.4c0.4,3.9-2.2,3.7-5.8,3.2
		c2.7,2.1,4.6,1.3,6.3,1.5c1.8,0.2,3.9,0.1,4.5,2.3c0.7,2.6,0.6,5.4-1.1,7.6c-1.1,1.4-2.6,1.2-4,0.2c-1.4-1-2.3-2.4-3.8-3.1
		c0.5,2.9,2.1,4.4,4.8,6.2c3.1,2.1,4.3,6.7,7.1,9.9c0.8,1,0.1,2.5-0.9,3.6c-3.5,3.9-3.6,5.7-0.6,10.5c1.7,2.6,0,5.2,0.2,7.8
		c0.1,1.8,0.1,3.8,2.7,1.9c1.7-1.2,3.4-3.6,5.5-1.2c1.9,2.2,3.7,4.9,3,8.1c-0.8,3.8-4.1,5.5-8,4.3c0.9,2.2,2.7,1.3,4.3,1.3
		c5,0,7.3,2.6,7.7,9.1c0.2,4.3-3.1,4.4-6.8,4.9c2.6,1.5,5.9-0.4,7.2,2.9C364.7,358.4,368,359.9,366,363.1z"/>
	<path fill="#FEE772" d="M207,422c-2.5-2.4-5.1-4.7-7.6-7.2c-20.6-20.6-41.2-41.2-61.8-61.8c-1.3-1.3-2.4-2.7-3.6-4.1
		c0.1-1.1,0.7-1.9,1.4-2.5c2.3-1.8,3.6-3.4,1.6-6.6c-1.3-2.2-0.2-5.2-0.2-7.9c-0.1-3.3,0.3-6.6-0.6-9.9c-0.4-1.5-0.1-3.2,1.8-3.6
		c2.2-0.4,2.8,1.2,3.1,3c0.3,2.5-0.2,5,1,7.4c0.5,1,1.2,2.3,2.6,1.6c1.1-0.5,0.7-1.7,0.4-2.7c-0.8-2.4-1.1-4.9-1.7-7.3
		c-0.7-3.1-0.5-5.8,2.1-8.2c2.4-2.2,2.1-5.7,1-8c-2.1-4.7,0.1-6,4-6.8c-2.4-3.9-1.4-9.8,2.8-11.1c5.7-1.8,4.6-6.8,6.1-10.4
		c0.8-1.8-1.8-2-2.9-2.8c-1.5-1.2-3-2.6-2-4.6c1.2-2.5,3-1,5-0.1c-0.8-3.5-0.2-6,4.1-5.1c1.6,0.3,2.1-0.6,1.8-2
		c-0.5-2.5,0.3-4.6,1.6-6.6c1.8-3,2.3-6.4,1.2-9.6c-1.1-3.6-0.2-6.6,1.9-9.4c1.8-2.4,2.7-4.7,2.1-7.9c-0.5-2.8,0.2-5.5,4-5.4
		c0.9,0,2.2-0.2,1.8-1.1c-1.7-4.5,2.4-7.6,2.6-11.6c0.2-4.3,3.1-7.9,5.6-10.9c2.9-3.6,3.2-7.1,2.5-11.1c-0.3-1.8-0.3-3.4,0.8-4.7
		c1.5-1.7,1.5-3.5,1-5.6c-0.7-3.1,1.1-5.5,2.8-7.7c2.2-2.9,3.1,0.4,4.8,1.4c0.4-4.4,1.6-8.8,1.6-12.7c0-8.9,5.5-15.6,7.3-23.5
		c1.8-7.7,4.2-15.3,6.9-22.5c3.1-8.5,4.4-17.6,8.2-25.6c1.9-3.9,2.9-7.8,3.9-11.9c5.3-4.3,11.2-7,18-8c3.6-0.9,4,1.4,3.6,3.9
		c-1.1,7.8-2.8,15.6-3.4,23.4c-0.4,5.3-1.4,10.9,1,16.2c0.9,2.1,1.6,4.8-2.2,5.2c-1.7,0.2-0.9,1.4-1,2.3c-0.2,5.7-0.8,11.2-2.5,17
		c-1.8,6.3-2.7,13.3-2.2,20.1c0.4,4.7-1.2,9.2-1.5,13.6c-0.3,4.4-3.2,9,0.1,13.8c2.1,3-1.4,5.9-2.3,8.7c-0.9,2.9-1.7,5.1-0.3,8.4
		c1.4,3.2,1.1,7.3,0.5,10.8c-0.7,4-0.8,8.3-1.9,11.7c-1.5,4.9-4.5,9-1.6,14.3c0.2,0.3-0.2,1.1-0.6,1.3c-4.9,2.1-4,6.2-3.7,10.1
		c0.1,1.2-0.1,2.5-0.7,3.4c-2.9,4.5-1.6,9.8-2.6,14.6c-1.1,4.8,0.3,10.2,1.4,15c1.7,7.1,0.8,10.5-6.1,13.7c3.5,0.3,5.6,1.8,3.8,5.2
		c-1.2,2.2-1.2,4-0.1,6.1c0.5,1,0.7,2.2,0.9,3.4c0.3,1.7,0.4,3.4-1.2,4.6c-1.6,1.2-2.7-0.7-3.9-1c-1.3,1.2-0.7,2.3-0.1,3.3
		c1.6,2.5,1.4,5.1,0.5,7.7c-0.8,2.4-1.6,4.7-0.2,7.2c0.4,0.7,0.6,1.8,0,2.4c-3.3,2.7-2,5.5-0.3,8.4c0.6,1,1.1,2.3,0.3,3.3
		c-1,1.2-2.5,0.9-3.7,0.2c-3.4-1.8-4.2-0.7-4.1,2.9c0.2,3.4,1.1,7.1,0.9,10c-0.4,5.2,2.9,10.5-0.3,15.5c-0.6,1-0.4,1.9,0,2.9
		c1.2,3.1,2.4,5.7-0.3,9.2c-1.5,2,1.3,6.4-1.8,9c2.9,0.8,2.3,2.9,2.3,5.1c0.1,3.8-0.5,7-4.7,8.3c-1,0.3-2.1,1.1-1.1,2.1
		c2.2,2.4,1.6,6,4.2,8.3C211.7,420.3,210.6,421.7,207,422z"/>
	<path fill="#FECE40" d="M366,363.1c-1.3-3.9-1.8-8.4-7.9-7.6c-1.2,0.1-3.9-0.2-3.7-2.5c0.2-2.4,2.1-1.7,3.9-1.4
		c3.5,0.6,4.2-1,3.5-4.5c-1.1-5-2.4-7.9-8.7-6.4c-4.2,1-2.5-3.8-3.9-5.9c1.4-0.7,2,0,2.4,0.7c0.8,1.2,1.7,3.2,3.3,2.2
		c1.8-1.2,4.1-3,3.7-5.4c-0.3-2.2-1.5-4.5-2.9-6.2c-1.5-1.9-2.5,0.5-3.5,1.3c-1.3,0.9-2.2,3.1-4,2.4c-2.2-0.8-1.1-3.2-1.2-4.9
		c-0.1-1.4,0.5-2.9,0.7-4.4c0.1-0.8,0.1-2.3,0-2.3c-5.5-0.7-1.8-5.4-3.3-7.8c-1-1.6,0.3-3.5,2.3-4.2c3.4-1,3-3.3,0.7-4.5
		c-2.5-1.3-3.2-3.1-3.9-5.4c-0.3-0.8-0.7-2.3-0.8-2.2c-6,1.3-4.6-5.1-7.4-7c-0.9-0.6-1.2-1.1-0.6-1.9c0.6-0.8,1.4-0.9,2.1-0.2
		c1.4,1.4,3.8,1.4,4.8,3.4c0.5,1.1,1.3,2,2.8,1.4c1.2-0.5,0.8-1.5,0.9-2.5c1-6.2,1-6.2-5-6.2c-0.3,0-0.7,0-1,0
		c-1.6-0.2-3.5,0.7-4.7-0.7c-0.9-1,0.3-2.2,0.9-3.1c1.7-2.4,3.1,1,5,0.3c-0.1-1.4-0.6-2.9-0.4-4.2c0.6-3.2-0.5-4-3.4-3.3
		c-1.4,0.3-3.5,1.2-3.4-1.1c0.1-2-2.7-4.7,0.5-6.2c5-2.3,1.9-5.3,0.1-6.8c-2.9-2.4-4.9-5.8-8.2-7.9c-2.3-1.5-3.4-3.9,0.3-5.5
		c3.2-1.4,2.5-3.8,2.2-6.6c-0.4-3.3-2-2.6-4.1-2.2c-1.2,0.2-2.1-0.9-2.6-2c-0.5-1.2,0.3-1.8,1.2-2.4c1.1-0.7,2.6-1.3,1.7-3
		c-0.7-1.4-1.9-0.9-3-0.2c-0.8,0.5-1.4,0.1-1.3-0.7c0.1-2.3-0.7-4.7,0.9-6.7c1-1.3,3-1.6,3.3-3.7c-0.8-1.4-1.7-0.1-2.4,0.2
		c-2.4,0.8-2.8,0.1-1.9-2c0.2-0.5,0.6-0.9,0.6-1.3c0.2-1.5,3-3.3,0.7-4.4c-2.3-1-2.1,1.6-2.4,3.2c-0.3,1.5-1.5,1.7-2.7,1.3
		c-1.2-0.4-1.1-1.5-0.7-2.5c0.5-1.2,0.9-2.5,1.5-3.6c1.1-1.9,1.9-3.6-0.9-4.8c-0.8-0.3-1.8-1.8-1.6-2.3c3.8-8.2-4.3-13.9-4.4-21
		c0-5.4-4.3-9.2-4.1-14.4c0-0.8,0-1.6-1.4-1.2c-5.1,1.3-4.3-2-2.6-4.2c1.9-2.5,2.4-4.1-0.5-5.9c-1-0.6-1.6-1.8-1.4-3
		c0.7-5.9-3.9-11.3-3.3-16.4c0.8-6.3-4.6-10-4-15.8c0.3-3.6-4.4-5.5-4.9-9.4c-0.6-4.4-1.6-9.1-2.7-13c-1.7-5.9-2.4-12.9-7.2-17.9
		c-2-2-2.6-4.6-0.9-7.3c7.1,2.2,13,6.3,18.3,11.6c10.2,10.2,20.4,20.4,30.7,30.6c1.1,3.7,1.6,7.5,5.5,10c2.4,1.5,3,5.1,3.9,7.4
		c1.6,4.4,5.3,7.3,6.8,11.6c0.4,1.1,1.3,2,2.2,2.7c2.3,1.6,3.5,3.7,3.5,6.7c0,3,1.4,5.5,5.1,5.5c2.1,0,3.6,1.3,3.9,3.3
		c1.1,6.1,6.5,10.9,4.7,18c-0.7,2.8,2.8,4.2,4.5,6.1c1.8,2.1,3.3,3.7,3.1,6.9c-0.2,3.5,2.3,6.5,3.9,9.6c0.9,1.8,2.7,0.5,4.1,0.4
		c1.8-0.1,4.1,0.4,3.4,2.4c-1.3,3.3,0.1,4.1,2.7,5.2c2,0.8,2.9,3.1,3.8,5.1c1,2.3-0.4,3.7-1.4,5.7c-1.4,2.6,0.9,5.5,3,7
		c8.1,5.6,12.1,14.3,17.1,22.3c0.6,1,1,2,2.2,2.4c2,0.6,3,2,3,4.1c0,0.6-0.1,1,0.6,1.6c4.5,3.1,4.3,3.9-1.1,6.8
		c1.4,0.9,4,0.1,4.1,2.8c0.1,3.7-3.9,3-5.5,4.9c1.2,1.7,3.1,2.2,4.8,2.6c3,0.6,5.3,2,7.7,3.9c2.3,1.8,5.9,2,8.3,4.4
		c3.8,3.9,5.6,8.3,5.1,13.7c-6.8,7-13.6,14.1-20.6,21C398.4,331.1,382.2,347,366,363.1z"/>
	<path fill="#FEE671" d="M226,74.9c0.4,3.9,2.3,8.1-2.5,11c-0.9,0.6-1.2,2.7-1.3,4.2c-0.5,6.3-4.7,11.7-4.2,18.2
		c0,0.5,0,1.3-0.2,1.4c-3.3,1.2-2,5-3,6.2c-3.3,4-3.4,9.1-4.7,13.3c-1.5,5.3-5.6,9.8-5.2,15.6c0.1,1.9-1.2,3.1-2.2,4.4
		c-1.7,2.4-4.4,4.5-0.8,7.5c0.8,0.7,0.3,1.6-0.4,2.1c-3.1,2.7-2,6.4-2.2,9.7c-0.1,2.1,1.5,4.7-1.7,5.2c-2.9,0.5-0.9-3.1-2.8-4.2
		c-2,3.1-5.1,5.9-2.6,10.3c0.2,0.4,0.5,1.3,0.3,1.4c-5.3,4-1.4,9.5-2.2,14.1c-0.1,0.8-0.4,1.9-1,2.2c-4.1,2.4-4.5,7.2-7.1,10.6
		c-0.8,1-1.9,1.9,0.2,3.1c1.8,1-0.1,2-0.8,2.4c-3.1,1.6-3,3.9-2.2,6.7c0.7,2.6,1.2,5.1-3.3,3.7c-3.3-1.1-3.8,2.2-3,3.8
		c1.9,3.6,0.1,5.8-1.8,8.4c-1.9,2.7-3.3,5.2-1.8,9c1.2,3.3,0.9,7.2-1.6,10.5c-1.4,1.8-2.3,3.9-1.1,6.5c1.6,3.4-0.1,4.1-2.9,3
		c-3.8-1.5-4.9-0.8-3.1,3c0.6,1.3,0.6,2.3-0.6,3c-1.5,0.9-1.6-0.6-2-1.3c-0.7-1-1.4-2.3-2.7-1.2c-1.4,1.2-0.2,2.5,0.8,3.3
		c0.7,0.6,1.7,0.9,2.7,1.1c2.9,0.8,3.8,2,1.4,4.5c-0.8,0.8-1.6,1.9-1.1,3.1c1.3,4-1.3,5.6-4.3,6.3c-3.1,0.8-2.6,4-3.7,5
		c-3.6,3.3-0.3,3.3,1.2,4.5c0.5,0.4,1,1.1,1,1.6c-0.1,1.1-1.1,1-1.9,1.1c-3.3,0.2-6.4-0.3-3.3,5c0.9,1.6,2.2,7.3-2.6,10.2
		c-3.8,2.4,0,6.7-0.2,10.2c-0.1,1.4,0.8,2.9,1.5,4.2c0.9,1.7,0.6,2.8-1,3.8c-1.6,1-2.8,0.2-3.9-1c-2.4-2.6-1.9-5.9-2-9
		c0-1.1,0.4-2.5-1-3c-0.4-0.1-1.1,0-1.3,0.3c-0.9,1-0.6,2.1-0.2,3.3c1.7,4.7,0,9.5,0.5,14.3c0.1,0.8-0.6,2.1-0.2,2.4
		c7.2,6.6-2.7,6.3-3.7,9.5c-13-12.8-26-25.5-38.8-38.5c-6.4-6.4-13.3-12.4-19-19.6c3.3-1.9,5.9-6.3,10.8-3.3
		c0.8,0.5,1.6-0.8,2.3-1.6c2-2.1,2.8-4.8,2.6-7.3c-0.3-4.2,0-7.7,4.9-8.8c0.7-0.2,1-0.8,1-1.5c-0.3-3.8,2.7-6.4,3.6-9.6
		c1.7-5.5,6-8.2,10.2-10.9c2.1-1.3,1.9-2.7,1.7-4.6c-0.9-9.1,4.3-16.4,7.6-24.2c1-2.3,4.6-2.2,6.9-3.6c2.3-1.5,5.5-8,4.7-10.6
		c-0.6-2.1-0.8-4.2,1.8-4.8c4.3-1,4.8-4,4.8-7.6c0-1.3,0.1-2.7,0.1-4c0-4,1.9-6.8,5.5-8.1c2.2-0.8,3.1-1.9,3.6-4.2
		c0.5-2.7,1.8-5,4.9-5.6c3.7-0.7,4.1-3.3,2.5-6c-1.7-2.7-1.1-4.4,1-6.4c2.7-2.6,4.9-5.6,8.3-7.7c3.2-1.9,2.9-6.2,3.4-9.5
		c0.4-3,0.9-5.6,4.4-6.5c1.2-0.3,1.8-1.2,2.3-2.4c1.4-4.1,3.3-8,3.8-12.3c14.5-15.1,28.9-30.3,44.7-44.1
		C224.3,75.4,225.2,75.2,226,74.9z"/>
	<path fill="#FEE874" d="M207,422c1.5-0.3,3.6-2,2.2-2.4c-5.3-1.4-1.7-7.8-6.2-9.6c-1.8-0.7-0.1-2.4,1.5-2.9
		c3.9-1.4,7.1-6.8,5.8-10.2c-0.8-2-3.2-0.7-5-1.8c3.6-1.8,6.2-4,3.2-8.2c-0.6-0.9-0.7-2.4,0.1-2.7c4.3-1.5,2.1-4.2,1.3-6.4
		c-0.7-2-1.1-3.7,0.4-5.7c1.2-1.5,0.6-3.4,0.1-5.3c-0.6-2.2-3.4-4.6,0.3-6.7c0.2-0.1,0.2-1.2,0-1.4c-4.8-3.8-0.7-8.8-1.8-13
		c-1.1-4.4,1.4-3.2,3.8-2.6c1.5,0.4,2.4,2.5,4.5,1.6c0-2.1-1.5-3.5-2.3-5.3c-1-2.1-2.6-4.7,1.4-5.8c1.4-0.4,1.5-1.5,0.7-2.2
		c-2.4-2.1-1.5-4.2-0.5-6.6c1.3-3.1,2-6.3-0.7-9.2c-1-1.1-1.5-2.9,0-4c1.5-1.1,3-1.2,3.6,1.2c0.1,0.6,0.9,1.1,1.6,0.5
		c0.4-0.4,0.9-1.1,0.8-1.7c-0.2-1.6-0.3-3.4-1-4.8c-1.5-2.8-3.1-5.3,0.5-7.8c0.7-0.5,0.2-1.5-0.1-2.3c-0.6-1.3-1.5-1-2.5-0.5
		c-1.5,0.8-3.1,1-3.5-1c-0.5-2.4,1.6-1.8,3-2.1c5.2-1,7.7-7,4.5-11.5c-1.2-1.7-1.7-2.7-0.4-4.7c2-3.2-2.2-5.8-1.3-9.3
		c0.5-1.8-0.3-3.9,1.5-5.5c0.2-0.2,0.7-0.7,0.6-0.7c-4.4-5.5,3-9.5,1.9-14.5c-0.3-1.3-0.2-2.7-0.6-3.9c-0.8-2.5,0.1-4,2.4-4.5
		c3.5-0.8,3.1-2.2,1.6-4.9c-1.7-3-3.9-6.7,1.8-8.8c1.3-0.5,2.4-3.4,1.2-4.3c-3.3-2.4-0.7-4.1,0.1-6.2c2.2-5.6,2.4-11.2-0.8-16.5
		c-0.7-1.1-1-2.6-0.1-3.2c3.1-2.3,1.7-6.7,4.6-9.1c1.7-1.4-0.1-2.6-1-3.7c-1.7-1.9-2.5-3.9-0.4-6.1c0.4-0.4,0.9-1.2,0.8-1.8
		c-1.3-7.9,2.7-15.4,1.7-23.5c-0.7-6-0.4-13.1,2.4-18.1c3.5-6.3,0-12,2-17.8c0.9-1.4,2.8,2.2,4-0.3c0.7-1.6-0.4-3.3-1.2-4.7
		c-1-1.7-1.1-3.1-0.9-5.1c0.6-6.1,0.8-12.2,0.8-18.3c0-1.2,0.1-2.4,0.8-3.3c1.5-2,2.3-3.9,1.1-6.4c-0.8-1.7,0.2-3.2,0.9-4.7
		c1.3-2.5,0.7-4.2-2.3-4.6c3.6-1.6,7.3-2.3,11.2-1.8c0,71.3-0.1,142.6-0.1,213.9c0,56.6,0,113.3-0.1,169.9
		c-14.3,0.4-26.1-5.4-36.3-14.9C214.6,430.3,210.9,426.1,207,422z"/>
	<path fill="#FECF42" d="M435,294c-1.1-3.5-2.1-7-3.3-10.4c-0.7-2-6.3-4.8-8.8-4.8c-0.5,0-1.3-0.1-1.4-0.3c-1.9-6.2-8.4-4.3-12.3-7
		c-0.9-0.6-2.6-0.8-2.5-2.1c0.1-1.4,1.4-2.1,2.9-2.4c1-0.2,2-0.1,2.9-0.5c1-0.4,1.6-1.3,1.3-2.4c-0.2-1.1-1.2-1.3-1.9-0.9
		c-1.9,0.8-3.7,0.5-4-1.4c-0.3-2.2,1.9-1.7,3.2-1.9c1.9-0.2,3.5-1.3,2.6-3.2c-1.7-3.5-2.9,1.8-4.8,0.3c-1-1.6,1.5-2.4,1.1-3.9
		c-0.2-0.8-0.6-2.2-0.7-2.2c-5.2,0.6-3.9-4.2-5.7-6.5c-2.2-2.7-4.1-5.6-6-8.5c-2.7-4.2-5.1-8.8-10.6-10.3c-2.7-0.7,0-4.1-3-5.5
		c-2.3-1.1-1.3-3.9,2-4.7c1.3-0.3,0.6-1.7,0.2-2.6c-1-2.6-1.8-5.7-5.1-6c-3.6-0.3-5.8-0.8-1.7-4.1c0.7-0.6,0.8-1.5,0.3-2.3
		c-0.6-0.8-1.4-0.6-2.3-0.3c-1.8,0.5-3.5,0.9-5.8,1.4c0.3-2.4-0.8-4.2-1.6-6.1c-1-2.6-3.8-5.1-2-9c0.5-1.1-3.4-4.7-5.7-6.5
		c-2.3-1.8-3.7-3-1.6-5.9c1.4-1.9,0.1-5-0.9-6.1c-2.8-2.8-2.5-6.6-4-9.8c-0.8-1.6-1.4-2.7-3-2.4c-6.2,1.4-5.9-3.9-6.2-6.9
		c-0.3-2.2-0.4-3.4-2.2-4.7c-2-1.5-4.8-2.9-3.9-6.3c-5.3-1.3-3.5-6.8-5.9-9.6c-1.5-1.7-3.4-2.5-2.5-5.2c0.1-0.4-0.6-1.6-0.9-1.6
		c-5.7,0.4-3-5.9-6.1-7.7c-1.2-0.7,0.9-1.8,1.1-2.9c5.6,3.8,9.5,9.3,14.1,14c31.2,30.9,62.1,62.2,93,93.3c20,20.2,21.7,52.1,3.8,74
		C436.4,293.1,435.6,293.5,435,294z"/>
	<path fill="#FEE56F" d="M179,120c2.3,3.2-0.6,5.9-1,8.8c-0.3,1.6-2.3,2.7-1.4,5c0.5,1.2-0.9,2.2-2.1,2.2c-4-0.2-4.2,2.2-4.6,5.4
		c-0.7,5-0.6,10.5-7.2,12.7c-3,1-3.5,5.4-6.7,7c-1.5,0.8,0.3,1.8,0.9,2.6c2.8,3.9,1.3,7.5-3.4,8.4c-3.5,0.7-4.3,3.4-4.1,6.3
		c0.1,1.7-0.3,2.6-1.7,3.1c-7.2,2.7-7.4,3.4-7.2,11.6c0.1,3.8,0.1,7.8-5.7,8.2c-2.7,0.2-2.1,2.8-0.6,4c2.2,1.9,2.3,3-0.3,4.3
		c-2,1-3.7,1.8-0.9,4.1c1.5,1.2-0.3,2.3-1.3,2.1c-3.7-0.5-5.5,3.9-9.1,3.2c-0.5,3.6-4.3,5.7-4.4,9.5c-0.1,1.5-0.1,3-1.2,4.2
		c-3.4,3.7-2.5,8.1-1.7,12.3c0.3,1.5,0.2,3.5-0.8,3.4c-4.1-0.3-4.8,4.9-8.6,4.9c-0.5,0-1.3,0.8-1.3,1.3c-0.4,3.4-2.5,5.9-4.2,8.7
		c-0.8,1.4-2.4,3.1-0.6,5.4c1.1,1.4,0,2.9-2,2.8c-3.8-0.2-5.3,0.9-4.3,5.2c1.1,4.8-1.7,8.9-4.7,12.5c-0.2,0.2-0.8,0.5-0.8,0.4
		c-4.4-5-7.7,1.7-11.6,1.2c-16.4-20.4-14.6-52.4,3-70.8c10-10.5,20.6-20.3,30.5-30.7c15-15.7,30.6-30.9,45.9-46.4
		C163.2,135.2,170.7,127.1,179,120z"/>
	<path fill="#FEE772" d="M215.9,352.2c-0.1,1-0.3,2.2-1.5,2.1c-1.1-0.1-1.4-1.2-1.4-2.3c0-0.9,0.3-1.7,1.3-1.8
		C215.7,350.1,215.9,351.1,215.9,352.2z"/>
	<path fill="#FEE772" d="M214.9,364.5c0.5-0.4,0.8-1,1.1-1c0.9,0,1,0.7,0.9,1.4c0,0.5,0.2,1.6-0.9,1.2
		C215.5,365.9,215.3,365.1,214.9,364.5z"/>
	<path fill="#FECE40" d="M370.6,191.7c0.4-1.4,1.1-2.2,2.3-2.3c0.2,0,0.8,0.7,0.7,0.9C373.2,191.5,372.3,192.1,370.6,191.7z"/>
	<path fill="#FECE40" d="M419.6,263.5c-0.7,0.2-1.2,0.4-1.5,0.3c-0.3-0.1-0.4-0.7-0.6-1.1c0.3-0.1,0.7-0.4,0.8-0.3
		C418.7,262.6,419.1,263,419.6,263.5z"/>
	<path fill="#FEE671" d="M107.8,248.9c-0.8-0.1-1.5-0.1-1.4-1c0.1-0.9,0.7-1.4,1.6-1.6c0.9-0.2,1.7,0.2,1.5,1.2
		C109.4,248.3,108.6,248.7,107.8,248.9z"/>
	<path fill="#FEE671" d="M90.4,274.4c-0.2,0.1-0.6,0.4-1,0.4c-0.7,0-1.2-0.5-0.9-1.2c0.1-0.3,0.8-0.4,1.2-0.4
		C90.2,273.3,90.7,273.5,90.4,274.4z"/>
</g>
</svg>
