<?xml version="1.0" standalone="no"?>
<!DOCTYPE svg PUBLIC "-//W3C//DTD SVG 20010904//EN"
 "http://www.w3.org/TR/2001/REC-SVG-20010904/DTD/svg10.dtd">
<svg version="1.0" xmlns="http://www.w3.org/2000/svg"
 width="512.000000pt" height="512.000000pt" viewBox="0 0 512.000000 512.000000"
 preserveAspectRatio="xMidYMid meet">
<metadata>
Created by potrace 1.14, written by Peter Selinger 2001-2017
</metadata>
<g transform="translate(0.000000,512.000000) scale(0.100000,-0.100000)"
fill="#000000" stroke="none">
<path d="M4214 4765 c-64 -61 -96 -77 -136 -69 -18 3 -51 7 -73 8 -37 1 -40
-1 -43 -28 -2 -18 0 -26 7 -22 7 5 8 1 5 -9 -4 -9 2 -25 11 -35 10 -11 14 -20
10 -20 -4 0 -1 -8 8 -18 15 -16 15 -21 2 -39 -8 -11 -11 -23 -8 -27 3 -3 2 -6
-4 -6 -6 0 -16 -13 -23 -30 -7 -16 -16 -30 -20 -30 -10 0 -7 -57 3 -67 4 -3
43 -1 87 6 76 13 80 12 109 -8 17 -12 36 -30 43 -39 7 -9 21 -23 30 -30 23
-19 46 3 51 49 4 34 12 62 26 89 4 8 30 26 57 40 27 14 51 28 52 33 2 4 12 7
23 7 26 0 26 50 -1 73 -11 9 -20 14 -20 11 0 -4 -6 -2 -12 4 -7 6 -17 11 -23
13 -64 14 -79 35 -88 127 -7 67 -19 70 -73 17z"/>
<path d="M2360 4617 c-41 -11 -77 -23 -80 -26 -3 -3 -14 -7 -25 -9 -41 -6 -51
-9 -107 -26 -32 -9 -58 -21 -58 -27 0 -10 273 -289 283 -289 5 0 23 65 32 115
2 11 4 20 5 20 2 0 7 19 15 60 3 16 10 34 16 41 5 6 7 13 4 16 -3 3 2 33 10
67 24 90 23 90 -95 58z"/>
<path d="M3325 4597 c-34 -18 -42 -31 -40 -65 3 -58 73 -84 111 -39 24 28 24
57 1 88 -21 28 -43 33 -72 16z"/>
<path d="M1593 4430 c-97 -59 -71 -206 39 -224 35 -6 98 12 98 27 0 6 7 15 16
22 24 17 25 83 1 127 -22 40 -83 74 -104 57 -7 -6 -12 -6 -15 1 -2 6 -16 2
-35 -10z"/>
<path d="M2875 4401 c-2 -4 -18 -7 -35 -6 -16 1 -30 -2 -30 -7 0 -4 -7 -8 -16
-8 -45 0 -203 -93 -276 -163 -11 -10 -35 -21 -54 -24 -19 -3 -34 -9 -34 -13 0
-5 -8 -7 -17 -6 -10 2 -21 -1 -24 -6 -3 -5 -14 -10 -25 -12 -10 -3 -34 -12
-52 -21 -25 -13 -39 -15 -60 -7 -39 15 -85 26 -99 23 -7 -1 -21 3 -31 8 -11 6
-24 6 -32 1 -9 -5 -19 -5 -26 1 -7 6 -15 6 -18 1 -3 -5 -23 -8 -46 -8 -22 1
-40 -3 -40 -7 0 -4 -6 -7 -12 -5 -19 3 -90 -22 -112 -41 -11 -9 -16 -11 -13
-5 7 12 -54 -16 -78 -36 -9 -7 -24 -9 -37 -5 -88 26 -147 13 -207 -46 -23 -21
-41 -35 -41 -31 0 17 -77 5 -119 -19 -63 -35 -83 -66 -86 -132 -2 -41 3 -66
21 -102 26 -51 47 -75 63 -75 6 0 11 -4 11 -9 0 -5 13 -14 30 -21 28 -11 29
-15 25 -59 -9 -106 -8 -136 11 -231 4 -25 4 -25 -68 -26 -81 -2 -179 -13 -208
-24 -3 -1 -8 -2 -12 -1 -4 0 -33 -10 -64 -24 -31 -14 -60 -22 -65 -19 -5 3 -9
1 -9 -5 0 -6 -16 -17 -35 -27 -42 -20 -133 -106 -162 -154 -63 -105 -77 -263
-31 -354 5 -10 11 -27 13 -37 4 -20 15 -35 61 -85 17 -18 29 -36 26 -39 -3 -3
0 -5 7 -5 6 0 21 -9 33 -20 22 -20 118 -60 151 -63 9 -1 17 -5 17 -9 0 -5 9
-4 20 2 11 6 20 7 20 3 0 -5 31 -8 70 -8 38 0 70 3 70 6 0 3 12 6 28 6 33 2
76 10 120 24 18 6 40 12 47 13 8 1 18 5 21 9 4 4 13 7 20 7 7 0 25 5 41 12 15
6 30 12 33 13 3 1 30 9 60 19 84 27 151 46 190 52 19 3 43 11 54 16 12 7 16 7
12 0 -4 -6 -1 -14 6 -19 7 -4 28 -25 46 -46 27 -31 31 -42 21 -53 -6 -8 -14
-12 -17 -9 -3 3 -11 0 -19 -6 -7 -6 -13 -9 -13 -5 0 17 -99 -47 -129 -83 -60
-74 -131 -198 -131 -229 0 -7 -5 -12 -10 -12 -6 0 -9 -3 -8 -7 3 -16 -15 -69
-29 -85 -8 -9 -23 -15 -34 -13 -10 2 -19 -2 -19 -8 0 -8 -3 -8 -9 2 -6 9 -11
10 -15 2 -4 -6 -11 -9 -16 -6 -13 8 -64 -20 -100 -55 -17 -17 -28 -30 -25 -30
3 0 -1 -10 -10 -23 -8 -13 -12 -27 -8 -30 3 -4 2 -7 -4 -7 -6 0 -14 -15 -17
-32 -3 -18 -8 -44 -11 -58 -14 -63 -6 -157 16 -205 17 -38 87 -104 116 -111
13 -4 20 -10 17 -15 -3 -5 1 -6 9 -3 16 6 54 -41 54 -66 0 -12 13 -73 38 -180
1 -3 5 -21 9 -40 5 -19 13 -41 18 -47 6 -7 7 -13 4 -13 -4 0 -1 -10 6 -23 7
-12 11 -28 10 -34 -2 -7 2 -13 8 -13 5 0 10 -5 10 -11 0 -12 31 -81 40 -89 3
-3 14 -22 25 -42 11 -21 23 -38 27 -38 5 0 8 -6 8 -13 0 -16 124 -147 139
-147 6 0 11 -4 11 -8 0 -5 25 -26 56 -48 30 -21 61 -44 67 -49 7 -6 29 -21 50
-34 20 -12 37 -27 37 -32 0 -6 4 -8 8 -5 11 7 108 -79 110 -96 0 -7 3 -26 6
-43 2 -16 5 -38 5 -47 1 -14 19 -26 51 -33 31 -8 97 -28 105 -33 6 -4 15 -7
20 -8 6 -1 42 -9 81 -17 110 -23 273 -14 313 17 12 9 13 8 6 -3 -6 -11 -5 -12
6 -5 8 4 20 9 28 11 8 1 26 5 40 9 14 4 29 7 34 6 4 -1 7 2 7 8 0 5 7 7 15 4
8 -4 15 -2 15 3 0 5 10 9 21 10 33 3 43 18 44 69 2 39 8 54 41 90 21 24 44 44
52 44 7 0 10 5 7 10 -3 6 -2 10 3 10 11 0 126 77 192 129 64 49 194 185 188
195 -2 2 4 12 14 22 25 29 68 111 61 118 -4 3 -2 6 4 6 6 0 21 28 33 63 13 34
22 62 21 62 -1 0 5 17 14 38 9 21 13 42 10 47 -3 5 -1 11 4 14 4 3 12 25 16
48 4 24 9 57 12 73 3 17 6 39 7 50 1 25 21 47 66 71 19 10 38 24 42 29 4 6 8
7 8 3 0 -4 12 5 26 19 33 33 66 96 69 132 1 15 5 33 8 39 4 5 1 13 -5 15 -10
4 -9 8 2 16 8 6 10 11 5 11 -6 0 -10 16 -10 35 1 20 -2 38 -7 41 -4 3 -8 15
-8 27 0 70 -100 194 -154 192 -14 -1 -26 1 -26 4 0 4 -12 6 -27 5 -39 -2 -53
5 -53 26 0 11 -4 22 -10 25 -5 3 -10 12 -10 19 0 8 -10 35 -22 62 -12 27 -21
52 -20 56 1 5 -2 8 -8 8 -5 0 -10 7 -10 15 0 8 -5 15 -11 15 -5 0 -8 4 -4 9 3
5 -2 16 -10 24 -8 9 -15 20 -15 26 0 6 -4 11 -10 11 -5 0 -10 7 -10 16 0 10 5
12 13 7 16 -10 32 -13 84 -16 24 -1 43 -6 43 -12 0 -7 3 -7 8 0 4 6 34 11 67
12 72 2 138 28 187 74 37 35 75 101 82 141 3 20 9 23 52 23 27 0 64 -3 82 -6
17 -4 32 -4 32 0 0 3 22 5 50 4 27 0 50 2 50 5 0 4 15 8 33 8 17 1 55 12 82
24 52 24 154 99 155 113 0 5 11 23 25 41 14 18 25 36 25 39 0 3 5 18 12 34 23
57 43 173 29 173 -3 0 -7 23 -8 51 -4 62 -47 150 -107 212 -44 46 -131 107
-153 107 -7 0 -13 5 -13 11 0 5 -4 8 -8 5 -5 -3 -22 2 -38 10 -16 9 -29 14
-29 13 0 -1 -25 4 -55 11 -57 14 -261 18 -317 7 -33 -7 -90 -18 -108 -21 -5
-1 -16 -5 -22 -9 -7 -5 -17 -5 -23 -2 -5 3 -10 1 -10 -4 0 -6 -5 -11 -11 -11
-11 0 -9 23 5 80 4 14 10 48 13 75 3 28 10 56 17 64 9 12 8 13 -4 6 -11 -6
-12 -5 -4 4 5 6 30 13 55 15 24 2 53 6 64 9 11 3 23 6 27 6 3 1 20 13 37 27
17 14 31 22 31 17 0 -4 15 15 32 42 18 28 35 52 38 55 19 17 49 177 31 166 -4
-3 -6 8 -3 23 2 16 -1 32 -7 35 -6 4 -11 14 -11 23 0 21 -68 103 -85 103 -7 0
-16 7 -19 16 -4 9 -9 14 -13 11 -3 -4 -13 -1 -21 5 -8 7 -21 13 -31 15 -98 17
-162 6 -230 -39 -37 -25 -46 -27 -53 -15 -7 14 -50 57 -103 107 -25 23 -115
77 -135 82 -8 2 -18 8 -22 13 -4 6 -11 10 -15 11 -11 1 -124 34 -143 41 -22
10 -269 12 -275 4z m938 -376 c47 -22 77 -63 77 -105 0 -18 4 -29 10 -25 12 8
-10 -46 -25 -60 -38 -36 -137 -43 -160 -12 -11 15 -27 85 -24 103 0 4 -3 10
-8 13 -5 3 -14 19 -21 35 -15 35 -4 52 42 65 41 11 63 8 109 -14z"/>
<path d="M854 4322 c-13 -8 -25 -62 -14 -62 4 0 7 -7 7 -15 0 -8 -4 -15 -8
-15 -4 0 -6 -11 -5 -24 3 -23 -32 -76 -49 -76 -4 0 -18 -11 -30 -24 -13 -14
-25 -23 -27 -21 -2 2 -9 -5 -16 -15 -10 -17 -8 -24 18 -48 29 -28 37 -31 93
-33 25 0 55 -32 49 -52 -3 -10 39 -87 47 -88 3 0 13 -2 22 -4 9 -2 25 13 40
36 13 22 27 39 31 39 5 0 8 5 8 11 0 29 43 49 120 56 50 4 105 22 72 23 -7 0
-10 5 -7 11 4 6 -1 19 -11 30 -66 67 -65 65 -35 155 l25 72 -28 25 -28 26 -34
-19 c-19 -11 -36 -20 -39 -21 -30 -6 -45 -13 -45 -20 0 -13 -51 0 -81 21 -15
11 -34 20 -42 20 -9 0 -17 4 -19 10 -1 5 -8 6 -14 2z"/>
<path d="M4598 3905 c-2 -3 -22 -6 -44 -9 -46 -4 -119 -28 -177 -58 -23 -11
-44 -20 -46 -19 -2 2 -7 -1 -10 -6 -3 -5 -24 -20 -46 -33 -42 -26 -66 -44 -97
-72 -10 -10 -22 -18 -26 -18 -9 0 -52 -46 -52 -56 0 -9 44 8 52 20 4 6 8 7 8
2 0 -5 6 -4 13 1 24 18 107 44 118 37 8 -4 9 -3 5 4 -5 8 1 12 16 13 13 1 37
2 53 3 17 1 48 -5 70 -13 41 -16 127 -69 133 -83 2 -4 10 -8 18 -8 8 0 17 -7
20 -15 4 -8 14 -15 23 -15 10 0 21 -3 25 -7 8 -9 31 -13 77 -15 102 -5 186
104 158 205 -17 60 -87 118 -160 132 -49 9 -126 15 -131 10z"/>
<path d="M618 3745 c-3 -3 -28 -7 -55 -9 -183 -13 -304 -112 -305 -249 -1 -51
24 -117 44 -117 4 0 8 -6 8 -13 0 -8 21 -24 48 -37 51 -26 140 -32 165 -11 8
6 17 8 20 4 4 -3 9 2 13 11 3 9 10 14 14 11 4 -3 44 30 88 73 105 101 113 107
158 123 64 22 199 18 264 -8 8 -3 26 -7 40 -9 33 -5 65 -12 65 -14 0 -2 14 -5
52 -14 32 -7 24 16 -12 34 -16 8 -38 22 -48 30 -10 8 -21 14 -25 14 -4 -1 -19
7 -34 18 -16 11 -28 16 -28 11 0 -4 -4 -3 -8 3 -15 22 -206 96 -322 125 -8 2
-18 9 -22 14 -5 6 -8 5 -8 -2 0 -9 -7 -10 -22 -5 -13 5 -34 8 -48 7 -14 0 -28
3 -31 7 -3 5 -8 6 -11 3z"/>
<path d="M722 2409 c-35 -13 -52 -34 -52 -64 0 -32 28 -63 61 -69 26 -4 78 21
80 39 0 5 2 20 3 32 3 23 -33 65 -57 69 -6 1 -22 -2 -35 -7z"/>
<path d="M990 2302 c-8 -3 -17 -8 -20 -11 -3 -4 -19 -17 -37 -29 -33 -24 -63
-24 -130 0 -44 16 -61 1 -45 -39 6 -15 12 -37 14 -48 2 -11 7 -23 12 -26 8 -6
-20 -53 -51 -87 -7 -7 -13 -18 -13 -23 0 -6 -6 -7 -12 -3 -10 5 -10 4 0 -7 7
-8 37 -14 74 -15 66 -2 83 -14 129 -83 l15 -24 22 23 c12 13 22 33 22 45 0 12
3 25 8 29 4 4 7 13 7 19 0 6 28 21 63 33 34 12 65 24 68 27 3 3 -4 14 -16 24
-12 10 -28 24 -35 31 -8 6 -18 12 -23 12 -16 0 -25 31 -28 94 -4 66 -3 65 -24
58z"/>
<path d="M4237 2304 c-2 -3 -14 -6 -26 -9 -55 -10 -102 -69 -106 -134 -9 -123
112 -205 228 -156 35 14 78 64 84 94 1 9 4 28 7 44 2 15 1 27 -4 27 -5 0 -7 8
-6 18 4 24 -39 77 -77 95 -34 16 -93 28 -100 21z"/>
</g>
</svg>
